<svg xmlns="http://www.w3.org/2000/svg" xmlns:xlink="http://www.w3.org/1999/xlink" contentStyleType="text/css" data-diagram-type="DESCRIPTION" height="766px" preserveAspectRatio="none" style="width:511px;height:766px;background:#1B1B1B;" version="1.1" viewBox="0 0 511 766" width="511px" zoomAndPan="magnify"><defs/><g><rect fill="#1B1B1B" height="766" style="stroke:none;stroke-width:1;" width="511" x="0" y="0"/><!--cluster :gateway--><g class="cluster" data-entity=":gateway" data-source-line="48" data-uid="ent0002" id="cluster_:gateway"><rect fill="none" height="146" rx="2.5" ry="2.5" style="stroke:#E7E7E7;stroke-width:1;" width="200" x="218" y="42.0986"/><rect fill="none" height="10" style="stroke:#E7E7E7;stroke-width:1;" width="15" x="398" y="47.0986"/><rect fill="none" height="2" style="stroke:#E7E7E7;stroke-width:1;" width="4" x="396" y="49.0986"/><rect fill="none" height="2" style="stroke:#E7E7E7;stroke-width:1;" width="4" x="396" y="53.0986"/><text fill="#FFFFFF" font-family="sans-serif" font-size="14" font-weight="bold" lengthAdjust="spacing" textLength="72.7617" x="281.6191" y="68.0938">:gateway</text></g><!--cluster :Location Service--><g class="cluster" data-entity=":Location Service" data-source-line="55" data-uid="ent0007" id="cluster_:Location Service"><rect fill="none" height="146" rx="2.5" ry="2.5" style="stroke:#E7E7E7;stroke-width:1;" width="315.5" x="135" y="315.0986"/><rect fill="none" height="10" style="stroke:#E7E7E7;stroke-width:1;" width="15" x="430.5" y="320.0986"/><rect fill="none" height="2" style="stroke:#E7E7E7;stroke-width:1;" width="4" x="428.5" y="322.0986"/><rect fill="none" height="2" style="stroke:#E7E7E7;stroke-width:1;" width="4" x="428.5" y="326.0986"/><text fill="#FFFFFF" font-family="sans-serif" font-size="14" font-weight="bold" lengthAdjust="spacing" textLength="136.0352" x="224.7324" y="341.0938">:Location Service</text></g><!--cluster LOC_DB--><g class="cluster" data-entity="LOC_DB" data-source-line="64" data-uid="ent0015" id="cluster_LOC_DB"><path d="M6,598.0986 C6,588.0986 87,588.0986 87,588.0986 C87,588.0986 168,588.0986 168,598.0986 L168,739.0986 C168,749.0986 87,749.0986 87,749.0986 C87,749.0986 6,749.0986 6,739.0986 L6,598.0986" fill="#FFFFE0" style="stroke:#E7E7E7;stroke-width:1;"/><path d="M6,598.0986 C6,608.0986 87,608.0986 87,608.0986 C87,608.0986 168,608.0986 168,598.0986" fill="none" style="stroke:#E7E7E7;stroke-width:1;"/><text fill="#FFFFFF" font-family="sans-serif" font-size="14" font-style="italic" lengthAdjust="spacing" textLength="113.1484" x="30.4258" y="623.0938">&#171;infrastructure&#187;</text><text fill="#FFFFFF" font-family="sans-serif" font-size="14" font-weight="bold" lengthAdjust="spacing" textLength="72.96" x="48.083" y="639.3906">:Location</text><text fill="#FFFFFF" font-family="sans-serif" font-size="14" font-weight="bold" lengthAdjust="spacing" textLength="74.5049" x="52.1846" y="655.6875">Database</text></g><!--cluster :Message \n broker--><g class="cluster" data-entity=":Message \n broker" data-source-line="69" data-uid="ent0018" id="cluster_:Message \n broker"><path d="M274.5,588.0986 L445.5,588.0986 C450.5,588.0986 450.5,664.8486 450.5,664.8486 C450.5,664.8486 450.5,741.5986 445.5,741.5986 L274.5,741.5986 C269.5,741.5986 269.5,664.8486 269.5,664.8486 C269.5,664.8486 269.5,588.0986 274.5,588.0986" fill="#E4FAFB" style="stroke:#E7E7E7;stroke-width:1;"/><path d="M445.5,588.0986 C440.5,588.0986 440.5,664.8486 440.5,664.8486 C440.5,741.5986 445.5,741.5986 445.5,741.5986" fill="none" style="stroke:#E7E7E7;stroke-width:1;"/><text fill="#FFFFFF" font-family="sans-serif" font-size="14" font-style="italic" lengthAdjust="spacing" textLength="113.1484" x="303.4258" y="603.0938">&#171;infrastructure&#187;</text><text fill="#FFFFFF" font-family="sans-serif" font-size="14" font-weight="bold" lengthAdjust="spacing" textLength="74.6553" x="320.2354" y="619.3906">:Message</text><text fill="#FFFFFF" font-family="sans-serif" font-size="14" font-weight="bold" lengthAdjust="spacing" textLength="52.2539" x="336.3101" y="635.6875">broker</text></g><g class="entity" data-entity="GATEWAY_API" data-source-line="49" data-uid="ent0003" id="entity_GATEWAY_API"><text fill="#FFFFFF" font-family="sans-serif" font-size="14" lengthAdjust="spacing" textLength="22.1484" x="264.9258" y="20.7969">API</text><rect fill="#313139" height="12" style="stroke:#E7E7E7;stroke-width:1.5;" width="12" x="270" y="36.0986"/></g><g class="entity" data-entity="GATEWAY_REALTIME" data-source-line="50" data-uid="ent0004" id="entity_GATEWAY_REALTIME"><text fill="#FFFFFF" font-family="sans-serif" font-size="14" lengthAdjust="spacing" textLength="94.0898" x="344.9551" y="20.7969">Real-time API</text><rect fill="#313139" height="12" style="stroke:#E7E7E7;stroke-width:1.5;" width="12" x="386" y="36.0986"/></g><g class="entity" data-entity="GATEWAY_LOC_REALTIME" data-source-line="51" data-uid="ent0005" id="entity_GATEWAY_LOC_REALTIME"><text fill="#FFFFFF" font-family="sans-serif" font-size="14" lengthAdjust="spacing" textLength="114.0576" x="176.7461" y="207.0938">Location service</text><text fill="#FFFFFF" font-family="sans-serif" font-size="14" lengthAdjust="spacing" textLength="94.0898" x="191.1802" y="223.3906">Real-time API</text><rect fill="#313139" height="12" style="stroke:#E7E7E7;stroke-width:1.5;" width="12" x="230" y="182.0986"/></g><g class="entity" data-entity="GATEWAY_LOC_API" data-source-line="52" data-uid="ent0006" id="entity_GATEWAY_LOC_API"><text fill="#FFFFFF" font-family="sans-serif" font-size="14" lengthAdjust="spacing" textLength="114.0576" x="340.7461" y="207.0938">Location service</text><text fill="#FFFFFF" font-family="sans-serif" font-size="14" lengthAdjust="spacing" textLength="68.2773" x="368.0864" y="223.3906">Public API</text><rect fill="#313139" height="12" style="stroke:#E7E7E7;stroke-width:1.5;" width="12" x="394" y="182.0986"/></g><g class="entity" data-entity="LOC_REALTIME" data-source-line="56" data-uid="ent0008" id="entity_LOC_REALTIME"><text fill="#FFFFFF" font-family="sans-serif" font-size="14" lengthAdjust="spacing" textLength="67.4912" x="223.5293" y="277.5">Real-time</text><text fill="#FFFFFF" font-family="sans-serif" font-size="14" lengthAdjust="spacing" textLength="57.2783" x="233.0859" y="293.7969">tracking</text><rect fill="#313139" height="12" style="stroke:#E7E7E7;stroke-width:1.5;" width="12" x="253.5" y="309.0986"/></g><g class="entity" data-entity="LOC_TRACK" data-source-line="57" data-uid="ent0009" id="entity_LOC_TRACK"><text fill="#FFFFFF" font-family="sans-serif" font-size="14" lengthAdjust="spacing" textLength="60.3408" x="351.1045" y="277.5">Tracking</text><text fill="#FFFFFF" font-family="sans-serif" font-size="14" lengthAdjust="spacing" textLength="59.0352" x="356.2075" y="293.7969">Services</text><rect fill="#313139" height="12" style="stroke:#E7E7E7;stroke-width:1.5;" width="12" x="377.5" y="309.0986"/></g><g class="entity" data-entity="LOC_DA" data-source-line="58" data-uid="ent0010" id="entity_LOC_DA"><text fill="#FFFFFF" font-family="sans-serif" font-size="14" lengthAdjust="spacing" textLength="33.4277" x="134.061" y="480.0938">Data</text><text fill="#FFFFFF" font-family="sans-serif" font-size="14" lengthAdjust="spacing" textLength="48.1729" x="131.1387" y="496.3906">Access</text><rect fill="#313139" height="12" style="stroke:#E7E7E7;stroke-width:1.5;" width="12" x="147" y="455.0986"/></g><g class="entity" data-entity="LOC_PUB" data-source-line="59" data-uid="ent0011" id="entity_LOC_PUB"><text fill="#FFFFFF" font-family="sans-serif" font-size="14" lengthAdjust="spacing" textLength="50.1484" x="260.2007" y="480.0938">Publish</text><text fill="#FFFFFF" font-family="sans-serif" font-size="14" lengthAdjust="spacing" textLength="86.0234" x="246.7134" y="496.3906">notifications</text><rect fill="#313139" height="12" style="stroke:#E7E7E7;stroke-width:1.5;" width="12" x="281.5" y="455.0986"/></g><g class="entity" data-entity="LOC_SUB" data-source-line="60" data-uid="ent0012" id="entity_LOC_SUB"><text fill="#FFFFFF" font-family="sans-serif" font-size="14" lengthAdjust="spacing" textLength="55.4395" x="402.5552" y="480.0938">Receive</text><text fill="#FFFFFF" font-family="sans-serif" font-size="14" lengthAdjust="spacing" textLength="99.8799" x="384.7852" y="496.3906">groups events</text><rect fill="#313139" height="12" style="stroke:#E7E7E7;stroke-width:1.5;" width="12" x="426.5" y="455.0986"/></g><g class="entity" data-entity="LOC_DB_DA" data-source-line="65" data-uid="ent0016" id="entity_LOC_DB_DA"><text fill="#FFFFFF" font-family="sans-serif" font-size="14" lengthAdjust="spacing" textLength="4.4502" x="84.7749" y="566.7969">&#160;</text><rect fill="#313139" height="12" style="stroke:#E7E7E7;stroke-width:1.5;" width="12" x="81" y="582.0986"/></g><g class="entity" data-entity="MB_PUB_NOTIF" data-source-line="70" data-uid="ent0019" id="entity_MB_PUB_NOTIF"><text fill="#FFFFFF" font-family="sans-serif" font-size="14" lengthAdjust="spacing" textLength="50.1484" x="260.2007" y="550.5">Publish</text><text fill="#FFFFFF" font-family="sans-serif" font-size="14" lengthAdjust="spacing" textLength="86.0234" x="246.7134" y="566.7969">notifications</text><rect fill="#313139" height="12" style="stroke:#E7E7E7;stroke-width:1.5;" width="12" x="281.5" y="582.0986"/></g><g class="entity" data-entity="MB_SUB_GRPS" data-source-line="71" data-uid="ent0020" id="entity_MB_SUB_GRPS"><text fill="#FFFFFF" font-family="sans-serif" font-size="14" lengthAdjust="spacing" textLength="68.7832" x="395.8833" y="550.5">Subscribe</text><text fill="#FFFFFF" font-family="sans-serif" font-size="14" lengthAdjust="spacing" textLength="99.8799" x="384.7852" y="566.7969">groups events</text><rect fill="#313139" height="12" style="stroke:#E7E7E7;stroke-width:1.5;" width="12" x="426.5" y="582.0986"/></g><!--link GATEWAY_LOC_REALTIME to LOC_REALTIME--><g class="link" data-entity-1="GATEWAY_LOC_REALTIME" data-entity-2="LOC_REALTIME" data-source-line="62" data-uid="lnk13" id="link_GATEWAY_LOC_REALTIME_LOC_REALTIME"><path d="M236.97,194.1486 C240.83,214.2486 255.06,288.3886 258.99,308.8386" fill="none" id="GATEWAY_LOC_REALTIME-LOC_REALTIME" style="stroke:#E7E7E7;stroke-width:1;"/><text fill="#FFFFFF" font-family="sans-serif" font-size="13" lengthAdjust="spacing" textLength="40.0854" x="258" y="256.1655">&#171;wss&#187;</text><path d="M253.5649,243.085 A10,10 0 0 0 239.6764 245.7512" fill="none" style="stroke:#E7E7E7;stroke-width:1.5;"/><ellipse cx="247.9538" cy="251.3624" fill="#FFFFFF" rx="6" ry="6" style="stroke:#E7E7E7;stroke-width:1.5;"/></g><!--link GATEWAY_LOC_API to LOC_TRACK--><g class="link" data-entity-1="GATEWAY_LOC_API" data-entity-2="LOC_TRACK" data-source-line="63" data-uid="lnk14" id="link_GATEWAY_LOC_API_LOC_TRACK"><path d="M399.35,194.1486 C396.78,214.2486 387.29,288.3886 384.67,308.8386" fill="none" id="GATEWAY_LOC_API-LOC_TRACK" style="stroke:#E7E7E7;stroke-width:1;"/><text fill="#FFFFFF" font-family="sans-serif" font-size="13" lengthAdjust="spacing" textLength="36.6514" x="401" y="256.1655">&#171;rpc&#187;</text><path d="M399.9404,245.2463 A10,10 0 0 0 385.9127 243.4508" fill="none" style="stroke:#E7E7E7;stroke-width:1.5;"/><ellipse cx="392.0287" cy="251.3624" fill="#FFFFFF" rx="6" ry="6" style="stroke:#E7E7E7;stroke-width:1.5;"/></g><!--link LOC_DA to LOC_DB_DA--><g class="link" data-entity-1="LOC_DA" data-entity-2="LOC_DB_DA" data-source-line="67" data-uid="lnk17" id="link_LOC_DA_LOC_DB_DA"><path d="M148.58,467.3186 C141.63,475.7086 128.01,492.9086 119,509.0986 C104.48,535.1886 92.78,569.2286 88.63,581.9786" fill="none" id="LOC_DA-LOC_DB_DA" style="stroke:#E7E7E7;stroke-width:1;"/><text fill="#FFFFFF" font-family="sans-serif" font-size="13" lengthAdjust="spacing" textLength="145.4312" x="127" y="529.1655">&#171;database connector&#187;</text><path d="M128.6173,506.3585 A10,10 0 0 0 116.2598 499.4814" fill="none" style="stroke:#E7E7E7;stroke-width:1.5;"/><ellipse cx="119" cy="509.0986" fill="#FFFFFF" rx="6" ry="6" style="stroke:#E7E7E7;stroke-width:1.5;"/></g><!--link LOC_PUB to MB_PUB_NOTIF--><g class="link" data-entity-1="LOC_PUB" data-entity-2="MB_PUB_NOTIF" data-source-line="73" data-uid="lnk21" id="link_LOC_PUB_MB_PUB_NOTIF"><path d="M288,467.1486 C288,487.2486 288,561.3886 288,581.8386" fill="none" id="LOC_PUB-MB_PUB_NOTIF" style="stroke:#E7E7E7;stroke-width:1;"/><text fill="#FFFFFF" font-family="sans-serif" font-size="13" lengthAdjust="spacing" textLength="78.2983" x="296" y="529.1655">&#171;subscribe&#187;</text><path d="M295.0711,517.2913 A10,10 0 0 0 280.9289 517.2913" fill="none" style="stroke:#E7E7E7;stroke-width:1.5;"/><ellipse cx="288" cy="524.3624" fill="#FFFFFF" rx="6" ry="6" style="stroke:#E7E7E7;stroke-width:1.5;"/></g><!--link LOC_SUB to MB_SUB_GRPS--><g class="link" data-entity-1="LOC_SUB" data-entity-2="MB_SUB_GRPS" data-source-line="74" data-uid="lnk22" id="link_LOC_SUB_MB_SUB_GRPS"><path d="M433,467.1486 C433,487.2486 433,561.3886 433,581.8386" fill="none" id="LOC_SUB-MB_SUB_GRPS" style="stroke:#E7E7E7;stroke-width:1;"/><text fill="#FFFFFF" font-family="sans-serif" font-size="13" lengthAdjust="spacing" textLength="62.8862" x="441" y="529.1655">&#171;publish&#187;</text><path d="M440.0711,517.2913 A10,10 0 0 0 425.9289 517.2913" fill="none" style="stroke:#E7E7E7;stroke-width:1.5;"/><ellipse cx="433" cy="524.3624" fill="#FFFFFF" rx="6" ry="6" style="stroke:#E7E7E7;stroke-width:1.5;"/></g><!--SRC=[bPHDZzem48Rl-HKZzf1Ua2fjrSEAHWeiHQYmIu5gjQ88EMO0Ys2djWD5A_vxxIJaWuMqzIt9yuvdtfc9-wNkp62YZo7ZQvZNOQwZjen7H98TKB6B14UkuSq1Szg4RjTIn7pP4Q6GhHR-rYWv2JqFNZPCuoqAQQn94ABXxl1-zHdlhvCQbJOCFHBkd4g9F18Z9mel131Wwur-nJ0KXnBzFSRu7Ng7drPa5PIm9x5yHwLLkBKsTiwkg5edNSTjrfqPz8Z60pd2l0vpdQ8BZOTrAcba3Oc4r8n3mn_r6q0KzFnfzyL_NPZdolSnah2fsGxXaXnt_S6qF-pck8ZDFGD1YMQ2WqAvPnJX9uVRCGRFdV-8Cug3aD6hGMpQfzkspI2FDydYpV_DjalTfNz5RIP1BSrGc3r9qhjQcvLCCyegigWgLqp7VkTRrGexmfRrgG4Byj6lOeaxQcD9BZHRiJJnGZ3wqQugnaYHxPFCxIH72d1lXpDNJ8pYv5nh5ZG_V6nMIeG7QBKEIdcUSz6OWasAIq0PKGCki-Ki-soIEUziKMhRI1XVIQAqZAcEfVqVL1i19TfwSt9IauhRa_V9xVczL72EL0jfad5hzcreZ2ThXBOKMvGrQ-Swl-mln1HqbfXwWaJL-7iDjIqSjcq75q_Fq_xNYceI1ufA5jnefD6PFYvwuz4aCyM4ILqfXqoCKUTGnezi07Bo72G1epHJp_i3]--></g></svg>