<svg xmlns="http://www.w3.org/2000/svg" xmlns:xlink="http://www.w3.org/1999/xlink" contentStyleType="text/css" data-diagram-type="DESCRIPTION" height="754px" preserveAspectRatio="none" style="width:354px;height:754px;background:#1B1B1B;" version="1.1" viewBox="0 0 354 754" width="354px" zoomAndPan="magnify"><defs/><g><rect fill="#1B1B1B" height="754" style="stroke:none;stroke-width:1;" width="354" x="0" y="0"/><!--cluster :gateway--><g class="cluster" data-entity=":gateway" data-source-line="66" data-uid="ent0002" id="cluster_:gateway"><rect fill="none" height="134" rx="2.5" ry="2.5" style="stroke:#E7E7E7;stroke-width:1;" width="82.5" x="163" y="42.0986"/><rect fill="none" height="10" style="stroke:#E7E7E7;stroke-width:1;" width="15" x="225.5" y="47.0986"/><rect fill="none" height="2" style="stroke:#E7E7E7;stroke-width:1;" width="4" x="223.5" y="49.0986"/><rect fill="none" height="2" style="stroke:#E7E7E7;stroke-width:1;" width="4" x="223.5" y="53.0986"/><text fill="#FFFFFF" font-family="sans-serif" font-size="14" font-weight="bold" lengthAdjust="spacing" textLength="72.7617" x="167.8691" y="68.0938">:gateway</text></g><!--cluster :User Service--><g class="cluster" data-entity=":User Service" data-source-line="71" data-uid="ent0005" id="cluster_:User Service"><rect fill="none" height="146" rx="2.5" ry="2.5" style="stroke:#E7E7E7;stroke-width:1;" width="174.5" x="100" y="303.0986"/><rect fill="none" height="10" style="stroke:#E7E7E7;stroke-width:1;" width="15" x="254.5" y="308.0986"/><rect fill="none" height="2" style="stroke:#E7E7E7;stroke-width:1;" width="4" x="252.5" y="310.0986"/><rect fill="none" height="2" style="stroke:#E7E7E7;stroke-width:1;" width="4" x="252.5" y="314.0986"/><text fill="#FFFFFF" font-family="sans-serif" font-size="14" font-weight="bold" lengthAdjust="spacing" textLength="104.7744" x="134.8628" y="329.0938">:User Service</text></g><!--cluster USR_DB--><g class="cluster" data-entity="USR_DB" data-source-line="78" data-uid="ent0010" id="cluster_USR_DB"><path d="M6,586.0986 C6,576.0986 87,576.0986 87,576.0986 C87,576.0986 168,576.0986 168,586.0986 L168,727.0986 C168,737.0986 87,737.0986 87,737.0986 C87,737.0986 6,737.0986 6,727.0986 L6,586.0986" fill="#FFFFE0" style="stroke:#E7E7E7;stroke-width:1;"/><path d="M6,586.0986 C6,596.0986 87,596.0986 87,596.0986 C87,596.0986 168,596.0986 168,586.0986" fill="none" style="stroke:#E7E7E7;stroke-width:1;"/><text fill="#FFFFFF" font-family="sans-serif" font-size="14" font-style="italic" lengthAdjust="spacing" textLength="113.1484" x="30.4258" y="611.0938">&#171;infrastructure&#187;</text><text fill="#FFFFFF" font-family="sans-serif" font-size="14" font-weight="bold" lengthAdjust="spacing" textLength="41.6992" x="63.7134" y="627.3906">:User</text><text fill="#FFFFFF" font-family="sans-serif" font-size="14" font-weight="bold" lengthAdjust="spacing" textLength="74.5049" x="52.1846" y="643.6875">Database</text></g><!--cluster :Message \n broker--><g class="cluster" data-entity=":Message \n broker" data-source-line="83" data-uid="ent0013" id="cluster_:Message \n broker"><path d="M206,576.0986 L319,576.0986 C324,576.0986 324,652.8486 324,652.8486 C324,652.8486 324,729.5986 319,729.5986 L206,729.5986 C201,729.5986 201,652.8486 201,652.8486 C201,652.8486 201,576.0986 206,576.0986" fill="#E4FAFB" style="stroke:#E7E7E7;stroke-width:1;"/><path d="M319,576.0986 C314,576.0986 314,652.8486 314,652.8486 C314,729.5986 319,729.5986 319,729.5986" fill="none" style="stroke:#E7E7E7;stroke-width:1;"/><text fill="#FFFFFF" font-family="sans-serif" font-size="14" font-style="italic" lengthAdjust="spacing" textLength="113.1484" x="205.9258" y="591.0938">&#171;infrastructure&#187;</text><text fill="#FFFFFF" font-family="sans-serif" font-size="14" font-weight="bold" lengthAdjust="spacing" textLength="74.6553" x="222.7354" y="607.3906">:Message</text><text fill="#FFFFFF" font-family="sans-serif" font-size="14" font-weight="bold" lengthAdjust="spacing" textLength="52.2539" x="238.8101" y="623.6875">broker</text></g><g class="entity" data-entity="GATEWAY_API" data-source-line="67" data-uid="ent0003" id="entity_GATEWAY_API"><text fill="#FFFFFF" font-family="sans-serif" font-size="14" lengthAdjust="spacing" textLength="22.1484" x="211.9258" y="20.7969">API</text><rect fill="#313139" height="12" style="stroke:#E7E7E7;stroke-width:1.5;" width="12" x="217" y="36.0986"/></g><g class="entity" data-entity="GATEWAY_USR_API" data-source-line="68" data-uid="ent0004" id="entity_GATEWAY_USR_API"><text fill="#FFFFFF" font-family="sans-serif" font-size="14" lengthAdjust="spacing" textLength="86.5088" x="182.0205" y="195.0938">User service</text><text fill="#FFFFFF" font-family="sans-serif" font-size="14" lengthAdjust="spacing" textLength="68.2773" x="195.5864" y="211.3906">Public API</text><rect fill="#313139" height="12" style="stroke:#E7E7E7;stroke-width:1.5;" width="12" x="221.5" y="170.0986"/></g><g class="entity" data-entity="USER_SERVICES" data-source-line="72" data-uid="ent0006" id="entity_USER_SERVICES"><text fill="#FFFFFF" font-family="sans-serif" font-size="14" lengthAdjust="spacing" textLength="110.0791" x="170.2354" y="265.5">User and Group</text><text fill="#FFFFFF" font-family="sans-serif" font-size="14" lengthAdjust="spacing" textLength="59.0352" x="200.2075" y="281.7969">Services</text><rect fill="#313139" height="12" style="stroke:#E7E7E7;stroke-width:1.5;" width="12" x="221.5" y="297.0986"/></g><g class="entity" data-entity="USR_DA" data-source-line="73" data-uid="ent0007" id="entity_USR_DA"><text fill="#FFFFFF" font-family="sans-serif" font-size="14" lengthAdjust="spacing" textLength="33.4277" x="99.061" y="468.0938">Data</text><text fill="#FFFFFF" font-family="sans-serif" font-size="14" lengthAdjust="spacing" textLength="48.1729" x="96.1387" y="484.3906">Access</text><rect fill="#313139" height="12" style="stroke:#E7E7E7;stroke-width:1.5;" width="12" x="112" y="443.0986"/></g><g class="entity" data-entity="USR_PUB" data-source-line="74" data-uid="ent0008" id="entity_USR_PUB"><text fill="#FFFFFF" font-family="sans-serif" font-size="14" lengthAdjust="spacing" textLength="50.1484" x="229.2007" y="468.0938">Publish</text><text fill="#FFFFFF" font-family="sans-serif" font-size="14" lengthAdjust="spacing" textLength="92.5859" x="212.4321" y="484.3906">group events</text><rect fill="#313139" height="12" style="stroke:#E7E7E7;stroke-width:1.5;" width="12" x="250.5" y="443.0986"/></g><g class="entity" data-entity="USR_DB_DA" data-source-line="79" data-uid="ent0011" id="entity_USR_DB_DA"><text fill="#FFFFFF" font-family="sans-serif" font-size="14" lengthAdjust="spacing" textLength="4.4502" x="84.7749" y="554.7969">&#160;</text><rect fill="#313139" height="12" style="stroke:#E7E7E7;stroke-width:1.5;" width="12" x="81" y="570.0986"/></g><g class="entity" data-entity="MB_PUB_GROUP" data-source-line="84" data-uid="ent0014" id="entity_MB_PUB_GROUP"><text fill="#FFFFFF" font-family="sans-serif" font-size="14" lengthAdjust="spacing" textLength="50.1484" x="260.2007" y="538.5">Publish</text><text fill="#FFFFFF" font-family="sans-serif" font-size="14" lengthAdjust="spacing" textLength="92.5859" x="243.4321" y="554.7969">group events</text><rect fill="#313139" height="12" style="stroke:#E7E7E7;stroke-width:1.5;" width="12" x="281.5" y="570.0986"/></g><!--link GATEWAY_USR_API to USER_SERVICES--><g class="link" data-entity-1="GATEWAY_USR_API" data-entity-2="USER_SERVICES" data-source-line="77" data-uid="lnk9" id="link_GATEWAY_USR_API_USER_SERVICES"><path d="M228,182.1486 C228,202.2486 228,276.3886 228,296.8386" fill="none" id="GATEWAY_USR_API-USER_SERVICES" style="stroke:#E7E7E7;stroke-width:1;"/><text fill="#FFFFFF" font-family="sans-serif" font-size="13" lengthAdjust="spacing" textLength="36.6514" x="236" y="244.1655">&#171;rpc&#187;</text><path d="M235.0711,232.2913 A10,10 0 0 0 220.9289 232.2913" fill="none" style="stroke:#E7E7E7;stroke-width:1.5;"/><ellipse cx="228" cy="239.3624" fill="#FFFFFF" rx="6" ry="6" style="stroke:#E7E7E7;stroke-width:1.5;"/></g><!--link USR_DA to USR_DB_DA--><g class="link" data-entity-1="USR_DA" data-entity-2="USR_DB_DA" data-source-line="81" data-uid="lnk12" id="link_USR_DA_USR_DB_DA"><path d="M112.53,455.2386 C104.45,463.2586 89.65,479.6586 84,497.0986 C75.48,523.3986 82.45,557.3186 85.62,570.0086" fill="none" id="USR_DA-USR_DB_DA" style="stroke:#E7E7E7;stroke-width:1;"/><text fill="#FFFFFF" font-family="sans-serif" font-size="13" lengthAdjust="spacing" textLength="145.4312" x="92" y="517.1655">&#171;database connector&#187;</text><path d="M92.9062,492.5511 A10,10 0 0 0 79.4524 488.1925" fill="none" style="stroke:#E7E7E7;stroke-width:1.5;"/><ellipse cx="84" cy="497.0986" fill="#FFFFFF" rx="6" ry="6" style="stroke:#E7E7E7;stroke-width:1.5;"/></g><!--link USR_PUB to MB_PUB_GROUP--><g class="link" data-entity-1="USR_PUB" data-entity-2="MB_PUB_GROUP" data-source-line="86" data-uid="lnk15" id="link_USR_PUB_MB_PUB_GROUP"><path d="M258.25,455.1486 C263.24,475.2486 281.62,549.3886 286.7,569.8386" fill="none" id="USR_PUB-MB_PUB_GROUP" style="stroke:#E7E7E7;stroke-width:1;"/><text fill="#FFFFFF" font-family="sans-serif" font-size="13" lengthAdjust="spacing" textLength="62.8862" x="284" y="517.1655">&#171;publish&#187;</text><path d="M277.6023,503.7972 A10,10 0 0 0 263.876 507.2013" fill="none" style="stroke:#E7E7E7;stroke-width:1.5;"/><ellipse cx="272.4412" cy="512.3624" fill="#FFFFFF" rx="6" ry="6" style="stroke:#E7E7E7;stroke-width:1.5;"/></g><!--SRC=[XP9VQy8m5CNV-oakzS6z20F77iGLwXz4cAopwqGOI8pNMgn9bwOw6Nxt9R7Lrj4ja8SsltlFEJTfFjKkyEKnZbW8zKZJIhSHIuWWEw1ybt26JCAt1Mhr2Ds6WcTirUSn5zqkVaaKZCIE0xDD9B6EGff9ienHSGrihn-nRPrAEWEYJacADvNm78KRESSuveSI_PfXzWjjuCEQh9TMipvxlqYJGdtuQsIx4nA91tAqy_G95p9YOBlUs0QImiXz6yxS-K9zNyvvfWg350MelOyemWS3Brl64ONRki2VcjgJLL4rrVwv-bRQd16sWf6AdkZUEPYQpe4_d2xKVX_tXtxLanwnvbsgu8AUBWPk5JDMquqcGoE1Upsm2-y5FUtt9WAqxkvRLNNeGBSh4keurYg_tIARwbrS-DL7J-4HMmkIIf5HcGdzLghXeKHhuoVhdA1Gp_yRvOicvOmXbLme8zQdVZdAnaIDW8JcRfQ2Rr7O_wl_DPb9JmzcCPg-15vkItsVVPNFZBNatCXnVW00]--></g></svg>