<svg xmlns="http://www.w3.org/2000/svg" xmlns:xlink="http://www.w3.org/1999/xlink" contentStyleType="text/css" data-diagram-type="DESCRIPTION" height="395px" preserveAspectRatio="none" style="width:492px;height:395px;background:#FFFFFF;" version="1.1" viewBox="0 0 492 395" width="492px" zoomAndPan="magnify"><defs/><g><!--cluster :notification-service--><g class="cluster" data-entity=":notification-service" data-source-line="150" data-uid="ent0002" id="cluster_:notification-service"><rect fill="none" height="83" rx="2.5" ry="2.5" style="stroke:#181818;stroke-width:1;" width="331" x="125" y="7"/><rect fill="none" height="10" style="stroke:#181818;stroke-width:1;" width="15" x="436" y="12"/><rect fill="none" height="2" style="stroke:#181818;stroke-width:1;" width="4" x="434" y="14"/><rect fill="none" height="2" style="stroke:#181818;stroke-width:1;" width="4" x="434" y="18"/><text fill="#000000" font-family="sans-serif" font-size="14" font-weight="bold" lengthAdjust="spacing" textLength="158.6484" x="211.1758" y="32.9951">:notification-service</text></g><!--cluster NOT_DB--><g class="cluster" data-entity="NOT_DB" data-source-line="155" data-uid="ent0006" id="cluster_NOT_DB"><path d="M6,227 C6,217 84,217 84,217 C84,217 162,217 162,227 L162,368 C162,378 84,378 84,378 C84,378 6,378 6,368 L6,227" fill="#FFFFE0" style="stroke:#181818;stroke-width:1;"/><path d="M6,227 C6,237 84,237 84,237 C84,237 162,237 162,227" fill="none" style="stroke:#181818;stroke-width:1;"/><text fill="#000000" font-family="sans-serif" font-size="14" font-weight="bold" lengthAdjust="spacing" textLength="103.0107" x="30.0576" y="251.9951">: Notification</text><text fill="#000000" font-family="sans-serif" font-size="14" font-weight="bold" lengthAdjust="spacing" textLength="58.2012" x="54.8994" y="268.292">Service</text><text fill="#000000" font-family="sans-serif" font-size="14" font-weight="bold" lengthAdjust="spacing" textLength="74.5049" x="49.1846" y="284.5889">Database</text></g><!--cluster :Message \n broker--><g class="cluster" data-entity=":Message \n broker" data-source-line="160" data-uid="ent0009" id="cluster_:Message \n broker"><path d="M284.5,217 L451,217 C456,217 456,293.75 456,293.75 C456,293.75 456,370.5 451,370.5 L284.5,370.5 C279.5,370.5 279.5,293.75 279.5,293.75 C279.5,293.75 279.5,217 284.5,217" fill="#E4FAFB" style="stroke:#181818;stroke-width:1;"/><path d="M451,217 C446,217 446,293.75 446,293.75 C446,370.5 451,370.5 451,370.5" fill="none" style="stroke:#181818;stroke-width:1;"/><text fill="#000000" font-family="sans-serif" font-size="14" font-style="italic" lengthAdjust="spacing" textLength="113.1484" x="311.1758" y="231.9951">&#171;infrastructure&#187;</text><text fill="#000000" font-family="sans-serif" font-size="14" font-weight="bold" lengthAdjust="spacing" textLength="74.6553" x="327.9854" y="248.292">:Message</text><text fill="#000000" font-family="sans-serif" font-size="14" font-weight="bold" lengthAdjust="spacing" textLength="52.2539" x="344.0601" y="264.5889">broker</text></g><g class="entity" data-entity="NOT_DA" data-source-line="151" data-uid="ent0003" id="entity_NOT_DA"><text fill="#000000" font-family="sans-serif" font-size="14" lengthAdjust="spacing" textLength="86.0508" x="99.9746" y="108.9951">Data Access</text><rect fill="#F1F1F1" height="12" style="stroke:#181818;stroke-width:1.5;" width="12" x="137" y="84"/></g><g class="entity" data-entity="NOT_SUB_GRPS" data-source-line="152" data-uid="ent0004" id="entity_NOT_SUB_GRPS"><text fill="#000000" font-family="sans-serif" font-size="14" lengthAdjust="spacing" textLength="108.1514" x="235.1992" y="108.9951">Receive groups</text><text fill="#000000" font-family="sans-serif" font-size="14" lengthAdjust="spacing" textLength="56.6221" x="265.4141" y="125.292">updates</text><rect fill="#F1F1F1" height="12" style="stroke:#181818;stroke-width:1.5;" width="12" x="285.5" y="84"/></g><g class="entity" data-entity="NOT_SUB_NOTIF" data-source-line="153" data-uid="ent0005" id="entity_NOT_SUB_NOTIF"><text fill="#000000" font-family="sans-serif" font-size="14" lengthAdjust="spacing" textLength="55.4395" x="408.0552" y="108.9951">Receive</text><text fill="#000000" font-family="sans-serif" font-size="14" lengthAdjust="spacing" textLength="86.0234" x="394.9883" y="125.292">notifications</text><text fill="#000000" font-family="sans-serif" font-size="14" lengthAdjust="spacing" textLength="77.1709" x="401.6396" y="141.5889">commands</text><rect fill="#F1F1F1" height="12" style="stroke:#181818;stroke-width:1.5;" width="12" x="432" y="84"/></g><g class="entity" data-entity="NOT_DB_DA" data-source-line="156" data-uid="ent0007" id="entity_NOT_DB_DA"><text fill="#000000" font-family="sans-serif" font-size="14" lengthAdjust="spacing" textLength="4.4502" x="81.7749" y="195.6982">&#160;</text><rect fill="#F1F1F1" height="12" style="stroke:#181818;stroke-width:1.5;" width="12" x="78" y="211"/></g><g class="entity" data-entity="MB_SUB_NOTIF" data-source-line="161" data-uid="ent0010" id="entity_MB_SUB_NOTIF"><text fill="#000000" font-family="sans-serif" font-size="14" lengthAdjust="spacing" textLength="87.623" x="391.9634" y="179.4014">Notifications</text><text fill="#000000" font-family="sans-serif" font-size="14" lengthAdjust="spacing" textLength="34.5283" x="422.9609" y="195.6982">topic</text><rect fill="#F1F1F1" height="12" style="stroke:#181818;stroke-width:1.5;" width="12" x="432" y="211"/></g><g class="entity" data-entity="MB_SUB_GRPS" data-source-line="162" data-uid="ent0011" id="entity_MB_SUB_GRPS"><text fill="#000000" font-family="sans-serif" font-size="14" lengthAdjust="spacing" textLength="94.5479" x="248.001" y="179.4014">Group events</text><text fill="#000000" font-family="sans-serif" font-size="14" lengthAdjust="spacing" textLength="34.5283" x="282.4609" y="195.6982">topic</text><rect fill="#F1F1F1" height="12" style="stroke:#181818;stroke-width:1.5;" width="12" x="291.5" y="211"/></g><!--link NOT_DA to NOT_DB_DA--><g class="link" data-entity-1="NOT_DA" data-entity-2="NOT_DB_DA" data-source-line="158" data-uid="lnk8" id="link_NOT_DA_NOT_DB_DA"><path d="M140.61,96.05 C131.13,116.15 96.14,190.29 86.48,210.74" fill="none" id="NOT_DA-NOT_DB_DA" style="stroke:#181818;stroke-width:1;"/><text fill="#000000" font-family="sans-serif" font-size="13" lengthAdjust="spacing" textLength="145.4312" x="129" y="158.0669">&#171;database connector&#187;</text><path d="M123.0252,149.8871 A10,10 0 0 0 110.2359 143.8511" fill="none" style="stroke:#181818;stroke-width:1.5;"/><ellipse cx="113.6125" cy="153.2637" fill="#FFFFFF" rx="6" ry="6" style="stroke:#181818;stroke-width:1.5;"/></g><!--link NOT_SUB_GRPS to MB_SUB_GRPS--><g class="link" data-entity-1="NOT_SUB_GRPS" data-entity-2="MB_SUB_GRPS" data-source-line="164" data-uid="lnk12" id="link_NOT_SUB_GRPS_MB_SUB_GRPS"><path d="M292.24,96.05 C293.21,116.15 296.77,190.29 297.75,210.74" fill="none" id="NOT_SUB_GRPS-MB_SUB_GRPS" style="stroke:#181818;stroke-width:1;"/><path d="M288.2676,160.6659 A10,10 0 0 0 302.3934 159.9874" fill="none" style="stroke:#181818;stroke-width:1.5;"/><ellipse cx="294.9913" cy="153.2637" fill="#FFFFFF" rx="6" ry="6" style="stroke:#181818;stroke-width:1.5;"/></g><!--link NOT_SUB_NOTIF to MB_SUB_NOTIF--><g class="link" data-entity-1="NOT_SUB_NOTIF" data-entity-2="MB_SUB_NOTIF" data-source-line="165" data-uid="lnk13" id="link_NOT_SUB_NOTIF_MB_SUB_NOTIF"><path d="M438,96.05 C438,116.15 438,190.29 438,210.74" fill="none" id="NOT_SUB_NOTIF-MB_SUB_NOTIF" style="stroke:#181818;stroke-width:1;"/><path d="M430.9289,160.3348 A10,10 0 0 0 445.0711 160.3348" fill="none" style="stroke:#181818;stroke-width:1.5;"/><ellipse cx="438" cy="153.2637" fill="#FFFFFF" rx="6" ry="6" style="stroke:#181818;stroke-width:1.5;"/></g><!--SRC=[TP9HJuCm58NV-HKtx67wGB9aneS5ISOM5nCtTUY3YSbIoWMRiHRRCZLc_zrIDWTpz0LepxdtVgVqRpeNHFexPpo3RadVKMl62oB91gZO588Zr_3ZW5aXeUjCYf8d4v4BwVlufL5oaWS1z10nnhXBXxJK9CxHAeVfDGwTNQFJb9XJel342VSiUzUlcEVYiw5-Ah7y9-tXLKhIsEbtqqyEF0gwyO_GxeWBpL96YMQ2Umhbbb5qzs4KGcfH6bKrEumfHQLS80eM3y-hwRYjMI95jaMe1YuKl74eYuHeF3gYbt0rMpv6vtt6q9p5LZ23RWXFsYNCy-xMH9li0pKGi6WuAsDKWrIlXznjZNhoiC77EBXmX0ehhfrJ0u9tCV2E-p02t__hIWNdIBMGGU0u7zLrcK7c9Y6IsRwn56kKhh4mdagYj2ofBcNrUxIxBqwfjIWOjIFDmmPnqpEhGWRSsei-Px4vrno7J_06brxhl9LewzZk_080]--></g></svg>