<svg xmlns="http://www.w3.org/2000/svg" xmlns:xlink="http://www.w3.org/1999/xlink" contentStyleType="text/css" data-diagram-type="DESCRIPTION" height="754px" preserveAspectRatio="none" style="width:469px;height:754px;background:#1B1B1B;" version="1.1" viewBox="0 0 469 754" width="469px" zoomAndPan="magnify"><defs/><g><rect fill="#1B1B1B" height="754" style="stroke:none;stroke-width:1;" width="469" x="0" y="0"/><!--cluster :gateway--><g class="cluster" data-entity=".gateway" data-source-line="199" data-uid="ent0002" id="cluster_.gateway"><rect fill="none" height="134" rx="2.5" ry="2.5" style="stroke:#E7E7E7;stroke-width:1;" width="137.5" x="239" y="42.0986"/><rect fill="none" height="10" style="stroke:#E7E7E7;stroke-width:1;" width="15" x="356.5" y="47.0986"/><rect fill="none" height="2" style="stroke:#E7E7E7;stroke-width:1;" width="4" x="354.5" y="49.0986"/><rect fill="none" height="2" style="stroke:#E7E7E7;stroke-width:1;" width="4" x="354.5" y="53.0986"/><text fill="#FFFFFF" font-family="sans-serif" font-size="14" font-weight="bold" lengthAdjust="spacing" textLength="72.7617" x="271.3691" y="68.0938">:gateway</text></g><!--cluster :notification-service--><g class="cluster" data-entity=".notification-service" data-source-line="204" data-uid="ent0005" id="cluster_.notification-service"><rect fill="none" height="146" rx="2.5" ry="2.5" style="stroke:#E7E7E7;stroke-width:1;" width="331" x="95" y="303.0986"/><rect fill="none" height="10" style="stroke:#E7E7E7;stroke-width:1;" width="15" x="406" y="308.0986"/><rect fill="none" height="2" style="stroke:#E7E7E7;stroke-width:1;" width="4" x="404" y="310.0986"/><rect fill="none" height="2" style="stroke:#E7E7E7;stroke-width:1;" width="4" x="404" y="314.0986"/><text fill="#FFFFFF" font-family="sans-serif" font-size="14" font-weight="bold" lengthAdjust="spacing" textLength="158.6484" x="181.1758" y="329.0938">:notification-service</text></g><!--cluster NOT_DB--><g class="cluster" data-entity="NOT_DB" data-source-line="210" data-uid="ent0010" id="cluster_NOT_DB"><path d="M6,586.0986 C6,576.0986 84,576.0986 84,576.0986 C84,576.0986 162,576.0986 162,586.0986 L162,727.0986 C162,737.0986 84,737.0986 84,737.0986 C84,737.0986 6,737.0986 6,727.0986 L6,586.0986" fill="#FFFFE0" style="stroke:#E7E7E7;stroke-width:1;"/><path d="M6,586.0986 C6,596.0986 84,596.0986 84,596.0986 C84,596.0986 162,596.0986 162,586.0986" fill="none" style="stroke:#E7E7E7;stroke-width:1;"/><text fill="#FFFFFF" font-family="sans-serif" font-size="14" font-weight="bold" lengthAdjust="spacing" textLength="103.0107" x="30.0576" y="611.0938">: Notification</text><text fill="#FFFFFF" font-family="sans-serif" font-size="14" font-weight="bold" lengthAdjust="spacing" textLength="58.2012" x="54.8994" y="627.3906">Service</text><text fill="#FFFFFF" font-family="sans-serif" font-size="14" font-weight="bold" lengthAdjust="spacing" textLength="74.5049" x="49.1846" y="643.6875">Database</text></g><!--cluster :Message \n broker--><g class="cluster" data-entity=".Message .n broker" data-source-line="216" data-uid="ent0014" id="cluster_.Message .n broker"><path d="M254.5,576.0986 L421,576.0986 C426,576.0986 426,652.8486 426,652.8486 C426,652.8486 426,729.5986 421,729.5986 L254.5,729.5986 C249.5,729.5986 249.5,652.8486 249.5,652.8486 C249.5,652.8486 249.5,576.0986 254.5,576.0986" fill="#E4FAFB" style="stroke:#E7E7E7;stroke-width:1;"/><path d="M421,576.0986 C416,576.0986 416,652.8486 416,652.8486 C416,729.5986 421,729.5986 421,729.5986" fill="none" style="stroke:#E7E7E7;stroke-width:1;"/><text fill="#FFFFFF" font-family="sans-serif" font-size="14" font-style="italic" lengthAdjust="spacing" textLength="113.1484" x="281.1758" y="591.0938">&#171;infrastructure&#187;</text><text fill="#FFFFFF" font-family="sans-serif" font-size="14" font-weight="bold" lengthAdjust="spacing" textLength="74.6553" x="297.9854" y="607.3906">:Message</text><text fill="#FFFFFF" font-family="sans-serif" font-size="14" font-weight="bold" lengthAdjust="spacing" textLength="52.2539" x="314.0601" y="623.6875">broker</text></g><g class="entity" data-entity="GATEWAY_API" data-source-line="200" data-uid="ent0003" id="entity_GATEWAY_API"><text fill="#FFFFFF" font-family="sans-serif" font-size="14" lengthAdjust="spacing" textLength="22.1484" x="327.9258" y="20.7969">API</text><rect fill="#313139" height="12" style="stroke:#E7E7E7;stroke-width:1.5;" width="12" x="333" y="36.0986"/></g><g class="entity" data-entity="GATEWAY_NOT_API" data-source-line="201" data-uid="ent0004" id="entity_GATEWAY_NOT_API"><text fill="#FFFFFF" font-family="sans-serif" font-size="14" lengthAdjust="spacing" textLength="207.6553" x="254.6724" y="195.0938">Notification service Public API</text><rect fill="#313139" height="12" style="stroke:#E7E7E7;stroke-width:1.5;" width="12" x="352.5" y="170.0986"/></g><g class="entity" data-entity="NOT_API" data-source-line="205" data-uid="ent0006" id="entity_NOT_API"><text fill="#FFFFFF" font-family="sans-serif" font-size="14" lengthAdjust="spacing" textLength="171.7666" x="270.3916" y="265.5">Notification Subscription</text><text fill="#FFFFFF" font-family="sans-serif" font-size="14" lengthAdjust="spacing" textLength="78.3398" x="321.5552" y="281.7969">Service API</text><rect fill="#313139" height="12" style="stroke:#E7E7E7;stroke-width:1.5;" width="12" x="352.5" y="297.0986"/></g><g class="entity" data-entity="NOT_DA" data-source-line="206" data-uid="ent0007" id="entity_NOT_DA"><text fill="#FFFFFF" font-family="sans-serif" font-size="14" lengthAdjust="spacing" textLength="86.0508" x="69.9746" y="468.0938">Data Access</text><rect fill="#313139" height="12" style="stroke:#E7E7E7;stroke-width:1.5;" width="12" x="107" y="443.0986"/></g><g class="entity" data-entity="NOT_SUB_GRPS" data-source-line="207" data-uid="ent0008" id="entity_NOT_SUB_GRPS"><text fill="#FFFFFF" font-family="sans-serif" font-size="14" lengthAdjust="spacing" textLength="108.1514" x="205.1992" y="468.0938">Receive groups</text><text fill="#FFFFFF" font-family="sans-serif" font-size="14" lengthAdjust="spacing" textLength="56.6221" x="235.4141" y="484.3906">updates</text><rect fill="#313139" height="12" style="stroke:#E7E7E7;stroke-width:1.5;" width="12" x="255.5" y="443.0986"/></g><g class="entity" data-entity="NOT_SUB_NOTIF" data-source-line="208" data-uid="ent0009" id="entity_NOT_SUB_NOTIF"><text fill="#FFFFFF" font-family="sans-serif" font-size="14" lengthAdjust="spacing" textLength="55.4395" x="378.0552" y="468.0938">Receive</text><text fill="#FFFFFF" font-family="sans-serif" font-size="14" lengthAdjust="spacing" textLength="86.0234" x="364.9883" y="484.3906">notifications</text><text fill="#FFFFFF" font-family="sans-serif" font-size="14" lengthAdjust="spacing" textLength="77.1709" x="371.6396" y="500.6875">commands</text><rect fill="#313139" height="12" style="stroke:#E7E7E7;stroke-width:1.5;" width="12" x="402" y="443.0986"/></g><g class="entity" data-entity="NOT_DB_DA" data-source-line="211" data-uid="ent0011" id="entity_NOT_DB_DA"><text fill="#FFFFFF" font-family="sans-serif" font-size="14" lengthAdjust="spacing" textLength="4.4502" x="81.7749" y="554.7969">&#160;</text><rect fill="#313139" height="12" style="stroke:#E7E7E7;stroke-width:1.5;" width="12" x="78" y="570.0986"/></g><g class="entity" data-entity="MB_SUB_NOTIF" data-source-line="217" data-uid="ent0015" id="entity_MB_SUB_NOTIF"><text fill="#FFFFFF" font-family="sans-serif" font-size="14" lengthAdjust="spacing" textLength="87.623" x="361.9634" y="538.5">Notifications</text><text fill="#FFFFFF" font-family="sans-serif" font-size="14" lengthAdjust="spacing" textLength="34.5283" x="392.9609" y="554.7969">topic</text><rect fill="#313139" height="12" style="stroke:#E7E7E7;stroke-width:1.5;" width="12" x="402" y="570.0986"/></g><g class="entity" data-entity="MB_SUB_GRPS" data-source-line="218" data-uid="ent0016" id="entity_MB_SUB_GRPS"><text fill="#FFFFFF" font-family="sans-serif" font-size="14" lengthAdjust="spacing" textLength="94.5479" x="218.001" y="538.5">Group events</text><text fill="#FFFFFF" font-family="sans-serif" font-size="14" lengthAdjust="spacing" textLength="34.5283" x="252.4609" y="554.7969">topic</text><rect fill="#313139" height="12" style="stroke:#E7E7E7;stroke-width:1.5;" width="12" x="261.5" y="570.0986"/></g><!--link GATEWAY_NOT_API to NOT_API--><g class="link" data-entity-1="GATEWAY_NOT_API" data-entity-2="NOT_API" data-source-line="213" data-uid="lnk12" id="link_GATEWAY_NOT_API_NOT_API"><path d="M359,182.1486 C359,202.2486 359,276.3886 359,296.8386" fill="none" id="GATEWAY_NOT_API-NOT_API" style="stroke:#E7E7E7;stroke-width:1;"/><text fill="#FFFFFF" font-family="sans-serif" font-size="13" lengthAdjust="spacing" textLength="36.6514" x="367" y="244.1655">&#171;rpc&#187;</text><path d="M366.0711,232.2913 A10,10 0 0 0 351.9289 232.2913" fill="none" style="stroke:#E7E7E7;stroke-width:1.5;"/><ellipse cx="359" cy="239.3624" fill="#FFFFFF" rx="6" ry="6" style="stroke:#E7E7E7;stroke-width:1.5;"/></g><!--link NOT_DA to NOT_DB_DA--><g class="link" data-entity-1="NOT_DA" data-entity-2="NOT_DB_DA" data-source-line="214" data-uid="lnk13" id="link_NOT_DA_NOT_DB_DA"><path d="M110.78,455.2086 C107.16,463.7386 99.99,481.4586 96,497.0986 C89.16,523.9186 85.64,556.9786 84.46,569.7286" fill="none" id="NOT_DA-NOT_DB_DA" style="stroke:#E7E7E7;stroke-width:1;"/><text fill="#FFFFFF" font-family="sans-serif" font-size="13" lengthAdjust="spacing" textLength="145.4312" x="104" y="517.1655">&#171;database connector&#187;</text><path d="M104.5996,491.995 A10,10 0 0 0 90.8963 488.4991" fill="none" style="stroke:#E7E7E7;stroke-width:1.5;"/><ellipse cx="96" cy="497.0986" fill="#FFFFFF" rx="6" ry="6" style="stroke:#E7E7E7;stroke-width:1.5;"/></g><!--link NOT_SUB_GRPS to MB_SUB_GRPS--><g class="link" data-entity-1="NOT_SUB_GRPS" data-entity-2="MB_SUB_GRPS" data-source-line="220" data-uid="lnk17" id="link_NOT_SUB_GRPS_MB_SUB_GRPS"><path d="M262.24,455.1486 C263.21,475.2486 266.77,549.3886 267.75,569.8386" fill="none" id="NOT_SUB_GRPS-MB_SUB_GRPS" style="stroke:#E7E7E7;stroke-width:1;"/><path d="M258.2676,519.7646 A10,10 0 0 0 272.3934 519.0861" fill="none" style="stroke:#E7E7E7;stroke-width:1.5;"/><ellipse cx="264.9913" cy="512.3624" fill="#FFFFFF" rx="6" ry="6" style="stroke:#E7E7E7;stroke-width:1.5;"/></g><!--link NOT_SUB_NOTIF to MB_SUB_NOTIF--><g class="link" data-entity-1="NOT_SUB_NOTIF" data-entity-2="MB_SUB_NOTIF" data-source-line="221" data-uid="lnk18" id="link_NOT_SUB_NOTIF_MB_SUB_NOTIF"><path d="M408,455.1486 C408,475.2486 408,549.3886 408,569.8386" fill="none" id="NOT_SUB_NOTIF-MB_SUB_NOTIF" style="stroke:#E7E7E7;stroke-width:1;"/><path d="M400.9289,519.4335 A10,10 0 0 0 415.0711 519.4335" fill="none" style="stroke:#E7E7E7;stroke-width:1.5;"/><ellipse cx="408" cy="512.3624" fill="#FFFFFF" rx="6" ry="6" style="stroke:#E7E7E7;stroke-width:1.5;"/></g><!--SRC=[TLFRIiD047tVhnZYG_KX82W-I2qaNehWfLf5144ssqbSckx6lLH5-kzkrgRDHhCloMREcPbpPZ8uwJqmDLyb5mNqGmP4pxcegA8BO79HIO72m3S1TrBAveMILinEPIdLS8YV1fMWvMW4EuYOOTQ7GsODpKhqo8Fy20_8gbNfZBeerTXXmXKltimpbgNyQA7lBDe_q1qyp6cUaK6_-jD6ZuP- -LlHqN513NxGhsYjlvBAS05HChcCW6eO9m_dJydpgxjluj8wueqqFEUC6Yu5Q5HBpX0cDYivWoxvvlR19rYHeBHefOZNARfz16McDjDCySfVNjnzNRQfrzG96grzXuGnr7e3Eaj2p3qov4k4sknArwbjDNF6R1dJn_HrV3-P_izpXBOOdy4fNL0n2rEuv-M5ys6sNWRd0WGIMwhSQxCpFiTlvsd78DYAIcjTAz9n7UBT_RYn1evXE5GL6ut8hm_RgAVx-AOv9eL0PgHoSF9URwJhzzePIGlVNgRa75NaA5paYcgZB3DMrNz0_nIzEKPMdFdEhzEMCMtEk9u5uDBlydyKFuuLQKy7ulszE8W7nWTX_-K7]--></g></svg>