<svg xmlns="http://www.w3.org/2000/svg" xmlns:xlink="http://www.w3.org/1999/xlink" contentStyleType="text/css" data-diagram-type="DESCRIPTION" height="287px" preserveAspectRatio="none" style="width:1373px;height:287px;background:#FFFFFF;" version="1.1" viewBox="0 0 1373 287" width="1373px" zoomAndPan="magnify"><defs/><g><!--cluster :gateway--><g class="cluster" data-entity=":gateway" data-source-line="45" data-uid="ent0002" id="cluster_:gateway"><rect fill="none" height="142" rx="2.5" ry="2.5" style="stroke:#181818;stroke-width:1;" width="287" x="30.0449" y="120"/><rect fill="none" height="10" style="stroke:#181818;stroke-width:1;" width="15" x="297.0449" y="125"/><rect fill="none" height="2" style="stroke:#181818;stroke-width:1;" width="4" x="295.0449" y="127"/><rect fill="none" height="2" style="stroke:#181818;stroke-width:1;" width="4" x="295.0449" y="131"/><text fill="#000000" font-family="sans-serif" font-size="14" font-weight="bold" lengthAdjust="spacing" textLength="72.7617" x="137.1641" y="145.9951">:gateway</text></g><!--cluster :Location Service--><g class="cluster" data-entity=":Location Service" data-source-line="52" data-uid="ent0007" id="cluster_:Location Service"><rect fill="none" height="177" rx="2.5" ry="2.5" style="stroke:#181818;stroke-width:1;" width="351" x="482.5449" y="67"/><rect fill="none" height="10" style="stroke:#181818;stroke-width:1;" width="15" x="813.5449" y="72"/><rect fill="none" height="2" style="stroke:#181818;stroke-width:1;" width="4" x="811.5449" y="74"/><rect fill="none" height="2" style="stroke:#181818;stroke-width:1;" width="4" x="811.5449" y="78"/><text fill="#000000" font-family="sans-serif" font-size="14" font-weight="bold" lengthAdjust="spacing" textLength="136.0352" x="590.0273" y="92.9951">:Location Service</text></g><!--cluster LOC_DB--><g class="cluster" data-entity="LOC_DB" data-source-line="61" data-uid="ent0015" id="cluster_LOC_DB"><path d="M1110.0449,16 C1110.0449,6 1233.0449,6 1233.0449,6 C1233.0449,6 1356.0449,6 1356.0449,16 L1356.0449,68 C1356.0449,78 1233.0449,78 1233.0449,78 C1233.0449,78 1110.0449,78 1110.0449,68 L1110.0449,16" fill="#FFFFE0" style="stroke:#181818;stroke-width:1;"/><path d="M1110.0449,16 C1110.0449,26 1233.0449,26 1233.0449,26 C1233.0449,26 1356.0449,26 1356.0449,16" fill="none" style="stroke:#181818;stroke-width:1;"/><text fill="#000000" font-family="sans-serif" font-size="14" font-style="italic" lengthAdjust="spacing" textLength="113.1484" x="1176.4707" y="40.9951">&#171;infrastructure&#187;</text><text fill="#000000" font-family="sans-serif" font-size="14" font-weight="bold" lengthAdjust="spacing" textLength="72.96" x="1194.1279" y="57.292">:Location</text><text fill="#000000" font-family="sans-serif" font-size="14" font-weight="bold" lengthAdjust="spacing" textLength="74.5049" x="1198.2295" y="73.5889">Database</text></g><!--cluster :Message \n broker--><g class="cluster" data-entity=":Message \n broker" data-source-line="66" data-uid="ent0018" id="cluster_:Message \n broker"><path d="M1119.5449,138 L1351.0449,138 C1356.0449,138 1356.0449,200 1356.0449,200 C1356.0449,200 1356.0449,262 1351.0449,262 L1119.5449,262 C1114.5449,262 1114.5449,200 1114.5449,200 C1114.5449,200 1114.5449,138 1119.5449,138" fill="#E4FAFB" style="stroke:#181818;stroke-width:1;"/><path d="M1351.0449,138 C1346.0449,138 1346.0449,200 1346.0449,200 C1346.0449,262 1351.0449,262 1351.0449,262" fill="none" style="stroke:#181818;stroke-width:1;"/><text fill="#000000" font-family="sans-serif" font-size="14" font-style="italic" lengthAdjust="spacing" textLength="113.1484" x="1178.7207" y="152.9951">&#171;infrastructure&#187;</text><text fill="#000000" font-family="sans-serif" font-size="14" font-weight="bold" lengthAdjust="spacing" textLength="74.6553" x="1195.5303" y="169.292">:Message</text><text fill="#000000" font-family="sans-serif" font-size="14" font-weight="bold" lengthAdjust="spacing" textLength="52.2539" x="1211.605" y="185.5889">broker</text></g><g class="entity" data-entity="GATEWAY_API" data-source-line="46" data-uid="ent0003" id="entity_GATEWAY_API"><text fill="#000000" font-family="sans-serif" font-size="14" lengthAdjust="spacing" textLength="22.1484" x="36.9707" y="250.9951">API</text><rect fill="#F1F1F1" height="12" style="stroke:#181818;stroke-width:1.5;" width="12" x="42.0449" y="226"/></g><g class="entity" data-entity="GATEWAY_REALTIME" data-source-line="47" data-uid="ent0004" id="entity_GATEWAY_REALTIME"><text fill="#000000" font-family="sans-serif" font-size="14" lengthAdjust="spacing" textLength="94.0898" x="6" y="116.6982">Real-time API</text><rect fill="#F1F1F1" height="12" style="stroke:#181818;stroke-width:1.5;" width="12" x="47.0449" y="132"/></g><g class="entity" data-entity="GATEWAY_LOC_REALTIME" data-source-line="48" data-uid="ent0005" id="entity_GATEWAY_LOC_REALTIME"><text fill="#000000" font-family="sans-serif" font-size="14" lengthAdjust="spacing" textLength="114.0576" x="257.791" y="262.9951">Location service</text><text fill="#000000" font-family="sans-serif" font-size="14" lengthAdjust="spacing" textLength="94.0898" x="272.2251" y="279.292">Real-time API</text><rect fill="#F1F1F1" height="12" style="stroke:#181818;stroke-width:1.5;" width="12" x="311.0449" y="238"/></g><g class="entity" data-entity="GATEWAY_LOC_API" data-source-line="49" data-uid="ent0006" id="entity_GATEWAY_LOC_API"><text fill="#000000" font-family="sans-serif" font-size="14" lengthAdjust="spacing" textLength="114.0576" x="257.791" y="100.4014">Location service</text><text fill="#000000" font-family="sans-serif" font-size="14" lengthAdjust="spacing" textLength="68.2773" x="285.1313" y="116.6982">Public API</text><rect fill="#F1F1F1" height="12" style="stroke:#181818;stroke-width:1.5;" width="12" x="311.0449" y="132"/></g><g class="entity" data-entity="LOC_REALTIME" data-source-line="53" data-uid="ent0008" id="entity_LOC_REALTIME"><text fill="#000000" font-family="sans-serif" font-size="14" lengthAdjust="spacing" textLength="67.4912" x="465.5742" y="262.9951">Real-time</text><text fill="#000000" font-family="sans-serif" font-size="14" lengthAdjust="spacing" textLength="57.2783" x="475.1309" y="279.292">tracking</text><rect fill="#F1F1F1" height="12" style="stroke:#181818;stroke-width:1.5;" width="12" x="495.5449" y="238"/></g><g class="entity" data-entity="LOC_TRACK" data-source-line="54" data-uid="ent0009" id="entity_LOC_TRACK"><text fill="#000000" font-family="sans-serif" font-size="14" lengthAdjust="spacing" textLength="60.3408" x="468.1494" y="100.4014">Tracking</text><text fill="#000000" font-family="sans-serif" font-size="14" lengthAdjust="spacing" textLength="59.0352" x="473.2524" y="116.6982">Services</text><rect fill="#F1F1F1" height="12" style="stroke:#181818;stroke-width:1.5;" width="12" x="494.5449" y="132"/></g><g class="entity" data-entity="LOC_DA" data-source-line="55" data-uid="ent0010" id="entity_LOC_DA"><text fill="#000000" font-family="sans-serif" font-size="14" lengthAdjust="spacing" textLength="33.4277" x="790.106" y="29.4014">Data</text><text fill="#000000" font-family="sans-serif" font-size="14" lengthAdjust="spacing" textLength="48.1729" x="787.1836" y="45.6982">Access</text><rect fill="#F1F1F1" height="12" style="stroke:#181818;stroke-width:1.5;" width="12" x="803.0449" y="61"/></g><g class="entity" data-entity="LOC_PUB" data-source-line="56" data-uid="ent0011" id="entity_LOC_PUB"><text fill="#000000" font-family="sans-serif" font-size="14" lengthAdjust="spacing" textLength="50.1484" x="786.2456" y="262.9951">Publish</text><text fill="#000000" font-family="sans-serif" font-size="14" lengthAdjust="spacing" textLength="86.0234" x="772.7583" y="279.292">notifications</text><rect fill="#F1F1F1" height="12" style="stroke:#181818;stroke-width:1.5;" width="12" x="807.5449" y="238"/></g><g class="entity" data-entity="LOC_SUB" data-source-line="57" data-uid="ent0012" id="entity_LOC_SUB"><text fill="#000000" font-family="sans-serif" font-size="14" lengthAdjust="spacing" textLength="55.4395" x="785.6001" y="100.4014">Receive</text><text fill="#000000" font-family="sans-serif" font-size="14" lengthAdjust="spacing" textLength="99.8799" x="767.8301" y="116.6982">groups events</text><rect fill="#F1F1F1" height="12" style="stroke:#181818;stroke-width:1.5;" width="12" x="809.5449" y="132"/></g><g class="entity" data-entity="LOC_DB_DA" data-source-line="62" data-uid="ent0016" id="entity_LOC_DB_DA"><text fill="#000000" font-family="sans-serif" font-size="14" lengthAdjust="spacing" textLength="4.4502" x="1107.8198" y="78.9951">&#160;</text><rect fill="#F1F1F1" height="12" style="stroke:#181818;stroke-width:1.5;" width="12" x="1104.0449" y="54"/></g><g class="entity" data-entity="MB_PUB_NOTIF" data-source-line="67" data-uid="ent0019" id="entity_MB_PUB_NOTIF"><text fill="#000000" font-family="sans-serif" font-size="14" lengthAdjust="spacing" textLength="50.1484" x="1087.2456" y="262.9951">Publish</text><text fill="#000000" font-family="sans-serif" font-size="14" lengthAdjust="spacing" textLength="86.0234" x="1073.7583" y="279.292">notifications</text><rect fill="#F1F1F1" height="12" style="stroke:#181818;stroke-width:1.5;" width="12" x="1108.5449" y="238"/></g><g class="entity" data-entity="MB_SUB_GRPS" data-source-line="68" data-uid="ent0020" id="entity_MB_SUB_GRPS"><text fill="#000000" font-family="sans-serif" font-size="14" lengthAdjust="spacing" textLength="68.7832" x="1079.9282" y="100.4014">Subscribe</text><text fill="#000000" font-family="sans-serif" font-size="14" lengthAdjust="spacing" textLength="99.8799" x="1068.8301" y="116.6982">groups events</text><rect fill="#F1F1F1" height="12" style="stroke:#181818;stroke-width:1.5;" width="12" x="1110.5449" y="132"/></g><!--link GATEWAY_LOC_REALTIME to LOC_REALTIME--><g class="link" data-entity-1="GATEWAY_LOC_REALTIME" data-entity-2="LOC_REALTIME" data-source-line="59" data-uid="lnk13" id="link_GATEWAY_LOC_REALTIME_LOC_REALTIME"><path d="M323.3249,244 C349.8149,244 468.0449,244 495.3849,244" fill="none" id="GATEWAY_LOC_REALTIME-LOC_REALTIME" style="stroke:#181818;stroke-width:1;"/><text fill="#000000" font-family="sans-serif" font-size="13" lengthAdjust="spacing" textLength="40.0854" x="394.0449" y="233.0669">&#171;wss&#187;</text><path d="M401.9651,236.9289 A10,10 0 0 0 401.9651 251.0711" fill="none" style="stroke:#181818;stroke-width:1.5;"/><ellipse cx="409.0362" cy="244" fill="#FFFFFF" rx="6" ry="6" style="stroke:#181818;stroke-width:1.5;"/></g><!--link GATEWAY_LOC_API to LOC_TRACK--><g class="link" data-entity-1="GATEWAY_LOC_API" data-entity-2="LOC_TRACK" data-source-line="60" data-uid="lnk14" id="link_GATEWAY_LOC_API_LOC_TRACK"><path d="M323.2949,138 C349.6349,138 467.2249,138 494.4149,138" fill="none" id="GATEWAY_LOC_API-LOC_TRACK" style="stroke:#181818;stroke-width:1;"/><text fill="#000000" font-family="sans-serif" font-size="13" lengthAdjust="spacing" textLength="36.6514" x="396.0449" y="127.0669">&#171;rpc&#187;</text><path d="M401.4651,130.9289 A10,10 0 0 0 401.4651 145.0711" fill="none" style="stroke:#181818;stroke-width:1.5;"/><ellipse cx="408.5362" cy="138" fill="#FFFFFF" rx="6" ry="6" style="stroke:#181818;stroke-width:1.5;"/></g><!--link LOC_DA to LOC_DB_DA--><g class="link" data-entity-1="LOC_DA" data-entity-2="LOC_DB_DA" data-source-line="64" data-uid="lnk17" id="link_LOC_DA_LOC_DB_DA"><path d="M815.2349,66.88 C851.5249,66.03 1066.9549,60.99 1103.7149,60.12" fill="none" id="LOC_DA-LOC_DB_DA" style="stroke:#181818;stroke-width:1;"/><text fill="#000000" font-family="sans-serif" font-size="13" lengthAdjust="spacing" textLength="145.4312" x="887.0449" y="51.0669">&#171;database connector&#187;</text><path d="M952.064,56.6039 A10,10 0 0 0 952.3951 70.7422" fill="none" style="stroke:#181818;stroke-width:1.5;"/><ellipse cx="959.2987" cy="63.5075" fill="#FFFFFF" rx="6" ry="6" style="stroke:#181818;stroke-width:1.5;"/></g><!--link LOC_PUB to MB_PUB_NOTIF--><g class="link" data-entity-1="LOC_PUB" data-entity-2="MB_PUB_NOTIF" data-source-line="70" data-uid="lnk21" id="link_LOC_PUB_MB_PUB_NOTIF"><path d="M819.7449,244 C854.3649,244 1069.7549,244 1108.1849,244" fill="none" id="LOC_PUB-MB_PUB_NOTIF" style="stroke:#181818;stroke-width:1;"/><text fill="#000000" font-family="sans-serif" font-size="13" lengthAdjust="spacing" textLength="78.2983" x="920.5449" y="233.0669">&#171;subscribe&#187;</text><path d="M955.4651,236.9289 A10,10 0 0 0 955.4651 251.0711" fill="none" style="stroke:#181818;stroke-width:1.5;"/><ellipse cx="962.5362" cy="244" fill="#FFFFFF" rx="6" ry="6" style="stroke:#181818;stroke-width:1.5;"/></g><!--link LOC_SUB to MB_SUB_GRPS--><g class="link" data-entity-1="LOC_SUB" data-entity-2="MB_SUB_GRPS" data-source-line="71" data-uid="lnk22" id="link_LOC_SUB_MB_SUB_GRPS"><path d="M821.5549,138.2 C831.7849,138.63 857.5049,139.65 879.0449,140 C950.5949,141.15 968.4949,140.94 1040.0449,140 C1066.4449,139.65 1097.9749,138.63 1110.5149,138.2" fill="none" id="LOC_SUB-MB_SUB_GRPS" style="stroke:#181818;stroke-width:1;"/><text fill="#000000" font-family="sans-serif" font-size="13" lengthAdjust="spacing" textLength="62.8862" x="928.5449" y="129.0669">&#171;publish&#187;</text><path d="M952.4656,133.721 A10,10 0 0 0 952.4822 147.8631" fill="none" style="stroke:#181818;stroke-width:1.5;"/><ellipse cx="959.5449" cy="140.7838" fill="#FFFFFF" rx="6" ry="6" style="stroke:#181818;stroke-width:1.5;"/></g><!--SRC=[bLF1Rjf05BpxAvwS0xqWLKhLGqGj6K8ZL6WeK4MHAg7ryWmhpAwxkuP65V-UjxQnCSMDufljcNapisyxNreVcDkNHCWrj4CwNeAn1Qj0Y_N6mafev5OewPcja2dJR0TSxL8bKLhuwm4zVSQtQwqokHgeHEbU3_zOr98bGG1F6s6n3OKyionAa70tU1j_nbllU3Rddj5VPl222MFdx1cJH1tEq3yopFw1tk2dcCMHrsdlP71AOw2zb3goVxTc5W_inI_JfqfR8S4FfoCVc867S35y2f-NzDxuFqEMTAtO8LmYPyDml1XDXXLSPJHdh3XpnOD1lHSSuPU4Tetnu-0TEjCiIWI_Ak9i7xr6u4fXNYXS9gzTaRJLT0IqOxdmLLUEiYXHZb6gcegnc8M3RyqGRXKSDkG4h97tOHEMvp8RXvJAYbWKncl2z6U_oPWXHx7FdRkzIGtWtkr2nPWJu-XTgncw7pvs6n7X3dgzWp51u5rKMcFpS3bGfvo0gtB9pticCwVThwFsYI9ah9cnEkCsq-xQD0y2pj2kcwDNb5HFpx_dqwkvN4b9LrnfCkFzTfU8h4oePRREQucqsgBstvx-t_8dVTVzyllZOlIrmPfdaU5QH2r7G3mwWUN3R3eluv1CaUTSCezaJbAKf3ow2daIoO5fuJG8NW40]--></g></svg>