<svg xmlns="http://www.w3.org/2000/svg" xmlns:xlink="http://www.w3.org/1999/xlink" contentStyleType="text/css" data-diagram-type="DESCRIPTION" height="828px" preserveAspectRatio="none" style="width:370px;height:828px;background:#FFFFFF;" version="1.1" viewBox="0 0 370 828" width="370px" zoomAndPan="magnify"><defs/><g><!--cluster :gateway--><g class="cluster" data-entity=".gateway" data-source-line="152" data-uid="ent0002" id="cluster_.gateway"><rect fill="none" height="146" rx="2.5" ry="2.5" style="stroke:#181818;stroke-width:1;" width="175.5" x="110.5" y="42.0986"/><rect fill="none" height="10" style="stroke:#181818;stroke-width:1;" width="15" x="266" y="47.0986"/><rect fill="none" height="2" style="stroke:#181818;stroke-width:1;" width="4" x="264" y="49.0986"/><rect fill="none" height="2" style="stroke:#181818;stroke-width:1;" width="4" x="264" y="53.0986"/><text fill="#000000" font-family="sans-serif" font-size="14" font-weight="bold" lengthAdjust="spacing" textLength="72.7617" x="161.8691" y="68.0938">:gateway</text></g><!--cluster :Chat Service--><g class="cluster" data-entity=".Chat Service" data-source-line="159" data-uid="ent0007" id="cluster_.Chat Service"><rect fill="none" height="146" rx="2.5" ry="2.5" style="stroke:#181818;stroke-width:1;" width="179.5" x="97" y="377.0986"/><rect fill="none" height="10" style="stroke:#181818;stroke-width:1;" width="15" x="256.5" y="382.0986"/><rect fill="none" height="2" style="stroke:#181818;stroke-width:1;" width="4" x="254.5" y="384.0986"/><rect fill="none" height="2" style="stroke:#181818;stroke-width:1;" width="4" x="254.5" y="388.0986"/><text fill="#000000" font-family="sans-serif" font-size="14" font-weight="bold" lengthAdjust="spacing" textLength="105.0547" x="134.2227" y="403.0938">:Chat Service</text></g><!--cluster LOC_DB--><g class="cluster" data-entity="LOC_DB" data-source-line="169" data-uid="ent0014" id="cluster_LOC_DB"><path d="M6,660.0986 C6,650.0986 87,650.0986 87,650.0986 C87,650.0986 168,650.0986 168,660.0986 L168,801.0986 C168,811.0986 87,811.0986 87,811.0986 C87,811.0986 6,811.0986 6,801.0986 L6,660.0986" fill="#FFFFE0" style="stroke:#181818;stroke-width:1;"/><path d="M6,660.0986 C6,670.0986 87,670.0986 87,670.0986 C87,670.0986 168,670.0986 168,660.0986" fill="none" style="stroke:#181818;stroke-width:1;"/><text fill="#000000" font-family="sans-serif" font-size="14" font-style="italic" lengthAdjust="spacing" textLength="113.1484" x="30.4258" y="685.0938">&#171;infrastructure&#187;</text><text fill="#000000" font-family="sans-serif" font-size="14" font-weight="bold" lengthAdjust="spacing" textLength="72.96" x="48.083" y="701.3906">:Location</text><text fill="#000000" font-family="sans-serif" font-size="14" font-weight="bold" lengthAdjust="spacing" textLength="74.5049" x="52.1846" y="717.6875">Database</text></g><!--cluster :Message \n broker--><g class="cluster" data-entity=".Message .n broker" data-source-line="175" data-uid="ent0017" id="cluster_.Message .n broker"><path d="M205,650.0986 L318,650.0986 C323,650.0986 323,726.8486 323,726.8486 C323,726.8486 323,803.5986 318,803.5986 L205,803.5986 C200,803.5986 200,726.8486 200,726.8486 C200,726.8486 200,650.0986 205,650.0986" fill="#E4FAFB" style="stroke:#181818;stroke-width:1;"/><path d="M318,650.0986 C313,650.0986 313,726.8486 313,726.8486 C313,803.5986 318,803.5986 318,803.5986" fill="none" style="stroke:#181818;stroke-width:1;"/><text fill="#000000" font-family="sans-serif" font-size="14" font-style="italic" lengthAdjust="spacing" textLength="113.1484" x="204.9258" y="665.0938">&#171;infrastructure&#187;</text><text fill="#000000" font-family="sans-serif" font-size="14" font-weight="bold" lengthAdjust="spacing" textLength="74.6553" x="221.7354" y="681.3906">:Message</text><text fill="#000000" font-family="sans-serif" font-size="14" font-weight="bold" lengthAdjust="spacing" textLength="52.2539" x="237.8101" y="697.6875">broker</text></g><g class="entity" data-entity="GATEWAY_API" data-source-line="153" data-uid="ent0003" id="entity_GATEWAY_API"><text fill="#000000" font-family="sans-serif" font-size="14" lengthAdjust="spacing" textLength="22.1484" x="122.9258" y="20.7969">API</text><rect fill="#F1F1F1" height="12" style="stroke:#181818;stroke-width:1.5;" width="12" x="128" y="36.0986"/></g><g class="entity" data-entity="GATEWAY_REALTIME" data-source-line="154" data-uid="ent0004" id="entity_GATEWAY_REALTIME"><text fill="#000000" font-family="sans-serif" font-size="14" lengthAdjust="spacing" textLength="94.0898" x="202.9551" y="20.7969">Real-time API</text><rect fill="#F1F1F1" height="12" style="stroke:#181818;stroke-width:1.5;" width="12" x="244" y="36.0986"/></g><g class="entity" data-entity="GATEWAY_CHAT_REALTIME" data-source-line="155" data-uid="ent0005" id="entity_GATEWAY_CHAT_REALTIME"><text fill="#000000" font-family="sans-serif" font-size="14" lengthAdjust="spacing" textLength="87.3154" x="82.6172" y="207.0938">Chat service</text><text fill="#000000" font-family="sans-serif" font-size="14" lengthAdjust="spacing" textLength="94.0898" x="83.6802" y="223.3906">Real-time API</text><rect fill="#F1F1F1" height="12" style="stroke:#181818;stroke-width:1.5;" width="12" x="122.5" y="182.0986"/></g><g class="entity" data-entity="GATEWAY_CHAT_API" data-source-line="156" data-uid="ent0006" id="entity_GATEWAY_CHAT_API"><text fill="#000000" font-family="sans-serif" font-size="14" lengthAdjust="spacing" textLength="87.3154" x="222.1172" y="207.0938">Chat service</text><text fill="#000000" font-family="sans-serif" font-size="14" lengthAdjust="spacing" textLength="68.2773" x="236.0864" y="223.3906">Public API</text><rect fill="#F1F1F1" height="12" style="stroke:#181818;stroke-width:1.5;" width="12" x="262" y="182.0986"/></g><g class="entity" data-entity="CHAT_REALTIME" data-source-line="160" data-uid="ent0008" id="entity_CHAT_REALTIME"><text fill="#000000" font-family="sans-serif" font-size="14" lengthAdjust="spacing" textLength="32.7168" x="120.9165" y="339.5">Chat</text><text fill="#000000" font-family="sans-serif" font-size="14" lengthAdjust="spacing" textLength="108.2676" x="87.5913" y="355.7969">communication</text><rect fill="#F1F1F1" height="12" style="stroke:#181818;stroke-width:1.5;" width="12" x="133.5" y="371.0986"/></g><g class="entity" data-entity="CHAT_API" data-source-line="161" data-uid="ent0009" id="entity_CHAT_API"><text fill="#000000" font-family="sans-serif" font-size="14" lengthAdjust="spacing" textLength="32.7168" x="233.4165" y="339.5">Chat</text><text fill="#000000" font-family="sans-serif" font-size="14" lengthAdjust="spacing" textLength="22.1484" x="243.1509" y="355.7969">API</text><rect fill="#F1F1F1" height="12" style="stroke:#181818;stroke-width:1.5;" width="12" x="246" y="371.0986"/></g><g class="entity" data-entity="CHAT_DA" data-source-line="162" data-uid="ent0010" id="entity_CHAT_DA"><text fill="#000000" font-family="sans-serif" font-size="14" lengthAdjust="spacing" textLength="33.4277" x="96.061" y="542.0938">Data</text><text fill="#000000" font-family="sans-serif" font-size="14" lengthAdjust="spacing" textLength="48.1729" x="93.1387" y="558.3906">Access</text><rect fill="#F1F1F1" height="12" style="stroke:#181818;stroke-width:1.5;" width="12" x="109" y="517.0986"/></g><g class="entity" data-entity="CHAT_SUB" data-source-line="163" data-uid="ent0011" id="entity_CHAT_SUB"><text fill="#000000" font-family="sans-serif" font-size="14" lengthAdjust="spacing" textLength="55.4395" x="228.5552" y="542.0938">Receive</text><text fill="#000000" font-family="sans-serif" font-size="14" lengthAdjust="spacing" textLength="99.8799" x="210.7852" y="558.3906">groups events</text><rect fill="#F1F1F1" height="12" style="stroke:#181818;stroke-width:1.5;" width="12" x="252.5" y="517.0986"/></g><g class="entity" data-entity="CHAT_DB_DA" data-source-line="170" data-uid="ent0015" id="entity_CHAT_DB_DA"><text fill="#000000" font-family="sans-serif" font-size="14" lengthAdjust="spacing" textLength="4.4502" x="84.7749" y="628.7969">&#160;</text><rect fill="#F1F1F1" height="12" style="stroke:#181818;stroke-width:1.5;" width="12" x="81" y="644.0986"/></g><g class="entity" data-entity="MB_SUB_GRPS" data-source-line="176" data-uid="ent0018" id="entity_MB_SUB_GRPS"><text fill="#000000" font-family="sans-serif" font-size="14" lengthAdjust="spacing" textLength="68.7832" x="250.8833" y="612.5">Subscribe</text><text fill="#000000" font-family="sans-serif" font-size="14" lengthAdjust="spacing" textLength="99.8799" x="239.7852" y="628.7969">groups events</text><rect fill="#F1F1F1" height="12" style="stroke:#181818;stroke-width:1.5;" width="12" x="281.5" y="644.0986"/></g><!--link GATEWAY_CHAT_REALTIME to CHAT_REALTIME--><g class="link" data-entity-1="GATEWAY_CHAT_REALTIME" data-entity-2="CHAT_REALTIME" data-source-line="166" data-uid="lnk12" id="link_GATEWAY_CHAT_REALTIME_CHAT_REALTIME"><path d="M124.84,194.4886 C113.2,210.2586 81.79,257.7786 93,298.0986 C101.47,328.5586 125.39,359.0386 135.45,370.9086" fill="none" id="GATEWAY_CHAT_REALTIME-CHAT_REALTIME" style="stroke:#181818;stroke-width:1;"/><text fill="#000000" font-family="sans-serif" font-size="13" lengthAdjust="spacing" textLength="144.1426" x="101" y="287.1655">&#171;real-time connector&#187;</text><path d="M97.9186,289.3919 A10,10 0 0 0 84.2932 293.1801" fill="none" style="stroke:#181818;stroke-width:1.5;"/><ellipse cx="93" cy="298.0986" fill="#FFFFFF" rx="6" ry="6" style="stroke:#181818;stroke-width:1.5;"/></g><!--link GATEWAY_CHAT_API to CHAT_API--><g class="link" data-entity-1="GATEWAY_CHAT_API" data-entity-2="CHAT_API" data-source-line="167" data-uid="lnk13" id="link_GATEWAY_CHAT_API_CHAT_API"><path d="M267.57,194.0986 C265.31,220.5886 254.72,344.2586 252.44,370.9986" fill="none" id="GATEWAY_CHAT_API-CHAT_API" style="stroke:#181818;stroke-width:1;"/><text fill="#000000" font-family="sans-serif" font-size="13" lengthAdjust="spacing" textLength="36.6514" x="269" y="287.1655">&#171;rpc&#187;</text><path d="M267.6607,276.0124 A10,10 0 0 0 253.5701 274.8067" fill="none" style="stroke:#181818;stroke-width:1.5;"/><ellipse cx="260.0125" cy="282.4549" fill="#FFFFFF" rx="6" ry="6" style="stroke:#181818;stroke-width:1.5;"/></g><!--link CHAT_DA to CHAT_DB_DA--><g class="link" data-entity-1="CHAT_DA" data-entity-2="CHAT_DB_DA" data-source-line="173" data-uid="lnk16" id="link_CHAT_DA_CHAT_DB_DA"><path d="M110.01,529.3386 C102.62,537.4886 89.11,554.0586 84,571.0986 C76.05,597.5786 82.68,631.3886 85.7,644.0286" fill="none" id="CHAT_DA-CHAT_DB_DA" style="stroke:#181818;stroke-width:1;"/><text fill="#000000" font-family="sans-serif" font-size="13" lengthAdjust="spacing" textLength="145.4312" x="92" y="591.1655">&#171;database connector&#187;</text><path d="M92.8042,566.3567 A10,10 0 0 0 79.2581 562.2944" fill="none" style="stroke:#181818;stroke-width:1.5;"/><ellipse cx="84" cy="571.0986" fill="#FFFFFF" rx="6" ry="6" style="stroke:#181818;stroke-width:1.5;"/></g><!--link CHAT_SUB to MB_SUB_GRPS--><g class="link" data-entity-1="CHAT_SUB" data-entity-2="MB_SUB_GRPS" data-source-line="179" data-uid="lnk19" id="link_CHAT_SUB_MB_SUB_GRPS"><path d="M260.17,529.1486 C264.84,549.2486 282.04,623.3886 286.78,643.8386" fill="none" id="CHAT_SUB-MB_SUB_GRPS" style="stroke:#181818;stroke-width:1;"/><text fill="#000000" font-family="sans-serif" font-size="13" lengthAdjust="spacing" textLength="78.2983" x="284" y="591.1655">&#171;subscribe&#187;</text><path d="M278.7388,577.8762 A10,10 0 0 0 264.9625 581.0724" fill="none" style="stroke:#181818;stroke-width:1.5;"/><ellipse cx="273.4487" cy="586.3624" fill="#FFFFFF" rx="6" ry="6" style="stroke:#181818;stroke-width:1.5;"/></g><!--SRC=[ZLFVI_Cm57tlNt6f3_Db82W-oBv1smqLDfphH0HXfF6k2-kIcX_pam__zo_9jgwTAvgtv9vpxpadIUTFwu9KVnQCvz0EwGHgnNX995a35UjISEGQ_WLWLqpeAfV2yBT454BsUlXNe-IawFVXUSaqjg6G6aso0Ytk32yNrtWPVDNc38Yj4eL7J1YnVAbVi2Z4HmtzQD1yWvxXrO8iig3JxZtPkr7GRlvWERp9YSOFyXdkt9T2QiOXZ2Rt8H05jz5i-1ozpEs-KPyYARgQhH6EaTDXD9hTZuSLN1Wx9raI3GhbXb64Lmxj_EGkclsooSHa1QEdEpZ1Nq73ggUdM_gnNr-pBIr-RJYZH3F1VTVJUkgS_VngRaEqktUFeXILEW07KHCtHOfiutsvEoyLuCRTuu6HFiNEqicWeDizl-WsnS8Dz7go2feApf5g8Vlzu3WgEB3TpXDBQe71s-xPsln6OXkBaxX_pLxTw26P3sBBONmXYTBIK6sa-mZDaA7cFdO1M3UxB6e2VCbBg6RNfGVlxcjOEMCR9ybzO9aKAvJXpmfIaoagMTOIypXs8SzlfvEqqcOFjk9gHQzExNjPKVy1]--></g></svg>