<svg xmlns="http://www.w3.org/2000/svg" xmlns:xlink="http://www.w3.org/1999/xlink" contentStyleType="text/css" data-diagram-type="DESCRIPTION" height="828px" preserveAspectRatio="none" style="width:527px;height:828px;background:#1B1B1B;" version="1.1" viewBox="0 0 527 828" width="527px" zoomAndPan="magnify"><defs/><g><rect fill="#1B1B1B" height="828" style="stroke:none;stroke-width:1;" width="527" x="0" y="0"/><!--cluster :gateway--><g class="cluster" data-entity=":gateway" data-source-line="108" data-uid="ent0002" id="cluster_:gateway"><rect fill="none" height="146" rx="2.5" ry="2.5" style="stroke:#E7E7E7;stroke-width:1;" width="200" x="203" y="42.0986"/><rect fill="none" height="10" style="stroke:#E7E7E7;stroke-width:1;" width="15" x="383" y="47.0986"/><rect fill="none" height="2" style="stroke:#E7E7E7;stroke-width:1;" width="4" x="381" y="49.0986"/><rect fill="none" height="2" style="stroke:#E7E7E7;stroke-width:1;" width="4" x="381" y="53.0986"/><text fill="#FFFFFF" font-family="sans-serif" font-size="14" font-weight="bold" lengthAdjust="spacing" textLength="72.7617" x="266.6191" y="68.0938">:gateway</text></g><!--cluster :Location Service--><g class="cluster" data-entity=":Location Service" data-source-line="115" data-uid="ent0007" id="cluster_:Location Service"><rect fill="none" height="146" rx="2.5" ry="2.5" style="stroke:#E7E7E7;stroke-width:1;" width="315.5" x="135" y="377.0986"/><rect fill="none" height="10" style="stroke:#E7E7E7;stroke-width:1;" width="15" x="430.5" y="382.0986"/><rect fill="none" height="2" style="stroke:#E7E7E7;stroke-width:1;" width="4" x="428.5" y="384.0986"/><rect fill="none" height="2" style="stroke:#E7E7E7;stroke-width:1;" width="4" x="428.5" y="388.0986"/><text fill="#FFFFFF" font-family="sans-serif" font-size="14" font-weight="bold" lengthAdjust="spacing" textLength="136.0352" x="224.7324" y="403.0938">:Location Service</text></g><!--cluster LOC_DB--><g class="cluster" data-entity="LOC_DB" data-source-line="124" data-uid="ent0015" id="cluster_LOC_DB"><path d="M6,660.0986 C6,650.0986 87,650.0986 87,650.0986 C87,650.0986 168,650.0986 168,660.0986 L168,801.0986 C168,811.0986 87,811.0986 87,811.0986 C87,811.0986 6,811.0986 6,801.0986 L6,660.0986" fill="#FFFFE0" style="stroke:#E7E7E7;stroke-width:1;"/><path d="M6,660.0986 C6,670.0986 87,670.0986 87,670.0986 C87,670.0986 168,670.0986 168,660.0986" fill="none" style="stroke:#E7E7E7;stroke-width:1;"/><text fill="#FFFFFF" font-family="sans-serif" font-size="14" font-style="italic" lengthAdjust="spacing" textLength="113.1484" x="30.4258" y="685.0938">&#171;infrastructure&#187;</text><text fill="#FFFFFF" font-family="sans-serif" font-size="14" font-weight="bold" lengthAdjust="spacing" textLength="72.96" x="48.083" y="701.3906">:Location</text><text fill="#FFFFFF" font-family="sans-serif" font-size="14" font-weight="bold" lengthAdjust="spacing" textLength="74.5049" x="52.1846" y="717.6875">Database</text></g><!--cluster :Message \n broker--><g class="cluster" data-entity=":Message \n broker" data-source-line="129" data-uid="ent0018" id="cluster_:Message \n broker"><path d="M274.5,650.0986 L445.5,650.0986 C450.5,650.0986 450.5,726.8486 450.5,726.8486 C450.5,726.8486 450.5,803.5986 445.5,803.5986 L274.5,803.5986 C269.5,803.5986 269.5,726.8486 269.5,726.8486 C269.5,726.8486 269.5,650.0986 274.5,650.0986" fill="#E4FAFB" style="stroke:#E7E7E7;stroke-width:1;"/><path d="M445.5,650.0986 C440.5,650.0986 440.5,726.8486 440.5,726.8486 C440.5,803.5986 445.5,803.5986 445.5,803.5986" fill="none" style="stroke:#E7E7E7;stroke-width:1;"/><text fill="#FFFFFF" font-family="sans-serif" font-size="14" font-style="italic" lengthAdjust="spacing" textLength="113.1484" x="303.4258" y="665.0938">&#171;infrastructure&#187;</text><text fill="#FFFFFF" font-family="sans-serif" font-size="14" font-weight="bold" lengthAdjust="spacing" textLength="74.6553" x="320.2354" y="681.3906">:Message</text><text fill="#FFFFFF" font-family="sans-serif" font-size="14" font-weight="bold" lengthAdjust="spacing" textLength="52.2539" x="336.3101" y="697.6875">broker</text></g><g class="entity" data-entity="GATEWAY_API" data-source-line="109" data-uid="ent0003" id="entity_GATEWAY_API"><text fill="#FFFFFF" font-family="sans-serif" font-size="14" lengthAdjust="spacing" textLength="22.1484" x="249.9258" y="20.7969">API</text><rect fill="#313139" height="12" style="stroke:#E7E7E7;stroke-width:1.5;" width="12" x="255" y="36.0986"/></g><g class="entity" data-entity="GATEWAY_REALTIME" data-source-line="110" data-uid="ent0004" id="entity_GATEWAY_REALTIME"><text fill="#FFFFFF" font-family="sans-serif" font-size="14" lengthAdjust="spacing" textLength="94.0898" x="329.9551" y="20.7969">Real-time API</text><rect fill="#313139" height="12" style="stroke:#E7E7E7;stroke-width:1.5;" width="12" x="371" y="36.0986"/></g><g class="entity" data-entity="GATEWAY_LOC_REALTIME" data-source-line="111" data-uid="ent0005" id="entity_GATEWAY_LOC_REALTIME"><text fill="#FFFFFF" font-family="sans-serif" font-size="14" lengthAdjust="spacing" textLength="114.0576" x="161.7461" y="207.0938">Location service</text><text fill="#FFFFFF" font-family="sans-serif" font-size="14" lengthAdjust="spacing" textLength="94.0898" x="176.1802" y="223.3906">Real-time API</text><rect fill="#313139" height="12" style="stroke:#E7E7E7;stroke-width:1.5;" width="12" x="215" y="182.0986"/></g><g class="entity" data-entity="GATEWAY_LOC_API" data-source-line="112" data-uid="ent0006" id="entity_GATEWAY_LOC_API"><text fill="#FFFFFF" font-family="sans-serif" font-size="14" lengthAdjust="spacing" textLength="114.0576" x="325.7461" y="207.0938">Location service</text><text fill="#FFFFFF" font-family="sans-serif" font-size="14" lengthAdjust="spacing" textLength="68.2773" x="353.0864" y="223.3906">Public API</text><rect fill="#313139" height="12" style="stroke:#E7E7E7;stroke-width:1.5;" width="12" x="379" y="182.0986"/></g><g class="entity" data-entity="LOC_REALTIME" data-source-line="116" data-uid="ent0008" id="entity_LOC_REALTIME"><text fill="#FFFFFF" font-family="sans-serif" font-size="14" lengthAdjust="spacing" textLength="67.4912" x="186.5293" y="339.5">Real-time</text><text fill="#FFFFFF" font-family="sans-serif" font-size="14" lengthAdjust="spacing" textLength="57.2783" x="196.0859" y="355.7969">tracking</text><rect fill="#313139" height="12" style="stroke:#E7E7E7;stroke-width:1.5;" width="12" x="216.5" y="371.0986"/></g><g class="entity" data-entity="LOC_TRACK" data-source-line="117" data-uid="ent0009" id="entity_LOC_TRACK"><text fill="#FFFFFF" font-family="sans-serif" font-size="14" lengthAdjust="spacing" textLength="60.3408" x="351.1045" y="339.5">Tracking</text><text fill="#FFFFFF" font-family="sans-serif" font-size="14" lengthAdjust="spacing" textLength="59.0352" x="356.2075" y="355.7969">Services</text><rect fill="#313139" height="12" style="stroke:#E7E7E7;stroke-width:1.5;" width="12" x="377.5" y="371.0986"/></g><g class="entity" data-entity="LOC_DA" data-source-line="118" data-uid="ent0010" id="entity_LOC_DA"><text fill="#FFFFFF" font-family="sans-serif" font-size="14" lengthAdjust="spacing" textLength="33.4277" x="134.061" y="542.0938">Data</text><text fill="#FFFFFF" font-family="sans-serif" font-size="14" lengthAdjust="spacing" textLength="48.1729" x="131.1387" y="558.3906">Access</text><rect fill="#313139" height="12" style="stroke:#E7E7E7;stroke-width:1.5;" width="12" x="147" y="517.0986"/></g><g class="entity" data-entity="LOC_PUB" data-source-line="119" data-uid="ent0011" id="entity_LOC_PUB"><text fill="#FFFFFF" font-family="sans-serif" font-size="14" lengthAdjust="spacing" textLength="50.1484" x="260.2007" y="542.0938">Publish</text><text fill="#FFFFFF" font-family="sans-serif" font-size="14" lengthAdjust="spacing" textLength="86.0234" x="246.7134" y="558.3906">notifications</text><rect fill="#313139" height="12" style="stroke:#E7E7E7;stroke-width:1.5;" width="12" x="281.5" y="517.0986"/></g><g class="entity" data-entity="LOC_SUB" data-source-line="120" data-uid="ent0012" id="entity_LOC_SUB"><text fill="#FFFFFF" font-family="sans-serif" font-size="14" lengthAdjust="spacing" textLength="55.4395" x="402.5552" y="542.0938">Receive</text><text fill="#FFFFFF" font-family="sans-serif" font-size="14" lengthAdjust="spacing" textLength="99.8799" x="384.7852" y="558.3906">groups events</text><rect fill="#313139" height="12" style="stroke:#E7E7E7;stroke-width:1.5;" width="12" x="426.5" y="517.0986"/></g><g class="entity" data-entity="LOC_DB_DA" data-source-line="125" data-uid="ent0016" id="entity_LOC_DB_DA"><text fill="#FFFFFF" font-family="sans-serif" font-size="14" lengthAdjust="spacing" textLength="4.4502" x="84.7749" y="628.7969">&#160;</text><rect fill="#313139" height="12" style="stroke:#E7E7E7;stroke-width:1.5;" width="12" x="81" y="644.0986"/></g><g class="entity" data-entity="MB_PUB_NOTIF" data-source-line="130" data-uid="ent0019" id="entity_MB_PUB_NOTIF"><text fill="#FFFFFF" font-family="sans-serif" font-size="14" lengthAdjust="spacing" textLength="50.1484" x="260.2007" y="612.5">Publish</text><text fill="#FFFFFF" font-family="sans-serif" font-size="14" lengthAdjust="spacing" textLength="86.0234" x="246.7134" y="628.7969">notifications</text><rect fill="#313139" height="12" style="stroke:#E7E7E7;stroke-width:1.5;" width="12" x="281.5" y="644.0986"/></g><g class="entity" data-entity="MB_SUB_GRPS" data-source-line="131" data-uid="ent0020" id="entity_MB_SUB_GRPS"><text fill="#FFFFFF" font-family="sans-serif" font-size="14" lengthAdjust="spacing" textLength="68.7832" x="395.8833" y="612.5">Subscribe</text><text fill="#FFFFFF" font-family="sans-serif" font-size="14" lengthAdjust="spacing" textLength="99.8799" x="384.7852" y="628.7969">groups events</text><rect fill="#313139" height="12" style="stroke:#E7E7E7;stroke-width:1.5;" width="12" x="426.5" y="644.0986"/></g><!--link GATEWAY_LOC_REALTIME to LOC_REALTIME--><g class="link" data-entity-1="GATEWAY_LOC_REALTIME" data-entity-2="LOC_REALTIME" data-source-line="122" data-uid="lnk13" id="link_GATEWAY_LOC_REALTIME_LOC_REALTIME"><path d="M220.4,194.5386 C218.72,210.4686 214.22,258.3586 216,298.0986 C217.23,325.5386 220.88,358.2386 222.36,370.8086" fill="none" id="GATEWAY_LOC_REALTIME-LOC_REALTIME" style="stroke:#E7E7E7;stroke-width:1;"/><text fill="#FFFFFF" font-family="sans-serif" font-size="13" lengthAdjust="spacing" textLength="144.1426" x="224" y="287.1655">&#171;real-time connector&#187;</text><path d="M222.7476,290.7182 A10,10 0 0 0 208.6196 291.3511" fill="none" style="stroke:#E7E7E7;stroke-width:1.5;"/><ellipse cx="216" cy="298.0986" fill="#FFFFFF" rx="6" ry="6" style="stroke:#E7E7E7;stroke-width:1.5;"/></g><!--link GATEWAY_LOC_API to LOC_TRACK--><g class="link" data-entity-1="GATEWAY_LOC_API" data-entity-2="LOC_TRACK" data-source-line="123" data-uid="lnk14" id="link_GATEWAY_LOC_API_LOC_TRACK"><path d="M384.97,194.0986 C384.83,220.5886 384.17,344.2586 384.03,370.9986" fill="none" id="GATEWAY_LOC_API-LOC_TRACK" style="stroke:#E7E7E7;stroke-width:1;"/><text fill="#FFFFFF" font-family="sans-serif" font-size="13" lengthAdjust="spacing" textLength="36.6514" x="392" y="287.1655">&#171;rpc&#187;</text><path d="M391.6086,275.4216 A10,10 0 0 0 377.4667 275.3463" fill="none" style="stroke:#E7E7E7;stroke-width:1.5;"/><ellipse cx="384.5" cy="282.4549" fill="#FFFFFF" rx="6" ry="6" style="stroke:#E7E7E7;stroke-width:1.5;"/></g><!--link LOC_DA to LOC_DB_DA--><g class="link" data-entity-1="LOC_DA" data-entity-2="LOC_DB_DA" data-source-line="127" data-uid="lnk17" id="link_LOC_DA_LOC_DB_DA"><path d="M148.58,529.3186 C141.63,537.7086 128.01,554.9086 119,571.0986 C104.48,597.1886 92.78,631.2286 88.63,643.9786" fill="none" id="LOC_DA-LOC_DB_DA" style="stroke:#E7E7E7;stroke-width:1;"/><text fill="#FFFFFF" font-family="sans-serif" font-size="13" lengthAdjust="spacing" textLength="145.4312" x="127" y="591.1655">&#171;database connector&#187;</text><path d="M128.6173,568.3585 A10,10 0 0 0 116.2598 561.4814" fill="none" style="stroke:#E7E7E7;stroke-width:1.5;"/><ellipse cx="119" cy="571.0986" fill="#FFFFFF" rx="6" ry="6" style="stroke:#E7E7E7;stroke-width:1.5;"/></g><!--link LOC_PUB to MB_PUB_NOTIF--><g class="link" data-entity-1="LOC_PUB" data-entity-2="MB_PUB_NOTIF" data-source-line="133" data-uid="lnk21" id="link_LOC_PUB_MB_PUB_NOTIF"><path d="M288,529.1486 C288,549.2486 288,623.3886 288,643.8386" fill="none" id="LOC_PUB-MB_PUB_NOTIF" style="stroke:#E7E7E7;stroke-width:1;"/><text fill="#FFFFFF" font-family="sans-serif" font-size="13" lengthAdjust="spacing" textLength="62.8862" x="296" y="591.1655">&#171;publish&#187;</text><path d="M295.0711,579.2913 A10,10 0 0 0 280.9289 579.2913" fill="none" style="stroke:#E7E7E7;stroke-width:1.5;"/><ellipse cx="288" cy="586.3624" fill="#FFFFFF" rx="6" ry="6" style="stroke:#E7E7E7;stroke-width:1.5;"/></g><!--link LOC_SUB to MB_SUB_GRPS--><g class="link" data-entity-1="LOC_SUB" data-entity-2="MB_SUB_GRPS" data-source-line="134" data-uid="lnk22" id="link_LOC_SUB_MB_SUB_GRPS"><path d="M433,529.1486 C433,549.2486 433,623.3886 433,643.8386" fill="none" id="LOC_SUB-MB_SUB_GRPS" style="stroke:#E7E7E7;stroke-width:1;"/><text fill="#FFFFFF" font-family="sans-serif" font-size="13" lengthAdjust="spacing" textLength="78.2983" x="441" y="591.1655">&#171;subscribe&#187;</text><path d="M440.0711,579.2913 A10,10 0 0 0 425.9289 579.2913" fill="none" style="stroke:#E7E7E7;stroke-width:1.5;"/><ellipse cx="433" cy="586.3624" fill="#FFFFFF" rx="6" ry="6" style="stroke:#E7E7E7;stroke-width:1.5;"/></g><!--SRC=[bLDTQzim57tthxYu3zbBOD2nXv8Pd3GhOScQsHwbC0YoUks8E98doUdAo7-lP3l-oEALwitMEUUUS-_LwClWWL2_P8odC0mPEMh7U4uasGCL-rnmv1h-Ec3EbD1TAaN1dsOY4t8omJyQ9IUPvy73bcaSGY4jD8apDBWhl4u-uxLpxDIv9UQMA3nZmfAbM_s8MIQUE-WV1HR_GA_mKqAIs1aDPv-TqYWO3jz6TczIel6PlBXr-bn8pJYu_dhX0b5mvqVp1_znOxvxzm6IRApP7k4S6SpzPRHOpHkuA4oTfQ14Cy51eJmmYl2Bmx36ydxs3frr4MUCNXInjezEBt2Z45OAvybRLqPQIpC2iqkby4LNbXBLACkeLLN3Y09_zgqVmgw2nVhK05lahT-7bRdKrYAvq2nXbV6MiFuvxJC2fCWEfNExDxa2FDXTQ1YXOHoTIss6yVZ3nt4l8zp0P2ARTb31EL8jfESvPps6XbkchOWvDS2dUkkxZJVkJe-XpJur5COJIPIM1TM5jE-eFndee6spZaxLjRPw-R-itjJjkdP-srTbhAnCsqbQzYcMOeVIVRlwVwUncjfXRBxVHuklFLPOn8fA5W_CnF3CI3PtmJgiunYPAazNieoKLmPCZdgI3UuaKSBKgQBdlG80]--></g></svg>