<svg xmlns="http://www.w3.org/2000/svg" xmlns:xlink="http://www.w3.org/1999/xlink" contentStyleType="text/css" data-diagram-type="DESCRIPTION" height="493px" preserveAspectRatio="none" style="width:806px;height:493px;background:#FFFFFF;" version="1.1" viewBox="0 0 806 493" width="806px" zoomAndPan="magnify"><defs/><g><!--cluster Chat sub-system--><g class="cluster" data-entity="Chat sub-system" data-source-line="356" data-uid="ent0004" id="cluster_Chat sub-system"><rect fill="none" height="237" rx="2.5" ry="2.5" style="stroke:#181818;stroke-width:1;" width="793" x="7" y="128.5"/><text fill="#000000" font-family="sans-serif" font-size="14" font-weight="bold" lengthAdjust="spacing" textLength="131.9541" x="337.5229" y="143.4951">Chat sub-system</text></g><g class="entity" data-entity="UC1" data-source-line="357" data-uid="ent0005" id="entity_UC1"><ellipse cx="140.9808" cy="329.3962" fill="#F1F1F1" rx="74.9808" ry="17.3962" style="stroke:#181818;stroke-width:0.5;"/><text fill="#000000" font-family="sans-serif" font-size="14" lengthAdjust="spacing" textLength="105.9639" x="84.9988" y="333.1437">Join chat group</text></g><g class="entity" data-entity="UC2" data-source-line="358" data-uid="ent0006" id="entity_UC2"><ellipse cx="333.1123" cy="329.7225" fill="#F1F1F1" rx="81.6123" ry="18.7225" style="stroke:#181818;stroke-width:0.5;"/><text fill="#000000" font-family="sans-serif" font-size="14" lengthAdjust="spacing" textLength="122.3975" x="270.8385" y="332.9238">Leave chat group</text></g><g class="entity" data-entity="UC3" data-source-line="359" data-uid="ent0007" id="entity_UC3"><ellipse cx="704.8258" cy="198.1652" fill="#F1F1F1" rx="78.8258" ry="18.1652" style="stroke:#181818;stroke-width:0.5;"/><text fill="#000000" font-family="sans-serif" font-size="14" lengthAdjust="spacing" textLength="115.6572" x="644.8769" y="201.6762">Send a message</text></g><g class="entity" data-entity="UC4" data-source-line="360" data-uid="ent0008" id="entity_UC4"><ellipse cx="536.9663" cy="329.2933" fill="#F1F1F1" rx="86.9663" ry="19.7933" style="stroke:#181818;stroke-width:0.5;"/><text fill="#000000" font-family="sans-serif" font-size="14" lengthAdjust="spacing" textLength="134.8389" x="469.5469" y="332.1399">Connect to a group</text></g><g class="entity" data-entity="UC5" data-source-line="361" data-uid="ent0009" id="entity_UC5"><ellipse cx="485.8303" cy="197.7661" fill="#F1F1F1" rx="104.3303" ry="23.2661" style="stroke:#181818;stroke-width:0.5;"/><text fill="#000000" font-family="sans-serif" font-size="14" lengthAdjust="spacing" textLength="173.5576" x="399.0515" y="200.6127">Disconnect from a group</text></g><g class="entity" data-entity="UC6" data-source-line="363" data-uid="ent0010" id="entity_UC6"><ellipse cx="184.9935" cy="198.1987" fill="#F1F1F1" rx="161.4935" ry="34.6987" style="stroke:#181818;stroke-width:0.5;"/><text fill="#000000" font-family="sans-serif" font-size="14" lengthAdjust="spacing" textLength="294.335" x="37.8261" y="201.0454">Trigger notification for all group members</text></g><!--entity User--><g class="entity" data-entity="User" data-source-line="353" data-uid="ent0002" id="entity_User"><ellipse cx="536.9829" cy="421" fill="#F1F1F1" rx="8" ry="8" style="stroke:#181818;stroke-width:0.5;"/><path d="M536.9829,429 L536.9829,456 M523.9829,437 L549.9829,437 M536.9829,456 L523.9829,471 M536.9829,456 L549.9829,471" fill="none" style="stroke:#181818;stroke-width:0.5;"/><text fill="#000000" font-family="sans-serif" font-size="14" lengthAdjust="spacing" textLength="104.9658" x="484.5" y="485.4951">Group Member</text></g><!--entity System--><g class="entity" data-entity="System" data-source-line="354" data-uid="ent0003" id="entity_System"><ellipse cx="185.103" cy="14" fill="#F1F1F1" rx="8" ry="8" style="stroke:#181818;stroke-width:0.5;"/><path d="M185.103,22 L185.103,49 M172.103,30 L198.103,30 M185.103,49 L172.103,64 M185.103,49 L198.103,64" fill="none" style="stroke:#181818;stroke-width:0.5;"/><text fill="#000000" font-family="sans-serif" font-size="14" lengthAdjust="spacing" textLength="52.2061" x="159" y="78.4951">System</text></g><!--reverse link UC1 to User--><g class="link" data-entity-1="UC1" data-entity-2="User" data-source-line="367" data-uid="lnk12" id="link_UC1_User"><path d="M175.5237,348.369 C193.5637,357.329 212.03,365.74 234,373.5 C319.79,403.79 423.25,427.02 484.39,439.43" fill="none" id="UC1-backto-User" style="stroke:#181818;stroke-width:1;"/><polygon fill="#181818" points="170.15,345.7,176.4312,353.2859,174.6281,347.9241,179.9899,346.121,170.15,345.7" style="stroke:#181818;stroke-width:1;"/></g><!--link UC6 to UC1--><g class="link" data-entity-1="UC6" data-entity-2="UC1" data-source-line="368" data-uid="lnk13" id="link_UC6_UC1"><path d="M173.55,232.69 C164.9,258.17 155.3108,286.3791 148.5508,306.2691" fill="none" id="UC6-to-UC1" style="stroke:#181818;stroke-width:1;stroke-dasharray:7.0,7.0;"/><polygon fill="#181818" points="146.62,311.95,153.3034,304.7159,148.229,307.2159,145.7289,302.1415,146.62,311.95" style="stroke:#181818;stroke-width:1;"/><text fill="#000000" font-family="sans-serif" font-size="13" lengthAdjust="spacing" textLength="61.1851" x="164" y="275.5669">&#171;extend&#187;</text></g><!--reverse link UC2 to User--><g class="link" data-entity-1="UC2" data-entity-2="User" data-source-line="370" data-uid="lnk15" id="link_UC2_User"><path d="M366.5523,350.0738 C398.2923,368.5938 445.24,395.98 484.48,418.86" fill="none" id="UC2-backto-User" style="stroke:#181818;stroke-width:1;"/><polygon fill="#181818" points="361.37,347.05,367.1276,355.0406,365.6886,349.5699,371.1594,348.1309,361.37,347.05" style="stroke:#181818;stroke-width:1;"/></g><!--link UC6 to UC2--><g class="link" data-entity-1="UC6" data-entity-2="UC2" data-source-line="371" data-uid="lnk16" id="link_UC6_UC2"><path d="M222.35,231.68 C251.29,257 285.7238,287.1398 308.8638,307.3798" fill="none" id="UC6-to-UC2" style="stroke:#181818;stroke-width:1;stroke-dasharray:7.0,7.0;"/><polygon fill="#181818" points="313.38,311.33,309.2392,302.3939,309.6165,308.0382,303.9723,308.4155,313.38,311.33" style="stroke:#181818;stroke-width:1;"/><text fill="#000000" font-family="sans-serif" font-size="13" lengthAdjust="spacing" textLength="61.1851" x="277" y="275.5669">&#171;extend&#187;</text></g><!--reverse link UC3 to User--><g class="link" data-entity-1="UC3" data-entity-2="User" data-source-line="373" data-uid="lnk18" id="link_UC3_User"><path d="M708.65,222.1351 C713.22,255.6751 717.75,324.87 684,373.5 C661.89,405.36 622.22,424.76 589.66,435.97" fill="none" id="UC3-backto-User" style="stroke:#181818;stroke-width:1;"/><polygon fill="#181818" points="707.84,216.19,705.0917,225.6476,708.515,221.1442,713.0184,224.5676,707.84,216.19" style="stroke:#181818;stroke-width:1;"/></g><!--link UC3 to UC4--><g class="link" data-entity-1="UC3" data-entity-2="UC4" data-source-line="374" data-uid="lnk19" id="link_UC3_UC4"><path d="M683.72,215.4 C652.29,239.63 598.3813,281.1759 565.5613,306.4859" fill="none" id="UC3-to-UC4" style="stroke:#181818;stroke-width:1;stroke-dasharray:7.0,7.0;"/><polygon fill="#181818" points="560.81,310.15,570.3796,307.8214,564.7694,307.0966,565.4942,301.4864,560.81,310.15" style="stroke:#181818;stroke-width:1;"/><text fill="#000000" font-family="sans-serif" font-size="13" lengthAdjust="spacing" textLength="63.0068" x="622" y="275.5669">&#171;include&#187;</text></g><!--reverse link UC4 to User--><g class="link" data-entity-1="UC4" data-entity-2="User" data-source-line="376" data-uid="lnk21" id="link_UC4_User"><path d="M537,355.62 C537,372.44 537,391.41 537,412.17" fill="none" id="UC4-backto-User" style="stroke:#181818;stroke-width:1;"/><polygon fill="#181818" points="537,349.62,533,358.62,537,354.62,541,358.62,537,349.62" style="stroke:#181818;stroke-width:1;"/></g><!--reverse link UC5 to User--><g class="link" data-entity-1="UC5" data-entity-2="User" data-source-line="378" data-uid="lnk23" id="link_UC5_User"><path d="M559.4471,217.6255 C601.0071,229.5555 642.78,244.85 655,262.5 C669.97,284.11 707.17,264.99 642,373.5 C629.6,394.14 609.23,410.81 589.71,423.21" fill="none" id="UC5-backto-User" style="stroke:#181818;stroke-width:1;"/><polygon fill="#181818" points="553.68,215.97,561.227,222.2979,558.4859,217.3496,563.4343,214.6085,553.68,215.97" style="stroke:#181818;stroke-width:1;"/></g><!--reverse link UC5 to UC2--><g class="link" data-entity-1="UC5" data-entity-2="UC2" data-source-line="379" data-uid="lnk24" id="link_UC5_UC2"><path d="M455.4693,224.8452 C425.2793,250.3852 380.69,288.14 353.21,311.4" fill="none" id="UC5-backto-UC2" style="stroke:#181818;stroke-width:1;stroke-dasharray:7.0,7.0;"/><polygon fill="#181818" points="460.05,220.97,450.5955,223.729,456.2327,224.1993,455.7624,229.8366,460.05,220.97" style="stroke:#181818;stroke-width:1;"/><text fill="#000000" font-family="sans-serif" font-size="13" lengthAdjust="spacing" textLength="63.0068" x="410" y="275.5669">&#171;include&#187;</text></g><!--link System to UC6--><g class="link" data-entity-1="System" data-entity-2="UC6" data-source-line="382" data-uid="lnk25" id="link_System_UC6"><path d="M185,81.81 C185,106.76 185,133.32 185,157.46" fill="none" id="System-to-UC6" style="stroke:#181818;stroke-width:1;"/><polygon fill="#181818" points="185,163.46,189,154.46,185,158.46,181,154.46,185,163.46" style="stroke:#181818;stroke-width:1;"/></g><!--SRC=[VT5BQyCm303Wktw5o3s1vT732BbaC1ZhgTiFK5qbCoHsiPooCVRVvpmOIGhpoOzFaYsJyjPXzEpiSCKZzsTs4PBWkx03cWzFN-AvdxRdAO1ZvScq7MDKVv176SwnBEmRC8n1M964ynUh3QeHjMEHENlzi4MlJ3U-L-bMdTXSaB1d4MfvCTdMrDQOS3dqDiXrhdphdhIeXJREzZjSm5Q_ETssxD1Ohnkjo6jhi0dDeQwR0yEjnkR9ak00y0CmTX7ZuHfNqvF3DYR9DCT7B4l-zE55LRM3wGgc_y4im6o1-GIrKTrmuJkPxzP5Y2omJ9A_4gj8c7yPuuaUu1S0]--></g></svg>