<svg xmlns="http://www.w3.org/2000/svg" xmlns:xlink="http://www.w3.org/1999/xlink" contentStyleType="text/css" data-diagram-type="CLASS" height="866px" preserveAspectRatio="none" style="width:2531px;height:866px;background:#1B1B1B;" version="1.1" viewBox="0 0 2531 866" width="2531px" zoomAndPan="magnify"><defs/><g><rect fill="#1B1B1B" height="866" style="stroke:none;stroke-width:1;" width="2531" x="0" y="0"/><!--cluster infrastructure--><g class="cluster" data-entity="infrastructure" data-source-line="93" data-uid="ent0002" id="cluster_infrastructure"><path d="M8.5,6 L119.9619,6 A3.75,3.75 0 0 1 122.4619,8.5 L129.4619,28.2969 L2521.5,28.2969 A2.5,2.5 0 0 1 2524,30.7969 L2524,584.5 A2.5,2.5 0 0 1 2521.5,587 L8.5,587 A2.5,2.5 0 0 1 6,584.5 L6,8.5 A2.5,2.5 0 0 1 8.5,6" fill="none" style="stroke:#FFFFFF;stroke-width:1.5;"/><line style="stroke:#FFFFFF;stroke-width:1.5;" x1="6" x2="129.4619" y1="28.2969" y2="28.2969"/><text fill="#FFFFFF" font-family="sans-serif" font-size="14" font-weight="bold" lengthAdjust="spacing" textLength="110.4619" x="10" y="20.9951">infrastructure</text></g><!--cluster event--><g class="cluster" data-entity="event" data-source-line="95" data-uid="ent0003" id="cluster_event"><path d="M1510.5,49 L1556.2754,49 A3.75,3.75 0 0 1 1558.7754,51.5 L1565.7754,71.2969 L2497.5,71.2969 A2.5,2.5 0 0 1 2500,73.7969 L2500,266 A2.5,2.5 0 0 1 2497.5,268.5 L1510.5,268.5 A2.5,2.5 0 0 1 1508,266 L1508,51.5 A2.5,2.5 0 0 1 1510.5,49" fill="none" style="stroke:#FFFFFF;stroke-width:1.5;"/><line style="stroke:#FFFFFF;stroke-width:1.5;" x1="1508" x2="1565.7754" y1="71.2969" y2="71.2969"/><text fill="#FFFFFF" font-family="sans-serif" font-size="14" font-weight="bold" lengthAdjust="spacing" textLength="44.7754" x="1512" y="63.9951">event</text></g><!--cluster command--><g class="cluster" data-entity="command" data-source-line="104" data-uid="ent0015" id="cluster_command"><path d="M32.5,53 L110.0283,53 A3.75,3.75 0 0 1 112.5283,55.5 L119.5283,75.2969 L1096.5,75.2969 A2.5,2.5 0 0 1 1099,77.7969 L1099,262 A2.5,2.5 0 0 1 1096.5,264.5 L32.5,264.5 A2.5,2.5 0 0 1 30,262 L30,55.5 A2.5,2.5 0 0 1 32.5,53" fill="none" style="stroke:#FFFFFF;stroke-width:1.5;"/><line style="stroke:#FFFFFF;stroke-width:1.5;" x1="30" x2="119.5283" y1="75.2969" y2="75.2969"/><text fill="#FFFFFF" font-family="sans-serif" font-size="14" font-weight="bold" lengthAdjust="spacing" textLength="76.5283" x="34" y="67.9951">command</text></g><!--cluster realtime--><g class="cluster" data-entity="realtime" data-source-line="140" data-uid="ent0039" id="cluster_realtime"><path d="M703.5,611 L770.7197,611 A3.75,3.75 0 0 1 773.2197,613.5 L780.2197,633.2969 L1195.5,633.2969 A2.5,2.5 0 0 1 1198,635.7969 L1198,740.5 A2.5,2.5 0 0 1 1195.5,743 L703.5,743 A2.5,2.5 0 0 1 701,740.5 L701,613.5 A2.5,2.5 0 0 1 703.5,611" fill="none" style="stroke:#FFFFFF;stroke-width:1.5;"/><line style="stroke:#FFFFFF;stroke-width:1.5;" x1="701" x2="780.2197" y1="633.2969" y2="633.2969"/><text fill="#FFFFFF" font-family="sans-serif" font-size="14" font-weight="bold" lengthAdjust="spacing" textLength="66.2197" x="705" y="625.9951">realtime</text></g><!--cluster amqp--><g class="cluster" data-entity="amqp" data-source-line="157" data-uid="ent0046" id="cluster_amqp"><path d="M1224.5,612 L1269.5781,612 A3.75,3.75 0 0 1 1272.0781,614.5 L1279.0781,634.2969 L1735.5,634.2969 A2.5,2.5 0 0 1 1738,636.7969 L1738,856.5 A2.5,2.5 0 0 1 1735.5,859 L1224.5,859 A2.5,2.5 0 0 1 1222,856.5 L1222,614.5 A2.5,2.5 0 0 1 1224.5,612" fill="none" style="stroke:#FFFFFF;stroke-width:1.5;"/><line style="stroke:#FFFFFF;stroke-width:1.5;" x1="1222" x2="1279.0781" y1="634.2969" y2="634.2969"/><text fill="#FFFFFF" font-family="sans-serif" font-size="14" font-weight="bold" lengthAdjust="spacing" textLength="44.0781" x="1226" y="626.9951">amqp</text></g><!--class GroupHandler--><g class="entity" data-entity="GroupHandler" data-source-line="115" data-uid="ent0029" id="entity_GroupHandler"><rect fill="#313139" height="96.8906" rx="2.5" ry="2.5" style="stroke:#E7E7E7;stroke-width:0.5;" width="370.7705" x="1117.5" y="184"/><ellipse cx="1249.6079" cy="200" fill="#2A5D60" rx="11" ry="11" style="stroke:#E7E7E7;stroke-width:1;"/><path d="M1249.7173,195.3438 L1248.561,200.4219 L1250.8892,200.4219 L1249.7173,195.3438 Z M1248.2329,193.1094 L1251.2173,193.1094 L1254.5767,205.5 L1252.1235,205.5 L1251.3579,202.4375 L1248.0767,202.4375 L1247.3267,205.5 L1244.8892,205.5 L1248.2329,193.1094 Z " fill="#FFFFFF"/><text fill="#FFFFFF" font-family="sans-serif" font-size="14" font-style="italic" lengthAdjust="spacing" textLength="98.0547" x="1270.1079" y="204.8467">GroupHandler</text><line style="stroke:#E7E7E7;stroke-width:0.5;" x1="1118.5" x2="1487.2705" y1="216" y2="216"/><ellipse cx="1128.5" cy="229.6484" fill="none" rx="3" ry="3" style="stroke:#038048;stroke-width:1;"/><text fill="#FFFFFF" font-family="sans-serif" font-size="14" lengthAdjust="spacing" textLength="93.0645" x="1137.5" y="232.9951">group: Group</text><ellipse cx="1128.5" cy="245.9453" fill="none" rx="3" ry="3" style="stroke:#038048;stroke-width:1;"/><text fill="#FFFFFF" font-family="sans-serif" font-size="14" lengthAdjust="spacing" textLength="136.083" x="1137.5" y="249.292">client: List&lt;Client&gt;</text><line style="stroke:#E7E7E7;stroke-width:1;" x1="1118.5" x2="1487.2705" y1="256.5938" y2="256.5938"/><ellipse cx="1128.5" cy="270.2422" fill="#84BE84" rx="3" ry="3" style="stroke:#038048;stroke-width:1;"/><text fill="#FFFFFF" font-family="sans-serif" font-size="14" lengthAdjust="spacing" textLength="344.7705" x="1137.5" y="273.5889">handle(command: GroupCommand): GroupEvent</text></g><!--class GroupHandlerService--><g class="entity" data-entity="GroupHandlerService" data-source-line="126" data-uid="ent0034" id="entity_GroupHandlerService"><rect fill="#313139" height="137.7813" rx="2.5" ry="2.5" style="stroke:#E7E7E7;stroke-width:0.5;" width="413.3926" x="1096.5" y="341"/><ellipse cx="1224.0483" cy="357" fill="#352866" rx="11" ry="11" style="stroke:#E7E7E7;stroke-width:1;"/><path d="M1219.9702,352.7656 L1219.9702,350.6094 L1227.3608,350.6094 L1227.3608,352.7656 L1224.8921,352.7656 L1224.8921,360.8438 L1227.3608,360.8438 L1227.3608,363 L1219.9702,363 L1219.9702,360.8438 L1222.439,360.8438 L1222.439,352.7656 L1219.9702,352.7656 Z " fill="#FFFFFF"/><text fill="#FFFFFF" font-family="sans-serif" font-size="14" font-style="italic" lengthAdjust="spacing" textLength="149.7959" x="1244.5483" y="361.8467">GroupHandlerService</text><line style="stroke:#E7E7E7;stroke-width:0.5;" x1="1097.5" x2="1508.8926" y1="373" y2="373"/><ellipse cx="1107.5" cy="386.6484" fill="#84BE84" rx="3" ry="3" style="stroke:#038048;stroke-width:1;"/><text fill="#FFFFFF" font-family="sans-serif" font-size="14" lengthAdjust="spacing" textLength="161.8545" x="1116.5" y="389.9951">delete(groupID: String)</text><ellipse cx="1107.5" cy="402.9453" fill="#84BE84" rx="3" ry="3" style="stroke:#038048;stroke-width:1;"/><text fill="#FFFFFF" font-family="sans-serif" font-size="14" lengthAdjust="spacing" textLength="256.1768" x="1116.5" y="406.292">join(groupID: String, clientID: String)</text><ellipse cx="1107.5" cy="419.2422" fill="#84BE84" rx="3" ry="3" style="stroke:#038048;stroke-width:1;"/><text fill="#FFFFFF" font-family="sans-serif" font-size="14" lengthAdjust="spacing" textLength="268.9395" x="1116.5" y="422.5889">leave(groupID: String, clientID: String)</text><ellipse cx="1107.5" cy="435.5391" fill="#84BE84" rx="3" ry="3" style="stroke:#038048;stroke-width:1;"/><text fill="#FFFFFF" font-family="sans-serif" font-size="14" lengthAdjust="spacing" textLength="286.7676" x="1116.5" y="438.8857">connect(groupID: String, clientID: String)</text><ellipse cx="1107.5" cy="451.8359" fill="#84BE84" rx="3" ry="3" style="stroke:#038048;stroke-width:1;"/><text fill="#FFFFFF" font-family="sans-serif" font-size="14" lengthAdjust="spacing" textLength="306.8379" x="1116.5" y="455.1826">disconnect(groupID: String, clientID: String)</text><ellipse cx="1107.5" cy="468.1328" fill="#84BE84" rx="3" ry="3" style="stroke:#038048;stroke-width:1;"/><text fill="#FFFFFF" font-family="sans-serif" font-size="14" lengthAdjust="spacing" textLength="387.3926" x="1116.5" y="471.4795">send(groupID: String, clientID: String, message: String)</text></g><!--class GroupHandlerServiceImpl--><g class="entity" data-entity="GroupHandlerServiceImpl" data-source-line="137" data-uid="ent0037" id="entity_GroupHandlerServiceImpl"><rect fill="#313139" height="32" rx="2.5" ry="2.5" style="stroke:#E7E7E7;stroke-width:0.5;" width="212.3389" x="1197" y="539"/><ellipse cx="1212" cy="555" fill="#2E5233" rx="11" ry="11" style="stroke:#E7E7E7;stroke-width:1;"/><path d="M1214.9688,560.6406 Q1214.3906,560.9375 1213.75,561.0781 Q1213.1094,561.2344 1212.4063,561.2344 Q1209.9063,561.2344 1208.5781,559.5938 Q1207.2656,557.9375 1207.2656,554.8125 Q1207.2656,551.6875 1208.5781,550.0313 Q1209.9063,548.375 1212.4063,548.375 Q1213.1094,548.375 1213.75,548.5313 Q1214.4063,548.6875 1214.9688,548.9844 L1214.9688,551.7031 Q1214.3438,551.125 1213.75,550.8594 Q1213.1563,550.5781 1212.5313,550.5781 Q1211.1875,550.5781 1210.5,551.6563 Q1209.8125,552.7188 1209.8125,554.8125 Q1209.8125,556.9063 1210.5,557.9844 Q1211.1875,559.0469 1212.5313,559.0469 Q1213.1563,559.0469 1213.75,558.7813 Q1214.3438,558.5 1214.9688,557.9219 L1214.9688,560.6406 Z " fill="#FFFFFF"/><text fill="#FFFFFF" font-family="sans-serif" font-size="14" lengthAdjust="spacing" textLength="180.3389" x="1226" y="559.8467">GroupHandlerServiceImpl</text></g><!--class GroupEvent--><g class="entity" data-entity="GroupEvent" data-source-line="96" data-uid="ent0004" id="entity_GroupEvent"><rect fill="#313139" height="40.2656" rx="2.5" ry="2.5" style="stroke:#E7E7E7;stroke-width:0.5;" width="125.7461" x="1878" y="84"/><ellipse cx="1893" cy="104.1328" fill="#352866" rx="11" ry="11" style="stroke:#E7E7E7;stroke-width:1;"/><path d="M1888.9219,99.8984 L1888.9219,97.7422 L1896.3125,97.7422 L1896.3125,99.8984 L1893.8438,99.8984 L1893.8438,107.9766 L1896.3125,107.9766 L1896.3125,110.1328 L1888.9219,110.1328 L1888.9219,107.9766 L1891.3906,107.9766 L1891.3906,99.8984 L1888.9219,99.8984 Z " fill="#FFFFFF"/><text fill="#000000" font-family="sans-serif" font-size="12" font-style="italic" lengthAdjust="spacing" textLength="97.7461" x="1905" y="100.1387">&#171;domain event&#187;</text><text fill="#FFFFFF" font-family="sans-serif" font-size="14" font-style="italic" lengthAdjust="spacing" textLength="83.0361" x="1912.355" y="115.9639">GroupEvent</text></g><!--class ClientJoinedToGroup--><g class="entity" data-entity="ClientJoinedToGroup" data-source-line="97" data-uid="ent0005" id="entity_ClientJoinedToGroup"><rect fill="#313139" height="40.2656" rx="2.5" ry="2.5" style="stroke:#E7E7E7;stroke-width:0.5;" width="175.5342" x="1524" y="212.5"/><ellipse cx="1539" cy="232.6328" fill="#352866" rx="11" ry="11" style="stroke:#E7E7E7;stroke-width:1;"/><path d="M1534.9219,228.3984 L1534.9219,226.2422 L1542.3125,226.2422 L1542.3125,228.3984 L1539.8438,228.3984 L1539.8438,236.4766 L1542.3125,236.4766 L1542.3125,238.6328 L1534.9219,238.6328 L1534.9219,236.4766 L1537.3906,236.4766 L1537.3906,228.3984 L1534.9219,228.3984 Z " fill="#FFFFFF"/><text fill="#000000" font-family="sans-serif" font-size="12" font-style="italic" lengthAdjust="spacing" textLength="97.7461" x="1575.894" y="228.6387">&#171;domain event&#187;</text><text fill="#FFFFFF" font-family="sans-serif" font-size="14" font-style="italic" lengthAdjust="spacing" textLength="143.5342" x="1553" y="244.4639">ClientJoinedToGroup</text></g><!--class ClientLeavedFromGroup--><g class="entity" data-entity="ClientLeavedFromGroup" data-source-line="98" data-uid="ent0007" id="entity_ClientLeavedFromGroup"><rect fill="#313139" height="40.2656" rx="2.5" ry="2.5" style="stroke:#E7E7E7;stroke-width:0.5;" width="202.249" x="1735" y="212.5"/><ellipse cx="1750" cy="232.6328" fill="#352866" rx="11" ry="11" style="stroke:#E7E7E7;stroke-width:1;"/><path d="M1745.9219,228.3984 L1745.9219,226.2422 L1753.3125,226.2422 L1753.3125,228.3984 L1750.8438,228.3984 L1750.8438,236.4766 L1753.3125,236.4766 L1753.3125,238.6328 L1745.9219,238.6328 L1745.9219,236.4766 L1748.3906,236.4766 L1748.3906,228.3984 L1745.9219,228.3984 Z " fill="#FFFFFF"/><text fill="#000000" font-family="sans-serif" font-size="12" font-style="italic" lengthAdjust="spacing" textLength="97.7461" x="1800.2515" y="228.6387">&#171;domain event&#187;</text><text fill="#FFFFFF" font-family="sans-serif" font-size="14" font-style="italic" lengthAdjust="spacing" textLength="170.249" x="1764" y="244.4639">ClientLeavedFromGroup</text></g><!--class ClientConnected--><g class="entity" data-entity="ClientConnected" data-source-line="99" data-uid="ent0009" id="entity_ClientConnected"><rect fill="#313139" height="40.2656" rx="2.5" ry="2.5" style="stroke:#E7E7E7;stroke-width:0.5;" width="147.917" x="1972" y="212.5"/><ellipse cx="1987" cy="232.6328" fill="#352866" rx="11" ry="11" style="stroke:#E7E7E7;stroke-width:1;"/><path d="M1982.9219,228.3984 L1982.9219,226.2422 L1990.3125,226.2422 L1990.3125,228.3984 L1987.8438,228.3984 L1987.8438,236.4766 L1990.3125,236.4766 L1990.3125,238.6328 L1982.9219,238.6328 L1982.9219,236.4766 L1985.3906,236.4766 L1985.3906,228.3984 L1982.9219,228.3984 Z " fill="#FFFFFF"/><text fill="#000000" font-family="sans-serif" font-size="12" font-style="italic" lengthAdjust="spacing" textLength="97.7461" x="2010.0854" y="228.6387">&#171;domain event&#187;</text><text fill="#FFFFFF" font-family="sans-serif" font-size="14" font-style="italic" lengthAdjust="spacing" textLength="115.917" x="2001" y="244.4639">ClientConnected</text></g><!--class ClientDisconnected--><g class="entity" data-entity="ClientDisconnected" data-source-line="100" data-uid="ent0011" id="entity_ClientDisconnected"><rect fill="#313139" height="40.2656" rx="2.5" ry="2.5" style="stroke:#E7E7E7;stroke-width:0.5;" width="167.8027" x="2155" y="212.5"/><ellipse cx="2170" cy="232.6328" fill="#352866" rx="11" ry="11" style="stroke:#E7E7E7;stroke-width:1;"/><path d="M2165.9219,228.3984 L2165.9219,226.2422 L2173.3125,226.2422 L2173.3125,228.3984 L2170.8438,228.3984 L2170.8438,236.4766 L2173.3125,236.4766 L2173.3125,238.6328 L2165.9219,238.6328 L2165.9219,236.4766 L2168.3906,236.4766 L2168.3906,228.3984 L2165.9219,228.3984 Z " fill="#FFFFFF"/><text fill="#000000" font-family="sans-serif" font-size="12" font-style="italic" lengthAdjust="spacing" textLength="97.7461" x="2203.0283" y="228.6387">&#171;domain event&#187;</text><text fill="#FFFFFF" font-family="sans-serif" font-size="14" font-style="italic" lengthAdjust="spacing" textLength="135.8027" x="2184" y="244.4639">ClientDisconnected</text></g><!--class Message--><g class="entity" data-entity="Message" data-source-line="101" data-uid="ent0013" id="entity_Message"><rect fill="#313139" height="40.2656" rx="2.5" ry="2.5" style="stroke:#E7E7E7;stroke-width:0.5;" width="125.7461" x="2358" y="212.5"/><ellipse cx="2373" cy="232.6328" fill="#352866" rx="11" ry="11" style="stroke:#E7E7E7;stroke-width:1;"/><path d="M2368.9219,228.3984 L2368.9219,226.2422 L2376.3125,226.2422 L2376.3125,228.3984 L2373.8438,228.3984 L2373.8438,236.4766 L2376.3125,236.4766 L2376.3125,238.6328 L2368.9219,238.6328 L2368.9219,236.4766 L2371.3906,236.4766 L2371.3906,228.3984 L2368.9219,228.3984 Z " fill="#FFFFFF"/><text fill="#000000" font-family="sans-serif" font-size="12" font-style="italic" lengthAdjust="spacing" textLength="97.7461" x="2385" y="228.6387">&#171;domain event&#187;</text><text fill="#FFFFFF" font-family="sans-serif" font-size="14" font-style="italic" lengthAdjust="spacing" textLength="61.3594" x="2403.1934" y="244.4639">Message</text></g><!--class GroupCommand--><g class="entity" data-entity="GroupCommand" data-source-line="105" data-uid="ent0016" id="entity_GroupCommand"><rect fill="#313139" height="32" rx="2.5" ry="2.5" style="stroke:#E7E7E7;stroke-width:0.5;" width="146.8848" x="582.5" y="88"/><ellipse cx="597.5" cy="104" fill="#352866" rx="11" ry="11" style="stroke:#E7E7E7;stroke-width:1;"/><path d="M593.4219,99.7656 L593.4219,97.6094 L600.8125,97.6094 L600.8125,99.7656 L598.3438,99.7656 L598.3438,107.8438 L600.8125,107.8438 L600.8125,110 L593.4219,110 L593.4219,107.8438 L595.8906,107.8438 L595.8906,99.7656 L593.4219,99.7656 Z " fill="#FFFFFF"/><text fill="#FFFFFF" font-family="sans-serif" font-size="14" font-style="italic" lengthAdjust="spacing" textLength="114.8848" x="611.5" y="108.8467">GroupCommand</text></g><!--class DeleteGroup--><g class="entity" data-entity="DeleteGroup" data-source-line="106" data-uid="ent0017" id="entity_DeleteGroup"><rect fill="#313139" height="32" rx="2.5" ry="2.5" style="stroke:#E7E7E7;stroke-width:0.5;" width="120.9287" x="46.5" y="216.5"/><ellipse cx="61.5" cy="232.5" fill="#352866" rx="11" ry="11" style="stroke:#E7E7E7;stroke-width:1;"/><path d="M57.4219,228.2656 L57.4219,226.1094 L64.8125,226.1094 L64.8125,228.2656 L62.3438,228.2656 L62.3438,236.3438 L64.8125,236.3438 L64.8125,238.5 L57.4219,238.5 L57.4219,236.3438 L59.8906,236.3438 L59.8906,228.2656 L57.4219,228.2656 Z " fill="#FFFFFF"/><text fill="#FFFFFF" font-family="sans-serif" font-size="14" font-style="italic" lengthAdjust="spacing" textLength="88.9287" x="75.5" y="237.3467">DeleteGroup</text></g><!--class ClientJoinsGroup--><g class="entity" data-entity="ClientJoinsGroup" data-source-line="107" data-uid="ent0019" id="entity_ClientJoinsGroup"><rect fill="#313139" height="32" rx="2.5" ry="2.5" style="stroke:#E7E7E7;stroke-width:0.5;" width="148.2109" x="203" y="216.5"/><ellipse cx="218" cy="232.5" fill="#352866" rx="11" ry="11" style="stroke:#E7E7E7;stroke-width:1;"/><path d="M213.9219,228.2656 L213.9219,226.1094 L221.3125,226.1094 L221.3125,228.2656 L218.8438,228.2656 L218.8438,236.3438 L221.3125,236.3438 L221.3125,238.5 L213.9219,238.5 L213.9219,236.3438 L216.3906,236.3438 L216.3906,228.2656 L213.9219,228.2656 Z " fill="#FFFFFF"/><text fill="#FFFFFF" font-family="sans-serif" font-size="14" font-style="italic" lengthAdjust="spacing" textLength="116.2109" x="232" y="237.3467">ClientJoinsGroup</text></g><!--class ClientLeavesGroup--><g class="entity" data-entity="ClientLeavesGroup" data-source-line="108" data-uid="ent0021" id="entity_ClientLeavesGroup"><rect fill="#313139" height="32" rx="2.5" ry="2.5" style="stroke:#E7E7E7;stroke-width:0.5;" width="164.6445" x="386.5" y="216.5"/><ellipse cx="401.5" cy="232.5" fill="#352866" rx="11" ry="11" style="stroke:#E7E7E7;stroke-width:1;"/><path d="M397.4219,228.2656 L397.4219,226.1094 L404.8125,226.1094 L404.8125,228.2656 L402.3438,228.2656 L402.3438,236.3438 L404.8125,236.3438 L404.8125,238.5 L397.4219,238.5 L397.4219,236.3438 L399.8906,236.3438 L399.8906,228.2656 L397.4219,228.2656 Z " fill="#FFFFFF"/><text fill="#FFFFFF" font-family="sans-serif" font-size="14" font-style="italic" lengthAdjust="spacing" textLength="132.6445" x="415.5" y="237.3467">ClientLeavesGroup</text></g><!--class ClientConnects--><g class="entity" data-entity="ClientConnects" data-source-line="109" data-uid="ent0023" id="entity_ClientConnects"><rect fill="#313139" height="32" rx="2.5" ry="2.5" style="stroke:#E7E7E7;stroke-width:0.5;" width="137.7109" x="587" y="216.5"/><ellipse cx="602" cy="232.5" fill="#352866" rx="11" ry="11" style="stroke:#E7E7E7;stroke-width:1;"/><path d="M597.9219,228.2656 L597.9219,226.1094 L605.3125,226.1094 L605.3125,228.2656 L602.8438,228.2656 L602.8438,236.3438 L605.3125,236.3438 L605.3125,238.5 L597.9219,238.5 L597.9219,236.3438 L600.3906,236.3438 L600.3906,228.2656 L597.9219,228.2656 Z " fill="#FFFFFF"/><text fill="#FFFFFF" font-family="sans-serif" font-size="14" font-style="italic" lengthAdjust="spacing" textLength="105.7109" x="616" y="237.3467">ClientConnects</text></g><!--class ClientDisconnects--><g class="entity" data-entity="ClientDisconnects" data-source-line="110" data-uid="ent0025" id="entity_ClientDisconnects"><rect fill="#313139" height="32" rx="2.5" ry="2.5" style="stroke:#E7E7E7;stroke-width:0.5;" width="157.5967" x="760" y="216.5"/><ellipse cx="775" cy="232.5" fill="#352866" rx="11" ry="11" style="stroke:#E7E7E7;stroke-width:1;"/><path d="M770.9219,228.2656 L770.9219,226.1094 L778.3125,226.1094 L778.3125,228.2656 L775.8438,228.2656 L775.8438,236.3438 L778.3125,236.3438 L778.3125,238.5 L770.9219,238.5 L770.9219,236.3438 L773.3906,236.3438 L773.3906,228.2656 L770.9219,228.2656 Z " fill="#FFFFFF"/><text fill="#FFFFFF" font-family="sans-serif" font-size="14" font-style="italic" lengthAdjust="spacing" textLength="125.5967" x="789" y="237.3467">ClientDisconnects</text></g><!--class SendMessage--><g class="entity" data-entity="SendMessage" data-source-line="111" data-uid="ent0027" id="entity_SendMessage"><rect fill="#313139" height="32" rx="2.5" ry="2.5" style="stroke:#E7E7E7;stroke-width:0.5;" width="128.6191" x="953.5" y="216.5"/><ellipse cx="968.5" cy="232.5" fill="#352866" rx="11" ry="11" style="stroke:#E7E7E7;stroke-width:1;"/><path d="M964.4219,228.2656 L964.4219,226.1094 L971.8125,226.1094 L971.8125,228.2656 L969.3438,228.2656 L969.3438,236.3438 L971.8125,236.3438 L971.8125,238.5 L964.4219,238.5 L964.4219,236.3438 L966.8906,236.3438 L966.8906,228.2656 L964.4219,228.2656 Z " fill="#FFFFFF"/><text fill="#FFFFFF" font-family="sans-serif" font-size="14" font-style="italic" lengthAdjust="spacing" textLength="96.6191" x="982.5" y="237.3467">SendMessage</text></g><!--class Route--><g class="entity" data-entity="Route" data-source-line="142" data-uid="ent0040" id="entity_Route"><rect fill="#313139" height="80.8594" rx="2.5" ry="2.5" style="stroke:#E7E7E7;stroke-width:0.5;" width="116.3828" x="717" y="646"/><ellipse cx="732" cy="666.1328" fill="#352866" rx="11" ry="11" style="stroke:#E7E7E7;stroke-width:1;"/><path d="M727.9219,661.8984 L727.9219,659.7422 L735.3125,659.7422 L735.3125,661.8984 L732.8438,661.8984 L732.8438,669.9766 L735.3125,669.9766 L735.3125,672.1328 L727.9219,672.1328 L727.9219,669.9766 L730.3906,669.9766 L730.3906,661.8984 L727.9219,661.8984 Z " fill="#FFFFFF"/><text fill="#000000" font-family="sans-serif" font-size="12" font-style="italic" lengthAdjust="spacing" textLength="88.3828" x="744" y="662.1387">&#171;value object&#187;</text><text fill="#FFFFFF" font-family="sans-serif" font-size="14" font-style="italic" lengthAdjust="spacing" textLength="41.2686" x="767.5571" y="677.9639">Route</text><line style="stroke:#E7E7E7;stroke-width:0.5;" x1="718" x2="832.3828" y1="686.2656" y2="686.2656"/><ellipse cx="728" cy="699.9141" fill="none" rx="3" ry="3" style="stroke:#038048;stroke-width:1;"/><text fill="#FFFFFF" font-family="sans-serif" font-size="14" lengthAdjust="spacing" textLength="51.2764" x="737" y="703.2607">version</text><ellipse cx="728" cy="716.2109" fill="none" rx="3" ry="3" style="stroke:#038048;stroke-width:1;"/><text fill="#FFFFFF" font-family="sans-serif" font-size="14" lengthAdjust="spacing" textLength="31.8281" x="737" y="719.5576">path</text></g><!--class RealTimeService--><g class="entity" data-entity="RealTimeService" data-source-line="147" data-uid="ent0041" id="entity_RealTimeService"><rect fill="#313139" height="78.5313" rx="2.5" ry="2.5" style="stroke:#E7E7E7;stroke-width:0.5;" width="312.7676" x="868.5" y="647"/><ellipse cx="962.0122" cy="674.1172" fill="#352866" rx="11" ry="11" style="stroke:#E7E7E7;stroke-width:1;"/><path d="M957.9341,669.8828 L957.9341,667.7266 L965.3247,667.7266 L965.3247,669.8828 L962.856,669.8828 L962.856,677.9609 L965.3247,677.9609 L965.3247,680.1172 L957.9341,680.1172 L957.9341,677.9609 L960.4028,677.9609 L960.4028,669.8828 L957.9341,669.8828 Z " fill="#FFFFFF"/><text fill="#000000" font-family="sans-serif" font-size="12" font-style="italic" lengthAdjust="spacing" textLength="57.7969" x="1012.2354" y="663.1387">&#171;service&#187;</text><text fill="#000000" font-family="sans-serif" font-size="12" font-style="italic" lengthAdjust="spacing" textLength="39.4102" x="1021.4287" y="677.1074">&#171;port&#187;</text><text fill="#FFFFFF" font-family="sans-serif" font-size="14" font-style="italic" lengthAdjust="spacing" textLength="117.2432" x="982.5122" y="692.9326">RealTimeService</text><line style="stroke:#E7E7E7;stroke-width:0.5;" x1="869.5" x2="1180.2676" y1="701.2344" y2="701.2344"/><ellipse cx="879.5" cy="714.8828" fill="#84BE84" rx="3" ry="3" style="stroke:#038048;stroke-width:1;"/><text fill="#FFFFFF" font-family="sans-serif" font-size="14" lengthAdjust="spacing" textLength="286.7676" x="888.5" y="718.2295">connect(clientID: String, groupID: String)</text></g><!--class MessageHandler--><g class="entity" data-entity="MessageHandler" data-source-line="158" data-uid="ent0047" id="entity_MessageHandler"><rect fill="#313139" height="56.2969" rx="2.5" ry="2.5" style="stroke:#E7E7E7;stroke-width:0.5;" width="380.2656" x="1342" y="787"/><ellipse cx="1469.6406" cy="803" fill="#352866" rx="11" ry="11" style="stroke:#E7E7E7;stroke-width:1;"/><path d="M1465.5625,798.7656 L1465.5625,796.6094 L1472.9531,796.6094 L1472.9531,798.7656 L1470.4844,798.7656 L1470.4844,806.8438 L1472.9531,806.8438 L1472.9531,809 L1465.5625,809 L1465.5625,806.8438 L1468.0313,806.8438 L1468.0313,798.7656 L1465.5625,798.7656 Z " fill="#FFFFFF"/><text fill="#FFFFFF" font-family="sans-serif" font-size="14" font-style="italic" lengthAdjust="spacing" textLength="116.4844" x="1490.1406" y="807.8467">MessageHandler</text><line style="stroke:#E7E7E7;stroke-width:0.5;" x1="1343" x2="1721.2656" y1="819" y2="819"/><ellipse cx="1353" cy="832.6484" fill="#84BE84" rx="3" ry="3" style="stroke:#038048;stroke-width:1;"/><text fill="#FFFFFF" font-family="sans-serif" font-size="14" lengthAdjust="spacing" textLength="354.2656" x="1362" y="835.9951">handle(type:MessageType, message: ByteStream)</text></g><!--class ConnectionProvider--><g class="entity" data-entity="ConnectionProvider" data-source-line="162" data-uid="ent0048" id="entity_ConnectionProvider"><rect fill="#313139" height="72.5938" rx="2.5" ry="2.5" style="stroke:#E7E7E7;stroke-width:0.5;" width="169.4092" x="1237.5" y="650"/><ellipse cx="1252.5" cy="666" fill="#352866" rx="11" ry="11" style="stroke:#E7E7E7;stroke-width:1;"/><path d="M1248.4219,661.7656 L1248.4219,659.6094 L1255.8125,659.6094 L1255.8125,661.7656 L1253.3438,661.7656 L1253.3438,669.8438 L1255.8125,669.8438 L1255.8125,672 L1248.4219,672 L1248.4219,669.8438 L1250.8906,669.8438 L1250.8906,661.7656 L1248.4219,661.7656 Z " fill="#FFFFFF"/><text fill="#FFFFFF" font-family="sans-serif" font-size="14" font-style="italic" lengthAdjust="spacing" textLength="137.4092" x="1266.5" y="670.8467">ConnectionProvider</text><line style="stroke:#E7E7E7;stroke-width:0.5;" x1="1238.5" x2="1405.9092" y1="682" y2="682"/><ellipse cx="1248.5" cy="695.6484" fill="#84BE84" rx="3" ry="3" style="stroke:#038048;stroke-width:1;"/><text fill="#FFFFFF" font-family="sans-serif" font-size="14" lengthAdjust="spacing" textLength="66.7324" x="1257.5" y="698.9951">connect()</text><ellipse cx="1248.5" cy="711.9453" fill="#84BE84" rx="3" ry="3" style="stroke:#038048;stroke-width:1;"/><text fill="#FFFFFF" font-family="sans-serif" font-size="14" lengthAdjust="spacing" textLength="86.8027" x="1257.5" y="715.292">disconnect()</text></g><!--class MessageConsumer--><g class="entity" data-entity="MessageConsumer" data-source-line="167" data-uid="ent0049" id="entity_MessageConsumer"><rect fill="#313139" height="78.5313" rx="2.5" ry="2.5" style="stroke:#E7E7E7;stroke-width:0.5;" width="279.5996" x="1442" y="647"/><ellipse cx="1511.1763" cy="674.1172" fill="#352866" rx="11" ry="11" style="stroke:#E7E7E7;stroke-width:1;"/><path d="M1507.0981,669.8828 L1507.0981,667.7266 L1514.4888,667.7266 L1514.4888,669.8828 L1512.02,669.8828 L1512.02,677.9609 L1514.4888,677.9609 L1514.4888,680.1172 L1507.0981,680.1172 L1507.0981,677.9609 L1509.5669,677.9609 L1509.5669,669.8828 L1507.0981,669.8828 Z " fill="#FFFFFF"/><text fill="#000000" font-family="sans-serif" font-size="12" font-style="italic" lengthAdjust="spacing" textLength="57.7969" x="1569.1514" y="663.1387">&#171;service&#187;</text><text fill="#000000" font-family="sans-serif" font-size="12" font-style="italic" lengthAdjust="spacing" textLength="54.1641" x="1570.9678" y="677.1074">&#171;in port&#187;</text><text fill="#FFFFFF" font-family="sans-serif" font-size="14" font-style="italic" lengthAdjust="spacing" textLength="132.7471" x="1531.6763" y="692.9326">MessageConsumer</text><line style="stroke:#E7E7E7;stroke-width:0.5;" x1="1443" x2="1720.5996" y1="701.2344" y2="701.2344"/><ellipse cx="1453" cy="714.8828" fill="#84BE84" rx="3" ry="3" style="stroke:#038048;stroke-width:1;"/><text fill="#FFFFFF" font-family="sans-serif" font-size="14" lengthAdjust="spacing" textLength="253.5996" x="1462" y="718.2295">consume(handler: MessageHandler)</text></g><!--reverse link GroupEvent to ClientJoinedToGroup--><g class="link" data-entity-1="GroupEvent" data-entity-2="ClientJoinedToGroup" data-source-line="97" data-uid="lnk6" id="link_GroupEvent_ClientJoinedToGroup"><path d="M1866.173,129.7797 C1820.873,145.0497 1773.48,161.78 1718,184 C1696.1,192.77 1672.07,203.45 1652.44,212.45" fill="none" id="GroupEvent-backto-ClientJoinedToGroup" style="stroke:#E7E7E7;stroke-width:1;"/><polygon fill="none" points="1883.23,124.03,1864.2564,124.094,1868.0896,135.4653,1883.23,124.03" style="stroke:#E7E7E7;stroke-width:1;"/></g><!--reverse link GroupEvent to ClientLeavedFromGroup--><g class="link" data-entity-1="GroupEvent" data-entity-2="ClientLeavedFromGroup" data-source-line="98" data-uid="lnk8" id="link_GroupEvent_ClientLeavedFromGroup"><path d="M1913.5565,138.0628 C1893.8265,161.8428 1871.9,188.25 1852.1,212.11" fill="none" id="GroupEvent-backto-ClientLeavedFromGroup" style="stroke:#E7E7E7;stroke-width:1;"/><polygon fill="none" points="1925.05,124.21,1908.9389,134.2316,1918.1741,141.8939,1925.05,124.21" style="stroke:#E7E7E7;stroke-width:1;"/></g><!--reverse link GroupEvent to ClientConnected--><g class="link" data-entity-1="GroupEvent" data-entity-2="ClientConnected" data-source-line="99" data-uid="lnk10" id="link_GroupEvent_ClientConnected"><path d="M1968.4435,138.0628 C1988.1735,161.8428 2010.1,188.25 2029.9,212.11" fill="none" id="GroupEvent-backto-ClientConnected" style="stroke:#E7E7E7;stroke-width:1;"/><polygon fill="none" points="1956.95,124.21,1963.8259,141.8939,1973.0611,134.2316,1956.95,124.21" style="stroke:#E7E7E7;stroke-width:1;"/></g><!--reverse link GroupEvent to ClientDisconnected--><g class="link" data-entity-1="GroupEvent" data-entity-2="ClientDisconnected" data-source-line="100" data-uid="lnk12" id="link_GroupEvent_ClientDisconnected"><path d="M2007.5013,130.5205 C2047.5313,146.0505 2088.33,162.38 2138,184 C2158.61,192.97 2181.28,203.56 2199.91,212.47" fill="none" id="GroupEvent-backto-ClientDisconnected" style="stroke:#E7E7E7;stroke-width:1;"/><polygon fill="none" points="1990.72,124.01,2005.3312,136.1143,2009.6715,124.9267,1990.72,124.01" style="stroke:#E7E7E7;stroke-width:1;"/></g><!--reverse link GroupEvent to Message--><g class="link" data-entity-1="GroupEvent" data-entity-2="Message" data-source-line="101" data-uid="lnk14" id="link_GroupEvent_Message"><path d="M2022.0522,112.737 C2102.4622,121.577 2226.79,140.31 2341,184 C2359.71,191.16 2379.06,202.52 2394.05,212.35" fill="none" id="GroupEvent-backto-Message" style="stroke:#E7E7E7;stroke-width:1;"/><polygon fill="none" points="2004.16,110.77,2021.3965,118.7011,2022.7079,106.7729,2004.16,110.77" style="stroke:#E7E7E7;stroke-width:1;"/></g><!--reverse link GroupCommand to DeleteGroup--><g class="link" data-entity-1="GroupCommand" data-entity-2="DeleteGroup" data-source-line="106" data-uid="lnk18" id="link_GroupCommand_DeleteGroup"><path d="M564.4148,109.9794 C469.7848,116.6694 319.61,133.86 185,184 C163.9,191.86 142.21,205.61 127.08,216.31" fill="none" id="GroupCommand-backto-DeleteGroup" style="stroke:#E7E7E7;stroke-width:1;"/><polygon fill="none" points="582.37,108.71,563.9917,103.9943,564.8379,115.9644,582.37,108.71" style="stroke:#E7E7E7;stroke-width:1;"/></g><!--reverse link GroupCommand to ClientJoinsGroup--><g class="link" data-entity-1="GroupCommand" data-entity-2="ClientJoinsGroup" data-source-line="107" data-uid="lnk20" id="link_GroupCommand_ClientJoinsGroup"><path d="M568.1423,124.0933 C509.2123,137.7133 440.96,155.87 369,184 C345.9,193.03 320.97,206.13 302.89,216.28" fill="none" id="GroupCommand-backto-ClientJoinsGroup" style="stroke:#E7E7E7;stroke-width:1;"/><polygon fill="none" points="585.68,120.04,566.7912,118.2474,569.4934,129.9392,585.68,120.04" style="stroke:#E7E7E7;stroke-width:1;"/></g><!--reverse link GroupCommand to ClientLeavesGroup--><g class="link" data-entity-1="GroupCommand" data-entity-2="ClientLeavesGroup" data-source-line="108" data-uid="lnk22" id="link_GroupCommand_ClientLeavesGroup"><path d="M618.9012,130.096 C583.0112,154.376 527.51,191.92 491.45,216.31" fill="none" id="GroupCommand-backto-ClientLeavesGroup" style="stroke:#E7E7E7;stroke-width:1;"/><polygon fill="none" points="633.81,120.01,615.5392,125.1264,622.2632,135.0656,633.81,120.01" style="stroke:#E7E7E7;stroke-width:1;"/></g><!--reverse link GroupCommand to ClientConnects--><g class="link" data-entity-1="GroupCommand" data-entity-2="ClientConnects" data-source-line="109" data-uid="lnk24" id="link_GroupCommand_ClientConnects"><path d="M656,138.01 C656,162.22 656,191.66 656,216.12" fill="none" id="GroupCommand-backto-ClientConnects" style="stroke:#E7E7E7;stroke-width:1;"/><polygon fill="none" points="656,120.01,650,138.01,662,138.01,656,120.01" style="stroke:#E7E7E7;stroke-width:1;"/></g><!--reverse link GroupCommand to ClientDisconnects--><g class="link" data-entity-1="GroupCommand" data-entity-2="ClientDisconnects" data-source-line="110" data-uid="lnk26" id="link_GroupCommand_ClientDisconnects"><path d="M692.5175,130.2442 C727.6475,154.5242 781.74,191.92 817.03,216.31" fill="none" id="GroupCommand-backto-ClientDisconnects" style="stroke:#E7E7E7;stroke-width:1;"/><polygon fill="none" points="677.71,120.01,689.1061,135.18,695.9289,125.3083,677.71,120.01" style="stroke:#E7E7E7;stroke-width:1;"/></g><!--reverse link GroupCommand to SendMessage--><g class="link" data-entity-1="GroupCommand" data-entity-2="SendMessage" data-source-line="111" data-uid="lnk28" id="link_GroupCommand_SendMessage"><path d="M745.3989,124.0881 C802.9789,137.3781 867.61,155.09 936,184 C957.06,192.91 979.43,206.14 995.47,216.38" fill="none" id="GroupCommand-backto-SendMessage" style="stroke:#E7E7E7;stroke-width:1;"/><polygon fill="none" points="727.86,120.04,744.0495,129.9344,746.7483,118.2418,727.86,120.04" style="stroke:#E7E7E7;stroke-width:1;"/></g><!--reverse link GroupCommand to GroupHandler--><g class="link" data-entity-1="GroupCommand" data-entity-2="GroupHandler" data-source-line="122" data-uid="lnk31" id="link_GroupCommand_GroupHandler"><path codeLine="122" d="M735.4399,117.8773 C823.5099,132.4173 969.48,157.39 1099,184 C1105.06,185.24 1111.21,186.53 1117.41,187.85" fill="none" id="GroupCommand-backto-GroupHandler" style="stroke:#E7E7E7;stroke-width:1;stroke-dasharray:7.0,7.0;"/><polygon fill="#E7E7E7" points="729.52,116.9,737.7482,122.3126,734.4532,117.7145,739.0514,114.4194,729.52,116.9" style="stroke:#E7E7E7;stroke-width:1;"/></g><!--reverse link GroupEvent to GroupHandler--><g class="link" data-entity-1="GroupEvent" data-entity-2="GroupHandler" data-source-line="123" data-uid="lnk33" id="link_GroupEvent_GroupHandler"><path codeLine="123" d="M1871.7947,116.5846 C1787.2947,130.9346 1638.95,156.9 1508,184 C1501.65,185.31 1495.19,186.67 1488.68,188.07" fill="none" id="GroupEvent-backto-GroupHandler" style="stroke:#E7E7E7;stroke-width:1;stroke-dasharray:7.0,7.0;"/><polygon fill="#E7E7E7" points="1877.71,115.58,1868.1673,113.1433,1872.7806,116.4171,1869.5067,121.0304,1877.71,115.58" style="stroke:#E7E7E7;stroke-width:1;"/></g><!--reverse link GroupHandler to GroupHandlerService--><g class="link" data-entity-1="GroupHandler" data-entity-2="GroupHandlerService" data-source-line="135" data-uid="lnk36" id="link_GroupHandler_GroupHandlerService"><path codeLine="135" d="M1303,287.46 C1303,305.72 1303,320.91 1303,340.71" fill="none" id="GroupHandler-backto-GroupHandlerService" style="stroke:#E7E7E7;stroke-width:1;stroke-dasharray:7.0,7.0;"/><polygon fill="#E7E7E7" points="1303,281.46,1299,290.46,1303,286.46,1307,290.46,1303,281.46" style="stroke:#E7E7E7;stroke-width:1;"/><text fill="#FFFFFF" font-family="sans-serif" font-size="13" lengthAdjust="spacing" textLength="48.3247" x="1251.8122" y="301.13">creates</text></g><!--reverse link GroupHandlerService to GroupHandlerServiceImpl--><g class="link" data-entity-1="GroupHandlerService" data-entity-2="GroupHandlerServiceImpl" data-source-line="137" data-uid="lnk38" id="link_GroupHandlerService_GroupHandlerServiceImpl"><path d="M1303,497.15 C1303,519.59 1303,524.48 1303,538.93" fill="none" id="GroupHandlerService-backto-GroupHandlerServiceImpl" style="stroke:#E7E7E7;stroke-width:1;stroke-dasharray:7.0,7.0;"/><polygon fill="none" points="1303,479.15,1297,497.15,1309,497.15,1303,479.15" style="stroke:#E7E7E7;stroke-width:1;"/></g><!--link Route to RealTimeService--><g class="link" data-entity-1="Route" data-entity-2="RealTimeService" data-source-line="153" data-uid="lnk43" id="link_Route_RealTimeService"><path codeLine="153" d="M839.11,686.5 C850.85,686.5 844.59,686.5 856.34,686.5" fill="none" id="Route-RealTimeService" style="stroke:#E7E7E7;stroke-width:1;"/><polygon fill="#E7E7E7" points="833.11,686.5,842.11,690.5,838.11,686.5,842.11,682.5,833.11,686.5" style="stroke:#E7E7E7;stroke-width:1;"/><polygon fill="#E7E7E7" points="868.34,686.5,862.34,682.5,856.34,686.5,862.34,690.5,868.34,686.5" style="stroke:#E7E7E7;stroke-width:1;"/><text fill="#FFFFFF" font-family="sans-serif" font-size="13" lengthAdjust="spacing" textLength="24.7749" x="835.6198" y="682.4514">1..n</text></g><!--link GroupHandlerServiceImpl to RealTimeService--><g class="link" data-entity-1="GroupHandlerServiceImpl" data-entity-2="RealTimeService" data-source-line="154" data-uid="lnk45" id="link_GroupHandlerServiceImpl_RealTimeService"><path codeLine="154" d="M1265.1311,573.6434 C1225.5211,592.0934 1173.3977,616.3728 1118.8077,641.8028" fill="none" id="GroupHandlerServiceImpl-RealTimeService" style="stroke:#E7E7E7;stroke-width:1;"/><polygon fill="#E7E7E7" points="1270.57,571.11,1260.7227,571.2842,1266.0376,573.2212,1264.1006,578.5361,1270.57,571.11" style="stroke:#E7E7E7;stroke-width:1;"/><polygon fill="#E7E7E7" points="1107.93,646.87,1115.0579,647.9623,1118.8077,641.8028,1111.6798,640.7105,1107.93,646.87" style="stroke:#E7E7E7;stroke-width:1;"/><text fill="#FFFFFF" font-family="sans-serif" font-size="13" lengthAdjust="spacing" textLength="8.271" x="1250.4913" y="591.0197">1</text></g><!--link ConnectionProvider to MessageConsumer--><g class="link" data-entity-1="ConnectionProvider" data-entity-2="MessageConsumer" data-source-line="171" data-uid="lnk51" id="link_ConnectionProvider_MessageConsumer"><path codeLine="171" d="M1412.55,686.5 C1424.32,686.5 1418.08,686.5 1429.85,686.5" fill="none" id="ConnectionProvider-MessageConsumer" style="stroke:#E7E7E7;stroke-width:1;"/><polygon fill="#E7E7E7" points="1406.55,686.5,1415.55,690.5,1411.55,686.5,1415.55,682.5,1406.55,686.5" style="stroke:#E7E7E7;stroke-width:1;"/><polygon fill="#E7E7E7" points="1441.85,686.5,1435.85,682.5,1429.85,686.5,1435.85,690.5,1441.85,686.5" style="stroke:#E7E7E7;stroke-width:1;"/></g><!--link MessageConsumer to MessageHandler--><g class="link" data-entity-1="MessageConsumer" data-entity-2="MessageHandler" data-source-line="172" data-uid="lnk52" id="link_MessageConsumer_MessageHandler"><path codeLine="172" d="M1562.3165,737.2989 C1554.5565,756.9189 1551.9466,763.5405 1544.9466,781.2405" fill="none" id="MessageConsumer-MessageHandler" style="stroke:#E7E7E7;stroke-width:1;"/><polygon fill="#E7E7E7" points="1566.73,726.14,1560.8036,730.2483,1562.3165,737.2989,1568.2429,733.1906,1566.73,726.14" style="stroke:#E7E7E7;stroke-width:1;"/><polygon fill="#E7E7E7" points="1542.74,786.82,1549.7696,779.9218,1544.5788,782.1704,1542.3302,776.9797,1542.74,786.82" style="stroke:#E7E7E7;stroke-width:1;"/></g><!--link GroupHandlerServiceImpl to MessageConsumer--><g class="link" data-entity-1="GroupHandlerServiceImpl" data-entity-2="MessageConsumer" data-source-line="173" data-uid="lnk54" id="link_GroupHandlerServiceImpl_MessageConsumer"><path codeLine="173" d="M1350.8151,573.1676 C1374.2851,581.8776 1398.24,591.32 1424,603 C1453.31,616.29 1474.2844,626.7667 1501.4444,641.2067" fill="none" id="GroupHandlerServiceImpl-MessageConsumer" style="stroke:#E7E7E7;stroke-width:1;"/><polygon fill="#E7E7E7" points="1345.19,571.08,1352.236,577.9614,1349.8776,572.8196,1355.0194,570.4612,1345.19,571.08" style="stroke:#E7E7E7;stroke-width:1;"/><polygon fill="#E7E7E7" points="1512.04,646.84,1508.62,640.4915,1501.4444,641.2067,1504.8645,647.5552,1512.04,646.84" style="stroke:#E7E7E7;stroke-width:1;"/><text fill="#FFFFFF" font-family="sans-serif" font-size="13" lengthAdjust="spacing" textLength="8.271" x="1349.8292" y="590.9798">1</text></g><!--SRC=[fLRBRjim4BpxAmYVd3OsqAiW-52xZnGfKDJ-0PfQsqn5KYKfjKRGV-zQf6nH4fCeqK4Gk3FxcYMf8y-0W2ZiYGWGEz1cKb3sYnw0SBdNr5XTCbjg88-J2S6diK85qk8YyG-N5lIUCY1Vj2gBJxKvJJCbA9SElLoI0VWgvsZxfhY4RAjgSfy7Vot8pBHyHptT0wqW-woLUBklbP8Ic8NiJLxMtB0nZeQwz1sCERVzfNdy2zLYIWWgixXUAmyOiAyX1mkkcK4qptbIK_CANgtWQuXUBZEETPN7a9SoDmXg98bIl0RrY-vm9r5c2SkfyTYl2Cn1jqHvJmvdG-BihMLMPvgGUsviwj9UNippUGjvh9tElE19aDLD4XcJ89r5MIoM_MfY6EVC-UaCbKTlG5USGL1dLW_Lh2xtRfsGZTLS7cvQY0USdgxzrZTYc96VvsOSnGi_ZfHT1cOSp-2OFC-unOEu7gpGnO1IJL-T65EcWLemqm3ZMFsXyzmxKUI4umi49Z488HCCtPmZ62AtNBIr7DWTFrLfpqTLHVCIYDezOAlmgBfoN3ygl6suaftLWjhZPSbNtN6FIMmnYIR1D3Nk2sEaQQ7qKB16iNwxepFO2dxzwWP_DyzXR-VO_m-BXPowsfz0bqMDdSRKQ7URYj-5BwHt4mmT7dxlsrC1YOTjyRirKHzF5h1Ce2AOgjQHwDg4ilpGgiAV0_qui5qYko7YqwU2haqfCELGBxpBUfBLaSxWcIj99vsoWqXT_nT9-iL4y9dw8n4VneXWdnSGQVy1]--></g></svg>