<svg xmlns="http://www.w3.org/2000/svg" xmlns:xlink="http://www.w3.org/1999/xlink" contentStyleType="text/css" data-diagram-type="CLASS" height="791px" preserveAspectRatio="none" style="width:987px;height:791px;background:#FFFFFF;" version="1.1" viewBox="0 0 987 791" width="987px" zoomAndPan="magnify"><defs/><g><!--cluster shared--><g class="cluster" data-entity="shared" data-source-line="20" data-uid="ent0004" id="cluster_shared"><path d="M474.5,6 L529.668,6 A3.75,3.75 0 0 1 532.168,8.5 L539.168,28.2969 L977.5,28.2969 A2.5,2.5 0 0 1 980,30.7969 L980,228.5 A2.5,2.5 0 0 1 977.5,231 L474.5,231 A2.5,2.5 0 0 1 472,228.5 L472,8.5 A2.5,2.5 0 0 1 474.5,6" fill="none" style="stroke:#000000;stroke-width:1.5;"/><line style="stroke:#000000;stroke-width:1.5;" x1="472" x2="539.168" y1="28.2969" y2="28.2969"/><text fill="#000000" font-family="sans-serif" font-size="14" font-weight="bold" lengthAdjust="spacing" textLength="54.168" x="476" y="20.9951">shared</text></g><!--cluster kernel--><g class="cluster" data-entity="kernel" data-source-line="20" data-uid="ent0005" id="cluster_kernel"><path d="M498.5,49 L549.4707,49 A3.75,3.75 0 0 1 551.9707,51.5 L558.9707,71.2969 L953.5,71.2969 A2.5,2.5 0 0 1 956,73.7969 L956,204.5 A2.5,2.5 0 0 1 953.5,207 L498.5,207 A2.5,2.5 0 0 1 496,204.5 L496,51.5 A2.5,2.5 0 0 1 498.5,49" fill="none" style="stroke:#000000;stroke-width:1.5;"/><line style="stroke:#000000;stroke-width:1.5;" x1="496" x2="558.9707" y1="71.2969" y2="71.2969"/><text fill="#000000" font-family="sans-serif" font-size="14" font-weight="bold" lengthAdjust="spacing" textLength="49.9707" x="500" y="63.9951">kernel</text></g><!--cluster domain--><g class="cluster" data-entity="domain" data-source-line="19" data-uid="ent0002" id="cluster_domain"><path d="M522.5,92 L581.9404,92 A3.75,3.75 0 0 1 584.4404,94.5 L591.4404,114.2969 L929.5,114.2969 A2.5,2.5 0 0 1 932,116.7969 L932,180.5 A2.5,2.5 0 0 1 929.5,183 L522.5,183 A2.5,2.5 0 0 1 520,180.5 L520,94.5 A2.5,2.5 0 0 1 522.5,92" fill="none" style="stroke:#000000;stroke-width:1.5;"/><line style="stroke:#000000;stroke-width:1.5;" x1="520" x2="591.4404" y1="114.2969" y2="114.2969"/><text fill="#000000" font-family="sans-serif" font-size="14" font-weight="bold" lengthAdjust="spacing" textLength="58.4404" x="524" y="106.9951">domain</text></g><!--cluster domain--><g class="cluster" data-entity="domain" data-source-line="26" data-uid="ent0010" id="cluster_domain"><path d="M8.5,255 L67.9404,255 A3.75,3.75 0 0 1 70.4404,257.5 L77.4404,277.2969 L848.5,277.2969 A2.5,2.5 0 0 1 851,279.7969 L851,781.5 A2.5,2.5 0 0 1 848.5,784 L8.5,784 A2.5,2.5 0 0 1 6,781.5 L6,257.5 A2.5,2.5 0 0 1 8.5,255" fill="none" style="stroke:#000000;stroke-width:1.5;"/><line style="stroke:#000000;stroke-width:1.5;" x1="6" x2="77.4404" y1="277.2969" y2="277.2969"/><text fill="#000000" font-family="sans-serif" font-size="14" font-weight="bold" lengthAdjust="spacing" textLength="58.4404" x="10" y="269.9951">domain</text></g><!--cluster client--><g class="cluster" data-entity="client" data-source-line="28" data-uid="ent0011" id="cluster_client"><path d="M32.5,298 L77.5508,298 A3.75,3.75 0 0 1 80.0508,300.5 L87.0508,320.2969 L636.5,320.2969 A2.5,2.5 0 0 1 639,322.7969 L639,580 A2.5,2.5 0 0 1 636.5,582.5 L32.5,582.5 A2.5,2.5 0 0 1 30,580 L30,300.5 A2.5,2.5 0 0 1 32.5,298" fill="none" style="stroke:#000000;stroke-width:1.5;"/><line style="stroke:#000000;stroke-width:1.5;" x1="30" x2="87.0508" y1="320.2969" y2="320.2969"/><text fill="#000000" font-family="sans-serif" font-size="14" font-weight="bold" lengthAdjust="spacing" textLength="44.0508" x="34" y="312.9951">client</text></g><!--cluster group--><g class="cluster" data-entity="group" data-source-line="51" data-uid="ent0020" id="cluster_group"><path d="M474.5,628 L522.0322,628 A3.75,3.75 0 0 1 524.5322,630.5 L531.5322,650.2969 L820.5,650.2969 A2.5,2.5 0 0 1 823,652.7969 L823,757.5 A2.5,2.5 0 0 1 820.5,760 L474.5,760 A2.5,2.5 0 0 1 472,757.5 L472,630.5 A2.5,2.5 0 0 1 474.5,628" fill="none" style="stroke:#000000;stroke-width:1.5;"/><line style="stroke:#000000;stroke-width:1.5;" x1="472" x2="531.5322" y1="650.2969" y2="650.2969"/><text fill="#000000" font-family="sans-serif" font-size="14" font-weight="bold" lengthAdjust="spacing" textLength="46.5322" x="476" y="642.9951">group</text></g><!--class User--><g class="entity" data-entity="User" data-source-line="20" data-uid="ent0003" id="entity_User"><rect fill="#F1F1F1" height="40.2656" rx="2.5" ry="2.5" style="stroke:#181818;stroke-width:0.5;" width="77.6465" x="687" y="127"/><ellipse cx="702" cy="147.1328" fill="#B4A7E5" rx="11" ry="11" style="stroke:#181818;stroke-width:1;"/><path d="M697.9219,142.8984 L697.9219,140.7422 L705.3125,140.7422 L705.3125,142.8984 L702.8438,142.8984 L702.8438,150.9766 L705.3125,150.9766 L705.3125,153.1328 L697.9219,153.1328 L697.9219,150.9766 L700.3906,150.9766 L700.3906,142.8984 L697.9219,142.8984 Z " fill="#000000"/><text fill="#000000" font-family="sans-serif" font-size="12" font-style="italic" lengthAdjust="spacing" textLength="49.6465" x="714" y="143.1387">&#171;entity&#187;</text><text fill="#000000" font-family="sans-serif" font-size="14" font-style="italic" lengthAdjust="spacing" textLength="31.9102" x="722.8682" y="158.9639">User</text></g><!--class UserId--><g class="entity" data-entity="UserId" data-source-line="21" data-uid="ent0006" id="entity_UserId"><rect fill="#F1F1F1" height="40.2656" rx="2.5" ry="2.5" style="stroke:#181818;stroke-width:0.5;" width="116.3828" x="536" y="127"/><ellipse cx="551" cy="147.1328" fill="#B4A7E5" rx="11" ry="11" style="stroke:#181818;stroke-width:1;"/><path d="M546.9219,142.8984 L546.9219,140.7422 L554.3125,140.7422 L554.3125,142.8984 L551.8438,142.8984 L551.8438,150.9766 L554.3125,150.9766 L554.3125,153.1328 L546.9219,153.1328 L546.9219,150.9766 L549.3906,150.9766 L549.3906,142.8984 L546.9219,142.8984 Z " fill="#000000"/><text fill="#000000" font-family="sans-serif" font-size="12" font-style="italic" lengthAdjust="spacing" textLength="88.3828" x="563" y="143.1387">&#171;value object&#187;</text><text fill="#000000" font-family="sans-serif" font-size="14" font-style="italic" lengthAdjust="spacing" textLength="44.9258" x="584.7285" y="158.9639">UserId</text></g><!--class GroupId--><g class="entity" data-entity="GroupId" data-source-line="22" data-uid="ent0007" id="entity_GroupId"><rect fill="#F1F1F1" height="40.2656" rx="2.5" ry="2.5" style="stroke:#181818;stroke-width:0.5;" width="116.3828" x="800" y="127"/><ellipse cx="815" cy="147.1328" fill="#B4A7E5" rx="11" ry="11" style="stroke:#181818;stroke-width:1;"/><path d="M810.9219,142.8984 L810.9219,140.7422 L818.3125,140.7422 L818.3125,142.8984 L815.8438,142.8984 L815.8438,150.9766 L818.3125,150.9766 L818.3125,153.1328 L810.9219,153.1328 L810.9219,150.9766 L813.3906,150.9766 L813.3906,142.8984 L810.9219,142.8984 Z " fill="#000000"/><text fill="#000000" font-family="sans-serif" font-size="12" font-style="italic" lengthAdjust="spacing" textLength="88.3828" x="827" y="143.1387">&#171;value object&#187;</text><text fill="#000000" font-family="sans-serif" font-size="14" font-style="italic" lengthAdjust="spacing" textLength="55.9453" x="843.2188" y="158.9639">GroupId</text></g><!--class ClientMessage--><g class="entity" data-entity="ClientMessage" data-source-line="63" data-uid="ent0024" id="entity_ClientMessage"><rect fill="#F1F1F1" height="113.4531" rx="2.5" ry="2.5" style="stroke:#181818;stroke-width:0.5;" width="178.8379" x="655.5" y="490"/><ellipse cx="690.7267" cy="510.1328" fill="#B4A7E5" rx="11" ry="11" style="stroke:#181818;stroke-width:1;"/><path d="M686.6486,505.8984 L686.6486,503.7422 L694.0392,503.7422 L694.0392,505.8984 L691.5705,505.8984 L691.5705,513.9766 L694.0392,513.9766 L694.0392,516.1328 L686.6486,516.1328 L686.6486,513.9766 L689.1173,513.9766 L689.1173,505.8984 L686.6486,505.8984 Z " fill="#000000"/><text fill="#000000" font-family="sans-serif" font-size="12" font-style="italic" lengthAdjust="spacing" textLength="49.6465" x="735.3431" y="506.1387">&#171;entity&#187;</text><text fill="#000000" font-family="sans-serif" font-size="14" font-style="italic" lengthAdjust="spacing" textLength="101.8896" x="709.2215" y="521.9639">ClientMessage</text><line style="stroke:#181818;stroke-width:0.5;" x1="656.5" x2="833.3379" y1="530.2656" y2="530.2656"/><ellipse cx="666.5" cy="543.9141" fill="none" rx="3" ry="3" style="stroke:#038048;stroke-width:1;"/><text fill="#000000" font-family="sans-serif" font-size="14" lengthAdjust="spacing" textLength="95.6006" x="675.5" y="547.2607">from: ClientId</text><ellipse cx="666.5" cy="560.2109" fill="none" rx="3" ry="3" style="stroke:#038048;stroke-width:1;"/><text fill="#000000" font-family="sans-serif" font-size="14" lengthAdjust="spacing" textLength="79.167" x="675.5" y="563.5576">to: GroupId</text><ellipse cx="666.5" cy="576.5078" fill="none" rx="3" ry="3" style="stroke:#038048;stroke-width:1;"/><text fill="#000000" font-family="sans-serif" font-size="14" lengthAdjust="spacing" textLength="104.5488" x="675.5" y="579.8545">content: String</text><ellipse cx="666.5" cy="592.8047" fill="none" rx="3" ry="3" style="stroke:#038048;stroke-width:1;"/><text fill="#000000" font-family="sans-serif" font-size="14" lengthAdjust="spacing" textLength="152.8379" x="675.5" y="596.1514">timestamp: DateTime</text></g><!--class ClientID--><g class="entity" data-entity="ClientID" data-source-line="30" data-uid="ent0012" id="entity_ClientID"><rect fill="#F1F1F1" height="64.5625" rx="2.5" ry="2.5" style="stroke:#181818;stroke-width:0.5;" width="116.3828" x="507" y="349"/><ellipse cx="522" cy="369.1328" fill="#B4A7E5" rx="11" ry="11" style="stroke:#181818;stroke-width:1;"/><path d="M517.9219,364.8984 L517.9219,362.7422 L525.3125,362.7422 L525.3125,364.8984 L522.8438,364.8984 L522.8438,372.9766 L525.3125,372.9766 L525.3125,375.1328 L517.9219,375.1328 L517.9219,372.9766 L520.3906,372.9766 L520.3906,364.8984 L517.9219,364.8984 Z " fill="#000000"/><text fill="#000000" font-family="sans-serif" font-size="12" font-style="italic" lengthAdjust="spacing" textLength="88.3828" x="534" y="365.1387">&#171;value object&#187;</text><text fill="#000000" font-family="sans-serif" font-size="14" font-style="italic" lengthAdjust="spacing" textLength="55.4395" x="550.4717" y="380.9639">ClientID</text><line style="stroke:#181818;stroke-width:0.5;" x1="508" x2="622.3828" y1="389.2656" y2="389.2656"/><ellipse cx="518" cy="402.9141" fill="none" rx="3" ry="3" style="stroke:#038048;stroke-width:1;"/><text fill="#000000" font-family="sans-serif" font-size="14" lengthAdjust="spacing" textLength="89.1885" x="527" y="406.2607">value: String</text></g><!--class OutputReference--><g class="entity" data-entity="OutputReference" data-source-line="34" data-uid="ent0013" id="entity_OutputReference"><rect fill="#F1F1F1" height="40.2656" rx="2.5" ry="2.5" style="stroke:#181818;stroke-width:0.5;" width="152.0664" x="259" y="526.5"/><ellipse cx="274" cy="546.6328" fill="#B4A7E5" rx="11" ry="11" style="stroke:#181818;stroke-width:1;"/><path d="M269.9219,542.3984 L269.9219,540.2422 L277.3125,540.2422 L277.3125,542.3984 L274.8438,542.3984 L274.8438,550.4766 L277.3125,550.4766 L277.3125,552.6328 L269.9219,552.6328 L269.9219,550.4766 L272.3906,550.4766 L272.3906,542.3984 L269.9219,542.3984 Z " fill="#000000"/><text fill="#000000" font-family="sans-serif" font-size="12" font-style="italic" lengthAdjust="spacing" textLength="88.3828" x="303.8418" y="542.6387">&#171;value object&#187;</text><text fill="#000000" font-family="sans-serif" font-size="14" font-style="italic" lengthAdjust="spacing" textLength="120.0664" x="288" y="558.4639">OutputReference</text></g><!--class ClientStatus--><g class="entity" data-entity="ClientStatus" data-source-line="35" data-uid="ent0014" id="entity_ClientStatus"><rect fill="#F1F1F1" height="72.5938" rx="2.5" ry="2.5" style="stroke:#181818;stroke-width:0.5;" width="117.1416" x="46.5" y="345"/><ellipse cx="61.5" cy="361" fill="#EB937F" rx="11" ry="11" style="stroke:#181818;stroke-width:1;"/><path d="M65.6094,367 L57.8906,367 L57.8906,354.6094 L65.6094,354.6094 L65.6094,356.7656 L60.3438,356.7656 L60.3438,359.4375 L65.1094,359.4375 L65.1094,361.5938 L60.3438,361.5938 L60.3438,364.8438 L65.6094,364.8438 L65.6094,367 Z " fill="#000000"/><text fill="#000000" font-family="sans-serif" font-size="14" lengthAdjust="spacing" textLength="85.1416" x="75.5" y="365.8467">ClientStatus</text><line style="stroke:#181818;stroke-width:0.5;" x1="47.5" x2="162.6416" y1="377" y2="377"/><text fill="#000000" font-family="sans-serif" font-size="14" lengthAdjust="spacing" textLength="52.7393" x="52.5" y="393.9951">ONLINE</text><text fill="#000000" font-family="sans-serif" font-size="14" lengthAdjust="spacing" textLength="58.3721" x="52.5" y="410.292">OFFLINE</text></g><!--class Client--><g class="entity" data-entity="Client" data-source-line="40" data-uid="ent0015" id="entity_Client"><rect fill="#F1F1F1" height="97.1563" rx="2.5" ry="2.5" style="stroke:#181818;stroke-width:0.5;" width="272.8457" x="198.5" y="333"/><ellipse cx="307.8496" cy="353.1328" fill="#B4A7E5" rx="11" ry="11" style="stroke:#181818;stroke-width:1;"/><path d="M303.7715,348.8984 L303.7715,346.7422 L311.1621,346.7422 L311.1621,348.8984 L308.6934,348.8984 L308.6934,356.9766 L311.1621,356.9766 L311.1621,359.1328 L303.7715,359.1328 L303.7715,356.9766 L306.2402,356.9766 L306.2402,348.8984 L303.7715,348.8984 Z " fill="#000000"/><text fill="#000000" font-family="sans-serif" font-size="12" font-style="italic" lengthAdjust="spacing" textLength="49.6465" x="326.3496" y="349.1387">&#171;entity&#187;</text><text fill="#000000" font-family="sans-serif" font-size="14" font-style="italic" lengthAdjust="spacing" textLength="40.5303" x="330.9077" y="364.9639">Client</text><line style="stroke:#181818;stroke-width:0.5;" x1="199.5" x2="470.3457" y1="373.2656" y2="373.2656"/><ellipse cx="209.5" cy="386.9141" fill="none" rx="3" ry="3" style="stroke:#038048;stroke-width:1;"/><text fill="#000000" font-family="sans-serif" font-size="14" lengthAdjust="spacing" textLength="77.3828" x="218.5" y="390.2607">id: ClientID</text><ellipse cx="209.5" cy="403.2109" fill="none" rx="3" ry="3" style="stroke:#038048;stroke-width:1;"/><text fill="#000000" font-family="sans-serif" font-size="14" lengthAdjust="spacing" textLength="137.3271" x="218.5" y="406.5576">status: ClientStatus</text><ellipse cx="209.5" cy="419.5078" fill="none" rx="3" ry="3" style="stroke:#038048;stroke-width:1;"/><text fill="#000000" font-family="sans-serif" font-size="14" lengthAdjust="spacing" textLength="246.8457" x="218.5" y="422.8545">outputReference: OutputReference</text></g><!--class Group--><g class="entity" data-entity="Group" data-source-line="53" data-uid="ent0021" id="entity_Group"><rect fill="#F1F1F1" height="80.8594" rx="2.5" ry="2.5" style="stroke:#181818;stroke-width:0.5;" width="169.377" x="487.5" y="663"/><ellipse cx="545.1152" cy="683.1328" fill="#B4A7E5" rx="11" ry="11" style="stroke:#181818;stroke-width:1;"/><path d="M541.0371,678.8984 L541.0371,676.7422 L548.4277,676.7422 L548.4277,678.8984 L545.959,678.8984 L545.959,686.9766 L548.4277,686.9766 L548.4277,689.1328 L541.0371,689.1328 L541.0371,686.9766 L543.5059,686.9766 L543.5059,678.8984 L541.0371,678.8984 Z " fill="#000000"/><text fill="#000000" font-family="sans-serif" font-size="12" font-style="italic" lengthAdjust="spacing" textLength="49.6465" x="563.6152" y="679.1387">&#171;entity&#187;</text><text fill="#000000" font-family="sans-serif" font-size="14" font-style="italic" lengthAdjust="spacing" textLength="42.9297" x="566.9736" y="694.9639">Group</text><line style="stroke:#181818;stroke-width:0.5;" x1="488.5" x2="655.877" y1="703.2656" y2="703.2656"/><ellipse cx="498.5" cy="716.9141" fill="none" rx="3" ry="3" style="stroke:#038048;stroke-width:1;"/><text fill="#000000" font-family="sans-serif" font-size="14" lengthAdjust="spacing" textLength="77.8887" x="507.5" y="720.2607">id: GroupId</text><ellipse cx="498.5" cy="733.2109" fill="none" rx="3" ry="3" style="stroke:#038048;stroke-width:1;"/><text fill="#000000" font-family="sans-serif" font-size="14" lengthAdjust="spacing" textLength="143.377" x="507.5" y="736.5576">clients: List&lt;Client&gt;</text></g><!--class GroupID--><g class="entity" data-entity="GroupID" data-source-line="58" data-uid="ent0022" id="entity_GroupID"><rect fill="#F1F1F1" height="40.2656" rx="2.5" ry="2.5" style="stroke:#181818;stroke-width:0.5;" width="116.3828" x="691" y="683.5"/><ellipse cx="706" cy="703.6328" fill="#B4A7E5" rx="11" ry="11" style="stroke:#181818;stroke-width:1;"/><path d="M701.9219,699.3984 L701.9219,697.2422 L709.3125,697.2422 L709.3125,699.3984 L706.8438,699.3984 L706.8438,707.4766 L709.3125,707.4766 L709.3125,709.6328 L701.9219,709.6328 L701.9219,707.4766 L704.3906,707.4766 L704.3906,699.3984 L701.9219,699.3984 Z " fill="#000000"/><text fill="#000000" font-family="sans-serif" font-size="12" font-style="italic" lengthAdjust="spacing" textLength="88.3828" x="718" y="699.6387">&#171;value object&#187;</text><text fill="#000000" font-family="sans-serif" font-size="14" font-style="italic" lengthAdjust="spacing" textLength="57.8389" x="733.272" y="715.4639">GroupID</text></g><!--link UserId to User--><g class="link" data-entity-1="UserId" data-entity-2="User" data-source-line="23" data-uid="lnk9" id="link_UserId_User"><path codeLine="23" d="M658.01,147 C669.67,147 663.32,147 674.98,147" fill="none" id="UserId-User" style="stroke:#181818;stroke-width:1;"/><polygon fill="#181818" points="652.01,147,661.01,151,657.01,147,661.01,143,652.01,147" style="stroke:#181818;stroke-width:1;"/><polygon fill="#181818" points="686.98,147,680.98,143,674.98,147,680.98,151,686.98,147" style="stroke:#181818;stroke-width:1;"/><text fill="#000000" font-family="sans-serif" font-size="13" lengthAdjust="spacing" textLength="8.271" x="660.3351" y="143.0502">1</text></g><!--link Client to ClientID--><g class="link" data-entity-1="Client" data-entity-2="ClientID" data-source-line="46" data-uid="lnk16" id="link_Client_ClientID"><path codeLine="46" d="M483.56,381.5 C495.36,381.5 489.17,381.5 500.97,381.5" fill="none" id="Client-ClientID" style="stroke:#181818;stroke-width:1;"/><polygon fill="#181818" points="471.56,381.5,477.56,385.5,483.56,381.5,477.56,377.5,471.56,381.5" style="stroke:#181818;stroke-width:1;"/><polygon fill="#181818" points="506.97,381.5,497.97,377.5,501.97,381.5,497.97,385.5,506.97,381.5" style="stroke:#181818;stroke-width:1;"/><text fill="#000000" font-family="sans-serif" font-size="13" lengthAdjust="spacing" textLength="8.271" x="490.6272" y="377.5974">1</text></g><!--link Client to OutputReference--><g class="link" data-entity-1="Client" data-entity-2="OutputReference" data-source-line="47" data-uid="lnk17" id="link_Client_OutputReference"><path codeLine="47" d="M335,442.08 C335,474.22 335,496.92 335,520.41" fill="none" id="Client-OutputReference" style="stroke:#181818;stroke-width:1;"/><polygon fill="#181818" points="335,430.08,331,436.08,335,442.08,339,436.08,335,430.08" style="stroke:#181818;stroke-width:1;"/><polygon fill="#181818" points="335,526.41,339,517.41,335,521.41,331,517.41,335,526.41" style="stroke:#181818;stroke-width:1;"/><text fill="#000000" font-family="sans-serif" font-size="13" lengthAdjust="spacing" textLength="8.271" x="325.855" y="515.3528">1</text></g><!--link ClientStatus to Client--><g class="link" data-entity-1="ClientStatus" data-entity-2="Client" data-source-line="48" data-uid="lnk19" id="link_ClientStatus_Client"><path codeLine="48" d="M169.85,381.5 C181.32,381.5 174.8,381.5 186.28,381.5" fill="none" id="ClientStatus-Client" style="stroke:#181818;stroke-width:1;"/><polygon fill="#181818" points="163.85,381.5,172.85,385.5,168.85,381.5,172.85,377.5,163.85,381.5" style="stroke:#181818;stroke-width:1;"/><polygon fill="#181818" points="198.28,381.5,192.28,377.5,186.28,381.5,192.28,385.5,198.28,381.5" style="stroke:#181818;stroke-width:1;"/><text fill="#000000" font-family="sans-serif" font-size="13" lengthAdjust="spacing" textLength="8.271" x="171.5177" y="377.6857">1</text></g><!--link Group to GroupID--><g class="link" data-entity-1="Group" data-entity-2="GroupID" data-source-line="59" data-uid="lnk23" id="link_Group_GroupID"><path codeLine="59" d="M668.7,703.5 C680.11,703.5 673.53,703.5 684.95,703.5" fill="none" id="Group-GroupID" style="stroke:#181818;stroke-width:1;"/><polygon fill="#181818" points="656.7,703.5,662.7,707.5,668.7,703.5,662.7,699.5,656.7,703.5" style="stroke:#181818;stroke-width:1;"/><polygon fill="#181818" points="690.95,703.5,681.95,699.5,685.95,703.5,681.95,707.5,690.95,703.5" style="stroke:#181818;stroke-width:1;"/><text fill="#000000" font-family="sans-serif" font-size="13" lengthAdjust="spacing" textLength="8.271" x="674.6045" y="699.5502">1</text></g><!--link ClientID to ClientMessage--><g class="link" data-entity-1="ClientID" data-entity-2="ClientMessage" data-source-line="70" data-uid="lnk26" id="link_ClientID_ClientMessage"><path codeLine="70" d="M604.5773,418.3376 C628.3173,439.8376 646.9454,456.7048 674.8154,481.9448" fill="none" id="ClientID-ClientMessage" style="stroke:#181818;stroke-width:1;"/><polygon fill="#181818" points="600.13,414.31,604.1158,423.3163,603.8361,417.6664,609.486,417.3866,600.13,414.31" style="stroke:#181818;stroke-width:1;"/><polygon fill="#181818" points="683.71,490,681.9478,483.0075,674.8154,481.9448,676.5776,488.9372,683.71,490" style="stroke:#181818;stroke-width:1;"/><text fill="#000000" font-family="sans-serif" font-size="13" lengthAdjust="spacing" textLength="8.271" x="597.6651" y="433.6079">1</text></g><!--link ClientMessage to GroupID--><g class="link" data-entity-1="ClientMessage" data-entity-2="GroupID" data-source-line="71" data-uid="lnk27" id="link_ClientMessage_GroupID"><path codeLine="71" d="M746.7411,615.016 C747.4711,643.166 747.8338,657.532 748.3538,677.502" fill="none" id="ClientMessage-GroupID" style="stroke:#181818;stroke-width:1;"/><polygon fill="#181818" points="746.43,603.02,742.5869,609.1217,746.7411,615.016,750.5842,608.9143,746.43,603.02" style="stroke:#181818;stroke-width:1;"/><polygon fill="#181818" points="748.51,683.5,752.2744,674.3989,748.3798,678.5017,744.2771,674.6072,748.51,683.5" style="stroke:#181818;stroke-width:1;"/><text fill="#000000" font-family="sans-serif" font-size="13" lengthAdjust="spacing" textLength="8.271" x="739.1746" y="672.4693">1</text></g><!--link UserId to ClientID--><g class="link" data-entity-1="UserId" data-entity-2="ClientID" data-source-line="73" data-uid="lnk29" id="link_UserId_ClientID"><path codeLine="73" d="M591.63,167.03 C586.65,206.94 575.07,299.76 568.95,348.81" fill="none" id="UserId-ClientID" style="stroke:#181818;stroke-width:1;stroke-dasharray:7.0,7.0;"/></g><!--link GroupId to GroupID--><g class="link" data-entity-1="GroupId" data-entity-2="GroupID" data-source-line="74" data-uid="lnk31" id="link_GroupId_GroupID"><path codeLine="74" d="M862.69,167.27 C877.45,232.1 918.17,446.99 851,603 C836.23,637.31 803.39,665.76 778.95,683.33" fill="none" id="GroupId-GroupID" style="stroke:#181818;stroke-width:1;stroke-dasharray:7.0,7.0;"/></g><!--SRC=[XLJHReCW57ttAyWUssYoLzFuigvBawvDrkq3g5ujgu01tD8i_lie8X6b6myct7kud7FlaJCf005jr1LHe2SGCcfmVi4L87d60eha0e91dHISOiBGJuJq8ao1A74Ew4E2GAiLC4NKDSi2sMsXyr-uRW7nqoVaQePw4Rnjxi7C1OkuXbB56NfuVB15eovoJ1qtSsA8vZNHj8QeV-MJoMtNipkjm64jaKcdwAW4OPNBTQ6YXrOrhNg34WGmlG_gkIrWBRKKZWghLavkFUnts_sp7zfil5XtNzLe73Crf4YTzabA6YQfnsi2uRx0TAeunCvoMiI2LETXX3CA3bNmRsP1zuexxCWJCzATxuNgPh6m5Opx_kkPjUWaqpjCzsn7f5hr7BA_HzGNMj_tHa_7RvSzv31ZXTFfluAKDyL1GKjK2awT1OfHGl6vIgsGw_9CpVolyOI2jWnjKhJ62jxrTapB9xE8syPgwV_Lf6zTuXbXUcRa1NlAZ34PjyDymZLHeh73Q-5QEyH3hrioRa3K_G80]--></g></svg>