<svg xmlns="http://www.w3.org/2000/svg" xmlns:xlink="http://www.w3.org/1999/xlink" contentStyleType="text/css" data-diagram-type="SEQUENCE" height="1287px" preserveAspectRatio="none" style="width:1614px;height:1287px;background:#1B1B1B;" version="1.1" viewBox="0 0 1614 1287" width="1614px" zoomAndPan="magnify"><defs/><g><rect fill="#1B1B1B" height="1287" style="stroke:none;stroke-width:1;" width="1614" x="0" y="0"/><g><title>WebSocket Server</title><rect fill="#FFFFFF" height="111.5313" style="stroke:#E7E7E7;stroke-width:1;" width="10" x="586.5249" y="506.9531"/></g><g><title>WebSocket Server</title><rect fill="#FFFFFF" height="415.0625" style="stroke:#E7E7E7;stroke-width:1;" width="10" x="586.5249" y="812.9531"/></g><g><title>WebSocket Server</title><rect fill="#FFFFFF" height="211.5313" style="stroke:#E7E7E7;stroke-width:1;" width="10" x="591.5249" y="1016.4844"/></g><g><title>External Event Port</title><rect fill="#FFFFFF" height="1164.7188" style="stroke:#E7E7E7;stroke-width:1;" width="10" x="738.8516" y="63.2969"/></g><g><title>External Event Port</title><rect fill="#FFFFFF" height="59.1328" style="stroke:#E7E7E7;stroke-width:1;" width="10" x="743.8516" y="127.5625"/></g><g><title>External Event Port</title><rect fill="#FFFFFF" height="910.7578" style="stroke:#E7E7E7;stroke-width:1;" width="10" x="743.8516" y="317.2578"/></g><g><title>Group Handler</title><rect fill="#FFFFFF" height="1164.7188" style="stroke:#E7E7E7;stroke-width:1;" width="10" x="945.6909" y="63.2969"/></g><g><title>Group Handler</title><rect fill="#FFFFFF" height="59.1328" style="stroke:#E7E7E7;stroke-width:1;" width="10" x="950.6909" y="156.6953"/></g><g><title>Group Actor</title><rect fill="#FFFFFF" height="1002.1875" style="stroke:#E7E7E7;stroke-width:1;" width="10" x="1191.8423" y="225.8281"/></g><g><title>Group Actor</title><rect fill="#FFFFFF" height="30" style="stroke:#E7E7E7;stroke-width:1;" width="10" x="1196.8423" y="346.3906"/></g><g><title>Group Actor</title><rect fill="#FFFFFF" height="53.2656" style="stroke:#E7E7E7;stroke-width:1;" width="10" x="1196.8423" y="536.0859"/></g><g><title>Group Actor</title><rect fill="#FFFFFF" height="34.1328" style="stroke:#E7E7E7;stroke-width:1;" width="10" x="1196.8423" y="670.4219"/></g><g><title>Group Actor</title><rect fill="#FFFFFF" height="30" style="stroke:#E7E7E7;stroke-width:1;" width="10" x="1196.8423" y="842.0859"/></g><g><title>Group Actor</title><rect fill="#FFFFFF" height="28" style="stroke:#E7E7E7;stroke-width:1;" width="10" x="1196.8423" y="909.2188"/></g><g><title>Group Actor</title><rect fill="#FFFFFF" height="182.3984" style="stroke:#E7E7E7;stroke-width:1;" width="10" x="1196.8423" y="1045.6172"/></g><g><title>Group Actor</title><rect fill="#FFFFFF" height="64.1328" style="stroke:#E7E7E7;stroke-width:1;" width="10" x="1201.8423" y="1082.75"/></g><g><title>Group Actor</title><rect fill="#FFFFFF" height="28" style="stroke:#E7E7E7;stroke-width:1;" width="10" x="1201.8423" y="1184.0156"/></g><g><title>Client Actor</title><rect fill="#FFFFFF" height="731.3594" style="stroke:#E7E7E7;stroke-width:1;" width="10" x="1553.5537" y="415.5234"/></g><g><title>Client Actor</title><rect fill="#FFFFFF" height="30" style="stroke:#E7E7E7;stroke-width:1;" width="10" x="1558.5537" y="1116.8828"/></g><rect fill="none" height="190.6016" style="stroke:#FFFFFF;stroke-width:1.5;" width="1353.8008" x="137.2119" y="551.0859"/><g><title>Message Broker</title><rect fill="#000000" fill-opacity="0.00000" height="1183.7188" width="8" x="67.106" y="53.2969"/><line style="stroke:#E7E7E7;stroke-width:0.5;stroke-dasharray:5,5;" x1="71" x2="71" y1="53.2969" y2="1237.0156"/></g><g><title>Client</title><rect fill="#000000" fill-opacity="0.00000" height="1183.7188" width="8" x="170.4771" y="53.2969"/><line style="stroke:#E7E7E7;stroke-width:0.5;stroke-dasharray:5,5;" x1="174.2119" x2="174.2119" y1="53.2969" y2="1237.0156"/></g><g><title>WebSocket Server</title><rect fill="#000000" fill-opacity="0.00000" height="1183.7188" width="8" x="587.5249" y="53.2969"/><line style="stroke:#E7E7E7;stroke-width:0.5;stroke-dasharray:5,5;" x1="590.9937" x2="590.9937" y1="53.2969" y2="1237.0156"/></g><g><title>External Event Port</title><rect fill="#000000" fill-opacity="0.00000" height="1183.7188" width="8" x="739.8516" y="53.2969"/><line style="stroke:#E7E7E7;stroke-width:0.5;stroke-dasharray:5,5;" x1="743.0562" x2="743.0562" y1="53.2969" y2="1237.0156"/></g><g><title>Group Handler</title><rect fill="#000000" fill-opacity="0.00000" height="1183.7188" width="8" x="946.6909" y="53.2969"/><line style="stroke:#E7E7E7;stroke-width:0.5;stroke-dasharray:5,5;" x1="950.4385" x2="950.4385" y1="53.2969" y2="1237.0156"/></g><g><title>Group Actor</title><rect fill="#000000" fill-opacity="0.00000" height="1003.1719" width="8" x="1192.8423" y="233.8438"/><line style="stroke:#E7E7E7;stroke-width:0.5;stroke-dasharray:5,5;" x1="1196.6099" x2="1196.6099" y1="233.8438" y2="1237.0156"/></g><g><title>Client Actor</title><rect fill="#000000" fill-opacity="0.00000" height="813.4766" width="8" x="1554.5537" y="423.5391"/><line style="stroke:#E7E7E7;stroke-width:0.5;stroke-dasharray:5,5;" x1="1558.521" x2="1558.521" y1="423.5391" y2="1237.0156"/></g><g class="participant participant-head" data-participant="MB"><path d="M10,27 L132.2119,27 C137.2119,27 137.2119,40.1484 137.2119,40.1484 C137.2119,40.1484 137.2119,53.2969 132.2119,53.2969 L10,53.2969 C5,53.2969 5,40.1484 5,40.1484 C5,40.1484 5,27 10,27" fill="#222222" style="stroke:#E7E7E7;stroke-width:0.5;"/><path d="M132.2119,27 C127.2119,27 127.2119,40.1484 127.2119,40.1484 C127.2119,53.2969 132.2119,53.2969 132.2119,53.2969" fill="none" style="stroke:#E7E7E7;stroke-width:0.5;"/><text fill="#FFFFFF" font-family="sans-serif" font-size="14" lengthAdjust="spacing" textLength="112.2119" x="10" y="44.9951">Message Broker</text></g><g class="participant participant-tail" data-participant="MB"><path d="M10,1236.0156 L132.2119,1236.0156 C137.2119,1236.0156 137.2119,1249.1641 137.2119,1249.1641 C137.2119,1249.1641 137.2119,1262.3125 132.2119,1262.3125 L10,1262.3125 C5,1262.3125 5,1249.1641 5,1249.1641 C5,1249.1641 5,1236.0156 10,1236.0156" fill="#222222" style="stroke:#E7E7E7;stroke-width:0.5;"/><path d="M132.2119,1236.0156 C127.2119,1236.0156 127.2119,1249.1641 127.2119,1249.1641 C127.2119,1262.3125 132.2119,1262.3125 132.2119,1262.3125" fill="none" style="stroke:#E7E7E7;stroke-width:0.5;"/><text fill="#FFFFFF" font-family="sans-serif" font-size="14" lengthAdjust="spacing" textLength="112.2119" x="10" y="1254.0107">Message Broker</text></g><g class="participant participant-head" data-participant="C"><rect fill="#222222" height="30.2969" rx="2.5" ry="2.5" style="stroke:#E7E7E7;stroke-width:0.5;" width="54.5303" x="147.2119" y="22"/><text fill="#FFFFFF" font-family="sans-serif" font-size="14" lengthAdjust="spacing" textLength="40.5303" x="154.2119" y="41.9951">Client</text></g><g class="participant participant-tail" data-participant="C"><rect fill="#222222" height="30.2969" rx="2.5" ry="2.5" style="stroke:#E7E7E7;stroke-width:0.5;" width="54.5303" x="147.2119" y="1236.0156"/><text fill="#FFFFFF" font-family="sans-serif" font-size="14" lengthAdjust="spacing" textLength="40.5303" x="154.2119" y="1256.0107">Client</text></g><g class="participant participant-head" data-participant="WS"><rect fill="#222222" height="30.2969" rx="2.5" ry="2.5" style="stroke:#E7E7E7;stroke-width:0.5;" width="143.0625" x="519.9937" y="22"/><text fill="#FFFFFF" font-family="sans-serif" font-size="14" lengthAdjust="spacing" textLength="129.0625" x="526.9937" y="41.9951">WebSocket Server</text></g><g class="participant participant-tail" data-participant="WS"><rect fill="#222222" height="30.2969" rx="2.5" ry="2.5" style="stroke:#E7E7E7;stroke-width:0.5;" width="143.0625" x="519.9937" y="1236.0156"/><text fill="#FFFFFF" font-family="sans-serif" font-size="14" lengthAdjust="spacing" textLength="129.0625" x="526.9937" y="1256.0107">WebSocket Server</text></g><g class="participant participant-head" data-participant="EP"><text fill="#FFFFFF" font-family="sans-serif" font-size="14" lengthAdjust="spacing" textLength="135.5908" x="673.0562" y="49.9951">External Event Port</text><path d="M723.3516,9 L723.3516,33 M723.3516,21 L740.3516,21" fill="none" style="stroke:#E7E7E7;stroke-width:0.5;"/><ellipse cx="752.3516" cy="21" fill="#222222" rx="12" ry="12" style="stroke:#E7E7E7;stroke-width:0.5;"/></g><g class="participant participant-tail" data-participant="EP"><text fill="#FFFFFF" font-family="sans-serif" font-size="14" lengthAdjust="spacing" textLength="135.5908" x="673.0562" y="1249.0107">External Event Port</text><path d="M723.3516,1256.3125 L723.3516,1280.3125 M723.3516,1268.3125 L740.3516,1268.3125" fill="none" style="stroke:#E7E7E7;stroke-width:0.5;"/><ellipse cx="752.3516" cy="1268.3125" fill="#222222" rx="12" ry="12" style="stroke:#E7E7E7;stroke-width:0.5;"/></g><g class="participant participant-head" data-participant="GH"><text fill="#FFFFFF" font-family="sans-serif" font-size="14" lengthAdjust="spacing" textLength="102.5049" x="896.4385" y="49.9951">Group Handler</text><ellipse cx="950.6909" cy="21" fill="#222222" rx="12" ry="12" style="stroke:#E7E7E7;stroke-width:0.5;"/><polygon fill="#E7E7E7" points="946.6909,9,952.6909,4,950.6909,9,952.6909,14,946.6909,9" style="stroke:#E7E7E7;stroke-width:1;"/></g><g class="participant participant-tail" data-participant="GH"><text fill="#FFFFFF" font-family="sans-serif" font-size="14" lengthAdjust="spacing" textLength="102.5049" x="896.4385" y="1249.0107">Group Handler</text><ellipse cx="950.6909" cy="1268.3125" fill="#222222" rx="12" ry="12" style="stroke:#E7E7E7;stroke-width:0.5;"/><polygon fill="#E7E7E7" points="946.6909,1256.3125,952.6909,1251.3125,950.6909,1256.3125,952.6909,1261.3125,946.6909,1256.3125" style="stroke:#E7E7E7;stroke-width:1;"/></g><g class="participant participant-tail" data-participant="GA"><text fill="#FFFFFF" font-family="sans-serif" font-size="14" lengthAdjust="spacing" textLength="84.4648" x="1151.6099" y="1249.0107">Group Actor</text><ellipse cx="1196.8423" cy="1268.3125" fill="#222222" rx="12" ry="12" style="stroke:#E7E7E7;stroke-width:0.5;"/><polygon fill="#E7E7E7" points="1192.8423,1256.3125,1198.8423,1251.3125,1196.8423,1256.3125,1198.8423,1261.3125,1192.8423,1256.3125" style="stroke:#E7E7E7;stroke-width:1;"/></g><g class="participant participant-tail" data-participant="CA"><text fill="#FFFFFF" font-family="sans-serif" font-size="14" lengthAdjust="spacing" textLength="82.0654" x="1514.521" y="1249.0107">Client Actor</text><ellipse cx="1558.5537" cy="1268.3125" fill="#222222" rx="12" ry="12" style="stroke:#E7E7E7;stroke-width:0.5;"/><polygon fill="#E7E7E7" points="1554.5537,1256.3125,1560.5537,1251.3125,1558.5537,1256.3125,1560.5537,1261.3125,1554.5537,1256.3125" style="stroke:#E7E7E7;stroke-width:1;"/></g><g><title>WebSocket Server</title><rect fill="#FFFFFF" height="111.5313" style="stroke:#E7E7E7;stroke-width:1;" width="10" x="586.5249" y="506.9531"/></g><g><title>WebSocket Server</title><rect fill="#FFFFFF" height="415.0625" style="stroke:#E7E7E7;stroke-width:1;" width="10" x="586.5249" y="812.9531"/></g><g><title>WebSocket Server</title><rect fill="#FFFFFF" height="211.5313" style="stroke:#E7E7E7;stroke-width:1;" width="10" x="591.5249" y="1016.4844"/></g><g><title>External Event Port</title><rect fill="#FFFFFF" height="1164.7188" style="stroke:#E7E7E7;stroke-width:1;" width="10" x="738.8516" y="63.2969"/></g><g><title>External Event Port</title><rect fill="#FFFFFF" height="59.1328" style="stroke:#E7E7E7;stroke-width:1;" width="10" x="743.8516" y="127.5625"/></g><g><title>External Event Port</title><rect fill="#FFFFFF" height="910.7578" style="stroke:#E7E7E7;stroke-width:1;" width="10" x="743.8516" y="317.2578"/></g><g><title>Group Handler</title><rect fill="#FFFFFF" height="1164.7188" style="stroke:#E7E7E7;stroke-width:1;" width="10" x="945.6909" y="63.2969"/></g><g><title>Group Handler</title><rect fill="#FFFFFF" height="59.1328" style="stroke:#E7E7E7;stroke-width:1;" width="10" x="950.6909" y="156.6953"/></g><g><title>Group Actor</title><rect fill="#FFFFFF" height="1002.1875" style="stroke:#E7E7E7;stroke-width:1;" width="10" x="1191.8423" y="225.8281"/></g><g><title>Group Actor</title><rect fill="#FFFFFF" height="30" style="stroke:#E7E7E7;stroke-width:1;" width="10" x="1196.8423" y="346.3906"/></g><g><title>Group Actor</title><rect fill="#FFFFFF" height="53.2656" style="stroke:#E7E7E7;stroke-width:1;" width="10" x="1196.8423" y="536.0859"/></g><g><title>Group Actor</title><rect fill="#FFFFFF" height="34.1328" style="stroke:#E7E7E7;stroke-width:1;" width="10" x="1196.8423" y="670.4219"/></g><g><title>Group Actor</title><rect fill="#FFFFFF" height="30" style="stroke:#E7E7E7;stroke-width:1;" width="10" x="1196.8423" y="842.0859"/></g><g><title>Group Actor</title><rect fill="#FFFFFF" height="28" style="stroke:#E7E7E7;stroke-width:1;" width="10" x="1196.8423" y="909.2188"/></g><g><title>Group Actor</title><rect fill="#FFFFFF" height="182.3984" style="stroke:#E7E7E7;stroke-width:1;" width="10" x="1196.8423" y="1045.6172"/></g><g><title>Group Actor</title><rect fill="#FFFFFF" height="64.1328" style="stroke:#E7E7E7;stroke-width:1;" width="10" x="1201.8423" y="1082.75"/></g><g><title>Group Actor</title><rect fill="#FFFFFF" height="28" style="stroke:#E7E7E7;stroke-width:1;" width="10" x="1201.8423" y="1184.0156"/></g><g><title>Client Actor</title><rect fill="#FFFFFF" height="731.3594" style="stroke:#E7E7E7;stroke-width:1;" width="10" x="1553.5537" y="415.5234"/></g><g><title>Client Actor</title><rect fill="#FFFFFF" height="30" style="stroke:#E7E7E7;stroke-width:1;" width="10" x="1558.5537" y="1116.8828"/></g><rect fill="#111111" height="3" style="stroke:#111111;stroke-width:1;" width="1607.5864" x="0" y="83.8633"/><line style="stroke:#FFFFFF;stroke-width:1;" x1="0" x2="1607.5864" y1="83.8633" y2="83.8633"/><line style="stroke:#FFFFFF;stroke-width:1;" x1="0" x2="1607.5864" y1="86.8633" y2="86.8633"/><rect fill="#111111" height="23.1328" style="stroke:#FFFFFF;stroke-width:2;" width="130.0225" x="738.782" y="73.2969"/><text fill="#FFFFFF" font-family="sans-serif" font-size="13" font-weight="bold" lengthAdjust="spacing" textLength="111.4966" x="744.782" y="89.3638">Group Creation</text><g class="message" data-participant-1="MB" data-participant-2="EP"><polygon fill="#E7E7E7" points="731.8516,123.5625,741.8516,127.5625,731.8516,131.5625,735.8516,127.5625" style="stroke:#E7E7E7;stroke-width:1;"/><line style="stroke:#E7E7E7;stroke-width:1;" x1="71.106" x2="737.8516" y1="127.5625" y2="127.5625"/><text fill="#FFFFFF" font-family="sans-serif" font-size="13" font-weight="bold" lengthAdjust="spacing" textLength="37.0132" x="78.106" y="122.4966">1.0.0</text><text fill="#FFFFFF" font-family="sans-serif" font-size="13" lengthAdjust="spacing" textLength="110.2017" x="119.1191" y="122.4966">new group event</text></g><g class="message" data-participant-1="EP" data-participant-2="GH"><polygon fill="#E7E7E7" points="938.6909,152.6953,948.6909,156.6953,938.6909,160.6953,942.6909,156.6953" style="stroke:#E7E7E7;stroke-width:1;"/><line style="stroke:#E7E7E7;stroke-width:1;" x1="753.8516" x2="944.6909" y1="156.6953" y2="156.6953"/><text fill="#FFFFFF" font-family="sans-serif" font-size="13" font-weight="bold" lengthAdjust="spacing" textLength="37.0132" x="760.8516" y="151.6294">1.0.1</text><text fill="#FFFFFF" font-family="sans-serif" font-size="13" lengthAdjust="spacing" textLength="126.8262" x="801.8647" y="151.6294">create a new group</text></g><g class="message" data-participant-1="GH" data-participant-2="GA"><polygon fill="#E7E7E7" points="1139.6099,211.8281,1149.6099,215.8281,1139.6099,219.8281,1143.6099,215.8281" style="stroke:#E7E7E7;stroke-width:1;"/><line style="stroke:#E7E7E7;stroke-width:1;" x1="955.6909" x2="1145.6099" y1="215.8281" y2="215.8281"/><text fill="#FFFFFF" font-family="sans-serif" font-size="13" font-weight="bold" lengthAdjust="spacing" textLength="37.0132" x="962.6909" y="210.7622">1.0.2</text><text fill="#FFFFFF" font-family="sans-serif" font-size="13" lengthAdjust="spacing" textLength="125.9058" x="1003.7041" y="210.7622">spawn group entity</text></g><text fill="#FFFFFF" font-family="sans-serif" font-size="14" lengthAdjust="spacing" textLength="84.4648" x="1151.6099" y="239.6904">Group Actor</text><ellipse cx="1196.8423" cy="210.6953" fill="#222222" rx="12" ry="12" style="stroke:#E7E7E7;stroke-width:0.5;"/><polygon fill="#E7E7E7" points="1192.8423,198.6953,1198.8423,193.6953,1196.8423,198.6953,1198.8423,203.6953,1192.8423,198.6953" style="stroke:#E7E7E7;stroke-width:1;"/><rect fill="#111111" height="3" style="stroke:#111111;stroke-width:1;" width="1607.5864" x="0" y="273.5586"/><line style="stroke:#FFFFFF;stroke-width:1;" x1="0" x2="1607.5864" y1="273.5586" y2="273.5586"/><line style="stroke:#FFFFFF;stroke-width:1;" x1="0" x2="1607.5864" y1="276.5586" y2="276.5586"/><rect fill="#111111" height="23.1328" style="stroke:#FFFFFF;stroke-width:2;" width="167.7021" x="719.9421" y="262.9922"/><text fill="#FFFFFF" font-family="sans-serif" font-size="13" font-weight="bold" lengthAdjust="spacing" textLength="149.1763" x="725.9421" y="279.0591">New user join Group</text><g class="message" data-participant-1="MB" data-participant-2="EP"><polygon fill="#E7E7E7" points="731.8516,313.2578,741.8516,317.2578,731.8516,321.2578,735.8516,317.2578" style="stroke:#E7E7E7;stroke-width:1;"/><line style="stroke:#E7E7E7;stroke-width:1;" x1="71.106" x2="737.8516" y1="317.2578" y2="317.2578"/><text fill="#FFFFFF" font-family="sans-serif" font-size="13" font-weight="bold" lengthAdjust="spacing" textLength="37.0132" x="78.106" y="312.1919">1.1.1</text><text fill="#FFFFFF" font-family="sans-serif" font-size="13" lengthAdjust="spacing" textLength="139.2358" x="119.1191" y="312.1919">user join group event</text></g><g class="message" data-participant-1="EP" data-participant-2="GA"><polygon fill="#E7E7E7" points="1184.8423,342.3906,1194.8423,346.3906,1184.8423,350.3906,1188.8423,346.3906" style="stroke:#E7E7E7;stroke-width:1;"/><line style="stroke:#E7E7E7;stroke-width:1;" x1="753.8516" x2="1190.8423" y1="346.3906" y2="346.3906"/><text fill="#FFFFFF" font-family="sans-serif" font-size="13" font-weight="bold" lengthAdjust="spacing" textLength="37.0132" x="760.8516" y="341.3247">1.1.2</text><text fill="#FFFFFF" font-family="sans-serif" font-size="13" lengthAdjust="spacing" textLength="204.8706" x="801.8647" y="341.3247">send user info to specific group</text></g><g class="message" data-participant-1="GA" data-participant-2="CA"><polygon fill="#E7E7E7" points="1502.521,401.5234,1512.521,405.5234,1502.521,409.5234,1506.521,405.5234" style="stroke:#E7E7E7;stroke-width:1;"/><line style="stroke:#E7E7E7;stroke-width:1;" x1="1201.8423" x2="1508.521" y1="405.5234" y2="405.5234"/><text fill="#FFFFFF" font-family="sans-serif" font-size="13" font-weight="bold" lengthAdjust="spacing" textLength="37.0132" x="1208.8423" y="400.4575">1.1.3</text><text fill="#FFFFFF" font-family="sans-serif" font-size="13" lengthAdjust="spacing" textLength="116.2192" x="1249.8555" y="400.4575">spawn user entity</text></g><text fill="#FFFFFF" font-family="sans-serif" font-size="14" lengthAdjust="spacing" textLength="82.0654" x="1514.521" y="429.3857">Client Actor</text><ellipse cx="1558.5537" cy="400.3906" fill="#222222" rx="12" ry="12" style="stroke:#E7E7E7;stroke-width:0.5;"/><polygon fill="#E7E7E7" points="1554.5537,388.3906,1560.5537,383.3906,1558.5537,388.3906,1560.5537,393.3906,1554.5537,388.3906" style="stroke:#E7E7E7;stroke-width:1;"/><rect fill="#111111" height="3" style="stroke:#111111;stroke-width:1;" width="1607.5864" x="0" y="463.2539"/><line style="stroke:#FFFFFF;stroke-width:1;" x1="0" x2="1607.5864" y1="463.2539" y2="463.2539"/><line style="stroke:#FFFFFF;stroke-width:1;" x1="0" x2="1607.5864" y1="466.2539" y2="466.2539"/><rect fill="#111111" height="23.1328" style="stroke:#FFFFFF;stroke-width:2;" width="245.9941" x="680.7961" y="452.6875"/><text fill="#FFFFFF" font-family="sans-serif" font-size="13" font-weight="bold" lengthAdjust="spacing" textLength="227.4683" x="686.7961" y="468.7544">Client connection to the server</text><g class="message" data-participant-1="C" data-participant-2="WS"><polygon fill="#E7E7E7" points="574.5249,502.9531,584.5249,506.9531,574.5249,510.9531,578.5249,506.9531" style="stroke:#E7E7E7;stroke-width:1;"/><line style="stroke:#E7E7E7;stroke-width:1;" x1="174.4771" x2="580.5249" y1="506.9531" y2="506.9531"/><text fill="#FFFFFF" font-family="sans-serif" font-size="13" font-weight="bold" lengthAdjust="spacing" textLength="37.0132" x="181.4771" y="501.8872">2.1.1</text><text fill="#FFFFFF" font-family="sans-serif" font-size="13" lengthAdjust="spacing" textLength="51.8223" x="222.4902" y="501.8872">connect</text></g><g class="message" data-participant-1="WS" data-participant-2="GA"><polygon fill="#E7E7E7" points="1184.8423,532.0859,1194.8423,536.0859,1184.8423,540.0859,1188.8423,536.0859" style="stroke:#E7E7E7;stroke-width:1;"/><line style="stroke:#E7E7E7;stroke-width:1;" x1="596.5249" x2="1190.8423" y1="536.0859" y2="536.0859"/><text fill="#FFFFFF" font-family="sans-serif" font-size="13" font-weight="bold" lengthAdjust="spacing" textLength="37.0132" x="603.5249" y="531.02">2.1.2</text><text fill="#FFFFFF" font-family="sans-serif" font-size="13" lengthAdjust="spacing" textLength="181.1812" x="644.5381" y="531.02">ask for user actor reference</text></g><path d="M137.2119,551.0859 L201.6548,551.0859 L201.6548,558.2188 L191.6548,568.2188 L137.2119,568.2188 L137.2119,551.0859" fill="#555555" style="stroke:#FFFFFF;stroke-width:1.5;"/><rect fill="none" height="190.6016" style="stroke:#FFFFFF;stroke-width:1.5;" width="1353.8008" x="137.2119" y="551.0859"/><text fill="#FFFFFF" font-family="sans-serif" font-size="13" font-weight="bold" lengthAdjust="spacing" textLength="19.4429" x="152.2119" y="564.1528">alt</text><text fill="#FFFFFF" font-family="sans-serif" font-size="11" font-weight="bold" lengthAdjust="spacing" textLength="101.5029" x="216.6548" y="563.2964">[user not found]</text><g class="message" data-participant-1="GA" data-participant-2="WS"><polygon fill="#E7E7E7" points="607.5249,585.3516,597.5249,589.3516,607.5249,593.3516,603.5249,589.3516" style="stroke:#E7E7E7;stroke-width:1;"/><line style="stroke:#E7E7E7;stroke-width:1;stroke-dasharray:2,2;" x1="601.5249" x2="1190.8423" y1="589.3516" y2="589.3516"/><text fill="#FFFFFF" font-family="sans-serif" font-size="13" font-weight="bold" lengthAdjust="spacing" textLength="37.0132" x="613.5249" y="584.2856">2.1.3</text><text fill="#FFFFFF" font-family="sans-serif" font-size="13" lengthAdjust="spacing" textLength="76.3813" x="654.5381" y="584.2856">return error</text></g><g class="message" data-participant-1="WS" data-participant-2="C"><polygon fill="#E7E7E7" points="185.4771,614.4844,175.4771,618.4844,185.4771,622.4844,181.4771,618.4844" style="stroke:#E7E7E7;stroke-width:1;"/><line style="stroke:#E7E7E7;stroke-width:1;stroke-dasharray:2,2;" x1="179.4771" x2="590.5249" y1="618.4844" y2="618.4844"/><text fill="#FFFFFF" font-family="sans-serif" font-size="13" font-weight="bold" lengthAdjust="spacing" textLength="37.0132" x="191.4771" y="613.4185">2.1.4</text><text fill="#FFFFFF" font-family="sans-serif" font-size="13" lengthAdjust="spacing" textLength="76.3813" x="232.4902" y="613.4185">return error</text></g><line style="stroke:#FFFFFF;stroke-width:1;stroke-dasharray:2,2;" x1="137.2119" x2="1491.0127" y1="627.4844" y2="627.4844"/><text fill="#FFFFFF" font-family="sans-serif" font-size="11" font-weight="bold" lengthAdjust="spacing" textLength="77.0269" x="142.2119" y="637.6948">[user found]</text><g class="message" data-participant-1="GA" data-participant-2="GA"><line style="stroke:#E7E7E7;stroke-width:1;" x1="1201.8423" x2="1248.8423" y1="657.4219" y2="657.4219"/><line style="stroke:#E7E7E7;stroke-width:1;" x1="1248.8423" x2="1248.8423" y1="657.4219" y2="670.4219"/><line style="stroke:#E7E7E7;stroke-width:1;" x1="1207.8423" x2="1248.8423" y1="670.4219" y2="670.4219"/><polygon fill="#E7E7E7" points="1217.8423,666.4219,1207.8423,670.4219,1217.8423,674.4219,1213.8423,670.4219" style="stroke:#E7E7E7;stroke-width:1;"/><text fill="#FFFFFF" font-family="sans-serif" font-size="13" font-weight="bold" lengthAdjust="spacing" textLength="37.0132" x="1213.8423" y="652.356">2.1.5</text><text fill="#FFFFFF" font-family="sans-serif" font-size="13" lengthAdjust="spacing" textLength="214.1572" x="1254.8555" y="652.356">broadcast user connection event</text></g><g class="message" data-participant-1="GA" data-participant-2="WS"><polygon fill="#E7E7E7" points="602.5249,700.5547,592.5249,704.5547,602.5249,708.5547,598.5249,704.5547" style="stroke:#E7E7E7;stroke-width:1;"/><line style="stroke:#E7E7E7;stroke-width:1;stroke-dasharray:2,2;" x1="596.5249" x2="1190.8423" y1="704.5547" y2="704.5547"/><text fill="#FFFFFF" font-family="sans-serif" font-size="13" font-weight="bold" lengthAdjust="spacing" textLength="37.0132" x="608.5249" y="699.4888">2.1.6</text><text fill="#FFFFFF" font-family="sans-serif" font-size="13" lengthAdjust="spacing" textLength="177.1694" x="649.5381" y="699.4888">return user actor reference</text></g><g class="message" data-participant-1="WS" data-participant-2="C"><polygon fill="#E7E7E7" points="185.4771,729.6875,175.4771,733.6875,185.4771,737.6875,181.4771,733.6875" style="stroke:#E7E7E7;stroke-width:1;"/><line style="stroke:#E7E7E7;stroke-width:1;stroke-dasharray:2,2;" x1="179.4771" x2="590.5249" y1="733.6875" y2="733.6875"/><text fill="#FFFFFF" font-family="sans-serif" font-size="13" font-weight="bold" lengthAdjust="spacing" textLength="37.0132" x="191.4771" y="728.6216">2.1.7</text><text fill="#FFFFFF" font-family="sans-serif" font-size="13" lengthAdjust="spacing" textLength="352.0347" x="232.4902" y="728.6216">return the URL used by client to connect to the server</text></g><rect fill="#111111" height="3" style="stroke:#111111;stroke-width:1;" width="1607.5864" x="0" y="769.2539"/><line style="stroke:#FFFFFF;stroke-width:1;" x1="0" x2="1607.5864" y1="769.2539" y2="769.2539"/><line style="stroke:#FFFFFF;stroke-width:1;" x1="0" x2="1607.5864" y1="772.2539" y2="772.2539"/><rect fill="#111111" height="23.1328" style="stroke:#FFFFFF;stroke-width:2;" width="191.3218" x="708.1323" y="758.6875"/><text fill="#FFFFFF" font-family="sans-serif" font-size="13" font-weight="bold" lengthAdjust="spacing" textLength="172.7959" x="714.1323" y="774.7544">Send Message to group</text><g class="message" data-participant-1="C" data-participant-2="WS"><polygon fill="#E7E7E7" points="574.5249,808.9531,584.5249,812.9531,574.5249,816.9531,578.5249,812.9531" style="stroke:#E7E7E7;stroke-width:1;"/><line style="stroke:#E7E7E7;stroke-width:1;" x1="174.4771" x2="580.5249" y1="812.9531" y2="812.9531"/><text fill="#FFFFFF" font-family="sans-serif" font-size="13" font-weight="bold" lengthAdjust="spacing" textLength="37.0132" x="181.4771" y="807.8872">3.1.1</text><text fill="#FFFFFF" font-family="sans-serif" font-size="13" lengthAdjust="spacing" textLength="153.1753" x="222.4902" y="807.8872">send message to group</text></g><g class="message" data-participant-1="WS" data-participant-2="GA"><polygon fill="#E7E7E7" points="1184.8423,838.0859,1194.8423,842.0859,1184.8423,846.0859,1188.8423,842.0859" style="stroke:#E7E7E7;stroke-width:1;"/><line style="stroke:#E7E7E7;stroke-width:1;" x1="596.5249" x2="1190.8423" y1="842.0859" y2="842.0859"/><text fill="#FFFFFF" font-family="sans-serif" font-size="13" font-weight="bold" lengthAdjust="spacing" textLength="37.0132" x="603.5249" y="837.02">3.1.2</text><text fill="#FFFFFF" font-family="sans-serif" font-size="13" lengthAdjust="spacing" textLength="93.8184" x="644.5381" y="837.02">send message</text></g><g class="message" data-participant-1="GA" data-participant-2="GA"><line style="stroke:#E7E7E7;stroke-width:1;" x1="1206.8423" x2="1248.8423" y1="901.2188" y2="901.2188"/><line style="stroke:#E7E7E7;stroke-width:1;" x1="1248.8423" x2="1248.8423" y1="901.2188" y2="914.2188"/><line style="stroke:#E7E7E7;stroke-width:1;" x1="1207.8423" x2="1248.8423" y1="914.2188" y2="914.2188"/><polygon fill="#E7E7E7" points="1217.8423,910.2188,1207.8423,914.2188,1217.8423,918.2188,1213.8423,914.2188" style="stroke:#E7E7E7;stroke-width:1;"/><text fill="#FFFFFF" font-family="sans-serif" font-size="13" font-weight="bold" lengthAdjust="spacing" textLength="37.0132" x="1213.8423" y="896.1528">3.1.3</text><text fill="#FFFFFF" font-family="sans-serif" font-size="13" lengthAdjust="spacing" textLength="286.6982" x="1254.8555" y="896.1528">broadcast message to all users in the group</text></g><rect fill="#111111" height="3" style="stroke:#111111;stroke-width:1;" width="1607.5864" x="0" y="972.7852"/><line style="stroke:#FFFFFF;stroke-width:1;" x1="0" x2="1607.5864" y1="972.7852" y2="972.7852"/><line style="stroke:#FFFFFF;stroke-width:1;" x1="0" x2="1607.5864" y1="975.7852" y2="975.7852"/><rect fill="#111111" height="23.1328" style="stroke:#FFFFFF;stroke-width:2;" width="143.6445" x="731.9709" y="962.2188"/><text fill="#FFFFFF" font-family="sans-serif" font-size="13" font-weight="bold" lengthAdjust="spacing" textLength="125.1187" x="737.9709" y="978.2856">User leave group</text><g class="message" data-participant-1="C" data-participant-2="WS"><polygon fill="#E7E7E7" points="579.5249,1012.4844,589.5249,1016.4844,579.5249,1020.4844,583.5249,1016.4844" style="stroke:#E7E7E7;stroke-width:1;"/><line style="stroke:#E7E7E7;stroke-width:1;" x1="174.4771" x2="585.5249" y1="1016.4844" y2="1016.4844"/><text fill="#FFFFFF" font-family="sans-serif" font-size="13" font-weight="bold" lengthAdjust="spacing" textLength="37.0132" x="181.4771" y="1011.4185">4.1.1</text><text fill="#FFFFFF" font-family="sans-serif" font-size="13" lengthAdjust="spacing" textLength="70.459" x="222.4902" y="1011.4185">disconnect</text></g><g class="message" data-participant-1="WS" data-participant-2="GA"><polygon fill="#E7E7E7" points="1184.8423,1041.6172,1194.8423,1045.6172,1184.8423,1049.6172,1188.8423,1045.6172" style="stroke:#E7E7E7;stroke-width:1;"/><line style="stroke:#E7E7E7;stroke-width:1;" x1="601.5249" x2="1190.8423" y1="1045.6172" y2="1045.6172"/><text fill="#FFFFFF" font-family="sans-serif" font-size="13" font-weight="bold" lengthAdjust="spacing" textLength="37.0132" x="608.5249" y="1040.5513">4.1.2</text><text fill="#FFFFFF" font-family="sans-serif" font-size="13" lengthAdjust="spacing" textLength="166.8164" x="649.5381" y="1040.5513">send disconnection event</text></g><g class="message" data-participant-1="GA" data-participant-2="GA"><line style="stroke:#E7E7E7;stroke-width:1;" x1="1206.8423" x2="1253.8423" y1="1069.75" y2="1069.75"/><line style="stroke:#E7E7E7;stroke-width:1;" x1="1253.8423" x2="1253.8423" y1="1069.75" y2="1082.75"/><line style="stroke:#E7E7E7;stroke-width:1;" x1="1212.8423" x2="1253.8423" y1="1082.75" y2="1082.75"/><polygon fill="#E7E7E7" points="1222.8423,1078.75,1212.8423,1082.75,1222.8423,1086.75,1218.8423,1082.75" style="stroke:#E7E7E7;stroke-width:1;"/><text fill="#FFFFFF" font-family="sans-serif" font-size="13" font-weight="bold" lengthAdjust="spacing" textLength="37.0132" x="1218.8423" y="1064.6841">4.1.3</text><text fill="#FFFFFF" font-family="sans-serif" font-size="13" lengthAdjust="spacing" textLength="184.4502" x="1259.8555" y="1064.6841">remove user from the group</text></g><g class="message" data-participant-1="GA" data-participant-2="CA"><polygon fill="#E7E7E7" points="1546.5537,1112.8828,1556.5537,1116.8828,1546.5537,1120.8828,1550.5537,1116.8828" style="stroke:#E7E7E7;stroke-width:1;"/><line style="stroke:#E7E7E7;stroke-width:1;" x1="1211.8423" x2="1552.5537" y1="1116.8828" y2="1116.8828"/><text fill="#FFFFFF" font-family="sans-serif" font-size="13" font-weight="bold" lengthAdjust="spacing" textLength="37.0132" x="1218.8423" y="1111.8169">4.1.4</text><text fill="#FFFFFF" font-family="sans-serif" font-size="13" lengthAdjust="spacing" textLength="123.4683" x="1259.8555" y="1111.8169">destroy user entity</text></g><line style="stroke:#A80036;stroke-width:2;" x1="1549.5537" x2="1567.5537" y1="1137.8828" y2="1155.8828"/><line style="stroke:#A80036;stroke-width:2;" x1="1549.5537" x2="1567.5537" y1="1155.8828" y2="1137.8828"/><g class="message" data-participant-1="GA" data-participant-2="GA"><line style="stroke:#E7E7E7;stroke-width:1;" x1="1211.8423" x2="1253.8423" y1="1176.0156" y2="1176.0156"/><line style="stroke:#E7E7E7;stroke-width:1;" x1="1253.8423" x2="1253.8423" y1="1176.0156" y2="1189.0156"/><line style="stroke:#E7E7E7;stroke-width:1;" x1="1212.8423" x2="1253.8423" y1="1189.0156" y2="1189.0156"/><polygon fill="#E7E7E7" points="1222.8423,1185.0156,1212.8423,1189.0156,1222.8423,1193.0156,1218.8423,1189.0156" style="stroke:#E7E7E7;stroke-width:1;"/><text fill="#FFFFFF" font-family="sans-serif" font-size="13" font-weight="bold" lengthAdjust="spacing" textLength="37.0132" x="1218.8423" y="1170.9497">4.1.5</text><text fill="#FFFFFF" font-family="sans-serif" font-size="13" lengthAdjust="spacing" textLength="232.7939" x="1259.8555" y="1170.9497">broadcast user disconnection event</text></g><!--SRC=[ZPH1Zzem48Nl_XKZZYjrjRqYKIb420wbGerMd8qpK9TWqx73bd_ViPri73QLbXFYpRpvycQ2RBqrxUM015-VNvvVXEGVfFBw9Zs2DKByQR55c6tHENb2M98z8yr0EjWknLMIrqfVfV4mAnkDnaUf72jxF5HMdT53XNJhslULEDZMr9BkC5lzzKX6Dh2wiGViB2MZrKueQppP1cPhikqLDjBKJMUntZogXVAsquf1IsIPM1P2l3ybkxn_vtbYiO1aLX9Ahws1nK9ib_3b6yjpCFW6fwXZO1MhNL3McpceK8yWXn9HOswztiJI0fwUvk2kyitqJiPhVy-GYhoJ0GFK3tPj7M_gjzMcGsGoEQnG6mNB37MedW0k605DdOgqELhmbg5GwQDM7_4PYS6viSpnO_CZVKYNURlKUGi6LSoH1_XVo6F34Kom5w8C4_RLlEyI-wg7bUuCHqjff0oh1C8Z4Xg5GZO-2SPwhkAp4i2VGDmP4lgM322HfQW5v_0u3n8s3fFLs2P17CZAMadNJSkUBMKxFNGIUP8XnFFwytlegE5m1vKovE2wKUCC1IymPbs5JVRlA9US_dCTMS9n-PU7bYplN9yyX74UcPDiclZ8ZaT6sAbZ2jIl8PS6vGq_0rnhz_4g8kMW39iO60alzjRlbEmbG-elcitHyN_5VNJG6N0PNiXKKHQVI2FQJ66DMly1]--></g></svg>