<svg xmlns="http://www.w3.org/2000/svg" xmlns:xlink="http://www.w3.org/1999/xlink" contentStyleType="text/css" data-diagram-type="CLASS" height="858px" preserveAspectRatio="none" style="width:966px;height:858px;background:#1B1B1B;" version="1.1" viewBox="0 0 966 858" width="966px" zoomAndPan="magnify"><defs/><g><rect fill="#1B1B1B" height="858" style="stroke:none;stroke-width:1;" width="966" x="0" y="0"/><!--cluster shared--><g class="cluster" data-entity="shared" data-source-line="20" data-uid="ent0004" id="cluster_shared"><path d="M306.5,6 L361.668,6 A3.75,3.75 0 0 1 364.168,8.5 L371.168,28.2969 L956.5,28.2969 A2.5,2.5 0 0 1 959,30.7969 L959,295.5 A2.5,2.5 0 0 1 956.5,298 L306.5,298 A2.5,2.5 0 0 1 304,295.5 L304,8.5 A2.5,2.5 0 0 1 306.5,6" fill="none" style="stroke:#FFFFFF;stroke-width:1.5;"/><line style="stroke:#FFFFFF;stroke-width:1.5;" x1="304" x2="371.168" y1="28.2969" y2="28.2969"/><text fill="#FFFFFF" font-family="sans-serif" font-size="14" font-weight="bold" lengthAdjust="spacing" textLength="54.168" x="308" y="20.9951">shared</text></g><!--cluster kernel--><g class="cluster" data-entity="kernel" data-source-line="20" data-uid="ent0005" id="cluster_kernel"><path d="M330.5,49 L381.4707,49 A3.75,3.75 0 0 1 383.9707,51.5 L390.9707,71.2969 L932.5,71.2969 A2.5,2.5 0 0 1 935,73.7969 L935,271.5 A2.5,2.5 0 0 1 932.5,274 L330.5,274 A2.5,2.5 0 0 1 328,271.5 L328,51.5 A2.5,2.5 0 0 1 330.5,49" fill="none" style="stroke:#FFFFFF;stroke-width:1.5;"/><line style="stroke:#FFFFFF;stroke-width:1.5;" x1="328" x2="390.9707" y1="71.2969" y2="71.2969"/><text fill="#FFFFFF" font-family="sans-serif" font-size="14" font-weight="bold" lengthAdjust="spacing" textLength="49.9707" x="332" y="63.9951">kernel</text></g><!--cluster domain--><g class="cluster" data-entity="domain" data-source-line="20" data-uid="ent0006" id="cluster_domain"><path d="M354.5,92 L413.9404,92 A3.75,3.75 0 0 1 416.4404,94.5 L423.4404,114.2969 L908.5,114.2969 A2.5,2.5 0 0 1 911,116.7969 L911,247.5 A2.5,2.5 0 0 1 908.5,250 L354.5,250 A2.5,2.5 0 0 1 352,247.5 L352,94.5 A2.5,2.5 0 0 1 354.5,92" fill="none" style="stroke:#FFFFFF;stroke-width:1.5;"/><line style="stroke:#FFFFFF;stroke-width:1.5;" x1="352" x2="423.4404" y1="114.2969" y2="114.2969"/><text fill="#FFFFFF" font-family="sans-serif" font-size="14" font-weight="bold" lengthAdjust="spacing" textLength="58.4404" x="356" y="106.9951">domain</text></g><!--cluster entities--><g class="cluster" data-entity="entities" data-source-line="19" data-uid="ent0002" id="cluster_entities"><path d="M378.5,135 L439.7725,135 A3.75,3.75 0 0 1 442.2725,137.5 L449.2725,157.2969 L785.5,157.2969 A2.5,2.5 0 0 1 788,159.7969 L788,223.5 A2.5,2.5 0 0 1 785.5,226 L378.5,226 A2.5,2.5 0 0 1 376,223.5 L376,137.5 A2.5,2.5 0 0 1 378.5,135" fill="none" style="stroke:#FFFFFF;stroke-width:1.5;"/><line style="stroke:#FFFFFF;stroke-width:1.5;" x1="376" x2="449.2725" y1="157.2969" y2="157.2969"/><text fill="#FFFFFF" font-family="sans-serif" font-size="14" font-weight="bold" lengthAdjust="spacing" textLength="60.2725" x="380" y="149.9951">entities</text></g><!--cluster domain--><g class="cluster" data-entity="domain" data-source-line="26" data-uid="ent0011" id="cluster_domain"><path d="M8.5,322 L67.9404,322 A3.75,3.75 0 0 1 70.4404,324.5 L77.4404,344.2969 L848.5,344.2969 A2.5,2.5 0 0 1 851,346.7969 L851,848.5 A2.5,2.5 0 0 1 848.5,851 L8.5,851 A2.5,2.5 0 0 1 6,848.5 L6,324.5 A2.5,2.5 0 0 1 8.5,322" fill="none" style="stroke:#FFFFFF;stroke-width:1.5;"/><line style="stroke:#FFFFFF;stroke-width:1.5;" x1="6" x2="77.4404" y1="344.2969" y2="344.2969"/><text fill="#FFFFFF" font-family="sans-serif" font-size="14" font-weight="bold" lengthAdjust="spacing" textLength="58.4404" x="10" y="336.9951">domain</text></g><!--cluster client--><g class="cluster" data-entity="client" data-source-line="28" data-uid="ent0012" id="cluster_client"><path d="M32.5,365 L77.5508,365 A3.75,3.75 0 0 1 80.0508,367.5 L87.0508,387.2969 L636.5,387.2969 A2.5,2.5 0 0 1 639,389.7969 L639,647 A2.5,2.5 0 0 1 636.5,649.5 L32.5,649.5 A2.5,2.5 0 0 1 30,647 L30,367.5 A2.5,2.5 0 0 1 32.5,365" fill="none" style="stroke:#FFFFFF;stroke-width:1.5;"/><line style="stroke:#FFFFFF;stroke-width:1.5;" x1="30" x2="87.0508" y1="387.2969" y2="387.2969"/><text fill="#FFFFFF" font-family="sans-serif" font-size="14" font-weight="bold" lengthAdjust="spacing" textLength="44.0508" x="34" y="379.9951">client</text></g><!--cluster group--><g class="cluster" data-entity="group" data-source-line="51" data-uid="ent0021" id="cluster_group"><path d="M474.5,695 L522.0322,695 A3.75,3.75 0 0 1 524.5322,697.5 L531.5322,717.2969 L820.5,717.2969 A2.5,2.5 0 0 1 823,719.7969 L823,824.5 A2.5,2.5 0 0 1 820.5,827 L474.5,827 A2.5,2.5 0 0 1 472,824.5 L472,697.5 A2.5,2.5 0 0 1 474.5,695" fill="none" style="stroke:#FFFFFF;stroke-width:1.5;"/><line style="stroke:#FFFFFF;stroke-width:1.5;" x1="472" x2="531.5322" y1="717.2969" y2="717.2969"/><text fill="#FFFFFF" font-family="sans-serif" font-size="14" font-weight="bold" lengthAdjust="spacing" textLength="46.5322" x="476" y="709.9951">group</text></g><!--class GroupId--><g class="entity" data-entity="GroupId" data-source-line="74" data-uid="ent0031" id="entity_GroupId"><rect fill="#313139" height="32" rx="2.5" ry="2.5" style="stroke:#E7E7E7;stroke-width:0.5;" width="87.9453" x="807" y="174"/><ellipse cx="822" cy="190" fill="#2E5233" rx="11" ry="11" style="stroke:#E7E7E7;stroke-width:1;"/><path d="M824.9688,195.6406 Q824.3906,195.9375 823.75,196.0781 Q823.1094,196.2344 822.4063,196.2344 Q819.9063,196.2344 818.5781,194.5938 Q817.2656,192.9375 817.2656,189.8125 Q817.2656,186.6875 818.5781,185.0313 Q819.9063,183.375 822.4063,183.375 Q823.1094,183.375 823.75,183.5313 Q824.4063,183.6875 824.9688,183.9844 L824.9688,186.7031 Q824.3438,186.125 823.75,185.8594 Q823.1563,185.5781 822.5313,185.5781 Q821.1875,185.5781 820.5,186.6563 Q819.8125,187.7188 819.8125,189.8125 Q819.8125,191.9063 820.5,192.9844 Q821.1875,194.0469 822.5313,194.0469 Q823.1563,194.0469 823.75,193.7813 Q824.3438,193.5 824.9688,192.9219 L824.9688,195.6406 Z " fill="#FFFFFF"/><text fill="#FFFFFF" font-family="sans-serif" font-size="14" lengthAdjust="spacing" textLength="55.9453" x="836" y="194.8467">GroupId</text></g><!--class User--><g class="entity" data-entity="User" data-source-line="20" data-uid="ent0003" id="entity_User"><rect fill="#313139" height="40.2656" rx="2.5" ry="2.5" style="stroke:#E7E7E7;stroke-width:0.5;" width="77.6465" x="694" y="170"/><ellipse cx="709" cy="190.1328" fill="#352866" rx="11" ry="11" style="stroke:#E7E7E7;stroke-width:1;"/><path d="M704.9219,185.8984 L704.9219,183.7422 L712.3125,183.7422 L712.3125,185.8984 L709.8438,185.8984 L709.8438,193.9766 L712.3125,193.9766 L712.3125,196.1328 L704.9219,196.1328 L704.9219,193.9766 L707.3906,193.9766 L707.3906,185.8984 L704.9219,185.8984 Z " fill="#FFFFFF"/><text fill="#000000" font-family="sans-serif" font-size="12" font-style="italic" lengthAdjust="spacing" textLength="49.6465" x="721" y="186.1387">&#171;entity&#187;</text><text fill="#FFFFFF" font-family="sans-serif" font-size="14" font-style="italic" lengthAdjust="spacing" textLength="31.9102" x="729.8682" y="201.9639">User</text></g><!--class UserId--><g class="entity" data-entity="UserId" data-source-line="21" data-uid="ent0007" id="entity_UserId"><rect fill="#313139" height="40.2656" rx="2.5" ry="2.5" style="stroke:#E7E7E7;stroke-width:0.5;" width="116.3828" x="543" y="170"/><ellipse cx="558" cy="190.1328" fill="#352866" rx="11" ry="11" style="stroke:#E7E7E7;stroke-width:1;"/><path d="M553.9219,185.8984 L553.9219,183.7422 L561.3125,183.7422 L561.3125,185.8984 L558.8438,185.8984 L558.8438,193.9766 L561.3125,193.9766 L561.3125,196.1328 L553.9219,196.1328 L553.9219,193.9766 L556.3906,193.9766 L556.3906,185.8984 L553.9219,185.8984 Z " fill="#FFFFFF"/><text fill="#000000" font-family="sans-serif" font-size="12" font-style="italic" lengthAdjust="spacing" textLength="88.3828" x="570" y="186.1387">&#171;value object&#187;</text><text fill="#FFFFFF" font-family="sans-serif" font-size="14" font-style="italic" lengthAdjust="spacing" textLength="44.9258" x="591.7285" y="201.9639">UserId</text></g><!--class GroupId--><g class="entity" data-entity="GroupId" data-source-line="22" data-uid="ent0008" id="entity_GroupId"><rect fill="#313139" height="40.2656" rx="2.5" ry="2.5" style="stroke:#E7E7E7;stroke-width:0.5;" width="116.3828" x="392" y="170"/><ellipse cx="407" cy="190.1328" fill="#352866" rx="11" ry="11" style="stroke:#E7E7E7;stroke-width:1;"/><path d="M402.9219,185.8984 L402.9219,183.7422 L410.3125,183.7422 L410.3125,185.8984 L407.8438,185.8984 L407.8438,193.9766 L410.3125,193.9766 L410.3125,196.1328 L402.9219,196.1328 L402.9219,193.9766 L405.3906,193.9766 L405.3906,185.8984 L402.9219,185.8984 Z " fill="#FFFFFF"/><text fill="#000000" font-family="sans-serif" font-size="12" font-style="italic" lengthAdjust="spacing" textLength="88.3828" x="419" y="186.1387">&#171;value object&#187;</text><text fill="#FFFFFF" font-family="sans-serif" font-size="14" font-style="italic" lengthAdjust="spacing" textLength="55.9453" x="435.2188" y="201.9639">GroupId</text></g><!--class ClientMessage--><g class="entity" data-entity="ClientMessage" data-source-line="63" data-uid="ent0025" id="entity_ClientMessage"><rect fill="#313139" height="113.4531" rx="2.5" ry="2.5" style="stroke:#E7E7E7;stroke-width:0.5;" width="178.8379" x="655.5" y="557"/><ellipse cx="690.7267" cy="577.1328" fill="#352866" rx="11" ry="11" style="stroke:#E7E7E7;stroke-width:1;"/><path d="M686.6486,572.8984 L686.6486,570.7422 L694.0392,570.7422 L694.0392,572.8984 L691.5705,572.8984 L691.5705,580.9766 L694.0392,580.9766 L694.0392,583.1328 L686.6486,583.1328 L686.6486,580.9766 L689.1173,580.9766 L689.1173,572.8984 L686.6486,572.8984 Z " fill="#FFFFFF"/><text fill="#000000" font-family="sans-serif" font-size="12" font-style="italic" lengthAdjust="spacing" textLength="49.6465" x="735.3431" y="573.1387">&#171;entity&#187;</text><text fill="#FFFFFF" font-family="sans-serif" font-size="14" font-style="italic" lengthAdjust="spacing" textLength="101.8896" x="709.2215" y="588.9639">ClientMessage</text><line style="stroke:#E7E7E7;stroke-width:0.5;" x1="656.5" x2="833.3379" y1="597.2656" y2="597.2656"/><ellipse cx="666.5" cy="610.9141" fill="none" rx="3" ry="3" style="stroke:#038048;stroke-width:1;"/><text fill="#FFFFFF" font-family="sans-serif" font-size="14" lengthAdjust="spacing" textLength="95.6006" x="675.5" y="614.2607">from: ClientId</text><ellipse cx="666.5" cy="627.2109" fill="none" rx="3" ry="3" style="stroke:#038048;stroke-width:1;"/><text fill="#FFFFFF" font-family="sans-serif" font-size="14" lengthAdjust="spacing" textLength="79.167" x="675.5" y="630.5576">to: GroupId</text><ellipse cx="666.5" cy="643.5078" fill="none" rx="3" ry="3" style="stroke:#038048;stroke-width:1;"/><text fill="#FFFFFF" font-family="sans-serif" font-size="14" lengthAdjust="spacing" textLength="104.5488" x="675.5" y="646.8545">content: String</text><ellipse cx="666.5" cy="659.8047" fill="none" rx="3" ry="3" style="stroke:#038048;stroke-width:1;"/><text fill="#FFFFFF" font-family="sans-serif" font-size="14" lengthAdjust="spacing" textLength="152.8379" x="675.5" y="663.1514">timestamp: DateTime</text></g><!--class ClientID--><g class="entity" data-entity="ClientID" data-source-line="30" data-uid="ent0013" id="entity_ClientID"><rect fill="#313139" height="64.5625" rx="2.5" ry="2.5" style="stroke:#E7E7E7;stroke-width:0.5;" width="116.3828" x="507" y="416"/><ellipse cx="522" cy="436.1328" fill="#352866" rx="11" ry="11" style="stroke:#E7E7E7;stroke-width:1;"/><path d="M517.9219,431.8984 L517.9219,429.7422 L525.3125,429.7422 L525.3125,431.8984 L522.8438,431.8984 L522.8438,439.9766 L525.3125,439.9766 L525.3125,442.1328 L517.9219,442.1328 L517.9219,439.9766 L520.3906,439.9766 L520.3906,431.8984 L517.9219,431.8984 Z " fill="#FFFFFF"/><text fill="#000000" font-family="sans-serif" font-size="12" font-style="italic" lengthAdjust="spacing" textLength="88.3828" x="534" y="432.1387">&#171;value object&#187;</text><text fill="#FFFFFF" font-family="sans-serif" font-size="14" font-style="italic" lengthAdjust="spacing" textLength="55.4395" x="550.4717" y="447.9639">ClientID</text><line style="stroke:#E7E7E7;stroke-width:0.5;" x1="508" x2="622.3828" y1="456.2656" y2="456.2656"/><ellipse cx="518" cy="469.9141" fill="none" rx="3" ry="3" style="stroke:#038048;stroke-width:1;"/><text fill="#FFFFFF" font-family="sans-serif" font-size="14" lengthAdjust="spacing" textLength="89.1885" x="527" y="473.2607">value: String</text></g><!--class OutputReference--><g class="entity" data-entity="OutputReference" data-source-line="34" data-uid="ent0014" id="entity_OutputReference"><rect fill="#313139" height="40.2656" rx="2.5" ry="2.5" style="stroke:#E7E7E7;stroke-width:0.5;" width="152.0664" x="259" y="593.5"/><ellipse cx="274" cy="613.6328" fill="#352866" rx="11" ry="11" style="stroke:#E7E7E7;stroke-width:1;"/><path d="M269.9219,609.3984 L269.9219,607.2422 L277.3125,607.2422 L277.3125,609.3984 L274.8438,609.3984 L274.8438,617.4766 L277.3125,617.4766 L277.3125,619.6328 L269.9219,619.6328 L269.9219,617.4766 L272.3906,617.4766 L272.3906,609.3984 L269.9219,609.3984 Z " fill="#FFFFFF"/><text fill="#000000" font-family="sans-serif" font-size="12" font-style="italic" lengthAdjust="spacing" textLength="88.3828" x="303.8418" y="609.6387">&#171;value object&#187;</text><text fill="#FFFFFF" font-family="sans-serif" font-size="14" font-style="italic" lengthAdjust="spacing" textLength="120.0664" x="288" y="625.4639">OutputReference</text></g><!--class ClientStatus--><g class="entity" data-entity="ClientStatus" data-source-line="35" data-uid="ent0015" id="entity_ClientStatus"><rect fill="#313139" height="72.5938" rx="2.5" ry="2.5" style="stroke:#E7E7E7;stroke-width:0.5;" width="117.1416" x="46.5" y="412"/><ellipse cx="61.5" cy="428" fill="#852D19" rx="11" ry="11" style="stroke:#E7E7E7;stroke-width:1;"/><path d="M65.6094,434 L57.8906,434 L57.8906,421.6094 L65.6094,421.6094 L65.6094,423.7656 L60.3438,423.7656 L60.3438,426.4375 L65.1094,426.4375 L65.1094,428.5938 L60.3438,428.5938 L60.3438,431.8438 L65.6094,431.8438 L65.6094,434 Z " fill="#FFFFFF"/><text fill="#FFFFFF" font-family="sans-serif" font-size="14" lengthAdjust="spacing" textLength="85.1416" x="75.5" y="432.8467">ClientStatus</text><line style="stroke:#E7E7E7;stroke-width:0.5;" x1="47.5" x2="162.6416" y1="444" y2="444"/><text fill="#FFFFFF" font-family="sans-serif" font-size="14" lengthAdjust="spacing" textLength="52.7393" x="52.5" y="460.9951">ONLINE</text><text fill="#FFFFFF" font-family="sans-serif" font-size="14" lengthAdjust="spacing" textLength="58.3721" x="52.5" y="477.292">OFFLINE</text></g><!--class Client--><g class="entity" data-entity="Client" data-source-line="40" data-uid="ent0016" id="entity_Client"><rect fill="#313139" height="97.1563" rx="2.5" ry="2.5" style="stroke:#E7E7E7;stroke-width:0.5;" width="272.8457" x="198.5" y="400"/><ellipse cx="307.8496" cy="420.1328" fill="#352866" rx="11" ry="11" style="stroke:#E7E7E7;stroke-width:1;"/><path d="M303.7715,415.8984 L303.7715,413.7422 L311.1621,413.7422 L311.1621,415.8984 L308.6934,415.8984 L308.6934,423.9766 L311.1621,423.9766 L311.1621,426.1328 L303.7715,426.1328 L303.7715,423.9766 L306.2402,423.9766 L306.2402,415.8984 L303.7715,415.8984 Z " fill="#FFFFFF"/><text fill="#000000" font-family="sans-serif" font-size="12" font-style="italic" lengthAdjust="spacing" textLength="49.6465" x="326.3496" y="416.1387">&#171;entity&#187;</text><text fill="#FFFFFF" font-family="sans-serif" font-size="14" font-style="italic" lengthAdjust="spacing" textLength="40.5303" x="330.9077" y="431.9639">Client</text><line style="stroke:#E7E7E7;stroke-width:0.5;" x1="199.5" x2="470.3457" y1="440.2656" y2="440.2656"/><ellipse cx="209.5" cy="453.9141" fill="none" rx="3" ry="3" style="stroke:#038048;stroke-width:1;"/><text fill="#FFFFFF" font-family="sans-serif" font-size="14" lengthAdjust="spacing" textLength="77.3828" x="218.5" y="457.2607">id: ClientID</text><ellipse cx="209.5" cy="470.2109" fill="none" rx="3" ry="3" style="stroke:#038048;stroke-width:1;"/><text fill="#FFFFFF" font-family="sans-serif" font-size="14" lengthAdjust="spacing" textLength="137.3271" x="218.5" y="473.5576">status: ClientStatus</text><ellipse cx="209.5" cy="486.5078" fill="none" rx="3" ry="3" style="stroke:#038048;stroke-width:1;"/><text fill="#FFFFFF" font-family="sans-serif" font-size="14" lengthAdjust="spacing" textLength="246.8457" x="218.5" y="489.8545">outputReference: OutputReference</text></g><!--class Group--><g class="entity" data-entity="Group" data-source-line="53" data-uid="ent0022" id="entity_Group"><rect fill="#313139" height="80.8594" rx="2.5" ry="2.5" style="stroke:#E7E7E7;stroke-width:0.5;" width="169.377" x="487.5" y="730"/><ellipse cx="545.1152" cy="750.1328" fill="#352866" rx="11" ry="11" style="stroke:#E7E7E7;stroke-width:1;"/><path d="M541.0371,745.8984 L541.0371,743.7422 L548.4277,743.7422 L548.4277,745.8984 L545.959,745.8984 L545.959,753.9766 L548.4277,753.9766 L548.4277,756.1328 L541.0371,756.1328 L541.0371,753.9766 L543.5059,753.9766 L543.5059,745.8984 L541.0371,745.8984 Z " fill="#FFFFFF"/><text fill="#000000" font-family="sans-serif" font-size="12" font-style="italic" lengthAdjust="spacing" textLength="49.6465" x="563.6152" y="746.1387">&#171;entity&#187;</text><text fill="#FFFFFF" font-family="sans-serif" font-size="14" font-style="italic" lengthAdjust="spacing" textLength="42.9297" x="566.9736" y="761.9639">Group</text><line style="stroke:#E7E7E7;stroke-width:0.5;" x1="488.5" x2="655.877" y1="770.2656" y2="770.2656"/><ellipse cx="498.5" cy="783.9141" fill="none" rx="3" ry="3" style="stroke:#038048;stroke-width:1;"/><text fill="#FFFFFF" font-family="sans-serif" font-size="14" lengthAdjust="spacing" textLength="77.8887" x="507.5" y="787.2607">id: GroupId</text><ellipse cx="498.5" cy="800.2109" fill="none" rx="3" ry="3" style="stroke:#038048;stroke-width:1;"/><text fill="#FFFFFF" font-family="sans-serif" font-size="14" lengthAdjust="spacing" textLength="143.377" x="507.5" y="803.5576">clients: List&lt;Client&gt;</text></g><!--class GroupID--><g class="entity" data-entity="GroupID" data-source-line="58" data-uid="ent0023" id="entity_GroupID"><rect fill="#313139" height="40.2656" rx="2.5" ry="2.5" style="stroke:#E7E7E7;stroke-width:0.5;" width="116.3828" x="691" y="750.5"/><ellipse cx="706" cy="770.6328" fill="#352866" rx="11" ry="11" style="stroke:#E7E7E7;stroke-width:1;"/><path d="M701.9219,766.3984 L701.9219,764.2422 L709.3125,764.2422 L709.3125,766.3984 L706.8438,766.3984 L706.8438,774.4766 L709.3125,774.4766 L709.3125,776.6328 L701.9219,776.6328 L701.9219,774.4766 L704.3906,774.4766 L704.3906,766.3984 L701.9219,766.3984 Z " fill="#FFFFFF"/><text fill="#000000" font-family="sans-serif" font-size="12" font-style="italic" lengthAdjust="spacing" textLength="88.3828" x="718" y="766.6387">&#171;value object&#187;</text><text fill="#FFFFFF" font-family="sans-serif" font-size="14" font-style="italic" lengthAdjust="spacing" textLength="57.8389" x="733.272" y="782.4639">GroupID</text></g><!--link UserId to User--><g class="link" data-entity-1="UserId" data-entity-2="User" data-source-line="23" data-uid="lnk10" id="link_UserId_User"><path codeLine="23" d="M665.01,190 C676.67,190 670.32,190 681.98,190" fill="none" id="UserId-User" style="stroke:#E7E7E7;stroke-width:1;"/><polygon fill="#E7E7E7" points="659.01,190,668.01,194,664.01,190,668.01,186,659.01,190" style="stroke:#E7E7E7;stroke-width:1;"/><polygon fill="#E7E7E7" points="693.98,190,687.98,186,681.98,190,687.98,194,693.98,190" style="stroke:#E7E7E7;stroke-width:1;"/><text fill="#FFFFFF" font-family="sans-serif" font-size="13" lengthAdjust="spacing" textLength="8.271" x="667.3351" y="186.0502">1</text></g><!--link Client to ClientID--><g class="link" data-entity-1="Client" data-entity-2="ClientID" data-source-line="46" data-uid="lnk17" id="link_Client_ClientID"><path codeLine="46" d="M483.56,448.5 C495.36,448.5 489.17,448.5 500.97,448.5" fill="none" id="Client-ClientID" style="stroke:#E7E7E7;stroke-width:1;"/><polygon fill="#E7E7E7" points="471.56,448.5,477.56,452.5,483.56,448.5,477.56,444.5,471.56,448.5" style="stroke:#E7E7E7;stroke-width:1;"/><polygon fill="#E7E7E7" points="506.97,448.5,497.97,444.5,501.97,448.5,497.97,452.5,506.97,448.5" style="stroke:#E7E7E7;stroke-width:1;"/><text fill="#FFFFFF" font-family="sans-serif" font-size="13" lengthAdjust="spacing" textLength="8.271" x="490.6272" y="444.5974">1</text></g><!--link Client to OutputReference--><g class="link" data-entity-1="Client" data-entity-2="OutputReference" data-source-line="47" data-uid="lnk18" id="link_Client_OutputReference"><path codeLine="47" d="M335,509.08 C335,541.22 335,563.92 335,587.41" fill="none" id="Client-OutputReference" style="stroke:#E7E7E7;stroke-width:1;"/><polygon fill="#E7E7E7" points="335,497.08,331,503.08,335,509.08,339,503.08,335,497.08" style="stroke:#E7E7E7;stroke-width:1;"/><polygon fill="#E7E7E7" points="335,593.41,339,584.41,335,588.41,331,584.41,335,593.41" style="stroke:#E7E7E7;stroke-width:1;"/><text fill="#FFFFFF" font-family="sans-serif" font-size="13" lengthAdjust="spacing" textLength="8.271" x="325.855" y="582.3528">1</text></g><!--link ClientStatus to Client--><g class="link" data-entity-1="ClientStatus" data-entity-2="Client" data-source-line="48" data-uid="lnk20" id="link_ClientStatus_Client"><path codeLine="48" d="M169.85,448.5 C181.32,448.5 174.8,448.5 186.28,448.5" fill="none" id="ClientStatus-Client" style="stroke:#E7E7E7;stroke-width:1;"/><polygon fill="#E7E7E7" points="163.85,448.5,172.85,452.5,168.85,448.5,172.85,444.5,163.85,448.5" style="stroke:#E7E7E7;stroke-width:1;"/><polygon fill="#E7E7E7" points="198.28,448.5,192.28,444.5,186.28,448.5,192.28,452.5,198.28,448.5" style="stroke:#E7E7E7;stroke-width:1;"/><text fill="#FFFFFF" font-family="sans-serif" font-size="13" lengthAdjust="spacing" textLength="8.271" x="171.5177" y="444.6857">1</text></g><!--link Group to GroupID--><g class="link" data-entity-1="Group" data-entity-2="GroupID" data-source-line="59" data-uid="lnk24" id="link_Group_GroupID"><path codeLine="59" d="M668.7,770.5 C680.11,770.5 673.53,770.5 684.95,770.5" fill="none" id="Group-GroupID" style="stroke:#E7E7E7;stroke-width:1;"/><polygon fill="#E7E7E7" points="656.7,770.5,662.7,774.5,668.7,770.5,662.7,766.5,656.7,770.5" style="stroke:#E7E7E7;stroke-width:1;"/><polygon fill="#E7E7E7" points="690.95,770.5,681.95,766.5,685.95,770.5,681.95,774.5,690.95,770.5" style="stroke:#E7E7E7;stroke-width:1;"/><text fill="#FFFFFF" font-family="sans-serif" font-size="13" lengthAdjust="spacing" textLength="8.271" x="674.6045" y="766.5502">1</text></g><!--link ClientID to ClientMessage--><g class="link" data-entity-1="ClientID" data-entity-2="ClientMessage" data-source-line="70" data-uid="lnk27" id="link_ClientID_ClientMessage"><path codeLine="70" d="M604.5773,485.3376 C628.3173,506.8376 646.9454,523.7048 674.8154,548.9448" fill="none" id="ClientID-ClientMessage" style="stroke:#E7E7E7;stroke-width:1;"/><polygon fill="#E7E7E7" points="600.13,481.31,604.1158,490.3163,603.8361,484.6664,609.486,484.3866,600.13,481.31" style="stroke:#E7E7E7;stroke-width:1;"/><polygon fill="#E7E7E7" points="683.71,557,681.9478,550.0075,674.8154,548.9448,676.5776,555.9372,683.71,557" style="stroke:#E7E7E7;stroke-width:1;"/><text fill="#FFFFFF" font-family="sans-serif" font-size="13" lengthAdjust="spacing" textLength="8.271" x="597.6651" y="500.6079">1</text></g><!--link ClientMessage to GroupID--><g class="link" data-entity-1="ClientMessage" data-entity-2="GroupID" data-source-line="71" data-uid="lnk28" id="link_ClientMessage_GroupID"><path codeLine="71" d="M746.7411,682.016 C747.4711,710.166 747.8338,724.532 748.3538,744.502" fill="none" id="ClientMessage-GroupID" style="stroke:#E7E7E7;stroke-width:1;"/><polygon fill="#E7E7E7" points="746.43,670.02,742.5869,676.1217,746.7411,682.016,750.5842,675.9143,746.43,670.02" style="stroke:#E7E7E7;stroke-width:1;"/><polygon fill="#E7E7E7" points="748.51,750.5,752.2744,741.3989,748.3798,745.5017,744.2771,741.6072,748.51,750.5" style="stroke:#E7E7E7;stroke-width:1;"/><text fill="#FFFFFF" font-family="sans-serif" font-size="13" lengthAdjust="spacing" textLength="8.271" x="739.1746" y="739.4693">1</text></g><!--link UserId to ClientID--><g class="link" data-entity-1="UserId" data-entity-2="ClientID" data-source-line="73" data-uid="lnk30" id="link_UserId_ClientID"><path codeLine="73" d="M598.29,210.28 C592.13,254.2 576.99,362.06 569.44,415.88" fill="none" id="UserId-ClientID" style="stroke:#E7E7E7;stroke-width:1;stroke-dasharray:7,7;"/></g><!--link GroupId to GroupID--><g class="link" data-entity-1="GroupId" data-entity-2="GroupID" data-source-line="74" data-uid="lnk33" id="link_GroupId_GroupID"><path codeLine="74" d="M855.11,206.33 C870.75,267.77 922.22,501.03 851,670 C836.49,704.42 803.61,732.85 779.08,750.39" fill="none" id="GroupId-GroupID" style="stroke:#E7E7E7;stroke-width:1;stroke-dasharray:7,7;"/></g><!--SRC=[XLH1ReCm4Bpp2gl7H23rYY8kJLD5IXEfQH_Wm4BSO1lPfbLKyVSwnbWOdDO797RMkpEx8vz90GXeeww80Zs1a563ymkk0Cap5b0a5n0CwgJW51EM05D44P3e9qBw4AP0b3W7z251eDNAuDSi2w3RGkDVk6u1yTCdv6gMzI9usznBCmqMSGsbYZFqyFXWYqPTv2Zt93KtSsE8vZNHj8Qet_B9ODlrhASLE9mbCd2AZaeGLZci2nKzjAffrHkK883f_w2Usm7MKalXgB1gvQJhOR_Rxf_zq6RZnRhxgaRhcAaXHUgqJo1fcAGUhqaAzmMcKyKXTfRJ8XQaEWyhd55mMGN_PZRfNd6NE_B4Z7JdUw6wMIni1UE-_sPcBJf1UeVfcUs8LAkUG_RtYlf2w_lUwEduuxANNCvOuNJxho3bJN5Gq1ALWbDdWM84A3vNgHLoNPwfcVzrFg6WBKER5AsnWdVzEwRbard4RMErs0Ub7rtY6M5wP-G5UykiCHcFmtp2DL6YSuVNmersY0UVkV40ekuN]--></g></svg>