<svg xmlns="http://www.w3.org/2000/svg" xmlns:xlink="http://www.w3.org/1999/xlink" contentStyleType="text/css" data-diagram-type="DESCRIPTION" height="489px" preserveAspectRatio="none" style="width:773px;height:489px;background:#FFFFFF;" version="1.1" viewBox="0 0 773 489" width="773px" zoomAndPan="magnify"><defs/><g><!--cluster Chat sub-system--><g class="cluster" data-entity="Chat sub-system" data-source-line="356" data-uid="ent0004" id="cluster_Chat sub-system"><rect fill="none" height="233" rx="2.5" ry="2.5" style="stroke:#181818;stroke-width:1;" width="760" x="7" y="128.5"/><text fill="#000000" font-family="sans-serif" font-size="14" font-weight="bold" lengthAdjust="spacing" textLength="131.9541" x="321.0229" y="143.4951">Chat sub-system</text></g><!--entity UC1--><g class="entity" data-entity="UC1" data-source-line="357" data-uid="ent0005" id="entity_UC1"><ellipse cx="132.8357" cy="326.3671" fill="#F1F1F1" rx="69.8357" ry="16.3671" style="stroke:#181818;stroke-width:0.5;"/><text fill="#000000" font-family="sans-serif" font-size="14" lengthAdjust="spacing" textLength="105.9639" x="79.8538" y="331.0156">Join chat group</text></g><!--entity UC2--><g class="entity" data-entity="UC2" data-source-line="358" data-uid="ent0006" id="entity_UC2"><ellipse cx="315.0201" cy="326.704" fill="#F1F1F1" rx="76.5201" ry="17.704" style="stroke:#181818;stroke-width:0.5;"/><text fill="#000000" font-family="sans-serif" font-size="14" lengthAdjust="spacing" textLength="122.3975" x="253.8214" y="331.3525">Leave chat group</text></g><!--entity UC3--><g class="entity" data-entity="UC3" data-source-line="359" data-uid="ent0007" id="entity_UC3"><ellipse cx="677.2395" cy="197.1479" fill="#F1F1F1" rx="73.7395" ry="17.1479" style="stroke:#181818;stroke-width:0.5;"/><text fill="#000000" font-family="sans-serif" font-size="14" lengthAdjust="spacing" textLength="115.6572" x="619.4109" y="201.7963">Send a message</text></g><!--entity UC4--><g class="entity" data-entity="UC4" data-source-line="360" data-uid="ent0008" id="entity_UC4"><ellipse cx="508.7738" cy="326.2548" fill="#F1F1F1" rx="81.7738" ry="18.7548" style="stroke:#181818;stroke-width:0.5;"/><text fill="#000000" font-family="sans-serif" font-size="14" lengthAdjust="spacing" textLength="134.8389" x="441.3543" y="330.9032">Connect to a group</text></g><!--entity UC5--><g class="entity" data-entity="UC5" data-source-line="361" data-uid="ent0009" id="entity_UC5"><ellipse cx="468.867" cy="197.1734" fill="#F1F1F1" rx="98.867" ry="22.1734" style="stroke:#181818;stroke-width:0.5;"/><text fill="#000000" font-family="sans-serif" font-size="14" lengthAdjust="spacing" textLength="173.5576" x="382.0882" y="201.8218">Disconnect from a group</text></g><!--entity UC6--><g class="entity" data-entity="UC6" data-source-line="363" data-uid="ent0010" id="entity_UC6"><ellipse cx="179.203" cy="197.0406" fill="#F1F1F1" rx="155.703" ry="33.5406" style="stroke:#181818;stroke-width:0.5;"/><text fill="#000000" font-family="sans-serif" font-size="14" lengthAdjust="spacing" textLength="294.335" x="32.0355" y="201.689">Trigger notification for all group members</text></g><!--entity User--><g class="entity" data-entity="User" data-source-line="353" data-uid="ent0002" id="entity_User"><ellipse cx="508.9829" cy="417" fill="#F1F1F1" rx="8" ry="8" style="stroke:#181818;stroke-width:0.5;"/><path d="M508.9829,425 L508.9829,452 M495.9829,433 L521.9829,433 M508.9829,452 L495.9829,467 M508.9829,452 L521.9829,467" fill="none" style="stroke:#181818;stroke-width:0.5;"/><text fill="#000000" font-family="sans-serif" font-size="14" lengthAdjust="spacing" textLength="104.9658" x="456.5" y="481.4951">Group Member</text></g><!--entity System--><g class="entity" data-entity="System" data-source-line="354" data-uid="ent0003" id="entity_System"><ellipse cx="179.103" cy="14" fill="#F1F1F1" rx="8" ry="8" style="stroke:#181818;stroke-width:0.5;"/><path d="M179.103,22 L179.103,49 M166.103,30 L192.103,30 M179.103,49 L166.103,64 M179.103,49 L192.103,64" fill="none" style="stroke:#181818;stroke-width:0.5;"/><text fill="#000000" font-family="sans-serif" font-size="14" lengthAdjust="spacing" textLength="52.2061" x="153" y="78.4951">System</text></g><!--reverse link UC1 to User--><g class="link" data-entity-1="UC1" data-entity-2="User" data-source-line="367" data-uid="lnk12" id="link_UC1_User"><path d="M165.1176,344.6404 C182.2776,353.4504 199.86,361.74 221,369.5 C301.22,398.93 397.88,422.04 456.33,434.72" fill="none" id="UC1-backto-User" style="stroke:#181818;stroke-width:1;"/><polygon fill="#181818" points="159.78,341.9,165.9596,349.569,164.228,344.1836,169.6134,342.4521,159.78,341.9" style="stroke:#181818;stroke-width:1;"/></g><!--link UC6 to UC1--><g class="link" data-entity-1="UC6" data-entity-2="UC1" data-source-line="368" data-uid="lnk13" id="link_UC6_UC1"><path d="M167.27,230.5 C158.12,255.88 147.8253,284.3957 140.7253,304.0857" fill="none" id="UC6-to-UC1" style="stroke:#181818;stroke-width:1;stroke-dasharray:7,7;"/><polygon fill="#181818" points="138.69,309.73,145.5057,302.6204,140.3861,305.0264,137.98,299.9068,138.69,309.73" style="stroke:#181818;stroke-width:1;"/><text fill="#000000" font-family="sans-serif" font-size="13" lengthAdjust="spacing" textLength="61.1851" x="157" y="273.5669">&#171;extend&#187;</text></g><!--reverse link UC2 to User--><g class="link" data-entity-1="UC2" data-entity-2="User" data-source-line="370" data-uid="lnk15" id="link_UC2_User"><path d="M345.8862,346.288 C375.2662,364.158 418.94,390.72 456.44,413.53" fill="none" id="UC2-backto-User" style="stroke:#181818;stroke-width:1;"/><polygon fill="#181818" points="340.76,343.17,346.3707,351.2644,345.0319,345.7683,350.528,344.4295,340.76,343.17" style="stroke:#181818;stroke-width:1;"/></g><!--link UC6 to UC2--><g class="link" data-entity-1="UC6" data-entity-2="UC2" data-source-line="371" data-uid="lnk16" id="link_UC6_UC2"><path d="M212.97,229.84 C239.88,255.07 271.9826,285.1765 293.2426,305.1065" fill="none" id="UC6-to-UC2" style="stroke:#181818;stroke-width:1;stroke-dasharray:7,7;"/><polygon fill="#181818" points="297.62,309.21,293.7896,300.1365,293.9722,305.7904,288.3183,305.973,297.62,309.21" style="stroke:#181818;stroke-width:1;"/><text fill="#000000" font-family="sans-serif" font-size="13" lengthAdjust="spacing" textLength="61.1851" x="264" y="273.5669">&#171;extend&#187;</text></g><!--reverse link UC3 to User--><g class="link" data-entity-1="UC3" data-entity-2="User" data-source-line="373" data-uid="lnk18" id="link_UC3_User"><path d="M679.4389,220.1257 C682.3789,252.7257 684.06,321.42 650,369.5 C628.86,399.34 592.24,418.58 561.61,430.23" fill="none" id="UC3-backto-User" style="stroke:#181818;stroke-width:1;"/><polygon fill="#181818" points="678.9,214.15,675.7245,223.4729,679.3491,219.1298,683.6922,222.7543,678.9,214.15" style="stroke:#181818;stroke-width:1;"/></g><!--link UC3 to UC4--><g class="link" data-entity-1="UC3" data-entity-2="UC4" data-source-line="374" data-uid="lnk19" id="link_UC3_UC4"><path d="M656.74,213.38 C625.23,237.29 569.4897,279.5931 536.5297,304.6031" fill="none" id="UC3-to-UC4" style="stroke:#181818;stroke-width:1;stroke-dasharray:7,7;"/><polygon fill="#181818" points="531.75,308.23,541.3375,305.9762,535.7331,305.2076,536.5017,299.6032,531.75,308.23" style="stroke:#181818;stroke-width:1;"/><text fill="#000000" font-family="sans-serif" font-size="13" lengthAdjust="spacing" textLength="63.0068" x="594" y="273.5669">&#171;include&#187;</text></g><!--reverse link UC4 to User--><g class="link" data-entity-1="UC4" data-entity-2="User" data-source-line="376" data-uid="lnk21" id="link_UC4_User"><path d="M509,351.68 C509,368.36 509,387.57 509,408.49" fill="none" id="UC4-backto-User" style="stroke:#181818;stroke-width:1;"/><polygon fill="#181818" points="509,345.68,505,354.68,509,350.68,513,354.68,509,345.68" style="stroke:#181818;stroke-width:1;"/></g><!--reverse link UC5 to User--><g class="link" data-entity-1="UC5" data-entity-2="User" data-source-line="378" data-uid="lnk23" id="link_UC5_User"><path d="M533.9994,216.5435 C572.1294,228.6335 610.84,243.89 622,260.5 C636.37,281.89 669.15,266.99 609,369.5 C597.69,388.78 579.4,404.8 561.54,417.09" fill="none" id="UC5-backto-User" style="stroke:#181818;stroke-width:1;"/><polygon fill="#181818" points="528.28,214.73,535.6501,221.2631,533.0462,216.2412,538.0681,213.6373,528.28,214.73" style="stroke:#181818;stroke-width:1;"/></g><!--reverse link UC5 to UC2--><g class="link" data-entity-1="UC5" data-entity-2="UC2" data-source-line="379" data-uid="lnk24" id="link_UC5_UC2"><path d="M439.6382,222.3161 C409.0282,247.6561 362.18,286.44 334.32,309.51" fill="none" id="UC5-backto-UC2" style="stroke:#181818;stroke-width:1;stroke-dasharray:7,7;"/><polygon fill="#181818" points="444.26,218.49,434.7766,221.1479,440.4085,221.6784,439.878,227.3103,444.26,218.49" style="stroke:#181818;stroke-width:1;"/><text fill="#000000" font-family="sans-serif" font-size="13" lengthAdjust="spacing" textLength="63.0068" x="393" y="273.5669">&#171;include&#187;</text></g><!--link System to UC6--><g class="link" data-entity-1="System" data-entity-2="UC6" data-source-line="382" data-uid="lnk25" id="link_System_UC6"><path d="M179,81.56 C179,106.61 179,133.39 179,157.44" fill="none" id="System-to-UC6" style="stroke:#181818;stroke-width:1;"/><polygon fill="#181818" points="179,163.44,183,154.44,179,158.44,175,154.44,179,163.44" style="stroke:#181818;stroke-width:1;"/></g><!--SRC=[VT5BQyCm303Wktw5o3s1vT732BbaC1ZhgTiFK5qbCoHsiPooCVRVvpmOIGhpoOzFaYsJyjPXzEpiSCKZzsTs4PBWkx03cWzFN-AvdxRdAO1ZvScq7MDKVv176SwnBEmRC8n1M964ynUh3QeHjMEHENlzi4MlJ3U-L-bMdTXSaB1d4MfvCTdMrDQOS3dqDiXrhdphdhIeXJREzZjSm5Q_ETssxD1Ohnkjo6jhi0dDeQwR0yEjnkR9ak00y0CmTX7ZuHfNqvF3DYR9DCT7B4l-zE55LRM3wGgc_y4im6o1-GIrKTrmuJkPxzP5Y2omJ9A_4gj8c7yPuuaUu1S0]--></g></svg>