<svg xmlns="http://www.w3.org/2000/svg" xmlns:xlink="http://www.w3.org/1999/xlink" contentStyleType="text/css" data-diagram-type="DESCRIPTION" height="468px" preserveAspectRatio="none" style="width:808px;height:468px;background:#FFFFFF;" version="1.1" viewBox="0 0 808 468" width="808px" zoomAndPan="magnify"><defs/><g><!--cluster Chat sub-system--><g class="cluster" data-entity="Chat sub-system" data-source-line="364" data-uid="ent0005" id="cluster_Chat sub-system"><rect fill="none" height="274" rx="2.5" ry="2.5" style="stroke:#181818;stroke-width:1;" width="654" x="7" y="97.5"/><text fill="#000000" font-family="sans-serif" font-size="14" font-weight="bold" lengthAdjust="spacing" textLength="131.9541" x="268.0229" y="112.4951">Chat sub-system</text></g><g class="entity" data-entity="UC1" data-source-line="365" data-uid="ent0006" id="entity_UC1"><ellipse cx="557.9808" cy="169.3962" fill="#F1F1F1" rx="74.9808" ry="17.3962" style="stroke:#181818;stroke-width:0.5;"/><text fill="#000000" font-family="sans-serif" font-size="14" lengthAdjust="spacing" textLength="105.9639" x="501.9988" y="173.1437">Join chat group</text></g><g class="entity" data-entity="UC2" data-source-line="366" data-uid="ent0007" id="entity_UC2"><ellipse cx="558.1123" cy="258.7225" fill="#F1F1F1" rx="81.6123" ry="18.7225" style="stroke:#181818;stroke-width:0.5;"/><text fill="#000000" font-family="sans-serif" font-size="14" lengthAdjust="spacing" textLength="122.3975" x="495.8385" y="261.9238">Leave chat group</text></g><g class="entity" data-entity="UC3" data-source-line="367" data-uid="ent0008" id="entity_UC3"><ellipse cx="184.3258" cy="337.6652" fill="#F1F1F1" rx="78.8258" ry="18.1652" style="stroke:#181818;stroke-width:0.5;"/><text fill="#000000" font-family="sans-serif" font-size="14" lengthAdjust="spacing" textLength="115.6572" x="124.3769" y="341.1762">Send a message</text></g><g class="entity" data-entity="UC4" data-source-line="368" data-uid="ent0009" id="entity_UC4"><ellipse cx="557.9663" cy="332.2933" fill="#F1F1F1" rx="86.9663" ry="19.7933" style="stroke:#181818;stroke-width:0.5;"/><text fill="#000000" font-family="sans-serif" font-size="14" lengthAdjust="spacing" textLength="134.8389" x="490.5469" y="335.1399">Connect to a group</text></g><g class="entity" data-entity="UC5" data-source-line="369" data-uid="ent0010" id="entity_UC5"><ellipse cx="184.3303" cy="260.2661" fill="#F1F1F1" rx="104.3303" ry="23.2661" style="stroke:#181818;stroke-width:0.5;"/><text fill="#000000" font-family="sans-serif" font-size="14" lengthAdjust="spacing" textLength="173.5576" x="97.5515" y="263.1127">Disconnect from a group</text></g><g class="entity" data-entity="UC6" data-source-line="371" data-uid="ent0011" id="entity_UC6"><ellipse cx="184.4935" cy="167.6987" fill="#F1F1F1" rx="161.4935" ry="34.6987" style="stroke:#181818;stroke-width:0.5;"/><text fill="#000000" font-family="sans-serif" font-size="14" lengthAdjust="spacing" textLength="294.335" x="37.3261" y="170.5454">Trigger notification for all group members</text></g><!--entity User--><g class="entity" data-entity="User" data-source-line="360" data-uid="ent0002" id="entity_User"><ellipse cx="557.9829" cy="396" fill="#F1F1F1" rx="8" ry="8" style="stroke:#181818;stroke-width:0.5;"/><path d="M557.9829,404 L557.9829,431 M544.9829,412 L570.9829,412 M557.9829,431 L544.9829,446 M557.9829,431 L570.9829,446" fill="none" style="stroke:#181818;stroke-width:0.5;"/><text fill="#000000" font-family="sans-serif" font-size="14" lengthAdjust="spacing" textLength="104.9658" x="505.5" y="460.4951">Group Member</text></g><!--entity Admin--><g class="entity" data-entity="Admin" data-source-line="361" data-uid="ent0003" id="entity_Admin"><ellipse cx="754.5459" cy="140" fill="#F1F1F1" rx="8" ry="8" style="stroke:#181818;stroke-width:0.5;"/><path d="M754.5459,148 L754.5459,175 M741.5459,156 L767.5459,156 M754.5459,175 L741.5459,190 M754.5459,175 L767.5459,190" fill="none" style="stroke:#181818;stroke-width:0.5;"/><text fill="#000000" font-family="sans-serif" font-size="14" lengthAdjust="spacing" textLength="93.0918" x="708" y="204.4951">Group Owner</text></g><!--entity System--><g class="entity" data-entity="System" data-source-line="362" data-uid="ent0004" id="entity_System"><ellipse cx="184.603" cy="14" fill="#F1F1F1" rx="8" ry="8" style="stroke:#181818;stroke-width:0.5;"/><path d="M184.603,22 L184.603,49 M171.603,30 L197.603,30 M184.603,49 L171.603,64 M184.603,49 L197.603,64" fill="none" style="stroke:#181818;stroke-width:0.5;"/><text fill="#000000" font-family="sans-serif" font-size="14" lengthAdjust="spacing" textLength="52.2061" x="158.5" y="78.4951">System</text></g><!--link User to UC1--><g class="link" data-entity-1="User" data-entity-2="UC1" data-source-line="375" data-uid="lnk12" id="link_User_UC1"><path d="M505.48,415.34 C471.46,405.74 429.67,387.59 408.5,354 C381.49,311.14 381.37,282.79 408.5,240 C428.63,208.25 461.5558,192.2399 494.5258,182.4999" fill="none" id="User-to-UC1" style="stroke:#181818;stroke-width:1;"/><polygon fill="#181818" points="500.28,180.8,490.5155,179.5137,495.4849,182.2166,492.782,187.1859,500.28,180.8" style="stroke:#181818;stroke-width:1;"/></g><!--reverse link UC1 to Admin--><g class="link" data-entity-1="UC1" data-entity-2="Admin" data-source-line="376" data-uid="lnk14" id="link_UC1_Admin"><path d="M639.09,169.5 C664.21,169.5 685.52,169.5 707.77,169.5" fill="none" id="UC1-backto-Admin" style="stroke:#181818;stroke-width:1;"/><polygon fill="#181818" points="633.09,169.5,642.09,173.5,638.09,169.5,642.09,165.5,633.09,169.5" style="stroke:#181818;stroke-width:1;"/></g><!--link UC6 to UC1--><g class="link" data-entity-1="UC6" data-entity-2="UC1" data-source-line="377" data-uid="lnk15" id="link_UC6_UC1"><path d="M346.01,168.36 C393.7,168.62 437.6501,168.858 476.9701,169.068" fill="none" id="UC6-to-UC1" style="stroke:#181818;stroke-width:1;stroke-dasharray:7.0,7.0;"/><polygon fill="#181818" points="482.97,169.1,473.9915,165.052,477.9701,169.0733,473.9488,173.0519,482.97,169.1" style="stroke:#181818;stroke-width:1;"/><text fill="#000000" font-family="sans-serif" font-size="13" lengthAdjust="spacing" textLength="61.1851" x="378" y="165.5669">&#171;extend&#187;</text></g><!--reverse link UC2 to User--><g class="link" data-entity-1="UC2" data-entity-2="User" data-source-line="379" data-uid="lnk17" id="link_UC2_User"><path d="M478.8006,268.121 C450.2006,275.301 425.96,287.21 408.5,312 C377.07,356.63 450.77,391.45 505.48,410.19" fill="none" id="UC2-backto-User" style="stroke:#181818;stroke-width:1;"/><polygon fill="#181818" points="484.62,266.66,474.9169,264.9718,479.7705,267.8775,476.8648,272.731,484.62,266.66" style="stroke:#181818;stroke-width:1;"/></g><!--link UC6 to UC2--><g class="link" data-entity-1="UC6" data-entity-2="UC2" data-source-line="380" data-uid="lnk18" id="link_UC6_UC2"><path d="M291.46,193.46 C360.09,210.27 440.8323,230.0423 496.1023,243.5823" fill="none" id="UC6-to-UC2" style="stroke:#181818;stroke-width:1;stroke-dasharray:7.0,7.0;"/><polygon fill="#181818" points="501.93,245.01,494.1403,238.9834,497.0736,243.8203,492.2367,246.7536,501.93,245.01" style="stroke:#181818;stroke-width:1;"/><text fill="#000000" font-family="sans-serif" font-size="13" lengthAdjust="spacing" textLength="61.1851" x="378" y="212.5669">&#171;extend&#187;</text></g><!--reverse link UC3 to User--><g class="link" data-entity-1="UC3" data-entity-2="User" data-source-line="382" data-uid="lnk20" id="link_UC3_User"><path d="M231.0179,355.1669 C269.1479,369.4669 322.9,388.16 376,400.5 C419.1,410.52 468.98,417.04 505.44,420.9" fill="none" id="UC3-backto-User" style="stroke:#181818;stroke-width:1;"/><polygon fill="#181818" points="225.4,353.06,232.4223,359.9656,230.0816,354.8158,235.2315,352.4751,225.4,353.06" style="stroke:#181818;stroke-width:1;"/></g><!--link UC3 to UC4--><g class="link" data-entity-1="UC3" data-entity-2="UC4" data-source-line="383" data-uid="lnk21" id="link_UC3_UC4"><path d="M263.38,336.45 C324.12,335.63 402.4205,334.5804 465.1205,333.7404" fill="none" id="UC3-to-UC4" style="stroke:#181818;stroke-width:1;stroke-dasharray:7.0,7.0;"/><polygon fill="#181818" points="471.12,333.66,462.0672,329.7809,466.1204,333.727,462.1744,337.7802,471.12,333.66" style="stroke:#181818;stroke-width:1;"/><text fill="#000000" font-family="sans-serif" font-size="13" lengthAdjust="spacing" textLength="63.0068" x="377" y="330.5669">&#171;include&#187;</text></g><!--reverse link UC4 to User--><g class="link" data-entity-1="UC4" data-entity-2="User" data-source-line="385" data-uid="lnk23" id="link_UC4_User"><path d="M558,358.64 C558,370.21 558,375.78 558,387.36" fill="none" id="UC4-backto-User" style="stroke:#181818;stroke-width:1;"/><polygon fill="#181818" points="558,352.64,554,361.64,558,357.64,562,361.64,558,352.64" style="stroke:#181818;stroke-width:1;"/></g><!--reverse link UC5 to User--><g class="link" data-entity-1="UC5" data-entity-2="User" data-source-line="387" data-uid="lnk25" id="link_UC5_User"><path d="M281.8197,273.4897 C306.0197,279.5597 325.35,287.37 346,301.5 C364.93,314.46 358.28,328.93 376,343.5 C414.38,375.04 466.85,397.05 505.42,410.26" fill="none" id="UC5-backto-User" style="stroke:#181818;stroke-width:1;"/><polygon fill="#181818" points="276,272.03,283.7564,278.0994,280.8498,273.2465,285.7027,270.3398,276,272.03" style="stroke:#181818;stroke-width:1;"/></g><!--reverse link UC5 to UC2--><g class="link" data-entity-1="UC5" data-entity-2="UC2" data-source-line="388" data-uid="lnk26" id="link_UC5_UC2"><path d="M292.8463,265.7909 C339.7563,267.4409 390.23,268.25 441,266.5 C453.81,266.06 467.4,265.34 480.6,264.52" fill="none" id="UC5-backto-UC2" style="stroke:#181818;stroke-width:1;stroke-dasharray:7.0,7.0;"/><polygon fill="#181818" points="286.85,265.58,295.7038,269.8939,291.8469,265.7558,295.985,261.8988,286.85,265.58" style="stroke:#181818;stroke-width:1;"/><text fill="#000000" font-family="sans-serif" font-size="13" lengthAdjust="spacing" textLength="63.0068" x="377" y="262.5669">&#171;include&#187;</text></g><!--link System to UC6--><g class="link" data-entity-1="System" data-entity-2="UC6" data-source-line="391" data-uid="lnk27" id="link_System_UC6"><path d="M184.5,81.8 C184.5,98.74 184.5,109.68 184.5,126.62" fill="none" id="System-to-UC6" style="stroke:#181818;stroke-width:1;"/><polygon fill="#181818" points="184.5,132.62,188.5,123.62,184.5,127.62,180.5,123.62,184.5,132.62" style="stroke:#181818;stroke-width:1;"/></g><!--SRC=[VTBTIiCm50Vm-pp5eVSjs8zTI2b81u8eNamV84jFkq2QZ2HrYlZk9cccomHxbURyJZx-hS3HWbMW-NImC72Dp78b2Q7CAWtPlLRB4PvmtgFEW1fuDQZJulD9njhTC7DvBku-ZCKvpAz3GlpYL4u28UiFr89Pzhc9x9E0UnQ3Z1fNVr1S0lDeyfkiM_StANf4-eP_LPcg7Se1ACne39qmcYerlPBI7SudGPErwjHjkM6HZbhDLxWXgNvngKweGIhBHyweJnP65muLOcrqf_B9chZ0Xf0lGdp4a0_g9FCkN3ha2lboZEyEGb64CTn2s-AxTNVikdDhXEK5BF-3bODLX7M0N3An3FWhXVjFWgslUXlNsq1R53-RNFIIzSj3a1lo3G00]--></g></svg>