<svg xmlns="http://www.w3.org/2000/svg" xmlns:xlink="http://www.w3.org/1999/xlink" contentStyleType="text/css" data-diagram-type="CLASS" height="874px" preserveAspectRatio="none" style="width:2531px;height:874px;background:#1B1B1B;" version="1.1" viewBox="0 0 2531 874" width="2531px" zoomAndPan="magnify"><defs/><g><rect fill="#1B1B1B" height="874" style="stroke:none;stroke-width:1;" width="2531" x="0" y="0"/><!--cluster infrastructure--><g class="cluster" data-entity="infrastructure" data-source-line="93" data-uid="ent0002" id="cluster_infrastructure"><path d="M8.5,6 L119.9619,6 A3.75,3.75 0 0 1 122.4619,8.5 L129.4619,28.2969 L2521.5,28.2969 A2.5,2.5 0 0 1 2524,30.7969 L2524,592.5 A2.5,2.5 0 0 1 2521.5,595 L8.5,595 A2.5,2.5 0 0 1 6,592.5 L6,8.5 A2.5,2.5 0 0 1 8.5,6" fill="none" style="stroke:#FFFFFF;stroke-width:1.5;"/><line style="stroke:#FFFFFF;stroke-width:1.5;" x1="6" x2="129.4619" y1="28.2969" y2="28.2969"/><text fill="#FFFFFF" font-family="sans-serif" font-size="14" font-weight="bold" lengthAdjust="spacing" textLength="110.4619" x="10" y="20.9951">infrastructure</text></g><!--cluster event--><g class="cluster" data-entity="event" data-source-line="95" data-uid="ent0003" id="cluster_event"><path d="M1510.5,49 L1556.2754,49 A3.75,3.75 0 0 1 1558.7754,51.5 L1565.7754,71.2969 L2497.5,71.2969 A2.5,2.5 0 0 1 2500,73.7969 L2500,270 A2.5,2.5 0 0 1 2497.5,272.5 L1510.5,272.5 A2.5,2.5 0 0 1 1508,270 L1508,51.5 A2.5,2.5 0 0 1 1510.5,49" fill="none" style="stroke:#FFFFFF;stroke-width:1.5;"/><line style="stroke:#FFFFFF;stroke-width:1.5;" x1="1508" x2="1565.7754" y1="71.2969" y2="71.2969"/><text fill="#FFFFFF" font-family="sans-serif" font-size="14" font-weight="bold" lengthAdjust="spacing" textLength="44.7754" x="1512" y="63.9951">event</text></g><!--cluster command--><g class="cluster" data-entity="command" data-source-line="104" data-uid="ent0015" id="cluster_command"><path d="M32.5,53 L110.0283,53 A3.75,3.75 0 0 1 112.5283,55.5 L119.5283,75.2969 L1096.5,75.2969 A2.5,2.5 0 0 1 1099,77.7969 L1099,266 A2.5,2.5 0 0 1 1096.5,268.5 L32.5,268.5 A2.5,2.5 0 0 1 30,266 L30,55.5 A2.5,2.5 0 0 1 32.5,53" fill="none" style="stroke:#FFFFFF;stroke-width:1.5;"/><line style="stroke:#FFFFFF;stroke-width:1.5;" x1="30" x2="119.5283" y1="75.2969" y2="75.2969"/><text fill="#FFFFFF" font-family="sans-serif" font-size="14" font-weight="bold" lengthAdjust="spacing" textLength="76.5283" x="34" y="67.9951">command</text></g><!--cluster realtime--><g class="cluster" data-entity="realtime" data-source-line="139" data-uid="ent0039" id="cluster_realtime"><path d="M703.5,619 L770.7197,619 A3.75,3.75 0 0 1 773.2197,621.5 L780.2197,641.2969 L1195.5,641.2969 A2.5,2.5 0 0 1 1198,643.7969 L1198,748.5 A2.5,2.5 0 0 1 1195.5,751 L703.5,751 A2.5,2.5 0 0 1 701,748.5 L701,621.5 A2.5,2.5 0 0 1 703.5,619" fill="none" style="stroke:#FFFFFF;stroke-width:1.5;"/><line style="stroke:#FFFFFF;stroke-width:1.5;" x1="701" x2="780.2197" y1="641.2969" y2="641.2969"/><text fill="#FFFFFF" font-family="sans-serif" font-size="14" font-weight="bold" lengthAdjust="spacing" textLength="66.2197" x="705" y="633.9951">realtime</text></g><!--cluster amqp--><g class="cluster" data-entity="amqp" data-source-line="154" data-uid="ent0046" id="cluster_amqp"><path d="M1224.5,620 L1269.5781,620 A3.75,3.75 0 0 1 1272.0781,622.5 L1279.0781,642.2969 L1735.5,642.2969 A2.5,2.5 0 0 1 1738,644.7969 L1738,864.5 A2.5,2.5 0 0 1 1735.5,867 L1224.5,867 A2.5,2.5 0 0 1 1222,864.5 L1222,622.5 A2.5,2.5 0 0 1 1224.5,620" fill="none" style="stroke:#FFFFFF;stroke-width:1.5;"/><line style="stroke:#FFFFFF;stroke-width:1.5;" x1="1222" x2="1279.0781" y1="642.2969" y2="642.2969"/><text fill="#FFFFFF" font-family="sans-serif" font-size="14" font-weight="bold" lengthAdjust="spacing" textLength="44.0781" x="1226" y="634.9951">amqp</text></g><!--class GroupHandler--><g class="entity" data-entity="GroupHandler" data-source-line="115" data-uid="ent0029" id="entity_GroupHandler"><rect fill="#313139" height="105.1563" rx="2.5" ry="2.5" style="stroke:#E7E7E7;stroke-width:0.5;" width="370.7705" x="1117.5" y="184"/><ellipse cx="1249.6079" cy="204.1328" fill="#2A5D60" rx="11" ry="11" style="stroke:#E7E7E7;stroke-width:1;"/><path d="M1249.7173,199.4766 L1248.561,204.5547 L1250.8892,204.5547 L1249.7173,199.4766 Z M1248.2329,197.2422 L1251.2173,197.2422 L1254.5767,209.6328 L1252.1235,209.6328 L1251.3579,206.5703 L1248.0767,206.5703 L1247.3267,209.6328 L1244.8892,209.6328 L1248.2329,197.2422 Z " fill="#FFFFFF"/><text fill="#000000" font-family="sans-serif" font-size="12" font-style="italic" lengthAdjust="spacing" textLength="57.7969" x="1290.2368" y="200.1387">&#171;service&#187;</text><text fill="#FFFFFF" font-family="sans-serif" font-size="14" font-style="italic" lengthAdjust="spacing" textLength="98.0547" x="1270.1079" y="215.9639">GroupHandler</text><line style="stroke:#E7E7E7;stroke-width:0.5;" x1="1118.5" x2="1487.2705" y1="224.2656" y2="224.2656"/><ellipse cx="1128.5" cy="237.9141" fill="none" rx="3" ry="3" style="stroke:#038048;stroke-width:1;"/><text fill="#FFFFFF" font-family="sans-serif" font-size="14" lengthAdjust="spacing" textLength="93.0645" x="1137.5" y="241.2607">group: Group</text><ellipse cx="1128.5" cy="254.2109" fill="none" rx="3" ry="3" style="stroke:#038048;stroke-width:1;"/><text fill="#FFFFFF" font-family="sans-serif" font-size="14" lengthAdjust="spacing" textLength="136.083" x="1137.5" y="257.5576">client: List&lt;Client&gt;</text><line style="stroke:#E7E7E7;stroke-width:1;" x1="1118.5" x2="1487.2705" y1="264.8594" y2="264.8594"/><ellipse cx="1128.5" cy="278.5078" fill="#84BE84" rx="3" ry="3" style="stroke:#038048;stroke-width:1;"/><text fill="#FFFFFF" font-family="sans-serif" font-size="14" lengthAdjust="spacing" textLength="344.7705" x="1137.5" y="281.8545">handle(command: GroupCommand): GroupEvent</text></g><!--class GroupHandlerService--><g class="entity" data-entity="GroupHandlerService" data-source-line="125" data-uid="ent0034" id="entity_GroupHandlerService"><rect fill="#313139" height="137.7813" rx="2.5" ry="2.5" style="stroke:#E7E7E7;stroke-width:0.5;" width="413.3926" x="1096.5" y="349"/><ellipse cx="1224.0483" cy="365" fill="#352866" rx="11" ry="11" style="stroke:#E7E7E7;stroke-width:1;"/><path d="M1219.9702,360.7656 L1219.9702,358.6094 L1227.3608,358.6094 L1227.3608,360.7656 L1224.8921,360.7656 L1224.8921,368.8438 L1227.3608,368.8438 L1227.3608,371 L1219.9702,371 L1219.9702,368.8438 L1222.439,368.8438 L1222.439,360.7656 L1219.9702,360.7656 Z " fill="#FFFFFF"/><text fill="#FFFFFF" font-family="sans-serif" font-size="14" font-style="italic" lengthAdjust="spacing" textLength="149.7959" x="1244.5483" y="369.8467">GroupHandlerService</text><line style="stroke:#E7E7E7;stroke-width:0.5;" x1="1097.5" x2="1508.8926" y1="381" y2="381"/><ellipse cx="1107.5" cy="394.6484" fill="#84BE84" rx="3" ry="3" style="stroke:#038048;stroke-width:1;"/><text fill="#FFFFFF" font-family="sans-serif" font-size="14" lengthAdjust="spacing" textLength="161.8545" x="1116.5" y="397.9951">delete(groupID: String)</text><ellipse cx="1107.5" cy="410.9453" fill="#84BE84" rx="3" ry="3" style="stroke:#038048;stroke-width:1;"/><text fill="#FFFFFF" font-family="sans-serif" font-size="14" lengthAdjust="spacing" textLength="256.1768" x="1116.5" y="414.292">join(groupID: String, clientID: String)</text><ellipse cx="1107.5" cy="427.2422" fill="#84BE84" rx="3" ry="3" style="stroke:#038048;stroke-width:1;"/><text fill="#FFFFFF" font-family="sans-serif" font-size="14" lengthAdjust="spacing" textLength="268.9395" x="1116.5" y="430.5889">leave(groupID: String, clientID: String)</text><ellipse cx="1107.5" cy="443.5391" fill="#84BE84" rx="3" ry="3" style="stroke:#038048;stroke-width:1;"/><text fill="#FFFFFF" font-family="sans-serif" font-size="14" lengthAdjust="spacing" textLength="286.7676" x="1116.5" y="446.8857">connect(groupID: String, clientID: String)</text><ellipse cx="1107.5" cy="459.8359" fill="#84BE84" rx="3" ry="3" style="stroke:#038048;stroke-width:1;"/><text fill="#FFFFFF" font-family="sans-serif" font-size="14" lengthAdjust="spacing" textLength="306.8379" x="1116.5" y="463.1826">disconnect(groupID: String, clientID: String)</text><ellipse cx="1107.5" cy="476.1328" fill="#84BE84" rx="3" ry="3" style="stroke:#038048;stroke-width:1;"/><text fill="#FFFFFF" font-family="sans-serif" font-size="14" lengthAdjust="spacing" textLength="387.3926" x="1116.5" y="479.4795">send(groupID: String, clientID: String, message: String)</text></g><!--class GroupHandlerServiceImpl--><g class="entity" data-entity="GroupHandlerServiceImpl" data-source-line="136" data-uid="ent0037" id="entity_GroupHandlerServiceImpl"><rect fill="#313139" height="32" rx="2.5" ry="2.5" style="stroke:#E7E7E7;stroke-width:0.5;" width="212.3389" x="1197" y="547"/><ellipse cx="1212" cy="563" fill="#2E5233" rx="11" ry="11" style="stroke:#E7E7E7;stroke-width:1;"/><path d="M1214.9688,568.6406 Q1214.3906,568.9375 1213.75,569.0781 Q1213.1094,569.2344 1212.4063,569.2344 Q1209.9063,569.2344 1208.5781,567.5938 Q1207.2656,565.9375 1207.2656,562.8125 Q1207.2656,559.6875 1208.5781,558.0313 Q1209.9063,556.375 1212.4063,556.375 Q1213.1094,556.375 1213.75,556.5313 Q1214.4063,556.6875 1214.9688,556.9844 L1214.9688,559.7031 Q1214.3438,559.125 1213.75,558.8594 Q1213.1563,558.5781 1212.5313,558.5781 Q1211.1875,558.5781 1210.5,559.6563 Q1209.8125,560.7188 1209.8125,562.8125 Q1209.8125,564.9063 1210.5,565.9844 Q1211.1875,567.0469 1212.5313,567.0469 Q1213.1563,567.0469 1213.75,566.7813 Q1214.3438,566.5 1214.9688,565.9219 L1214.9688,568.6406 Z " fill="#FFFFFF"/><text fill="#FFFFFF" font-family="sans-serif" font-size="14" lengthAdjust="spacing" textLength="180.3389" x="1226" y="567.8467">GroupHandlerServiceImpl</text></g><!--class GroupEvent--><g class="entity" data-entity="GroupEvent" data-source-line="96" data-uid="ent0004" id="entity_GroupEvent"><rect fill="#313139" height="40.2656" rx="2.5" ry="2.5" style="stroke:#E7E7E7;stroke-width:0.5;" width="125.7461" x="1878" y="84"/><ellipse cx="1893" cy="104.1328" fill="#352866" rx="11" ry="11" style="stroke:#E7E7E7;stroke-width:1;"/><path d="M1888.9219,99.8984 L1888.9219,97.7422 L1896.3125,97.7422 L1896.3125,99.8984 L1893.8438,99.8984 L1893.8438,107.9766 L1896.3125,107.9766 L1896.3125,110.1328 L1888.9219,110.1328 L1888.9219,107.9766 L1891.3906,107.9766 L1891.3906,99.8984 L1888.9219,99.8984 Z " fill="#FFFFFF"/><text fill="#000000" font-family="sans-serif" font-size="12" font-style="italic" lengthAdjust="spacing" textLength="97.7461" x="1905" y="100.1387">&#171;domain event&#187;</text><text fill="#FFFFFF" font-family="sans-serif" font-size="14" font-style="italic" lengthAdjust="spacing" textLength="83.0361" x="1912.355" y="115.9639">GroupEvent</text></g><!--class ClientJoinedToGroup--><g class="entity" data-entity="ClientJoinedToGroup" data-source-line="97" data-uid="ent0005" id="entity_ClientJoinedToGroup"><rect fill="#313139" height="40.2656" rx="2.5" ry="2.5" style="stroke:#E7E7E7;stroke-width:0.5;" width="175.5342" x="1524" y="216.5"/><ellipse cx="1539" cy="236.6328" fill="#352866" rx="11" ry="11" style="stroke:#E7E7E7;stroke-width:1;"/><path d="M1534.9219,232.3984 L1534.9219,230.2422 L1542.3125,230.2422 L1542.3125,232.3984 L1539.8438,232.3984 L1539.8438,240.4766 L1542.3125,240.4766 L1542.3125,242.6328 L1534.9219,242.6328 L1534.9219,240.4766 L1537.3906,240.4766 L1537.3906,232.3984 L1534.9219,232.3984 Z " fill="#FFFFFF"/><text fill="#000000" font-family="sans-serif" font-size="12" font-style="italic" lengthAdjust="spacing" textLength="97.7461" x="1575.894" y="232.6387">&#171;domain event&#187;</text><text fill="#FFFFFF" font-family="sans-serif" font-size="14" font-style="italic" lengthAdjust="spacing" textLength="143.5342" x="1553" y="248.4639">ClientJoinedToGroup</text></g><!--class ClientLeavedFromGroup--><g class="entity" data-entity="ClientLeavedFromGroup" data-source-line="98" data-uid="ent0007" id="entity_ClientLeavedFromGroup"><rect fill="#313139" height="40.2656" rx="2.5" ry="2.5" style="stroke:#E7E7E7;stroke-width:0.5;" width="202.249" x="1735" y="216.5"/><ellipse cx="1750" cy="236.6328" fill="#352866" rx="11" ry="11" style="stroke:#E7E7E7;stroke-width:1;"/><path d="M1745.9219,232.3984 L1745.9219,230.2422 L1753.3125,230.2422 L1753.3125,232.3984 L1750.8438,232.3984 L1750.8438,240.4766 L1753.3125,240.4766 L1753.3125,242.6328 L1745.9219,242.6328 L1745.9219,240.4766 L1748.3906,240.4766 L1748.3906,232.3984 L1745.9219,232.3984 Z " fill="#FFFFFF"/><text fill="#000000" font-family="sans-serif" font-size="12" font-style="italic" lengthAdjust="spacing" textLength="97.7461" x="1800.2515" y="232.6387">&#171;domain event&#187;</text><text fill="#FFFFFF" font-family="sans-serif" font-size="14" font-style="italic" lengthAdjust="spacing" textLength="170.249" x="1764" y="248.4639">ClientLeavedFromGroup</text></g><!--class ClientConnected--><g class="entity" data-entity="ClientConnected" data-source-line="99" data-uid="ent0009" id="entity_ClientConnected"><rect fill="#313139" height="40.2656" rx="2.5" ry="2.5" style="stroke:#E7E7E7;stroke-width:0.5;" width="147.917" x="1972" y="216.5"/><ellipse cx="1987" cy="236.6328" fill="#352866" rx="11" ry="11" style="stroke:#E7E7E7;stroke-width:1;"/><path d="M1982.9219,232.3984 L1982.9219,230.2422 L1990.3125,230.2422 L1990.3125,232.3984 L1987.8438,232.3984 L1987.8438,240.4766 L1990.3125,240.4766 L1990.3125,242.6328 L1982.9219,242.6328 L1982.9219,240.4766 L1985.3906,240.4766 L1985.3906,232.3984 L1982.9219,232.3984 Z " fill="#FFFFFF"/><text fill="#000000" font-family="sans-serif" font-size="12" font-style="italic" lengthAdjust="spacing" textLength="97.7461" x="2010.0854" y="232.6387">&#171;domain event&#187;</text><text fill="#FFFFFF" font-family="sans-serif" font-size="14" font-style="italic" lengthAdjust="spacing" textLength="115.917" x="2001" y="248.4639">ClientConnected</text></g><!--class ClientDisconnected--><g class="entity" data-entity="ClientDisconnected" data-source-line="100" data-uid="ent0011" id="entity_ClientDisconnected"><rect fill="#313139" height="40.2656" rx="2.5" ry="2.5" style="stroke:#E7E7E7;stroke-width:0.5;" width="167.8027" x="2155" y="216.5"/><ellipse cx="2170" cy="236.6328" fill="#352866" rx="11" ry="11" style="stroke:#E7E7E7;stroke-width:1;"/><path d="M2165.9219,232.3984 L2165.9219,230.2422 L2173.3125,230.2422 L2173.3125,232.3984 L2170.8438,232.3984 L2170.8438,240.4766 L2173.3125,240.4766 L2173.3125,242.6328 L2165.9219,242.6328 L2165.9219,240.4766 L2168.3906,240.4766 L2168.3906,232.3984 L2165.9219,232.3984 Z " fill="#FFFFFF"/><text fill="#000000" font-family="sans-serif" font-size="12" font-style="italic" lengthAdjust="spacing" textLength="97.7461" x="2203.0283" y="232.6387">&#171;domain event&#187;</text><text fill="#FFFFFF" font-family="sans-serif" font-size="14" font-style="italic" lengthAdjust="spacing" textLength="135.8027" x="2184" y="248.4639">ClientDisconnected</text></g><!--class Message--><g class="entity" data-entity="Message" data-source-line="101" data-uid="ent0013" id="entity_Message"><rect fill="#313139" height="40.2656" rx="2.5" ry="2.5" style="stroke:#E7E7E7;stroke-width:0.5;" width="125.7461" x="2358" y="216.5"/><ellipse cx="2373" cy="236.6328" fill="#352866" rx="11" ry="11" style="stroke:#E7E7E7;stroke-width:1;"/><path d="M2368.9219,232.3984 L2368.9219,230.2422 L2376.3125,230.2422 L2376.3125,232.3984 L2373.8438,232.3984 L2373.8438,240.4766 L2376.3125,240.4766 L2376.3125,242.6328 L2368.9219,242.6328 L2368.9219,240.4766 L2371.3906,240.4766 L2371.3906,232.3984 L2368.9219,232.3984 Z " fill="#FFFFFF"/><text fill="#000000" font-family="sans-serif" font-size="12" font-style="italic" lengthAdjust="spacing" textLength="97.7461" x="2385" y="232.6387">&#171;domain event&#187;</text><text fill="#FFFFFF" font-family="sans-serif" font-size="14" font-style="italic" lengthAdjust="spacing" textLength="61.3594" x="2403.1934" y="248.4639">Message</text></g><!--class GroupCommand--><g class="entity" data-entity="GroupCommand" data-source-line="105" data-uid="ent0016" id="entity_GroupCommand"><rect fill="#313139" height="32" rx="2.5" ry="2.5" style="stroke:#E7E7E7;stroke-width:0.5;" width="146.8848" x="582.5" y="88"/><ellipse cx="597.5" cy="104" fill="#352866" rx="11" ry="11" style="stroke:#E7E7E7;stroke-width:1;"/><path d="M593.4219,99.7656 L593.4219,97.6094 L600.8125,97.6094 L600.8125,99.7656 L598.3438,99.7656 L598.3438,107.8438 L600.8125,107.8438 L600.8125,110 L593.4219,110 L593.4219,107.8438 L595.8906,107.8438 L595.8906,99.7656 L593.4219,99.7656 Z " fill="#FFFFFF"/><text fill="#FFFFFF" font-family="sans-serif" font-size="14" font-style="italic" lengthAdjust="spacing" textLength="114.8848" x="611.5" y="108.8467">GroupCommand</text></g><!--class DeleteGroup--><g class="entity" data-entity="DeleteGroup" data-source-line="106" data-uid="ent0017" id="entity_DeleteGroup"><rect fill="#313139" height="32" rx="2.5" ry="2.5" style="stroke:#E7E7E7;stroke-width:0.5;" width="120.9287" x="46.5" y="220.5"/><ellipse cx="61.5" cy="236.5" fill="#352866" rx="11" ry="11" style="stroke:#E7E7E7;stroke-width:1;"/><path d="M57.4219,232.2656 L57.4219,230.1094 L64.8125,230.1094 L64.8125,232.2656 L62.3438,232.2656 L62.3438,240.3438 L64.8125,240.3438 L64.8125,242.5 L57.4219,242.5 L57.4219,240.3438 L59.8906,240.3438 L59.8906,232.2656 L57.4219,232.2656 Z " fill="#FFFFFF"/><text fill="#FFFFFF" font-family="sans-serif" font-size="14" font-style="italic" lengthAdjust="spacing" textLength="88.9287" x="75.5" y="241.3467">DeleteGroup</text></g><!--class ClientJoinsGroup--><g class="entity" data-entity="ClientJoinsGroup" data-source-line="107" data-uid="ent0019" id="entity_ClientJoinsGroup"><rect fill="#313139" height="32" rx="2.5" ry="2.5" style="stroke:#E7E7E7;stroke-width:0.5;" width="148.2109" x="203" y="220.5"/><ellipse cx="218" cy="236.5" fill="#352866" rx="11" ry="11" style="stroke:#E7E7E7;stroke-width:1;"/><path d="M213.9219,232.2656 L213.9219,230.1094 L221.3125,230.1094 L221.3125,232.2656 L218.8438,232.2656 L218.8438,240.3438 L221.3125,240.3438 L221.3125,242.5 L213.9219,242.5 L213.9219,240.3438 L216.3906,240.3438 L216.3906,232.2656 L213.9219,232.2656 Z " fill="#FFFFFF"/><text fill="#FFFFFF" font-family="sans-serif" font-size="14" font-style="italic" lengthAdjust="spacing" textLength="116.2109" x="232" y="241.3467">ClientJoinsGroup</text></g><!--class ClientLeavesGroup--><g class="entity" data-entity="ClientLeavesGroup" data-source-line="108" data-uid="ent0021" id="entity_ClientLeavesGroup"><rect fill="#313139" height="32" rx="2.5" ry="2.5" style="stroke:#E7E7E7;stroke-width:0.5;" width="164.6445" x="386.5" y="220.5"/><ellipse cx="401.5" cy="236.5" fill="#352866" rx="11" ry="11" style="stroke:#E7E7E7;stroke-width:1;"/><path d="M397.4219,232.2656 L397.4219,230.1094 L404.8125,230.1094 L404.8125,232.2656 L402.3438,232.2656 L402.3438,240.3438 L404.8125,240.3438 L404.8125,242.5 L397.4219,242.5 L397.4219,240.3438 L399.8906,240.3438 L399.8906,232.2656 L397.4219,232.2656 Z " fill="#FFFFFF"/><text fill="#FFFFFF" font-family="sans-serif" font-size="14" font-style="italic" lengthAdjust="spacing" textLength="132.6445" x="415.5" y="241.3467">ClientLeavesGroup</text></g><!--class ClientConnects--><g class="entity" data-entity="ClientConnects" data-source-line="109" data-uid="ent0023" id="entity_ClientConnects"><rect fill="#313139" height="32" rx="2.5" ry="2.5" style="stroke:#E7E7E7;stroke-width:0.5;" width="137.7109" x="587" y="220.5"/><ellipse cx="602" cy="236.5" fill="#352866" rx="11" ry="11" style="stroke:#E7E7E7;stroke-width:1;"/><path d="M597.9219,232.2656 L597.9219,230.1094 L605.3125,230.1094 L605.3125,232.2656 L602.8438,232.2656 L602.8438,240.3438 L605.3125,240.3438 L605.3125,242.5 L597.9219,242.5 L597.9219,240.3438 L600.3906,240.3438 L600.3906,232.2656 L597.9219,232.2656 Z " fill="#FFFFFF"/><text fill="#FFFFFF" font-family="sans-serif" font-size="14" font-style="italic" lengthAdjust="spacing" textLength="105.7109" x="616" y="241.3467">ClientConnects</text></g><!--class ClientDisconnects--><g class="entity" data-entity="ClientDisconnects" data-source-line="110" data-uid="ent0025" id="entity_ClientDisconnects"><rect fill="#313139" height="32" rx="2.5" ry="2.5" style="stroke:#E7E7E7;stroke-width:0.5;" width="157.5967" x="760" y="220.5"/><ellipse cx="775" cy="236.5" fill="#352866" rx="11" ry="11" style="stroke:#E7E7E7;stroke-width:1;"/><path d="M770.9219,232.2656 L770.9219,230.1094 L778.3125,230.1094 L778.3125,232.2656 L775.8438,232.2656 L775.8438,240.3438 L778.3125,240.3438 L778.3125,242.5 L770.9219,242.5 L770.9219,240.3438 L773.3906,240.3438 L773.3906,232.2656 L770.9219,232.2656 Z " fill="#FFFFFF"/><text fill="#FFFFFF" font-family="sans-serif" font-size="14" font-style="italic" lengthAdjust="spacing" textLength="125.5967" x="789" y="241.3467">ClientDisconnects</text></g><!--class SendMessage--><g class="entity" data-entity="SendMessage" data-source-line="111" data-uid="ent0027" id="entity_SendMessage"><rect fill="#313139" height="32" rx="2.5" ry="2.5" style="stroke:#E7E7E7;stroke-width:0.5;" width="128.6191" x="953.5" y="220.5"/><ellipse cx="968.5" cy="236.5" fill="#352866" rx="11" ry="11" style="stroke:#E7E7E7;stroke-width:1;"/><path d="M964.4219,232.2656 L964.4219,230.1094 L971.8125,230.1094 L971.8125,232.2656 L969.3438,232.2656 L969.3438,240.3438 L971.8125,240.3438 L971.8125,242.5 L964.4219,242.5 L964.4219,240.3438 L966.8906,240.3438 L966.8906,232.2656 L964.4219,232.2656 Z " fill="#FFFFFF"/><text fill="#FFFFFF" font-family="sans-serif" font-size="14" font-style="italic" lengthAdjust="spacing" textLength="96.6191" x="982.5" y="241.3467">SendMessage</text></g><!--class Route--><g class="entity" data-entity="Route" data-source-line="141" data-uid="ent0040" id="entity_Route"><rect fill="#313139" height="80.8594" rx="2.5" ry="2.5" style="stroke:#E7E7E7;stroke-width:0.5;" width="116.3828" x="717" y="654"/><ellipse cx="732" cy="674.1328" fill="#352866" rx="11" ry="11" style="stroke:#E7E7E7;stroke-width:1;"/><path d="M727.9219,669.8984 L727.9219,667.7422 L735.3125,667.7422 L735.3125,669.8984 L732.8438,669.8984 L732.8438,677.9766 L735.3125,677.9766 L735.3125,680.1328 L727.9219,680.1328 L727.9219,677.9766 L730.3906,677.9766 L730.3906,669.8984 L727.9219,669.8984 Z " fill="#FFFFFF"/><text fill="#000000" font-family="sans-serif" font-size="12" font-style="italic" lengthAdjust="spacing" textLength="88.3828" x="744" y="670.1387">&#171;value object&#187;</text><text fill="#FFFFFF" font-family="sans-serif" font-size="14" font-style="italic" lengthAdjust="spacing" textLength="41.2686" x="767.5571" y="685.9639">Route</text><line style="stroke:#E7E7E7;stroke-width:0.5;" x1="718" x2="832.3828" y1="694.2656" y2="694.2656"/><ellipse cx="728" cy="707.9141" fill="none" rx="3" ry="3" style="stroke:#038048;stroke-width:1;"/><text fill="#FFFFFF" font-family="sans-serif" font-size="14" lengthAdjust="spacing" textLength="51.2764" x="737" y="711.2607">version</text><ellipse cx="728" cy="724.2109" fill="none" rx="3" ry="3" style="stroke:#038048;stroke-width:1;"/><text fill="#FFFFFF" font-family="sans-serif" font-size="14" lengthAdjust="spacing" textLength="31.8281" x="737" y="727.5576">path</text></g><!--class RealTimeService--><g class="entity" data-entity="RealTimeService" data-source-line="146" data-uid="ent0041" id="entity_RealTimeService"><rect fill="#313139" height="78.5313" rx="2.5" ry="2.5" style="stroke:#E7E7E7;stroke-width:0.5;" width="312.7676" x="868.5" y="655"/><ellipse cx="962.0122" cy="682.1172" fill="#352866" rx="11" ry="11" style="stroke:#E7E7E7;stroke-width:1;"/><path d="M957.9341,677.8828 L957.9341,675.7266 L965.3247,675.7266 L965.3247,677.8828 L962.856,677.8828 L962.856,685.9609 L965.3247,685.9609 L965.3247,688.1172 L957.9341,688.1172 L957.9341,685.9609 L960.4028,685.9609 L960.4028,677.8828 L957.9341,677.8828 Z " fill="#FFFFFF"/><text fill="#000000" font-family="sans-serif" font-size="12" font-style="italic" lengthAdjust="spacing" textLength="57.7969" x="1012.2354" y="671.1387">&#171;service&#187;</text><text fill="#000000" font-family="sans-serif" font-size="12" font-style="italic" lengthAdjust="spacing" textLength="39.4102" x="1021.4287" y="685.1074">&#171;port&#187;</text><text fill="#FFFFFF" font-family="sans-serif" font-size="14" font-style="italic" lengthAdjust="spacing" textLength="117.2432" x="982.5122" y="700.9326">RealTimeService</text><line style="stroke:#E7E7E7;stroke-width:0.5;" x1="869.5" x2="1180.2676" y1="709.2344" y2="709.2344"/><ellipse cx="879.5" cy="722.8828" fill="#84BE84" rx="3" ry="3" style="stroke:#038048;stroke-width:1;"/><text fill="#FFFFFF" font-family="sans-serif" font-size="14" lengthAdjust="spacing" textLength="286.7676" x="888.5" y="726.2295">connect(clientID: String, groupID: String)</text></g><!--class MessageHandler--><g class="entity" data-entity="MessageHandler" data-source-line="155" data-uid="ent0047" id="entity_MessageHandler"><rect fill="#313139" height="56.2969" rx="2.5" ry="2.5" style="stroke:#E7E7E7;stroke-width:0.5;" width="380.2656" x="1342" y="795"/><ellipse cx="1469.6406" cy="811" fill="#352866" rx="11" ry="11" style="stroke:#E7E7E7;stroke-width:1;"/><path d="M1465.5625,806.7656 L1465.5625,804.6094 L1472.9531,804.6094 L1472.9531,806.7656 L1470.4844,806.7656 L1470.4844,814.8438 L1472.9531,814.8438 L1472.9531,817 L1465.5625,817 L1465.5625,814.8438 L1468.0313,814.8438 L1468.0313,806.7656 L1465.5625,806.7656 Z " fill="#FFFFFF"/><text fill="#FFFFFF" font-family="sans-serif" font-size="14" font-style="italic" lengthAdjust="spacing" textLength="116.4844" x="1490.1406" y="815.8467">MessageHandler</text><line style="stroke:#E7E7E7;stroke-width:0.5;" x1="1343" x2="1721.2656" y1="827" y2="827"/><ellipse cx="1353" cy="840.6484" fill="#84BE84" rx="3" ry="3" style="stroke:#038048;stroke-width:1;"/><text fill="#FFFFFF" font-family="sans-serif" font-size="14" lengthAdjust="spacing" textLength="354.2656" x="1362" y="843.9951">handle(type:MessageType, message: ByteStream)</text></g><!--class ConnectionProvider--><g class="entity" data-entity="ConnectionProvider" data-source-line="159" data-uid="ent0048" id="entity_ConnectionProvider"><rect fill="#313139" height="72.5938" rx="2.5" ry="2.5" style="stroke:#E7E7E7;stroke-width:0.5;" width="169.4092" x="1237.5" y="658"/><ellipse cx="1252.5" cy="674" fill="#352866" rx="11" ry="11" style="stroke:#E7E7E7;stroke-width:1;"/><path d="M1248.4219,669.7656 L1248.4219,667.6094 L1255.8125,667.6094 L1255.8125,669.7656 L1253.3438,669.7656 L1253.3438,677.8438 L1255.8125,677.8438 L1255.8125,680 L1248.4219,680 L1248.4219,677.8438 L1250.8906,677.8438 L1250.8906,669.7656 L1248.4219,669.7656 Z " fill="#FFFFFF"/><text fill="#FFFFFF" font-family="sans-serif" font-size="14" font-style="italic" lengthAdjust="spacing" textLength="137.4092" x="1266.5" y="678.8467">ConnectionProvider</text><line style="stroke:#E7E7E7;stroke-width:0.5;" x1="1238.5" x2="1405.9092" y1="690" y2="690"/><ellipse cx="1248.5" cy="703.6484" fill="#84BE84" rx="3" ry="3" style="stroke:#038048;stroke-width:1;"/><text fill="#FFFFFF" font-family="sans-serif" font-size="14" lengthAdjust="spacing" textLength="66.7324" x="1257.5" y="706.9951">connect()</text><ellipse cx="1248.5" cy="719.9453" fill="#84BE84" rx="3" ry="3" style="stroke:#038048;stroke-width:1;"/><text fill="#FFFFFF" font-family="sans-serif" font-size="14" lengthAdjust="spacing" textLength="86.8027" x="1257.5" y="723.292">disconnect()</text></g><!--class MessageConsumer--><g class="entity" data-entity="MessageConsumer" data-source-line="164" data-uid="ent0049" id="entity_MessageConsumer"><rect fill="#313139" height="78.5313" rx="2.5" ry="2.5" style="stroke:#E7E7E7;stroke-width:0.5;" width="279.5996" x="1442" y="655"/><ellipse cx="1511.1763" cy="682.1172" fill="#352866" rx="11" ry="11" style="stroke:#E7E7E7;stroke-width:1;"/><path d="M1507.0981,677.8828 L1507.0981,675.7266 L1514.4888,675.7266 L1514.4888,677.8828 L1512.02,677.8828 L1512.02,685.9609 L1514.4888,685.9609 L1514.4888,688.1172 L1507.0981,688.1172 L1507.0981,685.9609 L1509.5669,685.9609 L1509.5669,677.8828 L1507.0981,677.8828 Z " fill="#FFFFFF"/><text fill="#000000" font-family="sans-serif" font-size="12" font-style="italic" lengthAdjust="spacing" textLength="57.7969" x="1569.1514" y="671.1387">&#171;service&#187;</text><text fill="#000000" font-family="sans-serif" font-size="12" font-style="italic" lengthAdjust="spacing" textLength="54.1641" x="1570.9678" y="685.1074">&#171;in port&#187;</text><text fill="#FFFFFF" font-family="sans-serif" font-size="14" font-style="italic" lengthAdjust="spacing" textLength="132.7471" x="1531.6763" y="700.9326">MessageConsumer</text><line style="stroke:#E7E7E7;stroke-width:0.5;" x1="1443" x2="1720.5996" y1="709.2344" y2="709.2344"/><ellipse cx="1453" cy="722.8828" fill="#84BE84" rx="3" ry="3" style="stroke:#038048;stroke-width:1;"/><text fill="#FFFFFF" font-family="sans-serif" font-size="14" lengthAdjust="spacing" textLength="253.5996" x="1462" y="726.2295">consume(handler: MessageHandler)</text></g><!--reverse link GroupEvent to ClientJoinedToGroup--><g class="link" data-entity-1="GroupEvent" data-entity-2="ClientJoinedToGroup" data-source-line="97" data-uid="lnk6" id="link_GroupEvent_ClientJoinedToGroup"><path d="M1864.5413,129.6748 C1819.2113,144.6748 1772.56,161.17 1718,184 C1694.6,193.79 1669,206.18 1648.82,216.36" fill="none" id="GroupEvent-backto-ClientJoinedToGroup" style="stroke:#E7E7E7;stroke-width:1;"/><polygon fill="none" points="1881.63,124.02,1862.6564,123.9785,1866.4262,135.371,1881.63,124.02" style="stroke:#E7E7E7;stroke-width:1;"/></g><!--reverse link GroupEvent to ClientLeavedFromGroup--><g class="link" data-entity-1="GroupEvent" data-entity-2="ClientLeavedFromGroup" data-source-line="98" data-uid="lnk8" id="link_GroupEvent_ClientLeavedFromGroup"><path d="M1914.2226,138.2812 C1894.3626,162.9512 1871.44,191.45 1851.56,216.17" fill="none" id="GroupEvent-backto-ClientLeavedFromGroup" style="stroke:#E7E7E7;stroke-width:1;"/><polygon fill="none" points="1925.51,124.26,1909.5488,134.5187,1918.8963,142.0437,1925.51,124.26" style="stroke:#E7E7E7;stroke-width:1;"/></g><!--reverse link GroupEvent to ClientConnected--><g class="link" data-entity-1="GroupEvent" data-entity-2="ClientConnected" data-source-line="99" data-uid="lnk10" id="link_GroupEvent_ClientConnected"><path d="M1967.7774,138.2812 C1987.6374,162.9512 2010.56,191.45 2030.44,216.17" fill="none" id="GroupEvent-backto-ClientConnected" style="stroke:#E7E7E7;stroke-width:1;"/><polygon fill="none" points="1956.49,124.26,1963.1037,142.0437,1972.4512,134.5187,1956.49,124.26" style="stroke:#E7E7E7;stroke-width:1;"/></g><!--reverse link GroupEvent to ClientDisconnected--><g class="link" data-entity-1="GroupEvent" data-entity-2="ClientDisconnected" data-source-line="100" data-uid="lnk12" id="link_GroupEvent_ClientDisconnected"><path d="M2008.9592,130.4621 C2049.0392,145.7421 2089.19,161.82 2138,184 C2160.04,194.01 2184.22,206.29 2203.39,216.35" fill="none" id="GroupEvent-backto-ClientDisconnected" style="stroke:#E7E7E7;stroke-width:1;"/><polygon fill="none" points="1992.14,124.05,2006.8218,136.0685,2011.0966,124.8557,1992.14,124.05" style="stroke:#E7E7E7;stroke-width:1;"/></g><!--reverse link GroupEvent to Message--><g class="link" data-entity-1="GroupEvent" data-entity-2="Message" data-source-line="101" data-uid="lnk14" id="link_GroupEvent_Message"><path d="M2021.9692,111.8858 C2102.5992,120.0158 2227.43,138.18 2341,184 C2361.07,192.1 2381.55,205.39 2396.76,216.45" fill="none" id="GroupEvent-backto-Message" style="stroke:#E7E7E7;stroke-width:1;"/><polygon fill="none" points="2004.06,110.08,2021.3673,117.8555,2022.5711,105.9161,2004.06,110.08" style="stroke:#E7E7E7;stroke-width:1;"/></g><!--reverse link GroupCommand to DeleteGroup--><g class="link" data-entity-1="GroupCommand" data-entity-2="DeleteGroup" data-source-line="106" data-uid="lnk18" id="link_GroupCommand_DeleteGroup"><path d="M564.5241,109.0178 C469.6541,114.8678 318.86,131.33 185,184 C162.65,192.79 140.07,208.63 125,220.43" fill="none" id="GroupCommand-backto-DeleteGroup" style="stroke:#E7E7E7;stroke-width:1;"/><polygon fill="none" points="582.49,107.91,564.1548,103.0292,564.8934,115.0065,582.49,107.91" style="stroke:#E7E7E7;stroke-width:1;"/></g><!--reverse link GroupCommand to ClientJoinsGroup--><g class="link" data-entity-1="GroupCommand" data-entity-2="ClientJoinsGroup" data-source-line="107" data-uid="lnk20" id="link_GroupCommand_ClientJoinsGroup"><path d="M565.1811,123.9702 C506.2111,137.2702 439.4,155.11 369,184 C344.62,194.01 318.55,209.05 300.42,220.3" fill="none" id="GroupCommand-backto-ClientJoinsGroup" style="stroke:#E7E7E7;stroke-width:1;"/><polygon fill="none" points="582.74,120.01,563.861,118.1172,566.5011,129.8232,582.74,120.01" style="stroke:#E7E7E7;stroke-width:1;"/></g><!--reverse link GroupCommand to ClientLeavesGroup--><g class="link" data-entity-1="GroupCommand" data-entity-2="ClientLeavesGroup" data-source-line="108" data-uid="lnk22" id="link_GroupCommand_ClientLeavesGroup"><path d="M619.4183,130.53 C583.3883,155.67 526.62,195.29 490.68,220.37" fill="none" id="GroupCommand-backto-ClientLeavesGroup" style="stroke:#E7E7E7;stroke-width:1;"/><polygon fill="none" points="634.18,120.23,615.9849,125.6095,622.8516,135.4506,634.18,120.23" style="stroke:#E7E7E7;stroke-width:1;"/></g><!--reverse link GroupCommand to ClientConnects--><g class="link" data-entity-1="GroupCommand" data-entity-2="ClientConnects" data-source-line="109" data-uid="lnk24" id="link_GroupCommand_ClientConnects"><path d="M656,138.23 C656,163.37 656,195.29 656,220.37" fill="none" id="GroupCommand-backto-ClientConnects" style="stroke:#E7E7E7;stroke-width:1;"/><polygon fill="none" points="656,120.23,650,138.23,662,138.23,656,120.23" style="stroke:#E7E7E7;stroke-width:1;"/></g><!--reverse link GroupCommand to ClientDisconnects--><g class="link" data-entity-1="GroupCommand" data-entity-2="ClientDisconnects" data-source-line="110" data-uid="lnk26" id="link_GroupCommand_ClientDisconnects"><path d="M692.0062,130.6797 C727.2662,155.8197 782.61,195.29 817.79,220.37" fill="none" id="GroupCommand-backto-ClientDisconnects" style="stroke:#E7E7E7;stroke-width:1;"/><polygon fill="none" points="677.35,120.23,688.523,135.5651,695.4894,125.7943,677.35,120.23" style="stroke:#E7E7E7;stroke-width:1;"/></g><!--reverse link GroupCommand to SendMessage--><g class="link" data-entity-1="GroupCommand" data-entity-2="SendMessage" data-source-line="111" data-uid="lnk28" id="link_GroupCommand_SendMessage"><path d="M747.1925,123.6544 C804.8525,136.6044 868.72,154.12 936,184 C958.28,193.89 981.63,209.1 997.69,220.43" fill="none" id="GroupCommand-backto-SendMessage" style="stroke:#E7E7E7;stroke-width:1;"/><polygon fill="none" points="729.63,119.71,745.8777,129.5086,748.5073,117.8002,729.63,119.71" style="stroke:#E7E7E7;stroke-width:1;"/></g><!--reverse link GroupCommand to GroupHandler--><g class="link" data-entity-1="GroupCommand" data-entity-2="GroupHandler" data-source-line="122" data-uid="lnk31" id="link_GroupCommand_GroupHandler"><path codeLine="122" d="M735.5244,117.4395 C823.6844,131.5695 969.73,156.19 1099,184 C1105.07,185.31 1111.24,186.67 1117.45,188.07" fill="none" id="GroupCommand-backto-GroupHandler" style="stroke:#E7E7E7;stroke-width:1;stroke-dasharray:7.0,7.0;"/><polygon fill="#E7E7E7" points="729.6,116.49,737.8536,121.8639,734.537,117.2813,739.1196,113.9647,729.6,116.49" style="stroke:#E7E7E7;stroke-width:1;"/></g><!--reverse link GroupEvent to GroupHandler--><g class="link" data-entity-1="GroupEvent" data-entity-2="GroupHandler" data-source-line="123" data-uid="lnk33" id="link_GroupEvent_GroupHandler"><path codeLine="123" d="M1872.0799,116.1358 C1787.5699,130.0658 1638.88,155.65 1508,184 C1501.63,185.38 1495.17,186.81 1488.64,188.29" fill="none" id="GroupEvent-backto-GroupHandler" style="stroke:#E7E7E7;stroke-width:1;stroke-dasharray:7.0,7.0;"/><polygon fill="#E7E7E7" points="1878,115.16,1868.4693,112.677,1873.0666,115.9732,1869.7704,120.5705,1878,115.16" style="stroke:#E7E7E7;stroke-width:1;"/></g><!--reverse link GroupHandler to GroupHandlerService--><g class="link" data-entity-1="GroupHandler" data-entity-2="GroupHandlerService" data-source-line="134" data-uid="lnk36" id="link_GroupHandler_GroupHandlerService"><path codeLine="134" d="M1303,295.42 C1303,313.95 1303,329.12 1303,348.82" fill="none" id="GroupHandler-backto-GroupHandlerService" style="stroke:#E7E7E7;stroke-width:1;stroke-dasharray:7.0,7.0;"/><polygon fill="#E7E7E7" points="1303,289.42,1299,298.42,1303,294.42,1307,298.42,1303,289.42" style="stroke:#E7E7E7;stroke-width:1;"/><text fill="#FFFFFF" font-family="sans-serif" font-size="13" lengthAdjust="spacing" textLength="48.3247" x="1251.9605" y="309.2267">creates</text></g><!--reverse link GroupHandlerService to GroupHandlerServiceImpl--><g class="link" data-entity-1="GroupHandlerService" data-entity-2="GroupHandlerServiceImpl" data-source-line="136" data-uid="lnk38" id="link_GroupHandlerService_GroupHandlerServiceImpl"><path d="M1303,505.15 C1303,527.59 1303,532.48 1303,546.93" fill="none" id="GroupHandlerService-backto-GroupHandlerServiceImpl" style="stroke:#E7E7E7;stroke-width:1;stroke-dasharray:7.0,7.0;"/><polygon fill="none" points="1303,487.15,1297,505.15,1309,505.15,1303,487.15" style="stroke:#E7E7E7;stroke-width:1;"/></g><!--link Route to RealTimeService--><g class="link" data-entity-1="Route" data-entity-2="RealTimeService" data-source-line="150" data-uid="lnk43" id="link_Route_RealTimeService"><path codeLine="150" d="M839.11,694.5 C850.85,694.5 844.59,694.5 856.34,694.5" fill="none" id="Route-RealTimeService" style="stroke:#E7E7E7;stroke-width:1;"/><polygon fill="#E7E7E7" points="833.11,694.5,842.11,698.5,838.11,694.5,842.11,690.5,833.11,694.5" style="stroke:#E7E7E7;stroke-width:1;"/><polygon fill="#E7E7E7" points="868.34,694.5,862.34,690.5,856.34,694.5,862.34,698.5,868.34,694.5" style="stroke:#E7E7E7;stroke-width:1;"/><text fill="#FFFFFF" font-family="sans-serif" font-size="13" lengthAdjust="spacing" textLength="24.7749" x="835.6198" y="690.4514">1..n</text></g><!--link GroupHandlerServiceImpl to RealTimeService--><g class="link" data-entity-1="GroupHandlerServiceImpl" data-entity-2="RealTimeService" data-source-line="151" data-uid="lnk45" id="link_GroupHandlerServiceImpl_RealTimeService"><path codeLine="151" d="M1265.1311,581.6434 C1225.5211,600.0934 1173.3977,624.3728 1118.8077,649.8028" fill="none" id="GroupHandlerServiceImpl-RealTimeService" style="stroke:#E7E7E7;stroke-width:1;"/><polygon fill="#E7E7E7" points="1270.57,579.11,1260.7227,579.2842,1266.0376,581.2212,1264.1006,586.5361,1270.57,579.11" style="stroke:#E7E7E7;stroke-width:1;"/><polygon fill="#E7E7E7" points="1107.93,654.87,1115.0579,655.9623,1118.8077,649.8028,1111.6798,648.7105,1107.93,654.87" style="stroke:#E7E7E7;stroke-width:1;"/><text fill="#FFFFFF" font-family="sans-serif" font-size="13" lengthAdjust="spacing" textLength="8.271" x="1250.4913" y="599.0197">1</text></g><!--link ConnectionProvider to MessageConsumer--><g class="link" data-entity-1="ConnectionProvider" data-entity-2="MessageConsumer" data-source-line="168" data-uid="lnk51" id="link_ConnectionProvider_MessageConsumer"><path codeLine="168" d="M1412.55,694.5 C1424.32,694.5 1418.08,694.5 1429.85,694.5" fill="none" id="ConnectionProvider-MessageConsumer" style="stroke:#E7E7E7;stroke-width:1;"/><polygon fill="#E7E7E7" points="1406.55,694.5,1415.55,698.5,1411.55,694.5,1415.55,690.5,1406.55,694.5" style="stroke:#E7E7E7;stroke-width:1;"/><polygon fill="#E7E7E7" points="1441.85,694.5,1435.85,690.5,1429.85,694.5,1435.85,698.5,1441.85,694.5" style="stroke:#E7E7E7;stroke-width:1;"/></g><!--link MessageConsumer to MessageHandler--><g class="link" data-entity-1="MessageConsumer" data-entity-2="MessageHandler" data-source-line="169" data-uid="lnk52" id="link_MessageConsumer_MessageHandler"><path codeLine="169" d="M1562.3165,745.2989 C1554.5565,764.9189 1551.9466,771.5405 1544.9466,789.2405" fill="none" id="MessageConsumer-MessageHandler" style="stroke:#E7E7E7;stroke-width:1;"/><polygon fill="#E7E7E7" points="1566.73,734.14,1560.8036,738.2483,1562.3165,745.2989,1568.2429,741.1906,1566.73,734.14" style="stroke:#E7E7E7;stroke-width:1;"/><polygon fill="#E7E7E7" points="1542.74,794.82,1549.7696,787.9218,1544.5788,790.1704,1542.3302,784.9797,1542.74,794.82" style="stroke:#E7E7E7;stroke-width:1;"/></g><!--link GroupHandlerServiceImpl to MessageConsumer--><g class="link" data-entity-1="GroupHandlerServiceImpl" data-entity-2="MessageConsumer" data-source-line="170" data-uid="lnk54" id="link_GroupHandlerServiceImpl_MessageConsumer"><path codeLine="170" d="M1350.8151,581.1676 C1374.2851,589.8776 1398.24,599.32 1424,611 C1453.31,624.29 1474.2844,634.7667 1501.4444,649.2067" fill="none" id="GroupHandlerServiceImpl-MessageConsumer" style="stroke:#E7E7E7;stroke-width:1;"/><polygon fill="#E7E7E7" points="1345.19,579.08,1352.236,585.9614,1349.8776,580.8196,1355.0194,578.4612,1345.19,579.08" style="stroke:#E7E7E7;stroke-width:1;"/><polygon fill="#E7E7E7" points="1512.04,654.84,1508.62,648.4915,1501.4444,649.2067,1504.8645,655.5552,1512.04,654.84" style="stroke:#E7E7E7;stroke-width:1;"/><text fill="#FFFFFF" font-family="sans-serif" font-size="13" lengthAdjust="spacing" textLength="8.271" x="1349.8292" y="598.9798">1</text></g><!--SRC=[fLRTRjem6BtFKrXSqQqWxJQAk1ZifrCdJOCNCCu7k8ljp7Qo8RHttqViq3Y9szBc8aBsET_VENOuy1m8YD8UYG2n1MsIah9VT0-4ovscnkgAsKe3EIK9mQVTXHganKNY7oujw1rbGBveLPMVckqiovMWN3hqOa56uCk2uzutnINa6zMGXppuQq7cfXCx6kaUQ0tvPwt4ssCjbPJ0BEHlYhBYXbqJQ6nAty6OyzXVMiU_K2scXA0oZ-krz82H_HKKOC4DCyZcEKzgQbx1QnHy3T7BPQvZFSfZo4kPQmIraaGfNeFcHRTuaYYpX1NKUEnN11QWKLC3kkOCKCv7WTwJ_HcKEcndcJLLf-IU6vkv5XQNxTciWpmq2QPU_3Iey2QDM2OeRLwLyyMminZ61Kj6_EN1QzTeq6RU-6lQT7ktIidQQYxtDnt40ngflt_hvp3EACuMkexYFN0TARzuvpgUGSSypxZ5ExdnM1XYHAXshawB2TD0BPX9W76ieVyyzqwK1U7u0e55Z498WgdRAmLJ59QBhfOZ1-MdgkpvrgffKG5HsmSSLM1pDuyQFpnSoTvgIUtXikIxxeN78ZPOH5jWzoXbMQdqMB9MiU6uenxi9E-dV3ShO6TdEFKFyxcSk8wVG5TbWvt4DEZEc8hVfIz_y2beZzzfUE3jiOJKmpRuk-EZZqSBs1nG4NYfSoUwuQ0OFxIgyT-1FeqSaiWPYCJqfM1eKudUXPTb-34R2DLaEeEdhYMTzjeEClNZNoGPDXF1v-gFH7oO8u9zNa2a_GS0]--></g></svg>