<svg xmlns="http://www.w3.org/2000/svg" xmlns:xlink="http://www.w3.org/1999/xlink" contentStyleType="text/css" data-diagram-type="DESCRIPTION" height="588px" preserveAspectRatio="none" style="width:1679px;height:588px;background:#FFFFFF;" version="1.1" viewBox="0 0 1679 588" width="1679px" zoomAndPan="magnify"><defs/><g><!--cluster CN--><g class="cluster" data-entity="CN" data-source-line="305" data-uid="ent0003" id="cluster_CN"><polygon fill="none" points="1445,154.5,1455,144.5,1641,144.5,1641,236.5,1631,246.5,1445,246.5,1445,154.5" style="stroke:#181818;stroke-width:1;"/><line style="stroke:#181818;stroke-width:1;" x1="1631" x2="1641" y1="154.5" y2="144.5"/><line style="stroke:#181818;stroke-width:1;" x1="1445" x2="1631" y1="154.5" y2="154.5"/><line style="stroke:#181818;stroke-width:1;" x1="1631" x2="1631" y1="154.5" y2="246.5"/><text fill="#000000" font-family="sans-serif" font-size="14" font-weight="bold" lengthAdjust="spacing" textLength="91.752" x="1493.124" y="170.4951">Client Node</text></g><!--cluster INF--><g class="cluster" data-entity="INF" data-source-line="310" data-uid="ent0005" id="cluster_INF"><polygon fill="none" points="16,154.5,26,144.5,1421,144.5,1421,561.5,1411,571.5,16,571.5,16,154.5" style="stroke:#181818;stroke-width:1;"/><line style="stroke:#181818;stroke-width:1;" x1="1411" x2="1421" y1="154.5" y2="144.5"/><line style="stroke:#181818;stroke-width:1;" x1="16" x2="1411" y1="154.5" y2="154.5"/><line style="stroke:#181818;stroke-width:1;" x1="1411" x2="1411" y1="154.5" y2="571.5"/><text fill="#000000" font-family="sans-serif" font-size="14" font-weight="bold" lengthAdjust="spacing" textLength="110.8721" x="659.064" y="170.4951">Infrastructure</text></g><!--cluster NS--><g class="cluster" data-entity="NS" data-source-line="316" data-uid="ent0008" id="cluster_NS"><rect fill="none" height="236" rx="2.5" ry="2.5" style="stroke:#181818;stroke-width:1;" width="248" x="48" y="303.5"/><rect fill="none" height="10" style="stroke:#181818;stroke-width:1;" width="15" x="276" y="308.5"/><rect fill="none" height="2" style="stroke:#181818;stroke-width:1;" width="4" x="274" y="310.5"/><rect fill="none" height="2" style="stroke:#181818;stroke-width:1;" width="4" x="274" y="314.5"/><text fill="#000000" font-family="sans-serif" font-size="14" font-weight="bold" lengthAdjust="spacing" textLength="92.5381" x="125.731" y="329.4951">Notification</text></g><!--cluster US--><g class="cluster" data-entity="US" data-source-line="323" data-uid="ent0012" id="cluster_US"><rect fill="none" height="236" rx="2.5" ry="2.5" style="stroke:#181818;stroke-width:1;" width="200" x="423" y="303.5"/><rect fill="none" height="10" style="stroke:#181818;stroke-width:1;" width="15" x="603" y="308.5"/><rect fill="none" height="2" style="stroke:#181818;stroke-width:1;" width="4" x="601" y="310.5"/><rect fill="none" height="2" style="stroke:#181818;stroke-width:1;" width="4" x="601" y="314.5"/><text fill="#000000" font-family="sans-serif" font-size="14" font-weight="bold" lengthAdjust="spacing" textLength="36.1006" x="504.9497" y="329.4951">User</text></g><!--cluster LS--><g class="cluster" data-entity="LS" data-source-line="330" data-uid="ent0016" id="cluster_LS"><rect fill="none" height="236" rx="2.5" ry="2.5" style="stroke:#181818;stroke-width:1;" width="228" x="834" y="303.5"/><rect fill="none" height="10" style="stroke:#181818;stroke-width:1;" width="15" x="1042" y="308.5"/><rect fill="none" height="2" style="stroke:#181818;stroke-width:1;" width="4" x="1040" y="310.5"/><rect fill="none" height="2" style="stroke:#181818;stroke-width:1;" width="4" x="1040" y="314.5"/><text fill="#000000" font-family="sans-serif" font-size="14" font-weight="bold" lengthAdjust="spacing" textLength="67.3613" x="914.3193" y="329.4951">Location</text></g><!--cluster CS--><g class="cluster" data-entity="CS" data-source-line="337" data-uid="ent0020" id="cluster_CS"><rect fill="none" height="236" rx="2.5" ry="2.5" style="stroke:#181818;stroke-width:1;" width="200" x="1189" y="303.5"/><rect fill="none" height="10" style="stroke:#181818;stroke-width:1;" width="15" x="1369" y="308.5"/><rect fill="none" height="2" style="stroke:#181818;stroke-width:1;" width="4" x="1367" y="310.5"/><rect fill="none" height="2" style="stroke:#181818;stroke-width:1;" width="4" x="1367" y="314.5"/><text fill="#000000" font-family="sans-serif" font-size="14" font-weight="bold" lengthAdjust="spacing" textLength="36.3809" x="1270.8096" y="329.4951">Chat</text></g><!--entity CA--><g class="entity" data-entity="CA" data-source-line="306" data-uid="ent0004" id="entity_CA"><rect fill="#F1F1F1" height="46.2969" rx="2.5" ry="2.5" style="stroke:#181818;stroke-width:0.5;" width="163.2041" x="1461.5" y="184.5"/><rect fill="#F1F1F1" height="10" style="stroke:#181818;stroke-width:0.5;" width="15" x="1604.7041" y="189.5"/><rect fill="#F1F1F1" height="2" style="stroke:#181818;stroke-width:0.5;" width="4" x="1602.7041" y="191.5"/><rect fill="#F1F1F1" height="2" style="stroke:#181818;stroke-width:0.5;" width="4" x="1602.7041" y="195.5"/><text fill="#000000" font-family="sans-serif" font-size="14" lengthAdjust="spacing" textLength="123.2041" x="1476.5" y="217.4951">Client Application</text></g><!--entity AGW--><g class="entity" data-entity="AGW" data-source-line="313" data-uid="ent0006" id="entity_AGW"><rect fill="#F1F1F1" height="46.2969" rx="2.5" ry="2.5" style="stroke:#181818;stroke-width:0.5;" width="128.4434" x="778" y="184.5"/><rect fill="#F1F1F1" height="10" style="stroke:#181818;stroke-width:0.5;" width="15" x="886.4434" y="189.5"/><rect fill="#F1F1F1" height="2" style="stroke:#181818;stroke-width:0.5;" width="4" x="884.4434" y="191.5"/><rect fill="#F1F1F1" height="2" style="stroke:#181818;stroke-width:0.5;" width="4" x="884.4434" y="195.5"/><text fill="#000000" font-family="sans-serif" font-size="14" lengthAdjust="spacing" textLength="88.4434" x="793" y="217.4951">API Gateway</text></g><!--entity MB--><g class="entity" data-entity="MB" data-source-line="314" data-uid="ent0007" id="entity_MB"><rect fill="#F1F1F1" height="46.2969" rx="2.5" ry="2.5" style="stroke:#181818;stroke-width:0.5;" width="152.2119" x="653" y="469.5"/><rect fill="#F1F1F1" height="10" style="stroke:#181818;stroke-width:0.5;" width="15" x="785.2119" y="474.5"/><rect fill="#F1F1F1" height="2" style="stroke:#181818;stroke-width:0.5;" width="4" x="783.2119" y="476.5"/><rect fill="#F1F1F1" height="2" style="stroke:#181818;stroke-width:0.5;" width="4" x="783.2119" y="480.5"/><text fill="#000000" font-family="sans-serif" font-size="14" lengthAdjust="spacing" textLength="112.2119" x="668" y="502.4951">Message Broker</text></g><!--entity NSI--><g class="entity" data-entity="NSI" data-source-line="317" data-uid="ent0009" id="entity_NSI"><rect fill="#F1F1F1" height="46.2969" rx="2.5" ry="2.5" style="stroke:#181818;stroke-width:0.5;" width="176.5205" x="75.5" y="346.5"/><rect fill="#F1F1F1" height="10" style="stroke:#181818;stroke-width:0.5;" width="15" x="232.0205" y="351.5"/><rect fill="#F1F1F1" height="2" style="stroke:#181818;stroke-width:0.5;" width="4" x="230.0205" y="353.5"/><rect fill="#F1F1F1" height="2" style="stroke:#181818;stroke-width:0.5;" width="4" x="230.0205" y="357.5"/><text fill="#000000" font-family="sans-serif" font-size="14" lengthAdjust="spacing" textLength="136.5205" x="90.5" y="379.4951">Notification Service</text></g><!--entity ND--><g class="entity" data-entity="ND" data-source-line="318" data-uid="ent0010" id="entity_ND"><rect fill="#F1F1F1" height="46.2969" rx="2.5" ry="2.5" style="stroke:#181818;stroke-width:0.5;" width="191.5801" x="72" y="469.5"/><rect fill="#F1F1F1" height="10" style="stroke:#181818;stroke-width:0.5;" width="15" x="243.5801" y="474.5"/><rect fill="#F1F1F1" height="2" style="stroke:#181818;stroke-width:0.5;" width="4" x="241.5801" y="476.5"/><rect fill="#F1F1F1" height="2" style="stroke:#181818;stroke-width:0.5;" width="4" x="241.5801" y="480.5"/><text fill="#000000" font-family="sans-serif" font-size="14" lengthAdjust="spacing" textLength="151.5801" x="87" y="502.4951">Notification Database</text></g><!--entity USI--><g class="entity" data-entity="USI" data-source-line="324" data-uid="ent0013" id="entity_USI"><rect fill="#F1F1F1" height="46.2969" rx="2.5" ry="2.5" style="stroke:#181818;stroke-width:0.5;" width="128.1016" x="452" y="346.5"/><rect fill="#F1F1F1" height="10" style="stroke:#181818;stroke-width:0.5;" width="15" x="560.1016" y="351.5"/><rect fill="#F1F1F1" height="2" style="stroke:#181818;stroke-width:0.5;" width="4" x="558.1016" y="353.5"/><rect fill="#F1F1F1" height="2" style="stroke:#181818;stroke-width:0.5;" width="4" x="558.1016" y="357.5"/><text fill="#000000" font-family="sans-serif" font-size="14" lengthAdjust="spacing" textLength="88.1016" x="467" y="379.4951">User Service</text></g><!--entity UD--><g class="entity" data-entity="UD" data-source-line="325" data-uid="ent0014" id="entity_UD"><rect fill="#F1F1F1" height="46.2969" rx="2.5" ry="2.5" style="stroke:#181818;stroke-width:0.5;" width="143.1611" x="447.5" y="469.5"/><rect fill="#F1F1F1" height="10" style="stroke:#181818;stroke-width:0.5;" width="15" x="570.6611" y="474.5"/><rect fill="#F1F1F1" height="2" style="stroke:#181818;stroke-width:0.5;" width="4" x="568.6611" y="476.5"/><rect fill="#F1F1F1" height="2" style="stroke:#181818;stroke-width:0.5;" width="4" x="568.6611" y="480.5"/><text fill="#000000" font-family="sans-serif" font-size="14" lengthAdjust="spacing" textLength="103.1611" x="462.5" y="502.4951">User Database</text></g><!--entity LSI--><g class="entity" data-entity="LSI" data-source-line="331" data-uid="ent0017" id="entity_LSI"><rect fill="#F1F1F1" height="46.2969" rx="2.5" ry="2.5" style="stroke:#181818;stroke-width:0.5;" width="155.6504" x="877" y="346.5"/><rect fill="#F1F1F1" height="10" style="stroke:#181818;stroke-width:0.5;" width="15" x="1012.6504" y="351.5"/><rect fill="#F1F1F1" height="2" style="stroke:#181818;stroke-width:0.5;" width="4" x="1010.6504" y="353.5"/><rect fill="#F1F1F1" height="2" style="stroke:#181818;stroke-width:0.5;" width="4" x="1010.6504" y="357.5"/><text fill="#000000" font-family="sans-serif" font-size="14" lengthAdjust="spacing" textLength="115.6504" x="892" y="379.4951">Location Service</text></g><!--entity LD--><g class="entity" data-entity="LD" data-source-line="332" data-uid="ent0018" id="entity_LD"><rect fill="#F1F1F1" height="46.2969" rx="2.5" ry="2.5" style="stroke:#181818;stroke-width:0.5;" width="170.71" x="866.5" y="469.5"/><rect fill="#F1F1F1" height="10" style="stroke:#181818;stroke-width:0.5;" width="15" x="1017.21" y="474.5"/><rect fill="#F1F1F1" height="2" style="stroke:#181818;stroke-width:0.5;" width="4" x="1015.21" y="476.5"/><rect fill="#F1F1F1" height="2" style="stroke:#181818;stroke-width:0.5;" width="4" x="1015.21" y="480.5"/><text fill="#000000" font-family="sans-serif" font-size="14" lengthAdjust="spacing" textLength="130.71" x="881.5" y="502.4951">Location Database</text></g><!--entity CSI--><g class="entity" data-entity="CSI" data-source-line="338" data-uid="ent0021" id="entity_CSI"><rect fill="#F1F1F1" height="46.2969" rx="2.5" ry="2.5" style="stroke:#181818;stroke-width:0.5;" width="128.9082" x="1232.5" y="346.5"/><rect fill="#F1F1F1" height="10" style="stroke:#181818;stroke-width:0.5;" width="15" x="1341.4082" y="351.5"/><rect fill="#F1F1F1" height="2" style="stroke:#181818;stroke-width:0.5;" width="4" x="1339.4082" y="353.5"/><rect fill="#F1F1F1" height="2" style="stroke:#181818;stroke-width:0.5;" width="4" x="1339.4082" y="357.5"/><text fill="#000000" font-family="sans-serif" font-size="14" lengthAdjust="spacing" textLength="88.9082" x="1247.5" y="379.4951">Chat Service</text></g><!--entity CD--><g class="entity" data-entity="CD" data-source-line="339" data-uid="ent0022" id="entity_CD"><rect fill="#F1F1F1" height="46.2969" rx="2.5" ry="2.5" style="stroke:#181818;stroke-width:0.5;" width="143.9678" x="1221" y="469.5"/><rect fill="#F1F1F1" height="10" style="stroke:#181818;stroke-width:0.5;" width="15" x="1344.9678" y="474.5"/><rect fill="#F1F1F1" height="2" style="stroke:#181818;stroke-width:0.5;" width="4" x="1342.9678" y="476.5"/><rect fill="#F1F1F1" height="2" style="stroke:#181818;stroke-width:0.5;" width="4" x="1342.9678" y="480.5"/><text fill="#000000" font-family="sans-serif" font-size="14" lengthAdjust="spacing" textLength="103.9678" x="1236" y="502.4951">Chat Database</text></g><!--entity U--><g class="entity" data-entity="U" data-source-line="304" data-uid="ent0002" id="entity_U"><ellipse cx="1542.9551" cy="14" fill="#F1F1F1" rx="8" ry="8" style="stroke:#181818;stroke-width:0.5;"/><path d="M1542.9551,22 L1542.9551,49 M1529.9551,30 L1555.9551,30 M1542.9551,49 L1529.9551,64 M1542.9551,49 L1555.9551,64" fill="none" style="stroke:#181818;stroke-width:0.5;"/><text fill="#000000" font-family="sans-serif" font-size="14" lengthAdjust="spacing" textLength="31.9102" x="1527" y="78.4951">User</text></g><!--link NSI to ND--><g class="link" data-entity-1="NSI" data-entity-2="ND" data-source-line="320" data-uid="lnk11" id="link_NSI_ND"><path d="M164.73,392.69 C165.46,414.53 166.55,447.66 167.27,469.45" fill="none" id="NSI-ND" style="stroke:#181818;stroke-width:1;"/></g><!--link USI to UD--><g class="link" data-entity-1="USI" data-entity-2="UD" data-source-line="327" data-uid="lnk15" id="link_USI_UD"><path d="M516.55,392.69 C517.09,414.53 517.91,447.66 518.45,469.45" fill="none" id="USI-UD" style="stroke:#181818;stroke-width:1;"/></g><!--link LSI to LD--><g class="link" data-entity-1="LSI" data-entity-2="LD" data-source-line="334" data-uid="lnk19" id="link_LSI_LD"><path d="M954.45,392.69 C953.91,414.53 953.09,447.66 952.55,469.45" fill="none" id="LSI-LD" style="stroke:#181818;stroke-width:1;"/></g><!--link CSI to CD--><g class="link" data-entity-1="CSI" data-entity-2="CD" data-source-line="341" data-uid="lnk23" id="link_CSI_CD"><path d="M1296.27,392.69 C1295.54,414.53 1294.45,447.66 1293.73,469.45" fill="none" id="CSI-CD" style="stroke:#181818;stroke-width:1;"/></g><!--link LS to MB--><g class="link" data-entity-1="LS" data-entity-2="MB" data-source-line="344" data-uid="lnk24" id="link_LS_MB"><path d="M833.9554,375.3603 C833.8855,375.4039 833.8152,375.4477 833.7445,375.4919 C829.2222,378.3169 823.1656,382.23 816.4038,386.9425 C802.88,396.3675 786.535,408.99 774,422.5 C760.87,436.65 749.07,455.07 740.86,469.31" fill="none" id="LS-MB" style="stroke:#181818;stroke-width:1;stroke-dasharray:7.0,7.0;"/><text fill="#000000" font-family="sans-serif" font-size="13" lengthAdjust="spacing" textLength="74.3311" x="775" y="435.5669">&#171;message&#187;</text></g><!--link CS to MB--><g class="link" data-entity-1="CS" data-entity-2="MB" data-source-line="345" data-uid="lnk25" id="link_CS_MB"><path d="M1188.5462,372.6822 C1188.3487,372.7333 1188.1479,372.7852 1187.9439,372.838 C1187.5359,372.9435 1187.1149,373.0523 1186.6812,373.1644 C1185.8137,373.3887 1184.8953,373.6261 1183.9272,373.8764 C1176.1829,375.8786 1165.2651,378.7013 1151.9039,382.1558 C1125.1816,389.0647 1088.6856,398.5006 1048.2563,408.9538 C967.3975,429.86 870.805,454.835 805.2,471.8" fill="none" id="CS-MB" style="stroke:#181818;stroke-width:1;stroke-dasharray:7.0,7.0;"/><text fill="#000000" font-family="sans-serif" font-size="13" lengthAdjust="spacing" textLength="74.3311" x="993" y="435.5669">&#171;message&#187;</text></g><!--link NS to MB--><g class="link" data-entity-1="NS" data-entity-2="MB" data-source-line="346" data-uid="lnk26" id="link_NS_MB"><path d="M296.354,372.7911 C296.7303,372.8944 297.1185,373.0009 297.5184,373.1107 C298.3184,373.3302 299.1653,373.5626 300.058,373.8076 C307.1996,375.7674 317.2689,378.5304 329.6022,381.9145 C354.2688,388.6828 387.9913,397.9356 425.46,408.2163 C500.3975,428.7775 590.32,453.45 652.75,470.58" fill="none" id="NS-MB" style="stroke:#181818;stroke-width:1;stroke-dasharray:7.0,7.0;"/><text fill="#000000" font-family="sans-serif" font-size="13" lengthAdjust="spacing" textLength="74.3311" x="536" y="435.5669">&#171;message&#187;</text></g><!--link US to MB--><g class="link" data-entity-1="US" data-entity-2="MB" data-source-line="347" data-uid="lnk27" id="link_US_MB"><path d="M623.0184,379.4838 C623.1461,379.6264 623.275,379.7703 623.4053,379.9157 C623.9262,380.4973 624.4674,381.1012 625.0279,381.7261 C626.1488,382.976 627.3466,384.3101 628.6123,385.7179 C631.1438,388.5334 633.9469,391.6434 636.95,394.9638 C648.9625,408.245 664.175,424.89 678,439.5 C687.39,449.42 697.93,460.22 706.98,469.4" fill="none" id="US-MB" style="stroke:#181818;stroke-width:1;stroke-dasharray:7.0,7.0;"/><text fill="#000000" font-family="sans-serif" font-size="13" lengthAdjust="spacing" textLength="74.3311" x="679" y="435.5669">&#171;message&#187;</text></g><!--link AGW to US--><g class="link" data-entity-1="AGW" data-entity-2="US" data-source-line="349" data-uid="lnk28" id="link_AGW_US"><path d="M810.44,230.75 C779.74,252.385 731.915,286.0925 691.26,314.7475 C670.9325,329.075 652.3975,342.1394 638.6919,351.8 C635.2655,354.2152 632.1409,356.4176 629.3656,358.3738 C627.978,359.3519 626.6777,360.2685 625.4706,361.1194 C624.8671,361.5448 624.2868,361.9538 623.7307,362.3458 C623.5916,362.4438 623.4541,362.5408 623.3181,362.6367" fill="none" id="AGW-US" style="stroke:#181818;stroke-width:1;stroke-dasharray:7.0,7.0;"/><text fill="#000000" font-family="sans-serif" font-size="13" lengthAdjust="spacing" textLength="36.6514" x="764" y="275.5669">&#171;rpc&#187;</text></g><!--link AGW to LS--><g class="link" data-entity-1="AGW" data-entity-2="LS" data-source-line="350" data-uid="lnk29" id="link_AGW_LS"><path d="M842,230.75 C842,241.5675 842,255.4031 842,270.1163 C842,277.4728 842,285.0487 842,292.5765 C842,294.4584 842,296.3373 842,298.2091 C842,299.1449 842,300.079 842,301.0107 C842,301.4766 842,301.9419 842,302.4065 C842,302.6389 842,302.871 842,303.103" fill="none" id="AGW-LS" style="stroke:#181818;stroke-width:1;stroke-dasharray:7.0,7.0;"/><text fill="#000000" font-family="sans-serif" font-size="13" lengthAdjust="spacing" textLength="36.6514" x="843" y="275.5669">&#171;rpc&#187;</text></g><!--link AGW to CS--><g class="link" data-entity-1="AGW" data-entity-2="CS" data-source-line="351" data-uid="lnk30" id="link_AGW_CS"><path d="M906.16,229.43 C948.77,244.05 1005.58,264.94 1054,287.5 C1086.585,302.685 1121.735,322.545 1149.0313,338.7988 C1162.6794,346.9256 1174.3641,354.1509 1182.783,359.4395 C1184.8877,360.7617 1186.7883,361.9628 1188.4645,363.0267 C1188.5692,363.0932 1188.6731,363.1591 1188.7761,363.2245" fill="none" id="AGW-CS" style="stroke:#181818;stroke-width:1;stroke-dasharray:7.0,7.0;"/><text fill="#000000" font-family="sans-serif" font-size="13" lengthAdjust="spacing" textLength="36.6514" x="1033" y="275.5669">&#171;rpc&#187;</text></g><!--link AGW to NS--><g class="link" data-entity-1="AGW" data-entity-2="NS" data-source-line="352" data-uid="lnk31" id="link_AGW_NS"><path d="M777.96,214.3 C695.61,223.21 549.14,244.02 431,287.5 C397.26,299.915 362.0925,319.73 335.075,336.6537 C321.5662,345.1156 310.095,352.8547 301.8584,358.5845 C299.7993,360.017 297.9423,361.3239 296.3062,362.4851 C296.204,362.5577 296.1026,362.6297 296.0021,362.7011" fill="none" id="AGW-NS" style="stroke:#181818;stroke-width:1;stroke-dasharray:7.0,7.0;"/><text fill="#000000" font-family="sans-serif" font-size="13" lengthAdjust="spacing" textLength="36.6514" x="509" y="275.5669">&#171;rpc&#187;</text></g><!--link AGW to CA--><g class="link" data-entity-1="AGW" data-entity-2="CA" data-source-line="355" data-uid="lnk32" id="link_AGW_CA"><path d="M906.07,207.5 C1033.91,207.5 1320.49,207.5 1461.49,207.5" fill="none" id="AGW-CA" style="stroke:#181818;stroke-width:1;stroke-dasharray:7.0,7.0;"/><text fill="#000000" font-family="sans-serif" font-size="13" lengthAdjust="spacing" textLength="118.3521" x="1124.75" y="200.5669">&#171;http connection&#187;</text></g><!--link U to CA--><g class="link" data-entity-1="U" data-entity-2="CA" data-source-line="356" data-uid="lnk33" id="link_U_CA"><path d="M1543,81.67 C1543,113.43 1543,158.05 1543,184.45" fill="none" id="U-CA" style="stroke:#181818;stroke-width:1;stroke-dasharray:7.0,7.0;"/><text fill="#000000" font-family="sans-serif" font-size="13" lengthAdjust="spacing" textLength="127.3721" x="1544" y="124.5669">&#171;client connection&#187;</text></g><!--SRC=[XPFHRi8W58RlUOeJx-q3BCQaOcQQ85bYoAuPeZOgD1HdbiLt7vJMWIkkT_3zv-JhwIaNLXkOi5QQ2V0M659wAs62JxLK5gWxTFUOmZS2zmXzRhJoRCYKJNEg1RUrLY5QeXj2VPzAxGnlhRa8Up6XLKLVNI_VxB5X-LR1YbjvvLzTibozFqRMictvNiB2w6Ell5wWnnJLjjx5JdJJwpy9maQQprh8lg3wDx_abd_mjYzOedk1AuRfr5_vq-sFtk-qCre-aEYmSPqkbsYmI8C53PRJ83gQ4Cce3A54XuphtBE94ecKI50YEILyu3OiKKR71n8LFAxIvH8D76dWe84J3JU1Ogklgd0RzGApsJcisdoEGiapIfzIbgKTTci-SBRnt3IYhumGoIESHpH2xZqxOkhzmRggqgE3jOqRd59I-4_dOWoA0OhmXyVu1m00]--></g></svg>