<svg xmlns="http://www.w3.org/2000/svg" xmlns:xlink="http://www.w3.org/1999/xlink" contentStyleType="text/css" data-diagram-type="DESCRIPTION" height="811px" preserveAspectRatio="none" style="width:1448px;height:811px;background:#FFFFFF;" version="1.1" viewBox="0 0 1448 811" width="1448px" zoomAndPan="magnify"><defs/><g><!--cluster CN--><g class="cluster" data-entity="CN" data-source-line="231" data-uid="ent0003" id="cluster_CN"><polygon fill="none" points="638,138.5,648,128.5,834,128.5,834,237.5,824,247.5,638,247.5,638,138.5" style="stroke:#181818;stroke-width:1;"/><line style="stroke:#181818;stroke-width:1;" x1="824" x2="834" y1="138.5" y2="128.5"/><line style="stroke:#181818;stroke-width:1;" x1="638" x2="824" y1="138.5" y2="138.5"/><line style="stroke:#181818;stroke-width:1;" x1="824" x2="824" y1="138.5" y2="247.5"/><text fill="#000000" font-family="sans-serif" font-size="14" font-weight="bold" lengthAdjust="spacing" textLength="91.752" x="686.124" y="154.4951">Client Node</text></g><!--cluster INF--><g class="cluster" data-entity="INF" data-source-line="235" data-uid="ent0005" id="cluster_INF"><polygon fill="none" points="16,290.5,26,280.5,1431,280.5,1431,784.5,1421,794.5,16,794.5,16,290.5" style="stroke:#181818;stroke-width:1;"/><line style="stroke:#181818;stroke-width:1;" x1="1421" x2="1431" y1="290.5" y2="280.5"/><line style="stroke:#181818;stroke-width:1;" x1="16" x2="1421" y1="290.5" y2="290.5"/><line style="stroke:#181818;stroke-width:1;" x1="1421" x2="1421" y1="290.5" y2="794.5"/><text fill="#000000" font-family="sans-serif" font-size="14" font-weight="bold" lengthAdjust="spacing" textLength="182.957" x="628.0215" y="306.4951">Backend Infrastructure</text></g><!--cluster NS--><g class="cluster" data-entity="NS" data-source-line="240" data-uid="ent0008" id="cluster_NS"><rect fill="none" height="238" rx="2.5" ry="2.5" style="stroke:#181818;stroke-width:1;" width="224" x="162" y="430.5"/><rect fill="none" height="10" style="stroke:#181818;stroke-width:1;" width="15" x="366" y="435.5"/><rect fill="none" height="2" style="stroke:#181818;stroke-width:1;" width="4" x="364" y="437.5"/><rect fill="none" height="2" style="stroke:#181818;stroke-width:1;" width="4" x="364" y="441.5"/><text fill="#000000" font-family="sans-serif" font-size="14" font-weight="bold" lengthAdjust="spacing" textLength="92.5381" x="227.731" y="456.4951">Notification</text></g><!--cluster US--><g class="cluster" data-entity="US" data-source-line="246" data-uid="ent0012" id="cluster_US"><rect fill="none" height="238" rx="2.5" ry="2.5" style="stroke:#181818;stroke-width:1;" width="176" x="410" y="430.5"/><rect fill="none" height="10" style="stroke:#181818;stroke-width:1;" width="15" x="566" y="435.5"/><rect fill="none" height="2" style="stroke:#181818;stroke-width:1;" width="4" x="564" y="437.5"/><rect fill="none" height="2" style="stroke:#181818;stroke-width:1;" width="4" x="564" y="441.5"/><text fill="#000000" font-family="sans-serif" font-size="14" font-weight="bold" lengthAdjust="spacing" textLength="36.1006" x="479.9497" y="456.4951">User</text></g><!--cluster LS--><g class="cluster" data-entity="LS" data-source-line="252" data-uid="ent0016" id="cluster_LS"><rect fill="none" height="238" rx="2.5" ry="2.5" style="stroke:#181818;stroke-width:1;" width="204" x="881" y="430.5"/><rect fill="none" height="10" style="stroke:#181818;stroke-width:1;" width="15" x="1065" y="435.5"/><rect fill="none" height="2" style="stroke:#181818;stroke-width:1;" width="4" x="1063" y="437.5"/><rect fill="none" height="2" style="stroke:#181818;stroke-width:1;" width="4" x="1063" y="441.5"/><text fill="#000000" font-family="sans-serif" font-size="14" font-weight="bold" lengthAdjust="spacing" textLength="67.3613" x="949.3193" y="456.4951">Location</text></g><!--cluster CS--><g class="cluster" data-entity="CS" data-source-line="258" data-uid="ent0020" id="cluster_CS"><rect fill="none" height="238" rx="2.5" ry="2.5" style="stroke:#181818;stroke-width:1;" width="176" x="1109" y="430.5"/><rect fill="none" height="10" style="stroke:#181818;stroke-width:1;" width="15" x="1265" y="435.5"/><rect fill="none" height="2" style="stroke:#181818;stroke-width:1;" width="4" x="1263" y="437.5"/><rect fill="none" height="2" style="stroke:#181818;stroke-width:1;" width="4" x="1263" y="441.5"/><text fill="#000000" font-family="sans-serif" font-size="14" font-weight="bold" lengthAdjust="spacing" textLength="36.3809" x="1178.8096" y="456.4951">Chat</text></g><!--entity CA--><g class="entity" data-entity="CA" data-source-line="232" data-uid="ent0004" id="entity_CA"><rect fill="#F1F1F1" height="62.5938" rx="2.5" ry="2.5" style="stroke:#181818;stroke-width:0.5;" width="163.2041" x="654.5" y="168.5"/><rect fill="#F1F1F1" height="10" style="stroke:#181818;stroke-width:0.5;" width="15" x="797.7041" y="173.5"/><rect fill="#F1F1F1" height="2" style="stroke:#181818;stroke-width:0.5;" width="4" x="795.7041" y="175.5"/><rect fill="#F1F1F1" height="2" style="stroke:#181818;stroke-width:0.5;" width="4" x="795.7041" y="179.5"/><text fill="#000000" font-family="sans-serif" font-size="14" font-style="italic" lengthAdjust="spacing" textLength="83.6172" x="689.2935" y="201.4951">&#171;container&#187;</text><text fill="#000000" font-family="sans-serif" font-size="14" lengthAdjust="spacing" textLength="123.2041" x="669.5" y="217.792">Client Application</text></g><!--entity AGW--><g class="entity" data-entity="AGW" data-source-line="237" data-uid="ent0006" id="entity_AGW"><polygon fill="#F1F1F1" points="672,330.5,682,320.5,800.4434,320.5,800.4434,373.0938,790.4434,383.0938,672,383.0938,672,330.5" style="stroke:#181818;stroke-width:0.5;"/><line style="stroke:#181818;stroke-width:0.5;" x1="790.4434" x2="800.4434" y1="330.5" y2="320.5"/><line style="stroke:#181818;stroke-width:0.5;" x1="672" x2="790.4434" y1="330.5" y2="330.5"/><line style="stroke:#181818;stroke-width:0.5;" x1="790.4434" x2="790.4434" y1="330.5" y2="383.0938"/><text fill="#000000" font-family="sans-serif" font-size="14" font-style="italic" lengthAdjust="spacing" textLength="83.6172" x="689.4131" y="353.4951">&#171;container&#187;</text><text fill="#000000" font-family="sans-serif" font-size="14" lengthAdjust="spacing" textLength="88.4434" x="687" y="369.792">API Gateway</text></g><!--entity MB--><g class="entity" data-entity="MB" data-source-line="238" data-uid="ent0007" id="entity_MB"><polygon fill="#F1F1F1" points="637,725.5,647,715.5,789.2119,715.5,789.2119,768.0938,779.2119,778.0938,637,778.0938,637,725.5" style="stroke:#181818;stroke-width:0.5;"/><line style="stroke:#181818;stroke-width:0.5;" x1="779.2119" x2="789.2119" y1="725.5" y2="715.5"/><line style="stroke:#181818;stroke-width:0.5;" x1="637" x2="779.2119" y1="725.5" y2="725.5"/><line style="stroke:#181818;stroke-width:0.5;" x1="779.2119" x2="779.2119" y1="725.5" y2="778.0938"/><text fill="#000000" font-family="sans-serif" font-size="14" font-style="italic" lengthAdjust="spacing" textLength="83.6172" x="666.2974" y="748.4951">&#171;container&#187;</text><text fill="#000000" font-family="sans-serif" font-size="14" lengthAdjust="spacing" textLength="112.2119" x="652" y="764.792">Message Broker</text></g><!--entity NSI--><g class="entity" data-entity="NSI" data-source-line="241" data-uid="ent0009" id="entity_NSI"><polygon fill="#F1F1F1" points="185.5,475.5,195.5,465.5,362.0205,465.5,362.0205,518.0938,352.0205,528.0938,185.5,528.0938,185.5,475.5" style="stroke:#181818;stroke-width:0.5;"/><line style="stroke:#181818;stroke-width:0.5;" x1="352.0205" x2="362.0205" y1="475.5" y2="465.5"/><line style="stroke:#181818;stroke-width:0.5;" x1="185.5" x2="352.0205" y1="475.5" y2="475.5"/><line style="stroke:#181818;stroke-width:0.5;" x1="352.0205" x2="352.0205" y1="475.5" y2="528.0938"/><text fill="#000000" font-family="sans-serif" font-size="14" font-style="italic" lengthAdjust="spacing" textLength="83.6172" x="226.9517" y="498.4951">&#171;container&#187;</text><text fill="#000000" font-family="sans-serif" font-size="14" lengthAdjust="spacing" textLength="136.5205" x="200.5" y="514.792">Notification Service</text></g><!--entity ND--><g class="entity" data-entity="ND" data-source-line="242" data-uid="ent0010" id="entity_ND"><polygon fill="#F1F1F1" points="178,599.5,188,589.5,369.5801,589.5,369.5801,642.0938,359.5801,652.0938,178,652.0938,178,599.5" style="stroke:#181818;stroke-width:0.5;"/><line style="stroke:#181818;stroke-width:0.5;" x1="359.5801" x2="369.5801" y1="599.5" y2="589.5"/><line style="stroke:#181818;stroke-width:0.5;" x1="178" x2="359.5801" y1="599.5" y2="599.5"/><line style="stroke:#181818;stroke-width:0.5;" x1="359.5801" x2="359.5801" y1="599.5" y2="652.0938"/><text fill="#000000" font-family="sans-serif" font-size="14" font-style="italic" lengthAdjust="spacing" textLength="83.6172" x="226.9814" y="622.4951">&#171;container&#187;</text><text fill="#000000" font-family="sans-serif" font-size="14" lengthAdjust="spacing" textLength="151.5801" x="193" y="638.792">Notification Database</text></g><!--entity USI--><g class="entity" data-entity="USI" data-source-line="247" data-uid="ent0013" id="entity_USI"><polygon fill="#F1F1F1" points="442,475.5,452,465.5,570.1016,465.5,570.1016,518.0938,560.1016,528.0938,442,528.0938,442,475.5" style="stroke:#181818;stroke-width:0.5;"/><line style="stroke:#181818;stroke-width:0.5;" x1="560.1016" x2="570.1016" y1="475.5" y2="465.5"/><line style="stroke:#181818;stroke-width:0.5;" x1="442" x2="560.1016" y1="475.5" y2="475.5"/><line style="stroke:#181818;stroke-width:0.5;" x1="560.1016" x2="560.1016" y1="475.5" y2="528.0938"/><text fill="#000000" font-family="sans-serif" font-size="14" font-style="italic" lengthAdjust="spacing" textLength="83.6172" x="459.2422" y="498.4951">&#171;container&#187;</text><text fill="#000000" font-family="sans-serif" font-size="14" lengthAdjust="spacing" textLength="88.1016" x="457" y="514.792">User Service</text></g><!--entity UD--><g class="entity" data-entity="UD" data-source-line="248" data-uid="ent0014" id="entity_UD"><polygon fill="#F1F1F1" points="426.5,599.5,436.5,589.5,569.6611,589.5,569.6611,642.0938,559.6611,652.0938,426.5,652.0938,426.5,599.5" style="stroke:#181818;stroke-width:0.5;"/><line style="stroke:#181818;stroke-width:0.5;" x1="559.6611" x2="569.6611" y1="599.5" y2="589.5"/><line style="stroke:#181818;stroke-width:0.5;" x1="426.5" x2="559.6611" y1="599.5" y2="599.5"/><line style="stroke:#181818;stroke-width:0.5;" x1="559.6611" x2="559.6611" y1="599.5" y2="652.0938"/><text fill="#000000" font-family="sans-serif" font-size="14" font-style="italic" lengthAdjust="spacing" textLength="83.6172" x="451.272" y="622.4951">&#171;container&#187;</text><text fill="#000000" font-family="sans-serif" font-size="14" lengthAdjust="spacing" textLength="103.1611" x="441.5" y="638.792">User Database</text></g><!--entity LSI--><g class="entity" data-entity="LSI" data-source-line="253" data-uid="ent0017" id="entity_LSI"><polygon fill="#F1F1F1" points="897,475.5,907,465.5,1052.6504,465.5,1052.6504,518.0938,1042.6504,528.0938,897,528.0938,897,475.5" style="stroke:#181818;stroke-width:0.5;"/><line style="stroke:#181818;stroke-width:0.5;" x1="1042.6504" x2="1052.6504" y1="475.5" y2="465.5"/><line style="stroke:#181818;stroke-width:0.5;" x1="897" x2="1042.6504" y1="475.5" y2="475.5"/><line style="stroke:#181818;stroke-width:0.5;" x1="1042.6504" x2="1042.6504" y1="475.5" y2="528.0938"/><text fill="#000000" font-family="sans-serif" font-size="14" font-style="italic" lengthAdjust="spacing" textLength="83.6172" x="928.0166" y="498.4951">&#171;container&#187;</text><text fill="#000000" font-family="sans-serif" font-size="14" lengthAdjust="spacing" textLength="115.6504" x="912" y="514.792">Location Service</text></g><!--entity LD--><g class="entity" data-entity="LD" data-source-line="254" data-uid="ent0018" id="entity_LD"><polygon fill="#F1F1F1" points="897.5,599.5,907.5,589.5,1068.21,589.5,1068.21,642.0938,1058.21,652.0938,897.5,652.0938,897.5,599.5" style="stroke:#181818;stroke-width:0.5;"/><line style="stroke:#181818;stroke-width:0.5;" x1="1058.21" x2="1068.21" y1="599.5" y2="589.5"/><line style="stroke:#181818;stroke-width:0.5;" x1="897.5" x2="1058.21" y1="599.5" y2="599.5"/><line style="stroke:#181818;stroke-width:0.5;" x1="1058.21" x2="1058.21" y1="599.5" y2="652.0938"/><text fill="#000000" font-family="sans-serif" font-size="14" font-style="italic" lengthAdjust="spacing" textLength="83.6172" x="936.0464" y="622.4951">&#171;container&#187;</text><text fill="#000000" font-family="sans-serif" font-size="14" lengthAdjust="spacing" textLength="130.71" x="912.5" y="638.792">Location Database</text></g><!--entity CSI--><g class="entity" data-entity="CSI" data-source-line="259" data-uid="ent0021" id="entity_CSI"><polygon fill="#F1F1F1" points="1132.5,475.5,1142.5,465.5,1261.4082,465.5,1261.4082,518.0938,1251.4082,528.0938,1132.5,528.0938,1132.5,475.5" style="stroke:#181818;stroke-width:0.5;"/><line style="stroke:#181818;stroke-width:0.5;" x1="1251.4082" x2="1261.4082" y1="475.5" y2="465.5"/><line style="stroke:#181818;stroke-width:0.5;" x1="1132.5" x2="1251.4082" y1="475.5" y2="475.5"/><line style="stroke:#181818;stroke-width:0.5;" x1="1251.4082" x2="1251.4082" y1="475.5" y2="528.0938"/><text fill="#000000" font-family="sans-serif" font-size="14" font-style="italic" lengthAdjust="spacing" textLength="83.6172" x="1150.1455" y="498.4951">&#171;container&#187;</text><text fill="#000000" font-family="sans-serif" font-size="14" lengthAdjust="spacing" textLength="88.9082" x="1147.5" y="514.792">Chat Service</text></g><!--entity CD--><g class="entity" data-entity="CD" data-source-line="260" data-uid="ent0022" id="entity_CD"><polygon fill="#F1F1F1" points="1125,599.5,1135,589.5,1268.9678,589.5,1268.9678,642.0938,1258.9678,652.0938,1125,652.0938,1125,599.5" style="stroke:#181818;stroke-width:0.5;"/><line style="stroke:#181818;stroke-width:0.5;" x1="1258.9678" x2="1268.9678" y1="599.5" y2="589.5"/><line style="stroke:#181818;stroke-width:0.5;" x1="1125" x2="1258.9678" y1="599.5" y2="599.5"/><line style="stroke:#181818;stroke-width:0.5;" x1="1258.9678" x2="1258.9678" y1="599.5" y2="652.0938"/><text fill="#000000" font-family="sans-serif" font-size="14" font-style="italic" lengthAdjust="spacing" textLength="83.6172" x="1150.1753" y="622.4951">&#171;container&#187;</text><text fill="#000000" font-family="sans-serif" font-size="14" lengthAdjust="spacing" textLength="103.9678" x="1140" y="638.792">Chat Database</text></g><!--entity U--><g class="entity" data-entity="U" data-source-line="229" data-uid="ent0002" id="entity_U"><ellipse cx="735.9551" cy="14" fill="#F1F1F1" rx="8" ry="8" style="stroke:#181818;stroke-width:0.5;"/><path d="M735.9551,22 L735.9551,49 M722.9551,30 L748.9551,30 M735.9551,49 L722.9551,64 M735.9551,49 L748.9551,64" fill="none" style="stroke:#181818;stroke-width:0.5;"/><text fill="#000000" font-family="sans-serif" font-size="14" lengthAdjust="spacing" textLength="31.9102" x="720" y="78.4951">User</text></g><!--link NSI to ND--><g class="link" data-entity-1="NSI" data-entity-2="ND" data-source-line="243" data-uid="lnk11" id="link_NSI_ND"><path d="M274,528.79 C274,547.28 274,570.73 274,589.22" fill="none" id="NSI-ND" style="stroke:#181818;stroke-width:1;"/></g><!--link USI to UD--><g class="link" data-entity-1="USI" data-entity-2="UD" data-source-line="249" data-uid="lnk15" id="link_USI_UD"><path d="M503.98,528.79 C502.77,547.28 501.23,570.73 500.02,589.22" fill="none" id="USI-UD" style="stroke:#181818;stroke-width:1;"/></g><!--link LSI to LD--><g class="link" data-entity-1="LSI" data-entity-2="LD" data-source-line="255" data-uid="lnk19" id="link_LSI_LD"><path d="M977.02,528.79 C978.23,547.28 979.77,570.73 980.98,589.22" fill="none" id="LSI-LD" style="stroke:#181818;stroke-width:1;"/></g><!--link CSI to CD--><g class="link" data-entity-1="CSI" data-entity-2="CD" data-source-line="261" data-uid="lnk23" id="link_CSI_CD"><path d="M1197,528.79 C1197,547.28 1197,570.73 1197,589.22" fill="none" id="CSI-CD" style="stroke:#181818;stroke-width:1;"/></g><!--link LSI to MB--><g class="link" data-entity-1="LSI" data-entity-2="MB" data-source-line="264" data-uid="lnk24" id="link_LSI_MB"><path d="M896.72,528.65 C865.33,543.64 830.41,564.01 804,589.5 C766.35,625.84 739.18,681.11 724.78,715.32" fill="none" id="LSI-MB" style="stroke:#181818;stroke-width:1;stroke-dasharray:7.0,7.0;"/><text fill="#000000" font-family="sans-serif" font-size="13" lengthAdjust="spacing" textLength="74.3311" x="805" y="625.5669">&#171;message&#187;</text></g><!--link CSI to MB--><g class="link" data-entity-1="CSI" data-entity-2="MB" data-source-line="265" data-uid="lnk25" id="link_CSI_MB"><path d="M1239.52,528.7 C1257.81,544.55 1277.21,565.58 1287,589.5 C1301.65,625.28 1312.65,647.56 1287,676.5 C1254.5,713.17 937.68,734.33 789.14,742.31" fill="none" id="CSI-MB" style="stroke:#181818;stroke-width:1;stroke-dasharray:7.0,7.0;"/><text fill="#000000" font-family="sans-serif" font-size="13" lengthAdjust="spacing" textLength="74.3311" x="1303" y="625.5669">&#171;message&#187;</text></g><!--link NSI to MB--><g class="link" data-entity-1="NSI" data-entity-2="MB" data-source-line="266" data-uid="lnk26" id="link_NSI_MB"><path d="M185.42,518.37 C147.67,531.91 107.27,553.98 85,589.5 C64.46,622.26 59.21,647.69 85,676.5 C121.24,716.98 477.54,736.43 636.78,743.16" fill="none" id="NSI-MB" style="stroke:#181818;stroke-width:1;stroke-dasharray:7.0,7.0;"/><text fill="#000000" font-family="sans-serif" font-size="13" lengthAdjust="spacing" textLength="74.3311" x="86" y="625.5669">&#171;message&#187;</text></g><!--link USI to MB--><g class="link" data-entity-1="USI" data-entity-2="MB" data-source-line="267" data-uid="lnk27" id="link_USI_MB"><path d="M533.73,528.6 C549.55,546.23 569.62,568.91 587,589.5 C623.34,632.54 663.98,683.56 689.03,715.36" fill="none" id="USI-MB" style="stroke:#181818;stroke-width:1;stroke-dasharray:7.0,7.0;"/><text fill="#000000" font-family="sans-serif" font-size="13" lengthAdjust="spacing" textLength="74.3311" x="659" y="625.5669">&#171;message&#187;</text></g><!--link AGW to USI--><g class="link" data-entity-1="AGW" data-entity-2="USI" data-source-line="269" data-uid="lnk28" id="link_AGW_USI"><path d="M686.94,383.5 C648.15,407.62 594.25,441.13 555.38,465.3" fill="none" id="AGW-USI" style="stroke:#181818;stroke-width:1;stroke-dasharray:7.0,7.0;"/></g><!--link AGW to LSI--><g class="link" data-entity-1="AGW" data-entity-2="LSI" data-source-line="270" data-uid="lnk29" id="link_AGW_LSI"><path d="M786.98,383.5 C827.28,407.62 883.3,441.13 923.69,465.3" fill="none" id="AGW-LSI" style="stroke:#181818;stroke-width:1;stroke-dasharray:7.0,7.0;"/></g><!--link AGW to CSI--><g class="link" data-entity-1="AGW" data-entity-2="CSI" data-source-line="271" data-uid="lnk30" id="link_AGW_CSI"><path d="M800.21,358.35 C871.88,366 990.24,383.7 1085,422.5 C1111.15,433.21 1137.71,450.31 1158.39,465.32" fill="none" id="AGW-CSI" style="stroke:#181818;stroke-width:1;stroke-dasharray:7.0,7.0;"/></g><!--link AGW to NSI--><g class="link" data-entity-1="AGW" data-entity-2="NSI" data-source-line="272" data-uid="lnk31" id="link_AGW_NSI"><path d="M671.69,361.17 C604.82,370.94 497.84,390.16 410,422.5 C379.65,433.67 347.74,450.61 322.46,465.41" fill="none" id="AGW-NSI" style="stroke:#181818;stroke-width:1;stroke-dasharray:7.0,7.0;"/></g><!--link CA to AGW--><g class="link" data-entity-1="CA" data-entity-2="AGW" data-source-line="275" data-uid="lnk33" id="link_CA_AGW"><path d="M736,231.72 C736,257.6 736,294.45 736,320.32" fill="none" id="CA-AGW" style="stroke:#181818;stroke-width:1;stroke-dasharray:7.0,7.0;"/></g><!--link U to CA--><g class="link" data-entity-1="U" data-entity-2="CA" data-source-line="276" data-uid="lnk34" id="link_U_CA"><path d="M736,81.51 C736,108.02 736,143.31 736,168.27" fill="none" id="U-CA" style="stroke:#181818;stroke-width:1;stroke-dasharray:7.0,7.0;"/></g><!--SRC=[VPFVQiCW5CRlynII- -O1HWcabfM0bKAHNPzPkuMs6epP6AFlFlyqIJiRlJj-ttVycHo16wLHpZgXSmGTObacrK6W79yR8GsYjl02fkWtGtPnTMcLTDhWgThst70mZP8vMYwvaWOQANHP-c2LNOUcA-0d8G-ebaSDdT4zDxqE_Mlw6WxmXmHxjQlH1epuXfydZQlDsvrtAxeEFWHQQNLoTudisrNsdvygqnn7SkkX-zibfxxt7hGN-glXuabtkgzJmJKOU8VkQN8z1cqJj5WCEzU8T_fBCQVJ4dmiulE111URk5ZWOdDSHDrzGnAp3Ng2ZqHyOoZ1I2P64XZ972F-11C6EUPpMe8DHsm-aE324nSENFY1oy4MHM5dyiM6Bs5qop8R0dCQJMXiHlEYVIjM7AVWLfB74Z-MRgGjhw_wjd0FcNbRzGS0]--></g></svg>