<svg xmlns="http://www.w3.org/2000/svg" xmlns:xlink="http://www.w3.org/1999/xlink" contentStyleType="text/css" data-diagram-type="DESCRIPTION" height="226px" preserveAspectRatio="none" style="width:299px;height:226px;background:#1B1B1B;" version="1.1" viewBox="0 0 299 226" width="299px" zoomAndPan="magnify"><defs/><g><rect fill="#1B1B1B" height="226" style="stroke:transparent;stroke-width:1;" width="299" x="0" y="0"/><!--cluster Restaurant--><g id="cluster_Restaurant"><rect fill="transparent" height="213" rx="2.5" ry="2.5" style="stroke:#E7E7E7;stroke-width:1;" width="168" x="125" y="7"/><text fill="#FFFFFF" font-family="sans-serif" font-size="14" font-weight="bold" lengthAdjust="spacing" textLength="87.7256" x="165.1372" y="21.9951">Restaurant</text></g><g id="elem_UC1"><ellipse cx="208.9112" cy="57.2422" fill="#313139" rx="55.9112" ry="14.7422" style="stroke:#E7E7E7;stroke-width:0.5;"/><text fill="#FFFFFF" font-family="sans-serif" font-size="14" lengthAdjust="spacing" textLength="61.4346" x="175.1939" y="60.9898">Eat Food</text></g><g id="elem_UC2"><ellipse cx="209.0699" cy="123.014" fill="#313139" rx="68.0699" ry="16.014" style="stroke:#E7E7E7;stroke-width:0.5;"/><text fill="#FFFFFF" font-family="sans-serif" font-size="14" lengthAdjust="spacing" textLength="87.5273" x="162.3062" y="126.7615">Pay for Food</text></g><g id="elem_UC3"><ellipse cx="209.0194" cy="189.0513" fill="#313139" rx="38.0194" ry="14.5513" style="stroke:#E7E7E7;stroke-width:0.5;"/><text fill="#FFFFFF" font-family="sans-serif" font-size="14" lengthAdjust="spacing" textLength="37.4063" x="188.6033" y="192.463">Drink</text></g><!--entity fc--><g id="elem_fc"><ellipse cx="43.5088" cy="93.5" fill="#313139" rx="8" ry="8" style="stroke:#E7E7E7;stroke-width:0.5;"/><path d="M43.5088,101.5 L43.5088,128.5 M30.5088,109.5 L56.5088,109.5 M43.5088,128.5 L30.5088,143.5 M43.5088,128.5 L56.5088,143.5 " fill="transparent" style="stroke:#E7E7E7;stroke-width:0.5;"/><text fill="#FFFFFF" font-family="sans-serif" font-size="14" lengthAdjust="spacing" textLength="75.0176" x="6" y="157.9951">Food Critic</text></g><!--link fc to UC1--><g id="link_fc_UC1"><path d="M81.07,104.98 C92.47,99.6 105.16,93.84 117,89 C135.29,81.52 150.367,76.0543 167.437,70.2743 " fill="transparent" id="fc-to-UC1" style="stroke:#E7E7E7;stroke-width:1;"/><polygon fill="#E7E7E7" points="173.12,68.35,163.3126,67.4478,168.3841,69.9536,165.8783,75.0252,173.12,68.35" style="stroke:#E7E7E7;stroke-width:1;"/></g><!--link fc to UC2--><g id="link_fc_UC2"><path d="M81.19,123 C98.8,123 114.46,123 134.87,123 " fill="transparent" id="fc-to-UC2" style="stroke:#E7E7E7;stroke-width:1;"/><polygon fill="#E7E7E7" points="140.87,123,131.87,119,135.87,123,131.87,127,140.87,123" style="stroke:#E7E7E7;stroke-width:1;"/></g><!--link fc to UC3--><g id="link_fc_UC3"><path d="M81.14,140.36 C92.54,145.58 105.22,151.19 117,156 C137.85,164.51 156.1344,171.1749 174.2344,177.4849 " fill="transparent" id="fc-to-UC3" style="stroke:#E7E7E7;stroke-width:1;"/><polygon fill="#E7E7E7" points="179.9,179.46,172.7184,172.7202,175.1787,177.8141,170.0849,180.2744,179.9,179.46" style="stroke:#E7E7E7;stroke-width:1;"/></g><!--SRC=[JOmn2i9044NxFSKdVGgJtYPgBO8762QpSJ3imkoa4F7kcY2wtOVttvibEZp3TBevHZLXrvm2iMT3Syfvn63goWse879O7vIcMN2HuhGO9SSp04iHfY9eZkHOnSsu3hkQdUc1-2bNlAlvmJJTlw0Fhn0PRRlVAh_P_MV_1W00]--></g></svg>