<svg xmlns="http://www.w3.org/2000/svg" xmlns:xlink="http://www.w3.org/1999/xlink" contentStyleType="text/css" data-diagram-type="DESCRIPTION" height="604px" preserveAspectRatio="none" style="width:830px;height:604px;background:#FFFFFF;" version="1.1" viewBox="0 0 830 604" width="830px" zoomAndPan="magnify"><defs/><g><!--entity domain--><g class="entity" data-entity="domain" data-source-line="133" data-uid="ent0002" id="entity_domain"><path d="M255,37 L296,37 A3.75,3.75 0 0 1 298.5,39.5 L305.5,58 L332.4316,58 A2.5,2.5 0 0 1 334.9316,60.5 L334.9316,88.7969 A2.5,2.5 0 0 1 332.4316,91.2969 L255,91.2969 A2.5,2.5 0 0 1 252.5,88.7969 L252.5,39.5 A2.5,2.5 0 0 1 255,37" fill="#F1F1F1" style="stroke:#181818;stroke-width:0.5;"/><line style="stroke:#181818;stroke-width:0.5;" x1="252.5" x2="305.5" y1="58" y2="58"/><text fill="#000000" font-family="sans-serif" font-size="14" lengthAdjust="spacing" textLength="52.4316" x="262.5" y="77.9951">domain</text></g><g class="entity" data-entity="GMN3" data-source-line="135" data-uid="ent0004" id="entity_GMN3"><path d="M6,6 L6,121.9297 A0,0 0 0 0 6,121.9297 L216.5601,121.9297 A0,0 0 0 0 216.5601,121.9297 L216.5601,68 L252.3,64 L216.5601,60 L216.5601,16 L206.5601,6 L6,6 A0,0 0 0 0 6,6" fill="#FEFFDD" style="stroke:#181818;stroke-width:0.5;"/><path d="M206.5601,6 L206.5601,16 L216.5601,16 L206.5601,6" fill="#FEFFDD" style="stroke:#181818;stroke-width:0.5;"/><text fill="#000000" font-family="sans-serif" font-size="13" lengthAdjust="spacing" textLength="189.5601" x="12" y="23.0669">Here lies all the domain logic</text><text fill="#000000" font-family="sans-serif" font-size="13" lengthAdjust="spacing" textLength="151.8804" x="12" y="38.1997">and business rules that</text><text fill="#000000" font-family="sans-serif" font-size="13" lengthAdjust="spacing" textLength="78.146" x="12" y="53.3325">encompass:</text><text fill="#000000" font-family="sans-serif" font-size="13" lengthAdjust="spacing" textLength="99.4741" x="16.1323" y="68.4653">&#8226; Value objects</text><text fill="#000000" font-family="sans-serif" font-size="13" lengthAdjust="spacing" textLength="60.4424" x="16.1323" y="83.5981">&#8226; Entities</text><text fill="#000000" font-family="sans-serif" font-size="13" lengthAdjust="spacing" textLength="86.6265" x="16.1323" y="98.731">&#8226; Aggregates</text><text fill="#000000" font-family="sans-serif" font-size="13" lengthAdjust="spacing" textLength="55.8149" x="16.1323" y="113.8638">&#8226; Events</text></g><!--entity application--><g class="entity" data-entity="application" data-source-line="144" data-uid="ent0006" id="entity_application"><path d="M242.5,190.5 L283.5,190.5 A3.75,3.75 0 0 1 286,193 L293,211.5 L344.7256,211.5 A2.5,2.5 0 0 1 347.2256,214 L347.2256,242.2969 A2.5,2.5 0 0 1 344.7256,244.7969 L242.5,244.7969 A2.5,2.5 0 0 1 240,242.2969 L240,193 A2.5,2.5 0 0 1 242.5,190.5" fill="#F1F1F1" style="stroke:#181818;stroke-width:0.5;"/><line style="stroke:#181818;stroke-width:0.5;" x1="240" x2="293" y1="211.5" y2="211.5"/><text fill="#000000" font-family="sans-serif" font-size="14" lengthAdjust="spacing" textLength="77.2256" x="250" y="231.4951">application</text></g><g class="entity" data-entity="GMN7" data-source-line="146" data-uid="ent0008" id="entity_GMN7"><path d="M382.5,182 L382.5,213.5 L347.34,217.5 L382.5,221.5 L382.5,252.5313 A0,0 0 0 0 382.5,252.5313 L562.0518,252.5313 A0,0 0 0 0 562.0518,252.5313 L562.0518,192 L552.0518,182 L382.5,182 A0,0 0 0 0 382.5,182" fill="#FEFFDD" style="stroke:#181818;stroke-width:0.5;"/><path d="M552.0518,182 L552.0518,192 L562.0518,192 L552.0518,182" fill="#FEFFDD" style="stroke:#181818;stroke-width:0.5;"/><text fill="#000000" font-family="sans-serif" font-size="13" lengthAdjust="spacing" textLength="158.5518" x="388.5" y="199.0669">Here lies the application</text><text fill="#000000" font-family="sans-serif" font-size="13" lengthAdjust="spacing" textLength="68.1802" x="388.5" y="214.1997">use cases:</text><text fill="#000000" font-family="sans-serif" font-size="13" lengthAdjust="spacing" textLength="66.6187" x="392.6323" y="229.3325">&#8226; Services</text><text fill="#000000" font-family="sans-serif" font-size="13" lengthAdjust="spacing" textLength="81.5103" x="392.6323" y="244.4653">&#8226; Repository</text></g><!--entity storage--><g class="entity" data-entity="storage" data-source-line="152" data-uid="ent0010" id="entity_storage"><path d="M703.5,314 L744.5,314 A3.75,3.75 0 0 1 747,316.5 L754,335 L781.6836,335 A2.5,2.5 0 0 1 784.1836,337.5 L784.1836,365.7969 A2.5,2.5 0 0 1 781.6836,368.2969 L703.5,368.2969 A2.5,2.5 0 0 1 701,365.7969 L701,316.5 A2.5,2.5 0 0 1 703.5,314" fill="#F1F1F1" style="stroke:#181818;stroke-width:0.5;"/><line style="stroke:#181818;stroke-width:0.5;" x1="701" x2="754" y1="335" y2="335"/><text fill="#000000" font-family="sans-serif" font-size="14" lengthAdjust="spacing" textLength="53.1836" x="711" y="354.9951">storage</text></g><g class="entity" data-entity="GMN11" data-source-line="154" data-uid="ent0012" id="entity_GMN11"><path d="M662,182 L662,252.5313 A0,0 0 0 0 662,252.5313 L738.5,252.5313 L742.5,317.43 L746.5,252.5313 L823.3848,252.5313 A0,0 0 0 0 823.3848,252.5313 L823.3848,192 L813.3848,182 L662,182 A0,0 0 0 0 662,182" fill="#FEFFDD" style="stroke:#181818;stroke-width:0.5;"/><path d="M813.3848,182 L813.3848,192 L823.3848,192 L813.3848,182" fill="#FEFFDD" style="stroke:#181818;stroke-width:0.5;"/><text fill="#000000" font-family="sans-serif" font-size="13" lengthAdjust="spacing" textLength="126.7881" x="668" y="199.0669">Here resides all the</text><text fill="#000000" font-family="sans-serif" font-size="13" lengthAdjust="spacing" textLength="117.3809" x="668" y="214.1997">code that ensures</text><text fill="#000000" font-family="sans-serif" font-size="13" lengthAdjust="spacing" textLength="108.6465" x="668" y="229.3325">data persistence</text><text fill="#000000" font-family="sans-serif" font-size="13" lengthAdjust="spacing" textLength="140.3848" x="668" y="244.4653">(persistence adapter)</text></g><!--entity DB_LIB--><g class="entity" data-entity="DB_LIB" data-source-line="159" data-uid="ent0014" id="entity_DB_LIB"><rect fill="#FFFFFF" height="55.5938" rx="2.5" ry="2.5" style="stroke:#181818;stroke-width:0.5;" width="142.7793" x="523" y="313"/><polygon fill="#FFFFFF" points="648.7793,318,648.7793,332,660.7793,332,660.7793,324,654.7793,318,648.7793,318" style="stroke:#181818;stroke-width:0.5;"/><line style="stroke:#181818;stroke-width:0.5;" x1="654.7793" x2="654.7793" y1="318" y2="324"/><line style="stroke:#181818;stroke-width:0.5;" x1="660.7793" x2="654.7793" y1="324" y2="324"/><text fill="#000000" font-family="sans-serif" font-size="14" font-style="italic" lengthAdjust="spacing" textLength="92.2236" x="543.2778" y="338.9951">&#171;third-party&#187;</text><text fill="#000000" font-family="sans-serif" font-size="14" lengthAdjust="spacing" textLength="112.7793" x="533" y="355.292">DB client library</text></g><!--entity presentation--><g class="entity" data-entity="presentation" data-source-line="162" data-uid="ent0017" id="entity_presentation"><path d="M171.5,314 L212.5,314 A3.75,3.75 0 0 1 215,316.5 L222,335 L285.4219,335 A2.5,2.5 0 0 1 287.9219,337.5 L287.9219,365.7969 A2.5,2.5 0 0 1 285.4219,368.2969 L171.5,368.2969 A2.5,2.5 0 0 1 169,365.7969 L169,316.5 A2.5,2.5 0 0 1 171.5,314" fill="#F1F1F1" style="stroke:#181818;stroke-width:0.5;"/><line style="stroke:#181818;stroke-width:0.5;" x1="169" x2="222" y1="335" y2="335"/><text fill="#000000" font-family="sans-serif" font-size="14" lengthAdjust="spacing" textLength="88.9219" x="179" y="354.9951">presentation</text></g><!--entity SERIALIZATION_LIB--><g class="entity" data-entity="SERIALIZATION_LIB" data-source-line="163" data-uid="ent0018" id="entity_SERIALIZATION_LIB"><rect fill="#FFFFFF" height="55.5938" rx="2.5" ry="2.5" style="stroke:#181818;stroke-width:0.5;" width="164.1484" x="323.5" y="313"/><polygon fill="#FFFFFF" points="470.6484,318,470.6484,332,482.6484,332,482.6484,324,476.6484,318,470.6484,318" style="stroke:#181818;stroke-width:0.5;"/><line style="stroke:#181818;stroke-width:0.5;" x1="476.6484" x2="476.6484" y1="318" y2="324"/><line style="stroke:#181818;stroke-width:0.5;" x1="482.6484" x2="476.6484" y1="324" y2="324"/><text fill="#000000" font-family="sans-serif" font-size="14" font-style="italic" lengthAdjust="spacing" textLength="92.2236" x="354.4624" y="338.9951">&#171;third-party&#187;</text><text fill="#000000" font-family="sans-serif" font-size="14" lengthAdjust="spacing" textLength="134.1484" x="333.5" y="355.292">serialization library</text></g><!--entity mom--><g class="entity" data-entity="mom" data-source-line="166" data-uid="ent0020" id="entity_mom"><path d="M196,429 L237,429 A3.75,3.75 0 0 1 239.5,431.5 L246.5,450 L261,450 A2.5,2.5 0 0 1 263.5,452.5 L263.5,480.7969 A2.5,2.5 0 0 1 261,483.2969 L196,483.2969 A2.5,2.5 0 0 1 193.5,480.7969 L193.5,431.5 A2.5,2.5 0 0 1 196,429" fill="#F1F1F1" style="stroke:#181818;stroke-width:0.5;"/><line style="stroke:#181818;stroke-width:0.5;" x1="193.5" x2="246.5" y1="450" y2="450"/><text fill="#000000" font-family="sans-serif" font-size="14" lengthAdjust="spacing" textLength="35.8408" x="203.5" y="469.9951">mom</text></g><!--entity api--><g class="entity" data-entity="api" data-source-line="167" data-uid="ent0021" id="entity_api"><path d="M301,429 L342,429 A3.75,3.75 0 0 1 344.5,431.5 L351.5,450 L366,450 A2.5,2.5 0 0 1 368.5,452.5 L368.5,480.7969 A2.5,2.5 0 0 1 366,483.2969 L301,483.2969 A2.5,2.5 0 0 1 298.5,480.7969 L298.5,431.5 A2.5,2.5 0 0 1 301,429" fill="#F1F1F1" style="stroke:#181818;stroke-width:0.5;"/><line style="stroke:#181818;stroke-width:0.5;" x1="298.5" x2="351.5" y1="450" y2="450"/><text fill="#000000" font-family="sans-serif" font-size="14" lengthAdjust="spacing" textLength="21.3555" x="308.5" y="469.9951">api</text></g><!--entity entrypoint--><g class="entity" data-entity="entrypoint" data-source-line="175" data-uid="ent0032" id="entity_entrypoint"><path d="M284.5,543 L325.5,543 A3.75,3.75 0 0 1 328,545.5 L335,564 L382.2207,564 A2.5,2.5 0 0 1 384.7207,566.5 L384.7207,594.7969 A2.5,2.5 0 0 1 382.2207,597.2969 L284.5,597.2969 A2.5,2.5 0 0 1 282,594.7969 L282,545.5 A2.5,2.5 0 0 1 284.5,543" fill="#F1F1F1" style="stroke:#181818;stroke-width:0.5;"/><line style="stroke:#181818;stroke-width:0.5;" x1="282" x2="335" y1="564" y2="564"/><text fill="#000000" font-family="sans-serif" font-size="14" lengthAdjust="spacing" textLength="72.7207" x="292" y="583.9951">entrypoint</text></g><!--reverse link DB_LIB to storage--><g class="link" data-entity-1="DB_LIB" data-entity-2="storage" data-source-line="160" data-uid="lnk16" id="link_DB_LIB_storage"><path d="M684.19,341 C695.71,341 689.24,341 700.77,341" fill="none" id="DB_LIB-backto-storage" style="stroke:#181818;stroke-width:1;"/><polygon fill="none" points="666.19,341,684.19,347,684.19,335,666.19,341" style="stroke:#181818;stroke-width:1;"/></g><!--link presentation to SERIALIZATION_LIB--><g class="link" data-entity-1="presentation" data-entity-2="SERIALIZATION_LIB" data-source-line="164" data-uid="lnk19" id="link_presentation_SERIALIZATION_LIB"><path d="M288.31,341 C299.9,341 293.5,341 305.1,341" fill="none" id="presentation-to-SERIALIZATION_LIB" style="stroke:#181818;stroke-width:1;"/><polygon fill="none" points="323.1,341,305.1,335,305.1,347,323.1,341" style="stroke:#181818;stroke-width:1;"/></g><!--reverse link domain to application--><g class="link" data-entity-1="domain" data-entity-2="application" data-source-line="169" data-uid="lnk23" id="link_domain_application"><path d="M293.5,109.04 C293.5,136.79 293.5,183.48 293.5,211.29" fill="none" id="domain-backto-application" style="stroke:#181818;stroke-width:1;"/><polygon fill="none" points="293.5,91.04,287.5,109.04,299.5,109.04,293.5,91.04" style="stroke:#181818;stroke-width:1;"/></g><!--reverse link application to storage--><g class="link" data-entity-1="application" data-entity-2="storage" data-source-line="170" data-uid="lnk25" id="link_application_storage"><path d="M360.0571,251.7204 C367.2971,254.8804 358.26,250.63 365.5,253 C502.18,297.79 546.43,269.42 683.5,313 C689.19,314.81 695.05,317.03 700.77,319.41" fill="none" id="application-backto-storage" style="stroke:#181818;stroke-width:1;"/><polygon fill="none" points="343.56,244.52,357.657,257.2194,362.4572,246.2214,343.56,244.52" style="stroke:#181818;stroke-width:1;"/></g><!--reverse link application to presentation--><g class="link" data-entity-1="application" data-entity-2="presentation" data-source-line="171" data-uid="lnk27" id="link_application_presentation"><path d="M271.0673,260.4306 C260.0973,280.9306 253.38,314.49 242.42,334.98" fill="none" id="application-backto-presentation" style="stroke:#181818;stroke-width:1;"/><polygon fill="none" points="279.56,244.56,265.7771,257.5997,276.3575,263.2614,279.56,244.56" style="stroke:#181818;stroke-width:1;"/></g><!--reverse link presentation to mom--><g class="link" data-entity-1="presentation" data-entity-2="mom" data-source-line="172" data-uid="lnk29" id="link_presentation_mom"><path d="M228.5,386.21 C228.5,404.46 228.5,410.71 228.5,428.93" fill="none" id="presentation-backto-mom" style="stroke:#181818;stroke-width:1;"/><polygon fill="none" points="228.5,368.21,222.5,386.21,234.5,386.21,228.5,368.21" style="stroke:#181818;stroke-width:1;"/></g><!--reverse link presentation to api--><g class="link" data-entity-1="presentation" data-entity-2="api" data-source-line="173" data-uid="lnk31" id="link_presentation_api"><path d="M265.1073,381.3918 C282.0773,399.6418 292.35,410.71 309.28,428.93" fill="none" id="presentation-backto-api" style="stroke:#181818;stroke-width:1;"/><polygon fill="none" points="252.85,368.21,260.7133,385.4775,269.5012,377.306,252.85,368.21" style="stroke:#181818;stroke-width:1;"/></g><!--reverse link api to entrypoint--><g class="link" data-entity-1="api" data-entity-2="entrypoint" data-source-line="176" data-uid="lnk34" id="link_api_entrypoint"><path d="M333.5,501.26 C333.5,519.23 333.5,543.72 333.5,561.66" fill="none" id="api-backto-entrypoint" style="stroke:#181818;stroke-width:1;"/><polygon fill="none" points="333.5,483.26,327.5,501.26,339.5,501.26,333.5,483.26" style="stroke:#181818;stroke-width:1;"/></g><!--reverse link mom to entrypoint--><g class="link" data-entity-1="mom" data-entity-2="entrypoint" data-source-line="177" data-uid="lnk36" id="link_mom_entrypoint"><path d="M265.4322,496.3905 C282.2822,514.3605 292.22,524.97 309.04,542.91" fill="none" id="mom-backto-entrypoint" style="stroke:#181818;stroke-width:1;"/><polygon fill="none" points="253.12,483.26,261.0553,500.4946,269.809,492.2865,253.12,483.26" style="stroke:#181818;stroke-width:1;"/></g><!--reverse link storage to entrypoint--><g class="link" data-entity-1="storage" data-entity-2="entrypoint" data-source-line="178" data-uid="lnk38" id="link_storage_entrypoint"><path d="M684.9118,373.9655 C608.1618,416.5655 461.11,519.17 380.61,563.86" fill="none" id="storage-backto-entrypoint" style="stroke:#181818;stroke-width:1;"/><polygon fill="none" points="700.65,365.23,682,368.7194,687.8236,379.2116,700.65,365.23" style="stroke:#181818;stroke-width:1;"/></g><!--SRC=[VPB1Rjim38RlVWgYf_RW5nYA04aRO06A3MYB7NOP68cnkSgIGD4Tqgt0dcMFjYUPxDYnqnJpoVv8w_z_Ykc9VKJ11b2KTsWKVXQGdnMQfqf2w-rDS46khxLciMNkrVrY0JzgLYfUYs8Nd2K16nfaN_YW18vs2c4tikwqZoIPCoL0vq1h6ehWGiMcRq5lOTiczfGIIEjohzQeVOsy2Kt4b3xqd_3tzn_uWgub2DllP3HDUEsLDGjDP5bLGXNgdAsVoUU_A6jsbeynC4R71fN3a4MuglimyyffeYxDssgR20mccXj-87bcCtTnJp4arY3xSoSfOwpeu493x3oCxAWlbDZEXjfNJB3KZowFBRMvvO0jAa8aIPmqptDelfmJj1YLv6foSroAYziLc1pNQmwz5PJz1RpT2Knmk_fsjraLWr4ekrKeVor6FeQBsLK-wZ2lIIEHC3f-wVb_THxMzvlbtURhyd7p-LD_zFn8AFjhwuJF6qSFJMYcM-UYc5qXb6tiVXuM-9ZcGETtVQfwNiyY8pxD7FbTFZhAGFOniDTYUfq4-1tQvJcduyhy0m00]--></g></svg>