<svg xmlns="http://www.w3.org/2000/svg" xmlns:xlink="http://www.w3.org/1999/xlink" contentStyleType="text/css" data-diagram-type="DESCRIPTION" height="620px" preserveAspectRatio="none" style="width:740px;height:620px;background:#FFFFFF;" version="1.1" viewBox="0 0 740 620" width="740px" zoomAndPan="magnify"><defs/><g><!--entity domain--><g class="entity" data-entity="domain" data-source-line="186" data-uid="ent0002" id="entity_domain"><path d="M426,37 L467,37 A3.75,3.75 0 0 1 469.5,39.5 L476.5,58 L503.4316,58 A2.5,2.5 0 0 1 505.9316,60.5 L505.9316,88.7969 A2.5,2.5 0 0 1 503.4316,91.2969 L426,91.2969 A2.5,2.5 0 0 1 423.5,88.7969 L423.5,39.5 A2.5,2.5 0 0 1 426,37" fill="#F1F1F1" style="stroke:#181818;stroke-width:0.5;"/><line style="stroke:#181818;stroke-width:0.5;" x1="423.5" x2="476.5" y1="58" y2="58"/><text fill="#000000" font-family="sans-serif" font-size="14" lengthAdjust="spacing" textLength="52.4316" x="433.5" y="77.9951">domain</text></g><g class="entity" data-entity="GMN3" data-source-line="188" data-uid="ent0004" id="entity_GMN3"><path d="M177,6 L177,121.9297 A0,0 0 0 0 177,121.9297 L387.5601,121.9297 A0,0 0 0 0 387.5601,121.9297 L387.5601,68 L423.3,64 L387.5601,60 L387.5601,16 L377.5601,6 L177,6 A0,0 0 0 0 177,6" fill="#FEFFDD" style="stroke:#181818;stroke-width:0.5;"/><path d="M377.5601,6 L377.5601,16 L387.5601,16 L377.5601,6" fill="#FEFFDD" style="stroke:#181818;stroke-width:0.5;"/><text fill="#000000" font-family="sans-serif" font-size="13" lengthAdjust="spacing" textLength="189.5601" x="183" y="23.0669">Here lies all the domain logic</text><text fill="#000000" font-family="sans-serif" font-size="13" lengthAdjust="spacing" textLength="151.8804" x="183" y="38.1997">and business rules that</text><text fill="#000000" font-family="sans-serif" font-size="13" lengthAdjust="spacing" textLength="78.146" x="183" y="53.3325">encompass:</text><text fill="#000000" font-family="sans-serif" font-size="13" lengthAdjust="spacing" textLength="99.4741" x="187.1323" y="68.4653">&#8226; Value objects</text><text fill="#000000" font-family="sans-serif" font-size="13" lengthAdjust="spacing" textLength="60.4424" x="187.1323" y="83.5981">&#8226; Entities</text><text fill="#000000" font-family="sans-serif" font-size="13" lengthAdjust="spacing" textLength="86.6265" x="187.1323" y="98.731">&#8226; Aggregates</text><text fill="#000000" font-family="sans-serif" font-size="13" lengthAdjust="spacing" textLength="55.8149" x="187.1323" y="113.8638">&#8226; Events</text></g><!--entity application--><g class="entity" data-entity="application" data-source-line="197" data-uid="ent0006" id="entity_application"><path d="M413.5,190.5 L454.5,190.5 A3.75,3.75 0 0 1 457,193 L464,211.5 L515.7256,211.5 A2.5,2.5 0 0 1 518.2256,214 L518.2256,242.2969 A2.5,2.5 0 0 1 515.7256,244.7969 L413.5,244.7969 A2.5,2.5 0 0 1 411,242.2969 L411,193 A2.5,2.5 0 0 1 413.5,190.5" fill="#F1F1F1" style="stroke:#181818;stroke-width:0.5;"/><line style="stroke:#181818;stroke-width:0.5;" x1="411" x2="464" y1="211.5" y2="211.5"/><text fill="#000000" font-family="sans-serif" font-size="14" lengthAdjust="spacing" textLength="77.2256" x="421" y="231.4951">application</text></g><g class="entity" data-entity="GMN7" data-source-line="199" data-uid="ent0008" id="entity_GMN7"><path d="M553.5,182 L553.5,213.5 L518.34,217.5 L553.5,221.5 L553.5,252.5313 A0,0 0 0 0 553.5,252.5313 L733.0518,252.5313 A0,0 0 0 0 733.0518,252.5313 L733.0518,192 L723.0518,182 L553.5,182 A0,0 0 0 0 553.5,182" fill="#FEFFDD" style="stroke:#181818;stroke-width:0.5;"/><path d="M723.0518,182 L723.0518,192 L733.0518,192 L723.0518,182" fill="#FEFFDD" style="stroke:#181818;stroke-width:0.5;"/><text fill="#000000" font-family="sans-serif" font-size="13" lengthAdjust="spacing" textLength="158.5518" x="559.5" y="199.0669">Here lies the application</text><text fill="#000000" font-family="sans-serif" font-size="13" lengthAdjust="spacing" textLength="68.1802" x="559.5" y="214.1997">use cases:</text><text fill="#000000" font-family="sans-serif" font-size="13" lengthAdjust="spacing" textLength="66.6187" x="563.6323" y="229.3325">&#8226; Services</text><text fill="#000000" font-family="sans-serif" font-size="13" lengthAdjust="spacing" textLength="81.5103" x="563.6323" y="244.4653">&#8226; Repository</text></g><!--entity storage--><g class="entity" data-entity="storage" data-source-line="205" data-uid="ent0010" id="entity_storage"><path d="M274.5,314 L315.5,314 A3.75,3.75 0 0 1 318,316.5 L325,335 L352.6836,335 A2.5,2.5 0 0 1 355.1836,337.5 L355.1836,365.7969 A2.5,2.5 0 0 1 352.6836,368.2969 L274.5,368.2969 A2.5,2.5 0 0 1 272,365.7969 L272,316.5 A2.5,2.5 0 0 1 274.5,314" fill="#F1F1F1" style="stroke:#181818;stroke-width:0.5;"/><line style="stroke:#181818;stroke-width:0.5;" x1="272" x2="325" y1="335" y2="335"/><text fill="#000000" font-family="sans-serif" font-size="14" lengthAdjust="spacing" textLength="53.1836" x="282" y="354.9951">storage</text></g><g class="entity" data-entity="GMN11" data-source-line="207" data-uid="ent0012" id="entity_GMN11"><path d="M223.5,182 L223.5,252.5313 A0,0 0 0 0 223.5,252.5313 L299.51,252.5313 L310.47,313.68 L307.51,252.5313 L375.4204,252.5313 A0,0 0 0 0 375.4204,252.5313 L375.4204,192 L365.4204,182 L223.5,182 A0,0 0 0 0 223.5,182" fill="#FEFFDD" style="stroke:#181818;stroke-width:0.5;"/><path d="M365.4204,182 L365.4204,192 L375.4204,192 L365.4204,182" fill="#FEFFDD" style="stroke:#181818;stroke-width:0.5;"/><text fill="#000000" font-family="sans-serif" font-size="13" lengthAdjust="spacing" textLength="126.7881" x="229.5" y="199.0669">Here resides all the</text><text fill="#000000" font-family="sans-serif" font-size="13" lengthAdjust="spacing" textLength="117.3809" x="229.5" y="214.1997">code that ensures</text><text fill="#000000" font-family="sans-serif" font-size="13" lengthAdjust="spacing" textLength="108.6465" x="229.5" y="229.3325">data persistence</text><text fill="#000000" font-family="sans-serif" font-size="13" lengthAdjust="spacing" textLength="121.3101" x="229.5" y="244.4653">(storage adapters)</text></g><!--entity DB_LIB--><g class="entity" data-entity="DB_LIB" data-source-line="212" data-uid="ent0014" id="entity_DB_LIB"><rect fill="#FFFFFF" height="55.5938" rx="2.5" ry="2.5" style="stroke:#181818;stroke-width:0.5;" width="142.7793" x="94" y="313"/><polygon fill="#FFFFFF" points="219.7793,318,219.7793,332,231.7793,332,231.7793,324,225.7793,318,219.7793,318" style="stroke:#181818;stroke-width:0.5;"/><line style="stroke:#181818;stroke-width:0.5;" x1="225.7793" x2="225.7793" y1="318" y2="324"/><line style="stroke:#181818;stroke-width:0.5;" x1="231.7793" x2="225.7793" y1="324" y2="324"/><text fill="#000000" font-family="sans-serif" font-size="14" font-style="italic" lengthAdjust="spacing" textLength="92.2236" x="114.2778" y="338.9951">&#171;third-party&#187;</text><text fill="#000000" font-family="sans-serif" font-size="14" lengthAdjust="spacing" textLength="112.7793" x="104" y="355.292">DB client library</text></g><!--entity presentation--><g class="entity" data-entity="presentation" data-source-line="215" data-uid="ent0017" id="entity_presentation"><path d="M407.5,314 L448.5,314 A3.75,3.75 0 0 1 451,316.5 L458,335 L521.4219,335 A2.5,2.5 0 0 1 523.9219,337.5 L523.9219,365.7969 A2.5,2.5 0 0 1 521.4219,368.2969 L407.5,368.2969 A2.5,2.5 0 0 1 405,365.7969 L405,316.5 A2.5,2.5 0 0 1 407.5,314" fill="#F1F1F1" style="stroke:#181818;stroke-width:0.5;"/><line style="stroke:#181818;stroke-width:0.5;" x1="405" x2="458" y1="335" y2="335"/><text fill="#000000" font-family="sans-serif" font-size="14" lengthAdjust="spacing" textLength="88.9219" x="415" y="354.9951">presentation</text></g><!--entity SERIALIZATION_LIB--><g class="entity" data-entity="SERIALIZATION_LIB" data-source-line="216" data-uid="ent0018" id="entity_SERIALIZATION_LIB"><rect fill="#FFFFFF" height="55.5938" rx="2.5" ry="2.5" style="stroke:#181818;stroke-width:0.5;" width="164.1484" x="559.5" y="313"/><polygon fill="#FFFFFF" points="706.6484,318,706.6484,332,718.6484,332,718.6484,324,712.6484,318,706.6484,318" style="stroke:#181818;stroke-width:0.5;"/><line style="stroke:#181818;stroke-width:0.5;" x1="712.6484" x2="712.6484" y1="318" y2="324"/><line style="stroke:#181818;stroke-width:0.5;" x1="718.6484" x2="712.6484" y1="324" y2="324"/><text fill="#000000" font-family="sans-serif" font-size="14" font-style="italic" lengthAdjust="spacing" textLength="92.2236" x="590.4624" y="338.9951">&#171;third-party&#187;</text><text fill="#000000" font-family="sans-serif" font-size="14" lengthAdjust="spacing" textLength="134.1484" x="569.5" y="355.292">serialization library</text></g><!--entity mom--><g class="entity" data-entity="mom" data-source-line="219" data-uid="ent0020" id="entity_mom"><path d="M369,429 L410,429 A3.75,3.75 0 0 1 412.5,431.5 L419.5,450 L434,450 A2.5,2.5 0 0 1 436.5,452.5 L436.5,480.7969 A2.5,2.5 0 0 1 434,483.2969 L369,483.2969 A2.5,2.5 0 0 1 366.5,480.7969 L366.5,431.5 A2.5,2.5 0 0 1 369,429" fill="#F1F1F1" style="stroke:#181818;stroke-width:0.5;"/><line style="stroke:#181818;stroke-width:0.5;" x1="366.5" x2="419.5" y1="450" y2="450"/><text fill="#000000" font-family="sans-serif" font-size="14" lengthAdjust="spacing" textLength="35.8408" x="376.5" y="469.9951">mom</text></g><!--entity api--><g class="entity" data-entity="api" data-source-line="220" data-uid="ent0021" id="entity_api"><path d="M474,429 L515,429 A3.75,3.75 0 0 1 517.5,431.5 L524.5,450 L539,450 A2.5,2.5 0 0 1 541.5,452.5 L541.5,480.7969 A2.5,2.5 0 0 1 539,483.2969 L474,483.2969 A2.5,2.5 0 0 1 471.5,480.7969 L471.5,431.5 A2.5,2.5 0 0 1 474,429" fill="#F1F1F1" style="stroke:#181818;stroke-width:0.5;"/><line style="stroke:#181818;stroke-width:0.5;" x1="471.5" x2="524.5" y1="450" y2="450"/><text fill="#000000" font-family="sans-serif" font-size="14" lengthAdjust="spacing" textLength="21.3555" x="481.5" y="469.9951">api</text></g><!--entity entrypoint--><g class="entity" data-entity="entrypoint" data-source-line="228" data-uid="ent0032" id="entity_entrypoint"><path d="M274.5,551.5 L315.5,551.5 A3.75,3.75 0 0 1 318,554 L325,572.5 L372.2207,572.5 A2.5,2.5 0 0 1 374.7207,575 L374.7207,603.2969 A2.5,2.5 0 0 1 372.2207,605.7969 L274.5,605.7969 A2.5,2.5 0 0 1 272,603.2969 L272,554 A2.5,2.5 0 0 1 274.5,551.5" fill="#F1F1F1" style="stroke:#181818;stroke-width:0.5;"/><line style="stroke:#181818;stroke-width:0.5;" x1="272" x2="325" y1="572.5" y2="572.5"/><text fill="#000000" font-family="sans-serif" font-size="14" lengthAdjust="spacing" textLength="72.7207" x="282" y="592.4951">entrypoint</text></g><g class="entity" data-entity="GMN33" data-source-line="230" data-uid="ent0034" id="entity_GMN33"><path d="M6,543 L6,613.5313 A0,0 0 0 0 6,613.5313 L237.2026,613.5313 A0,0 0 0 0 237.2026,613.5313 L237.2026,582.5 L271.86,578.5 L237.2026,574.5 L237.2026,553 L227.2026,543 L6,543 A0,0 0 0 0 6,543" fill="#FEFFDD" style="stroke:#181818;stroke-width:0.5;"/><path d="M227.2026,543 L227.2026,553 L237.2026,553 L227.2026,543" fill="#FEFFDD" style="stroke:#181818;stroke-width:0.5;"/><text fill="#000000" font-family="sans-serif" font-size="13" lengthAdjust="spacing" textLength="210.2026" x="12" y="560.0669">The service entrypoint where all</text><text fill="#000000" font-family="sans-serif" font-size="13" lengthAdjust="spacing" textLength="208.6411" x="12" y="575.1997">the adapters are wired together</text><text fill="#000000" font-family="sans-serif" font-size="13" lengthAdjust="spacing" textLength="162.3794" x="12" y="590.3325">and the main application</text><text fill="#000000" font-family="sans-serif" font-size="13" lengthAdjust="spacing" textLength="61.0454" x="12" y="605.4653">is started</text></g><g class="entity" data-entity="AD" data-source-line="239" data-uid="ent0042" id="entity_AD"><path d="M410,566 L410,591.1328 L603.0596,591.1328 L603.0596,576 L593.0596,566 L410,566" fill="#FEFFDD" style="stroke:#181818;stroke-width:0.5;"/><path d="M593.0596,566 L593.0596,576 L603.0596,576 L593.0596,566" fill="#FEFFDD" style="stroke:#181818;stroke-width:1;"/><text fill="#000000" font-family="sans-serif" font-size="13" lengthAdjust="spacing" textLength="172.0596" x="416" y="583.0669">Two examples of adapters</text></g><!--reverse link DB_LIB to storage--><g class="link" data-entity-1="DB_LIB" data-entity-2="storage" data-source-line="213" data-uid="lnk16" id="link_DB_LIB_storage"><path d="M255.19,341 C266.71,341 260.24,341 271.77,341" fill="none" id="DB_LIB-backto-storage" style="stroke:#181818;stroke-width:1;"/><polygon fill="none" points="237.19,341,255.19,347,255.19,335,237.19,341" style="stroke:#181818;stroke-width:1;"/></g><!--link presentation to SERIALIZATION_LIB--><g class="link" data-entity-1="presentation" data-entity-2="SERIALIZATION_LIB" data-source-line="217" data-uid="lnk19" id="link_presentation_SERIALIZATION_LIB"><path d="M524.31,341 C535.9,341 529.5,341 541.1,341" fill="none" id="presentation-to-SERIALIZATION_LIB" style="stroke:#181818;stroke-width:1;"/><polygon fill="none" points="559.1,341,541.1,335,541.1,347,559.1,341" style="stroke:#181818;stroke-width:1;"/></g><!--reverse link domain to application--><g class="link" data-entity-1="domain" data-entity-2="application" data-source-line="222" data-uid="lnk23" id="link_domain_application"><path d="M464.5,109.04 C464.5,136.79 464.5,183.48 464.5,211.29" fill="none" id="domain-backto-application" style="stroke:#181818;stroke-width:1;"/><polygon fill="none" points="464.5,91.04,458.5,109.04,470.5,109.04,464.5,91.04" style="stroke:#181818;stroke-width:1;"/></g><!--reverse link application to storage--><g class="link" data-entity-1="application" data-entity-2="storage" data-source-line="223" data-uid="lnk25" id="link_application_storage"><path d="M418.0856,255.8434 C392.6056,276.3434 371.3,314.49 345.84,334.98" fill="none" id="application-backto-storage" style="stroke:#181818;stroke-width:1;"/><polygon fill="none" points="432.11,244.56,414.3244,251.1686,421.8467,260.5182,432.11,244.56" style="stroke:#181818;stroke-width:1;"/></g><!--reverse link application to presentation--><g class="link" data-entity-1="application" data-entity-2="presentation" data-source-line="224" data-uid="lnk27" id="link_application_presentation"><path d="M464.5,262.56 C464.5,283.06 464.5,314.49 464.5,334.98" fill="none" id="application-backto-presentation" style="stroke:#181818;stroke-width:1;"/><polygon fill="none" points="464.5,244.56,458.5,262.56,470.5,262.56,464.5,244.56" style="stroke:#181818;stroke-width:1;"/></g><!--reverse link presentation to mom--><g class="link" data-entity-1="presentation" data-entity-2="mom" data-source-line="225" data-uid="lnk29" id="link_presentation_mom"><path d="M441.1214,383.9298 C430.9414,402.1798 426.19,426.505 416.03,444.725" fill="none" id="presentation-backto-mom" style="stroke:#181818;stroke-width:1;"/><polygon fill="none" points="449.89,368.21,435.8815,381.0069,446.3613,386.8526,449.89,368.21" style="stroke:#181818;stroke-width:1;"/></g><!--reverse link presentation to api--><g class="link" data-entity-1="presentation" data-entity-2="api" data-source-line="226" data-uid="lnk31" id="link_presentation_api"><path d="M480.5166,385.0802 C487.3066,403.3302 490.04,410.71 496.81,428.93" fill="none" id="presentation-backto-api" style="stroke:#181818;stroke-width:1;"/><polygon fill="none" points="474.24,368.21,474.8932,387.1724,486.14,382.988,474.24,368.21" style="stroke:#181818;stroke-width:1;"/></g><!--reverse link api to entrypoint--><g class="link" data-entity-1="api" data-entity-2="entrypoint" data-source-line="235" data-uid="lnk37" id="link_api_entrypoint"><path d="M456.1851,490.127 C425.2251,510.507 395.3,551.22 363.12,572.41" fill="none" id="api-backto-entrypoint" style="stroke:#181818;stroke-width:1;"/><polygon fill="none" points="471.22,480.23,452.8861,485.1154,459.4841,495.1387,471.22,480.23" style="stroke:#181818;stroke-width:1;"/></g><!--reverse link mom to entrypoint--><g class="link" data-entity-1="mom" data-entity-2="entrypoint" data-source-line="236" data-uid="lnk39" id="link_mom_entrypoint"><path d="M374.7947,498.2578 C361.7047,518.4678 353.47,552.21 340.39,572.4" fill="none" id="mom-backto-entrypoint" style="stroke:#181818;stroke-width:1;"/><polygon fill="none" points="384.58,483.15,369.7587,494.9961,379.8306,501.5196,384.58,483.15" style="stroke:#181818;stroke-width:1;"/></g><!--reverse link storage to entrypoint--><g class="link" data-entity-1="storage" data-entity-2="entrypoint" data-source-line="237" data-uid="lnk41" id="link_storage_entrypoint"><path d="M315.3727,386.0838 C317.2927,431.3538 320.46,523.015 322.39,568.365" fill="none" id="storage-backto-entrypoint" style="stroke:#181818;stroke-width:1;"/><polygon fill="none" points="314.61,368.1,309.3781,386.3381,321.3673,385.8296,314.61,368.1" style="stroke:#181818;stroke-width:1;"/></g><!--link api to AD--><g class="link" data-entity-1="api" data-entity-2="AD" data-source-line="240" data-uid="lnk43" id="link_api_AD"><path d="M506.5,483.15 C506.5,508.9 506.5,547.04 506.5,565.97" fill="none" id="api-AD" style="stroke:#181818;stroke-width:1;stroke-dasharray:7.0,7.0;"/></g><!--link mom to AD--><g class="link" data-entity-1="mom" data-entity-2="AD" data-source-line="241" data-uid="lnk44" id="link_mom_AD"><path d="M424.28,483.15 C446.72,508.9 479.96,547.04 496.45,565.97" fill="none" id="mom-AD" style="stroke:#181818;stroke-width:1;stroke-dasharray:7.0,7.0;"/></g><!--SRC=[VLDBZjim3Dtx54HMxI9pW68G86a2J8112ym4NNHJC1RZi6DBWYHFcdw0dgL7wqbAoJzbCgXNzYDDlaS- -YVM5XqsW2xm0Si0FmgGPuNbK-LCgzLxKnjtUnkExDHSSiDviO3JaGCLluhYO6f53fHfa7MXJI2ewH3070OiLhiZ9pYJ1wnh24VgWr2RYikKWbh1llMioNjmRIsvuOWXnKYNfh7e_Rlq2Nz__u5FMBS4Pl-Lok0dUAC31saq8SkgSbHXoB7DCsdvYwHdf3pAG6jhBZ6mwRKuhev9J1wvL1JLl8osdg14JpdXHtBFNEOi7iWQpy6uypKJBp1MrB48naOE0pRsT-HPPKDDaT8eIgEJiVbMKZfOOK2mv3px8FFiaz_qDG4LsY3HjnELqH6pzGfAqQg3ADuxTESPl3G4UbYlljnlLyLGSHvzCF-v6F11cHLAKgeRrjJ3asEi-Nl2_zldSVEmNTvlFoztsuyVKkcy9CpJpcBZwyI1GsEQQULS5Dd-ODxQ-7Fltb5DX-QBlknw7PSc0tofsVAh-C1807UsXdMulASCZwlRoS9zvwai99SPdI6EI4d9dFrgvSG9Jkn8YQ4gaf0RBo_cfOFC9v6YxCLtCdnIapEoTgDkVWMDOxv61njtwcQxam7wXesD9nylhQSxYxjUhjEuRcxYMnnez_OF]--></g></svg>