<svg xmlns="http://www.w3.org/2000/svg" xmlns:xlink="http://www.w3.org/1999/xlink" contentStyleType="text/css" data-diagram-type="CLASS" height="964px" preserveAspectRatio="none" style="width:1607px;height:964px;background:#FFFFFF;" version="1.1" viewBox="0 0 1607 964" width="1607px" zoomAndPan="magnify"><defs/><g><!--cluster application--><g id="cluster_application"><path d="M8.5,6 L97.4102,6 A3.75,3.75 0 0 1 99.9102,8.5 L106.9102,28.2969 L1597.5,28.2969 A2.5,2.5 0 0 1 1600,30.7969 L1600,954.5 A2.5,2.5 0 0 1 1597.5,957 L8.5,957 A2.5,2.5 0 0 1 6,954.5 L6,8.5 A2.5,2.5 0 0 1 8.5,6 " fill="#FFFFFF" fill-opacity="0.00000" style="stroke:#000000;stroke-width:1.5;"/><line style="stroke:#000000;stroke-width:1.5;" x1="6" x2="106.9102" y1="28.2969" y2="28.2969"/><text fill="#000000" font-family="sans-serif" font-size="14" font-weight="bold" lengthAdjust="spacing" textLength="87.9102" x="10" y="20.9951">application</text></g><!--cluster domain--><g id="cluster_domain"><path d="M704.5,49 L763.9404,49 A3.75,3.75 0 0 1 766.4404,51.5 L773.4404,71.2969 L1573.5,71.2969 A2.5,2.5 0 0 1 1576,73.7969 L1576,805.5 A2.5,2.5 0 0 1 1573.5,808 L704.5,808 A2.5,2.5 0 0 1 702,805.5 L702,51.5 A2.5,2.5 0 0 1 704.5,49 " fill="#FFFFFF" fill-opacity="0.00000" style="stroke:#000000;stroke-width:1.5;"/><line style="stroke:#000000;stroke-width:1.5;" x1="702" x2="773.4404" y1="71.2969" y2="71.2969"/><text fill="#000000" font-family="sans-serif" font-size="14" font-weight="bold" lengthAdjust="spacing" textLength="58.4404" x="706" y="63.9951">domain</text></g><!--class TrackingEventsReader--><g id="elem_TrackingEventsReader"><rect codeLine="167" fill="#F1F1F1" height="72.5625" id="TrackingEventsReader" rx="2.5" ry="2.5" style="stroke:#181818;stroke-width:0.5;" width="259.3516" x="111.5" y="703"/><ellipse cx="157.9673" cy="723.1328" fill="#B4A7E5" rx="11" ry="11" style="stroke:#181818;stroke-width:1;"/><path d="M153.8892,718.8984 L153.8892,716.7422 L161.2798,716.7422 L161.2798,718.8984 L158.811,718.8984 L158.811,726.9766 L161.2798,726.9766 L161.2798,729.1328 L153.8892,729.1328 L153.8892,726.9766 L156.3579,726.9766 L156.3579,718.8984 L153.8892,718.8984 Z " fill="#000000"/><text fill="#000000" font-family="sans-serif" font-size="12" font-style="italic" lengthAdjust="spacing" textLength="100.6641" x="207.0938" y="719.1387">&#171;outbound port&#187;</text><text fill="#000000" font-family="sans-serif" font-size="14" font-style="italic" lengthAdjust="spacing" textLength="157.917" x="178.4673" y="734.9639">TrackingEventsReader</text><line style="stroke:#181818;stroke-width:0.5;" x1="112.5" x2="369.8516" y1="743.2656" y2="743.2656"/><line style="stroke:#181818;stroke-width:0.5;" x1="112.5" x2="369.8516" y1="751.2656" y2="751.2656"/><ellipse cx="122.5" cy="764.9141" fill="#84BE84" rx="3" ry="3" style="stroke:#038048;stroke-width:1;"/><text fill="#000000" font-family="sans-serif" font-size="14" lengthAdjust="spacing" textLength="233.3516" x="131.5" y="768.2607">lastOf(user: User): TrackingEvent</text></g><!--class TrackingEventsWriter--><g id="elem_TrackingEventsWriter"><rect codeLine="170" fill="#F1F1F1" height="72.5625" id="TrackingEventsWriter" rx="2.5" ry="2.5" style="stroke:#181818;stroke-width:0.5;" width="279.7568" x="406" y="703"/><ellipse cx="466.0845" cy="723.1328" fill="#B4A7E5" rx="11" ry="11" style="stroke:#181818;stroke-width:1;"/><path d="M462.0063,718.8984 L462.0063,716.7422 L469.397,716.7422 L469.397,718.8984 L466.9282,718.8984 L466.9282,726.9766 L469.397,726.9766 L469.397,729.1328 L462.0063,729.1328 L462.0063,726.9766 L464.4751,726.9766 L464.4751,718.8984 L462.0063,718.8984 Z " fill="#000000"/><text fill="#000000" font-family="sans-serif" font-size="12" font-style="italic" lengthAdjust="spacing" textLength="100.6641" x="511.7964" y="719.1387">&#171;outbound port&#187;</text><text fill="#000000" font-family="sans-serif" font-size="14" font-style="italic" lengthAdjust="spacing" textLength="151.0879" x="486.5845" y="734.9639">TrackingEventsWriter</text><line style="stroke:#181818;stroke-width:0.5;" x1="407" x2="684.7568" y1="743.2656" y2="743.2656"/><line style="stroke:#181818;stroke-width:0.5;" x1="407" x2="684.7568" y1="751.2656" y2="751.2656"/><ellipse cx="417" cy="764.9141" fill="#84BE84" rx="3" ry="3" style="stroke:#038048;stroke-width:1;"/><text fill="#000000" font-family="sans-serif" font-size="14" lengthAdjust="spacing" textLength="253.7568" x="426" y="768.2607">save(TrackingEvent: TrackingEvent)</text></g><!--class TrackingEventsStore--><g id="elem_TrackingEventsStore"><rect codeLine="173" fill="#F1F1F1" height="56.2656" id="TrackingEventsStore" rx="2.5" ry="2.5" style="stroke:#181818;stroke-width:0.5;" width="177.0518" x="304.5" y="868.5"/><ellipse cx="319.5" cy="888.6328" fill="#B4A7E5" rx="11" ry="11" style="stroke:#181818;stroke-width:1;"/><path d="M315.4219,884.3984 L315.4219,882.2422 L322.8125,882.2422 L322.8125,884.3984 L320.3438,884.3984 L320.3438,892.4766 L322.8125,892.4766 L322.8125,894.6328 L315.4219,894.6328 L315.4219,892.4766 L317.8906,892.4766 L317.8906,884.3984 L315.4219,884.3984 Z " fill="#000000"/><text fill="#000000" font-family="sans-serif" font-size="12" font-style="italic" lengthAdjust="spacing" textLength="100.6641" x="355.6938" y="884.6387">&#171;outbound port&#187;</text><text fill="#000000" font-family="sans-serif" font-size="14" font-style="italic" lengthAdjust="spacing" textLength="145.0518" x="333.5" y="900.4639">TrackingEventsStore</text><line style="stroke:#181818;stroke-width:0.5;" x1="305.5" x2="480.5518" y1="908.7656" y2="908.7656"/><line style="stroke:#181818;stroke-width:0.5;" x1="305.5" x2="480.5518" y1="916.7656" y2="916.7656"/></g><!--class MapsService--><g id="elem_MapsService"><rect codeLine="185" fill="#F1F1F1" height="88.8594" id="MapsService" rx="2.5" ry="2.5" style="stroke:#181818;stroke-width:0.5;" width="483.0713" x="1050.5" y="852"/><ellipse cx="1239.4536" cy="872.1328" fill="#B4A7E5" rx="11" ry="11" style="stroke:#181818;stroke-width:1;"/><path d="M1235.3755,867.8984 L1235.3755,865.7422 L1242.7661,865.7422 L1242.7661,867.8984 L1240.2974,867.8984 L1240.2974,875.9766 L1242.7661,875.9766 L1242.7661,878.1328 L1235.3755,878.1328 L1235.3755,875.9766 L1237.8442,875.9766 L1237.8442,867.8984 L1235.3755,867.8984 Z " fill="#000000"/><text fill="#000000" font-family="sans-serif" font-size="12" font-style="italic" lengthAdjust="spacing" textLength="100.6641" x="1257.9536" y="868.1387">&#171;outbound port&#187;</text><text fill="#000000" font-family="sans-serif" font-size="14" font-style="italic" lengthAdjust="spacing" textLength="88.5801" x="1263.9956" y="883.9639">MapsService</text><line style="stroke:#181818;stroke-width:0.5;" x1="1051.5" x2="1532.5713" y1="892.2656" y2="892.2656"/><line style="stroke:#181818;stroke-width:0.5;" x1="1051.5" x2="1532.5713" y1="900.2656" y2="900.2656"/><ellipse cx="1061.5" cy="913.9141" fill="#84BE84" rx="3" ry="3" style="stroke:#038048;stroke-width:1;"/><text fill="#000000" font-family="sans-serif" font-size="14" lengthAdjust="spacing" textLength="457.0713" x="1070.5" y="917.2607">estimateArrivalTime(start: GPSLocation, end: GPSLocation): Date</text><ellipse cx="1061.5" cy="930.2109" fill="#84BE84" rx="3" ry="3" style="stroke:#038048;stroke-width:1;"/><text fill="#000000" font-family="sans-serif" font-size="14" lengthAdjust="spacing" textLength="428.5381" x="1070.5" y="933.5576">distance(start: GPSLocation, end: GPSLocation): GPSLocation</text></g><!--class UserTrackingInfoService--><g id="elem_UserTrackingInfoService"><rect codeLine="192" fill="#F1F1F1" height="105.1563" id="UserTrackingInfoService" rx="2.5" ry="2.5" style="stroke:#181818;stroke-width:0.5;" width="298.5488" x="267.5" y="349"/><ellipse cx="327.2803" cy="369.1328" fill="#B4A7E5" rx="11" ry="11" style="stroke:#181818;stroke-width:1;"/><path d="M323.2021,364.8984 L323.2021,362.7422 L330.5928,362.7422 L330.5928,364.8984 L328.124,364.8984 L328.124,372.9766 L330.5928,372.9766 L330.5928,375.1328 L323.2021,375.1328 L323.2021,372.9766 L325.6709,372.9766 L325.6709,364.8984 L323.2021,364.8984 Z " fill="#000000"/><text fill="#000000" font-family="sans-serif" font-size="12" font-style="italic" lengthAdjust="spacing" textLength="91.9512" x="387.0488" y="365.1387">&#171;inbound port&#187;</text><text fill="#000000" font-family="sans-serif" font-size="14" font-style="italic" lengthAdjust="spacing" textLength="170.4883" x="347.7803" y="380.9639">UserTrackingInfoService</text><line style="stroke:#181818;stroke-width:0.5;" x1="268.5" x2="565.0488" y1="389.2656" y2="389.2656"/><line style="stroke:#181818;stroke-width:0.5;" x1="268.5" x2="565.0488" y1="397.2656" y2="397.2656"/><ellipse cx="278.5" cy="410.9141" fill="#84BE84" rx="3" ry="3" style="stroke:#038048;stroke-width:1;"/><text fill="#000000" font-family="sans-serif" font-size="14" lengthAdjust="spacing" textLength="272.5488" x="287.5" y="414.2607">lastTraceOf(user: User): TrackingEvent</text><ellipse cx="278.5" cy="427.2109" fill="#84BE84" rx="3" ry="3" style="stroke:#038048;stroke-width:1;"/><text fill="#000000" font-family="sans-serif" font-size="14" lengthAdjust="spacing" textLength="186.2178" x="287.5" y="430.5576">routeOf(user: User): Route</text><ellipse cx="278.5" cy="443.5078" fill="#84BE84" rx="3" ry="3" style="stroke:#038048;stroke-width:1;"/><text fill="#000000" font-family="sans-serif" font-size="14" lengthAdjust="spacing" textLength="207.0195" x="287.5" y="446.8545">lastStateOf(user: User): State</text></g><path d="M602,353.5 L602,392.332 L473.7178,425.7109 L602,400.332 L602,439.1641 A0,0 0 0 0 602,439.1641 L686.0132,439.1641 A0,0 0 0 0 686.0132,439.1641 L686.0132,363.5 L676.0132,353.5 L602,353.5 A0,0 0 0 0 602,353.5 " fill="#FEFFDD" style="stroke:#181818;stroke-width:0.5;"/><path d="M676.0132,353.5 L676.0132,363.5 L686.0132,363.5 L676.0132,353.5 " fill="#FEFFDD" style="stroke:#181818;stroke-width:0.5;"/><text fill="#000000" font-family="sans-serif" font-size="13" lengthAdjust="spacing" textLength="63.0132" x="608" y="370.5669">At most 1</text><text fill="#000000" font-family="sans-serif" font-size="13" lengthAdjust="spacing" textLength="60.3599" x="608" y="385.6997">route per</text><text fill="#000000" font-family="sans-serif" font-size="13" lengthAdjust="spacing" textLength="54.082" x="608" y="400.8325">user per</text><text fill="#000000" font-family="sans-serif" font-size="13" lengthAdjust="spacing" textLength="43.8877" x="608" y="415.9653">time is</text><text fill="#000000" font-family="sans-serif" font-size="13" lengthAdjust="spacing" textLength="39.5142" x="608" y="431.0981">active</text><!--class State--><g id="elem_State"><rect codeLine="204" fill="#F1F1F1" height="113.1875" id="State" rx="2.5" ry="2.5" style="stroke:#181818;stroke-width:0.5;" width="95.5078" x="281" y="514"/><ellipse cx="307.9026" cy="530" fill="#EB937F" rx="11" ry="11" style="stroke:#181818;stroke-width:1;"/><path d="M312.012,536 L304.2932,536 L304.2932,523.6094 L312.012,523.6094 L312.012,525.7656 L306.7463,525.7656 L306.7463,528.4375 L311.512,528.4375 L311.512,530.5938 L306.7463,530.5938 L306.7463,533.8438 L312.012,533.8438 L312.012,536 Z " fill="#000000"/><text fill="#000000" font-family="sans-serif" font-size="14" lengthAdjust="spacing" textLength="37.0576" x="324.5476" y="534.8467">State</text><line style="stroke:#181818;stroke-width:0.5;" x1="282" x2="375.5078" y1="546" y2="546"/><ellipse cx="292" cy="559.6484" fill="#FFFFFF" fill-opacity="0.00000" rx="3" ry="3" style="stroke:#038048;stroke-width:1;"/><text fill="#000000" font-family="sans-serif" font-size="14" lengthAdjust="spacing" textLength="54.9063" x="301" y="562.9951">ACTIVE,</text><ellipse cx="292" cy="575.9453" fill="#FFFFFF" fill-opacity="0.00000" rx="3" ry="3" style="stroke:#038048;stroke-width:1;"/><text fill="#000000" font-family="sans-serif" font-size="14" lengthAdjust="spacing" textLength="69.5078" x="301" y="579.292">INACTIVE,</text><ellipse cx="292" cy="592.2422" fill="#FFFFFF" fill-opacity="0.00000" rx="3" ry="3" style="stroke:#038048;stroke-width:1;"/><text fill="#000000" font-family="sans-serif" font-size="14" lengthAdjust="spacing" textLength="33.2432" x="301" y="595.5889">SOS,</text><ellipse cx="292" cy="608.5391" fill="#FFFFFF" fill-opacity="0.00000" rx="3" ry="3" style="stroke:#038048;stroke-width:1;"/><text fill="#000000" font-family="sans-serif" font-size="14" lengthAdjust="spacing" textLength="64.9961" x="301" y="611.8857">ROUTING</text><line style="stroke:#181818;stroke-width:0.5;" x1="282" x2="375.5078" y1="619.1875" y2="619.1875"/></g><!--class UserTrackingInfoServiceImpl--><g id="elem_UserTrackingInfoServiceImpl"><rect codeLine="212" fill="#F1F1F1" height="48" id="UserTrackingInfoServiceImpl" rx="2.5" ry="2.5" style="stroke:#181818;stroke-width:0.5;" width="233.0313" x="412.5" y="546.5"/><ellipse cx="427.5" cy="562.5" fill="#ADD1B2" rx="11" ry="11" style="stroke:#181818;stroke-width:1;"/><path d="M430.4688,568.1406 Q429.8906,568.4375 429.25,568.5781 Q428.6094,568.7344 427.9063,568.7344 Q425.4063,568.7344 424.0781,567.0938 Q422.7656,565.4375 422.7656,562.3125 Q422.7656,559.1875 424.0781,557.5313 Q425.4063,555.875 427.9063,555.875 Q428.6094,555.875 429.25,556.0313 Q429.9063,556.1875 430.4688,556.4844 L430.4688,559.2031 Q429.8438,558.625 429.25,558.3594 Q428.6563,558.0781 428.0313,558.0781 Q426.6875,558.0781 426,559.1563 Q425.3125,560.2188 425.3125,562.3125 Q425.3125,564.4063 426,565.4844 Q426.6875,566.5469 428.0313,566.5469 Q428.6563,566.5469 429.25,566.2813 Q429.8438,566 430.4688,565.4219 L430.4688,568.1406 Z " fill="#000000"/><text fill="#000000" font-family="sans-serif" font-size="14" lengthAdjust="spacing" textLength="201.0313" x="441.5" y="567.3467">UserTrackingInfoServiceImpl</text><line style="stroke:#181818;stroke-width:0.5;" x1="413.5" x2="644.5313" y1="578.5" y2="578.5"/><line style="stroke:#181818;stroke-width:0.5;" x1="413.5" x2="644.5313" y1="586.5" y2="586.5"/></g><!--class RealTimeTrackingService--><g id="elem_RealTimeTrackingService"><rect codeLine="215" fill="#F1F1F1" height="72.5625" id="RealTimeTrackingService" rx="2.5" ry="2.5" style="stroke:#181818;stroke-width:0.5;" width="209.584" x="22" y="365"/><ellipse cx="37" cy="385.1328" fill="#B4A7E5" rx="11" ry="11" style="stroke:#181818;stroke-width:1;"/><path d="M32.9219,380.8984 L32.9219,378.7422 L40.3125,378.7422 L40.3125,380.8984 L37.8438,380.8984 L37.8438,388.9766 L40.3125,388.9766 L40.3125,391.1328 L32.9219,391.1328 L32.9219,388.9766 L35.3906,388.9766 L35.3906,380.8984 L32.9219,380.8984 Z " fill="#000000"/><text fill="#000000" font-family="sans-serif" font-size="12" font-style="italic" lengthAdjust="spacing" textLength="91.9512" x="93.8164" y="381.1387">&#171;inbound port&#187;</text><text fill="#000000" font-family="sans-serif" font-size="14" font-style="italic" lengthAdjust="spacing" textLength="177.584" x="51" y="396.9639">RealTimeTrackingService</text><line style="stroke:#181818;stroke-width:0.5;" x1="23" x2="230.584" y1="405.2656" y2="405.2656"/><line style="stroke:#181818;stroke-width:0.5;" x1="23" x2="230.584" y1="413.2656" y2="413.2656"/><ellipse cx="33" cy="426.9141" fill="#84BE84" rx="3" ry="3" style="stroke:#038048;stroke-width:1;"/><text fill="#000000" font-family="sans-serif" font-size="14" lengthAdjust="spacing" textLength="147.7861" x="42" y="430.2607">handle(event: Event)</text></g><!--class ActorBasedTrackingService--><g id="elem_ActorBasedTrackingService"><rect codeLine="219" fill="#F1F1F1" height="48" id="ActorBasedTrackingService" rx="2.5" ry="2.5" style="stroke:#181818;stroke-width:0.5;" width="224.1445" x="22" y="546.5"/><ellipse cx="37" cy="562.5" fill="#ADD1B2" rx="11" ry="11" style="stroke:#181818;stroke-width:1;"/><path d="M39.9688,568.1406 Q39.3906,568.4375 38.75,568.5781 Q38.1094,568.7344 37.4063,568.7344 Q34.9063,568.7344 33.5781,567.0938 Q32.2656,565.4375 32.2656,562.3125 Q32.2656,559.1875 33.5781,557.5313 Q34.9063,555.875 37.4063,555.875 Q38.1094,555.875 38.75,556.0313 Q39.4063,556.1875 39.9688,556.4844 L39.9688,559.2031 Q39.3438,558.625 38.75,558.3594 Q38.1563,558.0781 37.5313,558.0781 Q36.1875,558.0781 35.5,559.1563 Q34.8125,560.2188 34.8125,562.3125 Q34.8125,564.4063 35.5,565.4844 Q36.1875,566.5469 37.5313,566.5469 Q38.1563,566.5469 38.75,566.2813 Q39.3438,566 39.9688,565.4219 L39.9688,568.1406 Z " fill="#000000"/><text fill="#000000" font-family="sans-serif" font-size="14" lengthAdjust="spacing" textLength="192.1445" x="51" y="567.3467">ActorBasedTrackingService</text><line style="stroke:#181818;stroke-width:0.5;" x1="23" x2="245.1445" y1="578.5" y2="578.5"/><line style="stroke:#181818;stroke-width:0.5;" x1="23" x2="245.1445" y1="586.5" y2="586.5"/></g><g id="elem_GMN55"><path d="M27,224.5 L27,264.7656 A0,0 0 0 0 27,264.7656 L123,264.7656 L127,364.79 L131,264.7656 L227.4102,264.7656 A0,0 0 0 0 227.4102,264.7656 L227.4102,234.5 L217.4102,224.5 L27,224.5 A0,0 0 0 0 27,224.5 " fill="#FEFFDD" style="stroke:#181818;stroke-width:0.5;"/><path d="M217.4102,224.5 L217.4102,234.5 L227.4102,234.5 L217.4102,224.5 " fill="#FEFFDD" style="stroke:#181818;stroke-width:0.5;"/><text fill="#000000" font-family="sans-serif" font-size="13" lengthAdjust="spacing" textLength="179.4102" x="33" y="241.5669">in charge of users real time</text><text fill="#000000" font-family="sans-serif" font-size="13" lengthAdjust="spacing" textLength="144.4028" x="33" y="256.6997">tracking management</text></g><!--class GPSLocation--><g id="elem_GPSLocation"><rect codeLine="112" fill="#F1F1F1" height="88.8594" id="GPSLocation" rx="2.5" ry="2.5" style="stroke:#181818;stroke-width:0.5;" width="150.7422" x="1216.5" y="695"/><ellipse cx="1245.4975" cy="715.1328" fill="#B4A7E5" rx="11" ry="11" style="stroke:#181818;stroke-width:1;"/><path d="M1241.4193,710.8984 L1241.4193,708.7422 L1248.81,708.7422 L1248.81,710.8984 L1246.3412,710.8984 L1246.3412,718.9766 L1248.81,718.9766 L1248.81,721.1328 L1241.4193,721.1328 L1241.4193,718.9766 L1243.8881,718.9766 L1243.8881,710.8984 L1241.4193,710.8984 Z " fill="#000000"/><text fill="#000000" font-family="sans-serif" font-size="12" font-style="italic" lengthAdjust="spacing" textLength="88.3828" x="1262.235" y="711.1387">&#171;value object&#187;</text><text fill="#000000" font-family="sans-serif" font-size="14" font-style="italic" lengthAdjust="spacing" textLength="87.6367" x="1262.608" y="726.9639">GPSLocation</text><line style="stroke:#181818;stroke-width:0.5;" x1="1217.5" x2="1366.2422" y1="735.2656" y2="735.2656"/><ellipse cx="1227.5" cy="748.9141" fill="#FFFFFF" fill-opacity="0.00000" rx="3" ry="3" style="stroke:#038048;stroke-width:1;"/><text fill="#000000" font-family="sans-serif" font-size="14" lengthAdjust="spacing" textLength="112.4854" x="1236.5" y="752.2607">latitude: Double</text><ellipse cx="1227.5" cy="765.2109" fill="#FFFFFF" fill-opacity="0.00000" rx="3" ry="3" style="stroke:#038048;stroke-width:1;"/><text fill="#000000" font-family="sans-serif" font-size="14" lengthAdjust="spacing" textLength="124.7422" x="1236.5" y="768.5576">longitude: Double</text><line style="stroke:#181818;stroke-width:0.5;" x1="1217.5" x2="1366.2422" y1="775.8594" y2="775.8594"/></g><!--class User--><g id="elem_User"><rect codeLine="117" fill="#F1F1F1" height="88.8594" id="User" rx="2.5" ry="2.5" style="stroke:#181818;stroke-width:0.5;" width="200.5488" x="899.5" y="200"/><ellipse cx="972.7012" cy="220.1328" fill="#ADD1B2" rx="11" ry="11" style="stroke:#181818;stroke-width:1;"/><path d="M975.6699,225.7734 Q975.0918,226.0703 974.4512,226.2109 Q973.8105,226.3672 973.1074,226.3672 Q970.6074,226.3672 969.2793,224.7266 Q967.9668,223.0703 967.9668,219.9453 Q967.9668,216.8203 969.2793,215.1641 Q970.6074,213.5078 973.1074,213.5078 Q973.8105,213.5078 974.4512,213.6641 Q975.1074,213.8203 975.6699,214.1172 L975.6699,216.8359 Q975.0449,216.2578 974.4512,215.9922 Q973.8574,215.7109 973.2324,215.7109 Q971.8887,215.7109 971.2012,216.7891 Q970.5137,217.8516 970.5137,219.9453 Q970.5137,222.0391 971.2012,223.1172 Q971.8887,224.1797 973.2324,224.1797 Q973.8574,224.1797 974.4512,223.9141 Q975.0449,223.6328 975.6699,223.0547 L975.6699,225.7734 Z " fill="#000000"/><text fill="#000000" font-family="sans-serif" font-size="12" font-style="italic" lengthAdjust="spacing" textLength="49.6465" x="991.2012" y="216.1387">&#171;entity&#187;</text><text fill="#000000" font-family="sans-serif" font-size="14" lengthAdjust="spacing" textLength="31.9102" x="1000.0693" y="231.9639">User</text><line style="stroke:#181818;stroke-width:0.5;" x1="900.5" x2="1099.0488" y1="240.2656" y2="240.2656"/><ellipse cx="910.5" cy="253.9141" fill="#FFFFFF" fill-opacity="0.00000" rx="3" ry="3" style="stroke:#038048;stroke-width:1;"/><text fill="#000000" font-family="sans-serif" font-size="14" lengthAdjust="spacing" textLength="66.8691" x="919.5" y="257.2607">id: UserId</text><ellipse cx="910.5" cy="270.2109" fill="#FFFFFF" fill-opacity="0.00000" rx="3" ry="3" style="stroke:#038048;stroke-width:1;"/><text fill="#000000" font-family="sans-serif" font-size="14" lengthAdjust="spacing" textLength="174.5488" x="919.5" y="273.5576">inGroups: Set&lt;GroupId&gt;</text><line style="stroke:#181818;stroke-width:0.5;" x1="900.5" x2="1099.0488" y1="280.8594" y2="280.8594"/></g><!--class UserId--><g id="elem_UserId"><rect codeLine="121" fill="#F1F1F1" height="56.2656" id="UserId" rx="2.5" ry="2.5" style="stroke:#181818;stroke-width:0.5;" width="116.3828" x="866" y="84"/><ellipse cx="881" cy="104.1328" fill="#ADD1B2" rx="11" ry="11" style="stroke:#181818;stroke-width:1;"/><path d="M883.9688,109.7734 Q883.3906,110.0703 882.75,110.2109 Q882.1094,110.3672 881.4063,110.3672 Q878.9063,110.3672 877.5781,108.7266 Q876.2656,107.0703 876.2656,103.9453 Q876.2656,100.8203 877.5781,99.1641 Q878.9063,97.5078 881.4063,97.5078 Q882.1094,97.5078 882.75,97.6641 Q883.4063,97.8203 883.9688,98.1172 L883.9688,100.8359 Q883.3438,100.2578 882.75,99.9922 Q882.1563,99.7109 881.5313,99.7109 Q880.1875,99.7109 879.5,100.7891 Q878.8125,101.8516 878.8125,103.9453 Q878.8125,106.0391 879.5,107.1172 Q880.1875,108.1797 881.5313,108.1797 Q882.1563,108.1797 882.75,107.9141 Q883.3438,107.6328 883.9688,107.0547 L883.9688,109.7734 Z " fill="#000000"/><text fill="#000000" font-family="sans-serif" font-size="12" font-style="italic" lengthAdjust="spacing" textLength="88.3828" x="893" y="100.1387">&#171;value object&#187;</text><text fill="#000000" font-family="sans-serif" font-size="14" lengthAdjust="spacing" textLength="44.9258" x="914.7285" y="115.9639">UserId</text><line style="stroke:#181818;stroke-width:0.5;" x1="867" x2="981.3828" y1="124.2656" y2="124.2656"/><line style="stroke:#181818;stroke-width:0.5;" x1="867" x2="981.3828" y1="132.2656" y2="132.2656"/></g><!--class GroupId--><g id="elem_GroupId"><rect codeLine="122" fill="#F1F1F1" height="56.2656" id="GroupId" rx="2.5" ry="2.5" style="stroke:#181818;stroke-width:0.5;" width="116.3828" x="1017" y="84"/><ellipse cx="1032" cy="104.1328" fill="#ADD1B2" rx="11" ry="11" style="stroke:#181818;stroke-width:1;"/><path d="M1034.9688,109.7734 Q1034.3906,110.0703 1033.75,110.2109 Q1033.1094,110.3672 1032.4063,110.3672 Q1029.9063,110.3672 1028.5781,108.7266 Q1027.2656,107.0703 1027.2656,103.9453 Q1027.2656,100.8203 1028.5781,99.1641 Q1029.9063,97.5078 1032.4063,97.5078 Q1033.1094,97.5078 1033.75,97.6641 Q1034.4063,97.8203 1034.9688,98.1172 L1034.9688,100.8359 Q1034.3438,100.2578 1033.75,99.9922 Q1033.1563,99.7109 1032.5313,99.7109 Q1031.1875,99.7109 1030.5,100.7891 Q1029.8125,101.8516 1029.8125,103.9453 Q1029.8125,106.0391 1030.5,107.1172 Q1031.1875,108.1797 1032.5313,108.1797 Q1033.1563,108.1797 1033.75,107.9141 Q1034.3438,107.6328 1034.9688,107.0547 L1034.9688,109.7734 Z " fill="#000000"/><text fill="#000000" font-family="sans-serif" font-size="12" font-style="italic" lengthAdjust="spacing" textLength="88.3828" x="1044" y="100.1387">&#171;value object&#187;</text><text fill="#000000" font-family="sans-serif" font-size="14" lengthAdjust="spacing" textLength="55.9453" x="1060.2188" y="115.9639">GroupId</text><line style="stroke:#181818;stroke-width:0.5;" x1="1018" x2="1132.3828" y1="124.2656" y2="124.2656"/><line style="stroke:#181818;stroke-width:0.5;" x1="1018" x2="1132.3828" y1="132.2656" y2="132.2656"/></g><!--class Event--><g id="elem_Event"><rect codeLine="127" fill="#F1F1F1" height="80.5938" id="Event" rx="2.5" ry="2.5" style="stroke:#181818;stroke-width:0.5;" width="144.1455" x="928" y="361"/><ellipse cx="975.7695" cy="377" fill="#B4A7E5" rx="11" ry="11" style="stroke:#181818;stroke-width:1;"/><path d="M971.6914,372.7656 L971.6914,370.6094 L979.082,370.6094 L979.082,372.7656 L976.6133,372.7656 L976.6133,380.8438 L979.082,380.8438 L979.082,383 L971.6914,383 L971.6914,380.8438 L974.1602,380.8438 L974.1602,372.7656 L971.6914,372.7656 Z " fill="#000000"/><text fill="#000000" font-family="sans-serif" font-size="14" font-style="italic" lengthAdjust="spacing" textLength="40.1064" x="996.2695" y="381.8467">Event</text><line style="stroke:#181818;stroke-width:0.5;" x1="929" x2="1071.1455" y1="393" y2="393"/><ellipse cx="939" cy="406.6484" fill="#FFFFFF" fill-opacity="0.00000" rx="3" ry="3" style="stroke:#038048;stroke-width:1;"/><text fill="#000000" font-family="sans-serif" font-size="14" lengthAdjust="spacing" textLength="118.1455" x="948" y="409.9951">timestamp: Date</text><ellipse cx="939" cy="422.9453" fill="#FFFFFF" fill-opacity="0.00000" rx="3" ry="3" style="stroke:#038048;stroke-width:1;"/><text fill="#000000" font-family="sans-serif" font-size="14" lengthAdjust="spacing" textLength="71.6133" x="948" y="426.292">user: User</text><line style="stroke:#181818;stroke-width:0.5;" x1="929" x2="1071.1455" y1="433.5938" y2="433.5938"/></g><!--class StartRoutingEvent--><g id="elem_StartRoutingEvent"><rect codeLine="134" fill="#F1F1F1" height="88.8594" id="StartRoutingEvent" rx="2.5" ry="2.5" style="stroke:#181818;stroke-width:0.5;" width="222.5469" x="1123.5" y="526"/><ellipse cx="1166.371" cy="546.1328" fill="#B4A7E5" rx="11" ry="11" style="stroke:#181818;stroke-width:1;"/><path d="M1162.2929,541.8984 L1162.2929,539.7422 L1169.6835,539.7422 L1169.6835,541.8984 L1167.2147,541.8984 L1167.2147,549.9766 L1169.6835,549.9766 L1169.6835,552.1328 L1162.2929,552.1328 L1162.2929,549.9766 L1164.7616,549.9766 L1164.7616,541.8984 L1162.2929,541.8984 Z " fill="#000000"/><text fill="#000000" font-family="sans-serif" font-size="12" font-style="italic" lengthAdjust="spacing" textLength="97.7461" x="1201.9972" y="542.1387">&#171;domain event&#187;</text><text fill="#000000" font-family="sans-serif" font-size="14" font-style="italic" lengthAdjust="spacing" textLength="128.6113" x="1186.5646" y="557.9639">StartRoutingEvent</text><line style="stroke:#181818;stroke-width:0.5;" x1="1124.5" x2="1345.0469" y1="566.2656" y2="566.2656"/><ellipse cx="1134.5" cy="579.9141" fill="#FFFFFF" fill-opacity="0.00000" rx="3" ry="3" style="stroke:#038048;stroke-width:1;"/><text fill="#000000" font-family="sans-serif" font-size="14" lengthAdjust="spacing" textLength="196.5469" x="1143.5" y="583.2607">arrivalPosition: GPSLocation</text><ellipse cx="1134.5" cy="596.2109" fill="#FFFFFF" fill-opacity="0.00000" rx="3" ry="3" style="stroke:#038048;stroke-width:1;"/><text fill="#000000" font-family="sans-serif" font-size="14" lengthAdjust="spacing" textLength="193.5459" x="1143.5" y="599.5576">estimatedArrivalTime: Date</text><line style="stroke:#181818;stroke-width:0.5;" x1="1124.5" x2="1345.0469" y1="606.8594" y2="606.8594"/></g><!--class TrackingEvent--><g id="elem_TrackingEvent"><rect codeLine="141" fill="#F1F1F1" height="72.5625" id="TrackingEvent" rx="2.5" ry="2.5" style="stroke:#181818;stroke-width:0.5;" width="178.2568" x="911" y="534"/><ellipse cx="946.6143" cy="554.1328" fill="#B4A7E5" rx="11" ry="11" style="stroke:#181818;stroke-width:1;"/><path d="M942.5362,549.8984 L942.5362,547.7422 L949.9268,547.7422 L949.9268,549.8984 L947.4581,549.8984 L947.4581,557.9766 L949.9268,557.9766 L949.9268,560.1328 L942.5362,560.1328 L942.5362,557.9766 L945.0049,557.9766 L945.0049,549.8984 L942.5362,549.8984 Z " fill="#000000"/><text fill="#000000" font-family="sans-serif" font-size="12" font-style="italic" lengthAdjust="spacing" textLength="97.7461" x="966.5458" y="550.1387">&#171;domain event&#187;</text><text fill="#000000" font-family="sans-serif" font-size="14" font-style="italic" lengthAdjust="spacing" textLength="100.4473" x="965.1953" y="565.9639">TrackingEvent</text><line style="stroke:#181818;stroke-width:0.5;" x1="912" x2="1088.2568" y1="574.2656" y2="574.2656"/><ellipse cx="922" cy="587.9141" fill="#FFFFFF" fill-opacity="0.00000" rx="3" ry="3" style="stroke:#038048;stroke-width:1;"/><text fill="#000000" font-family="sans-serif" font-size="14" lengthAdjust="spacing" textLength="152.2568" x="931" y="591.2607">position: GPSLocation</text><line style="stroke:#181818;stroke-width:0.5;" x1="912" x2="1088.2568" y1="598.5625" y2="598.5625"/></g><!--class StopRoutingEvent--><g id="elem_StopRoutingEvent"><rect codeLine="148" fill="#F1F1F1" height="56.2656" id="StopRoutingEvent" rx="2.5" ry="2.5" style="stroke:#181818;stroke-width:0.5;" width="158.2393" x="718" y="542.5"/><ellipse cx="733" cy="562.6328" fill="#B4A7E5" rx="11" ry="11" style="stroke:#181818;stroke-width:1;"/><path d="M728.9219,558.3984 L728.9219,556.2422 L736.3125,556.2422 L736.3125,558.3984 L733.8438,558.3984 L733.8438,566.4766 L736.3125,566.4766 L736.3125,568.6328 L728.9219,568.6328 L728.9219,566.4766 L731.3906,566.4766 L731.3906,558.3984 L728.9219,558.3984 Z " fill="#000000"/><text fill="#000000" font-family="sans-serif" font-size="12" font-style="italic" lengthAdjust="spacing" textLength="97.7461" x="761.2466" y="558.6387">&#171;domain event&#187;</text><text fill="#000000" font-family="sans-serif" font-size="14" font-style="italic" lengthAdjust="spacing" textLength="126.2393" x="747" y="574.4639">StopRoutingEvent</text><line style="stroke:#181818;stroke-width:0.5;" x1="719" x2="875.2393" y1="582.7656" y2="582.7656"/><line style="stroke:#181818;stroke-width:0.5;" x1="719" x2="875.2393" y1="590.7656" y2="590.7656"/></g><!--class SOSAlertEvent--><g id="elem_SOSAlertEvent"><rect codeLine="150" fill="#F1F1F1" height="72.5625" id="SOSAlertEvent" rx="2.5" ry="2.5" style="stroke:#181818;stroke-width:0.5;" width="178.2568" x="1382" y="534"/><ellipse cx="1416.8145" cy="554.1328" fill="#B4A7E5" rx="11" ry="11" style="stroke:#181818;stroke-width:1;"/><path d="M1412.7364,549.8984 L1412.7364,547.7422 L1420.127,547.7422 L1420.127,549.8984 L1417.6583,549.8984 L1417.6583,557.9766 L1420.127,557.9766 L1420.127,560.1328 L1412.7364,560.1328 L1412.7364,557.9766 L1415.2051,557.9766 L1415.2051,549.8984 L1412.7364,549.8984 Z " fill="#000000"/><text fill="#000000" font-family="sans-serif" font-size="12" font-style="italic" lengthAdjust="spacing" textLength="97.7461" x="1437.457" y="550.1387">&#171;domain event&#187;</text><text fill="#000000" font-family="sans-serif" font-size="14" font-style="italic" lengthAdjust="spacing" textLength="102.2246" x="1435.2177" y="565.9639">SOSAlertEvent</text><line style="stroke:#181818;stroke-width:0.5;" x1="1383" x2="1559.2568" y1="574.2656" y2="574.2656"/><ellipse cx="1393" cy="587.9141" fill="#FFFFFF" fill-opacity="0.00000" rx="3" ry="3" style="stroke:#038048;stroke-width:1;"/><text fill="#000000" font-family="sans-serif" font-size="14" lengthAdjust="spacing" textLength="152.2568" x="1402" y="591.2607">position: GPSLocation</text><line style="stroke:#181818;stroke-width:0.5;" x1="1383" x2="1559.2568" y1="598.5625" y2="598.5625"/></g><!--class Route--><g id="elem_Route"><rect codeLine="157" fill="#F1F1F1" height="105.1563" id="Route" rx="2.5" ry="2.5" style="stroke:#181818;stroke-width:0.5;" width="362.9707" x="818.5" y="687"/><ellipse cx="945.2793" cy="707.1328" fill="#B4A7E5" rx="11" ry="11" style="stroke:#181818;stroke-width:1;"/><path d="M941.2012,702.8984 L941.2012,700.7422 L948.5918,700.7422 L948.5918,702.8984 L946.123,702.8984 L946.123,710.9766 L948.5918,710.9766 L948.5918,713.1328 L941.2012,713.1328 L941.2012,710.9766 L943.6699,710.9766 L943.6699,702.8984 L941.2012,702.8984 Z " fill="#000000"/><text fill="#000000" font-family="sans-serif" font-size="12" font-style="italic" lengthAdjust="spacing" textLength="104.9121" x="963.7793" y="703.1387">&#171;aggregate root&#187;</text><text fill="#000000" font-family="sans-serif" font-size="14" font-style="italic" lengthAdjust="spacing" textLength="41.2686" x="995.6011" y="718.9639">Route</text><line style="stroke:#181818;stroke-width:0.5;" x1="819.5" x2="1180.4707" y1="727.2656" y2="727.2656"/><ellipse cx="829.5" cy="740.9141" fill="#FFFFFF" fill-opacity="0.00000" rx="3" ry="3" style="stroke:#038048;stroke-width:1;"/><text fill="#000000" font-family="sans-serif" font-size="14" lengthAdjust="spacing" textLength="177.6523" x="838.5" y="744.2607">event: StartRoutingEvent</text><ellipse cx="829.5" cy="757.2109" fill="#FFFFFF" fill-opacity="0.00000" rx="3" ry="3" style="stroke:#038048;stroke-width:1;"/><text fill="#000000" font-family="sans-serif" font-size="14" lengthAdjust="spacing" textLength="220.2949" x="838.5" y="760.5576">positions: List&lt;TrackingEvent&gt;</text><line style="stroke:#181818;stroke-width:0.5;" x1="819.5" x2="1180.4707" y1="767.8594" y2="767.8594"/><ellipse cx="829.5" cy="781.5078" fill="#84BE84" rx="3" ry="3" style="stroke:#038048;stroke-width:1;"/><text fill="#000000" font-family="sans-serif" font-size="14" lengthAdjust="spacing" textLength="336.9707" x="838.5" y="784.8545">addTrace(TrackingEvent: TrackingEvent): Route</text></g><!--link UserId to User--><g id="link_UserId_User"><path codeLine="124" d="M939.75,140.04 C949.79,157.29 957.0024,169.6595 968.5124,189.4295 " fill="#FFFFFF" fill-opacity="0.00000" id="UserId-to-User" style="stroke:#181818;stroke-width:1;"/><polygon fill="#181818" points="974.55,199.8,974.988,192.6022,968.5124,189.4295,968.0744,196.6273,974.55,199.8" style="stroke:#181818;stroke-width:1;"/><text fill="#000000" font-family="sans-serif" font-size="13" lengthAdjust="spacing" textLength="9.7246" x="933.3911" y="160.3102">N</text></g><!--link GroupId to User--><g id="link_GroupId_User"><path codeLine="125" d="M1059.46,140.04 C1049.55,157.29 1042.4625,169.6276 1031.0925,189.3976 " fill="#FFFFFF" fill-opacity="0.00000" id="GroupId-to-User" style="stroke:#181818;stroke-width:1;"/><polygon fill="#181818" points="1025.11,199.8,1031.5687,196.593,1031.0925,189.3976,1024.6338,192.6046,1025.11,199.8" style="stroke:#181818;stroke-width:1;"/><text fill="#000000" font-family="sans-serif" font-size="13" lengthAdjust="spacing" textLength="9.7246" x="1045.8653" y="160.3102">N</text></g><!--link User to Event--><g id="link_User_Event"><path codeLine="132" d="M1000,289.09 C1000,311.65 1000,326.99 1000,348.95 " fill="#FFFFFF" fill-opacity="0.00000" id="User-to-Event" style="stroke:#181818;stroke-width:1;"/><polygon fill="#181818" points="1000,360.95,1004,354.95,1000,348.95,996,354.95,1000,360.95" style="stroke:#181818;stroke-width:1;"/><text fill="#000000" font-family="sans-serif" font-size="13" lengthAdjust="spacing" textLength="8.271" x="991.4655" y="308.8277">1</text></g><!--reverse link Event to StartRoutingEvent--><g id="link_Event_StartRoutingEvent"><path d="M1070.364,452.5046 C1105.794,477.6746 1137.02,499.87 1173.51,525.81 " fill="#FFFFFF" fill-opacity="0.00000" id="Event-backto-StartRoutingEvent" style="stroke:#181818;stroke-width:1;"/><polygon fill="#FFFFFF" fill-opacity="0.00000" points="1055.69,442.08,1066.8891,457.396,1073.8389,447.6133,1055.69,442.08" style="stroke:#181818;stroke-width:1;"/></g><!--reverse link StartRoutingEvent to GPSLocation--><g id="link_StartRoutingEvent_GPSLocation"><path codeLine="139" d="M1253.8538,626.7375 C1262.2238,651.2775 1268.76,670.42 1277.12,694.92 " fill="#FFFFFF" fill-opacity="0.00000" id="StartRoutingEvent-backto-GPSLocation" style="stroke:#181818;stroke-width:1;"/><polygon fill="#181818" points="1249.98,615.38,1248.131,622.35,1253.8538,626.7375,1255.7027,619.7675,1249.98,615.38" style="stroke:#181818;stroke-width:1;"/><text fill="#000000" font-family="sans-serif" font-size="13" lengthAdjust="spacing" textLength="8.271" x="1266.2695" y="684.0331">1</text></g><!--reverse link Event to TrackingEvent--><g id="link_Event_TrackingEvent"><path d="M1000,460.08 C1000,487.95 1000,506.96 1000,533.9 " fill="#FFFFFF" fill-opacity="0.00000" id="Event-backto-TrackingEvent" style="stroke:#181818;stroke-width:1;"/><polygon fill="#FFFFFF" fill-opacity="0.00000" points="1000,442.08,994,460.08,1006,460.08,1000,442.08" style="stroke:#181818;stroke-width:1;"/></g><!--reverse link TrackingEvent to GPSLocation--><g id="link_TrackingEvent_GPSLocation"><path codeLine="146" d="M1072.6968,613.0774 C1117.7568,638.8474 1168.46,667.85 1216.33,695.22 " fill="#FFFFFF" fill-opacity="0.00000" id="TrackingEvent-backto-GPSLocation" style="stroke:#181818;stroke-width:1;"/><polygon fill="#181818" points="1062.28,607.12,1065.5026,613.571,1072.6968,613.0774,1069.4742,606.6264,1062.28,607.12" style="stroke:#181818;stroke-width:1;"/><text fill="#000000" font-family="sans-serif" font-size="13" lengthAdjust="spacing" textLength="8.271" x="1200.1413" y="686.9612">1</text></g><!--reverse link Event to StopRoutingEvent--><g id="link_Event_StopRoutingEvent"><path d="M937.9899,453.5163 C900.3599,484.4763 862.93,515.26 829.87,542.46 " fill="#FFFFFF" fill-opacity="0.00000" id="Event-backto-StopRoutingEvent" style="stroke:#181818;stroke-width:1;"/><polygon fill="#FFFFFF" fill-opacity="0.00000" points="951.89,442.08,934.1778,448.8829,941.802,458.1496,951.89,442.08" style="stroke:#181818;stroke-width:1;"/></g><!--reverse link Event to SOSAlertEvent--><g id="link_Event_SOSAlertEvent"><path d="M1089.5439,425.0059 C1163.9639,444.4759 1265.34,473.69 1364,514 C1378.24,519.82 1393.12,526.87 1407.1,533.97 " fill="#FFFFFF" fill-opacity="0.00000" id="Event-backto-SOSAlertEvent" style="stroke:#181818;stroke-width:1;"/><polygon fill="#FFFFFF" fill-opacity="0.00000" points="1072.13,420.45,1088.0253,430.8105,1091.0625,419.2012,1072.13,420.45" style="stroke:#181818;stroke-width:1;"/></g><!--reverse link SOSAlertEvent to GPSLocation--><g id="link_SOSAlertEvent_GPSLocation"><path codeLine="155" d="M1423.8239,615.5142 C1396.3939,641.0942 1368.11,667.49 1338.93,694.72 " fill="#FFFFFF" fill-opacity="0.00000" id="SOSAlertEvent-backto-GPSLocation" style="stroke:#181818;stroke-width:1;"/><polygon fill="#181818" points="1432.6,607.33,1425.4839,608.4967,1423.8239,615.5142,1430.94,614.3474,1432.6,607.33" style="stroke:#181818;stroke-width:1;"/><text fill="#000000" font-family="sans-serif" font-size="13" lengthAdjust="spacing" textLength="8.271" x="1337.5441" y="683.8025">1</text></g><!--link StartRoutingEvent to Route--><g id="link_StartRoutingEvent_Route"><path codeLine="163" d="M1173.56,615.16 C1142.69,637.1 1114.8618,656.8789 1082.5518,679.8389 " fill="#FFFFFF" fill-opacity="0.00000" id="StartRoutingEvent-to-Route" style="stroke:#181818;stroke-width:1;"/><polygon fill="#181818" points="1072.77,686.79,1079.9779,686.575,1082.5518,679.8389,1075.3439,680.0539,1072.77,686.79" style="stroke:#181818;stroke-width:1;"/><text fill="#000000" font-family="sans-serif" font-size="13" lengthAdjust="spacing" textLength="8.271" x="1156.0017" y="634.908">1</text></g><!--link TrackingEvent to Route--><g id="link_TrackingEvent_Route"><path codeLine="164" d="M1000,607.33 C1000,630.52 1000,649.09 1000,674.89 " fill="#FFFFFF" fill-opacity="0.00000" id="TrackingEvent-to-Route" style="stroke:#181818;stroke-width:1;"/><polygon fill="#181818" points="1000,686.89,1004,680.89,1000,674.89,996,680.89,1000,686.89" style="stroke:#181818;stroke-width:1;"/><text fill="#000000" font-family="sans-serif" font-size="13" lengthAdjust="spacing" textLength="9.7246" x="990.3201" y="626.5074">N</text></g><!--reverse link TrackingEventsReader to TrackingEventsStore--><g id="link_TrackingEventsReader_TrackingEventsStore"><path d="M288.4737,788.911 C315.9937,816.971 341.21,842.69 366.35,868.32 " fill="#FFFFFF" fill-opacity="0.00000" id="TrackingEventsReader-backto-TrackingEventsStore" style="stroke:#181818;stroke-width:1;"/><polygon fill="#FFFFFF" fill-opacity="0.00000" points="275.87,776.06,284.19,793.1122,292.7573,784.7098,275.87,776.06" style="stroke:#181818;stroke-width:1;"/></g><!--reverse link TrackingEventsWriter to TrackingEventsStore--><g id="link_TrackingEventsWriter_TrackingEventsStore"><path d="M498.2545,788.8698 C470.5545,816.9298 445.13,842.69 419.83,868.32 " fill="#FFFFFF" fill-opacity="0.00000" id="TrackingEventsWriter-backto-TrackingEventsStore" style="stroke:#181818;stroke-width:1;"/><polygon fill="#FFFFFF" fill-opacity="0.00000" points="510.9,776.06,493.9846,784.6547,502.5245,793.085,510.9,776.06" style="stroke:#181818;stroke-width:1;"/></g><!--link TrackingEvent to TrackingEventsReader--><g id="link_TrackingEvent_TrackingEventsReader"><path codeLine="174" d="M941.37,607.01 C926.38,614.73 909.97,622.05 894,627 C678.09,693.86 609.25,636.23 389,687 C370.71,691.22 362.9092,693.1202 344.6492,699.1802 " fill="#FFFFFF" fill-opacity="0.00000" id="TrackingEvent-to-TrackingEventsReader" style="stroke:#181818;stroke-width:1;stroke-dasharray:7.0,7.0;"/><polygon fill="#FFFFFF" fill-opacity="0.00000" points="333.26,702.96,340.2145,704.8665,344.6492,699.1802,337.6947,697.2737,333.26,702.96" style="stroke:#181818;stroke-width:1;"/></g><!--link TrackingEvent to TrackingEventsWriter--><g id="link_TrackingEvent_TrackingEventsWriter"><path codeLine="175" d="M936.42,607.14 C922.65,614.19 908.01,621.2 894,627 C811.4,661.21 787.12,659.65 702,687 C686.11,692.1 680.7414,693.8174 664.3214,699.2074 " fill="#FFFFFF" fill-opacity="0.00000" id="TrackingEvent-to-TrackingEventsWriter" style="stroke:#181818;stroke-width:1;stroke-dasharray:7.0,7.0;"/><polygon fill="#FFFFFF" fill-opacity="0.00000" points="652.92,702.95,659.8683,704.8792,664.3214,699.2074,657.3732,697.2782,652.92,702.95" style="stroke:#181818;stroke-width:1;"/></g><!--link GPSLocation to MapsService--><g id="link_GPSLocation_MapsService"><path codeLine="190" d="M1292,784.09 C1292,805.31 1292,818.76 1292,839.97 " fill="#FFFFFF" fill-opacity="0.00000" id="GPSLocation-to-MapsService" style="stroke:#181818;stroke-width:1;stroke-dasharray:7.0,7.0;"/><polygon fill="#FFFFFF" fill-opacity="0.00000" points="1292,851.97,1296,845.97,1292,839.97,1288,845.97,1292,851.97" style="stroke:#181818;stroke-width:1;"/></g><!--reverse link UserTrackingInfoService to State--><g id="link_UserTrackingInfoService_State"><path codeLine="210" d="M384.0473,465.0371 C374.1073,483.9071 368.43,494.67 358.33,513.84 " fill="#FFFFFF" fill-opacity="0.00000" id="UserTrackingInfoService-backto-State" style="stroke:#181818;stroke-width:1;stroke-dasharray:7.0,7.0;"/><polygon fill="#FFFFFF" fill-opacity="0.00000" points="389.64,454.42,383.3046,457.8643,384.0473,465.0371,390.3827,461.5928,389.64,454.42" style="stroke:#181818;stroke-width:1;"/></g><!--reverse link UserTrackingInfoService to UserTrackingInfoServiceImpl--><g id="link_UserTrackingInfoService_UserTrackingInfoServiceImpl"><path d="M461.8448,469.37 C482.5248,500.21 497.69,522.82 513.55,546.46 " fill="#FFFFFF" fill-opacity="0.00000" id="UserTrackingInfoService-backto-UserTrackingInfoServiceImpl" style="stroke:#181818;stroke-width:1;stroke-dasharray:7.0,7.0;"/><polygon fill="#FFFFFF" fill-opacity="0.00000" points="451.82,454.42,456.8615,472.7116,466.8282,466.0284,451.82,454.42" style="stroke:#181818;stroke-width:1;"/></g><!--reverse link UserTrackingInfoServiceImpl to TrackingEventsReader--><g id="link_UserTrackingInfoServiceImpl_TrackingEventsReader"><path codeLine="213" d="M478.8783,600.5684 C430.5783,628.5684 358.93,670.11 302.47,702.86 " fill="#FFFFFF" fill-opacity="0.00000" id="UserTrackingInfoServiceImpl-backto-TrackingEventsReader" style="stroke:#181818;stroke-width:1;"/><polygon fill="#181818" points="489.26,594.55,482.063,594.0986,478.8783,600.5684,486.0753,601.0197,489.26,594.55" style="stroke:#181818;stroke-width:1;"/></g><!--link Event to RealTimeTrackingService--><g id="link_Event_RealTimeTrackingService"><path codeLine="218" d="M966.06,360.7 C949.91,344.44 929.18,327.58 906.5,319 C840.09,293.89 336.01,300.37 267.5,319 C234.2,328.05 210.663,340.4869 184.743,358.0569 " fill="#FFFFFF" fill-opacity="0.00000" id="Event-to-RealTimeTrackingService" style="stroke:#181818;stroke-width:1;stroke-dasharray:7.0,7.0;"/><polygon fill="#FFFFFF" fill-opacity="0.00000" points="174.81,364.79,182.0209,364.7344,184.743,358.0569,177.5321,358.1124,174.81,364.79" style="stroke:#181818;stroke-width:1;"/></g><!--reverse link RealTimeTrackingService to ActorBasedTrackingService--><g id="link_RealTimeTrackingService_ActorBasedTrackingService"><path d="M129.2562,456.3141 C130.6262,488.8941 131.84,518.06 133.02,546.07 " fill="#FFFFFF" fill-opacity="0.00000" id="RealTimeTrackingService-backto-ActorBasedTrackingService" style="stroke:#181818;stroke-width:1;stroke-dasharray:7.0,7.0;"/><polygon fill="#FFFFFF" fill-opacity="0.00000" points="128.5,438.33,123.2615,456.5662,135.2509,456.062,128.5,438.33" style="stroke:#181818;stroke-width:1;"/></g><!--SRC=[jLTTRzem57tdLrYy3Bg2rDS88R6jgY9rRLNOzcnYGxqbSMGxQ5NL_xvhEo6sum2Rj3mH-_ZUS-wNGuMpNtXF4Qwgd6LOCLwYjn62fsfs22ymQnVrmqf5nGvd5DqzhUzvSsYnEE2yfeXlVz9CBPVE0VryH3dWL4reWhxmUflJS9kN-_Z- - -ZuCyknbEYRf0ByqH8ClaOyCP8OJ4h2ZV9EyBgI2LfJjJ2_Kx9q7FNzfAIdB40rPlgm8yxmlPhLCpH-68VC_Ct6s2WIxDi32EvfLQoWKk6YWh1X5GQr1kCs5h5e6jVZcp6QpQwi-PZVjS92FVDQiN9lEImMJKrG_Ge9eByLBOaSe8Y5O12Q9owPhfJ4BPi02b9O0JB8ofxPWBf0cCE_p-ngDZE2N0yHIHi1jVslSggeZXW_tys5tDQALtyHxQY9n_KgfqBzPtc-cmlbQMaKEE7zNj0z91O9pcFZmh1D-ZaUe0izVS-aMdWnNuQLI8ZUfnCFbVY9cYQMP4ooPM-x5RGEatE1qDQUWv5ZTA0cvJF5n0mviBFbTKb0gF33f2UgL8-xITVaqoJgwPIZ7uAfiuuaFfo9sGMUeB05ZJXYHPNJGYEYCRYE4Xxr-giD6P_NrJmIXgZi6DYWFuGbEqZ_hS4t0xSYKDCJSwIfewa7sBxw-UfAhKKGcjC14-yjEPUIrM3j10duYYkvfkB0Cdecm-tWTURkHEhgziR0DOB1uQrCW-aCzA4BSPbTV3oy31gDBdMhi3TOEfqwbcqIqtB7EysiFDazPXgSRo5xGEWGXs1_L5YhC1RwGBFej4d9zUnZ-nU5-6v8GP8qJeyULWeLN2fqSrmn25GvLxpswoteZmJ4vF4TPueTB1d8YA7IlDI59Uf5QlLvatw_lNPMqeV-6bm7xklpuxTD-d3dA1xA4f_Fc-YC_6-l23Y5OU5EZ07OAN_6XBwjOkCZh2nODStGOY-gh1TSafnEcXkiDo27RF9vFaTTqTauh39eyazOKXB2dIWCMEpg3BufT9MTmbdTA7l10Zxw0QohI281HqpzTCNK74O5Bk7_GT7oFLRI-ny0]--></g></svg>