<svg xmlns="http://www.w3.org/2000/svg" xmlns:xlink="http://www.w3.org/1999/xlink" contentStyleType="text/css" data-diagram-type="CLASS" height="930px" preserveAspectRatio="none" style="width:1201px;height:930px;background:#FFFFFF;" version="1.1" viewBox="0 0 1201 930" width="1201px" zoomAndPan="magnify"><defs/><g><!--cluster domain--><g id="cluster_domain"><path d="M8.5,6 L67.9404,6 A3.75,3.75 0 0 1 70.4404,8.5 L77.4404,28.2969 L1191.5,28.2969 A2.5,2.5 0 0 1 1194,30.7969 L1194,920.5 A2.5,2.5 0 0 1 1191.5,923 L8.5,923 A2.5,2.5 0 0 1 6,920.5 L6,8.5 A2.5,2.5 0 0 1 8.5,6 " fill="transparent" style="stroke:#000000;stroke-width:1.5;"/><line style="stroke:#000000;stroke-width:1.5;" x1="6" x2="77.4404" y1="28.2969" y2="28.2969"/><text fill="#000000" font-family="sans-serif" font-size="14" font-weight="bold" lengthAdjust="spacing" textLength="58.4404" x="10" y="20.9951">domain</text></g><!--class GPSLocation--><g id="elem_GPSLocation"><rect codeLine="31" fill="#F1F1F1" height="88.8594" id="GPSLocation" rx="2.5" ry="2.5" style="stroke:#181818;stroke-width:0.5;" width="150.7422" x="344.5" y="496"/><ellipse cx="373.4975" cy="516.1328" fill="#B4A7E5" rx="11" ry="11" style="stroke:#181818;stroke-width:1;"/><path d="M369.4193,511.8984 L369.4193,509.7422 L376.81,509.7422 L376.81,511.8984 L374.3412,511.8984 L374.3412,519.9766 L376.81,519.9766 L376.81,522.1328 L369.4193,522.1328 L369.4193,519.9766 L371.8881,519.9766 L371.8881,511.8984 L369.4193,511.8984 Z " fill="#000000"/><text fill="#000000" font-family="sans-serif" font-size="12" font-style="italic" lengthAdjust="spacing" textLength="88.3828" x="390.235" y="512.1387">&#171;value object&#187;</text><text fill="#000000" font-family="sans-serif" font-size="14" font-style="italic" lengthAdjust="spacing" textLength="87.6367" x="390.608" y="527.9639">GPSLocation</text><line style="stroke:#181818;stroke-width:0.5;" x1="345.5" x2="494.2422" y1="536.2656" y2="536.2656"/><ellipse cx="355.5" cy="549.9141" fill="transparent" rx="3" ry="3" style="stroke:#038048;stroke-width:1;"/><text fill="#000000" font-family="sans-serif" font-size="14" lengthAdjust="spacing" textLength="112.4854" x="364.5" y="553.2607">latitude: Double</text><ellipse cx="355.5" cy="566.2109" fill="transparent" rx="3" ry="3" style="stroke:#038048;stroke-width:1;"/><text fill="#000000" font-family="sans-serif" font-size="14" lengthAdjust="spacing" textLength="124.7422" x="364.5" y="569.5576">longitude: Double</text><line style="stroke:#181818;stroke-width:0.5;" x1="345.5" x2="494.2422" y1="576.8594" y2="576.8594"/></g><!--class User--><g id="elem_User"><rect codeLine="36" fill="#F1F1F1" height="88.8594" id="User" rx="2.5" ry="2.5" style="stroke:#181818;stroke-width:0.5;" width="200.5488" x="552.5" y="41"/><ellipse cx="625.7012" cy="61.1328" fill="#ADD1B2" rx="11" ry="11" style="stroke:#181818;stroke-width:1;"/><path d="M628.6699,66.7734 Q628.0918,67.0703 627.4512,67.2109 Q626.8105,67.3672 626.1074,67.3672 Q623.6074,67.3672 622.2793,65.7266 Q620.9668,64.0703 620.9668,60.9453 Q620.9668,57.8203 622.2793,56.1641 Q623.6074,54.5078 626.1074,54.5078 Q626.8105,54.5078 627.4512,54.6641 Q628.1074,54.8203 628.6699,55.1172 L628.6699,57.8359 Q628.0449,57.2578 627.4512,56.9922 Q626.8574,56.7109 626.2324,56.7109 Q624.8887,56.7109 624.2012,57.7891 Q623.5137,58.8516 623.5137,60.9453 Q623.5137,63.0391 624.2012,64.1172 Q624.8887,65.1797 626.2324,65.1797 Q626.8574,65.1797 627.4512,64.9141 Q628.0449,64.6328 628.6699,64.0547 L628.6699,66.7734 Z " fill="#000000"/><text fill="#000000" font-family="sans-serif" font-size="12" font-style="italic" lengthAdjust="spacing" textLength="49.6465" x="644.2012" y="57.1387">&#171;entity&#187;</text><text fill="#000000" font-family="sans-serif" font-size="14" lengthAdjust="spacing" textLength="31.9102" x="653.0693" y="72.9639">User</text><line style="stroke:#181818;stroke-width:0.5;" x1="553.5" x2="752.0488" y1="81.2656" y2="81.2656"/><ellipse cx="563.5" cy="94.9141" fill="transparent" rx="3" ry="3" style="stroke:#038048;stroke-width:1;"/><text fill="#000000" font-family="sans-serif" font-size="14" lengthAdjust="spacing" textLength="66.8691" x="572.5" y="98.2607">id: UserId</text><ellipse cx="563.5" cy="111.2109" fill="transparent" rx="3" ry="3" style="stroke:#038048;stroke-width:1;"/><text fill="#000000" font-family="sans-serif" font-size="14" lengthAdjust="spacing" textLength="174.5488" x="572.5" y="114.5576">inGroups: Set&lt;GroupId&gt;</text><line style="stroke:#181818;stroke-width:0.5;" x1="553.5" x2="752.0488" y1="121.8594" y2="121.8594"/></g><!--class UserId--><g id="elem_UserId"><rect codeLine="40" fill="#F1F1F1" height="56.2656" id="UserId" rx="2.5" ry="2.5" style="stroke:#181818;stroke-width:0.5;" width="116.3828" x="401" y="57.5"/><ellipse cx="416" cy="77.6328" fill="#ADD1B2" rx="11" ry="11" style="stroke:#181818;stroke-width:1;"/><path d="M418.9688,83.2734 Q418.3906,83.5703 417.75,83.7109 Q417.1094,83.8672 416.4063,83.8672 Q413.9063,83.8672 412.5781,82.2266 Q411.2656,80.5703 411.2656,77.4453 Q411.2656,74.3203 412.5781,72.6641 Q413.9063,71.0078 416.4063,71.0078 Q417.1094,71.0078 417.75,71.1641 Q418.4063,71.3203 418.9688,71.6172 L418.9688,74.3359 Q418.3438,73.7578 417.75,73.4922 Q417.1563,73.2109 416.5313,73.2109 Q415.1875,73.2109 414.5,74.2891 Q413.8125,75.3516 413.8125,77.4453 Q413.8125,79.5391 414.5,80.6172 Q415.1875,81.6797 416.5313,81.6797 Q417.1563,81.6797 417.75,81.4141 Q418.3438,81.1328 418.9688,80.5547 L418.9688,83.2734 Z " fill="#000000"/><text fill="#000000" font-family="sans-serif" font-size="12" font-style="italic" lengthAdjust="spacing" textLength="88.3828" x="428" y="73.6387">&#171;value object&#187;</text><text fill="#000000" font-family="sans-serif" font-size="14" lengthAdjust="spacing" textLength="44.9258" x="449.7285" y="89.4639">UserId</text><line style="stroke:#181818;stroke-width:0.5;" x1="402" x2="516.3828" y1="97.7656" y2="97.7656"/><line style="stroke:#181818;stroke-width:0.5;" x1="402" x2="516.3828" y1="105.7656" y2="105.7656"/></g><!--class GroupId--><g id="elem_GroupId"><rect codeLine="41" fill="#F1F1F1" height="56.2656" id="GroupId" rx="2.5" ry="2.5" style="stroke:#181818;stroke-width:0.5;" width="116.3828" x="789" y="57.5"/><ellipse cx="804" cy="77.6328" fill="#ADD1B2" rx="11" ry="11" style="stroke:#181818;stroke-width:1;"/><path d="M806.9688,83.2734 Q806.3906,83.5703 805.75,83.7109 Q805.1094,83.8672 804.4063,83.8672 Q801.9063,83.8672 800.5781,82.2266 Q799.2656,80.5703 799.2656,77.4453 Q799.2656,74.3203 800.5781,72.6641 Q801.9063,71.0078 804.4063,71.0078 Q805.1094,71.0078 805.75,71.1641 Q806.4063,71.3203 806.9688,71.6172 L806.9688,74.3359 Q806.3438,73.7578 805.75,73.4922 Q805.1563,73.2109 804.5313,73.2109 Q803.1875,73.2109 802.5,74.2891 Q801.8125,75.3516 801.8125,77.4453 Q801.8125,79.5391 802.5,80.6172 Q803.1875,81.6797 804.5313,81.6797 Q805.1563,81.6797 805.75,81.4141 Q806.3438,81.1328 806.9688,80.5547 L806.9688,83.2734 Z " fill="#000000"/><text fill="#000000" font-family="sans-serif" font-size="12" font-style="italic" lengthAdjust="spacing" textLength="88.3828" x="816" y="73.6387">&#171;value object&#187;</text><text fill="#000000" font-family="sans-serif" font-size="14" lengthAdjust="spacing" textLength="55.9453" x="832.2188" y="89.4639">GroupId</text><line style="stroke:#181818;stroke-width:0.5;" x1="790" x2="904.3828" y1="97.7656" y2="97.7656"/><line style="stroke:#181818;stroke-width:0.5;" x1="790" x2="904.3828" y1="105.7656" y2="105.7656"/></g><!--class RoutingMode--><g id="elem_RoutingMode"><rect codeLine="46" fill="#F1F1F1" height="96.8906" id="RoutingMode" rx="2.5" ry="2.5" style="stroke:#181818;stroke-width:0.5;" width="124.4492" x="468" y="649"/><ellipse cx="483" cy="665" fill="#EB937F" rx="11" ry="11" style="stroke:#181818;stroke-width:1;"/><path d="M487.1094,671 L479.3906,671 L479.3906,658.6094 L487.1094,658.6094 L487.1094,660.7656 L481.8438,660.7656 L481.8438,663.4375 L486.6094,663.4375 L486.6094,665.5938 L481.8438,665.5938 L481.8438,668.8438 L487.1094,668.8438 L487.1094,671 Z " fill="#000000"/><text fill="#000000" font-family="sans-serif" font-size="14" lengthAdjust="spacing" textLength="92.4492" x="497" y="669.8467">RoutingMode</text><line style="stroke:#181818;stroke-width:0.5;" x1="469" x2="591.4492" y1="681" y2="681"/><ellipse cx="479" cy="694.6484" fill="transparent" rx="3" ry="3" style="stroke:#038048;stroke-width:1;"/><text fill="#000000" font-family="sans-serif" font-size="14" lengthAdjust="spacing" textLength="64.1143" x="488" y="697.9951">DRIVING,</text><ellipse cx="479" cy="710.9453" fill="transparent" rx="3" ry="3" style="stroke:#038048;stroke-width:1;"/><text fill="#000000" font-family="sans-serif" font-size="14" lengthAdjust="spacing" textLength="70.3008" x="488" y="714.292">WALKING,</text><ellipse cx="479" cy="727.2422" fill="transparent" rx="3" ry="3" style="stroke:#038048;stroke-width:1;"/><text fill="#000000" font-family="sans-serif" font-size="14" lengthAdjust="spacing" textLength="61.3525" x="488" y="730.5889">CYCLING</text><line style="stroke:#181818;stroke-width:0.5;" x1="469" x2="591.4492" y1="737.8906" y2="737.8906"/></g><!--class Event--><g id="elem_Event"><rect codeLine="53" fill="#F1F1F1" height="80.5938" id="Event" rx="2.5" ry="2.5" style="stroke:#181818;stroke-width:0.5;" width="144.1455" x="581" y="190"/><ellipse cx="628.7695" cy="206" fill="#B4A7E5" rx="11" ry="11" style="stroke:#181818;stroke-width:1;"/><path d="M624.6914,201.7656 L624.6914,199.6094 L632.082,199.6094 L632.082,201.7656 L629.6133,201.7656 L629.6133,209.8438 L632.082,209.8438 L632.082,212 L624.6914,212 L624.6914,209.8438 L627.1602,209.8438 L627.1602,201.7656 L624.6914,201.7656 Z " fill="#000000"/><text fill="#000000" font-family="sans-serif" font-size="14" font-style="italic" lengthAdjust="spacing" textLength="40.1064" x="649.2695" y="210.8467">Event</text><line style="stroke:#181818;stroke-width:0.5;" x1="582" x2="724.1455" y1="222" y2="222"/><ellipse cx="592" cy="235.6484" fill="transparent" rx="3" ry="3" style="stroke:#038048;stroke-width:1;"/><text fill="#000000" font-family="sans-serif" font-size="14" lengthAdjust="spacing" textLength="118.1455" x="601" y="238.9951">timestamp: Date</text><ellipse cx="592" cy="251.9453" fill="transparent" rx="3" ry="3" style="stroke:#038048;stroke-width:1;"/><text fill="#000000" font-family="sans-serif" font-size="14" lengthAdjust="spacing" textLength="84.6289" x="601" y="255.292">user: UserId</text><line style="stroke:#181818;stroke-width:0.5;" x1="582" x2="724.1455" y1="262.5938" y2="262.5938"/></g><!--class RoutingStarted--><g id="elem_RoutingStarted"><rect codeLine="59" fill="#F1F1F1" height="105.1563" id="RoutingStarted" rx="2.5" ry="2.5" style="stroke:#181818;stroke-width:0.5;" width="201.2461" x="448.5" y="331"/><ellipse cx="491.9585" cy="351.1328" fill="#B4A7E5" rx="11" ry="11" style="stroke:#181818;stroke-width:1;"/><path d="M487.8804,346.8984 L487.8804,344.7422 L495.271,344.7422 L495.271,346.8984 L492.8023,346.8984 L492.8023,354.9766 L495.271,354.9766 L495.271,357.1328 L487.8804,357.1328 L487.8804,354.9766 L490.3492,354.9766 L490.3492,346.8984 L487.8804,346.8984 Z " fill="#000000"/><text fill="#000000" font-family="sans-serif" font-size="12" font-style="italic" lengthAdjust="spacing" textLength="97.7461" x="516.4121" y="347.1387">&#171;domain event&#187;</text><text fill="#000000" font-family="sans-serif" font-size="14" font-style="italic" lengthAdjust="spacing" textLength="106.0049" x="512.2827" y="362.9639">RoutingStarted</text><line style="stroke:#181818;stroke-width:0.5;" x1="449.5" x2="648.7461" y1="371.2656" y2="371.2656"/><ellipse cx="459.5" cy="384.9141" fill="transparent" rx="3" ry="3" style="stroke:#038048;stroke-width:1;"/><text fill="#000000" font-family="sans-serif" font-size="14" lengthAdjust="spacing" textLength="141.3193" x="468.5" y="388.2607">mode: RoutingMode</text><ellipse cx="459.5" cy="401.2109" fill="transparent" rx="3" ry="3" style="stroke:#038048;stroke-width:1;"/><text fill="#000000" font-family="sans-serif" font-size="14" lengthAdjust="spacing" textLength="175.2461" x="468.5" y="404.5576">destination: GPSLocation</text><ellipse cx="459.5" cy="417.5078" fill="transparent" rx="3" ry="3" style="stroke:#038048;stroke-width:1;"/><text fill="#000000" font-family="sans-serif" font-size="14" lengthAdjust="spacing" textLength="153.4463" x="468.5" y="420.8545">expectedArrival: Date</text><line style="stroke:#181818;stroke-width:0.5;" x1="449.5" x2="648.7461" y1="428.1563" y2="428.1563"/></g><!--class SampledLocation--><g id="elem_SampledLocation"><rect codeLine="64" fill="#F1F1F1" height="72.5625" id="SampledLocation" rx="2.5" ry="2.5" style="stroke:#181818;stroke-width:0.5;" width="178.2568" x="22" y="347"/><ellipse cx="48.4381" cy="367.1328" fill="#B4A7E5" rx="11" ry="11" style="stroke:#181818;stroke-width:1;"/><path d="M44.36,362.8984 L44.36,360.7422 L51.7506,360.7422 L51.7506,362.8984 L49.2818,362.8984 L49.2818,370.9766 L51.7506,370.9766 L51.7506,373.1328 L44.36,373.1328 L44.36,370.9766 L46.8287,370.9766 L46.8287,362.8984 L44.36,362.8984 Z " fill="#000000"/><text fill="#000000" font-family="sans-serif" font-size="12" font-style="italic" lengthAdjust="spacing" textLength="97.7461" x="76.5263" y="363.1387">&#171;domain event&#187;</text><text fill="#000000" font-family="sans-serif" font-size="14" font-style="italic" lengthAdjust="spacing" textLength="120.8389" x="64.9799" y="378.9639">SampledLocation</text><line style="stroke:#181818;stroke-width:0.5;" x1="23" x2="199.2568" y1="387.2656" y2="387.2656"/><ellipse cx="33" cy="400.9141" fill="transparent" rx="3" ry="3" style="stroke:#038048;stroke-width:1;"/><text fill="#000000" font-family="sans-serif" font-size="14" lengthAdjust="spacing" textLength="152.2568" x="42" y="404.2607">position: GPSLocation</text><line style="stroke:#181818;stroke-width:0.5;" x1="23" x2="199.2568" y1="411.5625" y2="411.5625"/></g><!--class SOSAlertTriggered--><g id="elem_SOSAlertTriggered"><rect codeLine="67" fill="#F1F1F1" height="72.5625" id="SOSAlertTriggered" rx="2.5" ry="2.5" style="stroke:#181818;stroke-width:0.5;" width="178.2568" x="235" y="347"/><ellipse cx="257.3345" cy="367.1328" fill="#B4A7E5" rx="11" ry="11" style="stroke:#181818;stroke-width:1;"/><path d="M253.2563,362.8984 L253.2563,360.7422 L260.647,360.7422 L260.647,362.8984 L258.1782,362.8984 L258.1782,370.9766 L260.647,370.9766 L260.647,373.1328 L253.2563,373.1328 L253.2563,370.9766 L255.7251,370.9766 L255.7251,362.8984 L253.2563,362.8984 Z " fill="#000000"/><text fill="#000000" font-family="sans-serif" font-size="12" font-style="italic" lengthAdjust="spacing" textLength="97.7461" x="289.0703" y="363.1387">&#171;domain event&#187;</text><text fill="#000000" font-family="sans-serif" font-size="14" font-style="italic" lengthAdjust="spacing" textLength="129.958" x="272.9644" y="378.9639">SOSAlertTriggered</text><line style="stroke:#181818;stroke-width:0.5;" x1="236" x2="412.2568" y1="387.2656" y2="387.2656"/><ellipse cx="246" cy="400.9141" fill="transparent" rx="3" ry="3" style="stroke:#038048;stroke-width:1;"/><text fill="#000000" font-family="sans-serif" font-size="14" lengthAdjust="spacing" textLength="152.2568" x="255" y="404.2607">position: GPSLocation</text><line style="stroke:#181818;stroke-width:0.5;" x1="236" x2="412.2568" y1="411.5625" y2="411.5625"/></g><!--class RoutingStopped--><g id="elem_RoutingStopped"><rect codeLine="70" fill="#F1F1F1" height="56.2656" id="RoutingStopped" rx="2.5" ry="2.5" style="stroke:#181818;stroke-width:0.5;" width="144.5195" x="684.5" y="355.5"/><ellipse cx="699.5" cy="375.6328" fill="#B4A7E5" rx="11" ry="11" style="stroke:#181818;stroke-width:1;"/><path d="M695.4219,371.3984 L695.4219,369.2422 L702.8125,369.2422 L702.8125,371.3984 L700.3438,371.3984 L700.3438,379.4766 L702.8125,379.4766 L702.8125,381.6328 L695.4219,381.6328 L695.4219,379.4766 L697.8906,379.4766 L697.8906,371.3984 L695.4219,371.3984 Z " fill="#000000"/><text fill="#000000" font-family="sans-serif" font-size="12" font-style="italic" lengthAdjust="spacing" textLength="97.7461" x="720.8867" y="371.6387">&#171;domain event&#187;</text><text fill="#000000" font-family="sans-serif" font-size="14" font-style="italic" lengthAdjust="spacing" textLength="112.5195" x="713.5" y="387.4639">RoutingStopped</text><line style="stroke:#181818;stroke-width:0.5;" x1="685.5" x2="828.0195" y1="395.7656" y2="395.7656"/><line style="stroke:#181818;stroke-width:0.5;" x1="685.5" x2="828.0195" y1="403.7656" y2="403.7656"/></g><!--class SOSAlertStopped--><g id="elem_SOSAlertStopped"><rect codeLine="71" fill="#F1F1F1" height="56.2656" id="SOSAlertStopped" rx="2.5" ry="2.5" style="stroke:#181818;stroke-width:0.5;" width="152.333" x="865" y="355.5"/><ellipse cx="880" cy="375.6328" fill="#B4A7E5" rx="11" ry="11" style="stroke:#181818;stroke-width:1;"/><path d="M875.9219,371.3984 L875.9219,369.2422 L883.3125,369.2422 L883.3125,371.3984 L880.8438,371.3984 L880.8438,379.4766 L883.3125,379.4766 L883.3125,381.6328 L875.9219,381.6328 L875.9219,379.4766 L878.3906,379.4766 L878.3906,371.3984 L875.9219,371.3984 Z " fill="#000000"/><text fill="#000000" font-family="sans-serif" font-size="12" font-style="italic" lengthAdjust="spacing" textLength="97.7461" x="905.2935" y="371.6387">&#171;domain event&#187;</text><text fill="#000000" font-family="sans-serif" font-size="14" font-style="italic" lengthAdjust="spacing" textLength="120.333" x="894" y="387.4639">SOSAlertStopped</text><line style="stroke:#181818;stroke-width:0.5;" x1="866" x2="1016.333" y1="395.7656" y2="395.7656"/><line style="stroke:#181818;stroke-width:0.5;" x1="866" x2="1016.333" y1="403.7656" y2="403.7656"/></g><!--class WentOffline--><g id="elem_WentOffline"><rect codeLine="72" fill="#F1F1F1" height="56.2656" id="WentOffline" rx="2.5" ry="2.5" style="stroke:#181818;stroke-width:0.5;" width="125.7461" x="1052" y="355.5"/><ellipse cx="1067" cy="375.6328" fill="#B4A7E5" rx="11" ry="11" style="stroke:#181818;stroke-width:1;"/><path d="M1062.9219,371.3984 L1062.9219,369.2422 L1070.3125,369.2422 L1070.3125,371.3984 L1067.8438,371.3984 L1067.8438,379.4766 L1070.3125,379.4766 L1070.3125,381.6328 L1062.9219,381.6328 L1062.9219,379.4766 L1065.3906,379.4766 L1065.3906,371.3984 L1062.9219,371.3984 Z " fill="#000000"/><text fill="#000000" font-family="sans-serif" font-size="12" font-style="italic" lengthAdjust="spacing" textLength="97.7461" x="1079" y="371.6387">&#171;domain event&#187;</text><text fill="#000000" font-family="sans-serif" font-size="14" font-style="italic" lengthAdjust="spacing" textLength="82.9609" x="1086.3926" y="387.4639">WentOffline</text><line style="stroke:#181818;stroke-width:0.5;" x1="1053" x2="1176.7461" y1="395.7656" y2="395.7656"/><line style="stroke:#181818;stroke-width:0.5;" x1="1053" x2="1176.7461" y1="403.7656" y2="403.7656"/></g><!--class Route--><g id="elem_Route"><rect codeLine="80" fill="#F1F1F1" height="64.2969" id="Route" rx="2.5" ry="2.5" style="stroke:#181818;stroke-width:0.5;" width="266.7822" x="37.5" y="508.5"/><ellipse cx="146.0068" cy="524.5" fill="#B4A7E5" rx="11" ry="11" style="stroke:#181818;stroke-width:1;"/><path d="M141.9287,520.2656 L141.9287,518.1094 L149.3193,518.1094 L149.3193,520.2656 L146.8506,520.2656 L146.8506,528.3438 L149.3193,528.3438 L149.3193,530.5 L141.9287,530.5 L141.9287,528.3438 L144.3975,528.3438 L144.3975,520.2656 L141.9287,520.2656 Z " fill="#000000"/><text fill="#000000" font-family="sans-serif" font-size="14" font-style="italic" lengthAdjust="spacing" textLength="41.2686" x="166.5068" y="529.3467">Route</text><line style="stroke:#181818;stroke-width:0.5;" x1="38.5" x2="303.2822" y1="540.5" y2="540.5"/><ellipse cx="48.5" cy="554.1484" fill="transparent" rx="3" ry="3" style="stroke:#038048;stroke-width:1;"/><text fill="#000000" font-family="sans-serif" font-size="14" lengthAdjust="spacing" textLength="240.7822" x="57.5" y="557.4951">locations: List&lt;SampledLocation&gt;</text><line style="stroke:#181818;stroke-width:0.5;" x1="38.5" x2="303.2822" y1="564.7969" y2="564.7969"/></g><!--class Tracking--><g id="elem_Tracking"><rect codeLine="83" fill="#F1F1F1" height="105.1563" id="Tracking" rx="2.5" ry="2.5" style="stroke:#181818;stroke-width:0.5;" width="366.1836" x="22" y="645"/><ellipse cx="150.3857" cy="665.1328" fill="#B4A7E5" rx="11" ry="11" style="stroke:#181818;stroke-width:1;"/><path d="M146.3076,660.8984 L146.3076,658.7422 L153.6982,658.7422 L153.6982,660.8984 L151.2295,660.8984 L151.2295,668.9766 L153.6982,668.9766 L153.6982,671.1328 L146.3076,671.1328 L146.3076,668.9766 L148.7764,668.9766 L148.7764,660.8984 L146.3076,660.8984 Z " fill="#000000"/><text fill="#000000" font-family="sans-serif" font-size="12" font-style="italic" lengthAdjust="spacing" textLength="104.9121" x="168.8857" y="661.1387">&#171;aggregate root&#187;</text><text fill="#000000" font-family="sans-serif" font-size="14" font-style="italic" lengthAdjust="spacing" textLength="60.3408" x="191.1714" y="676.9639">Tracking</text><line style="stroke:#181818;stroke-width:0.5;" x1="23" x2="387.1836" y1="685.2656" y2="685.2656"/><ellipse cx="33" cy="698.9141" fill="transparent" rx="3" ry="3" style="stroke:#038048;stroke-width:1;"/><text fill="#000000" font-family="sans-serif" font-size="14" lengthAdjust="spacing" textLength="87.7324" x="42" y="702.2607">route: Route</text><ellipse cx="33" cy="715.2109" fill="transparent" rx="3" ry="3" style="stroke:#038048;stroke-width:1;"/><text fill="#000000" font-family="sans-serif" font-size="14" lengthAdjust="spacing" textLength="84.6289" x="42" y="718.5576">user: UserId</text><line style="stroke:#181818;stroke-width:0.5;" x1="23" x2="387.1836" y1="725.8594" y2="725.8594"/><ellipse cx="33" cy="739.5078" fill="#84BE84" rx="3" ry="3" style="stroke:#038048;stroke-width:1;"/><text fill="#000000" font-family="sans-serif" font-size="14" lengthAdjust="spacing" textLength="340.1836" x="42" y="742.8545">addSample(sample: SampledLocation): Tracking</text></g><!--class MonitorableTracking--><g id="elem_MonitorableTracking"><rect codeLine="88" fill="#F1F1F1" height="96.8906" id="MonitorableTracking" rx="2.5" ry="2.5" style="stroke:#181818;stroke-width:0.5;" width="201.2461" x="323.5" y="810"/><ellipse cx="350.0734" cy="826" fill="#B4A7E5" rx="11" ry="11" style="stroke:#181818;stroke-width:1;"/><path d="M345.9953,821.7656 L345.9953,819.6094 L353.3859,819.6094 L353.3859,821.7656 L350.9172,821.7656 L350.9172,829.8438 L353.3859,829.8438 L353.3859,832 L345.9953,832 L345.9953,829.8438 L348.4641,829.8438 L348.4641,821.7656 L345.9953,821.7656 Z " fill="#000000"/><text fill="#000000" font-family="sans-serif" font-size="14" font-style="italic" lengthAdjust="spacing" textLength="143.5273" x="366.6453" y="830.8467">MonitorableTracking</text><line style="stroke:#181818;stroke-width:0.5;" x1="324.5" x2="523.7461" y1="842" y2="842"/><ellipse cx="334.5" cy="855.6484" fill="transparent" rx="3" ry="3" style="stroke:#038048;stroke-width:1;"/><text fill="#000000" font-family="sans-serif" font-size="14" lengthAdjust="spacing" textLength="141.3193" x="343.5" y="858.9951">mode: RoutingMode</text><ellipse cx="334.5" cy="871.9453" fill="transparent" rx="3" ry="3" style="stroke:#038048;stroke-width:1;"/><text fill="#000000" font-family="sans-serif" font-size="14" lengthAdjust="spacing" textLength="175.2461" x="343.5" y="875.292">destination: GPSLocation</text><ellipse cx="334.5" cy="888.2422" fill="transparent" rx="3" ry="3" style="stroke:#038048;stroke-width:1;"/><text fill="#000000" font-family="sans-serif" font-size="14" lengthAdjust="spacing" textLength="153.4463" x="343.5" y="891.5889">expectedArrival: Date</text><line style="stroke:#181818;stroke-width:0.5;" x1="324.5" x2="523.7461" y1="898.8906" y2="898.8906"/></g><g id="elem_GMN33"><path d="M559.5,838.5 L559.5,854.5 L524.61,858.5 L559.5,862.5 L559.5,878.7656 A0,0 0 0 0 559.5,878.7656 L826.5098,878.7656 A0,0 0 0 0 826.5098,878.7656 L826.5098,848.5 L816.5098,838.5 L559.5,838.5 A0,0 0 0 0 559.5,838.5 " fill="#FEFFDD" style="stroke:#181818;stroke-width:0.5;"/><path d="M816.5098,838.5 L816.5098,848.5 L826.5098,848.5 L816.5098,838.5 " fill="#FEFFDD" style="stroke:#181818;stroke-width:0.5;"/><text fill="#000000" font-family="sans-serif" font-size="13" lengthAdjust="spacing" textLength="246.0098" x="565.5" y="855.5669">A tracking with additional information</text><text fill="#000000" font-family="sans-serif" font-size="13" lengthAdjust="spacing" textLength="222.936" x="565.5" y="870.6997">enabling the user to be monitored</text></g><!--link UserId to User--><g id="link_UserId_User"><path codeLine="43" d="M517.35,85.5 C529.01,85.5 528.67,85.5 540.32,85.5 " fill="transparent" id="UserId-to-User" style="stroke:#181818;stroke-width:1;"/><polygon fill="#181818" points="552.32,85.5,546.32,81.5,540.32,85.5,546.32,89.5,552.32,85.5" style="stroke:#181818;stroke-width:1;"/><text fill="#000000" font-family="sans-serif" font-size="13" lengthAdjust="spacing" textLength="9.7246" x="525.4246" y="81.5974">N</text></g><!--reverse link User to GroupId--><g id="link_User_GroupId"><path codeLine="44" d="M765.79,85.5 C777.44,85.5 777.09,85.5 788.74,85.5 " fill="transparent" id="User-backto-GroupId" style="stroke:#181818;stroke-width:1;"/><polygon fill="#181818" points="753.79,85.5,759.79,89.5,765.79,85.5,759.79,81.5,753.79,85.5" style="stroke:#181818;stroke-width:1;"/><text fill="#000000" font-family="sans-serif" font-size="13" lengthAdjust="spacing" textLength="9.7246" x="771.3296" y="81.5502">N</text></g><!--link User to Event--><g id="link_User_Event"><path codeLine="57" d="M653,130.18 C653,149.24 653,159.42 653,177.97 " fill="transparent" id="User-to-Event" style="stroke:#181818;stroke-width:1;"/><polygon fill="#181818" points="653,189.97,657,183.97,653,177.97,649,183.97,653,189.97" style="stroke:#181818;stroke-width:1;"/><text fill="#000000" font-family="sans-serif" font-size="13" lengthAdjust="spacing" textLength="8.271" x="644.4655" y="149.9309">1</text></g><!--reverse link Event to RoutingStarted--><g id="link_Event_RoutingStarted"><path d="M615.4718,285.9954 C602.8918,304.2654 598.01,311.34 584.56,330.87 " fill="transparent" id="Event-backto-RoutingStarted" style="stroke:#181818;stroke-width:1;"/><polygon fill="transparent" points="625.68,271.17,610.53,282.5927,620.4136,289.3981,625.68,271.17" style="stroke:#181818;stroke-width:1;"/></g><!--reverse link Event to SampledLocation--><g id="link_Event_SampledLocation"><path d="M563.0484,245.9491 C475.5984,260.9291 342.31,287.49 218,331 C205.16,335.5 191.82,341.1 179.11,346.93 " fill="transparent" id="Event-backto-SampledLocation" style="stroke:#181818;stroke-width:1;"/><polygon fill="transparent" points="580.79,242.91,562.0354,240.0352,564.0614,251.863,580.79,242.91" style="stroke:#181818;stroke-width:1;"/></g><!--reverse link Event to SOSAlertTriggered--><g id="link_Event_SOSAlertTriggered"><path d="M564.3349,270.5658 C520.8049,289.8658 480.79,307.86 431,331 C420.06,336.08 408.54,341.53 397.26,346.91 " fill="transparent" id="Event-backto-SOSAlertTriggered" style="stroke:#181818;stroke-width:1;"/><polygon fill="transparent" points="580.79,263.27,561.9029,265.0807,566.7668,276.0508,580.79,263.27" style="stroke:#181818;stroke-width:1;"/></g><!--reverse link Event to RoutingStopped--><g id="link_Event_RoutingStopped"><path d="M690.5301,285.9941 C708.8301,312.5641 722.22,332 738.38,355.46 " fill="transparent" id="Event-backto-RoutingStopped" style="stroke:#181818;stroke-width:1;"/><polygon fill="transparent" points="680.32,271.17,685.5887,289.3975,695.4714,282.5908,680.32,271.17" style="stroke:#181818;stroke-width:1;"/></g><!--reverse link Event to SOSAlertStopped--><g id="link_Event_SOSAlertStopped"><path d="M741.1433,276.0517 C777.7833,294.6917 806.87,309.72 847,331 C861.63,338.76 877.45,347.35 891.86,355.25 " fill="transparent" id="Event-backto-SOSAlertStopped" style="stroke:#181818;stroke-width:1;"/><polygon fill="transparent" points="725.1,267.89,738.4227,281.3995,743.8638,270.704,725.1,267.89" style="stroke:#181818;stroke-width:1;"/></g><!--reverse link Event to WentOffline--><g id="link_Event_WentOffline"><path d="M743.0161,246.4992 C821.5661,260.8692 931.92,285.78 1035,331 C1049.82,337.5 1065.02,346.57 1078.14,355.29 " fill="transparent" id="Event-backto-WentOffline" style="stroke:#181818;stroke-width:1;"/><polygon fill="transparent" points="725.31,243.26,741.9364,252.4012,744.0959,240.5971,725.31,243.26" style="stroke:#181818;stroke-width:1;"/></g><!--reverse link RoutingStarted to GPSLocation--><g id="link_RoutingStarted_GPSLocation"><path codeLine="74" d="M498.3662,445.3357 C482.2462,464.7157 471.77,477.3 456.3,495.88 " fill="transparent" id="RoutingStarted-backto-GPSLocation" style="stroke:#181818;stroke-width:1;"/><polygon fill="#181818" points="506.04,436.11,499.1279,438.1649,498.3662,445.3357,505.2783,443.2808,506.04,436.11" style="stroke:#181818;stroke-width:1;"/><text fill="#000000" font-family="sans-serif" font-size="13" lengthAdjust="spacing" textLength="8.271" x="453.2864" y="484.987">1</text></g><!--reverse link RoutingStarted to RoutingMode--><g id="link_RoutingStarted_RoutingMode"><path codeLine="75" d="M545.1315,447.9979 C541.5315,507.1879 536.39,591.55 532.89,649 " fill="transparent" id="RoutingStarted-backto-RoutingMode" style="stroke:#181818;stroke-width:1;"/><polygon fill="#181818" points="545.86,436.02,541.5031,441.7661,545.1315,447.9979,549.4884,442.2518,545.86,436.02" style="stroke:#181818;stroke-width:1;"/><text fill="#000000" font-family="sans-serif" font-size="13" lengthAdjust="spacing" textLength="8.271" x="524.7139" y="637.8597">1</text></g><!--reverse link SampledLocation to GPSLocation--><g id="link_SampledLocation_GPSLocation"><path codeLine="76" d="M192.6156,425.4416 C241.1656,449.8016 294.76,476.68 344.31,501.53 " fill="transparent" id="SampledLocation-backto-GPSLocation" style="stroke:#181818;stroke-width:1;"/><polygon fill="#181818" points="181.89,420.06,185.4589,426.326,192.6156,425.4416,189.0467,419.1756,181.89,420.06" style="stroke:#181818;stroke-width:1;"/><text fill="#000000" font-family="sans-serif" font-size="13" lengthAdjust="spacing" textLength="8.271" x="328.1192" y="493.8188">1</text></g><!--reverse link SOSAlertTriggered to GPSLocation--><g id="link_SOSAlertTriggered_GPSLocation"><path codeLine="77" d="M352.3392,430.2613 C366.2892,452.7813 378.11,471.87 392.94,495.8 " fill="transparent" id="SOSAlertTriggered-backto-GPSLocation" style="stroke:#181818;stroke-width:1;"/><polygon fill="#181818" points="346.02,420.06,345.7792,427.2671,352.3392,430.2613,352.5801,423.0543,346.02,420.06" style="stroke:#181818;stroke-width:1;"/><text fill="#000000" font-family="sans-serif" font-size="13" lengthAdjust="spacing" textLength="8.271" x="380.2244" y="484.8947">1</text></g><!--reverse link Tracking to MonitorableTracking--><g id="link_Tracking_MonitorableTracking"><path d="M290.6646,760.6969 C317.1446,779.9269 332.49,791.06 358.45,809.91 " fill="transparent" id="Tracking-backto-MonitorableTracking" style="stroke:#181818;stroke-width:1;"/><polygon fill="transparent" points="276.1,750.12,287.139,765.5518,294.1903,755.8421,276.1,750.12" style="stroke:#181818;stroke-width:1;"/></g><!--link SampledLocation to Route--><g id="link_SampledLocation_Route"><path codeLine="98" d="M124.77,420.06 C135.08,446.69 144.7199,471.5985 154.5899,497.1085 " fill="transparent" id="SampledLocation-to-Route" style="stroke:#181818;stroke-width:1;"/><polygon fill="#181818" points="158.92,508.3,160.4855,501.2609,154.5899,497.1085,153.0244,504.1476,158.92,508.3" style="stroke:#181818;stroke-width:1;"/><text fill="#000000" font-family="sans-serif" font-size="13" lengthAdjust="spacing" textLength="9.7246" x="117.4035" y="439.7487">N</text></g><!--link Route to Tracking--><g id="link_Route_Tracking"><path codeLine="99" d="M177.88,572.87 C182.4,593.48 185.8455,609.2094 191.0755,633.0194 " fill="transparent" id="Route-to-Tracking" style="stroke:#181818;stroke-width:1;"/><polygon fill="#181818" points="193.65,644.74,196.2696,638.0215,191.0755,633.0194,188.4559,639.7379,193.65,644.74" style="stroke:#181818;stroke-width:1;"/><text fill="#000000" font-family="sans-serif" font-size="13" lengthAdjust="spacing" textLength="8.271" x="170.4951" y="592.7702">1</text></g><!--link GPSLocation to MonitorableTracking--><g id="link_GPSLocation_MonitorableTracking"><path codeLine="100" d="M420.55,585.11 C421.3,644.11 422.4785,736.991 423.2485,797.961 " fill="transparent" id="GPSLocation-to-MonitorableTracking" style="stroke:#181818;stroke-width:1;"/><polygon fill="#181818" points="423.4,809.96,427.3239,803.91,423.2485,797.961,419.3246,804.011,423.4,809.96" style="stroke:#181818;stroke-width:1;"/><text fill="#000000" font-family="sans-serif" font-size="13" lengthAdjust="spacing" textLength="8.271" x="412.0821" y="604.8506">1</text></g><!--link RoutingMode to MonitorableTracking--><g id="link_RoutingMode_MonitorableTracking"><path codeLine="101" d="M498.2,746.21 C484.78,766.33 475.8453,779.7246 462.4353,799.8446 " fill="transparent" id="RoutingMode-to-MonitorableTracking" style="stroke:#181818;stroke-width:1;"/><polygon fill="#181818" points="455.78,809.83,462.4361,807.0557,462.4353,799.8446,455.7792,802.6189,455.78,809.83" style="stroke:#181818;stroke-width:1;"/><text fill="#000000" font-family="sans-serif" font-size="13" lengthAdjust="spacing" textLength="8.271" x="485.3774" y="765.8464">1</text></g><!--SRC=[lLLHRvim47xFhpZb9LksFEmLeKXHEqLeQJkLRjKU7NmXti16ndITflpt7OPIOmZjzZ1UGEVFTzzzzzaKBFd1KWIkSYOa_9u1FK8Qr0UM86m_npkLC2EKX31yO5c5eFRVCJ7hTGkkdtUG4SPK70EuLDK-GtT9oNIuTfhPLvAnieGl9MhAZvAI_F8o2nxOzOYxGRdLgYhA068qeVsE-BfDtCyRyG5p1z5k7K8inl9Qhh8LpA_dBejsGJSBRP9c3yegXrjL6I7JAyMnrypbRVGrkjw-TqBtczqdBtJnxM978LUdnMhgWOyFf5q9aw25DrkxfyVEY1nBm_A29iMCEyEA-ksDuVGim_p3d0elctmphqWhH6oODbZBt1eDQp1D6XyDIbwEaCbLxHX7I6UD4qqXhIq3rwCE11yB6YJoZTQ2HkjqTF8enjHmXjpn-Qiv5geKuoG6HMxYJORQt6cHfgZ_JehNb-daLaNnOeqp5Fzfyps5RWw7J4XyQQFTwVbYIHwkVUJtTmRcky8VuRbqmocC8ISF7DnfkZAfE339BH4yT-uM8yFfNmTPMvBkiPqeJUZriHwTSKSW35cQQap9sA2LygzaNPThJj3aKMx2ZFEc-flIlW9VrBT1LtcKrfMImYZDw8Bl63uDlWlynmCkLIsBI8y6r66CNPTh0-Q9tqzXZhKKzhYnZDexA9ttIwEaB3NO7D6g2KR17gaVMm9v-nlWbiAptP7CLZK_34zQ2-aqQb2jovkEnhJjOBuyas1NxjCV]--></g></svg>