<svg xmlns="http://www.w3.org/2000/svg" xmlns:xlink="http://www.w3.org/1999/xlink" contentStyleType="text/css" data-diagram-type="SEQUENCE" height="869px" preserveAspectRatio="none" style="width:970px;height:869px;background:#1B1B1B;" version="1.1" viewBox="0 0 970 869" width="970px" zoomAndPan="magnify"><defs/><g><rect fill="#1B1B1B" height="869" style="stroke:none;stroke-width:1;" width="970" x="0" y="0"/><g><title>Group Member</title><rect fill="#000000" height="686.9219" style="stroke:#E7E7E7;stroke-width:1;" width="10" x="80.4829" y="91.2969"/></g><g><title>Real Time </title><rect fill="#000000" height="622.6563" style="stroke:#E7E7E7;stroke-width:1;" width="10" x="305.1123" y="155.5625"/></g><g><title>UsersSessionService</title><rect fill="#000000" height="118.5313" style="stroke:#E7E7E7;stroke-width:1;" width="10" x="493.02" y="314.2266"/></g><g><title>RealTimeTracking</title><rect fill="#000000" height="71.2656" style="stroke:#E7E7E7;stroke-width:1;" width="10" x="652.1221" y="184.6953"/></g><g><title>RealTimeTracking</title><rect fill="#000000" height="264.0625" style="stroke:#E7E7E7;stroke-width:1;" width="10" x="652.1221" y="515.1563"/></g><g><title>UserSessionStore</title><rect fill="#000000" height="29.1328" style="stroke:#E7E7E7;stroke-width:1;" width="10" x="874.1597" y="367.4922"/></g><g><title>UserSessionStore</title><rect fill="#000000" height="29.1328" style="stroke:#E7E7E7;stroke-width:1;" width="10" x="874.1597" y="644.6875"/></g><rect fill="none" height="75.3984" style="stroke:#FFFFFF;stroke-width:1.5;" width="544.6387" x="408.8394" y="329.2266"/><rect fill="none" height="323.4609" style="stroke:#FFFFFF;stroke-width:1.5;" width="943.478" x="10" y="447.7578"/><rect fill="none" height="75.3984" style="stroke:#FFFFFF;stroke-width:1.5;" width="717.0435" x="20" y="688.8203"/><g><title>Group Member</title><rect fill="#000000" fill-opacity="0.00000" height="706.9219" width="8" x="81.4829" y="81.2969"/><line style="stroke:#E7E7E7;stroke-width:0.5;stroke-dasharray:5.0,5.0;" x1="85" x2="85" y1="81.2969" y2="788.2188"/></g><g><title>Real Time </title><rect fill="#000000" fill-opacity="0.00000" height="706.9219" width="8" x="306.1123" y="81.2969"/><line style="stroke:#E7E7E7;stroke-width:0.5;stroke-dasharray:5.0,5.0;" x1="309.3853" x2="309.3853" y1="81.2969" y2="788.2188"/></g><g><title>UsersSessionService</title><rect fill="#000000" fill-opacity="0.00000" height="706.9219" width="8" x="494.02" y="81.2969"/><line style="stroke:#E7E7E7;stroke-width:0.5;stroke-dasharray:5.0,5.0;" x1="497.8394" x2="497.8394" y1="81.2969" y2="788.2188"/></g><g><title>RealTimeTracking</title><rect fill="#000000" fill-opacity="0.00000" height="706.9219" width="8" x="653.1221" y="81.2969"/><line style="stroke:#E7E7E7;stroke-width:0.5;stroke-dasharray:5.0,5.0;" x1="656.2007" x2="656.2007" y1="81.2969" y2="788.2188"/></g><g><title>UserSessionStore</title><rect fill="#000000" fill-opacity="0.00000" height="706.9219" width="8" x="875.1597" y="81.2969"/><line style="stroke:#E7E7E7;stroke-width:0.5;stroke-dasharray:5.0,5.0;" x1="878.8413" x2="878.8413" y1="81.2969" y2="788.2188"/></g><g class="participant participant-head" data-participant="User"><text fill="#FFFFFF" font-family="sans-serif" font-size="14" lengthAdjust="spacing" textLength="104.9658" x="30" y="77.9951">Group Member</text><ellipse cx="85.4829" cy="13.5" fill="#222222" rx="8" ry="8" style="stroke:#E7E7E7;stroke-width:0.5;"/><path d="M85.4829,21.5 L85.4829,48.5 M72.4829,29.5 L98.4829,29.5 M85.4829,48.5 L72.4829,63.5 M85.4829,48.5 L98.4829,63.5" fill="none" style="stroke:#E7E7E7;stroke-width:0.5;"/></g><g class="participant participant-tail" data-participant="User"><text fill="#FFFFFF" font-family="sans-serif" font-size="14" lengthAdjust="spacing" textLength="104.9658" x="30" y="800.2139">Group Member</text><ellipse cx="85.4829" cy="812.0156" fill="#222222" rx="8" ry="8" style="stroke:#E7E7E7;stroke-width:0.5;"/><path d="M85.4829,820.0156 L85.4829,847.0156 M72.4829,828.0156 L98.4829,828.0156 M85.4829,847.0156 L72.4829,862.0156 M85.4829,847.0156 L98.4829,862.0156" fill="none" style="stroke:#E7E7E7;stroke-width:0.5;"/></g><g class="participant participant-head" data-participant="RTC"><text fill="#FFFFFF" font-family="sans-serif" font-size="14" lengthAdjust="spacing" textLength="69.9521" x="269.9111" y="61.6982">Real Time</text><text fill="#FFFFFF" font-family="sans-serif" font-size="14" lengthAdjust="spacing" textLength="187.0039" x="215.8354" y="77.9951">Communication Connector</text><ellipse cx="310.1123" cy="32.7031" fill="#222222" rx="12" ry="12" style="stroke:#E7E7E7;stroke-width:0.5;"/><polygon fill="#E7E7E7" points="306.1123,20.7031,312.1123,15.7031,310.1123,20.7031,312.1123,25.7031,306.1123,20.7031" style="stroke:#E7E7E7;stroke-width:1;"/></g><g class="participant participant-tail" data-participant="RTC"><text fill="#FFFFFF" font-family="sans-serif" font-size="14" lengthAdjust="spacing" textLength="69.9521" x="269.9111" y="800.2139">Real Time</text><text fill="#FFFFFF" font-family="sans-serif" font-size="14" lengthAdjust="spacing" textLength="187.0039" x="215.8354" y="816.5107">Communication Connector</text><ellipse cx="310.1123" cy="835.8125" fill="#222222" rx="12" ry="12" style="stroke:#E7E7E7;stroke-width:0.5;"/><polygon fill="#E7E7E7" points="306.1123,823.8125,312.1123,818.8125,310.1123,823.8125,312.1123,828.8125,306.1123,823.8125" style="stroke:#E7E7E7;stroke-width:1;"/></g><g class="participant participant-head" data-participant="USS"><rect fill="#222222" height="30.2969" rx="2.5" ry="2.5" style="stroke:#E7E7E7;stroke-width:0.5;" width="158.3613" x="418.8394" y="50"/><text fill="#FFFFFF" font-family="sans-serif" font-size="14" lengthAdjust="spacing" textLength="144.3613" x="425.8394" y="69.9951">UsersSessionService</text></g><g class="participant participant-tail" data-participant="USS"><rect fill="#222222" height="30.2969" rx="2.5" ry="2.5" style="stroke:#E7E7E7;stroke-width:0.5;" width="158.3613" x="418.8394" y="787.2188"/><text fill="#FFFFFF" font-family="sans-serif" font-size="14" lengthAdjust="spacing" textLength="144.3613" x="425.8394" y="807.2139">UsersSessionService</text></g><g class="participant participant-head" data-participant="RTT"><rect fill="#222222" height="30.2969" rx="2.5" ry="2.5" style="stroke:#E7E7E7;stroke-width:0.5;" width="139.8428" x="587.2007" y="50"/><text fill="#FFFFFF" font-family="sans-serif" font-size="14" lengthAdjust="spacing" textLength="125.8428" x="594.2007" y="69.9951">RealTimeTracking</text></g><g class="participant participant-tail" data-participant="RTT"><rect fill="#222222" height="30.2969" rx="2.5" ry="2.5" style="stroke:#E7E7E7;stroke-width:0.5;" width="139.8428" x="587.2007" y="787.2188"/><text fill="#FFFFFF" font-family="sans-serif" font-size="14" lengthAdjust="spacing" textLength="125.8428" x="594.2007" y="807.2139">RealTimeTracking</text></g><g class="participant participant-head" data-participant="USSS"><text fill="#FFFFFF" font-family="sans-serif" font-size="14" lengthAdjust="spacing" textLength="122.6367" x="814.8413" y="77.9951">UserSessionStore</text><path d="M861.1597,29 C861.1597,19 879.1597,19 879.1597,19 C879.1597,19 897.1597,19 897.1597,29 L897.1597,55 C897.1597,65 879.1597,65 879.1597,65 C879.1597,65 861.1597,65 861.1597,55 L861.1597,29" fill="#222222" style="stroke:#E7E7E7;stroke-width:1.5;"/><path d="M861.1597,29 C861.1597,39 879.1597,39 879.1597,39 C879.1597,39 897.1597,39 897.1597,29" fill="none" style="stroke:#E7E7E7;stroke-width:1.5;"/></g><g class="participant participant-tail" data-participant="USSS"><text fill="#FFFFFF" font-family="sans-serif" font-size="14" lengthAdjust="spacing" textLength="122.6367" x="814.8413" y="800.2139">UserSessionStore</text><path d="M861.1597,813.5156 C861.1597,803.5156 879.1597,803.5156 879.1597,803.5156 C879.1597,803.5156 897.1597,803.5156 897.1597,813.5156 L897.1597,839.5156 C897.1597,849.5156 879.1597,849.5156 879.1597,849.5156 C879.1597,849.5156 861.1597,849.5156 861.1597,839.5156 L861.1597,813.5156" fill="#222222" style="stroke:#E7E7E7;stroke-width:1.5;"/><path d="M861.1597,813.5156 C861.1597,823.5156 879.1597,823.5156 879.1597,823.5156 C879.1597,823.5156 897.1597,823.5156 897.1597,813.5156" fill="none" style="stroke:#E7E7E7;stroke-width:1.5;"/></g><g><title>Group Member</title><rect fill="#000000" height="686.9219" style="stroke:#E7E7E7;stroke-width:1;" width="10" x="80.4829" y="91.2969"/></g><g><title>Real Time </title><rect fill="#000000" height="622.6563" style="stroke:#E7E7E7;stroke-width:1;" width="10" x="305.1123" y="155.5625"/></g><g><title>UsersSessionService</title><rect fill="#000000" height="118.5313" style="stroke:#E7E7E7;stroke-width:1;" width="10" x="493.02" y="314.2266"/></g><g><title>RealTimeTracking</title><rect fill="#000000" height="71.2656" style="stroke:#E7E7E7;stroke-width:1;" width="10" x="652.1221" y="184.6953"/></g><g><title>RealTimeTracking</title><rect fill="#000000" height="264.0625" style="stroke:#E7E7E7;stroke-width:1;" width="10" x="652.1221" y="515.1563"/></g><g><title>UserSessionStore</title><rect fill="#000000" height="29.1328" style="stroke:#E7E7E7;stroke-width:1;" width="10" x="874.1597" y="367.4922"/></g><g><title>UserSessionStore</title><rect fill="#000000" height="29.1328" style="stroke:#E7E7E7;stroke-width:1;" width="10" x="874.1597" y="644.6875"/></g><rect fill="#111111" height="3" style="stroke:#111111;stroke-width:1;" width="963.478" x="0" y="111.8633"/><line style="stroke:#FFFFFF;stroke-width:1;" x1="0" x2="963.478" y1="111.8633" y2="111.8633"/><line style="stroke:#FFFFFF;stroke-width:1;" x1="0" x2="963.478" y1="114.8633" y2="114.8633"/><rect fill="#111111" height="23.1328" style="stroke:#FFFFFF;stroke-width:2;" width="228.6968" x="367.3906" y="101.2969"/><text fill="#FFFFFF" font-family="sans-serif" font-size="13" font-weight="bold" lengthAdjust="spacing" textLength="210.1709" x="373.3906" y="117.3638">Use case: Real-time tracking</text><g class="message" data-participant-1="User" data-participant-2="RTC"><polygon fill="#E7E7E7" points="293.1123,151.5625,303.1123,155.5625,293.1123,159.5625,297.1123,155.5625" style="stroke:#E7E7E7;stroke-width:1;"/><line style="stroke:#E7E7E7;stroke-width:1;" x1="90.4829" x2="299.1123" y1="155.5625" y2="155.5625"/><text fill="#FFFFFF" font-family="sans-serif" font-size="13" font-weight="bold" lengthAdjust="spacing" textLength="9.0454" x="97.4829" y="150.4966">1</text><text fill="#FFFFFF" font-family="sans-serif" font-size="13" lengthAdjust="spacing" textLength="182.584" x="110.5283" y="150.4966">connect(&lt;groupId, userId&gt;)</text></g><g class="message" data-participant-1="RTC" data-participant-2="RTT"><polygon fill="#E7E7E7" points="640.1221,180.6953,650.1221,184.6953,640.1221,188.6953,644.1221,184.6953" style="stroke:#E7E7E7;stroke-width:1;"/><line style="stroke:#E7E7E7;stroke-width:1;" x1="315.1123" x2="646.1221" y1="184.6953" y2="184.6953"/><text fill="#FFFFFF" font-family="sans-serif" font-size="13" font-weight="bold" lengthAdjust="spacing" textLength="9.0454" x="322.1123" y="179.6294">2</text><text fill="#FFFFFF" font-family="sans-serif" font-size="13" lengthAdjust="spacing" textLength="266.4492" x="335.1577" y="179.6294">addObserverFor(&lt;groupId, userId&gt;)(me)</text></g><g class="message" data-participant-1="RTT" data-participant-2="RTT"><line style="stroke:#E7E7E7;stroke-width:1;" x1="662.1221" x2="704.1221" y1="213.8281" y2="213.8281"/><line style="stroke:#E7E7E7;stroke-width:1;" x1="704.1221" x2="704.1221" y1="213.8281" y2="226.8281"/><line style="stroke:#E7E7E7;stroke-width:1;" x1="663.1221" x2="704.1221" y1="226.8281" y2="226.8281"/><polygon fill="#E7E7E7" points="673.1221,222.8281,663.1221,226.8281,673.1221,230.8281,669.1221,226.8281" style="stroke:#E7E7E7;stroke-width:1;"/><text fill="#FFFFFF" font-family="sans-serif" font-size="13" font-weight="bold" lengthAdjust="spacing" textLength="9.0454" x="669.1221" y="208.7622">3</text><text fill="#FFFFFF" font-family="sans-serif" font-size="13" lengthAdjust="spacing" textLength="97.9316" x="682.1675" y="208.7622">save(observer)</text></g><g class="message" data-participant-1="RTT" data-participant-2="RTC"><polygon fill="#E7E7E7" points="326.1123,251.9609,316.1123,255.9609,326.1123,259.9609,322.1123,255.9609" style="stroke:#E7E7E7;stroke-width:1;"/><line style="stroke:#E7E7E7;stroke-width:1;stroke-dasharray:2.0,2.0;" x1="320.1123" x2="656.1221" y1="255.9609" y2="255.9609"/><text fill="#FFFFFF" font-family="sans-serif" font-size="13" font-weight="bold" lengthAdjust="spacing" textLength="9.0454" x="332.1123" y="250.895">4</text><text fill="#FFFFFF" font-family="sans-serif" font-size="13" lengthAdjust="spacing" textLength="15.4819" x="345.1577" y="250.895">ok</text></g><g class="message" data-participant-1="RTC" data-participant-2="User"><polygon fill="#E7E7E7" points="101.4829,281.0938,91.4829,285.0938,101.4829,289.0938,97.4829,285.0938" style="stroke:#E7E7E7;stroke-width:1;"/><line style="stroke:#E7E7E7;stroke-width:1;stroke-dasharray:2.0,2.0;" x1="95.4829" x2="304.1123" y1="285.0938" y2="285.0938"/><text fill="#FFFFFF" font-family="sans-serif" font-size="13" font-weight="bold" lengthAdjust="spacing" textLength="9.0454" x="107.4829" y="280.0278">5</text><text fill="#FFFFFF" font-family="sans-serif" font-size="13" lengthAdjust="spacing" textLength="15.4819" x="120.5283" y="280.0278">ok</text></g><g class="message" data-participant-1="User" data-participant-2="USS"><polygon fill="#E7E7E7" points="481.02,310.2266,491.02,314.2266,481.02,318.2266,485.02,314.2266" style="stroke:#E7E7E7;stroke-width:1;"/><line style="stroke:#E7E7E7;stroke-width:1;" x1="90.4829" x2="487.02" y1="314.2266" y2="314.2266"/><text fill="#FFFFFF" font-family="sans-serif" font-size="13" font-weight="bold" lengthAdjust="spacing" textLength="9.0454" x="97.4829" y="309.1606">6</text><text fill="#FFFFFF" font-family="sans-serif" font-size="13" lengthAdjust="spacing" textLength="112.6646" x="110.5283" y="309.1606">ofGroup(groupId)</text></g><path d="M408.8394,329.2266 L485.4634,329.2266 L485.4634,336.3594 L475.4634,346.3594 L408.8394,346.3594 L408.8394,329.2266" fill="#ADD8E6" style="stroke:#FFFFFF;stroke-width:1.5;"/><rect fill="none" height="75.3984" style="stroke:#FFFFFF;stroke-width:1.5;" width="544.6387" x="408.8394" y="329.2266"/><text fill="#FFFFFF" font-family="sans-serif" font-size="13" font-weight="bold" lengthAdjust="spacing" textLength="31.624" x="423.8394" y="342.2935">loop</text><text fill="#FFFFFF" font-family="sans-serif" font-size="11" font-weight="bold" lengthAdjust="spacing" textLength="156.2505" x="500.4634" y="341.437">[for each group member]</text><g class="message" data-participant-1="USS" data-participant-2="USSS"><polygon fill="#E7E7E7" points="862.1597,363.4922,872.1597,367.4922,862.1597,371.4922,866.1597,367.4922" style="stroke:#E7E7E7;stroke-width:1;"/><line style="stroke:#E7E7E7;stroke-width:1;" x1="503.02" x2="868.1597" y1="367.4922" y2="367.4922"/><text fill="#FFFFFF" font-family="sans-serif" font-size="13" font-weight="bold" lengthAdjust="spacing" textLength="9.0454" x="510.02" y="362.4263">7</text><text fill="#FFFFFF" font-family="sans-serif" font-size="13" lengthAdjust="spacing" textLength="132.9834" x="523.0654" y="362.4263">sessionOf(&lt;scope&gt;)</text></g><g class="message" data-participant-1="USSS" data-participant-2="USS"><polygon fill="#E7E7E7" points="514.02,392.625,504.02,396.625,514.02,400.625,510.02,396.625" style="stroke:#E7E7E7;stroke-width:1;"/><line style="stroke:#E7E7E7;stroke-width:1;stroke-dasharray:2.0,2.0;" x1="508.02" x2="878.1597" y1="396.625" y2="396.625"/><text fill="#FFFFFF" font-family="sans-serif" font-size="13" font-weight="bold" lengthAdjust="spacing" textLength="9.0454" x="520.02" y="391.5591">8</text><text fill="#FFFFFF" font-family="sans-serif" font-size="13" lengthAdjust="spacing" textLength="96.6113" x="533.0654" y="391.5591">Some[Session]</text></g><g class="message" data-participant-1="USS" data-participant-2="User"><polygon fill="#E7E7E7" points="101.4829,428.7578,91.4829,432.7578,101.4829,436.7578,97.4829,432.7578" style="stroke:#E7E7E7;stroke-width:1;"/><line style="stroke:#E7E7E7;stroke-width:1;stroke-dasharray:2.0,2.0;" x1="95.4829" x2="497.02" y1="432.7578" y2="432.7578"/><text fill="#FFFFFF" font-family="sans-serif" font-size="13" font-weight="bold" lengthAdjust="spacing" textLength="9.0454" x="107.4829" y="427.6919">9</text><text fill="#FFFFFF" font-family="sans-serif" font-size="13" lengthAdjust="spacing" textLength="107.0659" x="120.5283" y="427.6919">Stream[Session]</text></g><path d="M10,447.7578 L86.624,447.7578 L86.624,454.8906 L76.624,464.8906 L10,464.8906 L10,447.7578" fill="#FFD700" style="stroke:#FFFFFF;stroke-width:1.5;"/><rect fill="none" height="323.4609" style="stroke:#FFFFFF;stroke-width:1.5;" width="943.478" x="10" y="447.7578"/><text fill="#FFFFFF" font-family="sans-serif" font-size="13" font-weight="bold" lengthAdjust="spacing" textLength="31.624" x="25" y="460.8247">loop</text><text fill="#FFFFFF" font-family="sans-serif" font-size="11" font-weight="bold" lengthAdjust="spacing" textLength="191.5869" x="101.624" y="459.9683">[while connected, periodically]</text><g class="message" data-participant-1="User" data-participant-2="RTC"><line style="stroke:#E7E7E7;stroke-width:1;" x1="303.1123" x2="293.1123" y1="486.0234" y2="482.0234"/><line style="stroke:#E7E7E7;stroke-width:1;" x1="303.1123" x2="293.1123" y1="486.0234" y2="490.0234"/><line style="stroke:#E7E7E7;stroke-width:1;" x1="90.4829" x2="304.1123" y1="486.0234" y2="486.0234"/><text fill="#FFFFFF" font-family="sans-serif" font-size="13" font-weight="bold" lengthAdjust="spacing" textLength="18.0908" x="97.4829" y="480.9575">10</text><text fill="#FFFFFF" font-family="sans-serif" font-size="13" lengthAdjust="spacing" textLength="163.0459" x="119.5737" y="480.9575">send(ClientDrivingEvent)</text></g><g class="message" data-participant-1="RTC" data-participant-2="RTT"><polygon fill="#E7E7E7" points="640.1221,511.1563,650.1221,515.1563,640.1221,519.1563,644.1221,515.1563" style="stroke:#E7E7E7;stroke-width:1;"/><line style="stroke:#E7E7E7;stroke-width:1;" x1="315.1123" x2="646.1221" y1="515.1563" y2="515.1563"/><text fill="#FFFFFF" font-family="sans-serif" font-size="13" font-weight="bold" lengthAdjust="spacing" textLength="18.0908" x="322.1123" y="510.0903">11</text><text fill="#FFFFFF" font-family="sans-serif" font-size="13" lengthAdjust="spacing" textLength="176.0903" x="344.2031" y="510.0903">handle(ClientDrivingEvent)</text></g><g class="message" data-participant-1="RTT" data-participant-2="RTC"><line style="stroke:#E7E7E7;stroke-width:1;" x1="316.1123" x2="326.1123" y1="544.2891" y2="540.2891"/><line style="stroke:#E7E7E7;stroke-width:1;" x1="316.1123" x2="326.1123" y1="544.2891" y2="548.2891"/><line style="stroke:#E7E7E7;stroke-width:1;stroke-dasharray:2.0,2.0;" x1="315.1123" x2="651.1221" y1="544.2891" y2="544.2891"/><text fill="#FFFFFF" font-family="sans-serif" font-size="13" font-weight="bold" lengthAdjust="spacing" textLength="18.0908" x="332.1123" y="539.2231">12</text><text fill="#FFFFFF" font-family="sans-serif" font-size="13" lengthAdjust="spacing" textLength="22.6421" x="354.2031" y="539.2231">ack</text></g><g class="message" data-participant-1="RTC" data-participant-2="User"><line style="stroke:#E7E7E7;stroke-width:1;" x1="91.4829" x2="101.4829" y1="573.4219" y2="569.4219"/><line style="stroke:#E7E7E7;stroke-width:1;" x1="91.4829" x2="101.4829" y1="573.4219" y2="577.4219"/><line style="stroke:#E7E7E7;stroke-width:1;stroke-dasharray:2.0,2.0;" x1="90.4829" x2="304.1123" y1="573.4219" y2="573.4219"/><text fill="#FFFFFF" font-family="sans-serif" font-size="13" font-weight="bold" lengthAdjust="spacing" textLength="18.0908" x="107.4829" y="568.356">13</text><text fill="#FFFFFF" font-family="sans-serif" font-size="13" lengthAdjust="spacing" textLength="22.6421" x="129.5737" y="568.356">ack</text></g><g class="message" data-participant-1="RTT" data-participant-2="RTT"><line style="stroke:#E7E7E7;stroke-width:1;" x1="662.1221" x2="704.1221" y1="602.5547" y2="602.5547"/><line style="stroke:#E7E7E7;stroke-width:1;" x1="704.1221" x2="704.1221" y1="602.5547" y2="615.5547"/><line style="stroke:#E7E7E7;stroke-width:1;" x1="663.1221" x2="704.1221" y1="615.5547" y2="615.5547"/><polygon fill="#E7E7E7" points="673.1221,611.5547,663.1221,615.5547,673.1221,619.5547,669.1221,615.5547" style="stroke:#E7E7E7;stroke-width:1;"/><text fill="#FFFFFF" font-family="sans-serif" font-size="13" font-weight="bold" lengthAdjust="spacing" textLength="18.0908" x="669.1221" y="597.4888">14</text><text fill="#FFFFFF" font-family="sans-serif" font-size="13" lengthAdjust="spacing" textLength="165.9468" x="691.2129" y="597.4888">react(event): UserUpdate</text></g><g class="message" data-participant-1="RTT" data-participant-2="USSS"><polygon fill="#E7E7E7" points="862.1597,640.6875,872.1597,644.6875,862.1597,648.6875,866.1597,644.6875" style="stroke:#E7E7E7;stroke-width:1;"/><line style="stroke:#E7E7E7;stroke-width:1;" x1="662.1221" x2="868.1597" y1="644.6875" y2="644.6875"/><text fill="#FFFFFF" font-family="sans-serif" font-size="13" font-weight="bold" lengthAdjust="spacing" textLength="18.0908" x="669.1221" y="639.6216">15</text><text fill="#FFFFFF" font-family="sans-serif" font-size="13" lengthAdjust="spacing" textLength="132.6597" x="691.2129" y="639.6216">update(UserUpdate)</text></g><g class="message" data-participant-1="USSS" data-participant-2="RTT"><polygon fill="#E7E7E7" points="673.1221,669.8203,663.1221,673.8203,673.1221,677.8203,669.1221,673.8203" style="stroke:#E7E7E7;stroke-width:1;"/><line style="stroke:#E7E7E7;stroke-width:1;stroke-dasharray:2.0,2.0;" x1="667.1221" x2="878.1597" y1="673.8203" y2="673.8203"/><text fill="#FFFFFF" font-family="sans-serif" font-size="13" font-weight="bold" lengthAdjust="spacing" textLength="18.0908" x="679.1221" y="668.7544">16</text><text fill="#FFFFFF" font-family="sans-serif" font-size="13" lengthAdjust="spacing" textLength="15.4819" x="701.2129" y="668.7544">ok</text></g><path d="M20,688.8203 L96.624,688.8203 L96.624,695.9531 L86.624,705.9531 L20,705.9531 L20,688.8203" fill="#ADD8E6" style="stroke:#FFFFFF;stroke-width:1.5;"/><rect fill="none" height="75.3984" style="stroke:#FFFFFF;stroke-width:1.5;" width="717.0435" x="20" y="688.8203"/><text fill="#FFFFFF" font-family="sans-serif" font-size="13" font-weight="bold" lengthAdjust="spacing" textLength="31.624" x="35" y="701.8872">loop</text><text fill="#FFFFFF" font-family="sans-serif" font-size="11" font-weight="bold" lengthAdjust="spacing" textLength="119.6357" x="111.624" y="701.0308">[for each observer]</text><g class="message" data-participant-1="RTT" data-participant-2="RTC"><polygon fill="#E7E7E7" points="326.1123,723.0859,316.1123,727.0859,326.1123,731.0859,322.1123,727.0859" style="stroke:#E7E7E7;stroke-width:1;"/><line style="stroke:#E7E7E7;stroke-width:1;stroke-dasharray:2.0,2.0;" x1="320.1123" x2="651.1221" y1="727.0859" y2="727.0859"/><text fill="#FFFFFF" font-family="sans-serif" font-size="13" font-weight="bold" lengthAdjust="spacing" textLength="18.0908" x="332.1123" y="722.02">17</text><text fill="#FFFFFF" font-family="sans-serif" font-size="13" lengthAdjust="spacing" textLength="124.0269" x="354.2031" y="722.02">notify(UserUpdate)</text></g><g class="message" data-participant-1="RTC" data-participant-2="User"><polygon fill="#E7E7E7" points="101.4829,752.2188,91.4829,756.2188,101.4829,760.2188,97.4829,756.2188" style="stroke:#E7E7E7;stroke-width:1;"/><line style="stroke:#E7E7E7;stroke-width:1;stroke-dasharray:2.0,2.0;" x1="95.4829" x2="304.1123" y1="756.2188" y2="756.2188"/><text fill="#FFFFFF" font-family="sans-serif" font-size="13" font-weight="bold" lengthAdjust="spacing" textLength="18.0908" x="107.4829" y="751.1528">18</text><text fill="#FFFFFF" font-family="sans-serif" font-size="13" lengthAdjust="spacing" textLength="76.7114" x="129.5737" y="751.1528">UserUpdate</text></g><!--SRC=[XLFBRjim4BppAmZteW3D3nXnBke30Le4YEHJsWCjhct252cGb8hyVNQNKYIbCM90XisT6Uxih5IVlElR0mGXL9Dya9kVmVUT_0rqk94godt4QkDT2jxApHCeAslJWlpZPEdRjdUcKSbu-kSSa0ZJdkfIT2eaqvXEkSGoiO8O4Lf164m3h5vLAnZfatmTL7CnxfIbQg5LKWSLWNKc6Rnh4gc4sEseA1j4RLddDb6VQLBQxTYa6LJACaBGjxozfsQtiidz5tSd6i63_YfxB3_e-vkPHgxmoPnwAvNMZmT43H1- -F01jMXXHQ-HNh_HengWyAF0JIvDxVYBqF2EMNAPkkRwM_yu03muSdR5sCFYMXgozRxxyikSpkbWUv17p1hLpvBHikMyXSGFWaT9r8nvqe_7uYuslWES1M6MojN4gd9pHAjy2yzZId-vlh32771Qx2SA-wbI0DNEh3L3P0CdRxNyTpOMfhW0Xzr1C5xZ7bhxahl9Snad6V6oehG6NFeMp82xy7t0tzdACispSjh2LUWgZCpblCPhSCrcHJhDlkRZEVT0tWfWwItZzXrkE2o1EO2UpuiPyca0V86_V3XrEhks2DCQCcZXBfjpFfdZotzzBFoETj-PePpfMUzokKgNNiLN]--></g></svg>