<svg xmlns="http://www.w3.org/2000/svg" xmlns:xlink="http://www.w3.org/1999/xlink" contentStyleType="text/css" data-diagram-type="SEQUENCE" height="869px" preserveAspectRatio="none" style="width:996px;height:869px;background:#FFFFFF;" version="1.1" viewBox="0 0 996 869" width="996px" zoomAndPan="magnify"><defs/><g><g><title>Group Member</title><rect fill="#FFFFFF" height="686.9219" style="stroke:#181818;stroke-width:1;" width="10" x="80.4829" y="91.2969"/></g><g><title>Real Time </title><rect fill="#FFFFFF" height="622.6563" style="stroke:#181818;stroke-width:1;" width="10" x="305.1123" y="155.5625"/></g><g><title>UsersSessionService</title><rect fill="#FFFFFF" height="118.5313" style="stroke:#181818;stroke-width:1;" width="10" x="493.02" y="314.2266"/></g><g><title>RealTimeTrackingService</title><rect fill="#FFFFFF" height="71.2656" style="stroke:#181818;stroke-width:1;" width="10" x="677.9927" y="184.6953"/></g><g><title>RealTimeTrackingService</title><rect fill="#FFFFFF" height="264.0625" style="stroke:#181818;stroke-width:1;" width="10" x="677.9927" y="515.1563"/></g><g><title>UserSessionStore</title><rect fill="#FFFFFF" height="29.1328" style="stroke:#181818;stroke-width:1;" width="10" x="900.0303" y="367.4922"/></g><g><title>UserSessionStore</title><rect fill="#FFFFFF" height="29.1328" style="stroke:#181818;stroke-width:1;" width="10" x="900.0303" y="644.6875"/></g><rect fill="none" height="75.3984" style="stroke:#000000;stroke-width:1.5;" width="570.5093" x="408.8394" y="329.2266"/><rect fill="none" height="323.4609" style="stroke:#000000;stroke-width:1.5;" width="969.3486" x="10" y="447.7578"/><rect fill="none" height="75.3984" style="stroke:#000000;stroke-width:1.5;" width="768.7847" x="20" y="688.8203"/><g><title>Group Member</title><rect fill="#000000" fill-opacity="0.00000" height="706.9219" width="8" x="81.4829" y="81.2969"/><line style="stroke:#181818;stroke-width:0.5;stroke-dasharray:5.0,5.0;" x1="85" x2="85" y1="81.2969" y2="788.2188"/></g><g><title>Real Time </title><rect fill="#000000" fill-opacity="0.00000" height="706.9219" width="8" x="306.1123" y="81.2969"/><line style="stroke:#181818;stroke-width:0.5;stroke-dasharray:5.0,5.0;" x1="309.3853" x2="309.3853" y1="81.2969" y2="788.2188"/></g><g><title>UsersSessionService</title><rect fill="#000000" fill-opacity="0.00000" height="706.9219" width="8" x="494.02" y="81.2969"/><line style="stroke:#181818;stroke-width:0.5;stroke-dasharray:5.0,5.0;" x1="497.8394" x2="497.8394" y1="81.2969" y2="788.2188"/></g><g><title>RealTimeTrackingService</title><rect fill="#000000" fill-opacity="0.00000" height="706.9219" width="8" x="678.9927" y="81.2969"/><line style="stroke:#181818;stroke-width:0.5;stroke-dasharray:5.0,5.0;" x1="682.2007" x2="682.2007" y1="81.2969" y2="788.2188"/></g><g><title>UserSessionStore</title><rect fill="#000000" fill-opacity="0.00000" height="706.9219" width="8" x="901.0303" y="81.2969"/><line style="stroke:#181818;stroke-width:0.5;stroke-dasharray:5.0,5.0;" x1="904.7119" x2="904.7119" y1="81.2969" y2="788.2188"/></g><g class="participant participant-head" data-participant="User"><text fill="#000000" font-family="sans-serif" font-size="14" lengthAdjust="spacing" textLength="104.9658" x="30" y="77.9951">Group Member</text><ellipse cx="85.4829" cy="13.5" fill="#E2E2F0" rx="8" ry="8" style="stroke:#181818;stroke-width:0.5;"/><path d="M85.4829,21.5 L85.4829,48.5 M72.4829,29.5 L98.4829,29.5 M85.4829,48.5 L72.4829,63.5 M85.4829,48.5 L98.4829,63.5" fill="none" style="stroke:#181818;stroke-width:0.5;"/></g><g class="participant participant-tail" data-participant="User"><text fill="#000000" font-family="sans-serif" font-size="14" lengthAdjust="spacing" textLength="104.9658" x="30" y="800.2139">Group Member</text><ellipse cx="85.4829" cy="812.0156" fill="#E2E2F0" rx="8" ry="8" style="stroke:#181818;stroke-width:0.5;"/><path d="M85.4829,820.0156 L85.4829,847.0156 M72.4829,828.0156 L98.4829,828.0156 M85.4829,847.0156 L72.4829,862.0156 M85.4829,847.0156 L98.4829,862.0156" fill="none" style="stroke:#181818;stroke-width:0.5;"/></g><g class="participant participant-head" data-participant="RTC"><text fill="#000000" font-family="sans-serif" font-size="14" lengthAdjust="spacing" textLength="69.9521" x="269.9111" y="61.6982">Real Time</text><text fill="#000000" font-family="sans-serif" font-size="14" lengthAdjust="spacing" textLength="187.0039" x="215.8354" y="77.9951">Communication Connector</text><ellipse cx="310.1123" cy="32.7031" fill="#E2E2F0" rx="12" ry="12" style="stroke:#181818;stroke-width:0.5;"/><polygon fill="#181818" points="306.1123,20.7031,312.1123,15.7031,310.1123,20.7031,312.1123,25.7031,306.1123,20.7031" style="stroke:#181818;stroke-width:1;"/></g><g class="participant participant-tail" data-participant="RTC"><text fill="#000000" font-family="sans-serif" font-size="14" lengthAdjust="spacing" textLength="69.9521" x="269.9111" y="800.2139">Real Time</text><text fill="#000000" font-family="sans-serif" font-size="14" lengthAdjust="spacing" textLength="187.0039" x="215.8354" y="816.5107">Communication Connector</text><ellipse cx="310.1123" cy="835.8125" fill="#E2E2F0" rx="12" ry="12" style="stroke:#181818;stroke-width:0.5;"/><polygon fill="#181818" points="306.1123,823.8125,312.1123,818.8125,310.1123,823.8125,312.1123,828.8125,306.1123,823.8125" style="stroke:#181818;stroke-width:1;"/></g><g class="participant participant-head" data-participant="USS"><rect fill="#E2E2F0" height="30.2969" rx="2.5" ry="2.5" style="stroke:#181818;stroke-width:0.5;" width="158.3613" x="418.8394" y="50"/><text fill="#000000" font-family="sans-serif" font-size="14" lengthAdjust="spacing" textLength="144.3613" x="425.8394" y="69.9951">UsersSessionService</text></g><g class="participant participant-tail" data-participant="USS"><rect fill="#E2E2F0" height="30.2969" rx="2.5" ry="2.5" style="stroke:#181818;stroke-width:0.5;" width="158.3613" x="418.8394" y="787.2188"/><text fill="#000000" font-family="sans-serif" font-size="14" lengthAdjust="spacing" textLength="144.3613" x="425.8394" y="807.2139">UsersSessionService</text></g><g class="participant participant-head" data-participant="RTT"><rect fill="#E2E2F0" height="30.2969" rx="2.5" ry="2.5" style="stroke:#181818;stroke-width:0.5;" width="191.584" x="587.2007" y="50"/><text fill="#000000" font-family="sans-serif" font-size="14" lengthAdjust="spacing" textLength="177.584" x="594.2007" y="69.9951">RealTimeTrackingService</text></g><g class="participant participant-tail" data-participant="RTT"><rect fill="#E2E2F0" height="30.2969" rx="2.5" ry="2.5" style="stroke:#181818;stroke-width:0.5;" width="191.584" x="587.2007" y="787.2188"/><text fill="#000000" font-family="sans-serif" font-size="14" lengthAdjust="spacing" textLength="177.584" x="594.2007" y="807.2139">RealTimeTrackingService</text></g><g class="participant participant-head" data-participant="USSS"><text fill="#000000" font-family="sans-serif" font-size="14" lengthAdjust="spacing" textLength="122.6367" x="840.7119" y="77.9951">UserSessionStore</text><path d="M887.0303,29 C887.0303,19 905.0303,19 905.0303,19 C905.0303,19 923.0303,19 923.0303,29 L923.0303,55 C923.0303,65 905.0303,65 905.0303,65 C905.0303,65 887.0303,65 887.0303,55 L887.0303,29" fill="#E2E2F0" style="stroke:#181818;stroke-width:1.5;"/><path d="M887.0303,29 C887.0303,39 905.0303,39 905.0303,39 C905.0303,39 923.0303,39 923.0303,29" fill="none" style="stroke:#181818;stroke-width:1.5;"/></g><g class="participant participant-tail" data-participant="USSS"><text fill="#000000" font-family="sans-serif" font-size="14" lengthAdjust="spacing" textLength="122.6367" x="840.7119" y="800.2139">UserSessionStore</text><path d="M887.0303,813.5156 C887.0303,803.5156 905.0303,803.5156 905.0303,803.5156 C905.0303,803.5156 923.0303,803.5156 923.0303,813.5156 L923.0303,839.5156 C923.0303,849.5156 905.0303,849.5156 905.0303,849.5156 C905.0303,849.5156 887.0303,849.5156 887.0303,839.5156 L887.0303,813.5156" fill="#E2E2F0" style="stroke:#181818;stroke-width:1.5;"/><path d="M887.0303,813.5156 C887.0303,823.5156 905.0303,823.5156 905.0303,823.5156 C905.0303,823.5156 923.0303,823.5156 923.0303,813.5156" fill="none" style="stroke:#181818;stroke-width:1.5;"/></g><g><title>Group Member</title><rect fill="#FFFFFF" height="686.9219" style="stroke:#181818;stroke-width:1;" width="10" x="80.4829" y="91.2969"/></g><g><title>Real Time </title><rect fill="#FFFFFF" height="622.6563" style="stroke:#181818;stroke-width:1;" width="10" x="305.1123" y="155.5625"/></g><g><title>UsersSessionService</title><rect fill="#FFFFFF" height="118.5313" style="stroke:#181818;stroke-width:1;" width="10" x="493.02" y="314.2266"/></g><g><title>RealTimeTrackingService</title><rect fill="#FFFFFF" height="71.2656" style="stroke:#181818;stroke-width:1;" width="10" x="677.9927" y="184.6953"/></g><g><title>RealTimeTrackingService</title><rect fill="#FFFFFF" height="264.0625" style="stroke:#181818;stroke-width:1;" width="10" x="677.9927" y="515.1563"/></g><g><title>UserSessionStore</title><rect fill="#FFFFFF" height="29.1328" style="stroke:#181818;stroke-width:1;" width="10" x="900.0303" y="367.4922"/></g><g><title>UserSessionStore</title><rect fill="#FFFFFF" height="29.1328" style="stroke:#181818;stroke-width:1;" width="10" x="900.0303" y="644.6875"/></g><rect fill="#EEEEEE" height="3" style="stroke:#EEEEEE;stroke-width:1;" width="989.3486" x="0" y="111.8633"/><line style="stroke:#000000;stroke-width:1;" x1="0" x2="989.3486" y1="111.8633" y2="111.8633"/><line style="stroke:#000000;stroke-width:1;" x1="0" x2="989.3486" y1="114.8633" y2="114.8633"/><rect fill="#EEEEEE" height="23.1328" style="stroke:#000000;stroke-width:2;" width="228.6968" x="380.3259" y="101.2969"/><text fill="#000000" font-family="sans-serif" font-size="13" font-weight="bold" lengthAdjust="spacing" textLength="210.1709" x="386.3259" y="117.3638">Use case: Real-time tracking</text><g class="message" data-participant-1="User" data-participant-2="RTC"><polygon fill="#181818" points="293.1123,151.5625,303.1123,155.5625,293.1123,159.5625,297.1123,155.5625" style="stroke:#181818;stroke-width:1;"/><line style="stroke:#181818;stroke-width:1;" x1="90.4829" x2="299.1123" y1="155.5625" y2="155.5625"/><text fill="#000000" font-family="sans-serif" font-size="13" font-weight="bold" lengthAdjust="spacing" textLength="9.0454" x="97.4829" y="150.4966">1</text><text fill="#000000" font-family="sans-serif" font-size="13" lengthAdjust="spacing" textLength="182.584" x="110.5283" y="150.4966">connect(&lt;groupId, userId&gt;)</text></g><g class="message" data-participant-1="RTC" data-participant-2="RTT"><polygon fill="#181818" points="665.9927,180.6953,675.9927,184.6953,665.9927,188.6953,669.9927,184.6953" style="stroke:#181818;stroke-width:1;"/><line style="stroke:#181818;stroke-width:1;" x1="315.1123" x2="671.9927" y1="184.6953" y2="184.6953"/><text fill="#000000" font-family="sans-serif" font-size="13" font-weight="bold" lengthAdjust="spacing" textLength="9.0454" x="322.1123" y="179.6294">2</text><text fill="#000000" font-family="sans-serif" font-size="13" lengthAdjust="spacing" textLength="266.4492" x="335.1577" y="179.6294">addObserverFor(&lt;groupId, userId&gt;)(me)</text></g><g class="message" data-participant-1="RTT" data-participant-2="RTT"><line style="stroke:#181818;stroke-width:1;" x1="687.9927" x2="729.9927" y1="213.8281" y2="213.8281"/><line style="stroke:#181818;stroke-width:1;" x1="729.9927" x2="729.9927" y1="213.8281" y2="226.8281"/><line style="stroke:#181818;stroke-width:1;" x1="688.9927" x2="729.9927" y1="226.8281" y2="226.8281"/><polygon fill="#181818" points="698.9927,222.8281,688.9927,226.8281,698.9927,230.8281,694.9927,226.8281" style="stroke:#181818;stroke-width:1;"/><text fill="#000000" font-family="sans-serif" font-size="13" font-weight="bold" lengthAdjust="spacing" textLength="9.0454" x="694.9927" y="208.7622">3</text><text fill="#000000" font-family="sans-serif" font-size="13" lengthAdjust="spacing" textLength="97.9316" x="708.0381" y="208.7622">save(observer)</text></g><g class="message" data-participant-1="RTT" data-participant-2="RTC"><polygon fill="#181818" points="326.1123,251.9609,316.1123,255.9609,326.1123,259.9609,322.1123,255.9609" style="stroke:#181818;stroke-width:1;"/><line style="stroke:#181818;stroke-width:1;stroke-dasharray:2.0,2.0;" x1="320.1123" x2="681.9927" y1="255.9609" y2="255.9609"/><text fill="#000000" font-family="sans-serif" font-size="13" font-weight="bold" lengthAdjust="spacing" textLength="9.0454" x="332.1123" y="250.895">4</text><text fill="#000000" font-family="sans-serif" font-size="13" lengthAdjust="spacing" textLength="15.4819" x="345.1577" y="250.895">ok</text></g><g class="message" data-participant-1="RTC" data-participant-2="User"><polygon fill="#181818" points="101.4829,281.0938,91.4829,285.0938,101.4829,289.0938,97.4829,285.0938" style="stroke:#181818;stroke-width:1;"/><line style="stroke:#181818;stroke-width:1;stroke-dasharray:2.0,2.0;" x1="95.4829" x2="304.1123" y1="285.0938" y2="285.0938"/><text fill="#000000" font-family="sans-serif" font-size="13" font-weight="bold" lengthAdjust="spacing" textLength="9.0454" x="107.4829" y="280.0278">5</text><text fill="#000000" font-family="sans-serif" font-size="13" lengthAdjust="spacing" textLength="15.4819" x="120.5283" y="280.0278">ok</text></g><g class="message" data-participant-1="User" data-participant-2="USS"><polygon fill="#181818" points="481.02,310.2266,491.02,314.2266,481.02,318.2266,485.02,314.2266" style="stroke:#181818;stroke-width:1;"/><line style="stroke:#181818;stroke-width:1;" x1="90.4829" x2="487.02" y1="314.2266" y2="314.2266"/><text fill="#000000" font-family="sans-serif" font-size="13" font-weight="bold" lengthAdjust="spacing" textLength="9.0454" x="97.4829" y="309.1606">6</text><text fill="#000000" font-family="sans-serif" font-size="13" lengthAdjust="spacing" textLength="250.8467" x="110.5283" y="309.1606">UsersSessionService.ofGroup(groupId)</text></g><path d="M408.8394,329.2266 L485.4634,329.2266 L485.4634,336.3594 L475.4634,346.3594 L408.8394,346.3594 L408.8394,329.2266" fill="#ADD8E6" style="stroke:#000000;stroke-width:1.5;"/><rect fill="none" height="75.3984" style="stroke:#000000;stroke-width:1.5;" width="570.5093" x="408.8394" y="329.2266"/><text fill="#000000" font-family="sans-serif" font-size="13" font-weight="bold" lengthAdjust="spacing" textLength="31.624" x="423.8394" y="342.2935">loop</text><text fill="#000000" font-family="sans-serif" font-size="11" font-weight="bold" lengthAdjust="spacing" textLength="156.2505" x="500.4634" y="341.437">[for each group member]</text><g class="message" data-participant-1="USS" data-participant-2="USSS"><polygon fill="#181818" points="888.0303,363.4922,898.0303,367.4922,888.0303,371.4922,892.0303,367.4922" style="stroke:#181818;stroke-width:1;"/><line style="stroke:#181818;stroke-width:1;" x1="503.02" x2="894.0303" y1="367.4922" y2="367.4922"/><text fill="#000000" font-family="sans-serif" font-size="13" font-weight="bold" lengthAdjust="spacing" textLength="9.0454" x="510.02" y="362.4263">7</text><text fill="#000000" font-family="sans-serif" font-size="13" lengthAdjust="spacing" textLength="132.9834" x="523.0654" y="362.4263">sessionOf(&lt;scope&gt;)</text></g><g class="message" data-participant-1="USSS" data-participant-2="USS"><polygon fill="#181818" points="514.02,392.625,504.02,396.625,514.02,400.625,510.02,396.625" style="stroke:#181818;stroke-width:1;"/><line style="stroke:#181818;stroke-width:1;stroke-dasharray:2.0,2.0;" x1="508.02" x2="904.0303" y1="396.625" y2="396.625"/><text fill="#000000" font-family="sans-serif" font-size="13" font-weight="bold" lengthAdjust="spacing" textLength="9.0454" x="520.02" y="391.5591">8</text><text fill="#000000" font-family="sans-serif" font-size="13" lengthAdjust="spacing" textLength="96.6113" x="533.0654" y="391.5591">Some[Session]</text></g><g class="message" data-participant-1="USS" data-participant-2="User"><polygon fill="#181818" points="101.4829,428.7578,91.4829,432.7578,101.4829,436.7578,97.4829,432.7578" style="stroke:#181818;stroke-width:1;"/><line style="stroke:#181818;stroke-width:1;stroke-dasharray:2.0,2.0;" x1="95.4829" x2="497.02" y1="432.7578" y2="432.7578"/><text fill="#000000" font-family="sans-serif" font-size="13" font-weight="bold" lengthAdjust="spacing" textLength="9.0454" x="107.4829" y="427.6919">9</text><text fill="#000000" font-family="sans-serif" font-size="13" lengthAdjust="spacing" textLength="107.0659" x="120.5283" y="427.6919">Stream[Session]</text></g><path d="M10,447.7578 L86.624,447.7578 L86.624,454.8906 L76.624,464.8906 L10,464.8906 L10,447.7578" fill="#FFD700" style="stroke:#000000;stroke-width:1.5;"/><rect fill="none" height="323.4609" style="stroke:#000000;stroke-width:1.5;" width="969.3486" x="10" y="447.7578"/><text fill="#000000" font-family="sans-serif" font-size="13" font-weight="bold" lengthAdjust="spacing" textLength="31.624" x="25" y="460.8247">loop</text><text fill="#000000" font-family="sans-serif" font-size="11" font-weight="bold" lengthAdjust="spacing" textLength="191.5869" x="101.624" y="459.9683">[while connected, periodically]</text><g class="message" data-participant-1="User" data-participant-2="RTC"><line style="stroke:#181818;stroke-width:1;" x1="303.1123" x2="293.1123" y1="486.0234" y2="482.0234"/><line style="stroke:#181818;stroke-width:1;" x1="303.1123" x2="293.1123" y1="486.0234" y2="490.0234"/><line style="stroke:#181818;stroke-width:1;" x1="90.4829" x2="304.1123" y1="486.0234" y2="486.0234"/><text fill="#000000" font-family="sans-serif" font-size="13" font-weight="bold" lengthAdjust="spacing" textLength="18.0908" x="97.4829" y="480.9575">10</text><text fill="#000000" font-family="sans-serif" font-size="13" lengthAdjust="spacing" textLength="163.0459" x="119.5737" y="480.9575">send(ClientDrivingEvent)</text></g><g class="message" data-participant-1="RTC" data-participant-2="RTT"><polygon fill="#181818" points="665.9927,511.1563,675.9927,515.1563,665.9927,519.1563,669.9927,515.1563" style="stroke:#181818;stroke-width:1;"/><line style="stroke:#181818;stroke-width:1;" x1="315.1123" x2="671.9927" y1="515.1563" y2="515.1563"/><text fill="#000000" font-family="sans-serif" font-size="13" font-weight="bold" lengthAdjust="spacing" textLength="18.0908" x="322.1123" y="510.0903">11</text><text fill="#000000" font-family="sans-serif" font-size="13" lengthAdjust="spacing" textLength="176.0903" x="344.2031" y="510.0903">handle(ClientDrivingEvent)</text></g><g class="message" data-participant-1="RTT" data-participant-2="RTC"><line style="stroke:#181818;stroke-width:1;" x1="316.1123" x2="326.1123" y1="544.2891" y2="540.2891"/><line style="stroke:#181818;stroke-width:1;" x1="316.1123" x2="326.1123" y1="544.2891" y2="548.2891"/><line style="stroke:#181818;stroke-width:1;stroke-dasharray:2.0,2.0;" x1="315.1123" x2="676.9927" y1="544.2891" y2="544.2891"/><text fill="#000000" font-family="sans-serif" font-size="13" font-weight="bold" lengthAdjust="spacing" textLength="18.0908" x="332.1123" y="539.2231">12</text><text fill="#000000" font-family="sans-serif" font-size="13" lengthAdjust="spacing" textLength="22.6421" x="354.2031" y="539.2231">ack</text></g><g class="message" data-participant-1="RTC" data-participant-2="User"><line style="stroke:#181818;stroke-width:1;" x1="91.4829" x2="101.4829" y1="573.4219" y2="569.4219"/><line style="stroke:#181818;stroke-width:1;" x1="91.4829" x2="101.4829" y1="573.4219" y2="577.4219"/><line style="stroke:#181818;stroke-width:1;stroke-dasharray:2.0,2.0;" x1="90.4829" x2="304.1123" y1="573.4219" y2="573.4219"/><text fill="#000000" font-family="sans-serif" font-size="13" font-weight="bold" lengthAdjust="spacing" textLength="18.0908" x="107.4829" y="568.356">13</text><text fill="#000000" font-family="sans-serif" font-size="13" lengthAdjust="spacing" textLength="22.6421" x="129.5737" y="568.356">ack</text></g><g class="message" data-participant-1="RTT" data-participant-2="RTT"><line style="stroke:#181818;stroke-width:1;" x1="687.9927" x2="729.9927" y1="602.5547" y2="602.5547"/><line style="stroke:#181818;stroke-width:1;" x1="729.9927" x2="729.9927" y1="602.5547" y2="615.5547"/><line style="stroke:#181818;stroke-width:1;" x1="688.9927" x2="729.9927" y1="615.5547" y2="615.5547"/><polygon fill="#181818" points="698.9927,611.5547,688.9927,615.5547,698.9927,619.5547,694.9927,615.5547" style="stroke:#181818;stroke-width:1;"/><text fill="#000000" font-family="sans-serif" font-size="13" font-weight="bold" lengthAdjust="spacing" textLength="18.0908" x="694.9927" y="597.4888">14</text><text fill="#000000" font-family="sans-serif" font-size="13" lengthAdjust="spacing" textLength="165.9468" x="717.0835" y="597.4888">react(event): UserUpdate</text></g><g class="message" data-participant-1="RTT" data-participant-2="USSS"><polygon fill="#181818" points="888.0303,640.6875,898.0303,644.6875,888.0303,648.6875,892.0303,644.6875" style="stroke:#181818;stroke-width:1;"/><line style="stroke:#181818;stroke-width:1;" x1="687.9927" x2="894.0303" y1="644.6875" y2="644.6875"/><text fill="#000000" font-family="sans-serif" font-size="13" font-weight="bold" lengthAdjust="spacing" textLength="18.0908" x="694.9927" y="639.6216">15</text><text fill="#000000" font-family="sans-serif" font-size="13" lengthAdjust="spacing" textLength="132.6597" x="717.0835" y="639.6216">update(UserUpdate)</text></g><g class="message" data-participant-1="USSS" data-participant-2="RTT"><polygon fill="#181818" points="698.9927,669.8203,688.9927,673.8203,698.9927,677.8203,694.9927,673.8203" style="stroke:#181818;stroke-width:1;"/><line style="stroke:#181818;stroke-width:1;stroke-dasharray:2.0,2.0;" x1="692.9927" x2="904.0303" y1="673.8203" y2="673.8203"/><text fill="#000000" font-family="sans-serif" font-size="13" font-weight="bold" lengthAdjust="spacing" textLength="18.0908" x="704.9927" y="668.7544">16</text><text fill="#000000" font-family="sans-serif" font-size="13" lengthAdjust="spacing" textLength="15.4819" x="727.0835" y="668.7544">ok</text></g><path d="M20,688.8203 L96.624,688.8203 L96.624,695.9531 L86.624,705.9531 L20,705.9531 L20,688.8203" fill="#ADD8E6" style="stroke:#000000;stroke-width:1.5;"/><rect fill="none" height="75.3984" style="stroke:#000000;stroke-width:1.5;" width="768.7847" x="20" y="688.8203"/><text fill="#000000" font-family="sans-serif" font-size="13" font-weight="bold" lengthAdjust="spacing" textLength="31.624" x="35" y="701.8872">loop</text><text fill="#000000" font-family="sans-serif" font-size="11" font-weight="bold" lengthAdjust="spacing" textLength="119.6357" x="111.624" y="701.0308">[for each observer]</text><g class="message" data-participant-1="RTT" data-participant-2="RTC"><polygon fill="#181818" points="326.1123,723.0859,316.1123,727.0859,326.1123,731.0859,322.1123,727.0859" style="stroke:#181818;stroke-width:1;"/><line style="stroke:#181818;stroke-width:1;stroke-dasharray:2.0,2.0;" x1="320.1123" x2="676.9927" y1="727.0859" y2="727.0859"/><text fill="#000000" font-family="sans-serif" font-size="13" font-weight="bold" lengthAdjust="spacing" textLength="18.0908" x="332.1123" y="722.02">17</text><text fill="#000000" font-family="sans-serif" font-size="13" lengthAdjust="spacing" textLength="124.0269" x="354.2031" y="722.02">notify(UserUpdate)</text></g><g class="message" data-participant-1="RTC" data-participant-2="User"><polygon fill="#181818" points="101.4829,752.2188,91.4829,756.2188,101.4829,760.2188,97.4829,756.2188" style="stroke:#181818;stroke-width:1;"/><line style="stroke:#181818;stroke-width:1;stroke-dasharray:2.0,2.0;" x1="95.4829" x2="304.1123" y1="756.2188" y2="756.2188"/><text fill="#000000" font-family="sans-serif" font-size="13" font-weight="bold" lengthAdjust="spacing" textLength="18.0908" x="107.4829" y="751.1528">18</text><text fill="#000000" font-family="sans-serif" font-size="13" lengthAdjust="spacing" textLength="76.7114" x="129.5737" y="751.1528">UserUpdate</text></g><!--SRC=[XLDDRzim3BthLn3PnGNM_O2WwSNxG84D1MBdjEsWM4mYH9OCIVRGVpzIickxIx403XBolKS-afPzTBPlZ-Y5a4rq7ZRVlEix-84St80CS0YKRPoDtXdOx54Qg7MByCj2wTgsjxgHKJl-PosoIABjwr9qqaVTw4xQc6H2XI4Gj48_w0QJUbMjOApFyhMNpLNRymAwhskXP9H76J39JMfKSjAgXDZjE0aDeRP9xZvokt4KXDqkUTM3Z5b62Fw6-qVkUGjDjb4yd7aIJ-eZz9H-KeztCutDqPCvzHQaKiz7GWtelpf_WrgqkABNHAzVwK4EMBXHu2wdfdRSLIXymonJchjE-TV-QG3RMuF-v4vfhSNOrw8LdhznhllmNPylyMXwX1ET0LMyG493cqv107q8F9QXEY6NU3uL3w5n7T9y6BDKhYPMbHjcMkLQ_3cszplb5_OI1wqIXucIF5RHesndrfeXie6pCmh-NBJ1QOL82-ZGQwVeH8rvoTtaMOtJ3LIiA8r66pzxFT1zV1deTxQotF15McNmNUXgGPcRTZYMeTER5JcQVStX-HOyUoimIUTb7ZgwUbm2ymBw52zco7yNa0guwysfS-ozGvXECu4Mxh8vww8-lVpJnyBlQFUD6TupF-lxBbVRvTVpBm00]--></g></svg>