<svg xmlns="http://www.w3.org/2000/svg" xmlns:xlink="http://www.w3.org/1999/xlink" contentStyleType="text/css" data-diagram-type="SEQUENCE" height="182px" preserveAspectRatio="none" style="width:327px;height:182px;background:#1B1B1B;" version="1.1" viewBox="0 0 327 182" width="327px" zoomAndPan="magnify"><defs/><g><rect fill="#1B1B1B" height="182" style="stroke:transparent;stroke-width:1;" width="327" x="0" y="0"/><g><title>Client</title><rect fill="transparent" height="20" width="8" x="24.2651" y="81.2969"/><line style="stroke:#E7E7E7;stroke-width:0.5;stroke-dasharray:5.0,5.0;" x1="28" x2="28" y1="81.2969" y2="101.2969"/></g><g><title>RabbitMQ </title><rect fill="transparent" height="20" width="8" x="146.4717" y="81.2969"/><line style="stroke:#E7E7E7;stroke-width:0.5;stroke-dasharray:5.0,5.0;" x1="149.5303" x2="149.5303" y1="81.2969" y2="101.2969"/></g><g><title>Kafka </title><rect fill="transparent" height="20" width="8" x="280.8394" y="81.2969"/><line style="stroke:#E7E7E7;stroke-width:0.5;stroke-dasharray:5.0,5.0;" x1="284.4131" x2="284.4131" y1="81.2969" y2="101.2969"/></g><text fill="#FFFFFF" font-family="sans-serif" font-size="14" lengthAdjust="spacing" textLength="40.5303" x="5" y="77.9951">Client</text><ellipse cx="28.2651" cy="13.5" fill="#222222" rx="8" ry="8" style="stroke:#E7E7E7;stroke-width:0.5;"/><path d="M28.2651,21.5 L28.2651,48.5 M15.2651,29.5 L41.2651,29.5 M28.2651,48.5 L15.2651,63.5 M28.2651,48.5 L41.2651,63.5 " fill="transparent" style="stroke:#E7E7E7;stroke-width:0.5;"/><text fill="#FFFFFF" font-family="sans-serif" font-size="14" lengthAdjust="spacing" textLength="40.5303" x="5" y="113.292">Client</text><ellipse cx="28.2651" cy="125.0938" fill="#222222" rx="8" ry="8" style="stroke:#E7E7E7;stroke-width:0.5;"/><path d="M28.2651,133.0938 L28.2651,160.0938 M15.2651,141.0938 L41.2651,141.0938 M28.2651,160.0938 L15.2651,175.0938 M28.2651,160.0938 L41.2651,175.0938 " fill="transparent" style="stroke:#E7E7E7;stroke-width:0.5;"/><path d="M66.5303,38.7031 L234.4131,38.7031 C239.4131,38.7031 239.4131,60 239.4131,60 C239.4131,60 239.4131,81.2969 234.4131,81.2969 L66.5303,81.2969 C61.5303,81.2969 61.5303,60 61.5303,60 C61.5303,60 61.5303,38.7031 66.5303,38.7031 " fill="#222222" style="stroke:#E7E7E7;stroke-width:0.5;"/><path d="M234.4131,38.7031 C229.4131,38.7031 229.4131,60 229.4131,60 C229.4131,81.2969 234.4131,81.2969 234.4131,81.2969 " fill="transparent" style="stroke:#E7E7E7;stroke-width:0.5;"/><text fill="#FFFFFF" font-family="sans-serif" font-size="14" lengthAdjust="spacing" textLength="68.5576" x="108.9678" y="56.6982">RabbitMQ</text><text fill="#FFFFFF" font-family="sans-serif" font-size="14" lengthAdjust="spacing" textLength="153.4326" x="70.9805" y="72.9951">Notification Exchange</text><path d="M66.5303,100.2969 L234.4131,100.2969 C239.4131,100.2969 239.4131,121.5938 239.4131,121.5938 C239.4131,121.5938 239.4131,142.8906 234.4131,142.8906 L66.5303,142.8906 C61.5303,142.8906 61.5303,121.5938 61.5303,121.5938 C61.5303,121.5938 61.5303,100.2969 66.5303,100.2969 " fill="#222222" style="stroke:#E7E7E7;stroke-width:0.5;"/><path d="M234.4131,100.2969 C229.4131,100.2969 229.4131,121.5938 229.4131,121.5938 C229.4131,142.8906 234.4131,142.8906 234.4131,142.8906 " fill="transparent" style="stroke:#E7E7E7;stroke-width:0.5;"/><text fill="#FFFFFF" font-family="sans-serif" font-size="14" lengthAdjust="spacing" textLength="68.5576" x="108.9678" y="118.292">RabbitMQ</text><text fill="#FFFFFF" font-family="sans-serif" font-size="14" lengthAdjust="spacing" textLength="153.4326" x="70.9805" y="134.5889">Notification Exchange</text><path d="M254.4131,38.7031 L315.2656,38.7031 C320.2656,38.7031 320.2656,60 320.2656,60 C320.2656,60 320.2656,81.2969 315.2656,81.2969 L254.4131,81.2969 C249.4131,81.2969 249.4131,60 249.4131,60 C249.4131,60 249.4131,38.7031 254.4131,38.7031 " fill="#222222" style="stroke:#E7E7E7;stroke-width:0.5;"/><path d="M315.2656,38.7031 C310.2656,38.7031 310.2656,60 310.2656,60 C310.2656,81.2969 315.2656,81.2969 315.2656,81.2969 " fill="transparent" style="stroke:#E7E7E7;stroke-width:0.5;"/><text fill="#FFFFFF" font-family="sans-serif" font-size="14" lengthAdjust="spacing" textLength="39.375" x="257.9268" y="56.6982">Kafka</text><text fill="#FFFFFF" font-family="sans-serif" font-size="14" lengthAdjust="spacing" textLength="46.4023" x="258.8633" y="72.9951">Broker</text><path d="M254.4131,100.2969 L315.2656,100.2969 C320.2656,100.2969 320.2656,121.5938 320.2656,121.5938 C320.2656,121.5938 320.2656,142.8906 315.2656,142.8906 L254.4131,142.8906 C249.4131,142.8906 249.4131,121.5938 249.4131,121.5938 C249.4131,121.5938 249.4131,100.2969 254.4131,100.2969 " fill="#222222" style="stroke:#E7E7E7;stroke-width:0.5;"/><path d="M315.2656,100.2969 C310.2656,100.2969 310.2656,121.5938 310.2656,121.5938 C310.2656,142.8906 315.2656,142.8906 315.2656,142.8906 " fill="transparent" style="stroke:#E7E7E7;stroke-width:0.5;"/><text fill="#FFFFFF" font-family="sans-serif" font-size="14" lengthAdjust="spacing" textLength="39.375" x="257.9268" y="118.292">Kafka</text><text fill="#FFFFFF" font-family="sans-serif" font-size="14" lengthAdjust="spacing" textLength="46.4023" x="258.8633" y="134.5889">Broker</text><!--SRC=[IqmkoIzIK51GSix9JCqhKLB00nAB5PB1ghWAIrDBKq6wWXAJaZ9BV0CLOl8K_F9BCjCoanDBClFp55mhaZCIyz9JbK2wYi2gSWlZyv2K52DCyKvCoqu46U5Kb9-TMgI4tUviaAhu9B0IBW00]--></g></svg>