<svg xmlns="http://www.w3.org/2000/svg" xmlns:xlink="http://www.w3.org/1999/xlink" contentStyleType="text/css" data-diagram-type="CLASS" height="1310px" preserveAspectRatio="none" style="width:1537px;height:1310px;background:#1B1B1B;" version="1.1" viewBox="0 0 1537 1310" width="1537px" zoomAndPan="magnify"><defs/><g><rect fill="#1B1B1B" height="1310" style="stroke:none;stroke-width:1;" width="1537" x="0" y="0"/><!--cluster application--><g class="cluster" data-entity="application" data-source-line="198" data-uid="ent0002" id="cluster_application"><path d="M8.5,6 L97.4102,6 A3.75,3.75 0 0 1 99.9102,8.5 L106.9102,28.2969 L1527.5,28.2969 A2.5,2.5 0 0 1 1530,30.7969 L1530,1300.5 A2.5,2.5 0 0 1 1527.5,1303 L8.5,1303 A2.5,2.5 0 0 1 6,1300.5 L6,8.5 A2.5,2.5 0 0 1 8.5,6" fill="none" style="stroke:#FFFFFF;stroke-width:1.5;"/><line style="stroke:#FFFFFF;stroke-width:1.5;" x1="6" x2="106.9102" y1="28.2969" y2="28.2969"/><text fill="#FFFFFF" font-family="sans-serif" font-size="14" font-weight="bold" lengthAdjust="spacing" textLength="87.9102" x="10" y="20.9951">application</text></g><!--cluster groups--><g class="cluster" data-entity="groups" data-source-line="200" data-uid="ent0003" id="cluster_groups"><path d="M522.5,743.5 L578.3652,743.5 A3.75,3.75 0 0 1 580.8652,746 L587.8652,765.7969 L1503.5,765.7969 A2.5,2.5 0 0 1 1506,768.2969 L1506,1276.5 A2.5,2.5 0 0 1 1503.5,1279 L522.5,1279 A2.5,2.5 0 0 1 520,1276.5 L520,746 A2.5,2.5 0 0 1 522.5,743.5" fill="none" style="stroke:#FFFFFF;stroke-width:1.5;"/><line style="stroke:#FFFFFF;stroke-width:1.5;" x1="520" x2="587.8652" y1="765.7969" y2="765.7969"/><text fill="#FFFFFF" font-family="sans-serif" font-size="14" font-weight="bold" lengthAdjust="spacing" textLength="54.8652" x="524" y="758.4951">groups</text></g><!--cluster notifications--><g class="cluster" data-entity="notifications" data-source-line="221" data-uid="ent0013" id="cluster_notifications"><path d="M92.5,651 L192.6211,651 A3.75,3.75 0 0 1 195.1211,653.5 L202.1211,673.2969 L493.5,673.2969 A2.5,2.5 0 0 1 496,675.7969 L496,1138 A2.5,2.5 0 0 1 493.5,1140.5 L92.5,1140.5 A2.5,2.5 0 0 1 90,1138 L90,653.5 A2.5,2.5 0 0 1 92.5,651" fill="none" style="stroke:#FFFFFF;stroke-width:1.5;"/><line style="stroke:#FFFFFF;stroke-width:1.5;" x1="90" x2="202.1211" y1="673.2969" y2="673.2969"/><text fill="#FFFFFF" font-family="sans-serif" font-size="14" font-weight="bold" lengthAdjust="spacing" textLength="99.1211" x="94" y="665.9951">notifications</text></g><!--cluster sessions--><g class="cluster" data-entity="sessions" data-source-line="234" data-uid="ent0017" id="cluster_sessions"><path d="M442.5,57 L510.7109,57 A3.75,3.75 0 0 1 513.2109,59.5 L520.2109,79.2969 L1503.5,79.2969 A2.5,2.5 0 0 1 1506,81.7969 L1506,355 A2.5,2.5 0 0 1 1503.5,357.5 L442.5,357.5 A2.5,2.5 0 0 1 440,355 L440,59.5 A2.5,2.5 0 0 1 442.5,57" fill="none" style="stroke:#FFFFFF;stroke-width:1.5;"/><line style="stroke:#FFFFFF;stroke-width:1.5;" x1="440" x2="520.2109" y1="79.2969" y2="79.2969"/><text fill="#FFFFFF" font-family="sans-serif" font-size="14" font-weight="bold" lengthAdjust="spacing" textLength="67.2109" x="444" y="71.9951">sessions</text></g><!--cluster tracking--><g class="cluster" data-entity="tracking" data-source-line="253" data-uid="ent0029" id="cluster_tracking"><path d="M32.5,49 L98.9404,49 A3.75,3.75 0 0 1 101.4404,51.5 L108.4404,71.2969 L413.5,71.2969 A2.5,2.5 0 0 1 416,73.7969 L416,624.5 A2.5,2.5 0 0 1 413.5,627 L32.5,627 A2.5,2.5 0 0 1 30,624.5 L30,51.5 A2.5,2.5 0 0 1 32.5,49" fill="none" style="stroke:#FFFFFF;stroke-width:1.5;"/><line style="stroke:#FFFFFF;stroke-width:1.5;" x1="30" x2="108.4404" y1="71.2969" y2="71.2969"/><text fill="#FFFFFF" font-family="sans-serif" font-size="14" font-weight="bold" lengthAdjust="spacing" textLength="65.4404" x="34" y="63.9951">tracking</text></g><!--class UserGroupsReader--><g class="entity" data-entity="UserGroupsReader" data-source-line="201" data-uid="ent0004" id="entity_UserGroupsReader"><rect fill="#313139" height="80.5938" rx="2.5" ry="2.5" style="stroke:#E7E7E7;stroke-width:0.5;" width="313.3965" x="1176.5" y="1052"/><ellipse cx="1262.7935" cy="1068" fill="#352866" rx="11" ry="11" style="stroke:#E7E7E7;stroke-width:1;"/><path d="M1258.7153,1063.7656 L1258.7153,1061.6094 L1266.106,1061.6094 L1266.106,1063.7656 L1263.6372,1063.7656 L1263.6372,1071.8438 L1266.106,1071.8438 L1266.106,1074 L1258.7153,1074 L1258.7153,1071.8438 L1261.1841,1071.8438 L1261.1841,1063.7656 L1258.7153,1063.7656 Z " fill="#FFFFFF"/><text fill="#FFFFFF" font-family="sans-serif" font-size="14" font-style="italic" lengthAdjust="spacing" textLength="132.3096" x="1283.2935" y="1072.8467">UserGroupsReader</text><line style="stroke:#E7E7E7;stroke-width:0.5;" x1="1177.5" x2="1488.8965" y1="1084" y2="1084"/><line style="stroke:#E7E7E7;stroke-width:0.5;" x1="1177.5" x2="1488.8965" y1="1092" y2="1092"/><ellipse cx="1187.5" cy="1105.6484" fill="#84BE84" rx="3" ry="3" style="stroke:#038048;stroke-width:1;"/><text fill="#FFFFFF" font-family="sans-serif" font-size="14" lengthAdjust="spacing" textLength="258.7881" x="1196.5" y="1108.9951">groupsOf(user: UserId): Set[GroupId]</text><ellipse cx="1187.5" cy="1121.9453" fill="#84BE84" rx="3" ry="3" style="stroke:#038048;stroke-width:1;"/><text fill="#FFFFFF" font-family="sans-serif" font-size="14" lengthAdjust="spacing" textLength="287.3965" x="1196.5" y="1125.292">membersOf(group: GroupId): Set[UserId]</text></g><!--class UserGroupsWriter--><g class="entity" data-entity="UserGroupsWriter" data-source-line="205" data-uid="ent0005" id="entity_UserGroupsWriter"><rect fill="#313139" height="80.5938" rx="2.5" ry="2.5" style="stroke:#E7E7E7;stroke-width:0.5;" width="373.6211" x="767" y="1052"/><ellipse cx="886.8203" cy="1068" fill="#352866" rx="11" ry="11" style="stroke:#E7E7E7;stroke-width:1;"/><path d="M882.7422,1063.7656 L882.7422,1061.6094 L890.1328,1061.6094 L890.1328,1063.7656 L887.6641,1063.7656 L887.6641,1071.8438 L890.1328,1071.8438 L890.1328,1074 L882.7422,1074 L882.7422,1071.8438 L885.2109,1071.8438 L885.2109,1063.7656 L882.7422,1063.7656 Z " fill="#FFFFFF"/><text fill="#FFFFFF" font-family="sans-serif" font-size="14" font-style="italic" lengthAdjust="spacing" textLength="125.4805" x="907.3203" y="1072.8467">UserGroupsWriter</text><line style="stroke:#E7E7E7;stroke-width:0.5;" x1="768" x2="1139.6211" y1="1084" y2="1084"/><line style="stroke:#E7E7E7;stroke-width:0.5;" x1="768" x2="1139.6211" y1="1092" y2="1092"/><ellipse cx="778" cy="1105.6484" fill="#84BE84" rx="3" ry="3" style="stroke:#038048;stroke-width:1;"/><text fill="#FFFFFF" font-family="sans-serif" font-size="14" lengthAdjust="spacing" textLength="328.6104" x="787" y="1108.9951">addMemberk(groupId: GroupId, userId: UserId)</text><ellipse cx="778" cy="1121.9453" fill="#84BE84" rx="3" ry="3" style="stroke:#038048;stroke-width:1;"/><text fill="#FFFFFF" font-family="sans-serif" font-size="14" lengthAdjust="spacing" textLength="347.6211" x="787" y="1125.292">removeMember(groupId: GroupId, userId: UserId)</text></g><!--class UserGroupsStore--><g class="entity" data-entity="UserGroupsStore" data-source-line="209" data-uid="ent0006" id="entity_UserGroupsStore"><rect fill="#313139" height="70.2344" rx="2.5" ry="2.5" style="stroke:#E7E7E7;stroke-width:0.5;" width="151.4443" x="878.5" y="1193"/><ellipse cx="893.5" cy="1220.1172" fill="#352866" rx="11" ry="11" style="stroke:#E7E7E7;stroke-width:1;"/><path d="M889.4219,1215.8828 L889.4219,1213.7266 L896.8125,1213.7266 L896.8125,1215.8828 L894.3438,1215.8828 L894.3438,1223.9609 L896.8125,1223.9609 L896.8125,1226.1172 L889.4219,1226.1172 L889.4219,1223.9609 L891.8906,1223.9609 L891.8906,1215.8828 L889.4219,1215.8828 Z " fill="#FFFFFF"/><text fill="#000000" font-family="sans-serif" font-size="12" font-style="italic" lengthAdjust="spacing" textLength="75.7559" x="929.3442" y="1209.1387">&#171;repository&#187;</text><text fill="#000000" font-family="sans-serif" font-size="12" font-style="italic" lengthAdjust="spacing" textLength="62.877" x="935.7837" y="1223.1074">&#171;out port&#187;</text><text fill="#FFFFFF" font-family="sans-serif" font-size="14" font-style="italic" lengthAdjust="spacing" textLength="119.4443" x="907.5" y="1238.9326">UserGroupsStore</text><line style="stroke:#E7E7E7;stroke-width:0.5;" x1="879.5" x2="1028.9443" y1="1247.2344" y2="1247.2344"/><line style="stroke:#E7E7E7;stroke-width:0.5;" x1="879.5" x2="1028.9443" y1="1255.2344" y2="1255.2344"/></g><!--class UserGroupsService--><g class="entity" data-entity="UserGroupsService" data-source-line="211" data-uid="ent0009" id="entity_UserGroupsService"><rect fill="#313139" height="121.4531" rx="2.5" ry="2.5" style="stroke:#E7E7E7;stroke-width:0.5;" width="399.8779" x="581" y="778.5"/><ellipse cx="709.7515" cy="798.6328" fill="#352866" rx="11" ry="11" style="stroke:#E7E7E7;stroke-width:1;"/><path d="M705.6733,794.3984 L705.6733,792.2422 L713.064,792.2422 L713.064,794.3984 L710.5952,794.3984 L710.5952,802.4766 L713.064,802.4766 L713.064,804.6328 L705.6733,804.6328 L705.6733,802.4766 L708.1421,802.4766 L708.1421,794.3984 L705.6733,794.3984 Z " fill="#FFFFFF"/><text fill="#000000" font-family="sans-serif" font-size="12" font-style="italic" lengthAdjust="spacing" textLength="57.7969" x="768.2905" y="794.6387">&#171;service&#187;</text><text fill="#FFFFFF" font-family="sans-serif" font-size="14" font-style="italic" lengthAdjust="spacing" textLength="133.875" x="730.2515" y="810.4639">UserGroupsService</text><line style="stroke:#E7E7E7;stroke-width:0.5;" x1="582" x2="979.8779" y1="818.7656" y2="818.7656"/><line style="stroke:#E7E7E7;stroke-width:0.5;" x1="582" x2="979.8779" y1="826.7656" y2="826.7656"/><ellipse cx="592" cy="840.4141" fill="#84BE84" rx="3" ry="3" style="stroke:#038048;stroke-width:1;"/><text fill="#FFFFFF" font-family="sans-serif" font-size="14" lengthAdjust="spacing" textLength="323.8867" x="601" y="843.7607">addedMember(event: AddedMemberToGroup)</text><ellipse cx="592" cy="856.7109" fill="#84BE84" rx="3" ry="3" style="stroke:#038048;stroke-width:1;"/><text fill="#FFFFFF" font-family="sans-serif" font-size="14" lengthAdjust="spacing" textLength="373.8779" x="601" y="860.0576">removeMember(event: RemovedMemberFromGroup)</text><ellipse cx="592" cy="873.0078" fill="#84BE84" rx="3" ry="3" style="stroke:#038048;stroke-width:1;"/><text fill="#FFFFFF" font-family="sans-serif" font-size="14" lengthAdjust="spacing" textLength="271.8037" x="601" y="876.3545">groupsOf(userId: UserId): Set[GroupId]</text><ellipse cx="592" cy="889.3047" fill="#84BE84" rx="3" ry="3" style="stroke:#038048;stroke-width:1;"/><text fill="#FFFFFF" font-family="sans-serif" font-size="14" lengthAdjust="spacing" textLength="300.4121" x="601" y="892.6514">membersOf(groupId: GroupId): Set[UserId]</text></g><!--class UserGroupsServiceImpl--><g class="entity" data-entity="UserGroupsServiceImpl" data-source-line="217" data-uid="ent0010" id="entity_UserGroupsServiceImpl"><rect fill="#313139" height="48" rx="2.5" ry="2.5" style="stroke:#E7E7E7;stroke-width:0.5;" width="196.418" x="536" y="1068.5"/><ellipse cx="551" cy="1084.5" fill="#2E5233" rx="11" ry="11" style="stroke:#E7E7E7;stroke-width:1;"/><path d="M553.9688,1090.1406 Q553.3906,1090.4375 552.75,1090.5781 Q552.1094,1090.7344 551.4063,1090.7344 Q548.9063,1090.7344 547.5781,1089.0938 Q546.2656,1087.4375 546.2656,1084.3125 Q546.2656,1081.1875 547.5781,1079.5313 Q548.9063,1077.875 551.4063,1077.875 Q552.1094,1077.875 552.75,1078.0313 Q553.4063,1078.1875 553.9688,1078.4844 L553.9688,1081.2031 Q553.3438,1080.625 552.75,1080.3594 Q552.1563,1080.0781 551.5313,1080.0781 Q550.1875,1080.0781 549.5,1081.1563 Q548.8125,1082.2188 548.8125,1084.3125 Q548.8125,1086.4063 549.5,1087.4844 Q550.1875,1088.5469 551.5313,1088.5469 Q552.1563,1088.5469 552.75,1088.2813 Q553.3438,1088 553.9688,1087.4219 L553.9688,1090.1406 Z " fill="#FFFFFF"/><text fill="#FFFFFF" font-family="sans-serif" font-size="14" lengthAdjust="spacing" textLength="164.418" x="565" y="1089.3467">UserGroupsServiceImpl</text><line style="stroke:#E7E7E7;stroke-width:0.5;" x1="537" x2="731.418" y1="1100.5" y2="1100.5"/><line style="stroke:#E7E7E7;stroke-width:0.5;" x1="537" x2="731.418" y1="1108.5" y2="1108.5"/></g><!--class NotificationService--><g class="entity" data-entity="NotificationService" data-source-line="222" data-uid="ent0014" id="entity_NotificationService"><rect fill="#313139" height="306.3906" rx="2.5" ry="2.5" style="stroke:#E7E7E7;stroke-width:0.5;" width="293.251" x="162.5" y="686"/><ellipse cx="238.8403" cy="713.1172" fill="#352866" rx="11" ry="11" style="stroke:#E7E7E7;stroke-width:1;"/><path d="M234.7622,708.8828 L234.7622,706.7266 L242.1528,706.7266 L242.1528,708.8828 L239.6841,708.8828 L239.6841,716.9609 L242.1528,716.9609 L242.1528,719.1172 L234.7622,719.1172 L234.7622,716.9609 L237.231,716.9609 L237.231,708.8828 L234.7622,708.8828 Z " fill="#FFFFFF"/><text fill="#000000" font-family="sans-serif" font-size="12" font-style="italic" lengthAdjust="spacing" textLength="57.7969" x="296.4771" y="702.1387">&#171;service&#187;</text><text fill="#000000" font-family="sans-serif" font-size="12" font-style="italic" lengthAdjust="spacing" textLength="62.877" x="293.937" y="716.1074">&#171;out port&#187;</text><text fill="#FFFFFF" font-family="sans-serif" font-size="14" font-style="italic" lengthAdjust="spacing" textLength="132.0703" x="259.3403" y="731.9326">NotificationService</text><line style="stroke:#E7E7E7;stroke-width:0.5;" x1="163.5" x2="454.751" y1="740.2344" y2="740.2344"/><ellipse cx="173.5" cy="778.3281" fill="#84BE84" rx="3" ry="3" style="stroke:#038048;stroke-width:1;"/><text fill="#FFFFFF" font-family="sans-serif" font-size="14" lengthAdjust="spacing" textLength="130.5186" x="182.5" y="757.2295">sendToOwnGroup(</text><text fill="#FFFFFF" font-family="sans-serif" font-size="14" lengthAdjust="spacing" textLength="97.3232" x="200.3008" y="773.5264">scope: Scope,</text><text fill="#FFFFFF" font-family="sans-serif" font-size="14" lengthAdjust="spacing" textLength="213.7734" x="200.3008" y="789.8232">message: NotificationMessage</text><text fill="#FFFFFF" font-family="sans-serif" font-size="14" lengthAdjust="spacing" textLength="5.4619" x="182.5" y="806.1201">)</text><line style="stroke:#E7E7E7;stroke-width:1;" x1="163.5" x2="454.751" y1="813.4219" y2="813.4219"/><ellipse cx="173.5" cy="859.6641" fill="#84BE84" rx="3" ry="3" style="stroke:#038048;stroke-width:1;"/><text fill="#FFFFFF" font-family="sans-serif" font-size="14" lengthAdjust="spacing" textLength="99.1758" x="182.5" y="830.417">sendToGroup(</text><text fill="#FFFFFF" font-family="sans-serif" font-size="14" lengthAdjust="spacing" textLength="131.2705" x="200.3008" y="846.7139">recipient: GroupId,</text><text fill="#FFFFFF" font-family="sans-serif" font-size="14" lengthAdjust="spacing" textLength="106.5791" x="200.3008" y="863.0107">sender: UserId,</text><text fill="#FFFFFF" font-family="sans-serif" font-size="14" lengthAdjust="spacing" textLength="213.7734" x="200.3008" y="879.3076">message: NotificationMessage</text><text fill="#FFFFFF" font-family="sans-serif" font-size="14" lengthAdjust="spacing" textLength="5.4619" x="182.5" y="895.6045">)</text><line style="stroke:#E7E7E7;stroke-width:1;" x1="163.5" x2="454.751" y1="902.9063" y2="902.9063"/><ellipse cx="173.5" cy="949.1484" fill="#84BE84" rx="3" ry="3" style="stroke:#038048;stroke-width:1;"/><text fill="#FFFFFF" font-family="sans-serif" font-size="14" lengthAdjust="spacing" textLength="267.251" x="182.5" y="919.9014">sendToAllMembersSharingGroupWith(</text><text fill="#FFFFFF" font-family="sans-serif" font-size="14" lengthAdjust="spacing" textLength="89.0791" x="200.3008" y="936.1982">user: UserId,</text><text fill="#FFFFFF" font-family="sans-serif" font-size="14" lengthAdjust="spacing" textLength="106.5791" x="200.3008" y="952.4951">sender: UserId,</text><text fill="#FFFFFF" font-family="sans-serif" font-size="14" lengthAdjust="spacing" textLength="213.7734" x="195.8506" y="968.792">message: NotificationMessage</text><text fill="#FFFFFF" font-family="sans-serif" font-size="14" lengthAdjust="spacing" textLength="5.4619" x="182.5" y="985.0889">)</text></g><!--class NotificationServiceProxy--><g class="entity" data-entity="NotificationServiceProxy" data-source-line="229" data-uid="ent0015" id="entity_NotificationServiceProxy"><rect fill="#313139" height="64.2969" rx="2.5" ry="2.5" style="stroke:#E7E7E7;stroke-width:0.5;" width="373.0674" x="106.5" y="1060.5"/><ellipse cx="203.0815" cy="1076.5" fill="#2A5D60" rx="11" ry="11" style="stroke:#E7E7E7;stroke-width:1;"/><path d="M203.1909,1071.8438 L202.0347,1076.9219 L204.3628,1076.9219 L203.1909,1071.8438 Z M201.7065,1069.6094 L204.6909,1069.6094 L208.0503,1082 L205.5972,1082 L204.8315,1078.9375 L201.5503,1078.9375 L200.8003,1082 L198.3628,1082 L201.7065,1069.6094 Z " fill="#FFFFFF"/><text fill="#FFFFFF" font-family="sans-serif" font-size="14" font-style="italic" lengthAdjust="spacing" textLength="171.4043" x="223.5815" y="1081.3467">NotificationServiceProxy</text><line style="stroke:#E7E7E7;stroke-width:0.5;" x1="107.5" x2="478.5674" y1="1092.5" y2="1092.5"/><line style="stroke:#E7E7E7;stroke-width:0.5;" x1="107.5" x2="478.5674" y1="1100.5" y2="1100.5"/><ellipse cx="117.5" cy="1114.1484" fill="#84BE84" rx="3" ry="3" style="stroke:#038048;stroke-width:1;"/><text fill="#FFFFFF" font-family="sans-serif" font-size="14" lengthAdjust="spacing" textLength="347.0674" x="126.5" y="1117.4951">send(command: PushNotificationCommand): Unit</text></g><!--class UserSessionReader--><g class="entity" data-entity="UserSessionReader" data-source-line="235" data-uid="ent0018" id="entity_UserSessionReader"><rect fill="#313139" height="64.2969" rx="2.5" ry="2.5" style="stroke:#E7E7E7;stroke-width:0.5;" width="317.7988" x="799" y="111.5"/><ellipse cx="885.8984" cy="127.5" fill="#352866" rx="11" ry="11" style="stroke:#E7E7E7;stroke-width:1;"/><path d="M881.8203,123.2656 L881.8203,121.1094 L889.2109,121.1094 L889.2109,123.2656 L886.7422,123.2656 L886.7422,131.3438 L889.2109,131.3438 L889.2109,133.5 L881.8203,133.5 L881.8203,131.3438 L884.2891,131.3438 L884.2891,123.2656 L881.8203,123.2656 Z " fill="#FFFFFF"/><text fill="#FFFFFF" font-family="sans-serif" font-size="14" font-style="italic" lengthAdjust="spacing" textLength="135.502" x="906.3984" y="132.3467">UserSessionReader</text><line style="stroke:#E7E7E7;stroke-width:0.5;" x1="800" x2="1115.7988" y1="143.5" y2="143.5"/><line style="stroke:#E7E7E7;stroke-width:0.5;" x1="800" x2="1115.7988" y1="151.5" y2="151.5"/><ellipse cx="810" cy="165.1484" fill="#84BE84" rx="3" ry="3" style="stroke:#038048;stroke-width:1;"/><text fill="#FFFFFF" font-family="sans-serif" font-size="14" lengthAdjust="spacing" textLength="291.7988" x="819" y="168.4951">sessionOf(scope: Scope): Option[Session]</text></g><!--class UserSessionWriter--><g class="entity" data-entity="UserSessionWriter" data-source-line="238" data-uid="ent0019" id="entity_UserSessionWriter"><rect fill="#313139" height="64.2969" rx="2.5" ry="2.5" style="stroke:#E7E7E7;stroke-width:0.5;" width="308.2217" x="456" y="111.5"/><ellipse cx="541.5244" cy="127.5" fill="#352866" rx="11" ry="11" style="stroke:#E7E7E7;stroke-width:1;"/><path d="M537.4463,123.2656 L537.4463,121.1094 L544.8369,121.1094 L544.8369,123.2656 L542.3682,123.2656 L542.3682,131.3438 L544.8369,131.3438 L544.8369,133.5 L537.4463,133.5 L537.4463,131.3438 L539.915,131.3438 L539.915,123.2656 L537.4463,123.2656 Z " fill="#FFFFFF"/><text fill="#FFFFFF" font-family="sans-serif" font-size="14" font-style="italic" lengthAdjust="spacing" textLength="128.6729" x="562.0244" y="132.3467">UserSessionWriter</text><line style="stroke:#E7E7E7;stroke-width:0.5;" x1="457" x2="763.2217" y1="143.5" y2="143.5"/><line style="stroke:#E7E7E7;stroke-width:0.5;" x1="457" x2="763.2217" y1="151.5" y2="151.5"/><ellipse cx="467" cy="165.1484" fill="#84BE84" rx="3" ry="3" style="stroke:#038048;stroke-width:1;"/><text fill="#FFFFFF" font-family="sans-serif" font-size="14" lengthAdjust="spacing" textLength="282.2217" x="476" y="168.4951">update(session: Session.Snapshot): Unit</text></g><!--class UserSessionStore--><g class="entity" data-entity="UserSessionStore" data-source-line="241" data-uid="ent0020" id="entity_UserSessionStore"><rect fill="#313139" height="70.2344" rx="2.5" ry="2.5" style="stroke:#E7E7E7;stroke-width:0.5;" width="154.6367" x="706.5" y="271.5"/><ellipse cx="721.5" cy="298.6172" fill="#352866" rx="11" ry="11" style="stroke:#E7E7E7;stroke-width:1;"/><path d="M717.4219,294.3828 L717.4219,292.2266 L724.8125,292.2266 L724.8125,294.3828 L722.3438,294.3828 L722.3438,302.4609 L724.8125,302.4609 L724.8125,304.6172 L717.4219,304.6172 L717.4219,302.4609 L719.8906,302.4609 L719.8906,294.3828 L717.4219,294.3828 Z " fill="#FFFFFF"/><text fill="#000000" font-family="sans-serif" font-size="12" font-style="italic" lengthAdjust="spacing" textLength="75.7559" x="758.9404" y="287.6387">&#171;repository&#187;</text><text fill="#000000" font-family="sans-serif" font-size="12" font-style="italic" lengthAdjust="spacing" textLength="62.877" x="765.3799" y="301.6074">&#171;out port&#187;</text><text fill="#FFFFFF" font-family="sans-serif" font-size="14" font-style="italic" lengthAdjust="spacing" textLength="122.6367" x="735.5" y="317.4326">UserSessionStore</text><line style="stroke:#E7E7E7;stroke-width:0.5;" x1="707.5" x2="860.1367" y1="325.7344" y2="325.7344"/><line style="stroke:#E7E7E7;stroke-width:0.5;" x1="707.5" x2="860.1367" y1="333.7344" y2="333.7344"/></g><!--class UsersSessionService--><g class="entity" data-entity="UsersSessionService" data-source-line="243" data-uid="ent0023" id="entity_UsersSessionService"><rect fill="#313139" height="102.8281" rx="2.5" ry="2.5" style="stroke:#E7E7E7;stroke-width:0.5;" width="336.9121" x="1152.5" y="92"/><ellipse cx="1244.5254" cy="119.1172" fill="#352866" rx="11" ry="11" style="stroke:#E7E7E7;stroke-width:1;"/><path d="M1240.4473,114.8828 L1240.4473,112.7266 L1247.8379,112.7266 L1247.8379,114.8828 L1245.3691,114.8828 L1245.3691,122.9609 L1247.8379,122.9609 L1247.8379,125.1172 L1240.4473,125.1172 L1240.4473,122.9609 L1242.916,122.9609 L1242.916,114.8828 L1240.4473,114.8828 Z " fill="#FFFFFF"/><text fill="#000000" font-family="sans-serif" font-size="12" font-style="italic" lengthAdjust="spacing" textLength="57.7969" x="1308.3076" y="108.1387">&#171;service&#187;</text><text fill="#000000" font-family="sans-serif" font-size="12" font-style="italic" lengthAdjust="spacing" textLength="54.1641" x="1310.124" y="122.1074">&#171;in port&#187;</text><text fill="#FFFFFF" font-family="sans-serif" font-size="14" font-style="italic" lengthAdjust="spacing" textLength="144.3613" x="1265.0254" y="137.9326">UsersSessionService</text><line style="stroke:#E7E7E7;stroke-width:0.5;" x1="1153.5" x2="1488.4121" y1="146.2344" y2="146.2344"/><line style="stroke:#E7E7E7;stroke-width:0.5;" x1="1153.5" x2="1488.4121" y1="154.2344" y2="154.2344"/><ellipse cx="1163.5" cy="167.8828" fill="#84BE84" rx="3" ry="3" style="stroke:#038048;stroke-width:1;"/><text fill="#FFFFFF" font-family="sans-serif" font-size="14" lengthAdjust="spacing" textLength="280.1709" x="1172.5" y="171.2295">ofScope(scope: Scope): Option[Session]</text><ellipse cx="1163.5" cy="184.1797" fill="#84BE84" rx="3" ry="3" style="stroke:#038048;stroke-width:1;"/><text fill="#FFFFFF" font-family="sans-serif" font-size="14" lengthAdjust="spacing" textLength="310.9121" x="1172.5" y="187.5264">ofGroup(groupId: GroupId): Stream[Session]</text></g><!--class UsersSessionServiceImpl--><g class="entity" data-entity="UsersSessionServiceImpl" data-source-line="248" data-uid="ent0024" id="entity_UsersSessionServiceImpl"><rect fill="#313139" height="48" rx="2.5" ry="2.5" style="stroke:#E7E7E7;stroke-width:0.5;" width="206.9043" x="896.5" y="282.5"/><ellipse cx="911.5" cy="298.5" fill="#2E5233" rx="11" ry="11" style="stroke:#E7E7E7;stroke-width:1;"/><path d="M914.4688,304.1406 Q913.8906,304.4375 913.25,304.5781 Q912.6094,304.7344 911.9063,304.7344 Q909.4063,304.7344 908.0781,303.0938 Q906.7656,301.4375 906.7656,298.3125 Q906.7656,295.1875 908.0781,293.5313 Q909.4063,291.875 911.9063,291.875 Q912.6094,291.875 913.25,292.0313 Q913.9063,292.1875 914.4688,292.4844 L914.4688,295.2031 Q913.8438,294.625 913.25,294.3594 Q912.6563,294.0781 912.0313,294.0781 Q910.6875,294.0781 910,295.1563 Q909.3125,296.2188 909.3125,298.3125 Q909.3125,300.4063 910,301.4844 Q910.6875,302.5469 912.0313,302.5469 Q912.6563,302.5469 913.25,302.2813 Q913.8438,302 914.4688,301.4219 L914.4688,304.1406 Z " fill="#FFFFFF"/><text fill="#FFFFFF" font-family="sans-serif" font-size="14" lengthAdjust="spacing" textLength="174.9043" x="925.5" y="303.3467">UsersSessionServiceImpl</text><line style="stroke:#E7E7E7;stroke-width:0.5;" x1="897.5" x2="1102.4043" y1="314.5" y2="314.5"/><line style="stroke:#E7E7E7;stroke-width:0.5;" x1="897.5" x2="1102.4043" y1="322.5" y2="322.5"/></g><!--class MapsService--><g class="entity" data-entity="MapsService" data-source-line="254" data-uid="ent0030" id="entity_MapsService"><rect fill="#313139" height="200.6094" rx="2.5" ry="2.5" style="stroke:#E7E7E7;stroke-width:0.5;" width="243.0273" x="46.5" y="410"/><ellipse cx="119.4736" cy="437.1172" fill="#352866" rx="11" ry="11" style="stroke:#E7E7E7;stroke-width:1;"/><path d="M115.3955,432.8828 L115.3955,430.7266 L122.7861,430.7266 L122.7861,432.8828 L120.3174,432.8828 L120.3174,440.9609 L122.7861,440.9609 L122.7861,443.1172 L115.3955,443.1172 L115.3955,440.9609 L117.8643,440.9609 L117.8643,432.8828 L115.3955,432.8828 Z " fill="#FFFFFF"/><text fill="#000000" font-family="sans-serif" font-size="12" font-style="italic" lengthAdjust="spacing" textLength="57.7969" x="155.3652" y="426.1387">&#171;service&#187;</text><text fill="#000000" font-family="sans-serif" font-size="12" font-style="italic" lengthAdjust="spacing" textLength="62.877" x="152.8252" y="440.1074">&#171;out port&#187;</text><text fill="#FFFFFF" font-family="sans-serif" font-size="14" font-style="italic" lengthAdjust="spacing" textLength="88.5801" x="139.9736" y="455.9326">MapsService</text><line style="stroke:#E7E7E7;stroke-width:0.5;" x1="47.5" x2="288.5273" y1="464.2344" y2="464.2344"/><ellipse cx="57.5" cy="502.3281" fill="#84BE84" rx="3" ry="3" style="stroke:#038048;stroke-width:1;"/><text fill="#FFFFFF" font-family="sans-serif" font-size="14" lengthAdjust="spacing" textLength="216.6172" x="66.5" y="481.2295">duration(mode: RoutingMode)(</text><text fill="#FFFFFF" font-family="sans-serif" font-size="14" lengthAdjust="spacing" textLength="141.1143" x="84.3008" y="497.5264">origin: GPSLocation,</text><text fill="#FFFFFF" font-family="sans-serif" font-size="14" lengthAdjust="spacing" textLength="175.2461" x="84.3008" y="513.8232">destination: GPSLocation</text><text fill="#FFFFFF" font-family="sans-serif" font-size="14" lengthAdjust="spacing" textLength="114.2422" x="66.5" y="530.1201">): FiniteDuration</text><line style="stroke:#E7E7E7;stroke-width:1;" x1="47.5" x2="288.5273" y1="537.4219" y2="537.4219"/><ellipse cx="57.5" cy="575.5156" fill="#84BE84" rx="3" ry="3" style="stroke:#038048;stroke-width:1;"/><text fill="#FFFFFF" font-family="sans-serif" font-size="14" lengthAdjust="spacing" textLength="217.0273" x="66.5" y="554.417">distance(mode: RoutingMode)(</text><text fill="#FFFFFF" font-family="sans-serif" font-size="14" lengthAdjust="spacing" textLength="141.1143" x="84.3008" y="570.7139">origin: GPSLocation,</text><text fill="#FFFFFF" font-family="sans-serif" font-size="14" lengthAdjust="spacing" textLength="175.2461" x="84.3008" y="587.0107">destination: GPSLocation</text><text fill="#FFFFFF" font-family="sans-serif" font-size="14" lengthAdjust="spacing" textLength="75.8447" x="66.5" y="603.3076">): Distance</text></g><!--class OutcomeObserver--><g class="entity" data-entity="OutcomeObserver" data-source-line="260" data-uid="ent0031" id="entity_OutcomeObserver"><rect fill="#313139" height="86.5313" rx="2.5" ry="2.5" style="stroke:#E7E7E7;stroke-width:0.5;" width="160.1191" x="49" y="263"/><ellipse cx="64" cy="290.1172" fill="#352866" rx="11" ry="11" style="stroke:#E7E7E7;stroke-width:1;"/><path d="M59.9219,285.8828 L59.9219,283.7266 L67.3125,283.7266 L67.3125,285.8828 L64.8438,285.8828 L64.8438,293.9609 L67.3125,293.9609 L67.3125,296.1172 L59.9219,296.1172 L59.9219,293.9609 L62.3906,293.9609 L62.3906,285.8828 L59.9219,285.8828 Z " fill="#FFFFFF"/><text fill="#000000" font-family="sans-serif" font-size="12" font-style="italic" lengthAdjust="spacing" textLength="57.7969" x="113.1611" y="279.1387">&#171;service&#187;</text><text fill="#000000" font-family="sans-serif" font-size="12" font-style="italic" lengthAdjust="spacing" textLength="62.877" x="110.6211" y="293.1074">&#171;out port&#187;</text><text fill="#FFFFFF" font-family="sans-serif" font-size="14" font-style="italic" lengthAdjust="spacing" textLength="128.1191" x="78" y="308.9326">OutcomeObserver</text><line style="stroke:#E7E7E7;stroke-width:0.5;" x1="50" x2="208.1191" y1="317.2344" y2="317.2344"/><ellipse cx="60" cy="330.8828" fill="none" rx="3" ry="3" style="stroke:#038048;stroke-width:1;"/><text fill="#FFFFFF" font-family="sans-serif" font-size="14" lengthAdjust="spacing" textLength="99.6201" x="69" y="334.2295">type Outcome</text><line style="stroke:#E7E7E7;stroke-width:0.5;" x1="50" x2="208.1191" y1="341.5313" y2="341.5313"/></g><!--class RealTimeTracking--><g class="entity" data-entity="RealTimeTracking" data-source-line="264" data-uid="ent0032" id="entity_RealTimeTracking"><rect fill="#313139" height="119.125" rx="2.5" ry="2.5" style="stroke:#E7E7E7;stroke-width:0.5;" width="353.6738" x="46" y="84"/><ellipse cx="155.6655" cy="111.1172" fill="#352866" rx="11" ry="11" style="stroke:#E7E7E7;stroke-width:1;"/><path d="M151.5874,106.8828 L151.5874,104.7266 L158.978,104.7266 L158.978,106.8828 L156.5093,106.8828 L156.5093,114.9609 L158.978,114.9609 L158.978,117.1172 L151.5874,117.1172 L151.5874,114.9609 L154.0562,114.9609 L154.0562,106.8828 L151.5874,106.8828 Z " fill="#FFFFFF"/><text fill="#000000" font-family="sans-serif" font-size="12" font-style="italic" lengthAdjust="spacing" textLength="57.7969" x="210.1885" y="100.1387">&#171;service&#187;</text><text fill="#000000" font-family="sans-serif" font-size="12" font-style="italic" lengthAdjust="spacing" textLength="54.1641" x="212.0049" y="114.1074">&#171;in port&#187;</text><text fill="#FFFFFF" font-family="sans-serif" font-size="14" font-style="italic" lengthAdjust="spacing" textLength="125.8428" x="176.1655" y="129.9326">RealTimeTracking</text><line style="stroke:#E7E7E7;stroke-width:0.5;" x1="47" x2="398.6738" y1="138.2344" y2="138.2344"/><line style="stroke:#E7E7E7;stroke-width:0.5;" x1="47" x2="398.6738" y1="146.2344" y2="146.2344"/><ellipse cx="57" cy="159.8828" fill="#84BE84" rx="3" ry="3" style="stroke:#038048;stroke-width:1;"/><text fill="#FFFFFF" font-family="sans-serif" font-size="14" lengthAdjust="spacing" textLength="238.6768" x="66" y="163.2295">handle(event: ClientDrivingEvent)</text><ellipse cx="57" cy="176.1797" fill="#84BE84" rx="3" ry="3" style="stroke:#038048;stroke-width:1;"/><text fill="#FFFFFF" font-family="sans-serif" font-size="14" lengthAdjust="spacing" textLength="300.5557" x="66" y="179.5264">addObserver(observer: OutcomeObserver)</text><ellipse cx="57" cy="192.4766" fill="#84BE84" rx="3" ry="3" style="stroke:#038048;stroke-width:1;"/><text fill="#FFFFFF" font-family="sans-serif" font-size="14" lengthAdjust="spacing" textLength="327.6738" x="66" y="195.8232">removeObserver(observer: OutcomeObserver)</text></g><!--class RealTimeTracker--><g class="entity" data-entity="RealTimeTracker" data-source-line="271" data-uid="ent0034" id="entity_RealTimeTracker"><rect fill="#313139" height="48" rx="2.5" ry="2.5" style="stroke:#E7E7E7;stroke-width:0.5;" width="150.5625" x="244.5" y="282.5"/><ellipse cx="259.5" cy="298.5" fill="#2A5D60" rx="11" ry="11" style="stroke:#E7E7E7;stroke-width:1;"/><path d="M259.6094,293.8438 L258.4531,298.9219 L260.7813,298.9219 L259.6094,293.8438 Z M258.125,291.6094 L261.1094,291.6094 L264.4688,304 L262.0156,304 L261.25,300.9375 L257.9688,300.9375 L257.2188,304 L254.7813,304 L258.125,291.6094 Z " fill="#FFFFFF"/><text fill="#FFFFFF" font-family="sans-serif" font-size="14" font-style="italic" lengthAdjust="spacing" textLength="118.5625" x="273.5" y="303.3467">RealTimeTracker</text><line style="stroke:#E7E7E7;stroke-width:0.5;" x1="245.5" x2="394.0625" y1="314.5" y2="314.5"/><line style="stroke:#E7E7E7;stroke-width:0.5;" x1="245.5" x2="394.0625" y1="322.5" y2="322.5"/></g><!--reverse link UserGroupsReader to UserGroupsStore--><g class="link" data-entity-1="UserGroupsReader" data-entity-2="UserGroupsStore" data-source-line="209" data-uid="lnk7" id="link_UserGroupsReader_UserGroupsStore"><path d="M1203.8522,1138.9895 C1142.1822,1160.7095 1084.31,1181.1 1029.6,1200.37" fill="none" id="UserGroupsReader-backto-UserGroupsStore" style="stroke:#E7E7E7;stroke-width:1;"/><polygon fill="none" points="1220.83,1133.01,1201.859,1133.3303,1205.8454,1144.6488,1220.83,1133.01" style="stroke:#E7E7E7;stroke-width:1;"/></g><!--reverse link UserGroupsWriter to UserGroupsStore--><g class="link" data-entity-1="UserGroupsWriter" data-entity-2="UserGroupsStore" data-source-line="209" data-uid="lnk8" id="link_UserGroupsWriter_UserGroupsStore"><path d="M954,1151.19 C954,1170.1 954,1174.49 954,1192.66" fill="none" id="UserGroupsWriter-backto-UserGroupsStore" style="stroke:#E7E7E7;stroke-width:1;"/><polygon fill="none" points="954,1133.19,948,1151.19,960,1151.19,954,1133.19" style="stroke:#E7E7E7;stroke-width:1;"/></g><!--reverse link UserGroupsService to UserGroupsServiceImpl--><g class="link" data-entity-1="UserGroupsService" data-entity-2="UserGroupsServiceImpl" data-source-line="217" data-uid="lnk11" id="link_UserGroupsService_UserGroupsServiceImpl"><path d="M737.0782,915.1409 C705.4982,969.1809 669.68,1030.45 647.49,1068.42" fill="none" id="UserGroupsService-backto-UserGroupsServiceImpl" style="stroke:#E7E7E7;stroke-width:1;stroke-dasharray:7.0,7.0;"/><polygon fill="none" points="746.16,899.6,731.8979,912.1136,742.2585,918.1682,746.16,899.6" style="stroke:#E7E7E7;stroke-width:1;"/></g><!--link UserGroupsServiceImpl to UserGroupsStore--><g class="link" data-entity-1="UserGroupsServiceImpl" data-entity-2="UserGroupsStore" data-source-line="218" data-uid="lnk12" id="link_UserGroupsServiceImpl_UserGroupsStore"><path codeLine="218" d="M691.284,1121.7424 C712.344,1131.9224 726.85,1138.58 750,1148.5 C792.03,1166.52 834.0708,1182.8664 872.7508,1197.3464" fill="none" id="UserGroupsServiceImpl-UserGroupsStore" style="stroke:#E7E7E7;stroke-width:1;"/><polygon fill="#E7E7E7" points="680.48,1116.52,684.1412,1122.7325,691.284,1121.7424,687.6228,1115.5299,680.48,1116.52" style="stroke:#E7E7E7;stroke-width:1;"/><polygon fill="#E7E7E7" points="878.37,1199.45,871.3436,1192.5486,873.6874,1197.697,868.5389,1200.0408,878.37,1199.45" style="stroke:#E7E7E7;stroke-width:1;"/></g><!--reverse link NotificationService to NotificationServiceProxy--><g class="link" data-entity-1="NotificationService" data-entity-2="NotificationServiceProxy" data-source-line="230" data-uid="lnk16" id="link_NotificationService_NotificationServiceProxy"><path d="M298.1808,1010.0639 C296.5408,1035.9239 296.13,1042.27 294.98,1060.37" fill="none" id="NotificationService-backto-NotificationServiceProxy" style="stroke:#E7E7E7;stroke-width:1;stroke-dasharray:7.0,7.0;"/><polygon fill="none" points="299.32,992.1,292.1928,1009.6842,304.1687,1010.4437,299.32,992.1" style="stroke:#E7E7E7;stroke-width:1;"/></g><!--reverse link UserSessionReader to UserSessionStore--><g class="link" data-entity-1="UserSessionReader" data-entity-2="UserSessionStore" data-source-line="241" data-uid="lnk21" id="link_UserSessionReader_UserSessionStore"><path d="M911.2404,187.7673 C881.5204,215.2773 851.41,243.13 820.75,271.49" fill="none" id="UserSessionReader-backto-UserSessionStore" style="stroke:#E7E7E7;stroke-width:1;"/><polygon fill="none" points="924.45,175.54,907.1647,183.3641,915.3162,192.1705,924.45,175.54" style="stroke:#E7E7E7;stroke-width:1;"/></g><!--reverse link UserSessionWriter to UserSessionStore--><g class="link" data-entity-1="UserSessionWriter" data-entity-2="UserSessionStore" data-source-line="241" data-uid="lnk22" id="link_UserSessionWriter_UserSessionStore"><path d="M656.7596,187.7673 C686.4796,215.2773 716.59,243.13 747.25,271.49" fill="none" id="UserSessionWriter-backto-UserSessionStore" style="stroke:#E7E7E7;stroke-width:1;"/><polygon fill="none" points="643.55,175.54,652.6838,192.1705,660.8353,183.3641,643.55,175.54" style="stroke:#E7E7E7;stroke-width:1;"/></g><!--reverse link UsersSessionService to UsersSessionServiceImpl--><g class="link" data-entity-1="UsersSessionService" data-entity-2="UsersSessionServiceImpl" data-source-line="248" data-uid="lnk25" id="link_UsersSessionService_UsersSessionServiceImpl"><path d="M1203.7808,203.2908 C1145.5308,232.5108 1091.21,259.75 1046.04,282.41" fill="none" id="UsersSessionService-backto-UsersSessionServiceImpl" style="stroke:#E7E7E7;stroke-width:1;stroke-dasharray:7.0,7.0;"/><polygon fill="none" points="1219.87,195.22,1201.0905,197.9278,1206.4711,208.6539,1219.87,195.22" style="stroke:#E7E7E7;stroke-width:1;"/></g><!--link UserSessionStore to UsersSessionServiceImpl--><g class="link" data-entity-1="UserSessionStore" data-entity-2="UsersSessionServiceImpl" data-source-line="249" data-uid="lnk27" id="link_UserSessionStore_UsersSessionServiceImpl"><path codeLine="249" d="M867.62,306.5 C879.25,306.5 872.87,306.5 884.49,306.5" fill="none" id="UserSessionStore-UsersSessionServiceImpl" style="stroke:#E7E7E7;stroke-width:1;"/><polygon fill="#E7E7E7" points="861.62,306.5,870.62,310.5,866.62,306.5,870.62,302.5,861.62,306.5" style="stroke:#E7E7E7;stroke-width:1;"/><polygon fill="#E7E7E7" points="896.49,306.5,890.49,302.5,884.49,306.5,890.49,310.5,896.49,306.5" style="stroke:#E7E7E7;stroke-width:1;"/></g><!--link UsersSessionServiceImpl to UserGroupsService--><g class="link" data-entity-1="UsersSessionServiceImpl" data-entity-2="UserGroupsService" data-source-line="250" data-uid="lnk28" id="link_UsersSessionServiceImpl_UserGroupsService"><path codeLine="250" d="M985.8702,341.7317 C953.8002,419.4017 856.1792,655.8839 808.0192,772.5639" fill="none" id="UsersSessionServiceImpl-UserGroupsService" style="stroke:#E7E7E7;stroke-width:1;"/><polygon fill="#E7E7E7" points="990.45,330.64,984.4629,334.6593,985.8702,341.7317,991.8573,337.7124,990.45,330.64" style="stroke:#E7E7E7;stroke-width:1;"/><polygon fill="#E7E7E7" points="805.73,778.11,812.8612,771.3169,807.6377,773.4882,805.4664,768.2647,805.73,778.11" style="stroke:#E7E7E7;stroke-width:1;"/></g><!--link RealTimeTracking to OutcomeObserver--><g class="link" data-entity-1="RealTimeTracking" data-entity-2="OutcomeObserver" data-source-line="269" data-uid="lnk33" id="link_RealTimeTracking_OutcomeObserver"><path codeLine="269" d="M182.749,213.4427 C171.199,233.2227 167.6031,239.3672 156.9231,257.6772" fill="none" id="RealTimeTracking-OutcomeObserver" style="stroke:#E7E7E7;stroke-width:1;"/><polygon fill="#E7E7E7" points="188.8,203.08,182.3203,206.2443,182.749,213.4427,189.2287,210.2783,188.8,203.08" style="stroke:#E7E7E7;stroke-width:1;"/><polygon fill="#E7E7E7" points="153.9,262.86,161.8898,257.1012,156.4192,258.541,154.9794,253.0705,153.9,262.86" style="stroke:#E7E7E7;stroke-width:1;"/></g><!--reverse link RealTimeTracking to RealTimeTracker--><g class="link" data-entity-1="RealTimeTracking" data-entity-2="RealTimeTracker" data-source-line="271" data-uid="lnk35" id="link_RealTimeTracking_RealTimeTracker"><path d="M267.5814,218.4965 C284.1614,246.0065 293.67,261.8 306.12,282.46" fill="none" id="RealTimeTracking-backto-RealTimeTracker" style="stroke:#E7E7E7;stroke-width:1;stroke-dasharray:7.0,7.0;"/><polygon fill="none" points="258.29,203.08,262.4425,221.5937,272.7202,215.3994,258.29,203.08" style="stroke:#E7E7E7;stroke-width:1;"/></g><!--link RealTimeTracker to MapsService--><g class="link" data-entity-1="RealTimeTracker" data-entity-2="MapsService" data-source-line="272" data-uid="lnk36" id="link_RealTimeTracker_MapsService"><path codeLine="272" d="M295.3468,340.2601 C280.5368,359.9501 269.0078,375.2658 246.7478,404.8458" fill="none" id="RealTimeTracker-MapsService" style="stroke:#E7E7E7;stroke-width:1;"/><polygon fill="#E7E7E7" points="302.56,330.67,295.7567,333.0606,295.3468,340.2601,302.1501,337.8694,302.56,330.67" style="stroke:#E7E7E7;stroke-width:1;"/><polygon fill="#E7E7E7" points="243.14,409.64,251.7478,404.8539,246.1465,405.6449,245.3556,400.0436,243.14,409.64" style="stroke:#E7E7E7;stroke-width:1;"/></g><!--link RealTimeTracker to NotificationService--><g class="link" data-entity-1="RealTimeTracker" data-entity-2="NotificationService" data-source-line="273" data-uid="lnk37" id="link_RealTimeTracker_NotificationService"><path codeLine="273" d="M319.2712,342.6374 C318.0112,403.4074 314.8941,553.5913 312.2841,679.7813" fill="none" id="RealTimeTracker-NotificationService" style="stroke:#E7E7E7;stroke-width:1;"/><polygon fill="#E7E7E7" points="319.52,330.64,315.3965,336.5558,319.2712,342.6374,323.3948,336.7216,319.52,330.64" style="stroke:#E7E7E7;stroke-width:1;"/><polygon fill="#E7E7E7" points="312.16,685.78,316.3453,676.8646,312.2634,680.7811,308.347,676.6992,312.16,685.78" style="stroke:#E7E7E7;stroke-width:1;"/></g><!--SRC=[hLR1JkCm4BttAtmCRBiV424a10kgjDqYMiG1EBZ9jBL8RCjskg0L_xuJnscTn0cjH0-GEFFynZDlNY9fyaOtGAYK6KkeOOAJVwCHmPzqZpPA55BZAd4_nWseDKs0F6fGT_Rn0z0Kb1TK_duux7mT5HWPs_XfUXQJ1PXd2vochor83laAL8cnu9YuE8UgjZY0FWVJUbBC1DAYQJgpD6yLoJJTqun9OHdsoRQW2dAnWmfz0dWupOKH2iZ5XG8fDCERZyjBl1M58L8eWpVmRe2dkbFnSVUmes4gK3kMb6IwkiBD0-K1Lw08Ti1DJAuEIqjXTneiZ4Czs3M7krKY3o8R8l6ATufCl2PyAPGaerftIpBDPKOO_e4Samy4x3S8GyydayjsJqSLSsEUk31ixMOjF5P_l8XGlnhAQ3TFeqwMOlwNspIY5rukwqH8mBgK_yRLKWvQOpfnWsrMBRxmPeycao29pw0WOPBPhjV3uAWnz33xtqT-bMMLhlHYInNZ6qlxnCpMPUHRpa0knwPoq0zTQQDeOfoG0jswL-BzmzTIgAEXnaM9o7FAKSptXTxwgElg0OhxaJFJoggbC8tPzughFFkY2kWnRGV7qV9bWynpMMRoxD1VUx0Bx37XGgRKGEJOog6r5pyNd4gz5IPyr5wMqpoqKO5nDzi-4zKrMt0i6U-RIh6sHJoseZMech2Gmna5D0-r8c1phQH3HjSAQLXT27u-oM1jdE7v7JW2sV99Zx6butBAtd2oWpgUqV3BRD0SqqBPQOfoaM8R7Z0Kzv_XpPbp3Q7OXg4Qx-uNlqKrUiuyKj0OR5SQZz4aOdBBKAfmuxOVzg-KQKDv0j-Un8tREAI6G-7cXK6NWVcgh1dEvT75CnzoZnwcmB7AbYo7PTt0OyTaYnQNGVtvS9sLBvGRnNQunwzoxQpxfLAV8nBk8cwVCFobSWhkO3sTazctVWiuwdjLDD1OUcy8Enk7AH5a6Jtr3mLYPE3LKy_Qvty0]--></g></svg>