<svg xmlns="http://www.w3.org/2000/svg" xmlns:xlink="http://www.w3.org/1999/xlink" contentStyleType="text/css" height="695px" preserveAspectRatio="none" style="width:661px;height:695px;background:#1B1B1B;" version="1.1" viewBox="0 0 661 695" width="661px" zoomAndPan="magnify"><defs/><g><rect fill="#1B1B1B" height="695" style="stroke:none;stroke-width:1.0;" width="661" x="0" y="0"/><ellipse cx="112.78" cy="515" fill="#222222" rx="10" ry="10" style="stroke:#222222;stroke-width:1.0;"/><g id="ActiveMode"><rect fill="#313139" height="64.2344" rx="12.5" ry="12.5" style="stroke:#E7E7E7;stroke-width:0.5;" width="160.3027" x="157.78" y="483"/><line style="stroke:#E7E7E7;stroke-width:0.5;" x1="157.78" x2="318.0827" y1="509.2969" y2="509.2969"/><text fill="#FFFFFF" font-family="sans-serif" font-size="14" lengthAdjust="spacing" textLength="81.6963" x="197.0832" y="500.9951">ActiveMode</text><text fill="#FFFFFF" font-family="sans-serif" font-size="12" lengthAdjust="spacing" textLength="140.3027" x="162.78" y="525.4355">entry / create snapshot</text><text fill="#FFFFFF" font-family="sans-serif" font-size="12" lengthAdjust="spacing" textLength="139.0605" x="162.78" y="539.4043">entry / state &lt;- ACTIVE</text></g><g id="RoutingMode"><rect fill="#313139" height="50.2656" rx="12.5" ry="12.5" style="stroke:#E7E7E7;stroke-width:0.5;" width="171.5234" x="66.78" y="248"/><line style="stroke:#E7E7E7;stroke-width:0.5;" x1="66.78" x2="238.3034" y1="274.2969" y2="274.2969"/><text fill="#FFFFFF" font-family="sans-serif" font-size="14" lengthAdjust="spacing" textLength="92.4492" x="106.3171" y="265.9951">RoutingMode</text><text fill="#FFFFFF" font-family="sans-serif" font-size="12" lengthAdjust="spacing" textLength="151.5234" x="71.78" y="290.4355">entry / state &lt;- ROUTING</text></g><g id="SOSMode"><rect fill="#313139" height="50.2656" rx="12.5" ry="12.5" style="stroke:#E7E7E7;stroke-width:0.5;" width="140.4922" x="167.78" y="639"/><line style="stroke:#E7E7E7;stroke-width:0.5;" x1="167.78" x2="308.2722" y1="665.2969" y2="665.2969"/><text fill="#FFFFFF" font-family="sans-serif" font-size="14" lengthAdjust="spacing" textLength="66.9375" x="204.5573" y="656.9951">SOSMode</text><text fill="#FFFFFF" font-family="sans-serif" font-size="12" lengthAdjust="spacing" textLength="120.4922" x="172.78" y="681.4355">entry / state &lt;- SOS</text></g><g id="RoutingCheckingMode"><rect fill="#313139" height="64.2344" rx="12.5" ry="12.5" style="stroke:#E7E7E7;stroke-width:0.5;" width="211.584" x="33.78" y="7"/><line style="stroke:#E7E7E7;stroke-width:0.5;" x1="33.78" x2="245.364" y1="33.2969" y2="33.2969"/><text fill="#FFFFFF" font-family="sans-serif" font-size="14" lengthAdjust="spacing" textLength="157.165" x="60.9895" y="24.9951">RoutingCheckingMode</text><text fill="#FFFFFF" font-family="sans-serif" font-size="12" lengthAdjust="spacing" textLength="191.584" x="38.78" y="49.4355">entry / append position to route</text><text fill="#FFFFFF" font-family="sans-serif" font-size="12" lengthAdjust="spacing" textLength="119.9531" x="38.78" y="63.4043">do / perform checks</text></g><g id="elem_c"><polygon fill="#313139" points="251.78,132,263.78,144,251.78,156,239.78,144,251.78,132" style="stroke:#E7E7E7;stroke-width:0.5;"/></g><!--link *start* to ActiveMode--><g id="link_*start*_ActiveMode"><path d="M123.03,515 C134.53,515 140.04,515 151.54,515 " fill="none" id="*start*-to-ActiveMode" style="stroke:#E7E7E7;stroke-width:1.0;"/><polygon fill="#E7E7E7" points="157.54,515,148.54,511,152.54,515,148.54,519,157.54,515" style="stroke:#E7E7E7;stroke-width:1.0;"/></g><!--link ActiveMode to ActiveMode--><g id="link_ActiveMode_ActiveMode"><path d="M317.85,503.53 C337.84,504.34 352.78,508.16 352.78,515 C352.78,521.84 343.8351,525.4171 323.8451,526.2271 " fill="none" id="ActiveMode-to-ActiveMode" style="stroke:#E7E7E7;stroke-width:1.0;"/><polygon fill="#E7E7E7" points="317.85,526.47,327.0046,530.1023,322.8459,526.2676,326.6807,522.1089,317.85,526.47" style="stroke:#E7E7E7;stroke-width:1.0;"/><text fill="#FFFFFF" font-family="monospace" font-size="13" lengthAdjust="spacing" textLength="180.0132" x="358.78" y="519.5669">TrackingEvent(position)</text><text fill="#FFFFFF" font-family="sans-serif" font-size="13" lengthAdjust="spacing" textLength="38.9429" x="542.9255" y="519.5669">/ save</text><text fill="#FFFFFF" font-family="monospace" font-size="13" lengthAdjust="spacing" textLength="62.6133" x="586.0007" y="519.5669">position</text></g><!--reverse link RoutingMode to ActiveMode--><g id="link_RoutingMode_ActiveMode"><path d="M105.1908,301.2656 C60.6308,329.6756 6,375.72 35.78,422 C50.16,444.36 107.74,469.35 157.76,487.63 " fill="none" id="RoutingMode-backto-ActiveMode" style="stroke:#E7E7E7;stroke-width:1.0;"/><polygon fill="#E7E7E7" points="110.25,298.04,100.5108,299.5056,106.034,300.728,104.8116,306.2512,110.25,298.04" style="stroke:#E7E7E7;stroke-width:1.0;"/><text fill="#FFFFFF" font-family="monospace" font-size="13" lengthAdjust="spacing" textLength="133.0532" x="47.0949" y="403.0669">StartRoutingEvent</text><text fill="#FFFFFF" font-family="sans-serif" font-size="13" lengthAdjust="spacing" textLength="4.1323" x="180.1482" y="403.0669">&#160;</text><text fill="#FFFFFF" font-family="sans-serif" font-size="13" lengthAdjust="spacing" textLength="153.6831" x="40.9123" y="418.1997">/ notify group members</text></g><!--link RoutingMode to ActiveMode--><g id="link_RoutingMode_ActiveMode"><path d="M162.99,298.25 C172.67,321.58 187.4,357.95 198.78,390 C209.91,421.37 219.4407,452.0016 226.9807,477.2116 " fill="none" id="RoutingMode-to-ActiveMode" style="stroke:#E7E7E7;stroke-width:1.0;"/><polygon fill="#E7E7E7" points="228.7,482.96,229.9534,473.1912,227.2673,478.1697,222.2888,475.4836,228.7,482.96" style="stroke:#E7E7E7;stroke-width:1.0;"/><text fill="#FFFFFF" font-family="monospace" font-size="13" lengthAdjust="spacing" textLength="125.2266" x="234.6694" y="403.0669">StopRoutingEvent</text><text fill="#FFFFFF" font-family="sans-serif" font-size="13" lengthAdjust="spacing" textLength="4.1323" x="359.896" y="403.0669">&#160;</text><text fill="#FFFFFF" font-family="sans-serif" font-size="13" lengthAdjust="spacing" textLength="173.0054" x="214.9123" y="418.1997">/ notify all group members</text></g><!--link ActiveMode to SOSMode--><g id="link_ActiveMode_SOSMode"><path d="M167.76,547.03 C141.55,563.31 121.25,584.88 135.78,609 C143.37,621.62 149.8554,628.3691 162.5954,635.9591 " fill="none" id="ActiveMode-to-SOSMode" style="stroke:#E7E7E7;stroke-width:1.0;"/><polygon fill="#E7E7E7" points="167.75,639.03,162.0654,630.9873,163.4545,636.4709,157.9709,637.86,167.75,639.03" style="stroke:#E7E7E7;stroke-width:1.0;"/><text fill="#FFFFFF" font-family="sans-serif" font-size="13" lengthAdjust="spacing" textLength="94.9229" x="166.1601" y="590.0669">SOSAlertEvent</text><text fill="#FFFFFF" font-family="sans-serif" font-size="13" lengthAdjust="spacing" textLength="153.6831" x="140.9123" y="605.1997">/ notify group members</text></g><!--link SOSMode to ActiveMode--><g id="link_SOSMode_ActiveMode"><path d="M274.87,638.97 C284.46,630.73 293.55,620.61 298.78,609 C304.62,596.03 304.22,590.14 298.78,577 C294.19,565.93 290.6824,560.1318 282.3024,551.4718 " fill="none" id="SOSMode-to-ActiveMode" style="stroke:#E7E7E7;stroke-width:1.0;"/><polygon fill="#E7E7E7" points="278.13,547.16,281.514,556.4092,281.607,550.7531,287.2631,550.8461,278.13,547.16" style="stroke:#E7E7E7;stroke-width:1.0;"/><text fill="#FFFFFF" font-family="monospace" font-size="13" lengthAdjust="spacing" textLength="93.9199" x="333.6616" y="590.0669">StopSOSEvent</text><text fill="#FFFFFF" font-family="sans-serif" font-size="13" lengthAdjust="spacing" textLength="4.1323" x="427.5815" y="590.0669">&#160;</text><text fill="#FFFFFF" font-family="sans-serif" font-size="13" lengthAdjust="spacing" textLength="153.6831" x="307.9123" y="605.1997">/ notify group members</text></g><!--reverse link RoutingCheckingMode to RoutingMode--><g id="link_RoutingCheckingMode_RoutingMode"><path d="M133.2745,77.3134 C130.4145,95.0434 128.2,111.73 126.78,132 C124.09,170.25 125.21,180.62 133.78,218 C136.06,227.98 139.59,238.67 142.98,247.88 " fill="none" id="RoutingCheckingMode-backto-RoutingMode" style="stroke:#E7E7E7;stroke-width:1.0;"/><polygon fill="#E7E7E7" points="134.23,71.39,128.8478,79.6381,133.4338,76.3262,136.7457,80.9121,134.23,71.39" style="stroke:#E7E7E7;stroke-width:1.0;"/><text fill="#FFFFFF" font-family="sans-serif" font-size="13" lengthAdjust="spacing" textLength="93.2725" x="127.78" y="148.5669">TrackingEvent</text></g><!--link RoutingCheckingMode to c--><g id="link_RoutingCheckingMode_c"><path d="M173.68,71.18 C199.44,94.87 228.1916,121.3207 241.4816,133.5307 " fill="none" id="RoutingCheckingMode-to-c" style="stroke:#E7E7E7;stroke-width:1.0;"/><polygon fill="#E7E7E7" points="245.9,137.59,241.9787,128.5555,242.218,134.2072,236.5662,134.4466,245.9,137.59" style="stroke:#E7E7E7;stroke-width:1.0;"/></g><!--link c to RoutingMode--><g id="link_c_RoutingMode"><path d="M242.88,147.22 C220.12,153.09 160.78,169.71 149.78,186 C137.65,203.95 138.7982,223.3209 143.3082,241.8109 " fill="none" id="c-to-RoutingMode" style="stroke:#E7E7E7;stroke-width:1.0;"/><polygon fill="#E7E7E7" points="144.73,247.64,146.4834,237.9485,143.5452,242.7824,138.7112,239.8442,144.73,247.64" style="stroke:#E7E7E7;stroke-width:1.0;"/><text fill="#FFFFFF" font-family="sans-serif" font-size="13" lengthAdjust="spacing" textLength="5.0718" x="150.78" y="206.5669">[</text><text fill="#FFFFFF" font-family="monospace" font-size="13" lengthAdjust="spacing" textLength="62.6133" x="155.8518" y="206.5669">Continue</text><text fill="#FFFFFF" font-family="sans-serif" font-size="13" lengthAdjust="spacing" textLength="5.0718" x="218.4651" y="206.5669">]</text></g><!--link c to RoutingMode--><g id="link_c_RoutingMode"><path d="M250.52,154.86 C248.2,169.78 242.12,198.41 227.78,218 C219.34,229.52 212.6,236.0974 201.01,244.2874 " fill="none" id="c-to-RoutingMode-1" style="stroke:#E7E7E7;stroke-width:1.0;"/><polygon fill="#E7E7E7" points="196.11,247.75,205.7685,245.8228,200.1934,244.8645,201.1517,239.2894,196.11,247.75" style="stroke:#E7E7E7;stroke-width:1.0;"/><text fill="#FFFFFF" font-family="sans-serif" font-size="13" lengthAdjust="spacing" textLength="5.0718" x="286.6457" y="199.0669">[</text><text fill="#FFFFFF" font-family="monospace" font-size="13" lengthAdjust="spacing" textLength="78.2666" x="291.7175" y="199.0669">Alert(msg)</text><text fill="#FFFFFF" font-family="sans-serif" font-size="13" lengthAdjust="spacing" textLength="5.0718" x="369.9841" y="199.0669">]</text><text fill="#FFFFFF" font-family="sans-serif" font-size="13" lengthAdjust="spacing" textLength="146.5293" x="247.9123" y="214.1997">/ alert group members</text><text fill="#FFFFFF" font-family="monospace" font-size="13" lengthAdjust="spacing" textLength="23.48" x="398.5739" y="214.1997">msg</text></g><!--link c to ActiveMode--><g id="link_c_ActiveMode"><path d="M262.44,145.76 C297.68,148.5 409.42,159.2 430.78,186 C468.19,232.95 590.91,141.68 396.78,422 C377.62,449.66 352.6177,467.4689 323.5277,481.9989 " fill="none" id="c-to-ActiveMode" style="stroke:#E7E7E7;stroke-width:1.0;"/><polygon fill="#E7E7E7" points="318.16,484.68,327.9989,484.2368,322.6331,482.4458,324.4241,477.08,318.16,484.68" style="stroke:#E7E7E7;stroke-width:1.0;"/><text fill="#FFFFFF" font-family="sans-serif" font-size="13" lengthAdjust="spacing" textLength="5.0718" x="496.396" y="341.0669">[</text><text fill="#FFFFFF" font-family="monospace" font-size="13" lengthAdjust="spacing" textLength="93.9199" x="501.4677" y="341.0669">Success(msg)</text><text fill="#FFFFFF" font-family="sans-serif" font-size="13" lengthAdjust="spacing" textLength="5.0718" x="595.3877" y="341.0669">]</text><text fill="#FFFFFF" font-family="sans-serif" font-size="13" lengthAdjust="spacing" textLength="153.6831" x="461.9123" y="356.1997">/ notify group members</text><text fill="#FFFFFF" font-family="monospace" font-size="13" lengthAdjust="spacing" textLength="23.48" x="619.7278" y="356.1997">msg</text></g><!--link SOSMode to SOSMode--><g id="link_SOSMode_SOSMode"><path d="M307.95,650.94 C327.65,651.51 342.78,655.87 342.78,664 C342.78,672.13 333.6475,676.3165 313.9475,676.8865 " fill="none" id="SOSMode-to-SOSMode" style="stroke:#E7E7E7;stroke-width:1.0;"/><polygon fill="#E7E7E7" points="307.95,677.06,317.0619,680.798,312.9479,676.9154,316.8305,672.8014,307.95,677.06" style="stroke:#E7E7E7;stroke-width:1.0;"/><text fill="#FFFFFF" font-family="monospace" font-size="13" lengthAdjust="spacing" textLength="101.7466" x="348.78" y="668.5669">TrackingEvent</text><text fill="#FFFFFF" font-family="sans-serif" font-size="13" lengthAdjust="spacing" textLength="169.0444" x="454.6589" y="668.5669">/ append position to route</text></g><!--SRC=[XLD1Ri8m4Bpx5IjVIYkXtX52GWXL70eIeRrG3gwpaAY9RTaE5R_laWI8mT2RvHtFpiwEroyRw8zWB7s-ntUT8cENSrY10N2-iaB-v6ettQFoFQDTxdEjdZc7Lt1YZmGvNNBUeHe0uUs1KDAYy0XE2UCoxQCOvu-GOH_6azNiSnf8gWofMkhAaugphCGBwzlBMXe9-bB4fBJFjmVOMLqPAB7yHki2EY9B5abBHATnWTRN50y8MAT_HFLoyR6QpT-wA6fqQsRYjNaWMXJ5LT-0i6l49CDwBIrri2Ns5EguTc-jD5Gc9UqEjjg2WDyiBt3JQ157FswbDCNpnBDvkoaM4NHnI1Y3AeLJGi1h85AFyLUffYS6BOagGHvBZZKT9Go7CjEvnD4ezhQUKZ8PcvRpYLPqKI7dctkGEWMzqkqesO4HeGcS4uHoth04soMIf98IdGjfOdawyx0sYf5CKULKlGhjrQUil-9TexiKaJHI-T_lymS0]--></g></svg>