<svg xmlns="http://www.w3.org/2000/svg" xmlns:xlink="http://www.w3.org/1999/xlink" contentStyleType="text/css" height="557px" preserveAspectRatio="none" style="width:582px;height:557px;background:#FFFFFF;" version="1.1" viewBox="0 0 582 557" width="582px" zoomAndPan="magnify"><defs/><g><ellipse cx="52" cy="385" fill="#222222" rx="10" ry="10" style="stroke:#222222;stroke-width:1.0;"/><g id="NormalMode"><rect fill="#F1F1F1" height="50" rx="12.5" ry="12.5" style="stroke:#181818;stroke-width:0.5;" width="109.0449" x="97.5" y="360"/><line style="stroke:#181818;stroke-width:0.5;" x1="97.5" x2="206.5449" y1="386.2969" y2="386.2969"/><text fill="#000000" font-family="sans-serif" font-size="14" lengthAdjust="spacing" textLength="89.0449" x="107.5" y="377.9951">NormalMode</text></g><g id="RoutingMode"><rect fill="#F1F1F1" height="50.2656" rx="12.5" ry="12.5" style="stroke:#181818;stroke-width:0.5;" width="221.4922" x="40.5" y="233"/><line style="stroke:#181818;stroke-width:0.5;" x1="40.5" x2="261.9922" y1="259.2969" y2="259.2969"/><text fill="#000000" font-family="sans-serif" font-size="14" lengthAdjust="spacing" textLength="92.4492" x="105.0215" y="250.9951">RoutingMode</text><text fill="#000000" font-family="sans-serif" font-size="12" lengthAdjust="spacing" textLength="201.4922" x="45.5" y="275.4355">entry / notify all groups members</text></g><g id="RoutingCheckingMode"><rect fill="#F1F1F1" height="64.2344" rx="12.5" ry="12.5" style="stroke:#181818;stroke-width:0.5;" width="211.584" x="7" y="7"/><line style="stroke:#181818;stroke-width:0.5;" x1="7" x2="218.584" y1="33.2969" y2="33.2969"/><text fill="#000000" font-family="sans-serif" font-size="14" lengthAdjust="spacing" textLength="157.165" x="34.2095" y="24.9951">RoutingCheckingMode</text><text fill="#000000" font-family="sans-serif" font-size="12" lengthAdjust="spacing" textLength="191.584" x="12" y="49.4355">entry / append position to route</text><text fill="#000000" font-family="sans-serif" font-size="12" lengthAdjust="spacing" textLength="119.9531" x="12" y="63.4043">do / perform checks</text></g><g id="elem_c"><polygon fill="#F1F1F1" points="235,132,247,144,235,156,223,144,235,132" style="stroke:#181818;stroke-width:0.5;"/></g><g id="AlertMode"><rect fill="#F1F1F1" height="64.2344" rx="12.5" ry="12.5" style="stroke:#181818;stroke-width:0.5;" width="221.4922" x="41.5" y="487"/><line style="stroke:#181818;stroke-width:0.5;" x1="41.5" x2="262.9922" y1="513.2969" y2="513.2969"/><text fill="#000000" font-family="sans-serif" font-size="14" lengthAdjust="spacing" textLength="71.4697" x="116.5112" y="504.9951">AlertMode</text><text fill="#000000" font-family="sans-serif" font-size="12" lengthAdjust="spacing" textLength="201.4922" x="46.5" y="529.4355">entry / notify all groups members</text><text fill="#000000" font-family="sans-serif" font-size="12" lengthAdjust="spacing" textLength="164.8066" x="46.5" y="543.4043">entry / replace last position</text></g><!--link *start* to NormalMode--><g id="link_*start*_NormalMode"><path d="M62.16,385 C73.85,385 79.55,385 91.25,385 " fill="none" id="*start*-to-NormalMode" style="stroke:#181818;stroke-width:1.0;"/><polygon fill="#181818" points="97.25,385,88.25,381,92.25,385,88.25,389,97.25,385" style="stroke:#181818;stroke-width:1.0;"/></g><!--link NormalMode to NormalMode--><g id="link_NormalMode_NormalMode"><path d="M206.62,373.38 C225.88,373.2 241.5,377.07 241.5,385 C241.5,392.93 231.8797,396.8561 212.6197,396.6761 " fill="none" id="NormalMode-to-NormalMode" style="stroke:#181818;stroke-width:1.0;"/><polygon fill="#181818" points="206.62,396.62,215.5822,400.7039,211.6198,396.6667,215.657,392.7043,206.62,396.62" style="stroke:#181818;stroke-width:1.0;"/><text fill="#000000" font-family="sans-serif" font-size="13" lengthAdjust="spacing" textLength="237.4404" x="247.5" y="389.5669">TrackingEvent / replace last position</text></g><!--reverse link RoutingMode to NormalMode--><g id="link_RoutingMode_NormalMode"><path d="M87.4955,286.2144 C67.5655,298.2644 57.73,311.19 68,330 C74.73,342.33 85.61,352.26 97.34,360.08 " fill="none" id="RoutingMode-backto-NormalMode" style="stroke:#181818;stroke-width:1.0;"/><polygon fill="#181818" points="92.63,283.11,82.8587,284.3436,88.3513,285.697,86.9979,291.1896,92.63,283.11" style="stroke:#181818;stroke-width:1.0;"/><text fill="#000000" font-family="sans-serif" font-size="13" lengthAdjust="spacing" textLength="119.4248" x="69" y="326.0669">StartRoutingEvent</text></g><!--reverse link NormalMode to RoutingMode--><g id="link_NormalMode_RoutingMode"><path d="M182.1646,355.2404 C193.3046,342.0104 198.68,329.56 193,313 C189.26,302.1 182.33,291.71 175.15,283.01 " fill="none" id="NormalMode-backto-RoutingMode" style="stroke:#181818;stroke-width:1.0;"/><polygon fill="#181818" points="178.3,359.83,187.1567,355.5219,181.5205,356.0053,181.0371,350.3691,178.3,359.83" style="stroke:#181818;stroke-width:1.0;"/><text fill="#000000" font-family="sans-serif" font-size="13" lengthAdjust="spacing" textLength="334.7119" x="195" y="326.0669">StopRoutingEvent / create snapshot of last position</text></g><!--reverse link RoutingCheckingMode to RoutingMode--><g id="link_RoutingCheckingMode_RoutingMode"><path d="M108.4713,77.2849 C106.3113,100.8049 105.6,127.71 111,156 C116.23,183.42 128.78,212.89 138.44,232.88 " fill="none" id="RoutingCheckingMode-backto-RoutingMode" style="stroke:#181818;stroke-width:1.0;"/><polygon fill="#181818" points="109.02,71.31,104.2137,79.9065,108.5627,76.289,112.1802,80.6381,109.02,71.31" style="stroke:#181818;stroke-width:1.0;"/><text fill="#000000" font-family="sans-serif" font-size="13" lengthAdjust="spacing" textLength="93.2725" x="112" y="148.5669">TrackingEvent</text></g><!--link RoutingCheckingMode to c--><g id="link_RoutingCheckingMode_c"><path d="M149.94,71.18 C178.27,95.1 210.2649,122.12 224.4349,134.08 " fill="none" id="RoutingCheckingMode-to-c" style="stroke:#181818;stroke-width:1.0;"/><polygon fill="#181818" points="229.02,137.95,224.7223,129.0883,225.1991,134.725,219.5624,135.2017,229.02,137.95" style="stroke:#181818;stroke-width:1.0;"/></g><!--link c to RoutingMode--><g id="link_c_RoutingMode"><path d="M226.52,147.7 C206.46,154.29 157.08,171.69 148,186 C139.28,199.75 139.1147,212.3285 142.1947,226.9685 " fill="none" id="c-to-RoutingMode" style="stroke:#181818;stroke-width:1.0;"/><polygon fill="#181818" points="143.43,232.84,145.4914,223.2093,142.4006,227.9471,137.6628,224.8563,143.43,232.84" style="stroke:#181818;stroke-width:1.0;"/><text fill="#000000" font-family="sans-serif" font-size="13" lengthAdjust="spacing" textLength="5.0718" x="149" y="199.0669">[</text><text fill="#000000" font-family="monospace" font-size="13" lengthAdjust="spacing" textLength="62.6133" x="154.0718" y="199.0669">Continue</text><text fill="#000000" font-family="sans-serif" font-size="13" lengthAdjust="spacing" textLength="5.0718" x="216.6851" y="199.0669">]</text></g><!--link c to RoutingMode--><g id="link_c_RoutingMode"><path d="M235.71,155.68 C236.03,167.99 234.95,188.41 226,203 C218.78,214.76 212.8242,221.2111 201.6242,229.2511 " fill="none" id="c-to-RoutingMode-1" style="stroke:#181818;stroke-width:1.0;"/><polygon fill="#181818" points="196.75,232.75,206.3939,230.751,200.8118,229.8342,201.7286,224.2521,196.75,232.75" style="stroke:#181818;stroke-width:1.0;"/><text fill="#000000" font-family="sans-serif" font-size="13" lengthAdjust="spacing" textLength="5.0718" x="233" y="199.0669">[</text><text fill="#000000" font-family="monospace" font-size="13" lengthAdjust="spacing" textLength="39.1333" x="238.0718" y="199.0669">Alert</text><text fill="#000000" font-family="sans-serif" font-size="13" lengthAdjust="spacing" textLength="188.9824" x="277.2051" y="199.0669">] / notify all groups members</text></g><!--link NormalMode to AlertMode--><g id="link_NormalMode_AlertMode"><path d="M107.48,410.03 C96.87,418.06 86.92,428.07 81,440 C72.38,457.39 78.5047,469.8567 93.9947,483.0667 " fill="none" id="NormalMode-to-AlertMode" style="stroke:#181818;stroke-width:1.0;"/><polygon fill="#181818" points="98.56,486.96,94.3076,478.0765,94.7556,483.7156,89.1165,484.1635,98.56,486.96" style="stroke:#181818;stroke-width:1.0;"/><text fill="#000000" font-family="sans-serif" font-size="13" lengthAdjust="spacing" textLength="94.9229" x="82" y="453.0669">SOSAlertEvent</text></g><!--link AlertMode to NormalMode--><g id="link_AlertMode_NormalMode"><path d="M172.76,487 C179.8,472.89 184.98,455.83 181,440 C178.4,429.68 176.3868,424.3895 171.2668,415.4295 " fill="none" id="AlertMode-to-NormalMode" style="stroke:#181818;stroke-width:1.0;"/><polygon fill="#181818" points="168.29,410.22,169.2823,420.0187,170.7707,414.5612,176.2282,416.0496,168.29,410.22" style="stroke:#181818;stroke-width:1.0;"/><text fill="#000000" font-family="sans-serif" font-size="13" lengthAdjust="spacing" textLength="93.5327" x="183" y="453.0669">StopSOSEvent</text></g><!--link AlertMode to AlertMode--><g id="link_AlertMode_AlertMode"><path d="M262.71,506.57 C283.14,508.12 297.5,512.27 297.5,519 C297.5,525.73 289.1228,529.4261 268.6928,530.9761 " fill="none" id="AlertMode-to-AlertMode" style="stroke:#181818;stroke-width:1.0;"/><polygon fill="#181818" points="262.71,531.43,271.9868,534.7377,267.6957,531.0517,271.3816,526.7606,262.71,531.43" style="stroke:#181818;stroke-width:1.0;"/><text fill="#000000" font-family="sans-serif" font-size="13" lengthAdjust="spacing" textLength="266.4492" x="303.5" y="523.5669">TrackingEvent / append position to route</text></g><!--SRC=[ZP9DQyCm38Rl_XKYnq7PlPJ0A3jkWsQtqeFdA6rOOXbR6VJVJ_Mo9axTiPDjVJoINcl_S81L2Q_aUzszK8rAJVVK0sjuzzfyjlRu_8MMuH4ykauRX4u71aUXvPPiIXYSG7OqiAIDb8grvz4KIMhcNuCO_5dWbhXjpg2x3ewU1XUWn_u3VPY7ZmMIBYicDySBotZKZ12iTk543DGiUhv5ZfRj2UF8EGLK9cRgNpk7jhwM02QGCHZpMJL9YaFVo2HWBgwW0b-QDh3Pc1Er1iiobmihwTOe4yzKwNrHRCcAOS2YEDmBUUhGi_Z_r3pvLA74f5_1twhu_17bwldFLsQ2yqirrLjMNoxbNTrJnCtAo1GHyGq0]--></g></svg>