<svg xmlns="http://www.w3.org/2000/svg" xmlns:xlink="http://www.w3.org/1999/xlink" contentStyleType="text/css" height="964px" preserveAspectRatio="none" style="width:1611px;height:964px;background:#FFFFFF;" version="1.1" viewBox="0 0 1611 964" width="1611px" zoomAndPan="magnify"><defs/><g><!--cluster application--><g id="cluster_application"><path d="M8.5,6 L97.4102,6 A3.75,3.75 0 0 1 99.9102,8.5 L106.9102,28.2969 L1601.5,28.2969 A2.5,2.5 0 0 1 1604,30.7969 L1604,954.5 A2.5,2.5 0 0 1 1601.5,957 L8.5,957 A2.5,2.5 0 0 1 6,954.5 L6,8.5 A2.5,2.5 0 0 1 8.5,6 " fill="none" style="stroke:#000000;stroke-width:1.5;"/><line style="stroke:#000000;stroke-width:1.5;" x1="6" x2="106.9102" y1="28.2969" y2="28.2969"/><text fill="#000000" font-family="sans-serif" font-size="14" font-weight="bold" lengthAdjust="spacing" textLength="87.9102" x="10" y="20.9951">application</text></g><!--cluster domain--><g id="cluster_domain"><path d="M708.5,49 L767.9404,49 A3.75,3.75 0 0 1 770.4404,51.5 L777.4404,71.2969 L1577.5,71.2969 A2.5,2.5 0 0 1 1580,73.7969 L1580,805.5 A2.5,2.5 0 0 1 1577.5,808 L708.5,808 A2.5,2.5 0 0 1 706,805.5 L706,51.5 A2.5,2.5 0 0 1 708.5,49 " fill="none" style="stroke:#000000;stroke-width:1.5;"/><line style="stroke:#000000;stroke-width:1.5;" x1="706" x2="777.4404" y1="71.2969" y2="71.2969"/><text fill="#000000" font-family="sans-serif" font-size="14" font-weight="bold" lengthAdjust="spacing" textLength="58.4404" x="710" y="63.9951">domain</text></g><!--class TrackingEventsReader--><g id="elem_TrackingEventsReader"><rect codeLine="85" fill="#F1F1F1" height="72.5625" id="TrackingEventsReader" rx="2.5" ry="2.5" style="stroke:#181818;stroke-width:0.5;" width="259.3516" x="115.5" y="703"/><ellipse cx="161.9673" cy="723.1328" fill="#B4A7E5" rx="11" ry="11" style="stroke:#181818;stroke-width:1.0;"/><path d="M157.8892,718.8984 L157.8892,716.7422 L165.2798,716.7422 L165.2798,718.8984 L162.811,718.8984 L162.811,726.9766 L165.2798,726.9766 L165.2798,729.1328 L157.8892,729.1328 L157.8892,726.9766 L160.3579,726.9766 L160.3579,718.8984 L157.8892,718.8984 Z " fill="#000000"/><text fill="#000000" font-family="sans-serif" font-size="12" font-style="italic" lengthAdjust="spacing" textLength="100.6641" x="211.0938" y="719.1387">&#171;outbound port&#187;</text><text fill="#000000" font-family="sans-serif" font-size="14" font-style="italic" lengthAdjust="spacing" textLength="157.917" x="182.4673" y="734.9639">TrackingEventsReader</text><line style="stroke:#181818;stroke-width:0.5;" x1="116.5" x2="373.8516" y1="743.2656" y2="743.2656"/><line style="stroke:#181818;stroke-width:0.5;" x1="116.5" x2="373.8516" y1="751.2656" y2="751.2656"/><ellipse cx="126.5" cy="764.9141" fill="#84BE84" rx="3" ry="3" style="stroke:#038048;stroke-width:1.0;"/><text fill="#000000" font-family="sans-serif" font-size="14" lengthAdjust="spacing" textLength="233.3516" x="135.5" y="768.2607">lastOf(user: User): TrackingEvent</text></g><!--class TrackingEventsWriter--><g id="elem_TrackingEventsWriter"><rect codeLine="88" fill="#F1F1F1" height="72.5625" id="TrackingEventsWriter" rx="2.5" ry="2.5" style="stroke:#181818;stroke-width:0.5;" width="279.7568" x="410" y="703"/><ellipse cx="470.0845" cy="723.1328" fill="#B4A7E5" rx="11" ry="11" style="stroke:#181818;stroke-width:1.0;"/><path d="M466.0063,718.8984 L466.0063,716.7422 L473.397,716.7422 L473.397,718.8984 L470.9282,718.8984 L470.9282,726.9766 L473.397,726.9766 L473.397,729.1328 L466.0063,729.1328 L466.0063,726.9766 L468.4751,726.9766 L468.4751,718.8984 L466.0063,718.8984 Z " fill="#000000"/><text fill="#000000" font-family="sans-serif" font-size="12" font-style="italic" lengthAdjust="spacing" textLength="100.6641" x="515.7964" y="719.1387">&#171;outbound port&#187;</text><text fill="#000000" font-family="sans-serif" font-size="14" font-style="italic" lengthAdjust="spacing" textLength="151.0879" x="490.5845" y="734.9639">TrackingEventsWriter</text><line style="stroke:#181818;stroke-width:0.5;" x1="411" x2="688.7568" y1="743.2656" y2="743.2656"/><line style="stroke:#181818;stroke-width:0.5;" x1="411" x2="688.7568" y1="751.2656" y2="751.2656"/><ellipse cx="421" cy="764.9141" fill="#84BE84" rx="3" ry="3" style="stroke:#038048;stroke-width:1.0;"/><text fill="#000000" font-family="sans-serif" font-size="14" lengthAdjust="spacing" textLength="253.7568" x="430" y="768.2607">save(TrackingEvent: TrackingEvent)</text></g><!--class TrackingEventsStore--><g id="elem_TrackingEventsStore"><rect codeLine="91" fill="#F1F1F1" height="56.2656" id="TrackingEventsStore" rx="2.5" ry="2.5" style="stroke:#181818;stroke-width:0.5;" width="177.0518" x="308.5" y="868.5"/><ellipse cx="323.5" cy="888.6328" fill="#B4A7E5" rx="11" ry="11" style="stroke:#181818;stroke-width:1.0;"/><path d="M319.4219,884.3984 L319.4219,882.2422 L326.8125,882.2422 L326.8125,884.3984 L324.3438,884.3984 L324.3438,892.4766 L326.8125,892.4766 L326.8125,894.6328 L319.4219,894.6328 L319.4219,892.4766 L321.8906,892.4766 L321.8906,884.3984 L319.4219,884.3984 Z " fill="#000000"/><text fill="#000000" font-family="sans-serif" font-size="12" font-style="italic" lengthAdjust="spacing" textLength="100.6641" x="359.6938" y="884.6387">&#171;outbound port&#187;</text><text fill="#000000" font-family="sans-serif" font-size="14" font-style="italic" lengthAdjust="spacing" textLength="145.0518" x="337.5" y="900.4639">TrackingEventsStore</text><line style="stroke:#181818;stroke-width:0.5;" x1="309.5" x2="484.5518" y1="908.7656" y2="908.7656"/><line style="stroke:#181818;stroke-width:0.5;" x1="309.5" x2="484.5518" y1="916.7656" y2="916.7656"/></g><!--class MapsService--><g id="elem_MapsService"><rect codeLine="103" fill="#F1F1F1" height="88.8594" id="MapsService" rx="2.5" ry="2.5" style="stroke:#181818;stroke-width:0.5;" width="483.0713" x="1054.5" y="852"/><ellipse cx="1243.4536" cy="872.1328" fill="#B4A7E5" rx="11" ry="11" style="stroke:#181818;stroke-width:1.0;"/><path d="M1239.3755,867.8984 L1239.3755,865.7422 L1246.7661,865.7422 L1246.7661,867.8984 L1244.2974,867.8984 L1244.2974,875.9766 L1246.7661,875.9766 L1246.7661,878.1328 L1239.3755,878.1328 L1239.3755,875.9766 L1241.8442,875.9766 L1241.8442,867.8984 L1239.3755,867.8984 Z " fill="#000000"/><text fill="#000000" font-family="sans-serif" font-size="12" font-style="italic" lengthAdjust="spacing" textLength="100.6641" x="1261.9536" y="868.1387">&#171;outbound port&#187;</text><text fill="#000000" font-family="sans-serif" font-size="14" font-style="italic" lengthAdjust="spacing" textLength="88.5801" x="1267.9956" y="883.9639">MapsService</text><line style="stroke:#181818;stroke-width:0.5;" x1="1055.5" x2="1536.5713" y1="892.2656" y2="892.2656"/><line style="stroke:#181818;stroke-width:0.5;" x1="1055.5" x2="1536.5713" y1="900.2656" y2="900.2656"/><ellipse cx="1065.5" cy="913.9141" fill="#84BE84" rx="3" ry="3" style="stroke:#038048;stroke-width:1.0;"/><text fill="#000000" font-family="sans-serif" font-size="14" lengthAdjust="spacing" textLength="457.0713" x="1074.5" y="917.2607">estimateArrivalTime(start: GPSLocation, end: GPSLocation): Date</text><ellipse cx="1065.5" cy="930.2109" fill="#84BE84" rx="3" ry="3" style="stroke:#038048;stroke-width:1.0;"/><text fill="#000000" font-family="sans-serif" font-size="14" lengthAdjust="spacing" textLength="428.5381" x="1074.5" y="933.5576">distance(start: GPSLocation, end: GPSLocation): GPSLocation</text></g><!--class UserTrackingInfoService--><g id="elem_UserTrackingInfoService"><rect codeLine="110" fill="#F1F1F1" height="105.1563" id="UserTrackingInfoService" rx="2.5" ry="2.5" style="stroke:#181818;stroke-width:0.5;" width="298.5488" x="267.5" y="349"/><ellipse cx="327.2803" cy="369.1328" fill="#B4A7E5" rx="11" ry="11" style="stroke:#181818;stroke-width:1.0;"/><path d="M323.2021,364.8984 L323.2021,362.7422 L330.5928,362.7422 L330.5928,364.8984 L328.124,364.8984 L328.124,372.9766 L330.5928,372.9766 L330.5928,375.1328 L323.2021,375.1328 L323.2021,372.9766 L325.6709,372.9766 L325.6709,364.8984 L323.2021,364.8984 Z " fill="#000000"/><text fill="#000000" font-family="sans-serif" font-size="12" font-style="italic" lengthAdjust="spacing" textLength="91.9512" x="387.0488" y="365.1387">&#171;inbound port&#187;</text><text fill="#000000" font-family="sans-serif" font-size="14" font-style="italic" lengthAdjust="spacing" textLength="170.4883" x="347.7803" y="380.9639">UserTrackingInfoService</text><line style="stroke:#181818;stroke-width:0.5;" x1="268.5" x2="565.0488" y1="389.2656" y2="389.2656"/><line style="stroke:#181818;stroke-width:0.5;" x1="268.5" x2="565.0488" y1="397.2656" y2="397.2656"/><ellipse cx="278.5" cy="410.9141" fill="#84BE84" rx="3" ry="3" style="stroke:#038048;stroke-width:1.0;"/><text fill="#000000" font-family="sans-serif" font-size="14" lengthAdjust="spacing" textLength="272.5488" x="287.5" y="414.2607">lastTraceOf(user: User): TrackingEvent</text><ellipse cx="278.5" cy="427.2109" fill="#84BE84" rx="3" ry="3" style="stroke:#038048;stroke-width:1.0;"/><text fill="#000000" font-family="sans-serif" font-size="14" lengthAdjust="spacing" textLength="186.2178" x="287.5" y="430.5576">routeOf(user: User): Route</text><ellipse cx="278.5" cy="443.5078" fill="#84BE84" rx="3" ry="3" style="stroke:#038048;stroke-width:1.0;"/><text fill="#000000" font-family="sans-serif" font-size="14" lengthAdjust="spacing" textLength="207.0195" x="287.5" y="446.8545">lastStateOf(user: User): State</text></g><path d="M602,353.5 L602,392.332 L473.7178,425.7109 L602,400.332 L602,439.1641 A0,0 0 0 0 602,439.1641 L690.1455,439.1641 A0,0 0 0 0 690.1455,439.1641 L690.1455,363.5 L680.1455,353.5 L602,353.5 A0,0 0 0 0 602,353.5 " fill="#FEFFDD" style="stroke:#181818;stroke-width:0.5;"/><path d="M680.1455,353.5 L680.1455,363.5 L690.1455,363.5 L680.1455,353.5 " fill="#FEFFDD" style="stroke:#181818;stroke-width:0.5;"/><text fill="#000000" font-family="sans-serif" font-size="13" lengthAdjust="spacing" textLength="63.0132" x="608" y="370.5669">At most 1</text><text fill="#000000" font-family="sans-serif" font-size="13" lengthAdjust="spacing" textLength="60.3599" x="608" y="385.6997">route per</text><text fill="#000000" font-family="sans-serif" font-size="13" lengthAdjust="spacing" textLength="54.082" x="608" y="400.8325">user per</text><text fill="#000000" font-family="sans-serif" font-size="13" lengthAdjust="spacing" textLength="43.8877" x="608" y="415.9653">time is</text><text fill="#000000" font-family="sans-serif" font-size="13" lengthAdjust="spacing" textLength="39.5142" x="608" y="431.0981">active</text><!--class State--><g id="elem_State"><rect codeLine="122" fill="#F1F1F1" height="113.1875" id="State" rx="2.5" ry="2.5" style="stroke:#181818;stroke-width:0.5;" width="95.5078" x="281" y="514"/><ellipse cx="307.9026" cy="530" fill="#EB937F" rx="11" ry="11" style="stroke:#181818;stroke-width:1.0;"/><path d="M312.012,536 L304.2932,536 L304.2932,523.6094 L312.012,523.6094 L312.012,525.7656 L306.7463,525.7656 L306.7463,528.4375 L311.512,528.4375 L311.512,530.5938 L306.7463,530.5938 L306.7463,533.8438 L312.012,533.8438 L312.012,536 Z " fill="#000000"/><text fill="#000000" font-family="sans-serif" font-size="14" lengthAdjust="spacing" textLength="37.0576" x="324.5476" y="534.8467">State</text><line style="stroke:#181818;stroke-width:0.5;" x1="282" x2="375.5078" y1="546" y2="546"/><ellipse cx="292" cy="559.6484" fill="none" rx="3" ry="3" style="stroke:#038048;stroke-width:1.0;"/><text fill="#000000" font-family="sans-serif" font-size="14" lengthAdjust="spacing" textLength="54.9063" x="301" y="562.9951">ACTIVE,</text><ellipse cx="292" cy="575.9453" fill="none" rx="3" ry="3" style="stroke:#038048;stroke-width:1.0;"/><text fill="#000000" font-family="sans-serif" font-size="14" lengthAdjust="spacing" textLength="69.5078" x="301" y="579.292">INACTIVE,</text><ellipse cx="292" cy="592.2422" fill="none" rx="3" ry="3" style="stroke:#038048;stroke-width:1.0;"/><text fill="#000000" font-family="sans-serif" font-size="14" lengthAdjust="spacing" textLength="33.2432" x="301" y="595.5889">SOS,</text><ellipse cx="292" cy="608.5391" fill="none" rx="3" ry="3" style="stroke:#038048;stroke-width:1.0;"/><text fill="#000000" font-family="sans-serif" font-size="14" lengthAdjust="spacing" textLength="64.9961" x="301" y="611.8857">ROUTING</text><line style="stroke:#181818;stroke-width:0.5;" x1="282" x2="375.5078" y1="619.1875" y2="619.1875"/></g><!--class UserTrackingInfoServiceImpl--><g id="elem_UserTrackingInfoServiceImpl"><rect codeLine="130" fill="#F1F1F1" height="48" id="UserTrackingInfoServiceImpl" rx="2.5" ry="2.5" style="stroke:#181818;stroke-width:0.5;" width="233.0313" x="412.5" y="546.5"/><ellipse cx="427.5" cy="562.5" fill="#ADD1B2" rx="11" ry="11" style="stroke:#181818;stroke-width:1.0;"/><path d="M430.4688,568.1406 Q429.8906,568.4375 429.25,568.5781 Q428.6094,568.7344 427.9063,568.7344 Q425.4063,568.7344 424.0781,567.0938 Q422.7656,565.4375 422.7656,562.3125 Q422.7656,559.1875 424.0781,557.5313 Q425.4063,555.875 427.9063,555.875 Q428.6094,555.875 429.25,556.0313 Q429.9063,556.1875 430.4688,556.4844 L430.4688,559.2031 Q429.8438,558.625 429.25,558.3594 Q428.6563,558.0781 428.0313,558.0781 Q426.6875,558.0781 426,559.1563 Q425.3125,560.2188 425.3125,562.3125 Q425.3125,564.4063 426,565.4844 Q426.6875,566.5469 428.0313,566.5469 Q428.6563,566.5469 429.25,566.2813 Q429.8438,566 430.4688,565.4219 L430.4688,568.1406 Z " fill="#000000"/><text fill="#000000" font-family="sans-serif" font-size="14" lengthAdjust="spacing" textLength="201.0313" x="441.5" y="567.3467">UserTrackingInfoServiceImpl</text><line style="stroke:#181818;stroke-width:0.5;" x1="413.5" x2="644.5313" y1="578.5" y2="578.5"/><line style="stroke:#181818;stroke-width:0.5;" x1="413.5" x2="644.5313" y1="586.5" y2="586.5"/></g><!--class RealTimeTrackingService--><g id="elem_RealTimeTrackingService"><rect codeLine="133" fill="#F1F1F1" height="72.5625" id="RealTimeTrackingService" rx="2.5" ry="2.5" style="stroke:#181818;stroke-width:0.5;" width="209.584" x="22" y="365"/><ellipse cx="37" cy="385.1328" fill="#B4A7E5" rx="11" ry="11" style="stroke:#181818;stroke-width:1.0;"/><path d="M32.9219,380.8984 L32.9219,378.7422 L40.3125,378.7422 L40.3125,380.8984 L37.8438,380.8984 L37.8438,388.9766 L40.3125,388.9766 L40.3125,391.1328 L32.9219,391.1328 L32.9219,388.9766 L35.3906,388.9766 L35.3906,380.8984 L32.9219,380.8984 Z " fill="#000000"/><text fill="#000000" font-family="sans-serif" font-size="12" font-style="italic" lengthAdjust="spacing" textLength="91.9512" x="93.8164" y="381.1387">&#171;inbound port&#187;</text><text fill="#000000" font-family="sans-serif" font-size="14" font-style="italic" lengthAdjust="spacing" textLength="177.584" x="51" y="396.9639">RealTimeTrackingService</text><line style="stroke:#181818;stroke-width:0.5;" x1="23" x2="230.584" y1="405.2656" y2="405.2656"/><line style="stroke:#181818;stroke-width:0.5;" x1="23" x2="230.584" y1="413.2656" y2="413.2656"/><ellipse cx="33" cy="426.9141" fill="#84BE84" rx="3" ry="3" style="stroke:#038048;stroke-width:1.0;"/><text fill="#000000" font-family="sans-serif" font-size="14" lengthAdjust="spacing" textLength="147.7861" x="42" y="430.2607">handle(event: Event)</text></g><!--class ActorBasedTrackingService--><g id="elem_ActorBasedTrackingService"><rect codeLine="137" fill="#F1F1F1" height="48" id="ActorBasedTrackingService" rx="2.5" ry="2.5" style="stroke:#181818;stroke-width:0.5;" width="224.1445" x="22" y="546.5"/><ellipse cx="37" cy="562.5" fill="#ADD1B2" rx="11" ry="11" style="stroke:#181818;stroke-width:1.0;"/><path d="M39.9688,568.1406 Q39.3906,568.4375 38.75,568.5781 Q38.1094,568.7344 37.4063,568.7344 Q34.9063,568.7344 33.5781,567.0938 Q32.2656,565.4375 32.2656,562.3125 Q32.2656,559.1875 33.5781,557.5313 Q34.9063,555.875 37.4063,555.875 Q38.1094,555.875 38.75,556.0313 Q39.4063,556.1875 39.9688,556.4844 L39.9688,559.2031 Q39.3438,558.625 38.75,558.3594 Q38.1563,558.0781 37.5313,558.0781 Q36.1875,558.0781 35.5,559.1563 Q34.8125,560.2188 34.8125,562.3125 Q34.8125,564.4063 35.5,565.4844 Q36.1875,566.5469 37.5313,566.5469 Q38.1563,566.5469 38.75,566.2813 Q39.3438,566 39.9688,565.4219 L39.9688,568.1406 Z " fill="#000000"/><text fill="#000000" font-family="sans-serif" font-size="14" lengthAdjust="spacing" textLength="192.1445" x="51" y="567.3467">ActorBasedTrackingService</text><line style="stroke:#181818;stroke-width:0.5;" x1="23" x2="245.1445" y1="578.5" y2="578.5"/><line style="stroke:#181818;stroke-width:0.5;" x1="23" x2="245.1445" y1="586.5" y2="586.5"/></g><g id="elem_GMN55"><path d="M22,232 L22,257.1328 A0,0 0 0 0 22,257.1328 L156.29,257.1328 L135.25,364.97 L164.29,257.1328 L303.8379,257.1328 A0,0 0 0 0 303.8379,257.1328 L303.8379,242 L293.8379,232 L22,232 A0,0 0 0 0 22,232 " fill="#FEFFDD" style="stroke:#181818;stroke-width:0.5;"/><path d="M293.8379,232 L293.8379,242 L303.8379,242 L293.8379,232 " fill="#FEFFDD" style="stroke:#181818;stroke-width:0.5;"/><text fill="#000000" font-family="sans-serif" font-size="13" lengthAdjust="spacing" textLength="260.8379" x="28" y="249.0669">in charge of tracking management logic</text></g><!--class GPSLocation--><g id="elem_GPSLocation"><rect codeLine="30" fill="#F1F1F1" height="88.8594" id="GPSLocation" rx="2.5" ry="2.5" style="stroke:#181818;stroke-width:0.5;" width="150.7422" x="1220.5" y="695"/><ellipse cx="1249.4975" cy="715.1328" fill="#B4A7E5" rx="11" ry="11" style="stroke:#181818;stroke-width:1.0;"/><path d="M1245.4193,710.8984 L1245.4193,708.7422 L1252.81,708.7422 L1252.81,710.8984 L1250.3412,710.8984 L1250.3412,718.9766 L1252.81,718.9766 L1252.81,721.1328 L1245.4193,721.1328 L1245.4193,718.9766 L1247.8881,718.9766 L1247.8881,710.8984 L1245.4193,710.8984 Z " fill="#000000"/><text fill="#000000" font-family="sans-serif" font-size="12" font-style="italic" lengthAdjust="spacing" textLength="88.3828" x="1266.235" y="711.1387">&#171;value object&#187;</text><text fill="#000000" font-family="sans-serif" font-size="14" font-style="italic" lengthAdjust="spacing" textLength="87.6367" x="1266.608" y="726.9639">GPSLocation</text><line style="stroke:#181818;stroke-width:0.5;" x1="1221.5" x2="1370.2422" y1="735.2656" y2="735.2656"/><ellipse cx="1231.5" cy="748.9141" fill="none" rx="3" ry="3" style="stroke:#038048;stroke-width:1.0;"/><text fill="#000000" font-family="sans-serif" font-size="14" lengthAdjust="spacing" textLength="112.4854" x="1240.5" y="752.2607">latitude: Double</text><ellipse cx="1231.5" cy="765.2109" fill="none" rx="3" ry="3" style="stroke:#038048;stroke-width:1.0;"/><text fill="#000000" font-family="sans-serif" font-size="14" lengthAdjust="spacing" textLength="124.7422" x="1240.5" y="768.5576">longitude: Double</text><line style="stroke:#181818;stroke-width:0.5;" x1="1221.5" x2="1370.2422" y1="775.8594" y2="775.8594"/></g><!--class User--><g id="elem_User"><rect codeLine="35" fill="#F1F1F1" height="88.8594" id="User" rx="2.5" ry="2.5" style="stroke:#181818;stroke-width:0.5;" width="200.5488" x="903.5" y="200"/><ellipse cx="976.7012" cy="220.1328" fill="#ADD1B2" rx="11" ry="11" style="stroke:#181818;stroke-width:1.0;"/><path d="M979.6699,225.7734 Q979.0918,226.0703 978.4512,226.2109 Q977.8105,226.3672 977.1074,226.3672 Q974.6074,226.3672 973.2793,224.7266 Q971.9668,223.0703 971.9668,219.9453 Q971.9668,216.8203 973.2793,215.1641 Q974.6074,213.5078 977.1074,213.5078 Q977.8105,213.5078 978.4512,213.6641 Q979.1074,213.8203 979.6699,214.1172 L979.6699,216.8359 Q979.0449,216.2578 978.4512,215.9922 Q977.8574,215.7109 977.2324,215.7109 Q975.8887,215.7109 975.2012,216.7891 Q974.5137,217.8516 974.5137,219.9453 Q974.5137,222.0391 975.2012,223.1172 Q975.8887,224.1797 977.2324,224.1797 Q977.8574,224.1797 978.4512,223.9141 Q979.0449,223.6328 979.6699,223.0547 L979.6699,225.7734 Z " fill="#000000"/><text fill="#000000" font-family="sans-serif" font-size="12" font-style="italic" lengthAdjust="spacing" textLength="49.6465" x="995.2012" y="216.1387">&#171;entity&#187;</text><text fill="#000000" font-family="sans-serif" font-size="14" lengthAdjust="spacing" textLength="31.9102" x="1004.0693" y="231.9639">User</text><line style="stroke:#181818;stroke-width:0.5;" x1="904.5" x2="1103.0488" y1="240.2656" y2="240.2656"/><ellipse cx="914.5" cy="253.9141" fill="none" rx="3" ry="3" style="stroke:#038048;stroke-width:1.0;"/><text fill="#000000" font-family="sans-serif" font-size="14" lengthAdjust="spacing" textLength="66.8691" x="923.5" y="257.2607">id: UserId</text><ellipse cx="914.5" cy="270.2109" fill="none" rx="3" ry="3" style="stroke:#038048;stroke-width:1.0;"/><text fill="#000000" font-family="sans-serif" font-size="14" lengthAdjust="spacing" textLength="174.5488" x="923.5" y="273.5576">inGroups: Set&lt;GroupId&gt;</text><line style="stroke:#181818;stroke-width:0.5;" x1="904.5" x2="1103.0488" y1="280.8594" y2="280.8594"/></g><!--class UserId--><g id="elem_UserId"><rect codeLine="39" fill="#F1F1F1" height="56.2656" id="UserId" rx="2.5" ry="2.5" style="stroke:#181818;stroke-width:0.5;" width="116.3828" x="870" y="84"/><ellipse cx="885" cy="104.1328" fill="#ADD1B2" rx="11" ry="11" style="stroke:#181818;stroke-width:1.0;"/><path d="M887.9688,109.7734 Q887.3906,110.0703 886.75,110.2109 Q886.1094,110.3672 885.4063,110.3672 Q882.9063,110.3672 881.5781,108.7266 Q880.2656,107.0703 880.2656,103.9453 Q880.2656,100.8203 881.5781,99.1641 Q882.9063,97.5078 885.4063,97.5078 Q886.1094,97.5078 886.75,97.6641 Q887.4063,97.8203 887.9688,98.1172 L887.9688,100.8359 Q887.3438,100.2578 886.75,99.9922 Q886.1563,99.7109 885.5313,99.7109 Q884.1875,99.7109 883.5,100.7891 Q882.8125,101.8516 882.8125,103.9453 Q882.8125,106.0391 883.5,107.1172 Q884.1875,108.1797 885.5313,108.1797 Q886.1563,108.1797 886.75,107.9141 Q887.3438,107.6328 887.9688,107.0547 L887.9688,109.7734 Z " fill="#000000"/><text fill="#000000" font-family="sans-serif" font-size="12" font-style="italic" lengthAdjust="spacing" textLength="88.3828" x="897" y="100.1387">&#171;value object&#187;</text><text fill="#000000" font-family="sans-serif" font-size="14" lengthAdjust="spacing" textLength="44.9258" x="918.7285" y="115.9639">UserId</text><line style="stroke:#181818;stroke-width:0.5;" x1="871" x2="985.3828" y1="124.2656" y2="124.2656"/><line style="stroke:#181818;stroke-width:0.5;" x1="871" x2="985.3828" y1="132.2656" y2="132.2656"/></g><!--class GroupId--><g id="elem_GroupId"><rect codeLine="40" fill="#F1F1F1" height="56.2656" id="GroupId" rx="2.5" ry="2.5" style="stroke:#181818;stroke-width:0.5;" width="116.3828" x="1021" y="84"/><ellipse cx="1036" cy="104.1328" fill="#ADD1B2" rx="11" ry="11" style="stroke:#181818;stroke-width:1.0;"/><path d="M1038.9688,109.7734 Q1038.3906,110.0703 1037.75,110.2109 Q1037.1094,110.3672 1036.4063,110.3672 Q1033.9063,110.3672 1032.5781,108.7266 Q1031.2656,107.0703 1031.2656,103.9453 Q1031.2656,100.8203 1032.5781,99.1641 Q1033.9063,97.5078 1036.4063,97.5078 Q1037.1094,97.5078 1037.75,97.6641 Q1038.4063,97.8203 1038.9688,98.1172 L1038.9688,100.8359 Q1038.3438,100.2578 1037.75,99.9922 Q1037.1563,99.7109 1036.5313,99.7109 Q1035.1875,99.7109 1034.5,100.7891 Q1033.8125,101.8516 1033.8125,103.9453 Q1033.8125,106.0391 1034.5,107.1172 Q1035.1875,108.1797 1036.5313,108.1797 Q1037.1563,108.1797 1037.75,107.9141 Q1038.3438,107.6328 1038.9688,107.0547 L1038.9688,109.7734 Z " fill="#000000"/><text fill="#000000" font-family="sans-serif" font-size="12" font-style="italic" lengthAdjust="spacing" textLength="88.3828" x="1048" y="100.1387">&#171;value object&#187;</text><text fill="#000000" font-family="sans-serif" font-size="14" lengthAdjust="spacing" textLength="55.9453" x="1064.2188" y="115.9639">GroupId</text><line style="stroke:#181818;stroke-width:0.5;" x1="1022" x2="1136.3828" y1="124.2656" y2="124.2656"/><line style="stroke:#181818;stroke-width:0.5;" x1="1022" x2="1136.3828" y1="132.2656" y2="132.2656"/></g><!--class Event--><g id="elem_Event"><rect codeLine="45" fill="#F1F1F1" height="80.5938" id="Event" rx="2.5" ry="2.5" style="stroke:#181818;stroke-width:0.5;" width="144.1455" x="932" y="361"/><ellipse cx="979.7695" cy="377" fill="#B4A7E5" rx="11" ry="11" style="stroke:#181818;stroke-width:1.0;"/><path d="M975.6914,372.7656 L975.6914,370.6094 L983.082,370.6094 L983.082,372.7656 L980.6133,372.7656 L980.6133,380.8438 L983.082,380.8438 L983.082,383 L975.6914,383 L975.6914,380.8438 L978.1602,380.8438 L978.1602,372.7656 L975.6914,372.7656 Z " fill="#000000"/><text fill="#000000" font-family="sans-serif" font-size="14" font-style="italic" lengthAdjust="spacing" textLength="40.1064" x="1000.2695" y="381.8467">Event</text><line style="stroke:#181818;stroke-width:0.5;" x1="933" x2="1075.1455" y1="393" y2="393"/><ellipse cx="943" cy="406.6484" fill="none" rx="3" ry="3" style="stroke:#038048;stroke-width:1.0;"/><text fill="#000000" font-family="sans-serif" font-size="14" lengthAdjust="spacing" textLength="118.1455" x="952" y="409.9951">timestamp: Date</text><ellipse cx="943" cy="422.9453" fill="none" rx="3" ry="3" style="stroke:#038048;stroke-width:1.0;"/><text fill="#000000" font-family="sans-serif" font-size="14" lengthAdjust="spacing" textLength="71.6133" x="952" y="426.292">user: User</text><line style="stroke:#181818;stroke-width:0.5;" x1="933" x2="1075.1455" y1="433.5938" y2="433.5938"/></g><!--class StartRoutingEvent--><g id="elem_StartRoutingEvent"><rect codeLine="52" fill="#F1F1F1" height="88.8594" id="StartRoutingEvent" rx="2.5" ry="2.5" style="stroke:#181818;stroke-width:0.5;" width="222.5469" x="1127.5" y="526"/><ellipse cx="1170.371" cy="546.1328" fill="#B4A7E5" rx="11" ry="11" style="stroke:#181818;stroke-width:1.0;"/><path d="M1166.2929,541.8984 L1166.2929,539.7422 L1173.6835,539.7422 L1173.6835,541.8984 L1171.2147,541.8984 L1171.2147,549.9766 L1173.6835,549.9766 L1173.6835,552.1328 L1166.2929,552.1328 L1166.2929,549.9766 L1168.7616,549.9766 L1168.7616,541.8984 L1166.2929,541.8984 Z " fill="#000000"/><text fill="#000000" font-family="sans-serif" font-size="12" font-style="italic" lengthAdjust="spacing" textLength="97.7461" x="1205.9972" y="542.1387">&#171;domain event&#187;</text><text fill="#000000" font-family="sans-serif" font-size="14" font-style="italic" lengthAdjust="spacing" textLength="128.6113" x="1190.5646" y="557.9639">StartRoutingEvent</text><line style="stroke:#181818;stroke-width:0.5;" x1="1128.5" x2="1349.0469" y1="566.2656" y2="566.2656"/><ellipse cx="1138.5" cy="579.9141" fill="none" rx="3" ry="3" style="stroke:#038048;stroke-width:1.0;"/><text fill="#000000" font-family="sans-serif" font-size="14" lengthAdjust="spacing" textLength="196.5469" x="1147.5" y="583.2607">arrivalPosition: GPSLocation</text><ellipse cx="1138.5" cy="596.2109" fill="none" rx="3" ry="3" style="stroke:#038048;stroke-width:1.0;"/><text fill="#000000" font-family="sans-serif" font-size="14" lengthAdjust="spacing" textLength="193.5459" x="1147.5" y="599.5576">estimatedArrivalTime: Date</text><line style="stroke:#181818;stroke-width:0.5;" x1="1128.5" x2="1349.0469" y1="606.8594" y2="606.8594"/></g><!--class TrackingEvent--><g id="elem_TrackingEvent"><rect codeLine="59" fill="#F1F1F1" height="72.5625" id="TrackingEvent" rx="2.5" ry="2.5" style="stroke:#181818;stroke-width:0.5;" width="178.2568" x="915" y="534"/><ellipse cx="950.6143" cy="554.1328" fill="#B4A7E5" rx="11" ry="11" style="stroke:#181818;stroke-width:1.0;"/><path d="M946.5362,549.8984 L946.5362,547.7422 L953.9268,547.7422 L953.9268,549.8984 L951.4581,549.8984 L951.4581,557.9766 L953.9268,557.9766 L953.9268,560.1328 L946.5362,560.1328 L946.5362,557.9766 L949.0049,557.9766 L949.0049,549.8984 L946.5362,549.8984 Z " fill="#000000"/><text fill="#000000" font-family="sans-serif" font-size="12" font-style="italic" lengthAdjust="spacing" textLength="97.7461" x="970.5458" y="550.1387">&#171;domain event&#187;</text><text fill="#000000" font-family="sans-serif" font-size="14" font-style="italic" lengthAdjust="spacing" textLength="100.4473" x="969.1953" y="565.9639">TrackingEvent</text><line style="stroke:#181818;stroke-width:0.5;" x1="916" x2="1092.2568" y1="574.2656" y2="574.2656"/><ellipse cx="926" cy="587.9141" fill="none" rx="3" ry="3" style="stroke:#038048;stroke-width:1.0;"/><text fill="#000000" font-family="sans-serif" font-size="14" lengthAdjust="spacing" textLength="152.2568" x="935" y="591.2607">position: GPSLocation</text><line style="stroke:#181818;stroke-width:0.5;" x1="916" x2="1092.2568" y1="598.5625" y2="598.5625"/></g><!--class StopRoutingEvent--><g id="elem_StopRoutingEvent"><rect codeLine="66" fill="#F1F1F1" height="56.2656" id="StopRoutingEvent" rx="2.5" ry="2.5" style="stroke:#181818;stroke-width:0.5;" width="158.2393" x="722" y="542.5"/><ellipse cx="737" cy="562.6328" fill="#B4A7E5" rx="11" ry="11" style="stroke:#181818;stroke-width:1.0;"/><path d="M732.9219,558.3984 L732.9219,556.2422 L740.3125,556.2422 L740.3125,558.3984 L737.8438,558.3984 L737.8438,566.4766 L740.3125,566.4766 L740.3125,568.6328 L732.9219,568.6328 L732.9219,566.4766 L735.3906,566.4766 L735.3906,558.3984 L732.9219,558.3984 Z " fill="#000000"/><text fill="#000000" font-family="sans-serif" font-size="12" font-style="italic" lengthAdjust="spacing" textLength="97.7461" x="765.2466" y="558.6387">&#171;domain event&#187;</text><text fill="#000000" font-family="sans-serif" font-size="14" font-style="italic" lengthAdjust="spacing" textLength="126.2393" x="751" y="574.4639">StopRoutingEvent</text><line style="stroke:#181818;stroke-width:0.5;" x1="723" x2="879.2393" y1="582.7656" y2="582.7656"/><line style="stroke:#181818;stroke-width:0.5;" x1="723" x2="879.2393" y1="590.7656" y2="590.7656"/></g><!--class SOSAlertEvent--><g id="elem_SOSAlertEvent"><rect codeLine="68" fill="#F1F1F1" height="72.5625" id="SOSAlertEvent" rx="2.5" ry="2.5" style="stroke:#181818;stroke-width:0.5;" width="178.2568" x="1386" y="534"/><ellipse cx="1420.8145" cy="554.1328" fill="#B4A7E5" rx="11" ry="11" style="stroke:#181818;stroke-width:1.0;"/><path d="M1416.7364,549.8984 L1416.7364,547.7422 L1424.127,547.7422 L1424.127,549.8984 L1421.6583,549.8984 L1421.6583,557.9766 L1424.127,557.9766 L1424.127,560.1328 L1416.7364,560.1328 L1416.7364,557.9766 L1419.2051,557.9766 L1419.2051,549.8984 L1416.7364,549.8984 Z " fill="#000000"/><text fill="#000000" font-family="sans-serif" font-size="12" font-style="italic" lengthAdjust="spacing" textLength="97.7461" x="1441.457" y="550.1387">&#171;domain event&#187;</text><text fill="#000000" font-family="sans-serif" font-size="14" font-style="italic" lengthAdjust="spacing" textLength="102.2246" x="1439.2177" y="565.9639">SOSAlertEvent</text><line style="stroke:#181818;stroke-width:0.5;" x1="1387" x2="1563.2568" y1="574.2656" y2="574.2656"/><ellipse cx="1397" cy="587.9141" fill="none" rx="3" ry="3" style="stroke:#038048;stroke-width:1.0;"/><text fill="#000000" font-family="sans-serif" font-size="14" lengthAdjust="spacing" textLength="152.2568" x="1406" y="591.2607">position: GPSLocation</text><line style="stroke:#181818;stroke-width:0.5;" x1="1387" x2="1563.2568" y1="598.5625" y2="598.5625"/></g><!--class Route--><g id="elem_Route"><rect codeLine="75" fill="#F1F1F1" height="105.1563" id="Route" rx="2.5" ry="2.5" style="stroke:#181818;stroke-width:0.5;" width="362.9707" x="822.5" y="687"/><ellipse cx="949.2793" cy="707.1328" fill="#B4A7E5" rx="11" ry="11" style="stroke:#181818;stroke-width:1.0;"/><path d="M945.2012,702.8984 L945.2012,700.7422 L952.5918,700.7422 L952.5918,702.8984 L950.123,702.8984 L950.123,710.9766 L952.5918,710.9766 L952.5918,713.1328 L945.2012,713.1328 L945.2012,710.9766 L947.6699,710.9766 L947.6699,702.8984 L945.2012,702.8984 Z " fill="#000000"/><text fill="#000000" font-family="sans-serif" font-size="12" font-style="italic" lengthAdjust="spacing" textLength="104.9121" x="967.7793" y="703.1387">&#171;aggregate root&#187;</text><text fill="#000000" font-family="sans-serif" font-size="14" font-style="italic" lengthAdjust="spacing" textLength="41.2686" x="999.6011" y="718.9639">Route</text><line style="stroke:#181818;stroke-width:0.5;" x1="823.5" x2="1184.4707" y1="727.2656" y2="727.2656"/><ellipse cx="833.5" cy="740.9141" fill="none" rx="3" ry="3" style="stroke:#038048;stroke-width:1.0;"/><text fill="#000000" font-family="sans-serif" font-size="14" lengthAdjust="spacing" textLength="177.6523" x="842.5" y="744.2607">event: StartRoutingEvent</text><ellipse cx="833.5" cy="757.2109" fill="none" rx="3" ry="3" style="stroke:#038048;stroke-width:1.0;"/><text fill="#000000" font-family="sans-serif" font-size="14" lengthAdjust="spacing" textLength="220.2949" x="842.5" y="760.5576">positions: List&lt;TrackingEvent&gt;</text><line style="stroke:#181818;stroke-width:0.5;" x1="823.5" x2="1184.4707" y1="767.8594" y2="767.8594"/><ellipse cx="833.5" cy="781.5078" fill="#84BE84" rx="3" ry="3" style="stroke:#038048;stroke-width:1.0;"/><text fill="#000000" font-family="sans-serif" font-size="14" lengthAdjust="spacing" textLength="336.9707" x="842.5" y="784.8545">addTrace(TrackingEvent: TrackingEvent): Route</text></g><!--link UserId to User--><g id="link_UserId_User"><path codeLine="42" d="M943.75,140.04 C953.79,157.29 961.0024,169.6595 972.5124,189.4295 " fill="none" id="UserId-to-User" style="stroke:#181818;stroke-width:1.0;"/><polygon fill="#181818" points="978.55,199.8,978.988,192.6022,972.5124,189.4295,972.0744,196.6273,978.55,199.8" style="stroke:#181818;stroke-width:1.0;"/><text fill="#000000" font-family="sans-serif" font-size="13" lengthAdjust="spacing" textLength="9.7246" x="937.3911" y="160.3102">N</text></g><!--link GroupId to User--><g id="link_GroupId_User"><path codeLine="43" d="M1063.46,140.04 C1053.55,157.29 1046.4625,169.6276 1035.0925,189.3976 " fill="none" id="GroupId-to-User" style="stroke:#181818;stroke-width:1.0;"/><polygon fill="#181818" points="1029.11,199.8,1035.5687,196.593,1035.0925,189.3976,1028.6338,192.6046,1029.11,199.8" style="stroke:#181818;stroke-width:1.0;"/><text fill="#000000" font-family="sans-serif" font-size="13" lengthAdjust="spacing" textLength="9.7246" x="1049.8653" y="160.3102">N</text></g><!--link User to Event--><g id="link_User_Event"><path codeLine="50" d="M1004,289.09 C1004,311.65 1004,326.99 1004,348.95 " fill="none" id="User-to-Event" style="stroke:#181818;stroke-width:1.0;"/><polygon fill="#181818" points="1004,360.95,1008,354.95,1004,348.95,1000,354.95,1004,360.95" style="stroke:#181818;stroke-width:1.0;"/><text fill="#000000" font-family="sans-serif" font-size="13" lengthAdjust="spacing" textLength="8.271" x="995.4655" y="308.8277">1</text></g><!--reverse link Event to StartRoutingEvent--><g id="link_Event_StartRoutingEvent"><path d="M1074.364,452.5046 C1109.794,477.6746 1141.02,499.87 1177.51,525.81 " fill="none" id="Event-backto-StartRoutingEvent" style="stroke:#181818;stroke-width:1.0;"/><polygon fill="none" points="1059.69,442.08,1070.8891,457.396,1077.8389,447.6133,1059.69,442.08" style="stroke:#181818;stroke-width:1.0;"/></g><!--reverse link StartRoutingEvent to GPSLocation--><g id="link_StartRoutingEvent_GPSLocation"><path codeLine="57" d="M1257.8538,626.7375 C1266.2238,651.2775 1272.76,670.42 1281.12,694.92 " fill="none" id="StartRoutingEvent-backto-GPSLocation" style="stroke:#181818;stroke-width:1.0;"/><polygon fill="#181818" points="1253.98,615.38,1252.131,622.35,1257.8538,626.7375,1259.7027,619.7675,1253.98,615.38" style="stroke:#181818;stroke-width:1.0;"/><text fill="#000000" font-family="sans-serif" font-size="13" lengthAdjust="spacing" textLength="8.271" x="1270.2695" y="684.0331">1</text></g><!--reverse link Event to TrackingEvent--><g id="link_Event_TrackingEvent"><path d="M1004,460.08 C1004,487.95 1004,506.96 1004,533.9 " fill="none" id="Event-backto-TrackingEvent" style="stroke:#181818;stroke-width:1.0;"/><polygon fill="none" points="1004,442.08,998,460.08,1010,460.08,1004,442.08" style="stroke:#181818;stroke-width:1.0;"/></g><!--reverse link TrackingEvent to GPSLocation--><g id="link_TrackingEvent_GPSLocation"><path codeLine="64" d="M1076.6968,613.0774 C1121.7568,638.8474 1172.46,667.85 1220.33,695.22 " fill="none" id="TrackingEvent-backto-GPSLocation" style="stroke:#181818;stroke-width:1.0;"/><polygon fill="#181818" points="1066.28,607.12,1069.5026,613.571,1076.6968,613.0774,1073.4742,606.6264,1066.28,607.12" style="stroke:#181818;stroke-width:1.0;"/><text fill="#000000" font-family="sans-serif" font-size="13" lengthAdjust="spacing" textLength="8.271" x="1204.1413" y="686.9612">1</text></g><!--reverse link Event to StopRoutingEvent--><g id="link_Event_StopRoutingEvent"><path d="M941.9899,453.5163 C904.3599,484.4763 866.93,515.26 833.87,542.46 " fill="none" id="Event-backto-StopRoutingEvent" style="stroke:#181818;stroke-width:1.0;"/><polygon fill="none" points="955.89,442.08,938.1778,448.8829,945.802,458.1496,955.89,442.08" style="stroke:#181818;stroke-width:1.0;"/></g><!--reverse link Event to SOSAlertEvent--><g id="link_Event_SOSAlertEvent"><path d="M1093.5439,425.0059 C1167.9639,444.4759 1269.34,473.69 1368,514 C1382.24,519.82 1397.12,526.87 1411.1,533.97 " fill="none" id="Event-backto-SOSAlertEvent" style="stroke:#181818;stroke-width:1.0;"/><polygon fill="none" points="1076.13,420.45,1092.0253,430.8105,1095.0625,419.2012,1076.13,420.45" style="stroke:#181818;stroke-width:1.0;"/></g><!--reverse link SOSAlertEvent to GPSLocation--><g id="link_SOSAlertEvent_GPSLocation"><path codeLine="73" d="M1427.8239,615.5142 C1400.3939,641.0942 1372.11,667.49 1342.93,694.72 " fill="none" id="SOSAlertEvent-backto-GPSLocation" style="stroke:#181818;stroke-width:1.0;"/><polygon fill="#181818" points="1436.6,607.33,1429.4839,608.4967,1427.8239,615.5142,1434.94,614.3474,1436.6,607.33" style="stroke:#181818;stroke-width:1.0;"/><text fill="#000000" font-family="sans-serif" font-size="13" lengthAdjust="spacing" textLength="8.271" x="1341.5441" y="683.8025">1</text></g><!--link StartRoutingEvent to Route--><g id="link_StartRoutingEvent_Route"><path codeLine="81" d="M1177.56,615.16 C1146.69,637.1 1118.8618,656.8789 1086.5518,679.8389 " fill="none" id="StartRoutingEvent-to-Route" style="stroke:#181818;stroke-width:1.0;"/><polygon fill="#181818" points="1076.77,686.79,1083.9779,686.575,1086.5518,679.8389,1079.3439,680.0539,1076.77,686.79" style="stroke:#181818;stroke-width:1.0;"/><text fill="#000000" font-family="sans-serif" font-size="13" lengthAdjust="spacing" textLength="8.271" x="1160.0017" y="634.908">1</text></g><!--link TrackingEvent to Route--><g id="link_TrackingEvent_Route"><path codeLine="82" d="M1004,607.33 C1004,630.52 1004,649.09 1004,674.89 " fill="none" id="TrackingEvent-to-Route" style="stroke:#181818;stroke-width:1.0;"/><polygon fill="#181818" points="1004,686.89,1008,680.89,1004,674.89,1000,680.89,1004,686.89" style="stroke:#181818;stroke-width:1.0;"/><text fill="#000000" font-family="sans-serif" font-size="13" lengthAdjust="spacing" textLength="9.7246" x="994.3201" y="626.5074">N</text></g><!--reverse link TrackingEventsReader to TrackingEventsStore--><g id="link_TrackingEventsReader_TrackingEventsStore"><path d="M292.4737,788.911 C319.9937,816.971 345.21,842.69 370.35,868.32 " fill="none" id="TrackingEventsReader-backto-TrackingEventsStore" style="stroke:#181818;stroke-width:1.0;"/><polygon fill="none" points="279.87,776.06,288.19,793.1122,296.7573,784.7098,279.87,776.06" style="stroke:#181818;stroke-width:1.0;"/></g><!--reverse link TrackingEventsWriter to TrackingEventsStore--><g id="link_TrackingEventsWriter_TrackingEventsStore"><path d="M502.2545,788.8698 C474.5545,816.9298 449.13,842.69 423.83,868.32 " fill="none" id="TrackingEventsWriter-backto-TrackingEventsStore" style="stroke:#181818;stroke-width:1.0;"/><polygon fill="none" points="514.9,776.06,497.9846,784.6547,506.5245,793.085,514.9,776.06" style="stroke:#181818;stroke-width:1.0;"/></g><!--link TrackingEvent to TrackingEventsReader--><g id="link_TrackingEvent_TrackingEventsReader"><path codeLine="92" d="M945.37,607.01 C930.38,614.73 913.97,622.05 898,627 C682.09,693.86 613.25,636.23 393,687 C374.71,691.22 366.9092,693.1202 348.6492,699.1802 " fill="none" id="TrackingEvent-to-TrackingEventsReader" style="stroke:#181818;stroke-width:1.0;stroke-dasharray:7.0,7.0;"/><polygon fill="none" points="337.26,702.96,344.2145,704.8665,348.6492,699.1802,341.6947,697.2737,337.26,702.96" style="stroke:#181818;stroke-width:1.0;"/></g><!--link TrackingEvent to TrackingEventsWriter--><g id="link_TrackingEvent_TrackingEventsWriter"><path codeLine="93" d="M940.42,607.14 C926.65,614.19 912.01,621.2 898,627 C815.4,661.21 791.12,659.65 706,687 C690.11,692.1 684.7414,693.8174 668.3214,699.2074 " fill="none" id="TrackingEvent-to-TrackingEventsWriter" style="stroke:#181818;stroke-width:1.0;stroke-dasharray:7.0,7.0;"/><polygon fill="none" points="656.92,702.95,663.8683,704.8792,668.3214,699.2074,661.3732,697.2782,656.92,702.95" style="stroke:#181818;stroke-width:1.0;"/></g><!--link GPSLocation to MapsService--><g id="link_GPSLocation_MapsService"><path codeLine="108" d="M1296,784.09 C1296,805.31 1296,818.76 1296,839.97 " fill="none" id="GPSLocation-to-MapsService" style="stroke:#181818;stroke-width:1.0;stroke-dasharray:7.0,7.0;"/><polygon fill="none" points="1296,851.97,1300,845.97,1296,839.97,1292,845.97,1296,851.97" style="stroke:#181818;stroke-width:1.0;"/></g><!--reverse link UserTrackingInfoService to State--><g id="link_UserTrackingInfoService_State"><path codeLine="128" d="M384.0473,465.0371 C374.1073,483.9071 368.43,494.67 358.33,513.84 " fill="none" id="UserTrackingInfoService-backto-State" style="stroke:#181818;stroke-width:1.0;stroke-dasharray:7.0,7.0;"/><polygon fill="none" points="389.64,454.42,383.3046,457.8643,384.0473,465.0371,390.3827,461.5928,389.64,454.42" style="stroke:#181818;stroke-width:1.0;"/></g><!--reverse link UserTrackingInfoService to UserTrackingInfoServiceImpl--><g id="link_UserTrackingInfoService_UserTrackingInfoServiceImpl"><path d="M461.8448,469.37 C482.5248,500.21 497.69,522.82 513.55,546.46 " fill="none" id="UserTrackingInfoService-backto-UserTrackingInfoServiceImpl" style="stroke:#181818;stroke-width:1.0;stroke-dasharray:7.0,7.0;"/><polygon fill="none" points="451.82,454.42,456.8615,472.7116,466.8282,466.0284,451.82,454.42" style="stroke:#181818;stroke-width:1.0;"/></g><!--reverse link UserTrackingInfoServiceImpl to TrackingEventsReader--><g id="link_UserTrackingInfoServiceImpl_TrackingEventsReader"><path codeLine="131" d="M479.4651,600.6314 C431.8351,628.6314 361.3,670.11 305.61,702.86 " fill="none" id="UserTrackingInfoServiceImpl-backto-TrackingEventsReader" style="stroke:#181818;stroke-width:1.0;"/><polygon fill="#181818" points="489.81,594.55,482.6104,594.1424,479.4651,600.6314,486.6647,601.039,489.81,594.55" style="stroke:#181818;stroke-width:1.0;"/></g><!--link Event to RealTimeTrackingService--><g id="link_Event_RealTimeTrackingService"><path codeLine="136" d="M970.06,360.7 C953.91,344.44 933.18,327.58 910.5,319 C843.67,293.73 336.44,300.26 267.5,319 C234.2,328.05 210.663,340.4869 184.743,358.0569 " fill="none" id="Event-to-RealTimeTrackingService" style="stroke:#181818;stroke-width:1.0;stroke-dasharray:7.0,7.0;"/><polygon fill="none" points="174.81,364.79,182.0209,364.7344,184.743,358.0569,177.5321,358.1124,174.81,364.79" style="stroke:#181818;stroke-width:1.0;"/></g><!--reverse link RealTimeTrackingService to ActorBasedTrackingService--><g id="link_RealTimeTrackingService_ActorBasedTrackingService"><path d="M129.2562,456.3141 C130.6262,488.8941 131.84,518.06 133.02,546.07 " fill="none" id="RealTimeTrackingService-backto-ActorBasedTrackingService" style="stroke:#181818;stroke-width:1.0;stroke-dasharray:7.0,7.0;"/><polygon fill="none" points="128.5,438.33,123.2615,456.5662,135.2509,456.062,128.5,438.33" style="stroke:#181818;stroke-width:1.0;"/></g><!--SRC=[jLTTRziW57tFhq1zMT8raVfgHP6ohQeiTMtLPDipCSHbiuq5E5fLzR_l0dOD62VPfFafXiEzvzmlanfdlt1E4QxhWcLOCLwXrmc2fsvt22ynwnRrmof5nHvd5Dq-RkvuUsYvFE2YeOZlVj9ChLRE0VryH0NWL4DeWhxmPbVGS9jNUNp_RVB-CokmbEYRf0ByqGeClaGyCP8OJ4h2ZUfMyAQM2TfGjJI_Kx9o70tzf6IWB42rPeQmTvpXUpblvkZY_Y9avc-snYQHODySGF10gs8bbGgNDOGDgp2e3HYtiOX5qxY-kBv0y_cbDH_pkr5Og2VUA5RbbiDosTO4rQ-G0FfRqOh84OfO20QXUUIIwKf9tB89e225bI23hEsPBQWBX3dyXymkvtCZoFKGaRGLKDl_AgUEweZnyzsSoMsZUFqNqOwQUDYi2ohKVvRdkud9wv0HZbeY1MuupmND8S58S1uR6uPrCipr26texJicrTAB_IgiI4BqFfrwgCHFs2on96FIBNlRjQ1vd9mBXFRs74mSeoErAPye9cROWPqTRoe2GeKV9ZrPfNhOJ_jcdoLHJySS_H1CdNGayU54pCxm10KkQCGHA-k2bXeHZS5LbF1aq6TToFYYgHUHC4Hbny06_I4isL7whos-7RmrWPgUcYDj7SqymEx5prTVQXs2q8AEc7ZhoBcKh0Ph9qZ0LrpB3HK7bj4J6Uu6i3D_fr9NjpSEhX0C46zb5anfe0zTYAlixEFXt6WrkjIjmi5OwdNgM7P9JAizxpMpwcZtc6bmkeNi0Q5378BzKM6jmbWO0isYqoOLrxEFvSyAyVsOWYHfdRvxM2jKSgdGTJzS3GJLphTUEzOBFKPV5n2J_GBE53jOFf0KmwPzQKhBrGlM-lCs_NvpvQoazyCr-3AuhqyFtxRf_QqZUYnHVB5e0pJnhs4HS0hpmXqQ8x1Z_em9_U6AJP2mk63Lz4E7FQkudd552ZfjFsA36Jbcao-A1UhhpiPXdK6VVyAIaX3kH674ObzgSBtGXNOCPtMZx1aBkFy3MBKWLE8A_X9eJt1VprdcrytR7m00]--></g></svg>