<?xml version="1.0" encoding="UTF-8" standalone="no"?><svg xmlns="http://www.w3.org/2000/svg" xmlns:xlink="http://www.w3.org/1999/xlink" contentScriptType="application/ecmascript" contentStyleType="text/css" height="193px" preserveAspectRatio="none" style="width:327px;height:193px;" version="1.1" viewBox="0 0 327 193" width="327px" zoomAndPan="magnify"><defs><filter height="300%" id="f1qej0mix5y1yg" width="300%" x="-1" y="-1"><feGaussianBlur result="blurOut" stdDeviation="2.0"/><feColorMatrix in="blurOut" result="blurOut2" type="matrix" values="0 0 0 0 0 0 0 0 0 0 0 0 0 0 0 0 0 0 .4 0"/><feOffset dx="4.0" dy="4.0" in="blurOut2" result="blurOut3"/><feBlend in="SourceGraphic" in2="blurOut3" mode="normal"/></filter></defs><g><line style="stroke: #A80036; stroke-width: 1.0; stroke-dasharray: 5.0,5.0;" x1="30" x2="30" y1="86.2969" y2="106.2969"/><line style="stroke: #A80036; stroke-width: 1.0; stroke-dasharray: 5.0,5.0;" x1="149" x2="149" y1="86.2969" y2="106.2969"/><line style="stroke: #A80036; stroke-width: 1.0; stroke-dasharray: 5.0,5.0;" x1="280" x2="280" y1="86.2969" y2="106.2969"/><text fill="#000000" font-family="sans-serif" font-size="14" lengthAdjust="spacingAndGlyphs" textLength="39" x="8" y="82.9951">Client</text><ellipse cx="30.5" cy="13" fill="#FEFECE" filter="url(#f1qej0mix5y1yg)" rx="8" ry="8" style="stroke: #A80036; stroke-width: 2.0;"/><path d="M30.5,21 L30.5,48 M17.5,29 L43.5,29 M30.5,48 L17.5,63 M30.5,48 L43.5,63 " fill="none" filter="url(#f1qej0mix5y1yg)" style="stroke: #A80036; stroke-width: 2.0;"/><text fill="#000000" font-family="sans-serif" font-size="14" lengthAdjust="spacingAndGlyphs" textLength="39" x="8" y="118.292">Client</text><ellipse cx="30.5" cy="131.5938" fill="#FEFECE" filter="url(#f1qej0mix5y1yg)" rx="8" ry="8" style="stroke: #A80036; stroke-width: 2.0;"/><path d="M30.5,139.5938 L30.5,166.5938 M17.5,147.5938 L43.5,147.5938 M30.5,166.5938 L17.5,181.5938 M30.5,166.5938 L43.5,181.5938 " fill="none" filter="url(#f1qej0mix5y1yg)" style="stroke: #A80036; stroke-width: 2.0;"/><path d="M68,43.7031 L230,43.7031 C235,43.7031 235,65 235,65 C235,65 235,86.2969 230,86.2969 L68,86.2969 C63,86.2969 63,65 63,65 C63,65 63,43.7031 68,43.7031 " fill="#FEFECE" filter="url(#f1qej0mix5y1yg)" style="stroke: #A80036; stroke-width: 2.0;"/><path d="M230,43.7031 C225,43.7031 225,65 225,65 C225,86.2969 230,86.2969 230,86.2969 " fill="none" style="stroke: #A80036; stroke-width: 2.0;"/><text fill="#000000" font-family="sans-serif" font-size="14" lengthAdjust="spacingAndGlyphs" textLength="67" x="108.5" y="61.6982">RabbitMQ</text><text fill="#000000" font-family="sans-serif" font-size="14" lengthAdjust="spacingAndGlyphs" textLength="148" x="72" y="77.9951">Notification Exchange</text><path d="M68,105.2969 L230,105.2969 C235,105.2969 235,126.5938 235,126.5938 C235,126.5938 235,147.8906 230,147.8906 L68,147.8906 C63,147.8906 63,126.5938 63,126.5938 C63,126.5938 63,105.2969 68,105.2969 " fill="#FEFECE" filter="url(#f1qej0mix5y1yg)" style="stroke: #A80036; stroke-width: 2.0;"/><path d="M230,105.2969 C225,105.2969 225,126.5938 225,126.5938 C225,147.8906 230,147.8906 230,147.8906 " fill="none" style="stroke: #A80036; stroke-width: 2.0;"/><text fill="#000000" font-family="sans-serif" font-size="14" lengthAdjust="spacingAndGlyphs" textLength="67" x="108.5" y="123.292">RabbitMQ</text><text fill="#000000" font-family="sans-serif" font-size="14" lengthAdjust="spacingAndGlyphs" textLength="148" x="72" y="139.5889">Notification Exchange</text><path d="M250,43.7031 L310,43.7031 C315,43.7031 315,65 315,65 C315,65 315,86.2969 310,86.2969 L250,86.2969 C245,86.2969 245,65 245,65 C245,65 245,43.7031 250,43.7031 " fill="#FEFECE" filter="url(#f1qej0mix5y1yg)" style="stroke: #A80036; stroke-width: 2.0;"/><path d="M310,43.7031 C305,43.7031 305,65 305,65 C305,86.2969 310,86.2969 310,86.2969 " fill="none" style="stroke: #A80036; stroke-width: 2.0;"/><text fill="#000000" font-family="sans-serif" font-size="14" lengthAdjust="spacingAndGlyphs" textLength="37" x="254.5" y="61.6982">Kafka</text><text fill="#000000" font-family="sans-serif" font-size="14" lengthAdjust="spacingAndGlyphs" textLength="46" x="254" y="77.9951">Broker</text><path d="M250,105.2969 L310,105.2969 C315,105.2969 315,126.5938 315,126.5938 C315,126.5938 315,147.8906 310,147.8906 L250,147.8906 C245,147.8906 245,126.5938 245,126.5938 C245,126.5938 245,105.2969 250,105.2969 " fill="#FEFECE" filter="url(#f1qej0mix5y1yg)" style="stroke: #A80036; stroke-width: 2.0;"/><path d="M310,105.2969 C305,105.2969 305,126.5938 305,126.5938 C305,147.8906 310,147.8906 310,147.8906 " fill="none" style="stroke: #A80036; stroke-width: 2.0;"/><text fill="#000000" font-family="sans-serif" font-size="14" lengthAdjust="spacingAndGlyphs" textLength="37" x="254.5" y="123.292">Kafka</text><text fill="#000000" font-family="sans-serif" font-size="14" lengthAdjust="spacingAndGlyphs" textLength="46" x="254" y="139.5889">Broker</text><!--MD5=[17175db5daa832f1666360f48c00f815]
@startuml location-service-interaction

actor   "Client"                            as client
queue   "RabbitMQ \n Notification Exchange" as rabbitmq_notifications
queue   "Kafka \n Broker"                   as kafka_broker

@enduml

PlantUML version 1.2020.02(Sun Mar 01 10:22:07 UTC 2020)
(GPL source distribution)
Java Runtime: OpenJDK Runtime Environment
JVM: OpenJDK 64-Bit Server VM
Java Version: 11.0.24+8
Operating System: Linux
Default Encoding: UTF-8
Language: en
Country: null
--></g></svg>