<svg xmlns="http://www.w3.org/2000/svg" xmlns:xlink="http://www.w3.org/1999/xlink" contentStyleType="text/css" data-diagram-type="CLASS" height="315px" preserveAspectRatio="none" style="width:2566px;height:315px;background:#FFFFFF;" version="1.1" viewBox="0 0 2566 315" width="2566px" zoomAndPan="magnify"><defs/><g><!--cluster application--><g id="cluster_application"><path d="M8.5,6 L97.4102,6 A3.75,3.75 0 0 1 99.9102,8.5 L106.9102,28.2969 L2556.5,28.2969 A2.5,2.5 0 0 1 2559,30.7969 L2559,305.5 A2.5,2.5 0 0 1 2556.5,308 L8.5,308 A2.5,2.5 0 0 1 6,305.5 L6,8.5 A2.5,2.5 0 0 1 8.5,6 " fill="#FFFFFF" fill-opacity="0.00000" style="stroke:#000000;stroke-width:1.5;"/><line style="stroke:#000000;stroke-width:1.5;" x1="6" x2="106.9102" y1="28.2969" y2="28.2969"/><text fill="#000000" font-family="sans-serif" font-size="14" font-weight="bold" lengthAdjust="spacing" textLength="87.9102" x="10" y="20.9951">application</text></g><!--class UserGroupsReader--><g id="elem_UserGroupsReader"><rect codeLine="190" fill="#F1F1F1" height="80.5938" id="UserGroupsReader" rx="2.5" ry="2.5" style="stroke:#181818;stroke-width:0.5;" width="313.3965" x="831.5" y="61"/><ellipse cx="917.7935" cy="77" fill="#B4A7E5" rx="11" ry="11" style="stroke:#181818;stroke-width:1;"/><path d="M913.7153,72.7656 L913.7153,70.6094 L921.106,70.6094 L921.106,72.7656 L918.6372,72.7656 L918.6372,80.8438 L921.106,80.8438 L921.106,83 L913.7153,83 L913.7153,80.8438 L916.1841,80.8438 L916.1841,72.7656 L913.7153,72.7656 Z " fill="#000000"/><text fill="#000000" font-family="sans-serif" font-size="14" font-style="italic" lengthAdjust="spacing" textLength="132.3096" x="938.2935" y="81.8467">UserGroupsReader</text><line style="stroke:#181818;stroke-width:0.5;" x1="832.5" x2="1143.8965" y1="93" y2="93"/><line style="stroke:#181818;stroke-width:0.5;" x1="832.5" x2="1143.8965" y1="101" y2="101"/><ellipse cx="842.5" cy="114.6484" fill="#84BE84" rx="3" ry="3" style="stroke:#038048;stroke-width:1;"/><text fill="#000000" font-family="sans-serif" font-size="14" lengthAdjust="spacing" textLength="258.7881" x="851.5" y="117.9951">groupsOf(user: UserId): Set[GroupId]</text><ellipse cx="842.5" cy="130.9453" fill="#84BE84" rx="3" ry="3" style="stroke:#038048;stroke-width:1;"/><text fill="#000000" font-family="sans-serif" font-size="14" lengthAdjust="spacing" textLength="287.3965" x="851.5" y="134.292">membersOf(group: GroupId): Set[UserId]</text></g><!--class UserGroupsWriter--><g id="elem_UserGroupsWriter"><rect codeLine="194" fill="#F1F1F1" height="80.5938" id="UserGroupsWriter" rx="2.5" ry="2.5" style="stroke:#181818;stroke-width:0.5;" width="373.6211" x="422" y="61"/><ellipse cx="541.8203" cy="77" fill="#B4A7E5" rx="11" ry="11" style="stroke:#181818;stroke-width:1;"/><path d="M537.7422,72.7656 L537.7422,70.6094 L545.1328,70.6094 L545.1328,72.7656 L542.6641,72.7656 L542.6641,80.8438 L545.1328,80.8438 L545.1328,83 L537.7422,83 L537.7422,80.8438 L540.2109,80.8438 L540.2109,72.7656 L537.7422,72.7656 Z " fill="#000000"/><text fill="#000000" font-family="sans-serif" font-size="14" font-style="italic" lengthAdjust="spacing" textLength="125.4805" x="562.3203" y="81.8467">UserGroupsWriter</text><line style="stroke:#181818;stroke-width:0.5;" x1="423" x2="794.6211" y1="93" y2="93"/><line style="stroke:#181818;stroke-width:0.5;" x1="423" x2="794.6211" y1="101" y2="101"/><ellipse cx="433" cy="114.6484" fill="#84BE84" rx="3" ry="3" style="stroke:#038048;stroke-width:1;"/><text fill="#000000" font-family="sans-serif" font-size="14" lengthAdjust="spacing" textLength="328.6104" x="442" y="117.9951">addMemberk(groupId: GroupId, userId: UserId)</text><ellipse cx="433" cy="130.9453" fill="#84BE84" rx="3" ry="3" style="stroke:#038048;stroke-width:1;"/><text fill="#000000" font-family="sans-serif" font-size="14" lengthAdjust="spacing" textLength="347.6211" x="442" y="134.292">removeMember(groupId: GroupId, userId: UserId)</text></g><!--class UserGroupsStore--><g id="elem_UserGroupsStore"><rect codeLine="198" fill="#F1F1F1" height="70.2344" id="UserGroupsStore" rx="2.5" ry="2.5" style="stroke:#181818;stroke-width:0.5;" width="151.4443" x="722.5" y="222"/><ellipse cx="737.5" cy="249.1172" fill="#B4A7E5" rx="11" ry="11" style="stroke:#181818;stroke-width:1;"/><path d="M733.4219,244.8828 L733.4219,242.7266 L740.8125,242.7266 L740.8125,244.8828 L738.3438,244.8828 L738.3438,252.9609 L740.8125,252.9609 L740.8125,255.1172 L733.4219,255.1172 L733.4219,252.9609 L735.8906,252.9609 L735.8906,244.8828 L733.4219,244.8828 Z " fill="#000000"/><text fill="#000000" font-family="sans-serif" font-size="12" font-style="italic" lengthAdjust="spacing" textLength="75.7559" x="773.3442" y="238.1387">&#171;repository&#187;</text><text fill="#000000" font-family="sans-serif" font-size="12" font-style="italic" lengthAdjust="spacing" textLength="62.877" x="779.7837" y="252.1074">&#171;out port&#187;</text><text fill="#000000" font-family="sans-serif" font-size="14" font-style="italic" lengthAdjust="spacing" textLength="119.4443" x="751.5" y="267.9326">UserGroupsStore</text><line style="stroke:#181818;stroke-width:0.5;" x1="723.5" x2="872.9443" y1="276.2344" y2="276.2344"/><line style="stroke:#181818;stroke-width:0.5;" x1="723.5" x2="872.9443" y1="284.2344" y2="284.2344"/></g><!--class UserGroupsService--><g id="elem_UserGroupsService"><rect codeLine="200" fill="#F1F1F1" height="121.4531" id="UserGroupsService" rx="2.5" ry="2.5" style="stroke:#181818;stroke-width:0.5;" width="399.8779" x="1180" y="41"/><ellipse cx="1308.7515" cy="61.1328" fill="#B4A7E5" rx="11" ry="11" style="stroke:#181818;stroke-width:1;"/><path d="M1304.6733,56.8984 L1304.6733,54.7422 L1312.064,54.7422 L1312.064,56.8984 L1309.5952,56.8984 L1309.5952,64.9766 L1312.064,64.9766 L1312.064,67.1328 L1304.6733,67.1328 L1304.6733,64.9766 L1307.1421,64.9766 L1307.1421,56.8984 L1304.6733,56.8984 Z " fill="#000000"/><text fill="#000000" font-family="sans-serif" font-size="12" font-style="italic" lengthAdjust="spacing" textLength="57.7969" x="1367.2905" y="57.1387">&#171;service&#187;</text><text fill="#000000" font-family="sans-serif" font-size="14" font-style="italic" lengthAdjust="spacing" textLength="133.875" x="1329.2515" y="72.9639">UserGroupsService</text><line style="stroke:#181818;stroke-width:0.5;" x1="1181" x2="1578.8779" y1="81.2656" y2="81.2656"/><line style="stroke:#181818;stroke-width:0.5;" x1="1181" x2="1578.8779" y1="89.2656" y2="89.2656"/><ellipse cx="1191" cy="102.9141" fill="#84BE84" rx="3" ry="3" style="stroke:#038048;stroke-width:1;"/><text fill="#000000" font-family="sans-serif" font-size="14" lengthAdjust="spacing" textLength="323.8867" x="1200" y="106.2607">addedMember(event: AddedMemberToGroup)</text><ellipse cx="1191" cy="119.2109" fill="#84BE84" rx="3" ry="3" style="stroke:#038048;stroke-width:1;"/><text fill="#000000" font-family="sans-serif" font-size="14" lengthAdjust="spacing" textLength="373.8779" x="1200" y="122.5576">removeMember(event: RemovedMemberFromGroup)</text><ellipse cx="1191" cy="135.5078" fill="#84BE84" rx="3" ry="3" style="stroke:#038048;stroke-width:1;"/><text fill="#000000" font-family="sans-serif" font-size="14" lengthAdjust="spacing" textLength="271.8037" x="1200" y="138.8545">groupsOf(userId: UserId): Set[GroupId]</text><ellipse cx="1191" cy="151.8047" fill="#84BE84" rx="3" ry="3" style="stroke:#038048;stroke-width:1;"/><text fill="#000000" font-family="sans-serif" font-size="14" lengthAdjust="spacing" textLength="300.4121" x="1200" y="155.1514">membersOf(groupId: GroupId): Set[UserId]</text></g><!--class NotificationService--><g id="elem_NotificationService"><rect codeLine="209" fill="#F1F1F1" height="105.1563" id="NotificationService" rx="2.5" ry="2.5" style="stroke:#181818;stroke-width:0.5;" width="717.0449" x="1615.5" y="49"/><ellipse cx="1903.7373" cy="69.1328" fill="#B4A7E5" rx="11" ry="11" style="stroke:#181818;stroke-width:1;"/><path d="M1899.6592,64.8984 L1899.6592,62.7422 L1907.0498,62.7422 L1907.0498,64.8984 L1904.5811,64.8984 L1904.5811,72.9766 L1907.0498,72.9766 L1907.0498,75.1328 L1899.6592,75.1328 L1899.6592,72.9766 L1902.1279,72.9766 L1902.1279,64.8984 L1899.6592,64.8984 Z " fill="#000000"/><text fill="#000000" font-family="sans-serif" font-size="12" font-style="italic" lengthAdjust="spacing" textLength="57.7969" x="1961.374" y="65.1387">&#171;service&#187;</text><text fill="#000000" font-family="sans-serif" font-size="14" font-style="italic" lengthAdjust="spacing" textLength="132.0703" x="1924.2373" y="80.9639">NotificationService</text><line style="stroke:#181818;stroke-width:0.5;" x1="1616.5" x2="2331.5449" y1="89.2656" y2="89.2656"/><line style="stroke:#181818;stroke-width:0.5;" x1="1616.5" x2="2331.5449" y1="97.2656" y2="97.2656"/><ellipse cx="1626.5" cy="110.9141" fill="#84BE84" rx="3" ry="3" style="stroke:#038048;stroke-width:1;"/><text fill="#000000" font-family="sans-serif" font-size="14" lengthAdjust="spacing" textLength="451.5273" x="1635.5" y="114.2607">sendToOwnGroup(scope: Scope, message: NotificationMessage)</text><ellipse cx="1626.5" cy="127.2109" fill="#84BE84" rx="3" ry="3" style="stroke:#038048;stroke-width:1;"/><text fill="#000000" font-family="sans-serif" font-size="14" lengthAdjust="spacing" textLength="565.1611" x="1635.5" y="130.5576">sendToGroup(recipient: GroupId, sender: UserId, message: NotificationMessage)</text><ellipse cx="1626.5" cy="143.5078" fill="#84BE84" rx="3" ry="3" style="stroke:#038048;stroke-width:1;"/><text fill="#000000" font-family="sans-serif" font-size="14" lengthAdjust="spacing" textLength="691.0449" x="1635.5" y="146.8545">sendToAllMembersSharingGroupWith(user: UserId, sender: UserId, message: NotificationMessage)</text></g><!--class UserSessionReader--><g id="elem_UserSessionReader"><rect codeLine="215" fill="#F1F1F1" height="48" id="UserSessionReader" rx="2.5" ry="2.5" style="stroke:#181818;stroke-width:0.5;" width="167.502" x="219" y="77.5"/><ellipse cx="234" cy="93.5" fill="#B4A7E5" rx="11" ry="11" style="stroke:#181818;stroke-width:1;"/><path d="M229.9219,89.2656 L229.9219,87.1094 L237.3125,87.1094 L237.3125,89.2656 L234.8438,89.2656 L234.8438,97.3438 L237.3125,97.3438 L237.3125,99.5 L229.9219,99.5 L229.9219,97.3438 L232.3906,97.3438 L232.3906,89.2656 L229.9219,89.2656 Z " fill="#000000"/><text fill="#000000" font-family="sans-serif" font-size="14" font-style="italic" lengthAdjust="spacing" textLength="135.502" x="248" y="98.3467">UserSessionReader</text><line style="stroke:#181818;stroke-width:0.5;" x1="220" x2="385.502" y1="109.5" y2="109.5"/><line style="stroke:#181818;stroke-width:0.5;" x1="220" x2="385.502" y1="117.5" y2="117.5"/></g><!--class UserSessionWriter--><g id="elem_UserSessionWriter"><rect codeLine="216" fill="#F1F1F1" height="48" id="UserSessionWriter" rx="2.5" ry="2.5" style="stroke:#181818;stroke-width:0.5;" width="160.6729" x="22.5" y="77.5"/><ellipse cx="37.5" cy="93.5" fill="#B4A7E5" rx="11" ry="11" style="stroke:#181818;stroke-width:1;"/><path d="M33.4219,89.2656 L33.4219,87.1094 L40.8125,87.1094 L40.8125,89.2656 L38.3438,89.2656 L38.3438,97.3438 L40.8125,97.3438 L40.8125,99.5 L33.4219,99.5 L33.4219,97.3438 L35.8906,97.3438 L35.8906,89.2656 L33.4219,89.2656 Z " fill="#000000"/><text fill="#000000" font-family="sans-serif" font-size="14" font-style="italic" lengthAdjust="spacing" textLength="128.6729" x="51.5" y="98.3467">UserSessionWriter</text><line style="stroke:#181818;stroke-width:0.5;" x1="23.5" x2="182.1729" y1="109.5" y2="109.5"/><line style="stroke:#181818;stroke-width:0.5;" x1="23.5" x2="182.1729" y1="117.5" y2="117.5"/></g><!--class UserSessionStore--><g id="elem_UserSessionStore"><rect codeLine="217" fill="#F1F1F1" height="70.2344" id="UserSessionStore" rx="2.5" ry="2.5" style="stroke:#181818;stroke-width:0.5;" width="154.6367" x="125.5" y="222"/><ellipse cx="140.5" cy="249.1172" fill="#B4A7E5" rx="11" ry="11" style="stroke:#181818;stroke-width:1;"/><path d="M136.4219,244.8828 L136.4219,242.7266 L143.8125,242.7266 L143.8125,244.8828 L141.3438,244.8828 L141.3438,252.9609 L143.8125,252.9609 L143.8125,255.1172 L136.4219,255.1172 L136.4219,252.9609 L138.8906,252.9609 L138.8906,244.8828 L136.4219,244.8828 Z " fill="#000000"/><text fill="#000000" font-family="sans-serif" font-size="12" font-style="italic" lengthAdjust="spacing" textLength="75.7559" x="177.9404" y="238.1387">&#171;repository&#187;</text><text fill="#000000" font-family="sans-serif" font-size="12" font-style="italic" lengthAdjust="spacing" textLength="62.877" x="184.3799" y="252.1074">&#171;out port&#187;</text><text fill="#000000" font-family="sans-serif" font-size="14" font-style="italic" lengthAdjust="spacing" textLength="122.6367" x="154.5" y="267.9326">UserSessionStore</text><line style="stroke:#181818;stroke-width:0.5;" x1="126.5" x2="279.1367" y1="276.2344" y2="276.2344"/><line style="stroke:#181818;stroke-width:0.5;" x1="126.5" x2="279.1367" y1="284.2344" y2="284.2344"/></g><!--class UsersSessionService--><g id="elem_UsersSessionService"><rect codeLine="219" fill="#F1F1F1" height="56.2656" id="UsersSessionService" rx="2.5" ry="2.5" style="stroke:#181818;stroke-width:0.5;" width="176.3613" x="2367" y="73.5"/><ellipse cx="2382" cy="93.6328" fill="#B4A7E5" rx="11" ry="11" style="stroke:#181818;stroke-width:1;"/><path d="M2377.9219,89.3984 L2377.9219,87.2422 L2385.3125,87.2422 L2385.3125,89.3984 L2382.8438,89.3984 L2382.8438,97.4766 L2385.3125,97.4766 L2385.3125,99.6328 L2377.9219,99.6328 L2377.9219,97.4766 L2380.3906,97.4766 L2380.3906,89.3984 L2377.9219,89.3984 Z " fill="#000000"/><text fill="#000000" font-family="sans-serif" font-size="12" font-style="italic" lengthAdjust="spacing" textLength="57.7969" x="2439.2822" y="89.6387">&#171;service&#187;</text><text fill="#000000" font-family="sans-serif" font-size="14" font-style="italic" lengthAdjust="spacing" textLength="144.3613" x="2396" y="105.4639">UsersSessionService</text><line style="stroke:#181818;stroke-width:0.5;" x1="2368" x2="2542.3613" y1="113.7656" y2="113.7656"/><line style="stroke:#181818;stroke-width:0.5;" x1="2368" x2="2542.3613" y1="121.7656" y2="121.7656"/></g><!--class MapsService--><g id="elem_MapsService"><rect codeLine="222" fill="#F1F1F1" height="56.2656" id="MapsService" rx="2.5" ry="2.5" style="stroke:#181818;stroke-width:0.5;" width="120.5801" x="1319.5" y="229"/><ellipse cx="1334.5" cy="249.1328" fill="#B4A7E5" rx="11" ry="11" style="stroke:#181818;stroke-width:1;"/><path d="M1330.4219,244.8984 L1330.4219,242.7422 L1337.8125,242.7422 L1337.8125,244.8984 L1335.3438,244.8984 L1335.3438,252.9766 L1337.8125,252.9766 L1337.8125,255.1328 L1330.4219,255.1328 L1330.4219,252.9766 L1332.8906,252.9766 L1332.8906,244.8984 L1330.4219,244.8984 Z " fill="#000000"/><text fill="#000000" font-family="sans-serif" font-size="12" font-style="italic" lengthAdjust="spacing" textLength="57.7969" x="1363.8916" y="245.1387">&#171;service&#187;</text><text fill="#000000" font-family="sans-serif" font-size="14" font-style="italic" lengthAdjust="spacing" textLength="88.5801" x="1348.5" y="260.9639">MapsService</text><line style="stroke:#181818;stroke-width:0.5;" x1="1320.5" x2="1439.0801" y1="269.2656" y2="269.2656"/><line style="stroke:#181818;stroke-width:0.5;" x1="1320.5" x2="1439.0801" y1="277.2656" y2="277.2656"/></g><!--class RealTimeTracking--><g id="elem_RealTimeTracking"><rect codeLine="225" fill="#F1F1F1" height="56.2656" id="RealTimeTracking" rx="2.5" ry="2.5" style="stroke:#181818;stroke-width:0.5;" width="157.8428" x="1476" y="229"/><ellipse cx="1491" cy="249.1328" fill="#B4A7E5" rx="11" ry="11" style="stroke:#181818;stroke-width:1;"/><path d="M1486.9219,244.8984 L1486.9219,242.7422 L1494.3125,242.7422 L1494.3125,244.8984 L1491.8438,244.8984 L1491.8438,252.9766 L1494.3125,252.9766 L1494.3125,255.1328 L1486.9219,255.1328 L1486.9219,252.9766 L1489.3906,252.9766 L1489.3906,244.8984 L1486.9219,244.8984 Z " fill="#000000"/><text fill="#000000" font-family="sans-serif" font-size="12" font-style="italic" lengthAdjust="spacing" textLength="57.7969" x="1539.0229" y="245.1387">&#171;service&#187;</text><text fill="#000000" font-family="sans-serif" font-size="14" font-style="italic" lengthAdjust="spacing" textLength="125.8428" x="1505" y="260.9639">RealTimeTracking</text><line style="stroke:#181818;stroke-width:0.5;" x1="1477" x2="1632.8428" y1="269.2656" y2="269.2656"/><line style="stroke:#181818;stroke-width:0.5;" x1="1477" x2="1632.8428" y1="277.2656" y2="277.2656"/></g><!--reverse link UserGroupsReader to UserGroupsStore--><g id="link_UserGroupsReader_UserGroupsStore"><path d="M925.0668,153.3397 C894.4968,178.0297 869.54,198.2 840.31,221.82 " fill="#FFFFFF" fill-opacity="0.00000" id="UserGroupsReader-backto-UserGroupsStore" style="stroke:#181818;stroke-width:1;"/><polygon fill="#FFFFFF" fill-opacity="0.00000" points="939.07,142.03,921.2969,148.672,928.8367,158.0075,939.07,142.03" style="stroke:#181818;stroke-width:1;"/></g><!--reverse link UserGroupsWriter to UserGroupsStore--><g id="link_UserGroupsWriter_UserGroupsStore"><path d="M671.6441,153.3756 C702.0541,178.0656 726.84,198.2 755.91,221.82 " fill="#FFFFFF" fill-opacity="0.00000" id="UserGroupsWriter-backto-UserGroupsStore" style="stroke:#181818;stroke-width:1;"/><polygon fill="#FFFFFF" fill-opacity="0.00000" points="657.67,142.03,667.8622,158.0337,675.426,148.7176,657.67,142.03" style="stroke:#181818;stroke-width:1;"/></g><!--reverse link UserSessionReader to UserSessionStore--><g id="link_UserSessionReader_UserSessionStore"><path d="M277.9865,140.8931 C261.3265,166.4731 244.24,192.7 225.21,221.91 " fill="#FFFFFF" fill-opacity="0.00000" id="UserSessionReader-backto-UserSessionStore" style="stroke:#181818;stroke-width:1;"/><polygon fill="#FFFFFF" fill-opacity="0.00000" points="287.81,125.81,272.9588,137.6186,283.0142,144.1676,287.81,125.81" style="stroke:#181818;stroke-width:1;"/></g><!--reverse link UserSessionWriter to UserSessionStore--><g id="link_UserSessionWriter_UserSessionStore"><path d="M128.0135,140.8931 C144.6735,166.4731 161.76,192.7 180.79,221.91 " fill="#FFFFFF" fill-opacity="0.00000" id="UserSessionWriter-backto-UserSessionStore" style="stroke:#181818;stroke-width:1;"/><polygon fill="#FFFFFF" fill-opacity="0.00000" points="118.19,125.81,122.9858,144.1676,133.0412,137.6186,118.19,125.81" style="stroke:#181818;stroke-width:1;"/></g><!--SRC=[dLH1Ri8m4Bpt5Ru1Qlg1225nQSM18f5K7AeUt6G1YoIsrWvjLV7tRcmN4fAqW2-ExPdPzQmtYYSxlW76bSf4mesG1Vk-ksCqH640rpm1zg81dr2MIY-1fu24O7xSiuqzMAo79Q52Yvsbev15O5ujQPQ-rU0vvE-05TuIG-Ondk7eZd3eJME5mfobmTDqRgLtJdYM7gK3LbhLOt8r6a8kz-2O5nBxqugCH63ZCOAIMj3YQpAXfImDKn8DBU3JG97gbgD1-tBzHOW0zoAf0cdtHS9dLe0tOmXxA4p8fgUjM5gLNXCyOsdtFESHPTvYDGfVC-dIqjUCxYo-dGOFDup1kNVFqeYrVzx_kQUfGB5SV1Gsjw5Ef09Ahve2keBMr2vXGt7kDaSj4QU0a0WbhAd7TrMTdxhbMjrfbhcww6ZBKHGRgxiIPjjembl27BgUNKG80lhcxmUubzj_Vbr_DA867N4w0kdVIBr5Rbrmpl_gg1QSqibYaKECzESawxivXny0]--></g></svg>