<svg xmlns="http://www.w3.org/2000/svg" xmlns:xlink="http://www.w3.org/1999/xlink" contentStyleType="text/css" data-diagram-type="CLASS" height="275px" preserveAspectRatio="none" style="width:1779px;height:275px;background:#1B1B1B;" version="1.1" viewBox="0 0 1779 275" width="1779px" zoomAndPan="magnify"><defs/><g><rect fill="#1B1B1B" height="275" style="stroke:#FFFFFF00;stroke-width:1;" width="1779" x="0" y="0"/><!--cluster application--><g id="cluster_application"><path d="M8.5,6 L97.4102,6 A3.75,3.75 0 0 1 99.9102,8.5 L106.9102,28.2969 L1769.5,28.2969 A2.5,2.5 0 0 1 1772,30.7969 L1772,265.5 A2.5,2.5 0 0 1 1769.5,268 L8.5,268 A2.5,2.5 0 0 1 6,265.5 L6,8.5 A2.5,2.5 0 0 1 8.5,6 " fill="#FFFFFF" fill-opacity="0.00000" style="stroke:#FFFFFF;stroke-width:1.5;"/><line style="stroke:#FFFFFF;stroke-width:1.5;" x1="6" x2="106.9102" y1="28.2969" y2="28.2969"/><text fill="#FFFFFF" font-family="sans-serif" font-size="14" font-weight="bold" lengthAdjust="spacing" textLength="87.9102" x="10" y="20.9951">application</text></g><!--class UserGroupsReader--><g id="elem_UserGroupsReader"><rect codeLine="190" fill="#313139" height="80.5938" id="UserGroupsReader" rx="2.5" ry="2.5" style="stroke:#E7E7E7;stroke-width:0.5;" width="313.3965" x="831.5" y="41"/><ellipse cx="917.7935" cy="57" fill="#352866" rx="11" ry="11" style="stroke:#E7E7E7;stroke-width:1;"/><path d="M913.7153,52.7656 L913.7153,50.6094 L921.106,50.6094 L921.106,52.7656 L918.6372,52.7656 L918.6372,60.8438 L921.106,60.8438 L921.106,63 L913.7153,63 L913.7153,60.8438 L916.1841,60.8438 L916.1841,52.7656 L913.7153,52.7656 Z " fill="#FFFFFF"/><text fill="#FFFFFF" font-family="sans-serif" font-size="14" font-style="italic" lengthAdjust="spacing" textLength="132.3096" x="938.2935" y="61.8467">UserGroupsReader</text><line style="stroke:#E7E7E7;stroke-width:0.5;" x1="832.5" x2="1143.8965" y1="73" y2="73"/><line style="stroke:#E7E7E7;stroke-width:0.5;" x1="832.5" x2="1143.8965" y1="81" y2="81"/><ellipse cx="842.5" cy="94.6484" fill="#84BE84" rx="3" ry="3" style="stroke:#038048;stroke-width:1;"/><text fill="#FFFFFF" font-family="sans-serif" font-size="14" lengthAdjust="spacing" textLength="258.7881" x="851.5" y="97.9951">groupsOf(user: UserId): Set[GroupId]</text><ellipse cx="842.5" cy="110.9453" fill="#84BE84" rx="3" ry="3" style="stroke:#038048;stroke-width:1;"/><text fill="#FFFFFF" font-family="sans-serif" font-size="14" lengthAdjust="spacing" textLength="287.3965" x="851.5" y="114.292">membersOf(group: GroupId): Set[UserId]</text></g><!--class UserGroupsWriter--><g id="elem_UserGroupsWriter"><rect codeLine="194" fill="#313139" height="80.5938" id="UserGroupsWriter" rx="2.5" ry="2.5" style="stroke:#E7E7E7;stroke-width:0.5;" width="373.6211" x="422" y="41"/><ellipse cx="541.8203" cy="57" fill="#352866" rx="11" ry="11" style="stroke:#E7E7E7;stroke-width:1;"/><path d="M537.7422,52.7656 L537.7422,50.6094 L545.1328,50.6094 L545.1328,52.7656 L542.6641,52.7656 L542.6641,60.8438 L545.1328,60.8438 L545.1328,63 L537.7422,63 L537.7422,60.8438 L540.2109,60.8438 L540.2109,52.7656 L537.7422,52.7656 Z " fill="#FFFFFF"/><text fill="#FFFFFF" font-family="sans-serif" font-size="14" font-style="italic" lengthAdjust="spacing" textLength="125.4805" x="562.3203" y="61.8467">UserGroupsWriter</text><line style="stroke:#E7E7E7;stroke-width:0.5;" x1="423" x2="794.6211" y1="73" y2="73"/><line style="stroke:#E7E7E7;stroke-width:0.5;" x1="423" x2="794.6211" y1="81" y2="81"/><ellipse cx="433" cy="94.6484" fill="#84BE84" rx="3" ry="3" style="stroke:#038048;stroke-width:1;"/><text fill="#FFFFFF" font-family="sans-serif" font-size="14" lengthAdjust="spacing" textLength="328.6104" x="442" y="97.9951">addMemberk(groupId: GroupId, userId: UserId)</text><ellipse cx="433" cy="110.9453" fill="#84BE84" rx="3" ry="3" style="stroke:#038048;stroke-width:1;"/><text fill="#FFFFFF" font-family="sans-serif" font-size="14" lengthAdjust="spacing" textLength="347.6211" x="442" y="114.292">removeMember(groupId: GroupId, userId: UserId)</text></g><!--class UserGroupsStore--><g id="elem_UserGroupsStore"><rect codeLine="198" fill="#313139" height="70.2344" id="UserGroupsStore" rx="2.5" ry="2.5" style="stroke:#E7E7E7;stroke-width:0.5;" width="151.4443" x="722.5" y="182"/><ellipse cx="737.5" cy="209.1172" fill="#352866" rx="11" ry="11" style="stroke:#E7E7E7;stroke-width:1;"/><path d="M733.4219,204.8828 L733.4219,202.7266 L740.8125,202.7266 L740.8125,204.8828 L738.3438,204.8828 L738.3438,212.9609 L740.8125,212.9609 L740.8125,215.1172 L733.4219,215.1172 L733.4219,212.9609 L735.8906,212.9609 L735.8906,204.8828 L733.4219,204.8828 Z " fill="#FFFFFF"/><text fill="#000000" font-family="sans-serif" font-size="12" font-style="italic" lengthAdjust="spacing" textLength="75.7559" x="773.3442" y="198.1387">&#171;repository&#187;</text><text fill="#000000" font-family="sans-serif" font-size="12" font-style="italic" lengthAdjust="spacing" textLength="62.877" x="779.7837" y="212.1074">&#171;out port&#187;</text><text fill="#FFFFFF" font-family="sans-serif" font-size="14" font-style="italic" lengthAdjust="spacing" textLength="119.4443" x="751.5" y="227.9326">UserGroupsStore</text><line style="stroke:#E7E7E7;stroke-width:0.5;" x1="723.5" x2="872.9443" y1="236.2344" y2="236.2344"/><line style="stroke:#E7E7E7;stroke-width:0.5;" x1="723.5" x2="872.9443" y1="244.2344" y2="244.2344"/></g><!--class UserGroupsService--><g id="elem_UserGroupsService"><rect codeLine="200" fill="#313139" height="56.2656" id="UserGroupsService" rx="2.5" ry="2.5" style="stroke:#E7E7E7;stroke-width:0.5;" width="165.875" x="1180" y="53.5"/><ellipse cx="1195" cy="73.6328" fill="#352866" rx="11" ry="11" style="stroke:#E7E7E7;stroke-width:1;"/><path d="M1190.9219,69.3984 L1190.9219,67.2422 L1198.3125,67.2422 L1198.3125,69.3984 L1195.8438,69.3984 L1195.8438,77.4766 L1198.3125,77.4766 L1198.3125,79.6328 L1190.9219,79.6328 L1190.9219,77.4766 L1193.3906,77.4766 L1193.3906,69.3984 L1190.9219,69.3984 Z " fill="#FFFFFF"/><text fill="#000000" font-family="sans-serif" font-size="12" font-style="italic" lengthAdjust="spacing" textLength="57.7969" x="1247.0391" y="69.6387">&#171;service&#187;</text><text fill="#FFFFFF" font-family="sans-serif" font-size="14" font-style="italic" lengthAdjust="spacing" textLength="133.875" x="1209" y="85.4639">UserGroupsService</text><line style="stroke:#E7E7E7;stroke-width:0.5;" x1="1181" x2="1344.875" y1="93.7656" y2="93.7656"/><line style="stroke:#E7E7E7;stroke-width:0.5;" x1="1181" x2="1344.875" y1="101.7656" y2="101.7656"/></g><!--class NotificationService--><g id="elem_NotificationService"><rect codeLine="204" fill="#313139" height="56.2656" id="NotificationService" rx="2.5" ry="2.5" style="stroke:#E7E7E7;stroke-width:0.5;" width="164.0703" x="1381" y="53.5"/><ellipse cx="1396" cy="73.6328" fill="#352866" rx="11" ry="11" style="stroke:#E7E7E7;stroke-width:1;"/><path d="M1391.9219,69.3984 L1391.9219,67.2422 L1399.3125,67.2422 L1399.3125,69.3984 L1396.8438,69.3984 L1396.8438,77.4766 L1399.3125,77.4766 L1399.3125,79.6328 L1391.9219,79.6328 L1391.9219,77.4766 L1394.3906,77.4766 L1394.3906,69.3984 L1391.9219,69.3984 Z " fill="#FFFFFF"/><text fill="#000000" font-family="sans-serif" font-size="12" font-style="italic" lengthAdjust="spacing" textLength="57.7969" x="1447.1367" y="69.6387">&#171;service&#187;</text><text fill="#FFFFFF" font-family="sans-serif" font-size="14" font-style="italic" lengthAdjust="spacing" textLength="132.0703" x="1410" y="85.4639">NotificationService</text><line style="stroke:#E7E7E7;stroke-width:0.5;" x1="1382" x2="1544.0703" y1="93.7656" y2="93.7656"/><line style="stroke:#E7E7E7;stroke-width:0.5;" x1="1382" x2="1544.0703" y1="101.7656" y2="101.7656"/></g><!--class UserSessionReader--><g id="elem_UserSessionReader"><rect codeLine="207" fill="#313139" height="48" id="UserSessionReader" rx="2.5" ry="2.5" style="stroke:#E7E7E7;stroke-width:0.5;" width="167.502" x="219" y="57.5"/><ellipse cx="234" cy="73.5" fill="#352866" rx="11" ry="11" style="stroke:#E7E7E7;stroke-width:1;"/><path d="M229.9219,69.2656 L229.9219,67.1094 L237.3125,67.1094 L237.3125,69.2656 L234.8438,69.2656 L234.8438,77.3438 L237.3125,77.3438 L237.3125,79.5 L229.9219,79.5 L229.9219,77.3438 L232.3906,77.3438 L232.3906,69.2656 L229.9219,69.2656 Z " fill="#FFFFFF"/><text fill="#FFFFFF" font-family="sans-serif" font-size="14" font-style="italic" lengthAdjust="spacing" textLength="135.502" x="248" y="78.3467">UserSessionReader</text><line style="stroke:#E7E7E7;stroke-width:0.5;" x1="220" x2="385.502" y1="89.5" y2="89.5"/><line style="stroke:#E7E7E7;stroke-width:0.5;" x1="220" x2="385.502" y1="97.5" y2="97.5"/></g><!--class UserSessionWriter--><g id="elem_UserSessionWriter"><rect codeLine="208" fill="#313139" height="48" id="UserSessionWriter" rx="2.5" ry="2.5" style="stroke:#E7E7E7;stroke-width:0.5;" width="160.6729" x="22.5" y="57.5"/><ellipse cx="37.5" cy="73.5" fill="#352866" rx="11" ry="11" style="stroke:#E7E7E7;stroke-width:1;"/><path d="M33.4219,69.2656 L33.4219,67.1094 L40.8125,67.1094 L40.8125,69.2656 L38.3438,69.2656 L38.3438,77.3438 L40.8125,77.3438 L40.8125,79.5 L33.4219,79.5 L33.4219,77.3438 L35.8906,77.3438 L35.8906,69.2656 L33.4219,69.2656 Z " fill="#FFFFFF"/><text fill="#FFFFFF" font-family="sans-serif" font-size="14" font-style="italic" lengthAdjust="spacing" textLength="128.6729" x="51.5" y="78.3467">UserSessionWriter</text><line style="stroke:#E7E7E7;stroke-width:0.5;" x1="23.5" x2="182.1729" y1="89.5" y2="89.5"/><line style="stroke:#E7E7E7;stroke-width:0.5;" x1="23.5" x2="182.1729" y1="97.5" y2="97.5"/></g><!--class UserSessionStore--><g id="elem_UserSessionStore"><rect codeLine="209" fill="#313139" height="70.2344" id="UserSessionStore" rx="2.5" ry="2.5" style="stroke:#E7E7E7;stroke-width:0.5;" width="154.6367" x="125.5" y="182"/><ellipse cx="140.5" cy="209.1172" fill="#352866" rx="11" ry="11" style="stroke:#E7E7E7;stroke-width:1;"/><path d="M136.4219,204.8828 L136.4219,202.7266 L143.8125,202.7266 L143.8125,204.8828 L141.3438,204.8828 L141.3438,212.9609 L143.8125,212.9609 L143.8125,215.1172 L136.4219,215.1172 L136.4219,212.9609 L138.8906,212.9609 L138.8906,204.8828 L136.4219,204.8828 Z " fill="#FFFFFF"/><text fill="#000000" font-family="sans-serif" font-size="12" font-style="italic" lengthAdjust="spacing" textLength="75.7559" x="177.9404" y="198.1387">&#171;repository&#187;</text><text fill="#000000" font-family="sans-serif" font-size="12" font-style="italic" lengthAdjust="spacing" textLength="62.877" x="184.3799" y="212.1074">&#171;out port&#187;</text><text fill="#FFFFFF" font-family="sans-serif" font-size="14" font-style="italic" lengthAdjust="spacing" textLength="122.6367" x="154.5" y="227.9326">UserSessionStore</text><line style="stroke:#E7E7E7;stroke-width:0.5;" x1="126.5" x2="279.1367" y1="236.2344" y2="236.2344"/><line style="stroke:#E7E7E7;stroke-width:0.5;" x1="126.5" x2="279.1367" y1="244.2344" y2="244.2344"/></g><!--class UsersSessionService--><g id="elem_UsersSessionService"><rect codeLine="211" fill="#313139" height="56.2656" id="UsersSessionService" rx="2.5" ry="2.5" style="stroke:#E7E7E7;stroke-width:0.5;" width="176.3613" x="1580" y="53.5"/><ellipse cx="1595" cy="73.6328" fill="#352866" rx="11" ry="11" style="stroke:#E7E7E7;stroke-width:1;"/><path d="M1590.9219,69.3984 L1590.9219,67.2422 L1598.3125,67.2422 L1598.3125,69.3984 L1595.8438,69.3984 L1595.8438,77.4766 L1598.3125,77.4766 L1598.3125,79.6328 L1590.9219,79.6328 L1590.9219,77.4766 L1593.3906,77.4766 L1593.3906,69.3984 L1590.9219,69.3984 Z " fill="#FFFFFF"/><text fill="#000000" font-family="sans-serif" font-size="12" font-style="italic" lengthAdjust="spacing" textLength="57.7969" x="1652.2822" y="69.6387">&#171;service&#187;</text><text fill="#FFFFFF" font-family="sans-serif" font-size="14" font-style="italic" lengthAdjust="spacing" textLength="144.3613" x="1609" y="85.4639">UsersSessionService</text><line style="stroke:#E7E7E7;stroke-width:0.5;" x1="1581" x2="1755.3613" y1="93.7656" y2="93.7656"/><line style="stroke:#E7E7E7;stroke-width:0.5;" x1="1581" x2="1755.3613" y1="101.7656" y2="101.7656"/></g><!--class MapsService--><g id="elem_MapsService"><rect codeLine="214" fill="#313139" height="56.2656" id="MapsService" rx="2.5" ry="2.5" style="stroke:#E7E7E7;stroke-width:0.5;" width="120.5801" x="1202.5" y="189"/><ellipse cx="1217.5" cy="209.1328" fill="#352866" rx="11" ry="11" style="stroke:#E7E7E7;stroke-width:1;"/><path d="M1213.4219,204.8984 L1213.4219,202.7422 L1220.8125,202.7422 L1220.8125,204.8984 L1218.3438,204.8984 L1218.3438,212.9766 L1220.8125,212.9766 L1220.8125,215.1328 L1213.4219,215.1328 L1213.4219,212.9766 L1215.8906,212.9766 L1215.8906,204.8984 L1213.4219,204.8984 Z " fill="#FFFFFF"/><text fill="#000000" font-family="sans-serif" font-size="12" font-style="italic" lengthAdjust="spacing" textLength="57.7969" x="1246.8916" y="205.1387">&#171;service&#187;</text><text fill="#FFFFFF" font-family="sans-serif" font-size="14" font-style="italic" lengthAdjust="spacing" textLength="88.5801" x="1231.5" y="220.9639">MapsService</text><line style="stroke:#E7E7E7;stroke-width:0.5;" x1="1203.5" x2="1322.0801" y1="229.2656" y2="229.2656"/><line style="stroke:#E7E7E7;stroke-width:0.5;" x1="1203.5" x2="1322.0801" y1="237.2656" y2="237.2656"/></g><!--class RealTimeTracking--><g id="elem_RealTimeTracking"><rect codeLine="217" fill="#313139" height="56.2656" id="RealTimeTracking" rx="2.5" ry="2.5" style="stroke:#E7E7E7;stroke-width:0.5;" width="157.8428" x="1359" y="189"/><ellipse cx="1374" cy="209.1328" fill="#352866" rx="11" ry="11" style="stroke:#E7E7E7;stroke-width:1;"/><path d="M1369.9219,204.8984 L1369.9219,202.7422 L1377.3125,202.7422 L1377.3125,204.8984 L1374.8438,204.8984 L1374.8438,212.9766 L1377.3125,212.9766 L1377.3125,215.1328 L1369.9219,215.1328 L1369.9219,212.9766 L1372.3906,212.9766 L1372.3906,204.8984 L1369.9219,204.8984 Z " fill="#FFFFFF"/><text fill="#000000" font-family="sans-serif" font-size="12" font-style="italic" lengthAdjust="spacing" textLength="57.7969" x="1422.0229" y="205.1387">&#171;service&#187;</text><text fill="#FFFFFF" font-family="sans-serif" font-size="14" font-style="italic" lengthAdjust="spacing" textLength="125.8428" x="1388" y="220.9639">RealTimeTracking</text><line style="stroke:#E7E7E7;stroke-width:0.5;" x1="1360" x2="1515.8428" y1="229.2656" y2="229.2656"/><line style="stroke:#E7E7E7;stroke-width:0.5;" x1="1360" x2="1515.8428" y1="237.2656" y2="237.2656"/></g><!--reverse link UserGroupsReader to UserGroupsStore--><g id="link_UserGroupsReader_UserGroupsStore"><path d="M917.0333,132.3601 C890.0133,151.3501 872.66,163.54 846.69,181.79 " fill="#FFFFFF" fill-opacity="0.00000" id="UserGroupsReader-backto-UserGroupsStore" style="stroke:#E7E7E7;stroke-width:1;"/><polygon fill="#FFFFFF" fill-opacity="0.00000" points="931.76,122.01,913.5833,127.4512,920.4833,137.269,931.76,122.01" style="stroke:#E7E7E7;stroke-width:1;"/></g><!--reverse link UserGroupsWriter to UserGroupsStore--><g id="link_UserGroupsWriter_UserGroupsStore"><path d="M679.6431,132.3935 C706.5331,151.3835 723.74,163.54 749.57,181.79 " fill="#FFFFFF" fill-opacity="0.00000" id="UserGroupsWriter-backto-UserGroupsStore" style="stroke:#E7E7E7;stroke-width:1;"/><polygon fill="#FFFFFF" fill-opacity="0.00000" points="664.94,122.01,676.182,137.2946,683.1043,127.4925,664.94,122.01" style="stroke:#E7E7E7;stroke-width:1;"/></g><!--reverse link UserSessionReader to UserSessionStore--><g id="link_UserSessionReader_UserSessionStore"><path d="M274.7898,120.1574 C259.0098,141.2274 246.35,158.13 228.47,182 " fill="#FFFFFF" fill-opacity="0.00000" id="UserSessionReader-backto-UserSessionStore" style="stroke:#E7E7E7;stroke-width:1;"/><polygon fill="#FFFFFF" fill-opacity="0.00000" points="285.58,105.75,269.9874,116.5607,279.5923,123.7541,285.58,105.75" style="stroke:#E7E7E7;stroke-width:1;"/></g><!--reverse link UserSessionWriter to UserSessionStore--><g id="link_UserSessionWriter_UserSessionStore"><path d="M131.2102,120.1574 C146.9902,141.2274 159.65,158.13 177.53,182 " fill="#FFFFFF" fill-opacity="0.00000" id="UserSessionWriter-backto-UserSessionStore" style="stroke:#E7E7E7;stroke-width:1;"/><polygon fill="#FFFFFF" fill-opacity="0.00000" points="120.42,105.75,126.4077,123.7541,136.0126,116.5607,120.42,105.75" style="stroke:#E7E7E7;stroke-width:1;"/></g><!--SRC=[bPF1QiCm38RlVGeTDvOd2ANNaKCtM5fsA3juiH9CczZ8JkaOUVSfjbUwreREfmZ_d_xV4Z6YsOiEGHXpK8rmIW_mlLW07pKuf5Oq25kBz4nwDFODXKHY1SJp19s_U6qVHbQLNbl9nn9gT3iFLVBZGjvZ_uaqwprOGjH48k01cB8ntacvgnX2ohLllG-DAtbkNS3ekvx3NM24lJvY8Ey4yx5gfmbXkIGqsYeklbOhBlNem6XoNE39uI3jpKIBsyVbbr0Z7LKp6zdmnOtZpgPhwaKxrSR5fhaaDflLQ2rJSULvGSYRl__VLFwu5WcVX97zTRh_WMkHcsDIpd4E6zNZXlX_KKENPgOV]--></g></svg>