<svg xmlns="http://www.w3.org/2000/svg" xmlns:xlink="http://www.w3.org/1999/xlink" contentStyleType="text/css" data-diagram-type="CLASS" height="1310px" preserveAspectRatio="none" style="width:1663px;height:1310px;background:#FFFFFF;" version="1.1" viewBox="0 0 1663 1310" width="1663px" zoomAndPan="magnify"><defs/><g><!--cluster application--><g class="cluster" data-entity="application" data-source-line="186" data-uid="ent0002" id="cluster_application"><path d="M8.5,6 L97.4102,6 A3.75,3.75 0 0 1 99.9102,8.5 L106.9102,28.2969 L1653.5,28.2969 A2.5,2.5 0 0 1 1656,30.7969 L1656,1300.5 A2.5,2.5 0 0 1 1653.5,1303 L8.5,1303 A2.5,2.5 0 0 1 6,1300.5 L6,8.5 A2.5,2.5 0 0 1 8.5,6" fill="none" style="stroke:#000000;stroke-width:1.5;"/><line style="stroke:#000000;stroke-width:1.5;" x1="6" x2="106.9102" y1="28.2969" y2="28.2969"/><text fill="#000000" font-family="sans-serif" font-size="14" font-weight="bold" lengthAdjust="spacing" textLength="87.9102" x="10" y="20.9951">application</text></g><!--cluster groups--><g class="cluster" data-entity="groups" data-source-line="188" data-uid="ent0003" id="cluster_groups"><path d="M570.5,735 L626.3652,735 A3.75,3.75 0 0 1 628.8652,737.5 L635.8652,757.2969 L1629.5,757.2969 A2.5,2.5 0 0 1 1632,759.7969 L1632,1276.5 A2.5,2.5 0 0 1 1629.5,1279 L570.5,1279 A2.5,2.5 0 0 1 568,1276.5 L568,737.5 A2.5,2.5 0 0 1 570.5,735" fill="none" style="stroke:#000000;stroke-width:1.5;"/><line style="stroke:#000000;stroke-width:1.5;" x1="568" x2="635.8652" y1="757.2969" y2="757.2969"/><text fill="#000000" font-family="sans-serif" font-size="14" font-weight="bold" lengthAdjust="spacing" textLength="54.8652" x="572" y="749.9951">groups</text></g><!--cluster notifications--><g class="cluster" data-entity="notifications" data-source-line="212" data-uid="ent0013" id="cluster_notifications"><path d="M140.5,651 L240.6211,651 A3.75,3.75 0 0 1 243.1211,653.5 L250.1211,673.2969 L541.5,673.2969 A2.5,2.5 0 0 1 544,675.7969 L544,1138 A2.5,2.5 0 0 1 541.5,1140.5 L140.5,1140.5 A2.5,2.5 0 0 1 138,1138 L138,653.5 A2.5,2.5 0 0 1 140.5,651" fill="none" style="stroke:#000000;stroke-width:1.5;"/><line style="stroke:#000000;stroke-width:1.5;" x1="138" x2="250.1211" y1="673.2969" y2="673.2969"/><text fill="#000000" font-family="sans-serif" font-size="14" font-weight="bold" lengthAdjust="spacing" textLength="99.1211" x="142" y="665.9951">notifications</text></g><!--cluster sessions--><g class="cluster" data-entity="sessions" data-source-line="225" data-uid="ent0017" id="cluster_sessions"><path d="M568.5,57 L636.7109,57 A3.75,3.75 0 0 1 639.2109,59.5 L646.2109,79.2969 L1629.5,79.2969 A2.5,2.5 0 0 1 1632,81.7969 L1632,355 A2.5,2.5 0 0 1 1629.5,357.5 L568.5,357.5 A2.5,2.5 0 0 1 566,355 L566,59.5 A2.5,2.5 0 0 1 568.5,57" fill="none" style="stroke:#000000;stroke-width:1.5;"/><line style="stroke:#000000;stroke-width:1.5;" x1="566" x2="646.2109" y1="79.2969" y2="79.2969"/><text fill="#000000" font-family="sans-serif" font-size="14" font-weight="bold" lengthAdjust="spacing" textLength="67.2109" x="570" y="71.9951">sessions</text></g><!--cluster tracking--><g class="cluster" data-entity="tracking" data-source-line="246" data-uid="ent0029" id="cluster_tracking"><path d="M32.5,49 L98.9404,49 A3.75,3.75 0 0 1 101.4404,51.5 L108.4404,71.2969 L539.5,71.2969 A2.5,2.5 0 0 1 542,73.7969 L542,624.5 A2.5,2.5 0 0 1 539.5,627 L32.5,627 A2.5,2.5 0 0 1 30,624.5 L30,51.5 A2.5,2.5 0 0 1 32.5,49" fill="none" style="stroke:#000000;stroke-width:1.5;"/><line style="stroke:#000000;stroke-width:1.5;" x1="30" x2="108.4404" y1="71.2969" y2="71.2969"/><text fill="#000000" font-family="sans-serif" font-size="14" font-weight="bold" lengthAdjust="spacing" textLength="65.4404" x="34" y="63.9951">tracking</text></g><!--class UserGroupsReader--><g class="entity" data-entity="UserGroupsReader" data-source-line="189" data-uid="ent0004" id="entity_UserGroupsReader"><rect fill="#F1F1F1" height="80.5938" rx="2.5" ry="2.5" style="stroke:#181818;stroke-width:0.5;" width="313.3965" x="1302.5" y="1052"/><ellipse cx="1388.7935" cy="1068" fill="#B4A7E5" rx="11" ry="11" style="stroke:#181818;stroke-width:1;"/><path d="M1384.7153,1063.7656 L1384.7153,1061.6094 L1392.106,1061.6094 L1392.106,1063.7656 L1389.6372,1063.7656 L1389.6372,1071.8438 L1392.106,1071.8438 L1392.106,1074 L1384.7153,1074 L1384.7153,1071.8438 L1387.1841,1071.8438 L1387.1841,1063.7656 L1384.7153,1063.7656 Z " fill="#000000"/><text fill="#000000" font-family="sans-serif" font-size="14" font-style="italic" lengthAdjust="spacing" textLength="132.3096" x="1409.2935" y="1072.8467">UserGroupsReader</text><line style="stroke:#181818;stroke-width:0.5;" x1="1303.5" x2="1614.8965" y1="1084" y2="1084"/><line style="stroke:#181818;stroke-width:0.5;" x1="1303.5" x2="1614.8965" y1="1092" y2="1092"/><ellipse cx="1313.5" cy="1105.6484" fill="#84BE84" rx="3" ry="3" style="stroke:#038048;stroke-width:1;"/><text fill="#000000" font-family="sans-serif" font-size="14" lengthAdjust="spacing" textLength="258.7881" x="1322.5" y="1108.9951">groupsOf(user: UserId): Set[GroupId]</text><ellipse cx="1313.5" cy="1121.9453" fill="#84BE84" rx="3" ry="3" style="stroke:#038048;stroke-width:1;"/><text fill="#000000" font-family="sans-serif" font-size="14" lengthAdjust="spacing" textLength="287.3965" x="1322.5" y="1125.292">membersOf(group: GroupId): Set[UserId]</text></g><!--class UserGroupsWriter--><g class="entity" data-entity="UserGroupsWriter" data-source-line="193" data-uid="ent0005" id="entity_UserGroupsWriter"><rect fill="#F1F1F1" height="80.5938" rx="2.5" ry="2.5" style="stroke:#181818;stroke-width:0.5;" width="373.6211" x="893" y="1052"/><ellipse cx="1012.8203" cy="1068" fill="#B4A7E5" rx="11" ry="11" style="stroke:#181818;stroke-width:1;"/><path d="M1008.7422,1063.7656 L1008.7422,1061.6094 L1016.1328,1061.6094 L1016.1328,1063.7656 L1013.6641,1063.7656 L1013.6641,1071.8438 L1016.1328,1071.8438 L1016.1328,1074 L1008.7422,1074 L1008.7422,1071.8438 L1011.2109,1071.8438 L1011.2109,1063.7656 L1008.7422,1063.7656 Z " fill="#000000"/><text fill="#000000" font-family="sans-serif" font-size="14" font-style="italic" lengthAdjust="spacing" textLength="125.4805" x="1033.3203" y="1072.8467">UserGroupsWriter</text><line style="stroke:#181818;stroke-width:0.5;" x1="894" x2="1265.6211" y1="1084" y2="1084"/><line style="stroke:#181818;stroke-width:0.5;" x1="894" x2="1265.6211" y1="1092" y2="1092"/><ellipse cx="904" cy="1105.6484" fill="#84BE84" rx="3" ry="3" style="stroke:#038048;stroke-width:1;"/><text fill="#000000" font-family="sans-serif" font-size="14" lengthAdjust="spacing" textLength="294.4717" x="913" y="1108.9951">addMember(groupId: GroupId, user: User)</text><ellipse cx="904" cy="1121.9453" fill="#84BE84" rx="3" ry="3" style="stroke:#038048;stroke-width:1;"/><text fill="#000000" font-family="sans-serif" font-size="14" lengthAdjust="spacing" textLength="347.6211" x="913" y="1125.292">removeMember(groupId: GroupId, userId: UserId)</text></g><!--class UserGroupsStore--><g class="entity" data-entity="UserGroupsStore" data-source-line="197" data-uid="ent0006" id="entity_UserGroupsStore"><rect fill="#F1F1F1" height="70.2344" rx="2.5" ry="2.5" style="stroke:#181818;stroke-width:0.5;" width="151.4443" x="1004.5" y="1193"/><ellipse cx="1019.5" cy="1220.1172" fill="#B4A7E5" rx="11" ry="11" style="stroke:#181818;stroke-width:1;"/><path d="M1015.4219,1215.8828 L1015.4219,1213.7266 L1022.8125,1213.7266 L1022.8125,1215.8828 L1020.3438,1215.8828 L1020.3438,1223.9609 L1022.8125,1223.9609 L1022.8125,1226.1172 L1015.4219,1226.1172 L1015.4219,1223.9609 L1017.8906,1223.9609 L1017.8906,1215.8828 L1015.4219,1215.8828 Z " fill="#000000"/><text fill="#000000" font-family="sans-serif" font-size="12" font-style="italic" lengthAdjust="spacing" textLength="75.7559" x="1055.3442" y="1209.1387">&#171;repository&#187;</text><text fill="#000000" font-family="sans-serif" font-size="12" font-style="italic" lengthAdjust="spacing" textLength="62.877" x="1061.7837" y="1223.1074">&#171;out port&#187;</text><text fill="#000000" font-family="sans-serif" font-size="14" font-style="italic" lengthAdjust="spacing" textLength="119.4443" x="1033.5" y="1238.9326">UserGroupsStore</text><line style="stroke:#181818;stroke-width:0.5;" x1="1005.5" x2="1154.9443" y1="1247.2344" y2="1247.2344"/><line style="stroke:#181818;stroke-width:0.5;" x1="1005.5" x2="1154.9443" y1="1255.2344" y2="1255.2344"/></g><!--class UserGroupsService--><g class="entity" data-entity="UserGroupsService" data-source-line="199" data-uid="ent0009" id="entity_UserGroupsService"><rect fill="#F1F1F1" height="137.75" rx="2.5" ry="2.5" style="stroke:#181818;stroke-width:0.5;" width="399.8779" x="686" y="770"/><ellipse cx="814.7515" cy="790.1328" fill="#B4A7E5" rx="11" ry="11" style="stroke:#181818;stroke-width:1;"/><path d="M810.6733,785.8984 L810.6733,783.7422 L818.064,783.7422 L818.064,785.8984 L815.5952,785.8984 L815.5952,793.9766 L818.064,793.9766 L818.064,796.1328 L810.6733,796.1328 L810.6733,793.9766 L813.1421,793.9766 L813.1421,785.8984 L810.6733,785.8984 Z " fill="#000000"/><text fill="#000000" font-family="sans-serif" font-size="12" font-style="italic" lengthAdjust="spacing" textLength="57.7969" x="873.2905" y="786.1387">&#171;service&#187;</text><text fill="#000000" font-family="sans-serif" font-size="14" font-style="italic" lengthAdjust="spacing" textLength="133.875" x="835.2515" y="801.9639">UserGroupsService</text><line style="stroke:#181818;stroke-width:0.5;" x1="687" x2="1084.8779" y1="810.2656" y2="810.2656"/><line style="stroke:#181818;stroke-width:0.5;" x1="687" x2="1084.8779" y1="818.2656" y2="818.2656"/><ellipse cx="697" cy="831.9141" fill="#84BE84" rx="3" ry="3" style="stroke:#038048;stroke-width:1;"/><text fill="#000000" font-family="sans-serif" font-size="14" lengthAdjust="spacing" textLength="323.8867" x="706" y="835.2607">addedMember(event: AddedMemberToGroup)</text><ellipse cx="697" cy="848.2109" fill="#84BE84" rx="3" ry="3" style="stroke:#038048;stroke-width:1;"/><text fill="#000000" font-family="sans-serif" font-size="14" lengthAdjust="spacing" textLength="373.8779" x="706" y="851.5576">removeMember(event: RemovedMemberFromGroup)</text><ellipse cx="697" cy="864.5078" fill="#84BE84" rx="3" ry="3" style="stroke:#038048;stroke-width:1;"/><text fill="#000000" font-family="sans-serif" font-size="14" lengthAdjust="spacing" textLength="271.8037" x="706" y="867.8545">groupsOf(userId: UserId): Set[GroupId]</text><ellipse cx="697" cy="880.8047" fill="#84BE84" rx="3" ry="3" style="stroke:#038048;stroke-width:1;"/><text fill="#000000" font-family="sans-serif" font-size="14" lengthAdjust="spacing" textLength="300.4121" x="706" y="884.1514">membersOf(groupId: GroupId): Set[UserId]</text><ellipse cx="697" cy="897.1016" fill="#84BE84" rx="3" ry="3" style="stroke:#038048;stroke-width:1;"/><text fill="#000000" font-family="sans-serif" font-size="14" lengthAdjust="spacing" textLength="216.0156" x="706" y="900.4482">of(scope: Scope): Option[User]</text></g><!--class UserGroupsServiceImpl--><g class="entity" data-entity="UserGroupsServiceImpl" data-source-line="206" data-uid="ent0010" id="entity_UserGroupsServiceImpl"><rect fill="#F1F1F1" height="64.2969" rx="2.5" ry="2.5" style="stroke:#181818;stroke-width:0.5;" width="272.6816" x="584.5" y="1060.5"/><ellipse cx="634.3818" cy="1076.5" fill="#ADD1B2" rx="11" ry="11" style="stroke:#181818;stroke-width:1;"/><path d="M637.3506,1082.1406 Q636.7725,1082.4375 636.1318,1082.5781 Q635.4912,1082.7344 634.7881,1082.7344 Q632.2881,1082.7344 630.96,1081.0938 Q629.6475,1079.4375 629.6475,1076.3125 Q629.6475,1073.1875 630.96,1071.5313 Q632.2881,1069.875 634.7881,1069.875 Q635.4912,1069.875 636.1318,1070.0313 Q636.7881,1070.1875 637.3506,1070.4844 L637.3506,1073.2031 Q636.7256,1072.625 636.1318,1072.3594 Q635.5381,1072.0781 634.9131,1072.0781 Q633.5693,1072.0781 632.8818,1073.1563 Q632.1943,1074.2188 632.1943,1076.3125 Q632.1943,1078.4063 632.8818,1079.4844 Q633.5693,1080.5469 634.9131,1080.5469 Q635.5381,1080.5469 636.1318,1080.2813 Q636.7256,1080 637.3506,1079.4219 L637.3506,1082.1406 Z " fill="#000000"/><text fill="#000000" font-family="sans-serif" font-size="14" lengthAdjust="spacing" textLength="164.418" x="654.8818" y="1081.3467">UserGroupsServiceImpl</text><line style="stroke:#181818;stroke-width:0.5;" x1="585.5" x2="856.1816" y1="1092.5" y2="1092.5"/><rect fill="none" height="6" style="stroke:#C82930;stroke-width:1;" width="6" x="592.5" y="1103.1484"/><text fill="#000000" font-family="sans-serif" font-size="14" lengthAdjust="spacing" textLength="246.6816" x="604.5" y="1109.4951">userGroupsStore: UserGroupsStore</text><line style="stroke:#181818;stroke-width:0.5;" x1="585.5" x2="856.1816" y1="1116.7969" y2="1116.7969"/></g><!--class NotificationService--><g class="entity" data-entity="NotificationService" data-source-line="213" data-uid="ent0014" id="entity_NotificationService"><rect fill="#F1F1F1" height="306.3906" rx="2.5" ry="2.5" style="stroke:#181818;stroke-width:0.5;" width="293.251" x="198.5" y="686"/><ellipse cx="274.8403" cy="713.1172" fill="#B4A7E5" rx="11" ry="11" style="stroke:#181818;stroke-width:1;"/><path d="M270.7622,708.8828 L270.7622,706.7266 L278.1528,706.7266 L278.1528,708.8828 L275.6841,708.8828 L275.6841,716.9609 L278.1528,716.9609 L278.1528,719.1172 L270.7622,719.1172 L270.7622,716.9609 L273.231,716.9609 L273.231,708.8828 L270.7622,708.8828 Z " fill="#000000"/><text fill="#000000" font-family="sans-serif" font-size="12" font-style="italic" lengthAdjust="spacing" textLength="57.7969" x="332.4771" y="702.1387">&#171;service&#187;</text><text fill="#000000" font-family="sans-serif" font-size="12" font-style="italic" lengthAdjust="spacing" textLength="62.877" x="329.937" y="716.1074">&#171;out port&#187;</text><text fill="#000000" font-family="sans-serif" font-size="14" font-style="italic" lengthAdjust="spacing" textLength="132.0703" x="295.3403" y="731.9326">NotificationService</text><line style="stroke:#181818;stroke-width:0.5;" x1="199.5" x2="490.751" y1="740.2344" y2="740.2344"/><ellipse cx="209.5" cy="778.3281" fill="#84BE84" rx="3" ry="3" style="stroke:#038048;stroke-width:1;"/><text fill="#000000" font-family="sans-serif" font-size="14" lengthAdjust="spacing" textLength="130.5186" x="218.5" y="757.2295">sendToOwnGroup(</text><text fill="#000000" font-family="sans-serif" font-size="14" lengthAdjust="spacing" textLength="97.3232" x="236.3008" y="773.5264">scope: Scope,</text><text fill="#000000" font-family="sans-serif" font-size="14" lengthAdjust="spacing" textLength="213.7734" x="236.3008" y="789.8232">message: NotificationMessage</text><text fill="#000000" font-family="sans-serif" font-size="14" lengthAdjust="spacing" textLength="5.4619" x="218.5" y="806.1201">)</text><line style="stroke:#181818;stroke-width:1;" x1="199.5" x2="490.751" y1="813.4219" y2="813.4219"/><ellipse cx="209.5" cy="859.6641" fill="#84BE84" rx="3" ry="3" style="stroke:#038048;stroke-width:1;"/><text fill="#000000" font-family="sans-serif" font-size="14" lengthAdjust="spacing" textLength="99.1758" x="218.5" y="830.417">sendToGroup(</text><text fill="#000000" font-family="sans-serif" font-size="14" lengthAdjust="spacing" textLength="131.2705" x="236.3008" y="846.7139">recipient: GroupId,</text><text fill="#000000" font-family="sans-serif" font-size="14" lengthAdjust="spacing" textLength="106.5791" x="236.3008" y="863.0107">sender: UserId,</text><text fill="#000000" font-family="sans-serif" font-size="14" lengthAdjust="spacing" textLength="213.7734" x="236.3008" y="879.3076">message: NotificationMessage</text><text fill="#000000" font-family="sans-serif" font-size="14" lengthAdjust="spacing" textLength="5.4619" x="218.5" y="895.6045">)</text><line style="stroke:#181818;stroke-width:1;" x1="199.5" x2="490.751" y1="902.9063" y2="902.9063"/><ellipse cx="209.5" cy="949.1484" fill="#84BE84" rx="3" ry="3" style="stroke:#038048;stroke-width:1;"/><text fill="#000000" font-family="sans-serif" font-size="14" lengthAdjust="spacing" textLength="267.251" x="218.5" y="919.9014">sendToAllMembersSharingGroupWith(</text><text fill="#000000" font-family="sans-serif" font-size="14" lengthAdjust="spacing" textLength="89.0791" x="236.3008" y="936.1982">user: UserId,</text><text fill="#000000" font-family="sans-serif" font-size="14" lengthAdjust="spacing" textLength="106.5791" x="236.3008" y="952.4951">sender: UserId,</text><text fill="#000000" font-family="sans-serif" font-size="14" lengthAdjust="spacing" textLength="213.7734" x="231.8506" y="968.792">message: NotificationMessage</text><text fill="#000000" font-family="sans-serif" font-size="14" lengthAdjust="spacing" textLength="5.4619" x="218.5" y="985.0889">)</text></g><!--class NotificationServiceProxy--><g class="entity" data-entity="NotificationServiceProxy" data-source-line="220" data-uid="ent0015" id="entity_NotificationServiceProxy"><rect fill="#F1F1F1" height="64.2969" rx="2.5" ry="2.5" style="stroke:#181818;stroke-width:0.5;" width="373.0674" x="154.5" y="1060.5"/><ellipse cx="251.0815" cy="1076.5" fill="#A9DCDF" rx="11" ry="11" style="stroke:#181818;stroke-width:1;"/><path d="M251.1909,1071.8438 L250.0347,1076.9219 L252.3628,1076.9219 L251.1909,1071.8438 Z M249.7065,1069.6094 L252.6909,1069.6094 L256.0503,1082 L253.5972,1082 L252.8315,1078.9375 L249.5503,1078.9375 L248.8003,1082 L246.3628,1082 L249.7065,1069.6094 Z " fill="#000000"/><text fill="#000000" font-family="sans-serif" font-size="14" font-style="italic" lengthAdjust="spacing" textLength="171.4043" x="271.5815" y="1081.3467">NotificationServiceProxy</text><line style="stroke:#181818;stroke-width:0.5;" x1="155.5" x2="526.5674" y1="1092.5" y2="1092.5"/><line style="stroke:#181818;stroke-width:0.5;" x1="155.5" x2="526.5674" y1="1100.5" y2="1100.5"/><ellipse cx="165.5" cy="1114.1484" fill="#84BE84" rx="3" ry="3" style="stroke:#038048;stroke-width:1;"/><text fill="#000000" font-family="sans-serif" font-size="14" lengthAdjust="spacing" textLength="347.0674" x="174.5" y="1117.4951">send(command: PushNotificationCommand): Unit</text></g><!--class UserSessionReader--><g class="entity" data-entity="UserSessionReader" data-source-line="226" data-uid="ent0018" id="entity_UserSessionReader"><rect fill="#F1F1F1" height="64.2969" rx="2.5" ry="2.5" style="stroke:#181818;stroke-width:0.5;" width="317.7988" x="925" y="111.5"/><ellipse cx="1011.8984" cy="127.5" fill="#B4A7E5" rx="11" ry="11" style="stroke:#181818;stroke-width:1;"/><path d="M1007.8203,123.2656 L1007.8203,121.1094 L1015.2109,121.1094 L1015.2109,123.2656 L1012.7422,123.2656 L1012.7422,131.3438 L1015.2109,131.3438 L1015.2109,133.5 L1007.8203,133.5 L1007.8203,131.3438 L1010.2891,131.3438 L1010.2891,123.2656 L1007.8203,123.2656 Z " fill="#000000"/><text fill="#000000" font-family="sans-serif" font-size="14" font-style="italic" lengthAdjust="spacing" textLength="135.502" x="1032.3984" y="132.3467">UserSessionReader</text><line style="stroke:#181818;stroke-width:0.5;" x1="926" x2="1241.7988" y1="143.5" y2="143.5"/><line style="stroke:#181818;stroke-width:0.5;" x1="926" x2="1241.7988" y1="151.5" y2="151.5"/><ellipse cx="936" cy="165.1484" fill="#84BE84" rx="3" ry="3" style="stroke:#038048;stroke-width:1;"/><text fill="#000000" font-family="sans-serif" font-size="14" lengthAdjust="spacing" textLength="291.7988" x="945" y="168.4951">sessionOf(scope: Scope): Option[Session]</text></g><!--class UserSessionWriter--><g class="entity" data-entity="UserSessionWriter" data-source-line="229" data-uid="ent0019" id="entity_UserSessionWriter"><rect fill="#F1F1F1" height="64.2969" rx="2.5" ry="2.5" style="stroke:#181818;stroke-width:0.5;" width="308.2217" x="582" y="111.5"/><ellipse cx="667.5244" cy="127.5" fill="#B4A7E5" rx="11" ry="11" style="stroke:#181818;stroke-width:1;"/><path d="M663.4463,123.2656 L663.4463,121.1094 L670.8369,121.1094 L670.8369,123.2656 L668.3682,123.2656 L668.3682,131.3438 L670.8369,131.3438 L670.8369,133.5 L663.4463,133.5 L663.4463,131.3438 L665.915,131.3438 L665.915,123.2656 L663.4463,123.2656 Z " fill="#000000"/><text fill="#000000" font-family="sans-serif" font-size="14" font-style="italic" lengthAdjust="spacing" textLength="128.6729" x="688.0244" y="132.3467">UserSessionWriter</text><line style="stroke:#181818;stroke-width:0.5;" x1="583" x2="889.2217" y1="143.5" y2="143.5"/><line style="stroke:#181818;stroke-width:0.5;" x1="583" x2="889.2217" y1="151.5" y2="151.5"/><ellipse cx="593" cy="165.1484" fill="#84BE84" rx="3" ry="3" style="stroke:#038048;stroke-width:1;"/><text fill="#000000" font-family="sans-serif" font-size="14" lengthAdjust="spacing" textLength="282.2217" x="602" y="168.4951">update(session: Session.Snapshot): Unit</text></g><!--class UserSessionStore--><g class="entity" data-entity="UserSessionStore" data-source-line="232" data-uid="ent0020" id="entity_UserSessionStore"><rect fill="#F1F1F1" height="70.2344" rx="2.5" ry="2.5" style="stroke:#181818;stroke-width:0.5;" width="154.6367" x="832.5" y="271.5"/><ellipse cx="847.5" cy="298.6172" fill="#B4A7E5" rx="11" ry="11" style="stroke:#181818;stroke-width:1;"/><path d="M843.4219,294.3828 L843.4219,292.2266 L850.8125,292.2266 L850.8125,294.3828 L848.3438,294.3828 L848.3438,302.4609 L850.8125,302.4609 L850.8125,304.6172 L843.4219,304.6172 L843.4219,302.4609 L845.8906,302.4609 L845.8906,294.3828 L843.4219,294.3828 Z " fill="#000000"/><text fill="#000000" font-family="sans-serif" font-size="12" font-style="italic" lengthAdjust="spacing" textLength="75.7559" x="884.9404" y="287.6387">&#171;repository&#187;</text><text fill="#000000" font-family="sans-serif" font-size="12" font-style="italic" lengthAdjust="spacing" textLength="62.877" x="891.3799" y="301.6074">&#171;out port&#187;</text><text fill="#000000" font-family="sans-serif" font-size="14" font-style="italic" lengthAdjust="spacing" textLength="122.6367" x="861.5" y="317.4326">UserSessionStore</text><line style="stroke:#181818;stroke-width:0.5;" x1="833.5" x2="986.1367" y1="325.7344" y2="325.7344"/><line style="stroke:#181818;stroke-width:0.5;" x1="833.5" x2="986.1367" y1="333.7344" y2="333.7344"/></g><!--class UsersSessionService--><g class="entity" data-entity="UsersSessionService" data-source-line="234" data-uid="ent0023" id="entity_UsersSessionService"><rect fill="#F1F1F1" height="102.8281" rx="2.5" ry="2.5" style="stroke:#181818;stroke-width:0.5;" width="336.9121" x="1278.5" y="92"/><ellipse cx="1370.5254" cy="119.1172" fill="#B4A7E5" rx="11" ry="11" style="stroke:#181818;stroke-width:1;"/><path d="M1366.4473,114.8828 L1366.4473,112.7266 L1373.8379,112.7266 L1373.8379,114.8828 L1371.3691,114.8828 L1371.3691,122.9609 L1373.8379,122.9609 L1373.8379,125.1172 L1366.4473,125.1172 L1366.4473,122.9609 L1368.916,122.9609 L1368.916,114.8828 L1366.4473,114.8828 Z " fill="#000000"/><text fill="#000000" font-family="sans-serif" font-size="12" font-style="italic" lengthAdjust="spacing" textLength="57.7969" x="1434.3076" y="108.1387">&#171;service&#187;</text><text fill="#000000" font-family="sans-serif" font-size="12" font-style="italic" lengthAdjust="spacing" textLength="54.1641" x="1436.124" y="122.1074">&#171;in port&#187;</text><text fill="#000000" font-family="sans-serif" font-size="14" font-style="italic" lengthAdjust="spacing" textLength="144.3613" x="1391.0254" y="137.9326">UsersSessionService</text><line style="stroke:#181818;stroke-width:0.5;" x1="1279.5" x2="1614.4121" y1="146.2344" y2="146.2344"/><line style="stroke:#181818;stroke-width:0.5;" x1="1279.5" x2="1614.4121" y1="154.2344" y2="154.2344"/><ellipse cx="1289.5" cy="167.8828" fill="#84BE84" rx="3" ry="3" style="stroke:#038048;stroke-width:1;"/><text fill="#000000" font-family="sans-serif" font-size="14" lengthAdjust="spacing" textLength="280.1709" x="1298.5" y="171.2295">ofScope(scope: Scope): Option[Session]</text><ellipse cx="1289.5" cy="184.1797" fill="#84BE84" rx="3" ry="3" style="stroke:#038048;stroke-width:1;"/><text fill="#000000" font-family="sans-serif" font-size="14" lengthAdjust="spacing" textLength="310.9121" x="1298.5" y="187.5264">ofGroup(groupId: GroupId): Stream[Session]</text></g><!--class UsersSessionServiceImpl--><g class="entity" data-entity="UsersSessionServiceImpl" data-source-line="239" data-uid="ent0024" id="entity_UsersSessionServiceImpl"><rect fill="#F1F1F1" height="64.2969" rx="2.5" ry="2.5" style="stroke:#181818;stroke-width:0.5;" width="279.0664" x="1022.5" y="274.5"/><ellipse cx="1070.3311" cy="290.5" fill="#ADD1B2" rx="11" ry="11" style="stroke:#181818;stroke-width:1;"/><path d="M1073.2998,296.1406 Q1072.7217,296.4375 1072.0811,296.5781 Q1071.4404,296.7344 1070.7373,296.7344 Q1068.2373,296.7344 1066.9092,295.0938 Q1065.5967,293.4375 1065.5967,290.3125 Q1065.5967,287.1875 1066.9092,285.5313 Q1068.2373,283.875 1070.7373,283.875 Q1071.4404,283.875 1072.0811,284.0313 Q1072.7373,284.1875 1073.2998,284.4844 L1073.2998,287.2031 Q1072.6748,286.625 1072.0811,286.3594 Q1071.4873,286.0781 1070.8623,286.0781 Q1069.5186,286.0781 1068.8311,287.1563 Q1068.1436,288.2188 1068.1436,290.3125 Q1068.1436,292.4063 1068.8311,293.4844 Q1069.5186,294.5469 1070.8623,294.5469 Q1071.4873,294.5469 1072.0811,294.2813 Q1072.6748,294 1073.2998,293.4219 L1073.2998,296.1406 Z " fill="#000000"/><text fill="#000000" font-family="sans-serif" font-size="14" lengthAdjust="spacing" textLength="174.9043" x="1090.8311" y="295.3467">UsersSessionServiceImpl</text><line style="stroke:#181818;stroke-width:0.5;" x1="1023.5" x2="1300.5664" y1="306.5" y2="306.5"/><rect fill="none" height="6" style="stroke:#C82930;stroke-width:1;" width="6" x="1030.5" y="317.1484"/><text fill="#000000" font-family="sans-serif" font-size="14" lengthAdjust="spacing" textLength="253.0664" x="1042.5" y="323.4951">userSessionStore: UserSessionStore</text><line style="stroke:#181818;stroke-width:0.5;" x1="1023.5" x2="1300.5664" y1="330.7969" y2="330.7969"/></g><!--class MapsService--><g class="entity" data-entity="MapsService" data-source-line="247" data-uid="ent0030" id="entity_MapsService"><rect fill="#F1F1F1" height="200.6094" rx="2.5" ry="2.5" style="stroke:#181818;stroke-width:0.5;" width="243.0273" x="70.5" y="410"/><ellipse cx="143.4736" cy="437.1172" fill="#B4A7E5" rx="11" ry="11" style="stroke:#181818;stroke-width:1;"/><path d="M139.3955,432.8828 L139.3955,430.7266 L146.7861,430.7266 L146.7861,432.8828 L144.3174,432.8828 L144.3174,440.9609 L146.7861,440.9609 L146.7861,443.1172 L139.3955,443.1172 L139.3955,440.9609 L141.8643,440.9609 L141.8643,432.8828 L139.3955,432.8828 Z " fill="#000000"/><text fill="#000000" font-family="sans-serif" font-size="12" font-style="italic" lengthAdjust="spacing" textLength="57.7969" x="179.3652" y="426.1387">&#171;service&#187;</text><text fill="#000000" font-family="sans-serif" font-size="12" font-style="italic" lengthAdjust="spacing" textLength="62.877" x="176.8252" y="440.1074">&#171;out port&#187;</text><text fill="#000000" font-family="sans-serif" font-size="14" font-style="italic" lengthAdjust="spacing" textLength="88.5801" x="163.9736" y="455.9326">MapsService</text><line style="stroke:#181818;stroke-width:0.5;" x1="71.5" x2="312.5273" y1="464.2344" y2="464.2344"/><ellipse cx="81.5" cy="502.3281" fill="#84BE84" rx="3" ry="3" style="stroke:#038048;stroke-width:1;"/><text fill="#000000" font-family="sans-serif" font-size="14" lengthAdjust="spacing" textLength="216.6172" x="90.5" y="481.2295">duration(mode: RoutingMode)(</text><text fill="#000000" font-family="sans-serif" font-size="14" lengthAdjust="spacing" textLength="141.1143" x="108.3008" y="497.5264">origin: GPSLocation,</text><text fill="#000000" font-family="sans-serif" font-size="14" lengthAdjust="spacing" textLength="175.2461" x="108.3008" y="513.8232">destination: GPSLocation</text><text fill="#000000" font-family="sans-serif" font-size="14" lengthAdjust="spacing" textLength="114.2422" x="90.5" y="530.1201">): FiniteDuration</text><line style="stroke:#181818;stroke-width:1;" x1="71.5" x2="312.5273" y1="537.4219" y2="537.4219"/><ellipse cx="81.5" cy="575.5156" fill="#84BE84" rx="3" ry="3" style="stroke:#038048;stroke-width:1;"/><text fill="#000000" font-family="sans-serif" font-size="14" lengthAdjust="spacing" textLength="217.0273" x="90.5" y="554.417">distance(mode: RoutingMode)(</text><text fill="#000000" font-family="sans-serif" font-size="14" lengthAdjust="spacing" textLength="141.1143" x="108.3008" y="570.7139">origin: GPSLocation,</text><text fill="#000000" font-family="sans-serif" font-size="14" lengthAdjust="spacing" textLength="175.2461" x="108.3008" y="587.0107">destination: GPSLocation</text><text fill="#000000" font-family="sans-serif" font-size="14" lengthAdjust="spacing" textLength="75.8447" x="90.5" y="603.3076">): Distance</text></g><!--class OutcomeObserver--><g class="entity" data-entity="OutcomeObserver" data-source-line="253" data-uid="ent0031" id="entity_OutcomeObserver"><rect fill="#F1F1F1" height="86.5313" rx="2.5" ry="2.5" style="stroke:#181818;stroke-width:0.5;" width="160.1191" x="46" y="263"/><ellipse cx="61" cy="290.1172" fill="#B4A7E5" rx="11" ry="11" style="stroke:#181818;stroke-width:1;"/><path d="M56.9219,285.8828 L56.9219,283.7266 L64.3125,283.7266 L64.3125,285.8828 L61.8438,285.8828 L61.8438,293.9609 L64.3125,293.9609 L64.3125,296.1172 L56.9219,296.1172 L56.9219,293.9609 L59.3906,293.9609 L59.3906,285.8828 L56.9219,285.8828 Z " fill="#000000"/><text fill="#000000" font-family="sans-serif" font-size="12" font-style="italic" lengthAdjust="spacing" textLength="57.7969" x="110.1611" y="279.1387">&#171;service&#187;</text><text fill="#000000" font-family="sans-serif" font-size="12" font-style="italic" lengthAdjust="spacing" textLength="62.877" x="107.6211" y="293.1074">&#171;out port&#187;</text><text fill="#000000" font-family="sans-serif" font-size="14" font-style="italic" lengthAdjust="spacing" textLength="128.1191" x="75" y="308.9326">OutcomeObserver</text><line style="stroke:#181818;stroke-width:0.5;" x1="47" x2="205.1191" y1="317.2344" y2="317.2344"/><ellipse cx="57" cy="330.8828" fill="none" rx="3" ry="3" style="stroke:#038048;stroke-width:1;"/><text fill="#000000" font-family="sans-serif" font-size="14" lengthAdjust="spacing" textLength="99.6201" x="66" y="334.2295">type Outcome</text><line style="stroke:#181818;stroke-width:0.5;" x1="47" x2="205.1191" y1="341.5313" y2="341.5313"/></g><!--class RealTimeTrackingService--><g class="entity" data-entity="RealTimeTrackingService" data-source-line="257" data-uid="ent0032" id="entity_RealTimeTrackingService"><rect fill="#F1F1F1" height="119.125" rx="2.5" ry="2.5" style="stroke:#181818;stroke-width:0.5;" width="479.8447" x="46" y="84"/><ellipse cx="192.8804" cy="111.1172" fill="#B4A7E5" rx="11" ry="11" style="stroke:#181818;stroke-width:1;"/><path d="M188.8022,106.8828 L188.8022,104.7266 L196.1929,104.7266 L196.1929,106.8828 L193.7241,106.8828 L193.7241,114.9609 L196.1929,114.9609 L196.1929,117.1172 L188.8022,117.1172 L188.8022,114.9609 L191.271,114.9609 L191.271,106.8828 L188.8022,106.8828 Z " fill="#000000"/><text fill="#000000" font-family="sans-serif" font-size="12" font-style="italic" lengthAdjust="spacing" textLength="57.7969" x="273.2739" y="100.1387">&#171;service&#187;</text><text fill="#000000" font-family="sans-serif" font-size="12" font-style="italic" lengthAdjust="spacing" textLength="54.1641" x="275.0903" y="114.1074">&#171;in port&#187;</text><text fill="#000000" font-family="sans-serif" font-size="14" font-style="italic" lengthAdjust="spacing" textLength="177.584" x="213.3804" y="129.9326">RealTimeTrackingService</text><line style="stroke:#181818;stroke-width:0.5;" x1="47" x2="524.8447" y1="138.2344" y2="138.2344"/><line style="stroke:#181818;stroke-width:0.5;" x1="47" x2="524.8447" y1="146.2344" y2="146.2344"/><ellipse cx="57" cy="159.8828" fill="#84BE84" rx="3" ry="3" style="stroke:#038048;stroke-width:1;"/><text fill="#000000" font-family="sans-serif" font-size="14" lengthAdjust="spacing" textLength="238.6768" x="66" y="163.2295">handle(event: ClientDrivingEvent)</text><ellipse cx="57" cy="176.1797" fill="#84BE84" rx="3" ry="3" style="stroke:#038048;stroke-width:1;"/><text fill="#000000" font-family="sans-serif" font-size="14" lengthAdjust="spacing" textLength="426.7266" x="66" y="179.5264">addObserverFor(scope: Scope)(observer: OutcomeObserver)</text><ellipse cx="57" cy="192.4766" fill="#84BE84" rx="3" ry="3" style="stroke:#038048;stroke-width:1;"/><text fill="#000000" font-family="sans-serif" font-size="14" lengthAdjust="spacing" textLength="453.8447" x="66" y="195.8232">removeObserverFor(scope: Scope)(observer: OutcomeObserver)</text></g><!--class RealTimeTracker--><g class="entity" data-entity="RealTimeTracker" data-source-line="264" data-uid="ent0034" id="entity_RealTimeTracker"><rect fill="#F1F1F1" height="80.5938" rx="2.5" ry="2.5" style="stroke:#181818;stroke-width:0.5;" width="217.2422" x="241.5" y="266"/><ellipse cx="286.5898" cy="282" fill="#A9DCDF" rx="11" ry="11" style="stroke:#181818;stroke-width:1;"/><path d="M286.6992,277.3438 L285.543,282.4219 L287.8711,282.4219 L286.6992,277.3438 Z M285.2148,275.1094 L288.1992,275.1094 L291.5586,287.5 L289.1055,287.5 L288.3398,284.4375 L285.0586,284.4375 L284.3086,287.5 L281.8711,287.5 L285.2148,275.1094 Z " fill="#000000"/><text fill="#000000" font-family="sans-serif" font-size="14" font-style="italic" lengthAdjust="spacing" textLength="118.5625" x="307.0898" y="286.8467">RealTimeTracker</text><line style="stroke:#181818;stroke-width:0.5;" x1="242.5" x2="457.7422" y1="298" y2="298"/><polygon fill="none" points="252.5,306.6484,256.5,310.6484,252.5,314.6484,248.5,310.6484" style="stroke:#B38D22;stroke-width:1;"/><text fill="#000000" font-family="sans-serif" font-size="14" lengthAdjust="spacing" textLength="136.1445" x="261.5" y="314.9951">maps: MapsService</text><polygon fill="none" points="252.5,322.9453,256.5,326.9453,252.5,330.9453,248.5,326.9453" style="stroke:#B38D22;stroke-width:1;"/><text fill="#000000" font-family="sans-serif" font-size="14" lengthAdjust="spacing" textLength="191.2422" x="261.5" y="331.292">notifier: NotificationService</text><line style="stroke:#181818;stroke-width:0.5;" x1="242.5" x2="457.7422" y1="338.5938" y2="338.5938"/></g><!--reverse link UserGroupsReader to UserGroupsStore--><g class="link" data-entity-1="UserGroupsReader" data-entity-2="UserGroupsStore" data-source-line="197" data-uid="lnk7" id="link_UserGroupsReader_UserGroupsStore"><path d="M1329.8522,1138.9895 C1268.1822,1160.7095 1210.31,1181.1 1155.6,1200.37" fill="none" id="UserGroupsReader-backto-UserGroupsStore" style="stroke:#181818;stroke-width:1;"/><polygon fill="none" points="1346.83,1133.01,1327.859,1133.3303,1331.8454,1144.6488,1346.83,1133.01" style="stroke:#181818;stroke-width:1;"/></g><!--reverse link UserGroupsWriter to UserGroupsStore--><g class="link" data-entity-1="UserGroupsWriter" data-entity-2="UserGroupsStore" data-source-line="197" data-uid="lnk8" id="link_UserGroupsWriter_UserGroupsStore"><path d="M1080,1151.19 C1080,1170.1 1080,1174.49 1080,1192.66" fill="none" id="UserGroupsWriter-backto-UserGroupsStore" style="stroke:#181818;stroke-width:1;"/><polygon fill="none" points="1080,1133.19,1074,1151.19,1086,1151.19,1080,1133.19" style="stroke:#181818;stroke-width:1;"/></g><!--reverse link UserGroupsService to UserGroupsServiceImpl--><g class="link" data-entity-1="UserGroupsService" data-entity-2="UserGroupsServiceImpl" data-source-line="207" data-uid="lnk11" id="link_UserGroupsService_UserGroupsServiceImpl"><path d="M831.4756,923.1098 C798.9256,972.7198 766.23,1022.57 741.42,1060.38" fill="none" id="UserGroupsService-backto-UserGroupsServiceImpl" style="stroke:#181818;stroke-width:1;stroke-dasharray:7.0,7.0;"/><polygon fill="none" points="841.35,908.06,826.459,919.8183,836.4922,926.4013,841.35,908.06" style="stroke:#181818;stroke-width:1;"/></g><!--link UserGroupsServiceImpl to UserGroupsStore--><g class="link" data-entity-1="UserGroupsServiceImpl" data-entity-2="UserGroupsStore" data-source-line="209" data-uid="lnk12" id="link_UserGroupsServiceImpl_UserGroupsStore"><path codeLine="209" d="M815.9673,1128.8131 C876.3573,1151.2731 940.3462,1175.0689 998.7862,1196.7989" fill="none" id="UserGroupsServiceImpl-UserGroupsStore" style="stroke:#181818;stroke-width:1;"/><polygon fill="#181818" points="804.72,1124.63,808.9493,1130.4706,815.9673,1128.8131,811.738,1122.9724,804.72,1124.63" style="stroke:#181818;stroke-width:1;"/><polygon fill="#181818" points="1004.41,1198.89,997.3684,1192.0041,999.7235,1197.1474,994.5802,1199.5025,1004.41,1198.89" style="stroke:#181818;stroke-width:1;"/></g><!--reverse link NotificationService to NotificationServiceProxy--><g class="link" data-entity-1="NotificationService" data-entity-2="NotificationServiceProxy" data-source-line="221" data-uid="lnk16" id="link_NotificationService_NotificationServiceProxy"><path d="M342.2947,1010.0977 C341.8847,1035.9577 341.78,1042.27 341.5,1060.37" fill="none" id="NotificationService-backto-NotificationServiceProxy" style="stroke:#181818;stroke-width:1;stroke-dasharray:7.0,7.0;"/><polygon fill="none" points="342.58,992.1,336.2954,1010.0026,348.2939,1010.1929,342.58,992.1" style="stroke:#181818;stroke-width:1;"/></g><!--reverse link UserSessionReader to UserSessionStore--><g class="link" data-entity-1="UserSessionReader" data-entity-2="UserSessionStore" data-source-line="232" data-uid="lnk21" id="link_UserSessionReader_UserSessionStore"><path d="M1037.2404,187.7673 C1007.5204,215.2773 977.41,243.13 946.75,271.49" fill="none" id="UserSessionReader-backto-UserSessionStore" style="stroke:#181818;stroke-width:1;"/><polygon fill="none" points="1050.45,175.54,1033.1647,183.3641,1041.3162,192.1705,1050.45,175.54" style="stroke:#181818;stroke-width:1;"/></g><!--reverse link UserSessionWriter to UserSessionStore--><g class="link" data-entity-1="UserSessionWriter" data-entity-2="UserSessionStore" data-source-line="232" data-uid="lnk22" id="link_UserSessionWriter_UserSessionStore"><path d="M782.7596,187.7673 C812.4796,215.2773 842.59,243.13 873.25,271.49" fill="none" id="UserSessionWriter-backto-UserSessionStore" style="stroke:#181818;stroke-width:1;"/><polygon fill="none" points="769.55,175.54,778.6838,192.1705,786.8353,183.3641,769.55,175.54" style="stroke:#181818;stroke-width:1;"/></g><!--reverse link UsersSessionService to UsersSessionServiceImpl--><g class="link" data-entity-1="UsersSessionService" data-entity-2="UsersSessionServiceImpl" data-source-line="240" data-uid="lnk25" id="link_UsersSessionService_UsersSessionServiceImpl"><path d="M1341.5468,204.0715 C1295.5268,230.0615 1256.66,252.03 1216.93,274.47" fill="none" id="UsersSessionService-backto-UsersSessionServiceImpl" style="stroke:#181818;stroke-width:1;stroke-dasharray:7.0,7.0;"/><polygon fill="none" points="1357.22,195.22,1338.5963,198.8471,1344.4973,209.2959,1357.22,195.22" style="stroke:#181818;stroke-width:1;"/></g><!--link UserSessionStore to UsersSessionServiceImpl--><g class="link" data-entity-1="UserSessionStore" data-entity-2="UsersSessionServiceImpl" data-source-line="242" data-uid="lnk27" id="link_UserSessionStore_UsersSessionServiceImpl"><path codeLine="242" d="M993.77,306.5 C1005.34,306.5 998.91,306.5 1010.48,306.5" fill="none" id="UserSessionStore-UsersSessionServiceImpl" style="stroke:#181818;stroke-width:1;"/><polygon fill="#181818" points="987.77,306.5,996.77,310.5,992.77,306.5,996.77,302.5,987.77,306.5" style="stroke:#181818;stroke-width:1;"/><polygon fill="#181818" points="1022.48,306.5,1016.48,302.5,1010.48,306.5,1016.48,310.5,1022.48,306.5" style="stroke:#181818;stroke-width:1;"/></g><!--link UsersSessionServiceImpl to UserGroupsService--><g class="link" data-entity-1="UsersSessionServiceImpl" data-entity-2="UserGroupsService" data-source-line="243" data-uid="lnk28" id="link_UsersSessionServiceImpl_UserGroupsService"><path codeLine="243" d="M1140.2312,349.3453 C1096.6612,433.0853 984.7192,648.2472 924.3392,764.3072" fill="none" id="UsersSessionServiceImpl-UserGroupsService" style="stroke:#181818;stroke-width:1;"/><polygon fill="#181818" points="1145.77,338.7,1139.4522,342.1764,1140.2312,349.3453,1146.5491,345.8689,1145.77,338.7" style="stroke:#181818;stroke-width:1;"/><polygon fill="#181818" points="921.57,769.63,929.2722,763.492,923.8776,765.1944,922.1752,759.7998,921.57,769.63" style="stroke:#181818;stroke-width:1;"/></g><!--link RealTimeTrackingService to OutcomeObserver--><g class="link" data-entity-1="RealTimeTrackingService" data-entity-2="OutcomeObserver" data-source-line="262" data-uid="lnk33" id="link_RealTimeTrackingService_OutcomeObserver"><path codeLine="262" d="M219.3227,211.5932 C199.6727,231.3732 190.7987,240.2934 172.6087,258.6034" fill="none" id="RealTimeTrackingService-OutcomeObserver" style="stroke:#181818;stroke-width:1;"/><polygon fill="#181818" points="227.78,203.08,220.7136,204.5175,219.3227,211.5932,226.3891,210.1557,227.78,203.08" style="stroke:#181818;stroke-width:1;"/><polygon fill="#181818" points="168.38,262.86,177.5607,259.2943,171.9039,259.3129,171.8853,253.656,168.38,262.86" style="stroke:#181818;stroke-width:1;"/></g><!--reverse link RealTimeTrackingService to RealTimeTracker--><g class="link" data-entity-1="RealTimeTrackingService" data-entity-2="RealTimeTracker" data-source-line="265" data-uid="lnk35" id="link_RealTimeTrackingService_RealTimeTracker"><path d="M315.9377,219.8075 C324.2277,240.6675 326.72,246.92 334.23,265.82" fill="none" id="RealTimeTrackingService-backto-RealTimeTracker" style="stroke:#181818;stroke-width:1;stroke-dasharray:7.0,7.0;"/><polygon fill="none" points="309.29,203.08,310.3619,222.0234,321.5135,217.5916,309.29,203.08" style="stroke:#181818;stroke-width:1;"/></g><!--link RealTimeTracker to MapsService--><g class="link" data-entity-1="RealTimeTracker" data-entity-2="MapsService" data-source-line="268" data-uid="lnk36" id="link_RealTimeTracker_MapsService"><path codeLine="268" d="M311.3863,356.8616 C297.2663,374.9116 290.9756,382.9532 273.6656,405.0932" fill="none" id="RealTimeTracker-MapsService" style="stroke:#181818;stroke-width:1;"/><polygon fill="#181818" points="318.78,347.41,311.9326,349.6712,311.3863,356.8616,318.2337,354.6004,318.78,347.41" style="stroke:#181818;stroke-width:1;"/><polygon fill="#181818" points="269.97,409.82,278.6646,405.1936,273.0497,405.881,272.3622,400.2661,269.97,409.82" style="stroke:#181818;stroke-width:1;"/></g><!--link RealTimeTracker to NotificationService--><g class="link" data-entity-1="RealTimeTracker" data-entity-2="NotificationService" data-source-line="269" data-uid="lnk37" id="link_RealTimeTracker_NotificationService"><path codeLine="269" d="M349.5083,359.3695 C348.8483,430.2795 347.5864,563.7303 346.4964,679.7303" fill="none" id="RealTimeTracker-NotificationService" style="stroke:#181818;stroke-width:1;"/><polygon fill="#181818" points="349.62,347.37,345.5643,353.3325,349.5083,359.3695,353.564,353.407,349.62,347.37" style="stroke:#181818;stroke-width:1;"/><polygon fill="#181818" points="346.44,685.73,350.5244,676.768,346.487,680.7302,342.5247,676.6928,346.44,685.73" style="stroke:#181818;stroke-width:1;"/></g><!--SRC=[hLPTJzim57tlhx2qbvIr-m4HGa8mKALrHRI8Xx47azos5eaTsKu7clZlktPSyj6RK3Jo08rzlttESGgUFF4DC5uKcKYu5KgolwCHmwS8MnkjoiBWAWkFa1RqcYV0xWpeQxzz2pm5tJ1opzVWkrX79Lh6tdwMZcEs1FlBEyxItnsN7F97qCx7EySis0MlAaJjz3fOrhqMbYYBf-dSfwbopDAtB1DMLphkU6d8rGu67Tr2QFB82fTMQM2dfneAPGI-l9oTuQigBIkKjlW2pnPaQWw6FJdiSpIS2lHE92wPgNvXS68oi9yDx43Qc9tNIolb8mqE9dZT-hNWTwLLJdgsyD4OtaSGqZY47enKRceTcKGLW3Rk7zek2eTtRqu1AicuCOVpc-L5nWJ-WHmx9GmwGvrwP3HEE-uUFv6RpdeodPwHpgzjoafbnJhGcMRkpuO5XOiM0hiWCOZ7bLhyaRwCw46wvUPi9zLI3iPWEN4hsxnQV91jB4odP99c1Ws9A8H7rvvq8JMQrlBoUSdFiwp2hrbkkHPouzFU2xiD5JLLRQ2MOqkfZvy_6gjvOWC6YTEwqUhvfGb3waIfWuiIbUTS8cbkIhDjUbrK6qYCEobifweEmWnMtmikr_koCkYv5uBxee-ImVjzcG-6FJfV5Yct48LiJXpyZszBoGkpLPPkjJVBnxIwDO79ORLzOctssKXQ2jd7IhNsGpnsedkdYc6KabeDFAUEWb38Jj6KHdRxebIoEUZuOFGzEadbFfbciBP1BSaO_PuTaQtsA18uYZwXB90ac7FwnXrKrhJKdefHhb8Sm2sQOlmvleo3v2WjDWAXV7sp_A4gtWRbIS6WiLzfRQF2nEnA8CxXCeGV5hzK6Cjb0fzUn6K8J46f7joYj2XHi7XqCqDI7pqy-rAyUG-dG4vcAv73AXpWHwcsHPdCOF-fSv6vI-bIYns6-kxMneTVLVjshfHkCpHIOIVkTav_PlrNe9euVIFmdnWT_r7VlTGAWaVLO7nV_FOelx0SQH8toTBPhpvbN5F41VTUNrYIxuSAJnYYPLyIXD7hFm00]--></g></svg>