<svg xmlns="http://www.w3.org/2000/svg" xmlns:xlink="http://www.w3.org/1999/xlink" contentStyleType="text/css" data-diagram-type="SEQUENCE" height="722px" preserveAspectRatio="none" style="width:1298px;height:722px;background:#FFFFFF;" version="1.1" viewBox="0 0 1298 722" width="1298px" zoomAndPan="magnify"><defs/><g><g><title>Group Member</title><rect fill="#FFFFFF" height="541.3906" style="stroke:#181818;stroke-width:1;" width="10" x="70.4829" y="91.2969"/></g><g><title>PushNotificationService</title><rect fill="#FFFFFF" height="29.1328" style="stroke:#181818;stroke-width:1;" width="10" x="300.1968" y="155.5625"/></g><g><title>PushNotificationService</title><rect fill="#FFFFFF" height="58.2656" style="stroke:#181818;stroke-width:1;" width="10" x="300.1968" y="558.4219"/></g><g><title>UsersTokensService</title><rect fill="#FFFFFF" height="418.8594" style="stroke:#181818;stroke-width:1;" width="10" x="473.4482" y="213.8281"/></g><g><title>UsersTokensRepository</title><rect fill="#FFFFFF" height="58.2656" style="stroke:#181818;stroke-width:1;" width="10" x="646.064" y="242.9609"/></g><g><title>UsersTokensRepository</title><rect fill="#FFFFFF" height="29.1328" style="stroke:#181818;stroke-width:1;" width="10" x="646.064" y="500.1563"/></g><g><title>GroupsRepository</title><rect fill="#FFFFFF" height="214.9297" style="stroke:#181818;stroke-width:1;" width="10" x="806.8525" y="417.7578"/></g><g><title>NotificationPublisher</title><rect fill="#FFFFFF" height="244.0625" style="stroke:#181818;stroke-width:1;" width="10" x="1000.5879" y="388.625"/></g><g><title>Message Broker</title><rect fill="#FFFFFF" height="541.3906" style="stroke:#181818;stroke-width:1;" width="10" x="1215.0356" y="91.2969"/></g><rect fill="none" height="162.7969" style="stroke:#000000;stroke-width:1.5;" width="1085.0112" x="10" y="461.8906"/><g><title>Group Member</title><rect fill="#000000" fill-opacity="0.00000" height="560.3906" width="8" x="71.4829" y="81.2969"/><line style="stroke:#181818;stroke-width:0.5;stroke-dasharray:5.0,5.0;" x1="75" x2="75" y1="81.2969" y2="641.6875"/></g><g><title>PushNotificationService</title><rect fill="#000000" fill-opacity="0.00000" height="560.3906" width="8" x="301.1968" y="81.2969"/><line style="stroke:#181818;stroke-width:0.5;stroke-dasharray:5.0,5.0;" x1="304.4204" x2="304.4204" y1="81.2969" y2="641.6875"/></g><g><title>UsersTokensService</title><rect fill="#000000" fill-opacity="0.00000" height="560.3906" width="8" x="474.4482" y="81.2969"/><line style="stroke:#181818;stroke-width:0.5;stroke-dasharray:5.0,5.0;" x1="477.9731" x2="477.9731" y1="81.2969" y2="641.6875"/></g><g><title>UsersTokensRepository</title><rect fill="#000000" fill-opacity="0.00000" height="560.3906" width="8" x="647.064" y="81.2969"/><line style="stroke:#181818;stroke-width:0.5;stroke-dasharray:5.0,5.0;" x1="650.9233" x2="650.9233" y1="81.2969" y2="641.6875"/></g><g><title>GroupsRepository</title><rect fill="#000000" fill-opacity="0.00000" height="560.3906" width="8" x="807.8525" y="81.2969"/><line style="stroke:#181818;stroke-width:0.5;stroke-dasharray:5.0,5.0;" x1="811.2046" x2="811.2046" y1="81.2969" y2="641.6875"/></g><g><title>NotificationPublisher</title><rect fill="#000000" fill-opacity="0.00000" height="560.3906" width="8" x="1001.5879" y="81.2969"/><line style="stroke:#181818;stroke-width:0.5;stroke-dasharray:5.0,5.0;" x1="1005.1646" x2="1005.1646" y1="81.2969" y2="641.6875"/></g><g><title>Message Broker</title><rect fill="#000000" fill-opacity="0.00000" height="560.3906" width="8" x="1216.0356" y="81.2969"/><line style="stroke:#181818;stroke-width:0.5;stroke-dasharray:5.0,5.0;" x1="1219.9297" x2="1219.9297" y1="81.2969" y2="641.6875"/></g><g class="participant participant-head" data-participant="User"><text fill="#000000" font-family="sans-serif" font-size="14" lengthAdjust="spacing" textLength="104.9658" x="20" y="77.9951">Group Member</text><ellipse cx="75.4829" cy="13.5" fill="#E2E2F0" rx="8" ry="8" style="stroke:#181818;stroke-width:0.5;"/><path d="M75.4829,21.5 L75.4829,48.5 M62.4829,29.5 L88.4829,29.5 M75.4829,48.5 L62.4829,63.5 M75.4829,48.5 L88.4829,63.5" fill="none" style="stroke:#181818;stroke-width:0.5;"/></g><g class="participant participant-tail" data-participant="User"><text fill="#000000" font-family="sans-serif" font-size="14" lengthAdjust="spacing" textLength="104.9658" x="20" y="653.6826">Group Member</text><ellipse cx="75.4829" cy="665.4844" fill="#E2E2F0" rx="8" ry="8" style="stroke:#181818;stroke-width:0.5;"/><path d="M75.4829,673.4844 L75.4829,700.4844 M62.4829,681.4844 L88.4829,681.4844 M75.4829,700.4844 L62.4829,715.4844 M75.4829,700.4844 L88.4829,715.4844" fill="none" style="stroke:#181818;stroke-width:0.5;"/></g><g class="participant participant-head" data-participant="PNS"><text fill="#000000" font-family="sans-serif" font-size="14" lengthAdjust="spacing" textLength="165.5527" x="219.4204" y="77.9951">PushNotificationService</text><ellipse cx="305.1968" cy="49" fill="#E2E2F0" rx="12" ry="12" style="stroke:#181818;stroke-width:0.5;"/><polygon fill="#181818" points="301.1968,37,307.1968,32,305.1968,37,307.1968,42,301.1968,37" style="stroke:#181818;stroke-width:1;"/></g><g class="participant participant-tail" data-participant="PNS"><text fill="#000000" font-family="sans-serif" font-size="14" lengthAdjust="spacing" textLength="165.5527" x="219.4204" y="653.6826">PushNotificationService</text><ellipse cx="305.1968" cy="672.9844" fill="#E2E2F0" rx="12" ry="12" style="stroke:#181818;stroke-width:0.5;"/><polygon fill="#181818" points="301.1968,660.9844,307.1968,655.9844,305.1968,660.9844,307.1968,665.9844,301.1968,660.9844" style="stroke:#181818;stroke-width:1;"/></g><g class="participant participant-head" data-participant="UTS"><rect fill="#E2E2F0" height="30.2969" rx="2.5" ry="2.5" style="stroke:#181818;stroke-width:0.5;" width="154.9502" x="400.9731" y="50"/><text fill="#000000" font-family="sans-serif" font-size="14" lengthAdjust="spacing" textLength="140.9502" x="407.9731" y="69.9951">UsersTokensService</text></g><g class="participant participant-tail" data-participant="UTS"><rect fill="#E2E2F0" height="30.2969" rx="2.5" ry="2.5" style="stroke:#181818;stroke-width:0.5;" width="154.9502" x="400.9731" y="640.6875"/><text fill="#000000" font-family="sans-serif" font-size="14" lengthAdjust="spacing" textLength="140.9502" x="407.9731" y="660.6826">UsersTokensService</text></g><g class="participant participant-head" data-participant="UTR"><text fill="#000000" font-family="sans-serif" font-size="14" lengthAdjust="spacing" textLength="164.2813" x="565.9233" y="77.9951">UsersTokensRepository</text><path d="M633.064,29 C633.064,19 651.064,19 651.064,19 C651.064,19 669.064,19 669.064,29 L669.064,55 C669.064,65 651.064,65 651.064,65 C651.064,65 633.064,65 633.064,55 L633.064,29" fill="#E2E2F0" style="stroke:#181818;stroke-width:1.5;"/><path d="M633.064,29 C633.064,39 651.064,39 651.064,39 C651.064,39 669.064,39 669.064,29" fill="none" style="stroke:#181818;stroke-width:1.5;"/></g><g class="participant participant-tail" data-participant="UTR"><text fill="#000000" font-family="sans-serif" font-size="14" lengthAdjust="spacing" textLength="164.2813" x="565.9233" y="653.6826">UsersTokensRepository</text><path d="M633.064,666.9844 C633.064,656.9844 651.064,656.9844 651.064,656.9844 C651.064,656.9844 669.064,656.9844 669.064,666.9844 L669.064,692.9844 C669.064,702.9844 651.064,702.9844 651.064,702.9844 C651.064,702.9844 633.064,702.9844 633.064,692.9844 L633.064,666.9844" fill="#E2E2F0" style="stroke:#181818;stroke-width:1.5;"/><path d="M633.064,666.9844 C633.064,676.9844 651.064,676.9844 651.064,676.9844 C651.064,676.9844 669.064,676.9844 669.064,666.9844" fill="none" style="stroke:#181818;stroke-width:1.5;"/></g><g class="participant participant-head" data-participant="GR"><text fill="#000000" font-family="sans-serif" font-size="14" lengthAdjust="spacing" textLength="125.2959" x="746.2046" y="77.9951">GroupsRepository</text><path d="M793.8525,29 C793.8525,19 811.8525,19 811.8525,19 C811.8525,19 829.8525,19 829.8525,29 L829.8525,55 C829.8525,65 811.8525,65 811.8525,65 C811.8525,65 793.8525,65 793.8525,55 L793.8525,29" fill="#E2E2F0" style="stroke:#181818;stroke-width:1.5;"/><path d="M793.8525,29 C793.8525,39 811.8525,39 811.8525,39 C811.8525,39 829.8525,39 829.8525,29" fill="none" style="stroke:#181818;stroke-width:1.5;"/></g><g class="participant participant-tail" data-participant="GR"><text fill="#000000" font-family="sans-serif" font-size="14" lengthAdjust="spacing" textLength="125.2959" x="746.2046" y="653.6826">GroupsRepository</text><path d="M793.8525,666.9844 C793.8525,656.9844 811.8525,656.9844 811.8525,656.9844 C811.8525,656.9844 829.8525,656.9844 829.8525,666.9844 L829.8525,692.9844 C829.8525,702.9844 811.8525,702.9844 811.8525,702.9844 C811.8525,702.9844 793.8525,702.9844 793.8525,692.9844 L793.8525,666.9844" fill="#E2E2F0" style="stroke:#181818;stroke-width:1.5;"/><path d="M793.8525,666.9844 C793.8525,676.9844 811.8525,676.9844 811.8525,676.9844 C811.8525,676.9844 829.8525,676.9844 829.8525,666.9844" fill="none" style="stroke:#181818;stroke-width:1.5;"/></g><g class="participant participant-head" data-participant="NP"><rect fill="#E2E2F0" height="30.2969" rx="2.5" ry="2.5" style="stroke:#181818;stroke-width:0.5;" width="158.8467" x="926.1646" y="50"/><text fill="#000000" font-family="sans-serif" font-size="14" lengthAdjust="spacing" textLength="144.8467" x="933.1646" y="69.9951">NotificationPublisher</text></g><g class="participant participant-tail" data-participant="NP"><rect fill="#E2E2F0" height="30.2969" rx="2.5" ry="2.5" style="stroke:#181818;stroke-width:0.5;" width="158.8467" x="926.1646" y="640.6875"/><text fill="#000000" font-family="sans-serif" font-size="14" lengthAdjust="spacing" textLength="144.8467" x="933.1646" y="660.6826">NotificationPublisher</text></g><g class="participant participant-head" data-participant="Broker"><path d="M1158.9297,55 L1281.1416,55 C1286.1416,55 1286.1416,68.1484 1286.1416,68.1484 C1286.1416,68.1484 1286.1416,81.2969 1281.1416,81.2969 L1158.9297,81.2969 C1153.9297,81.2969 1153.9297,68.1484 1153.9297,68.1484 C1153.9297,68.1484 1153.9297,55 1158.9297,55" fill="#E2E2F0" style="stroke:#181818;stroke-width:0.5;"/><path d="M1281.1416,55 C1276.1416,55 1276.1416,68.1484 1276.1416,68.1484 C1276.1416,81.2969 1281.1416,81.2969 1281.1416,81.2969" fill="none" style="stroke:#181818;stroke-width:0.5;"/><text fill="#000000" font-family="sans-serif" font-size="14" lengthAdjust="spacing" textLength="112.2119" x="1158.9297" y="72.9951">Message Broker</text></g><g class="participant participant-tail" data-participant="Broker"><path d="M1158.9297,640.6875 L1281.1416,640.6875 C1286.1416,640.6875 1286.1416,653.8359 1286.1416,653.8359 C1286.1416,653.8359 1286.1416,666.9844 1281.1416,666.9844 L1158.9297,666.9844 C1153.9297,666.9844 1153.9297,653.8359 1153.9297,653.8359 C1153.9297,653.8359 1153.9297,640.6875 1158.9297,640.6875" fill="#E2E2F0" style="stroke:#181818;stroke-width:0.5;"/><path d="M1281.1416,640.6875 C1276.1416,640.6875 1276.1416,653.8359 1276.1416,653.8359 C1276.1416,666.9844 1281.1416,666.9844 1281.1416,666.9844" fill="none" style="stroke:#181818;stroke-width:0.5;"/><text fill="#000000" font-family="sans-serif" font-size="14" lengthAdjust="spacing" textLength="112.2119" x="1158.9297" y="658.6826">Message Broker</text></g><g><title>Group Member</title><rect fill="#FFFFFF" height="541.3906" style="stroke:#181818;stroke-width:1;" width="10" x="70.4829" y="91.2969"/></g><g><title>PushNotificationService</title><rect fill="#FFFFFF" height="29.1328" style="stroke:#181818;stroke-width:1;" width="10" x="300.1968" y="155.5625"/></g><g><title>PushNotificationService</title><rect fill="#FFFFFF" height="58.2656" style="stroke:#181818;stroke-width:1;" width="10" x="300.1968" y="558.4219"/></g><g><title>UsersTokensService</title><rect fill="#FFFFFF" height="418.8594" style="stroke:#181818;stroke-width:1;" width="10" x="473.4482" y="213.8281"/></g><g><title>UsersTokensRepository</title><rect fill="#FFFFFF" height="58.2656" style="stroke:#181818;stroke-width:1;" width="10" x="646.064" y="242.9609"/></g><g><title>UsersTokensRepository</title><rect fill="#FFFFFF" height="29.1328" style="stroke:#181818;stroke-width:1;" width="10" x="646.064" y="500.1563"/></g><g><title>GroupsRepository</title><rect fill="#FFFFFF" height="214.9297" style="stroke:#181818;stroke-width:1;" width="10" x="806.8525" y="417.7578"/></g><g><title>NotificationPublisher</title><rect fill="#FFFFFF" height="244.0625" style="stroke:#181818;stroke-width:1;" width="10" x="1000.5879" y="388.625"/></g><g><title>Message Broker</title><rect fill="#FFFFFF" height="541.3906" style="stroke:#181818;stroke-width:1;" width="10" x="1215.0356" y="91.2969"/></g><rect fill="#EEEEEE" height="3" style="stroke:#EEEEEE;stroke-width:1;" width="1291.1416" x="0" y="111.8633"/><line style="stroke:#000000;stroke-width:1;" x1="0" x2="1291.1416" y1="111.8633" y2="111.8633"/><line style="stroke:#000000;stroke-width:1;" x1="0" x2="1291.1416" y1="114.8633" y2="114.8633"/><rect fill="#EEEEEE" height="23.1328" style="stroke:#000000;stroke-width:2;" width="242.0459" x="524.5479" y="101.2969"/><text fill="#000000" font-family="sans-serif" font-size="13" font-weight="bold" lengthAdjust="spacing" textLength="223.52" x="530.5479" y="117.3638">User device token registration</text><g class="message" data-participant-1="User" data-participant-2="PNS"><polygon fill="#181818" points="288.1968,151.5625,298.1968,155.5625,288.1968,159.5625,292.1968,155.5625" style="stroke:#181818;stroke-width:1;"/><line style="stroke:#181818;stroke-width:1;" x1="80.4829" x2="294.1968" y1="155.5625" y2="155.5625"/><text fill="#000000" font-family="sans-serif" font-size="13" font-weight="bold" lengthAdjust="spacing" textLength="9.0454" x="87.4829" y="150.4966">1</text><text fill="#000000" font-family="sans-serif" font-size="13" lengthAdjust="spacing" textLength="187.6685" x="100.5283" y="150.4966">Request token for my device</text></g><g class="message" data-participant-1="PNS" data-participant-2="User"><polygon fill="#181818" points="91.4829,180.6953,81.4829,184.6953,91.4829,188.6953,87.4829,184.6953" style="stroke:#181818;stroke-width:1;"/><line style="stroke:#181818;stroke-width:1;" x1="85.4829" x2="304.1968" y1="184.6953" y2="184.6953"/><text fill="#000000" font-family="sans-serif" font-size="13" font-weight="bold" lengthAdjust="spacing" textLength="9.0454" x="97.4829" y="179.6294">2</text><text fill="#000000" font-family="sans-serif" font-size="13" lengthAdjust="spacing" textLength="58.6016" x="110.5283" y="179.6294">&lt;token&gt;</text></g><g class="message" data-participant-1="User" data-participant-2="UTS"><polygon fill="#181818" points="461.4482,209.8281,471.4482,213.8281,461.4482,217.8281,465.4482,213.8281" style="stroke:#181818;stroke-width:1;"/><line style="stroke:#181818;stroke-width:1;" x1="80.4829" x2="467.4482" y1="213.8281" y2="213.8281"/><text fill="#000000" font-family="sans-serif" font-size="13" font-weight="bold" lengthAdjust="spacing" textLength="9.0454" x="87.4829" y="208.7622">3</text><text fill="#000000" font-family="sans-serif" font-size="13" lengthAdjust="spacing" textLength="145.209" x="100.5283" y="208.7622">Register &lt;uid, token&gt;</text></g><g class="message" data-participant-1="UTS" data-participant-2="UTR"><polygon fill="#181818" points="634.064,238.9609,644.064,242.9609,634.064,246.9609,638.064,242.9609" style="stroke:#181818;stroke-width:1;"/><line style="stroke:#181818;stroke-width:1;" x1="483.4482" x2="640.064" y1="242.9609" y2="242.9609"/><text fill="#000000" font-family="sans-serif" font-size="13" font-weight="bold" lengthAdjust="spacing" textLength="9.0454" x="490.4482" y="237.895">4</text><text fill="#000000" font-family="sans-serif" font-size="13" lengthAdjust="spacing" textLength="123.0112" x="503.4937" y="237.895">Save &lt;uid, token&gt;</text></g><g class="message" data-participant-1="UTR" data-participant-2="UTS"><line style="stroke:#181818;stroke-width:1;" x1="484.4482" x2="494.4482" y1="272.0938" y2="268.0938"/><line style="stroke:#181818;stroke-width:1;" x1="484.4482" x2="494.4482" y1="272.0938" y2="276.0938"/><line style="stroke:#181818;stroke-width:1;stroke-dasharray:2.0,2.0;" x1="483.4482" x2="645.064" y1="272.0938" y2="272.0938"/><text fill="#000000" font-family="sans-serif" font-size="13" font-weight="bold" lengthAdjust="spacing" textLength="9.0454" x="500.4482" y="267.0278">5</text><text fill="#000000" font-family="sans-serif" font-size="13" lengthAdjust="spacing" textLength="17.7607" x="513.4937" y="267.0278">Ok</text></g><g class="message" data-participant-1="UTS" data-participant-2="User"><line style="stroke:#181818;stroke-width:1;" x1="81.4829" x2="91.4829" y1="301.2266" y2="297.2266"/><line style="stroke:#181818;stroke-width:1;" x1="81.4829" x2="91.4829" y1="301.2266" y2="305.2266"/><line style="stroke:#181818;stroke-width:1;stroke-dasharray:2.0,2.0;" x1="80.4829" x2="472.4482" y1="301.2266" y2="301.2266"/><text fill="#000000" font-family="sans-serif" font-size="13" font-weight="bold" lengthAdjust="spacing" textLength="9.0454" x="97.4829" y="296.1606">6</text><text fill="#000000" font-family="sans-serif" font-size="13" lengthAdjust="spacing" textLength="17.7607" x="110.5283" y="296.1606">Ok</text></g><rect fill="#EEEEEE" height="3" style="stroke:#EEEEEE;stroke-width:1;" width="1291.1416" x="0" y="329.793"/><line style="stroke:#000000;stroke-width:1;" x1="0" x2="1291.1416" y1="329.793" y2="329.793"/><line style="stroke:#000000;stroke-width:1;" x1="0" x2="1291.1416" y1="332.793" y2="332.793"/><rect fill="#EEEEEE" height="23.1328" style="stroke:#000000;stroke-width:2;" width="277.0532" x="507.0442" y="319.2266"/><text fill="#000000" font-family="sans-serif" font-size="13" font-weight="bold" lengthAdjust="spacing" textLength="258.5273" x="513.0442" y="335.2935">A notification command is received</text><g class="message" data-participant-1="Broker" data-participant-2="NP"><line style="stroke:#181818;stroke-width:1;" x1="1011.5879" x2="1021.5879" y1="388.625" y2="384.625"/><line style="stroke:#181818;stroke-width:1;" x1="1011.5879" x2="1021.5879" y1="388.625" y2="392.625"/><line style="stroke:#181818;stroke-width:1;stroke-dasharray:2.0,2.0;" x1="1010.5879" x2="1214.0356" y1="388.625" y2="388.625"/><text fill="#000000" font-family="sans-serif" font-size="13" font-weight="bold" lengthAdjust="spacing" textLength="9.0454" x="1027.5879" y="375.9927">7</text><text fill="#000000" font-family="sans-serif" font-size="13" lengthAdjust="spacing" textLength="168.27" x="1040.6333" y="368.4263">Send &lt;notification&gt; to all</text><text fill="#000000" font-family="sans-serif" font-size="13" lengthAdjust="spacing" textLength="166.5625" x="1044.7656" y="383.5591">members of group &lt;gid&gt;</text></g><g class="message" data-participant-1="NP" data-participant-2="GR"><polygon fill="#181818" points="827.8525,413.7578,817.8525,417.7578,827.8525,421.7578,823.8525,417.7578" style="stroke:#181818;stroke-width:1;"/><line style="stroke:#181818;stroke-width:1;stroke-dasharray:2.0,2.0;" x1="821.8525" x2="999.5879" y1="417.7578" y2="417.7578"/><text fill="#000000" font-family="sans-serif" font-size="13" font-weight="bold" lengthAdjust="spacing" textLength="9.0454" x="833.8525" y="412.6919">8</text><text fill="#000000" font-family="sans-serif" font-size="13" lengthAdjust="spacing" textLength="151.6899" x="846.8979" y="412.6919">Get members of &lt;gid&gt;</text></g><g class="message" data-participant-1="GR" data-participant-2="NP"><line style="stroke:#181818;stroke-width:1;" x1="998.5879" x2="988.5879" y1="446.8906" y2="442.8906"/><line style="stroke:#181818;stroke-width:1;" x1="998.5879" x2="988.5879" y1="446.8906" y2="450.8906"/><line style="stroke:#181818;stroke-width:1;stroke-dasharray:2.0,2.0;" x1="816.8525" x2="999.5879" y1="446.8906" y2="446.8906"/><text fill="#000000" font-family="sans-serif" font-size="13" font-weight="bold" lengthAdjust="spacing" textLength="9.0454" x="823.8525" y="441.8247">9</text><text fill="#000000" font-family="sans-serif" font-size="13" lengthAdjust="spacing" textLength="105.2124" x="836.8979" y="441.8247">List of members</text></g><path d="M10,461.8906 L86.624,461.8906 L86.624,469.0234 L76.624,479.0234 L10,479.0234 L10,461.8906" fill="#FFD700" style="stroke:#000000;stroke-width:1.5;"/><rect fill="none" height="162.7969" style="stroke:#000000;stroke-width:1.5;" width="1085.0112" x="10" y="461.8906"/><text fill="#000000" font-family="sans-serif" font-size="13" font-weight="bold" lengthAdjust="spacing" textLength="31.624" x="25" y="474.9575">loop</text><text fill="#000000" font-family="sans-serif" font-size="11" font-weight="bold" lengthAdjust="spacing" textLength="104.5698" x="101.624" y="474.1011">[forach member]</text><g class="message" data-participant-1="NP" data-participant-2="UTR"><polygon fill="#181818" points="667.064,496.1563,657.064,500.1563,667.064,504.1563,663.064,500.1563" style="stroke:#181818;stroke-width:1;"/><line style="stroke:#181818;stroke-width:1;" x1="661.064" x2="999.5879" y1="500.1563" y2="500.1563"/><text fill="#000000" font-family="sans-serif" font-size="13" font-weight="bold" lengthAdjust="spacing" textLength="18.0908" x="673.064" y="495.0903">10</text><text fill="#000000" font-family="sans-serif" font-size="13" lengthAdjust="spacing" textLength="144.9551" x="695.1548" y="495.0903">Get &lt;member&gt; token</text></g><g class="message" data-participant-1="UTR" data-participant-2="NP"><line style="stroke:#181818;stroke-width:1;" x1="998.5879" x2="988.5879" y1="529.2891" y2="525.2891"/><line style="stroke:#181818;stroke-width:1;" x1="998.5879" x2="988.5879" y1="529.2891" y2="533.2891"/><line style="stroke:#181818;stroke-width:1;stroke-dasharray:2.0,2.0;" x1="651.064" x2="999.5879" y1="529.2891" y2="529.2891"/><text fill="#000000" font-family="sans-serif" font-size="13" font-weight="bold" lengthAdjust="spacing" textLength="18.0908" x="658.064" y="524.2231">11</text><text fill="#000000" font-family="sans-serif" font-size="13" lengthAdjust="spacing" textLength="39.6602" x="680.1548" y="524.2231">Token</text></g><g class="message" data-participant-1="NP" data-participant-2="PNS"><polygon fill="#181818" points="321.1968,554.4219,311.1968,558.4219,321.1968,562.4219,317.1968,558.4219" style="stroke:#181818;stroke-width:1;"/><line style="stroke:#181818;stroke-width:1;" x1="315.1968" x2="999.5879" y1="558.4219" y2="558.4219"/><text fill="#000000" font-family="sans-serif" font-size="13" font-weight="bold" lengthAdjust="spacing" textLength="18.0908" x="327.1968" y="553.356">12</text><text fill="#000000" font-family="sans-serif" font-size="13" lengthAdjust="spacing" textLength="258.5146" x="349.2876" y="553.356">Send &lt;notification&gt; to device &lt;token&gt;</text></g><g class="message" data-participant-1="PNS" data-participant-2="NP"><line style="stroke:#181818;stroke-width:1;" x1="998.5879" x2="988.5879" y1="587.5547" y2="583.5547"/><line style="stroke:#181818;stroke-width:1;" x1="998.5879" x2="988.5879" y1="587.5547" y2="591.5547"/><line style="stroke:#181818;stroke-width:1;stroke-dasharray:2.0,2.0;" x1="310.1968" x2="999.5879" y1="587.5547" y2="587.5547"/><text fill="#000000" font-family="sans-serif" font-size="13" font-weight="bold" lengthAdjust="spacing" textLength="18.0908" x="317.1968" y="582.4888">13</text><text fill="#000000" font-family="sans-serif" font-size="13" lengthAdjust="spacing" textLength="17.7607" x="339.2876" y="582.4888">Ok</text></g><g class="message" data-participant-1="PNS" data-participant-2="User"><line style="stroke:#181818;stroke-width:1;" x1="81.4829" x2="91.4829" y1="616.6875" y2="612.6875"/><line style="stroke:#181818;stroke-width:1;" x1="81.4829" x2="91.4829" y1="616.6875" y2="620.6875"/><line style="stroke:#181818;stroke-width:1;stroke-dasharray:2.0,2.0;" x1="80.4829" x2="304.1968" y1="616.6875" y2="616.6875"/><text fill="#000000" font-family="sans-serif" font-size="13" font-weight="bold" lengthAdjust="spacing" textLength="18.0908" x="97.4829" y="611.6216">14</text><text fill="#000000" font-family="sans-serif" font-size="13" lengthAdjust="spacing" textLength="74.5913" x="119.5737" y="611.6216">Notification</text></g><!--SRC=[TLF1Ze8m4BttAoRkTVa1WoIx5o-hIq1lUwamOYDGjYqc_ltEjBWK4qs8EdrltlJDGuvEzsDtGYF4PWD7YmPglAaAmUahzc2mKTOPwPJkORCHGbPE6rXjZHu7s25JLo2jfufAzyxe5lBHNlRQgREgFBD4utiIBj-NOf36gKeDidUUPm-iPIFKyL2AMZfvaXPZI863jeeck0TKCQFyH4-0RR7GYaVAnrEhx8NkIxXzBdv7715MExHMDWYVXlJ2pS9FVtDraoxCC_zx77llaemlk8O2gPzraubdSgoxJyREJBQ27YOnUGsfXsUYnWNcqPbCuSwy42gaewhVOMBCiv5nz0HuiOPItl0bjF3GD4sI0Fw-1gsfKlfAD0mpE2OVq4TEGgMxJlOrA4jngL3TiFPH2Sv0acGPEKop887Ic9hHK23R5dvww7oMBEWpD3vSQQFgQ5pQqJxdPhJLDMpHnOmdBErzMyp2N-GOeoQ24AtMmrkZsvfN8wlBT2A0FYmocSSYQJZAWdqUiV232_GzYnt-SK_EpSrzH5wuCRrzZoWiz3WCNF2XUUZHYXQr4AKuwi_3S1iI5ty0]--></g></svg>