<svg xmlns="http://www.w3.org/2000/svg" xmlns:xlink="http://www.w3.org/1999/xlink" contentStyleType="text/css" data-diagram-type="CLASS" height="511px" preserveAspectRatio="none" style="width:1459px;height:511px;background:#1B1B1B;" version="1.1" viewBox="0 0 1459 511" width="1459px" zoomAndPan="magnify"><defs/><g><rect fill="#1B1B1B" height="511" style="stroke:none;stroke-width:1;" width="1459" x="0" y="0"/><!--cluster application--><g class="cluster" data-entity="application" data-source-line="13" data-uid="ent0002" id="cluster_application"><path d="M8.5,6 L97.4102,6 A3.75,3.75 0 0 1 99.9102,8.5 L106.9102,28.2969 L1449.5,28.2969 A2.5,2.5 0 0 1 1452,30.7969 L1452,501.5 A2.5,2.5 0 0 1 1449.5,504 L8.5,504 A2.5,2.5 0 0 1 6,501.5 L6,8.5 A2.5,2.5 0 0 1 8.5,6" fill="none" style="stroke:#FFFFFF;stroke-width:1.5;"/><line style="stroke:#FFFFFF;stroke-width:1.5;" x1="6" x2="106.9102" y1="28.2969" y2="28.2969"/><text fill="#FFFFFF" font-family="sans-serif" font-size="14" font-weight="bold" lengthAdjust="spacing" textLength="87.9102" x="10" y="20.9951">application</text></g><!--cluster domain--><g class="cluster" data-entity="domain" data-source-line="15" data-uid="ent0003" id="cluster_domain"><path d="M32.5,169 L91.9404,169 A3.75,3.75 0 0 1 94.4404,171.5 L101.4404,191.2969 L334.5,191.2969 A2.5,2.5 0 0 1 337,193.7969 L337,306.5 A2.5,2.5 0 0 1 334.5,309 L32.5,309 A2.5,2.5 0 0 1 30,306.5 L30,171.5 A2.5,2.5 0 0 1 32.5,169" fill="none" style="stroke:#FFFFFF;stroke-width:1.5;"/><line style="stroke:#FFFFFF;stroke-width:1.5;" x1="30" x2="101.4404" y1="191.2969" y2="191.2969"/><text fill="#FFFFFF" font-family="sans-serif" font-size="14" font-weight="bold" lengthAdjust="spacing" textLength="58.4404" x="34" y="183.9951">domain</text></g><!--class GroupsRepository--><g class="entity" data-entity="GroupsRepository" data-source-line="26" data-uid="ent0008" id="entity_GroupsRepository"><rect fill="#313139" height="135.4219" rx="2.5" ry="2.5" style="stroke:#E7E7E7;stroke-width:0.5;" width="478.6348" x="956.5" y="353"/><ellipse cx="1128.9194" cy="380.1172" fill="#352866" rx="11" ry="11" style="stroke:#E7E7E7;stroke-width:1;"/><path d="M1124.8413,375.8828 L1124.8413,373.7266 L1132.2319,373.7266 L1132.2319,375.8828 L1129.7632,375.8828 L1129.7632,383.9609 L1132.2319,383.9609 L1132.2319,386.1172 L1124.8413,386.1172 L1124.8413,383.9609 L1127.3101,383.9609 L1127.3101,375.8828 L1124.8413,375.8828 Z " fill="#FFFFFF"/><text fill="#000000" font-family="sans-serif" font-size="12" font-style="italic" lengthAdjust="spacing" textLength="75.7559" x="1174.1895" y="369.1387">&#171;repository&#187;</text><text fill="#000000" font-family="sans-serif" font-size="12" font-style="italic" lengthAdjust="spacing" textLength="62.877" x="1180.6289" y="383.1074">&#171;out port&#187;</text><text fill="#FFFFFF" font-family="sans-serif" font-size="14" font-style="italic" lengthAdjust="spacing" textLength="125.2959" x="1149.4194" y="398.9326">GroupsRepository</text><line style="stroke:#E7E7E7;stroke-width:0.5;" x1="957.5" x2="1434.1348" y1="407.2344" y2="407.2344"/><line style="stroke:#E7E7E7;stroke-width:0.5;" x1="957.5" x2="1434.1348" y1="415.2344" y2="415.2344"/><ellipse cx="967.5" cy="428.8828" fill="#84BE84" rx="3" ry="3" style="stroke:#038048;stroke-width:1;"/><text fill="#FFFFFF" font-family="sans-serif" font-size="14" lengthAdjust="spacing" textLength="425.5166" x="976.5" y="432.2295">addMember(groupId: GroupId, userId: UserId): Result&lt;Unit&gt;</text><ellipse cx="967.5" cy="445.1797" fill="#84BE84" rx="3" ry="3" style="stroke:#038048;stroke-width:1;"/><text fill="#FFFFFF" font-family="sans-serif" font-size="14" lengthAdjust="spacing" textLength="452.6348" x="976.5" y="448.5264">removeMember(groupId: GroupId, userId: UserId): Result&lt;Unit&gt;</text><ellipse cx="967.5" cy="461.4766" fill="#84BE84" rx="3" ry="3" style="stroke:#038048;stroke-width:1;"/><text fill="#FFFFFF" font-family="sans-serif" font-size="14" lengthAdjust="spacing" textLength="401.7275" x="976.5" y="464.8232">getMembersOf(groupId: GroupId): Result&lt;Set&lt;UserId&gt;&gt;</text><ellipse cx="967.5" cy="477.7734" fill="#84BE84" rx="3" ry="3" style="stroke:#038048;stroke-width:1;"/><text fill="#FFFFFF" font-family="sans-serif" font-size="14" lengthAdjust="spacing" textLength="364.9092" x="976.5" y="481.1201">getGroupsOf(userId: UserId): Result&lt;Set&lt;GroupId&gt;</text></g><!--class NotificationPublisher--><g class="entity" data-entity="NotificationPublisher" data-source-line="33" data-uid="ent0009" id="entity_NotificationPublisher"><rect fill="#313139" height="102.8281" rx="2.5" ry="2.5" style="stroke:#E7E7E7;stroke-width:0.5;" width="548.3613" x="701" y="41"/><ellipse cx="898.5073" cy="68.1172" fill="#352866" rx="11" ry="11" style="stroke:#E7E7E7;stroke-width:1;"/><path d="M894.4292,63.8828 L894.4292,61.7266 L901.8198,61.7266 L901.8198,63.8828 L899.3511,63.8828 L899.3511,71.9609 L901.8198,71.9609 L901.8198,74.1172 L894.4292,74.1172 L894.4292,71.9609 L896.8979,71.9609 L896.8979,63.8828 L894.4292,63.8828 Z " fill="#FFFFFF"/><text fill="#000000" font-family="sans-serif" font-size="12" font-style="italic" lengthAdjust="spacing" textLength="57.7969" x="962.5322" y="57.1387">&#171;service&#187;</text><text fill="#000000" font-family="sans-serif" font-size="12" font-style="italic" lengthAdjust="spacing" textLength="62.877" x="959.9922" y="71.1074">&#171;out port&#187;</text><text fill="#FFFFFF" font-family="sans-serif" font-size="14" font-style="italic" lengthAdjust="spacing" textLength="144.8467" x="919.0073" y="86.9326">NotificationPublisher</text><line style="stroke:#E7E7E7;stroke-width:0.5;" x1="702" x2="1248.3613" y1="95.2344" y2="95.2344"/><line style="stroke:#E7E7E7;stroke-width:0.5;" x1="702" x2="1248.3613" y1="103.2344" y2="103.2344"/><ellipse cx="712" cy="116.8828" fill="#84BE84" rx="3" ry="3" style="stroke:#038048;stroke-width:1;"/><text fill="#FFFFFF" font-family="sans-serif" font-size="14" lengthAdjust="spacing" textLength="522.3613" x="721" y="120.2295">send(notificationMessage: NotificationMessage): PublishingTargetStrategy</text><ellipse cx="712" cy="133.1797" fill="#84BE84" rx="3" ry="3" style="stroke:#038048;stroke-width:1;"/><text fill="#FFFFFF" font-family="sans-serif" font-size="14" lengthAdjust="spacing" textLength="418.9199" x="721" y="136.5264">send(message: NotificationMessage: userIds: Set&lt;UserId&gt;)</text></g><!--class PublishingTargetStrategy--><g class="entity" data-entity="PublishingTargetStrategy" data-source-line="38" data-uid="ent0010" id="entity_PublishingTargetStrategy"><rect fill="#313139" height="80.5938" rx="2.5" ry="2.5" style="stroke:#E7E7E7;stroke-width:0.5;" width="359.6279" x="595" y="208"/><ellipse cx="681.7344" cy="224" fill="#352866" rx="11" ry="11" style="stroke:#E7E7E7;stroke-width:1;"/><path d="M677.6563,219.7656 L677.6563,217.6094 L685.0469,217.6094 L685.0469,219.7656 L682.5781,219.7656 L682.5781,227.8438 L685.0469,227.8438 L685.0469,230 L677.6563,230 L677.6563,227.8438 L680.125,227.8438 L680.125,219.7656 L677.6563,219.7656 Z " fill="#FFFFFF"/><text fill="#FFFFFF" font-family="sans-serif" font-size="14" font-style="italic" lengthAdjust="spacing" textLength="177.6592" x="702.2344" y="228.8467">PublishingTargetStrategy</text><line style="stroke:#E7E7E7;stroke-width:0.5;" x1="596" x2="953.6279" y1="240" y2="240"/><line style="stroke:#E7E7E7;stroke-width:0.5;" x1="596" x2="953.6279" y1="248" y2="248"/><ellipse cx="606" cy="261.6484" fill="#84BE84" rx="3" ry="3" style="stroke:#038048;stroke-width:1;"/><text fill="#FFFFFF" font-family="sans-serif" font-size="14" lengthAdjust="spacing" textLength="242.2588" x="615" y="264.9951">toAllMembersOf(groupId: GroupId)</text><ellipse cx="606" cy="277.9453" fill="#84BE84" rx="3" ry="3" style="stroke:#038048;stroke-width:1;"/><text fill="#FFFFFF" font-family="sans-serif" font-size="14" lengthAdjust="spacing" textLength="333.6279" x="615" y="281.292">toAllMembersSharingGroupWith(userId: UserId)</text></g><!--class BasicNotificationPublisher--><g class="entity" data-entity="BasicNotificationPublisher" data-source-line="45" data-uid="ent0012" id="entity_BasicNotificationPublisher"><rect fill="#313139" height="64.2969" rx="2.5" ry="2.5" style="stroke:#E7E7E7;stroke-width:0.5;" width="444.6533" x="990.5" y="216.5"/><ellipse cx="1117.6211" cy="232.5" fill="#2A5D60" rx="11" ry="11" style="stroke:#E7E7E7;stroke-width:1;"/><path d="M1117.7305,227.8438 L1116.5742,232.9219 L1118.9023,232.9219 L1117.7305,227.8438 Z M1116.2461,225.6094 L1119.2305,225.6094 L1122.5898,238 L1120.1367,238 L1119.3711,234.9375 L1116.0898,234.9375 L1115.3398,238 L1112.9023,238 L1116.2461,225.6094 Z " fill="#FFFFFF"/><text fill="#FFFFFF" font-family="sans-serif" font-size="14" font-style="italic" lengthAdjust="spacing" textLength="181.9111" x="1138.1211" y="237.3467">BasicNotificationPublisher</text><line style="stroke:#E7E7E7;stroke-width:0.5;" x1="991.5" x2="1434.1533" y1="248.5" y2="248.5"/><line style="stroke:#E7E7E7;stroke-width:0.5;" x1="991.5" x2="1434.1533" y1="256.5" y2="256.5"/><ellipse cx="1001.5" cy="270.1484" fill="#84BE84" rx="3" ry="3" style="stroke:#038048;stroke-width:1;"/><text fill="#FFFFFF" font-family="sans-serif" font-size="14" font-style="italic" lengthAdjust="spacing" textLength="418.6533" x="1010.5" y="273.4951">send(message: NotificationMessage, userIds: Set&lt;UserId&gt;)</text></g><!--class UsersTokensRepository--><g class="entity" data-entity="UsersTokensRepository" data-source-line="50" data-uid="ent0015" id="entity_UsersTokensRepository"><rect fill="#313139" height="119.125" rx="2.5" ry="2.5" style="stroke:#E7E7E7;stroke-width:0.5;" width="343.0781" x="186.5" y="361"/><ellipse cx="271.6484" cy="388.1172" fill="#352866" rx="11" ry="11" style="stroke:#E7E7E7;stroke-width:1;"/><path d="M267.5703,383.8828 L267.5703,381.7266 L274.9609,381.7266 L274.9609,383.8828 L272.4922,383.8828 L272.4922,391.9609 L274.9609,391.9609 L274.9609,394.1172 L267.5703,394.1172 L267.5703,391.9609 L270.0391,391.9609 L270.0391,383.8828 L267.5703,383.8828 Z " fill="#FFFFFF"/><text fill="#000000" font-family="sans-serif" font-size="12" font-style="italic" lengthAdjust="spacing" textLength="75.7559" x="336.4111" y="377.1387">&#171;repository&#187;</text><text fill="#000000" font-family="sans-serif" font-size="12" font-style="italic" lengthAdjust="spacing" textLength="62.877" x="342.8506" y="391.1074">&#171;out port&#187;</text><text fill="#FFFFFF" font-family="sans-serif" font-size="14" font-style="italic" lengthAdjust="spacing" textLength="164.2813" x="292.1484" y="406.9326">UsersTokensRepository</text><line style="stroke:#E7E7E7;stroke-width:0.5;" x1="187.5" x2="528.5781" y1="415.2344" y2="415.2344"/><line style="stroke:#E7E7E7;stroke-width:0.5;" x1="187.5" x2="528.5781" y1="423.2344" y2="423.2344"/><ellipse cx="197.5" cy="436.8828" fill="#84BE84" rx="3" ry="3" style="stroke:#038048;stroke-width:1;"/><text fill="#FFFFFF" font-family="sans-serif" font-size="14" lengthAdjust="spacing" textLength="305.7441" x="206.5" y="440.2295">save(userToken: UserToken): Result&lt;Unit&gt;</text><ellipse cx="197.5" cy="453.1797" fill="#84BE84" rx="3" ry="3" style="stroke:#038048;stroke-width:1;"/><text fill="#FFFFFF" font-family="sans-serif" font-size="14" lengthAdjust="spacing" textLength="282.6934" x="206.5" y="456.5264">get(userId: UserId): Result&lt;UserToken&gt;</text><ellipse cx="197.5" cy="469.4766" fill="#84BE84" rx="3" ry="3" style="stroke:#038048;stroke-width:1;"/><text fill="#FFFFFF" font-family="sans-serif" font-size="14" lengthAdjust="spacing" textLength="317.0781" x="206.5" y="472.8232">delete(userToken: UserToken): Result&lt;Unit&gt;</text></g><!--class UsersTokensService--><g class="entity" data-entity="UsersTokensService" data-source-line="56" data-uid="ent0016" id="entity_UsersTokensService"><rect fill="#313139" height="102.8281" rx="2.5" ry="2.5" style="stroke:#E7E7E7;stroke-width:0.5;" width="440.4287" x="39" y="41"/><ellipse cx="184.4893" cy="68.1172" fill="#352866" rx="11" ry="11" style="stroke:#E7E7E7;stroke-width:1;"/><path d="M180.4111,63.8828 L180.4111,61.7266 L187.8018,61.7266 L187.8018,63.8828 L185.333,63.8828 L185.333,71.9609 L187.8018,71.9609 L187.8018,74.1172 L180.4111,74.1172 L180.4111,71.9609 L182.8799,71.9609 L182.8799,63.8828 L180.4111,63.8828 Z " fill="#FFFFFF"/><text fill="#000000" font-family="sans-serif" font-size="12" font-style="italic" lengthAdjust="spacing" textLength="57.7969" x="246.5659" y="57.1387">&#171;service&#187;</text><text fill="#000000" font-family="sans-serif" font-size="12" font-style="italic" lengthAdjust="spacing" textLength="54.1641" x="248.3823" y="71.1074">&#171;in port&#187;</text><text fill="#FFFFFF" font-family="sans-serif" font-size="14" font-style="italic" lengthAdjust="spacing" textLength="140.9502" x="204.9893" y="86.9326">UsersTokensService</text><line style="stroke:#E7E7E7;stroke-width:0.5;" x1="40" x2="478.4287" y1="95.2344" y2="95.2344"/><line style="stroke:#E7E7E7;stroke-width:0.5;" x1="40" x2="478.4287" y1="103.2344" y2="103.2344"/><ellipse cx="50" cy="116.8828" fill="#84BE84" rx="3" ry="3" style="stroke:#038048;stroke-width:1;"/><text fill="#FFFFFF" font-family="sans-serif" font-size="14" lengthAdjust="spacing" textLength="414.4287" x="59" y="120.2295">register(userId: UserId, token: Token): Result&lt;UserToken&gt;</text><ellipse cx="50" cy="133.1797" fill="#84BE84" rx="3" ry="3" style="stroke:#038048;stroke-width:1;"/><text fill="#FFFFFF" font-family="sans-serif" font-size="14" lengthAdjust="spacing" textLength="382.9834" x="59" y="136.5264">invalidate(userId: UserId, token: Token): Result&lt;Unit&gt;</text></g><!--class UsersTokensServiceImpl--><g class="entity" data-entity="UsersTokensServiceImpl" data-source-line="65" data-uid="ent0021" id="entity_UsersTokensServiceImpl"><rect fill="#313139" height="48" rx="2.5" ry="2.5" style="stroke:#E7E7E7;stroke-width:0.5;" width="203.4932" x="356.5" y="224.5"/><ellipse cx="371.5" cy="240.5" fill="#2E5233" rx="11" ry="11" style="stroke:#E7E7E7;stroke-width:1;"/><path d="M374.4688,246.1406 Q373.8906,246.4375 373.25,246.5781 Q372.6094,246.7344 371.9063,246.7344 Q369.4063,246.7344 368.0781,245.0938 Q366.7656,243.4375 366.7656,240.3125 Q366.7656,237.1875 368.0781,235.5313 Q369.4063,233.875 371.9063,233.875 Q372.6094,233.875 373.25,234.0313 Q373.9063,234.1875 374.4688,234.4844 L374.4688,237.2031 Q373.8438,236.625 373.25,236.3594 Q372.6563,236.0781 372.0313,236.0781 Q370.6875,236.0781 370,237.1563 Q369.3125,238.2188 369.3125,240.3125 Q369.3125,242.4063 370,243.4844 Q370.6875,244.5469 372.0313,244.5469 Q372.6563,244.5469 373.25,244.2813 Q373.8438,244 374.4688,243.4219 L374.4688,246.1406 Z " fill="#FFFFFF"/><text fill="#FFFFFF" font-family="sans-serif" font-size="14" lengthAdjust="spacing" textLength="171.4932" x="385.5" y="245.3467">UsersTokensServiceImpl</text><line style="stroke:#E7E7E7;stroke-width:0.5;" x1="357.5" x2="558.9932" y1="256.5" y2="256.5"/><line style="stroke:#E7E7E7;stroke-width:0.5;" x1="357.5" x2="558.9932" y1="264.5" y2="264.5"/></g><!--class Token--><g class="entity" data-entity="Token" data-source-line="17" data-uid="ent0004" id="entity_Token"><rect fill="#313139" height="56.2656" rx="2.5" ry="2.5" style="stroke:#E7E7E7;stroke-width:0.5;" width="116.3828" x="46" y="220.5"/><ellipse cx="61" cy="240.6328" fill="#352866" rx="11" ry="11" style="stroke:#E7E7E7;stroke-width:1;"/><path d="M56.9219,236.3984 L56.9219,234.2422 L64.3125,234.2422 L64.3125,236.3984 L61.8438,236.3984 L61.8438,244.4766 L64.3125,244.4766 L64.3125,246.6328 L56.9219,246.6328 L56.9219,244.4766 L59.3906,244.4766 L59.3906,236.3984 L56.9219,236.3984 Z " fill="#FFFFFF"/><text fill="#000000" font-family="sans-serif" font-size="12" font-style="italic" lengthAdjust="spacing" textLength="88.3828" x="73" y="236.6387">&#171;value object&#187;</text><text fill="#FFFFFF" font-family="sans-serif" font-size="14" font-style="italic" lengthAdjust="spacing" textLength="42.7109" x="95.8359" y="252.4639">Token</text><line style="stroke:#E7E7E7;stroke-width:0.5;" x1="47" x2="161.3828" y1="260.7656" y2="260.7656"/><line style="stroke:#E7E7E7;stroke-width:0.5;" x1="47" x2="161.3828" y1="268.7656" y2="268.7656"/></g><!--class UserToken--><g class="entity" data-entity="UserToken" data-source-line="19" data-uid="ent0005" id="entity_UserToken"><rect fill="#313139" height="88.8594" rx="2.5" ry="2.5" style="stroke:#E7E7E7;stroke-width:0.5;" width="123.6445" x="197" y="204"/><ellipse cx="219.6605" cy="224.1328" fill="#352866" rx="11" ry="11" style="stroke:#E7E7E7;stroke-width:1;"/><path d="M215.5824,219.8984 L215.5824,217.7422 L222.973,217.7422 L222.973,219.8984 L220.5043,219.8984 L220.5043,227.9766 L222.973,227.9766 L222.973,230.1328 L215.5824,230.1328 L215.5824,227.9766 L218.0512,227.9766 L218.0512,219.8984 L215.5824,219.8984 Z " fill="#FFFFFF"/><text fill="#000000" font-family="sans-serif" font-size="12" font-style="italic" lengthAdjust="spacing" textLength="49.6465" x="247.8502" y="220.1387">&#171;entity&#187;</text><text fill="#FFFFFF" font-family="sans-serif" font-size="14" font-style="italic" lengthAdjust="spacing" textLength="74.6211" x="235.3629" y="235.9639">UserToken</text><line style="stroke:#E7E7E7;stroke-width:0.5;" x1="198" x2="319.6445" y1="244.2656" y2="244.2656"/><ellipse cx="208" cy="257.9141" fill="none" rx="3" ry="3" style="stroke:#038048;stroke-width:1;"/><text fill="#FFFFFF" font-family="sans-serif" font-size="14" lengthAdjust="spacing" textLength="97.6445" x="217" y="261.2607">userId: UserId</text><ellipse cx="208" cy="274.2109" fill="none" rx="3" ry="3" style="stroke:#038048;stroke-width:1;"/><text fill="#FFFFFF" font-family="sans-serif" font-size="14" lengthAdjust="spacing" textLength="91.5264" x="217" y="277.5576">token: Token</text><line style="stroke:#E7E7E7;stroke-width:0.5;" x1="198" x2="319.6445" y1="284.8594" y2="284.8594"/></g><!--link Token to UserToken--><g class="link" data-entity-1="Token" data-entity-2="UserToken" data-source-line="23" data-uid="lnk7" id="link_Token_UserToken"><path codeLine="23" d="M168.12,248.5 C179.73,248.5 173.33,248.5 184.94,248.5" fill="none" id="Token-UserToken" style="stroke:#E7E7E7;stroke-width:1;"/><polygon fill="#E7E7E7" points="162.12,248.5,171.12,252.5,167.12,248.5,171.12,244.5,162.12,248.5" style="stroke:#E7E7E7;stroke-width:1;"/><polygon fill="#E7E7E7" points="196.94,248.5,190.94,244.5,184.94,248.5,190.94,252.5,196.94,248.5" style="stroke:#E7E7E7;stroke-width:1;"/><text fill="#FFFFFF" font-family="sans-serif" font-size="13" lengthAdjust="spacing" textLength="8.271" x="170.4599" y="244.5502">1</text></g><!--link NotificationPublisher to PublishingTargetStrategy--><g class="link" data-entity-1="NotificationPublisher" data-entity-2="PublishingTargetStrategy" data-source-line="43" data-uid="lnk11" id="link_NotificationPublisher_PublishingTargetStrategy"><path codeLine="43" d="M899.7321,151.4611 C872.8621,172.1511 856.5041,184.7396 831.2941,204.1496" fill="none" id="NotificationPublisher-PublishingTargetStrategy" style="stroke:#E7E7E7;stroke-width:1;"/><polygon fill="#E7E7E7" points="909.24,144.14,902.0457,144.6313,899.7321,151.4611,906.9264,150.9699,909.24,144.14" style="stroke:#E7E7E7;stroke-width:1;"/><polygon fill="#E7E7E7" points="826.54,207.81,836.1114,205.4889,830.5018,204.7597,831.231,199.15,826.54,207.81" style="stroke:#E7E7E7;stroke-width:1;"/><text fill="#FFFFFF" font-family="sans-serif" font-size="13" lengthAdjust="spacing" textLength="8.271" x="826.4671" y="196.9401">1</text></g><!--reverse link NotificationPublisher to BasicNotificationPublisher--><g class="link" data-entity-1="NotificationPublisher" data-entity-2="BasicNotificationPublisher" data-source-line="46" data-uid="lnk13" id="link_NotificationPublisher_BasicNotificationPublisher"><path d="M1068.373,153.9173 C1105.223,177.7573 1132.89,195.66 1164.9,216.38" fill="none" id="NotificationPublisher-backto-BasicNotificationPublisher" style="stroke:#E7E7E7;stroke-width:1;stroke-dasharray:7.0,7.0;"/><polygon fill="none" points="1053.26,144.14,1065.1139,158.955,1071.6321,148.8797,1053.26,144.14" style="stroke:#E7E7E7;stroke-width:1;"/></g><!--link BasicNotificationPublisher to GroupsRepository--><g class="link" data-entity-1="BasicNotificationPublisher" data-entity-2="GroupsRepository" data-source-line="48" data-uid="lnk14" id="link_BasicNotificationPublisher_GroupsRepository"><path codeLine="48" d="M1208.6877,292.6206 C1206.6677,312.8506 1205.7468,322.0698 1203.2568,346.9798" fill="none" id="BasicNotificationPublisher-GroupsRepository" style="stroke:#E7E7E7;stroke-width:1;"/><polygon fill="#E7E7E7" points="1209.88,280.68,1205.3036,286.2529,1208.6877,292.6206,1213.2641,287.0477,1209.88,280.68" style="stroke:#E7E7E7;stroke-width:1;"/><polygon fill="#E7E7E7" points="1202.66,352.95,1207.5353,344.3925,1203.1573,347.9748,1199.575,343.5968,1202.66,352.95" style="stroke:#E7E7E7;stroke-width:1;"/><text fill="#FFFFFF" font-family="sans-serif" font-size="13" lengthAdjust="spacing" textLength="8.271" x="1194.9857" y="341.7925">1</text></g><!--link UserToken to UsersTokensRepository--><g class="link" data-entity-1="UserToken" data-entity-2="UsersTokensRepository" data-source-line="61" data-uid="lnk18" id="link_UserToken_UsersTokensRepository"><path codeLine="61" d="M287.5107,298.4641 C299.4907,319.0241 304.8829,328.2792 317.7829,350.4392" fill="none" id="UserToken-UsersTokensRepository" style="stroke:#E7E7E7;stroke-width:1;"/><polygon fill="#E7E7E7" points="284.49,293.28,285.565,303.07,287.0073,297.6001,292.4772,299.0424,284.49,293.28" style="stroke:#E7E7E7;stroke-width:1;"/><polygon fill="#E7E7E7" points="323.82,360.81,324.2584,353.6122,317.7829,350.4392,317.3445,357.637,323.82,360.81" style="stroke:#E7E7E7;stroke-width:1;"/><text fill="#FFFFFF" font-family="sans-serif" font-size="13" lengthAdjust="spacing" textLength="8.271" x="279.6923" y="313.0456">1</text></g><!--link UsersTokensService to UserToken--><g class="link" data-entity-1="UsersTokensService" data-entity-2="UserToken" data-source-line="62" data-uid="lnk19" id="link_UsersTokensService_UserToken"><path codeLine="62" d="M259,156.35 C259,175.63 259,179.38 259,197.93" fill="none" id="UsersTokensService-UserToken" style="stroke:#E7E7E7;stroke-width:1;"/><polygon fill="#E7E7E7" points="259,144.35,255,150.35,259,156.35,263,150.35,259,144.35" style="stroke:#E7E7E7;stroke-width:1;"/><polygon fill="#E7E7E7" points="259,203.93,263,194.93,259,198.93,255,194.93,259,203.93" style="stroke:#E7E7E7;stroke-width:1;"/><text fill="#FFFFFF" font-family="sans-serif" font-size="13" lengthAdjust="spacing" textLength="8.271" x="250.4355" y="193.0446">1</text></g><!--link UsersTokensService to Token--><g class="link" data-entity-1="UsersTokensService" data-entity-2="Token" data-source-line="63" data-uid="lnk20" id="link_UsersTokensService_Token"><path codeLine="63" d="M188.9134,152.2708 C182.7734,157.8008 185.65,155.43 180,161 C160.79,179.95 144.5537,198.3712 129.8637,215.9012" fill="none" id="UsersTokensService-Token" style="stroke:#E7E7E7;stroke-width:1;"/><polygon fill="#E7E7E7" points="197.83,144.24,190.6948,145.2832,188.9134,152.2708,196.0486,151.2276,197.83,144.24" style="stroke:#E7E7E7;stroke-width:1;"/><polygon fill="#E7E7E7" points="126.01,220.5,134.8565,216.171,129.2214,216.6677,128.7248,211.0327,126.01,220.5" style="stroke:#E7E7E7;stroke-width:1;"/><text fill="#FFFFFF" font-family="sans-serif" font-size="13" lengthAdjust="spacing" textLength="8.271" x="122.1619" y="209.3422">1</text></g><!--reverse link UsersTokensService to UsersTokensServiceImpl--><g class="link" data-entity-1="UsersTokensService" data-entity-2="UsersTokensServiceImpl" data-source-line="65" data-uid="lnk22" id="link_UsersTokensService_UsersTokensServiceImpl"><path d="M338.6744,155.1574 C373.6744,182.2474 400.84,203.27 428.17,224.41" fill="none" id="UsersTokensService-backto-UsersTokensServiceImpl" style="stroke:#E7E7E7;stroke-width:1;stroke-dasharray:7.0,7.0;"/><polygon fill="none" points="324.44,144.14,335.0019,159.9022,342.3468,150.4126,324.44,144.14" style="stroke:#E7E7E7;stroke-width:1;"/></g><!--link UsersTokensServiceImpl to UsersTokensRepository--><g class="link" data-entity-1="UsersTokensServiceImpl" data-entity-2="UsersTokensRepository" data-source-line="66" data-uid="lnk23" id="link_UsersTokensServiceImpl_UsersTokensRepository"><path codeLine="66" d="M438.224,283.1221 C424.954,305.6721 413.4231,325.289 395.6331,355.519" fill="none" id="UsersTokensServiceImpl-UsersTokensRepository" style="stroke:#E7E7E7;stroke-width:1;"/><polygon fill="#E7E7E7" points="444.31,272.78,437.8196,275.9224,438.224,283.1221,444.7144,279.9798,444.31,272.78" style="stroke:#E7E7E7;stroke-width:1;"/><polygon fill="#E7E7E7" points="392.59,360.69,400.602,354.9622,395.1259,356.3808,393.7073,350.9047,392.59,360.69" style="stroke:#E7E7E7;stroke-width:1;"/><text fill="#FFFFFF" font-family="sans-serif" font-size="13" lengthAdjust="spacing" textLength="8.271" x="388.1381" y="349.9746">1</text></g><!--SRC=[fLJ1RgCm4BtdAwoUsZGvx1KXfFPIvT1srQJgsO49yTROo1uYHH7_NXiS1noWtLqV4E3tthmPUwQawIVDWT2ov2oboAGWfzcCc5MwhKmMbFc_TZ61e7Oq1RAHdo1871yehu38xHz8CKd8gHu2lsjGPm88P7YqK0-qwvvK1hJAeWQyoe9DjEoeZUgtQlzs2J1VSjZXCY4tlsuwS6VhOkb9oQhKRr1ApL2get6c_8Tn5yUoGb9AXJshzuHcsJCKMr2tkPMmZf_QbqMGmbr4ta1N7EDtmJ3fQ2Wev07-MoO7R3Nqw-vAva9RWw4sKad0RejWo6CHBTNf9SDrV978Tkx-_AwsdEazA5Cz8tHWAKnLKeF8RaM7_mnQctiNzKJTJ-F9oJEHRwWoxjUeA49-32MB2Pd85LT7f5EMk-7SnWBsia3vmFd4COn0rtkgZ723-c2u3u-WwsYunlEbk-MZTMd8TAlDTueavLHhyaWrIuS5ML5oA4n_wf68tRHFPztw-w8l9ejkdnEkV9fXnuQdPMLrq_7_qjQQ7g0vWqqxQVn4cMo_qSRnz2uX0mxuyoZrH8Rhjhs2HZF3UY0r1JdJHYCmk-WDrM-iCs46FSkei_y3bJ2DuUDnuzeTiGyTCixfplyUsQ8QMDi1r-2LkVZTst-D68dI47kUhZ9icBDP_GK0]--></g></svg>