<svg xmlns="http://www.w3.org/2000/svg" xmlns:xlink="http://www.w3.org/1999/xlink" contentStyleType="text/css" data-diagram-type="CLASS" height="1114px" preserveAspectRatio="none" style="width:1398px;height:1114px;background:#1B1B1B;" version="1.1" viewBox="0 0 1398 1114" width="1398px" zoomAndPan="magnify"><defs/><g><rect fill="#1B1B1B" height="1114" style="stroke:none;stroke-width:1;" width="1398" x="0" y="0"/><!--cluster shared--><g class="cluster" data-entity="shared" data-source-line="20" data-uid="ent0005" id="cluster_shared"><path d="M538.5,6 L593.668,6 A3.75,3.75 0 0 1 596.168,8.5 L603.168,28.2969 L1298.5,28.2969 A2.5,2.5 0 0 1 1301,30.7969 L1301,344.5 A2.5,2.5 0 0 1 1298.5,347 L538.5,347 A2.5,2.5 0 0 1 536,344.5 L536,8.5 A2.5,2.5 0 0 1 538.5,6" fill="none" style="stroke:#FFFFFF;stroke-width:1.5;"/><line style="stroke:#FFFFFF;stroke-width:1.5;" x1="536" x2="603.168" y1="28.2969" y2="28.2969"/><text fill="#FFFFFF" font-family="sans-serif" font-size="14" font-weight="bold" lengthAdjust="spacing" textLength="54.168" x="540" y="20.9951">shared</text></g><!--cluster kernel--><g class="cluster" data-entity="kernel" data-source-line="20" data-uid="ent0006" id="cluster_kernel"><path d="M562.5,49 L613.4707,49 A3.75,3.75 0 0 1 615.9707,51.5 L622.9707,71.2969 L1274.5,71.2969 A2.5,2.5 0 0 1 1277,73.7969 L1277,320.5 A2.5,2.5 0 0 1 1274.5,323 L562.5,323 A2.5,2.5 0 0 1 560,320.5 L560,51.5 A2.5,2.5 0 0 1 562.5,49" fill="none" style="stroke:#FFFFFF;stroke-width:1.5;"/><line style="stroke:#FFFFFF;stroke-width:1.5;" x1="560" x2="622.9707" y1="71.2969" y2="71.2969"/><text fill="#FFFFFF" font-family="sans-serif" font-size="14" font-weight="bold" lengthAdjust="spacing" textLength="49.9707" x="564" y="63.9951">kernel</text></g><!--cluster domain--><g class="cluster" data-entity="domain" data-source-line="18" data-uid="ent0002" id="cluster_domain"><path d="M586.5,92 L645.9404,92 A3.75,3.75 0 0 1 648.4404,94.5 L655.4404,114.2969 L1250.5,114.2969 A2.5,2.5 0 0 1 1253,116.7969 L1253,296.5 A2.5,2.5 0 0 1 1250.5,299 L586.5,299 A2.5,2.5 0 0 1 584,296.5 L584,94.5 A2.5,2.5 0 0 1 586.5,92" fill="none" style="stroke:#FFFFFF;stroke-width:1.5;"/><line style="stroke:#FFFFFF;stroke-width:1.5;" x1="584" x2="655.4404" y1="114.2969" y2="114.2969"/><text fill="#FFFFFF" font-family="sans-serif" font-size="14" font-weight="bold" lengthAdjust="spacing" textLength="58.4404" x="588" y="106.9951">domain</text></g><!--cluster entities--><g class="cluster" data-entity="entities" data-source-line="19" data-uid="ent0003" id="cluster_entities"><path d="M610.5,135 L671.7725,135 A3.75,3.75 0 0 1 674.2725,137.5 L681.2725,157.2969 L1226.5,157.2969 A2.5,2.5 0 0 1 1229,159.7969 L1229,272.5 A2.5,2.5 0 0 1 1226.5,275 L610.5,275 A2.5,2.5 0 0 1 608,272.5 L608,137.5 A2.5,2.5 0 0 1 610.5,135" fill="none" style="stroke:#FFFFFF;stroke-width:1.5;"/><line style="stroke:#FFFFFF;stroke-width:1.5;" x1="608" x2="681.2725" y1="157.2969" y2="157.2969"/><text fill="#FFFFFF" font-family="sans-serif" font-size="14" font-weight="bold" lengthAdjust="spacing" textLength="60.2725" x="612" y="149.9951">entities</text></g><!--cluster application--><g class="cluster" data-entity="application" data-source-line="31" data-uid="ent0012" id="cluster_application"><path d="M8.5,380 L97.4102,380 A3.75,3.75 0 0 1 99.9102,382.5 L106.9102,402.2969 L1388.5,402.2969 A2.5,2.5 0 0 1 1391,404.7969 L1391,1104.5 A2.5,2.5 0 0 1 1388.5,1107 L8.5,1107 A2.5,2.5 0 0 1 6,1104.5 L6,382.5 A2.5,2.5 0 0 1 8.5,380" fill="none" style="stroke:#FFFFFF;stroke-width:1.5;"/><line style="stroke:#FFFFFF;stroke-width:1.5;" x1="6" x2="106.9102" y1="402.2969" y2="402.2969"/><text fill="#FFFFFF" font-family="sans-serif" font-size="14" font-weight="bold" lengthAdjust="spacing" textLength="87.9102" x="10" y="394.9951">application</text></g><!--cluster domain--><g class="cluster" data-entity="domain" data-source-line="33" data-uid="ent0013" id="cluster_domain"><path d="M79.5,423 L138.9404,423 A3.75,3.75 0 0 1 141.4404,425.5 L148.4404,445.2969 L381.5,445.2969 A2.5,2.5 0 0 1 384,447.7969 L384,560.5 A2.5,2.5 0 0 1 381.5,563 L79.5,563 A2.5,2.5 0 0 1 77,560.5 L77,425.5 A2.5,2.5 0 0 1 79.5,423" fill="none" style="stroke:#FFFFFF;stroke-width:1.5;"/><line style="stroke:#FFFFFF;stroke-width:1.5;" x1="77" x2="148.4404" y1="445.2969" y2="445.2969"/><text fill="#FFFFFF" font-family="sans-serif" font-size="14" font-weight="bold" lengthAdjust="spacing" textLength="58.4404" x="81" y="437.9951">domain</text></g><!--class User--><g class="entity" data-entity="User" data-source-line="20" data-uid="ent0004" id="entity_User"><rect fill="#313139" height="56.2656" rx="2.5" ry="2.5" style="stroke:#E7E7E7;stroke-width:0.5;" width="77.6465" x="775" y="186.5"/><ellipse cx="790" cy="206.6328" fill="#352866" rx="11" ry="11" style="stroke:#E7E7E7;stroke-width:1;"/><path d="M785.9219,202.3984 L785.9219,200.2422 L793.3125,200.2422 L793.3125,202.3984 L790.8438,202.3984 L790.8438,210.4766 L793.3125,210.4766 L793.3125,212.6328 L785.9219,212.6328 L785.9219,210.4766 L788.3906,210.4766 L788.3906,202.3984 L785.9219,202.3984 Z " fill="#FFFFFF"/><text fill="#000000" font-family="sans-serif" font-size="12" font-style="italic" lengthAdjust="spacing" textLength="49.6465" x="802" y="202.6387">&#171;entity&#187;</text><text fill="#FFFFFF" font-family="sans-serif" font-size="14" font-style="italic" lengthAdjust="spacing" textLength="31.9102" x="810.8682" y="218.4639">User</text><line style="stroke:#E7E7E7;stroke-width:0.5;" x1="776" x2="851.6465" y1="226.7656" y2="226.7656"/><line style="stroke:#E7E7E7;stroke-width:0.5;" x1="776" x2="851.6465" y1="234.7656" y2="234.7656"/></g><!--class UserId--><g class="entity" data-entity="UserId" data-source-line="21" data-uid="ent0007" id="entity_UserId"><rect fill="#313139" height="56.2656" rx="2.5" ry="2.5" style="stroke:#E7E7E7;stroke-width:0.5;" width="116.3828" x="624" y="186.5"/><ellipse cx="639" cy="206.6328" fill="#352866" rx="11" ry="11" style="stroke:#E7E7E7;stroke-width:1;"/><path d="M634.9219,202.3984 L634.9219,200.2422 L642.3125,200.2422 L642.3125,202.3984 L639.8438,202.3984 L639.8438,210.4766 L642.3125,210.4766 L642.3125,212.6328 L634.9219,212.6328 L634.9219,210.4766 L637.3906,210.4766 L637.3906,202.3984 L634.9219,202.3984 Z " fill="#FFFFFF"/><text fill="#000000" font-family="sans-serif" font-size="12" font-style="italic" lengthAdjust="spacing" textLength="88.3828" x="651" y="202.6387">&#171;value object&#187;</text><text fill="#FFFFFF" font-family="sans-serif" font-size="14" font-style="italic" lengthAdjust="spacing" textLength="44.9258" x="672.7285" y="218.4639">UserId</text><line style="stroke:#E7E7E7;stroke-width:0.5;" x1="625" x2="739.3828" y1="226.7656" y2="226.7656"/><line style="stroke:#E7E7E7;stroke-width:0.5;" x1="625" x2="739.3828" y1="234.7656" y2="234.7656"/></g><!--class GroupId--><g class="entity" data-entity="GroupId" data-source-line="22" data-uid="ent0008" id="entity_GroupId"><rect fill="#313139" height="56.2656" rx="2.5" ry="2.5" style="stroke:#E7E7E7;stroke-width:0.5;" width="116.3828" x="1097" y="186.5"/><ellipse cx="1112" cy="206.6328" fill="#352866" rx="11" ry="11" style="stroke:#E7E7E7;stroke-width:1;"/><path d="M1107.9219,202.3984 L1107.9219,200.2422 L1115.3125,200.2422 L1115.3125,202.3984 L1112.8438,202.3984 L1112.8438,210.4766 L1115.3125,210.4766 L1115.3125,212.6328 L1107.9219,212.6328 L1107.9219,210.4766 L1110.3906,210.4766 L1110.3906,202.3984 L1107.9219,202.3984 Z " fill="#FFFFFF"/><text fill="#000000" font-family="sans-serif" font-size="12" font-style="italic" lengthAdjust="spacing" textLength="88.3828" x="1124" y="202.6387">&#171;value object&#187;</text><text fill="#FFFFFF" font-family="sans-serif" font-size="14" font-style="italic" lengthAdjust="spacing" textLength="55.9453" x="1140.2188" y="218.4639">GroupId</text><line style="stroke:#E7E7E7;stroke-width:0.5;" x1="1098" x2="1212.3828" y1="226.7656" y2="226.7656"/><line style="stroke:#E7E7E7;stroke-width:0.5;" x1="1098" x2="1212.3828" y1="234.7656" y2="234.7656"/></g><!--class NotificationMessage--><g class="entity" data-entity="NotificationMessage" data-source-line="24" data-uid="ent0011" id="entity_NotificationMessage"><rect fill="#313139" height="88.8594" rx="2.5" ry="2.5" style="stroke:#E7E7E7;stroke-width:0.5;" width="173.6885" x="888" y="170"/><ellipse cx="903" cy="190.1328" fill="#352866" rx="11" ry="11" style="stroke:#E7E7E7;stroke-width:1;"/><path d="M898.9219,185.8984 L898.9219,183.7422 L906.3125,183.7422 L906.3125,185.8984 L903.8438,185.8984 L903.8438,193.9766 L906.3125,193.9766 L906.3125,196.1328 L898.9219,196.1328 L898.9219,193.9766 L901.3906,193.9766 L901.3906,185.8984 L898.9219,185.8984 Z " fill="#FFFFFF"/><text fill="#000000" font-family="sans-serif" font-size="12" font-style="italic" lengthAdjust="spacing" textLength="49.6465" x="963.021" y="186.1387">&#171;entity&#187;</text><text fill="#FFFFFF" font-family="sans-serif" font-size="14" font-style="italic" lengthAdjust="spacing" textLength="141.6885" x="917" y="201.9639">NotificationMessage</text><line style="stroke:#E7E7E7;stroke-width:0.5;" x1="889" x2="1060.6885" y1="210.2656" y2="210.2656"/><ellipse cx="899" cy="223.9141" fill="none" rx="3" ry="3" style="stroke:#038048;stroke-width:1;"/><text fill="#FFFFFF" font-family="sans-serif" font-size="14" lengthAdjust="spacing" textLength="78.3193" x="908" y="227.2607">title: String</text><ellipse cx="899" cy="240.2109" fill="none" rx="3" ry="3" style="stroke:#038048;stroke-width:1;"/><text fill="#FFFFFF" font-family="sans-serif" font-size="14" lengthAdjust="spacing" textLength="85.5723" x="908" y="243.5576">body: String</text><line style="stroke:#E7E7E7;stroke-width:0.5;" x1="889" x2="1060.6885" y1="250.8594" y2="250.8594"/></g><!--class GroupsRepository--><g class="entity" data-entity="GroupsRepository" data-source-line="45" data-uid="ent0020" id="entity_GroupsRepository"><rect fill="#313139" height="135.4219" rx="2.5" ry="2.5" style="stroke:#E7E7E7;stroke-width:0.5;" width="478.6348" x="437.5" y="777"/><ellipse cx="609.9194" cy="804.1172" fill="#352866" rx="11" ry="11" style="stroke:#E7E7E7;stroke-width:1;"/><path d="M605.8413,799.8828 L605.8413,797.7266 L613.2319,797.7266 L613.2319,799.8828 L610.7632,799.8828 L610.7632,807.9609 L613.2319,807.9609 L613.2319,810.1172 L605.8413,810.1172 L605.8413,807.9609 L608.3101,807.9609 L608.3101,799.8828 L605.8413,799.8828 Z " fill="#FFFFFF"/><text fill="#000000" font-family="sans-serif" font-size="12" font-style="italic" lengthAdjust="spacing" textLength="75.7559" x="655.1895" y="793.1387">&#171;repository&#187;</text><text fill="#000000" font-family="sans-serif" font-size="12" font-style="italic" lengthAdjust="spacing" textLength="62.877" x="661.6289" y="807.1074">&#171;out port&#187;</text><text fill="#FFFFFF" font-family="sans-serif" font-size="14" font-style="italic" lengthAdjust="spacing" textLength="125.2959" x="630.4194" y="822.9326">GroupsRepository</text><line style="stroke:#E7E7E7;stroke-width:0.5;" x1="438.5" x2="915.1348" y1="831.2344" y2="831.2344"/><line style="stroke:#E7E7E7;stroke-width:0.5;" x1="438.5" x2="915.1348" y1="839.2344" y2="839.2344"/><ellipse cx="448.5" cy="852.8828" fill="#84BE84" rx="3" ry="3" style="stroke:#038048;stroke-width:1;"/><text fill="#FFFFFF" font-family="sans-serif" font-size="14" lengthAdjust="spacing" textLength="425.5166" x="457.5" y="856.2295">addMember(groupId: GroupId, userId: UserId): Result&lt;Unit&gt;</text><ellipse cx="448.5" cy="869.1797" fill="#84BE84" rx="3" ry="3" style="stroke:#038048;stroke-width:1;"/><text fill="#FFFFFF" font-family="sans-serif" font-size="14" lengthAdjust="spacing" textLength="452.6348" x="457.5" y="872.5264">removeMember(groupId: GroupId, userId: UserId): Result&lt;Unit&gt;</text><ellipse cx="448.5" cy="885.4766" fill="#84BE84" rx="3" ry="3" style="stroke:#038048;stroke-width:1;"/><text fill="#FFFFFF" font-family="sans-serif" font-size="14" lengthAdjust="spacing" textLength="401.7275" x="457.5" y="888.8232">getMembersOf(groupId: GroupId): Result&lt;Set&lt;UserId&gt;&gt;</text><ellipse cx="448.5" cy="901.7734" fill="#84BE84" rx="3" ry="3" style="stroke:#038048;stroke-width:1;"/><text fill="#FFFFFF" font-family="sans-serif" font-size="14" lengthAdjust="spacing" textLength="364.9092" x="457.5" y="905.1201">getGroupsOf(userId: UserId): Result&lt;Set&lt;GroupId&gt;</text></g><!--class NotificationPublisher--><g class="entity" data-entity="NotificationPublisher" data-source-line="52" data-uid="ent0021" id="entity_NotificationPublisher"><rect fill="#313139" height="102.8281" rx="2.5" ry="2.5" style="stroke:#E7E7E7;stroke-width:0.5;" width="548.3613" x="403" y="451"/><ellipse cx="600.5073" cy="478.1172" fill="#352866" rx="11" ry="11" style="stroke:#E7E7E7;stroke-width:1;"/><path d="M596.4292,473.8828 L596.4292,471.7266 L603.8198,471.7266 L603.8198,473.8828 L601.3511,473.8828 L601.3511,481.9609 L603.8198,481.9609 L603.8198,484.1172 L596.4292,484.1172 L596.4292,481.9609 L598.8979,481.9609 L598.8979,473.8828 L596.4292,473.8828 Z " fill="#FFFFFF"/><text fill="#000000" font-family="sans-serif" font-size="12" font-style="italic" lengthAdjust="spacing" textLength="57.7969" x="664.5322" y="467.1387">&#171;service&#187;</text><text fill="#000000" font-family="sans-serif" font-size="12" font-style="italic" lengthAdjust="spacing" textLength="62.877" x="661.9922" y="481.1074">&#171;out port&#187;</text><text fill="#FFFFFF" font-family="sans-serif" font-size="14" font-style="italic" lengthAdjust="spacing" textLength="144.8467" x="621.0073" y="496.9326">NotificationPublisher</text><line style="stroke:#E7E7E7;stroke-width:0.5;" x1="404" x2="950.3613" y1="505.2344" y2="505.2344"/><line style="stroke:#E7E7E7;stroke-width:0.5;" x1="404" x2="950.3613" y1="513.2344" y2="513.2344"/><ellipse cx="414" cy="526.8828" fill="#84BE84" rx="3" ry="3" style="stroke:#038048;stroke-width:1;"/><text fill="#FFFFFF" font-family="sans-serif" font-size="14" lengthAdjust="spacing" textLength="522.3613" x="423" y="530.2295">send(notificationMessage: NotificationMessage): PublishingTargetStrategy</text><ellipse cx="414" cy="543.1797" fill="#84BE84" rx="3" ry="3" style="stroke:#038048;stroke-width:1;"/><text fill="#FFFFFF" font-family="sans-serif" font-size="14" lengthAdjust="spacing" textLength="418.9199" x="423" y="546.5264">send(message: NotificationMessage: userIds: Set&lt;UserId&gt;)</text></g><!--class PublishingTargetStrategy--><g class="entity" data-entity="PublishingTargetStrategy" data-source-line="59" data-uid="ent0026" id="entity_PublishingTargetStrategy"><rect fill="#313139" height="80.5938" rx="2.5" ry="2.5" style="stroke:#E7E7E7;stroke-width:0.5;" width="359.6279" x="59" y="625"/><ellipse cx="145.7344" cy="641" fill="#352866" rx="11" ry="11" style="stroke:#E7E7E7;stroke-width:1;"/><path d="M141.6563,636.7656 L141.6563,634.6094 L149.0469,634.6094 L149.0469,636.7656 L146.5781,636.7656 L146.5781,644.8438 L149.0469,644.8438 L149.0469,647 L141.6563,647 L141.6563,644.8438 L144.125,644.8438 L144.125,636.7656 L141.6563,636.7656 Z " fill="#FFFFFF"/><text fill="#FFFFFF" font-family="sans-serif" font-size="14" font-style="italic" lengthAdjust="spacing" textLength="177.6592" x="166.2344" y="645.8467">PublishingTargetStrategy</text><line style="stroke:#E7E7E7;stroke-width:0.5;" x1="60" x2="417.6279" y1="657" y2="657"/><line style="stroke:#E7E7E7;stroke-width:0.5;" x1="60" x2="417.6279" y1="665" y2="665"/><ellipse cx="70" cy="678.6484" fill="#84BE84" rx="3" ry="3" style="stroke:#038048;stroke-width:1;"/><text fill="#FFFFFF" font-family="sans-serif" font-size="14" lengthAdjust="spacing" textLength="242.2588" x="79" y="681.9951">toAllMembersOf(groupId: GroupId)</text><ellipse cx="70" cy="694.9453" fill="#84BE84" rx="3" ry="3" style="stroke:#038048;stroke-width:1;"/><text fill="#FFFFFF" font-family="sans-serif" font-size="14" lengthAdjust="spacing" textLength="333.6279" x="79" y="698.292">toAllMembersSharingGroupWith(userId: UserId)</text></g><!--class BasicNotificationPublisher--><g class="entity" data-entity="BasicNotificationPublisher" data-source-line="66" data-uid="ent0028" id="entity_BasicNotificationPublisher"><rect fill="#313139" height="64.2969" rx="2.5" ry="2.5" style="stroke:#E7E7E7;stroke-width:0.5;" width="444.6533" x="454.5" y="633.5"/><ellipse cx="581.6211" cy="649.5" fill="#2A5D60" rx="11" ry="11" style="stroke:#E7E7E7;stroke-width:1;"/><path d="M581.7305,644.8438 L580.5742,649.9219 L582.9023,649.9219 L581.7305,644.8438 Z M580.2461,642.6094 L583.2305,642.6094 L586.5898,655 L584.1367,655 L583.3711,651.9375 L580.0898,651.9375 L579.3398,655 L576.9023,655 L580.2461,642.6094 Z " fill="#FFFFFF"/><text fill="#FFFFFF" font-family="sans-serif" font-size="14" font-style="italic" lengthAdjust="spacing" textLength="181.9111" x="602.1211" y="654.3467">BasicNotificationPublisher</text><line style="stroke:#E7E7E7;stroke-width:0.5;" x1="455.5" x2="898.1533" y1="665.5" y2="665.5"/><line style="stroke:#E7E7E7;stroke-width:0.5;" x1="455.5" x2="898.1533" y1="673.5" y2="673.5"/><ellipse cx="465.5" cy="687.1484" fill="#84BE84" rx="3" ry="3" style="stroke:#038048;stroke-width:1;"/><text fill="#FFFFFF" font-family="sans-serif" font-size="14" font-style="italic" lengthAdjust="spacing" textLength="418.6533" x="474.5" y="690.4951">send(message: NotificationMessage, userIds: Set&lt;UserId&gt;)</text></g><!--class UsersTokensRepository--><g class="entity" data-entity="UsersTokensRepository" data-source-line="71" data-uid="ent0031" id="entity_UsersTokensRepository"><rect fill="#313139" height="119.125" rx="2.5" ry="2.5" style="stroke:#E7E7E7;stroke-width:0.5;" width="343.0781" x="476.5" y="972"/><ellipse cx="561.6484" cy="999.1172" fill="#352866" rx="11" ry="11" style="stroke:#E7E7E7;stroke-width:1;"/><path d="M557.5703,994.8828 L557.5703,992.7266 L564.9609,992.7266 L564.9609,994.8828 L562.4922,994.8828 L562.4922,1002.9609 L564.9609,1002.9609 L564.9609,1005.1172 L557.5703,1005.1172 L557.5703,1002.9609 L560.0391,1002.9609 L560.0391,994.8828 L557.5703,994.8828 Z " fill="#FFFFFF"/><text fill="#000000" font-family="sans-serif" font-size="12" font-style="italic" lengthAdjust="spacing" textLength="75.7559" x="626.4111" y="988.1387">&#171;repository&#187;</text><text fill="#000000" font-family="sans-serif" font-size="12" font-style="italic" lengthAdjust="spacing" textLength="62.877" x="632.8506" y="1002.1074">&#171;out port&#187;</text><text fill="#FFFFFF" font-family="sans-serif" font-size="14" font-style="italic" lengthAdjust="spacing" textLength="164.2813" x="582.1484" y="1017.9326">UsersTokensRepository</text><line style="stroke:#E7E7E7;stroke-width:0.5;" x1="477.5" x2="818.5781" y1="1026.2344" y2="1026.2344"/><line style="stroke:#E7E7E7;stroke-width:0.5;" x1="477.5" x2="818.5781" y1="1034.2344" y2="1034.2344"/><ellipse cx="487.5" cy="1047.8828" fill="#84BE84" rx="3" ry="3" style="stroke:#038048;stroke-width:1;"/><text fill="#FFFFFF" font-family="sans-serif" font-size="14" lengthAdjust="spacing" textLength="305.7441" x="496.5" y="1051.2295">save(userToken: UserToken): Result&lt;Unit&gt;</text><ellipse cx="487.5" cy="1064.1797" fill="#84BE84" rx="3" ry="3" style="stroke:#038048;stroke-width:1;"/><text fill="#FFFFFF" font-family="sans-serif" font-size="14" lengthAdjust="spacing" textLength="282.6934" x="496.5" y="1067.5264">get(userId: UserId): Result&lt;UserToken&gt;</text><ellipse cx="487.5" cy="1080.4766" fill="#84BE84" rx="3" ry="3" style="stroke:#038048;stroke-width:1;"/><text fill="#FFFFFF" font-family="sans-serif" font-size="14" lengthAdjust="spacing" textLength="317.0781" x="496.5" y="1083.8232">delete(userToken: UserToken): Result&lt;Unit&gt;</text></g><!--class UsersTokensService--><g class="entity" data-entity="UsersTokensService" data-source-line="77" data-uid="ent0032" id="entity_UsersTokensService"><rect fill="#313139" height="102.8281" rx="2.5" ry="2.5" style="stroke:#E7E7E7;stroke-width:0.5;" width="440.4287" x="935" y="614"/><ellipse cx="1080.4893" cy="641.1172" fill="#352866" rx="11" ry="11" style="stroke:#E7E7E7;stroke-width:1;"/><path d="M1076.4111,636.8828 L1076.4111,634.7266 L1083.8018,634.7266 L1083.8018,636.8828 L1081.333,636.8828 L1081.333,644.9609 L1083.8018,644.9609 L1083.8018,647.1172 L1076.4111,647.1172 L1076.4111,644.9609 L1078.8799,644.9609 L1078.8799,636.8828 L1076.4111,636.8828 Z " fill="#FFFFFF"/><text fill="#000000" font-family="sans-serif" font-size="12" font-style="italic" lengthAdjust="spacing" textLength="57.7969" x="1142.5659" y="630.1387">&#171;service&#187;</text><text fill="#000000" font-family="sans-serif" font-size="12" font-style="italic" lengthAdjust="spacing" textLength="54.1641" x="1144.3823" y="644.1074">&#171;in port&#187;</text><text fill="#FFFFFF" font-family="sans-serif" font-size="14" font-style="italic" lengthAdjust="spacing" textLength="140.9502" x="1100.9893" y="659.9326">UsersTokensService</text><line style="stroke:#E7E7E7;stroke-width:0.5;" x1="936" x2="1374.4287" y1="668.2344" y2="668.2344"/><line style="stroke:#E7E7E7;stroke-width:0.5;" x1="936" x2="1374.4287" y1="676.2344" y2="676.2344"/><ellipse cx="946" cy="689.8828" fill="#84BE84" rx="3" ry="3" style="stroke:#038048;stroke-width:1;"/><text fill="#FFFFFF" font-family="sans-serif" font-size="14" lengthAdjust="spacing" textLength="414.4287" x="955" y="693.2295">register(userId: UserId, token: Token): Result&lt;UserToken&gt;</text><ellipse cx="946" cy="706.1797" fill="#84BE84" rx="3" ry="3" style="stroke:#038048;stroke-width:1;"/><text fill="#FFFFFF" font-family="sans-serif" font-size="14" lengthAdjust="spacing" textLength="382.9834" x="955" y="709.5264">invalidate(userId: UserId, token: Token): Result&lt;Unit&gt;</text></g><!--class UsersTokensServiceImpl--><g class="entity" data-entity="UsersTokensServiceImpl" data-source-line="87" data-uid="ent0041" id="entity_UsersTokensServiceImpl"><rect fill="#313139" height="48" rx="2.5" ry="2.5" style="stroke:#E7E7E7;stroke-width:0.5;" width="203.4932" x="1002.5" y="820.5"/><ellipse cx="1017.5" cy="836.5" fill="#2E5233" rx="11" ry="11" style="stroke:#E7E7E7;stroke-width:1;"/><path d="M1020.4688,842.1406 Q1019.8906,842.4375 1019.25,842.5781 Q1018.6094,842.7344 1017.9063,842.7344 Q1015.4063,842.7344 1014.0781,841.0938 Q1012.7656,839.4375 1012.7656,836.3125 Q1012.7656,833.1875 1014.0781,831.5313 Q1015.4063,829.875 1017.9063,829.875 Q1018.6094,829.875 1019.25,830.0313 Q1019.9063,830.1875 1020.4688,830.4844 L1020.4688,833.2031 Q1019.8438,832.625 1019.25,832.3594 Q1018.6563,832.0781 1018.0313,832.0781 Q1016.6875,832.0781 1016,833.1563 Q1015.3125,834.2188 1015.3125,836.3125 Q1015.3125,838.4063 1016,839.4844 Q1016.6875,840.5469 1018.0313,840.5469 Q1018.6563,840.5469 1019.25,840.2813 Q1019.8438,840 1020.4688,839.4219 L1020.4688,842.1406 Z " fill="#FFFFFF"/><text fill="#FFFFFF" font-family="sans-serif" font-size="14" lengthAdjust="spacing" textLength="171.4932" x="1031.5" y="841.3467">UsersTokensServiceImpl</text><line style="stroke:#E7E7E7;stroke-width:0.5;" x1="1003.5" x2="1204.9932" y1="852.5" y2="852.5"/><line style="stroke:#E7E7E7;stroke-width:0.5;" x1="1003.5" x2="1204.9932" y1="860.5" y2="860.5"/></g><!--class Token--><g class="entity" data-entity="Token" data-source-line="35" data-uid="ent0014" id="entity_Token"><rect fill="#313139" height="56.2656" rx="2.5" ry="2.5" style="stroke:#E7E7E7;stroke-width:0.5;" width="116.3828" x="93" y="474.5"/><ellipse cx="108" cy="494.6328" fill="#352866" rx="11" ry="11" style="stroke:#E7E7E7;stroke-width:1;"/><path d="M103.9219,490.3984 L103.9219,488.2422 L111.3125,488.2422 L111.3125,490.3984 L108.8438,490.3984 L108.8438,498.4766 L111.3125,498.4766 L111.3125,500.6328 L103.9219,500.6328 L103.9219,498.4766 L106.3906,498.4766 L106.3906,490.3984 L103.9219,490.3984 Z " fill="#FFFFFF"/><text fill="#000000" font-family="sans-serif" font-size="12" font-style="italic" lengthAdjust="spacing" textLength="88.3828" x="120" y="490.6387">&#171;value object&#187;</text><text fill="#FFFFFF" font-family="sans-serif" font-size="14" font-style="italic" lengthAdjust="spacing" textLength="42.7109" x="142.8359" y="506.4639">Token</text><line style="stroke:#E7E7E7;stroke-width:0.5;" x1="94" x2="208.3828" y1="514.7656" y2="514.7656"/><line style="stroke:#E7E7E7;stroke-width:0.5;" x1="94" x2="208.3828" y1="522.7656" y2="522.7656"/></g><!--class UserToken--><g class="entity" data-entity="UserToken" data-source-line="37" data-uid="ent0015" id="entity_UserToken"><rect fill="#313139" height="88.8594" rx="2.5" ry="2.5" style="stroke:#E7E7E7;stroke-width:0.5;" width="123.6445" x="244" y="458"/><ellipse cx="266.6605" cy="478.1328" fill="#352866" rx="11" ry="11" style="stroke:#E7E7E7;stroke-width:1;"/><path d="M262.5824,473.8984 L262.5824,471.7422 L269.973,471.7422 L269.973,473.8984 L267.5043,473.8984 L267.5043,481.9766 L269.973,481.9766 L269.973,484.1328 L262.5824,484.1328 L262.5824,481.9766 L265.0512,481.9766 L265.0512,473.8984 L262.5824,473.8984 Z " fill="#FFFFFF"/><text fill="#000000" font-family="sans-serif" font-size="12" font-style="italic" lengthAdjust="spacing" textLength="49.6465" x="294.8502" y="474.1387">&#171;entity&#187;</text><text fill="#FFFFFF" font-family="sans-serif" font-size="14" font-style="italic" lengthAdjust="spacing" textLength="74.6211" x="282.3629" y="489.9639">UserToken</text><line style="stroke:#E7E7E7;stroke-width:0.5;" x1="245" x2="366.6445" y1="498.2656" y2="498.2656"/><ellipse cx="255" cy="511.9141" fill="none" rx="3" ry="3" style="stroke:#038048;stroke-width:1;"/><text fill="#FFFFFF" font-family="sans-serif" font-size="14" lengthAdjust="spacing" textLength="97.6445" x="264" y="515.2607">userId: UserId</text><ellipse cx="255" cy="528.2109" fill="none" rx="3" ry="3" style="stroke:#038048;stroke-width:1;"/><text fill="#FFFFFF" font-family="sans-serif" font-size="14" lengthAdjust="spacing" textLength="91.5264" x="264" y="531.5576">token: Token</text><line style="stroke:#E7E7E7;stroke-width:0.5;" x1="245" x2="366.6445" y1="538.8594" y2="538.8594"/></g><!--link UserId to User--><g class="link" data-entity-1="UserId" data-entity-2="User" data-source-line="23" data-uid="lnk10" id="link_UserId_User"><path codeLine="23" d="M746.01,214.5 C757.67,214.5 751.32,214.5 762.98,214.5" fill="none" id="UserId-User" style="stroke:#E7E7E7;stroke-width:1;"/><polygon fill="#E7E7E7" points="740.01,214.5,749.01,218.5,745.01,214.5,749.01,210.5,740.01,214.5" style="stroke:#E7E7E7;stroke-width:1;"/><polygon fill="#E7E7E7" points="774.98,214.5,768.98,210.5,762.98,214.5,768.98,218.5,774.98,214.5" style="stroke:#E7E7E7;stroke-width:1;"/><text fill="#FFFFFF" font-family="sans-serif" font-size="13" lengthAdjust="spacing" textLength="8.271" x="748.3351" y="210.5502">1</text></g><!--link Token to UserToken--><g class="link" data-entity-1="Token" data-entity-2="UserToken" data-source-line="41" data-uid="lnk17" id="link_Token_UserToken"><path codeLine="41" d="M215.12,502.5 C226.73,502.5 220.33,502.5 231.94,502.5" fill="none" id="Token-UserToken" style="stroke:#E7E7E7;stroke-width:1;"/><polygon fill="#E7E7E7" points="209.12,502.5,218.12,506.5,214.12,502.5,218.12,498.5,209.12,502.5" style="stroke:#E7E7E7;stroke-width:1;"/><polygon fill="#E7E7E7" points="243.94,502.5,237.94,498.5,231.94,502.5,237.94,506.5,243.94,502.5" style="stroke:#E7E7E7;stroke-width:1;"/><text fill="#FFFFFF" font-family="sans-serif" font-size="13" lengthAdjust="spacing" textLength="8.271" x="217.4599" y="498.5502">1</text></g><!--link UserId to UserToken--><g class="link" data-entity-1="UserId" data-entity-2="UserToken" data-source-line="42" data-uid="lnk19" id="link_UserId_UserToken"><path codeLine="42" d="M618.243,234.4027 C550.463,256.8027 444.18,300.09 372,372 C347.95,395.95 335.3349,419.3059 324.6149,446.6859" fill="none" id="UserId-UserToken" style="stroke:#E7E7E7;stroke-width:1;"/><polygon fill="#E7E7E7" points="623.94,232.52,614.1394,231.5461,619.1925,234.0889,616.6497,239.1421,623.94,232.52" style="stroke:#E7E7E7;stroke-width:1;"/><polygon fill="#E7E7E7" points="320.24,457.86,326.1522,453.7313,324.6149,446.6859,318.7028,450.8146,320.24,457.86" style="stroke:#E7E7E7;stroke-width:1;"/><text fill="#FFFFFF" font-family="sans-serif" font-size="13" lengthAdjust="spacing" textLength="8.271" x="607.5932" y="230.9916">1</text></g><!--link NotificationMessage to NotificationPublisher--><g class="link" data-entity-1="NotificationMessage" data-entity-2="NotificationPublisher" data-source-line="56" data-uid="lnk23" id="link_NotificationMessage_NotificationPublisher"><path codeLine="56" d="M943.8128,264.1629 C924.3428,293.0029 900.07,325.75 871,355 C835.74,390.47 801.3651,417.582 764.0751,443.892" fill="none" id="NotificationMessage-NotificationPublisher" style="stroke:#E7E7E7;stroke-width:1;"/><polygon fill="#E7E7E7" points="947.17,259.19,938.819,264.4111,944.3723,263.334,945.4494,268.8874,947.17,259.19" style="stroke:#E7E7E7;stroke-width:1;"/><polygon fill="#E7E7E7" points="754.27,450.81,761.4786,450.6194,764.0751,443.892,756.8666,444.0826,754.27,450.81" style="stroke:#E7E7E7;stroke-width:1;"/><text fill="#FFFFFF" font-family="sans-serif" font-size="13" lengthAdjust="spacing" textLength="8.271" x="934.5377" y="278.9424">1</text></g><!--link UserId to NotificationPublisher--><g class="link" data-entity-1="UserId" data-entity-2="NotificationPublisher" data-source-line="57" data-uid="lnk25" id="link_UserId_NotificationPublisher"><path codeLine="57" d="M681.4245,248.6591 C680.5845,296.4191 679.1613,378.1119 678.0913,438.8819" fill="none" id="UserId-NotificationPublisher" style="stroke:#E7E7E7;stroke-width:1;"/><polygon fill="#E7E7E7" points="681.53,242.66,677.3724,251.5883,681.4421,247.6592,685.3711,251.7289,681.53,242.66" style="stroke:#E7E7E7;stroke-width:1;"/><polygon fill="#E7E7E7" points="677.88,450.88,681.985,444.9513,678.0913,438.8819,673.9862,444.8105,677.88,450.88" style="stroke:#E7E7E7;stroke-width:1;"/><text fill="#FFFFFF" font-family="sans-serif" font-size="13" lengthAdjust="spacing" textLength="6.5" x="674.7411" y="262.9579">*</text></g><!--link NotificationPublisher to PublishingTargetStrategy--><g class="link" data-entity-1="NotificationPublisher" data-entity-2="PublishingTargetStrategy" data-source-line="64" data-uid="lnk27" id="link_NotificationPublisher_PublishingTargetStrategy"><path codeLine="64" d="M528.0564,558.249 C465.8464,581.109 410.3415,601.5197 352.2115,622.8897" fill="none" id="NotificationPublisher-PublishingTargetStrategy" style="stroke:#E7E7E7;stroke-width:1;"/><polygon fill="#E7E7E7" points="539.32,554.11,532.3085,552.425,528.0564,558.249,535.0679,559.934,539.32,554.11" style="stroke:#E7E7E7;stroke-width:1;"/><polygon fill="#E7E7E7" points="346.58,624.96,356.4075,625.6089,351.2729,623.2348,353.6471,618.1002,346.58,624.96" style="stroke:#E7E7E7;stroke-width:1;"/><text fill="#FFFFFF" font-family="sans-serif" font-size="13" lengthAdjust="spacing" textLength="8.271" x="356.4381" y="613.8163">1</text></g><!--reverse link NotificationPublisher to BasicNotificationPublisher--><g class="link" data-entity-1="NotificationPublisher" data-entity-2="BasicNotificationPublisher" data-source-line="67" data-uid="lnk29" id="link_NotificationPublisher_BasicNotificationPublisher"><path d="M677,572.44 C677,598.24 677,610.73 677,633.08" fill="none" id="NotificationPublisher-backto-BasicNotificationPublisher" style="stroke:#E7E7E7;stroke-width:1;stroke-dasharray:7,7;"/><polygon fill="none" points="677,554.44,671,572.44,683,572.44,677,554.44" style="stroke:#E7E7E7;stroke-width:1;"/></g><!--link BasicNotificationPublisher to GroupsRepository--><g class="link" data-entity-1="BasicNotificationPublisher" data-entity-2="GroupsRepository" data-source-line="69" data-uid="lnk30" id="link_BasicNotificationPublisher_GroupsRepository"><path codeLine="69" d="M677,709.74 C677,731.57 677,743.55 677,770.65" fill="none" id="BasicNotificationPublisher-GroupsRepository" style="stroke:#E7E7E7;stroke-width:1;"/><polygon fill="#E7E7E7" points="677,697.74,673,703.74,677,709.74,681,703.74,677,697.74" style="stroke:#E7E7E7;stroke-width:1;"/><polygon fill="#E7E7E7" points="677,776.65,681,767.65,677,771.65,673,767.65,677,776.65" style="stroke:#E7E7E7;stroke-width:1;"/><text fill="#FFFFFF" font-family="sans-serif" font-size="13" lengthAdjust="spacing" textLength="8.271" x="668.6203" y="765.9315">1</text></g><!--link UserId to UsersTokensService--><g class="link" data-entity-1="UserId" data-entity-2="UsersTokensService" data-source-line="81" data-uid="lnk34" id="link_UserId_UsersTokensService"><path codeLine="81" d="M690.0495,248.4117 C699.3495,281.1517 718.34,329.23 758,355 C797.45,380.63 928.71,347.72 969,372 C1060.23,426.98 1110.1361,534.4763 1134.7761,602.5563" fill="none" id="UserId-UsersTokensService" style="stroke:#E7E7E7;stroke-width:1;"/><polygon fill="#E7E7E7" points="688.41,242.64,687.0214,252.3905,689.7762,247.4497,694.717,250.2045,688.41,242.64" style="stroke:#E7E7E7;stroke-width:1;"/><polygon fill="#E7E7E7" points="1138.86,613.84,1140.5793,606.8369,1134.7761,602.5563,1133.0568,609.5594,1138.86,613.84" style="stroke:#E7E7E7;stroke-width:1;"/><text fill="#FFFFFF" font-family="sans-serif" font-size="13" lengthAdjust="spacing" textLength="8.271" x="690.8044" y="262.9333">1</text></g><!--link GroupId to UsersTokensService--><g class="link" data-entity-1="GroupId" data-entity-2="UsersTokensService" data-source-line="82" data-uid="lnk36" id="link_GroupId_UsersTokensService"><path codeLine="82" d="M1155,248.58 C1155,321.76 1155,506.41 1155,601.72" fill="none" id="GroupId-UsersTokensService" style="stroke:#E7E7E7;stroke-width:1;"/><polygon fill="#E7E7E7" points="1155,242.58,1151,251.58,1155,247.58,1159,251.58,1155,242.58" style="stroke:#E7E7E7;stroke-width:1;"/><polygon fill="#E7E7E7" points="1155,613.72,1159,607.72,1155,601.72,1151,607.72,1155,613.72" style="stroke:#E7E7E7;stroke-width:1;"/><text fill="#FFFFFF" font-family="sans-serif" font-size="13" lengthAdjust="spacing" textLength="8.271" x="1146.0621" y="262.8594">1</text></g><!--link UserToken to UsersTokensRepository--><g class="link" data-entity-1="UserToken" data-entity-2="UsersTokensRepository" data-source-line="84" data-uid="lnk38" id="link_UserToken_UsersTokensRepository"><path codeLine="84" d="M257.0634,550.956 C246.0834,559.926 238.51,564.73 226,571 C150.53,608.82 93.5,547.9 41,614 C12.53,649.85 17.19,677.9 41,717 C135.01,871.35 320.6039,949.7607 464.8039,990.5907" fill="none" id="UserToken-UsersTokensRepository" style="stroke:#E7E7E7;stroke-width:1;"/><polygon fill="#E7E7E7" points="261.71,547.16,252.2095,549.7562,257.8379,550.3233,257.2708,555.9517,261.71,547.16" style="stroke:#E7E7E7;stroke-width:1;"/><polygon fill="#E7E7E7" points="476.35,993.86,471.6667,988.3767,464.8039,990.5907,469.4872,996.0741,476.35,993.86" style="stroke:#E7E7E7;stroke-width:1;"/><text fill="#FFFFFF" font-family="sans-serif" font-size="13" lengthAdjust="spacing" textLength="8.271" x="246.6634" y="566.908">1</text></g><!--link UserToken to UsersTokensService--><g class="link" data-entity-1="UserToken" data-entity-2="UsersTokensService" data-source-line="85" data-uid="lnk40" id="link_UserToken_UsersTokensService"><path codeLine="85" d="M343.7471,551.3581 C353.1971,560.7881 359.98,565.37 372,571 C482.04,622.49 796.77,596.58 917,614 C922.85,614.85 916.9322,613.8448 922.9022,614.8048" fill="none" id="UserToken-UsersTokensService" style="stroke:#E7E7E7;stroke-width:1;"/><polygon fill="#E7E7E7" points="339.5,547.12,343.0453,556.3086,343.0393,550.6518,348.6961,550.6458,339.5,547.12" style="stroke:#E7E7E7;stroke-width:1;"/><polygon fill="#E7E7E7" points="934.75,616.71,929.4612,611.8081,922.9022,614.8048,928.191,619.7067,934.75,616.71" style="stroke:#E7E7E7;stroke-width:1;"/><text fill="#FFFFFF" font-family="sans-serif" font-size="13" lengthAdjust="spacing" textLength="8.271" x="335.8788" y="566.8621">1</text></g><!--reverse link UsersTokensService to UsersTokensServiceImpl--><g class="link" data-entity-1="UsersTokensService" data-entity-2="UsersTokensServiceImpl" data-source-line="87" data-uid="lnk42" id="link_UsersTokensService_UsersTokensServiceImpl"><path d="M1135.4033,734.5155 C1125.6233,768.4355 1118.22,794.16 1110.71,820.23" fill="none" id="UsersTokensService-backto-UsersTokensServiceImpl" style="stroke:#E7E7E7;stroke-width:1;stroke-dasharray:7,7;"/><polygon fill="none" points="1140.39,717.22,1129.6381,732.8532,1141.1684,736.1777,1140.39,717.22" style="stroke:#E7E7E7;stroke-width:1;"/></g><!--link UsersTokensServiceImpl to UsersTokensRepository--><g class="link" data-entity-1="UsersTokensServiceImpl" data-entity-2="UsersTokensRepository" data-source-line="88" data-uid="lnk43" id="link_UsersTokensServiceImpl_UsersTokensRepository"><path codeLine="88" d="M1036.0498,873.0702 C972.6598,898.7802 884.3597,934.6039 797.9597,969.6639" fill="none" id="UsersTokensServiceImpl-UsersTokensRepository" style="stroke:#E7E7E7;stroke-width:1;"/><polygon fill="#E7E7E7" points="1047.17,868.56,1040.1065,867.1084,1036.0498,873.0702,1043.1133,874.5218,1047.17,868.56" style="stroke:#E7E7E7;stroke-width:1;"/><polygon fill="#E7E7E7" points="792.4,971.92,802.2436,972.2424,797.0331,970.04,799.2355,964.8295,792.4,971.92" style="stroke:#E7E7E7;stroke-width:1;"/><text fill="#FFFFFF" font-family="sans-serif" font-size="13" lengthAdjust="spacing" textLength="8.271" x="801.523" y="960.812">1</text></g><!--SRC=[fLN1RgCm4Btp5LPFRPfKsYkAa7OlgnxQNJMfzkp0XBWnDh9Df2ZYtzSOGup19Dhb42dmvisyDvvnYTCZpW790nQGlHn1CA0l6IymOUWI8VsK5W9C4KL0sjVDGvW2iSSfe4y90gtN1dDEaW3YDTEO4wOL8BxxWbHD8dyANfLpK9DiiQAmLwi4FNnxiEGJNEzSaJr9iIASlO6KZP1hcOwKvdb6-ZM566sK82ptlkruTXvzggFsjuwYpYTSbjHcrFm32tjV9ohTyYEmaMPqgQE0cLr0K4nbJ8bzSwpI9ZfkitfgEelR10EVXt0NL9MhSIzixLvhvGUKN1B5nLcNB_e_Mi9wpIk5IYxKGCypmbds1iKEn6FUdewuEoPBJ-TJZ3v0LbIjFnbHYSCXeE0d-6-Q75JB8N_jHpJNi0teK4ELUD6j2JeubB49jNp9j8_kiVvTxIYH1pD_ckX4KfXpKWBB7jbuBEAfMT4rMNfzwBTOwEhr0605-TcdB6PeOckkrFDpjUKfkfwvQK7kiPgWlIToqHz8pyAGhe5PYd-dTARR0UX6RrDDR51_Y3hudNQR6ghVoWxQRuBnJkh_gK8fnLAY7rYIT9gG52M5GkyA6SZeohvqlFNjtYvlzdQcgbwclnZyRZMqqkoQVzaU4f_0z63RRhr-SSrEUN0- -t0t80CAwluizOp2JJl5tZphYsD2ce2SICtX5RiSBFWRfHEcBnsIOLl-7IoEZEuYy6et0pYw4EQ1TgeY7-fqtAEztaUtIsYn1jnEopZaLG-9EobZH22N2LouD-2ezAZ-2m00]--></g></svg>