<svg xmlns="http://www.w3.org/2000/svg" xmlns:xlink="http://www.w3.org/1999/xlink" contentStyleType="text/css" data-diagram-type="SEQUENCE" height="722px" preserveAspectRatio="none" style="width:1324px;height:722px;background:#FFFFFF;" version="1.1" viewBox="0 0 1324 722" width="1324px" zoomAndPan="magnify"><defs/><g><g><title>Group Member</title><rect fill="#FFFFFF" height="541.3906" style="stroke:#181818;stroke-width:1;" width="10" x="70.4829" y="91.2969"/></g><g><title>PushNotificationInfrastructure</title><rect fill="#FFFFFF" height="29.1328" style="stroke:#181818;stroke-width:1;" width="10" x="300.1968" y="155.5625"/></g><g><title>PushNotificationInfrastructure</title><rect fill="#FFFFFF" height="58.2656" style="stroke:#181818;stroke-width:1;" width="10" x="300.1968" y="558.4219"/></g><g><title>UsersTokensService</title><rect fill="#FFFFFF" height="418.8594" style="stroke:#181818;stroke-width:1;" width="10" x="499.6309" y="213.8281"/></g><g><title>UsersTokensRepository</title><rect fill="#FFFFFF" height="58.2656" style="stroke:#181818;stroke-width:1;" width="10" x="672.2466" y="242.9609"/></g><g><title>UsersTokensRepository</title><rect fill="#FFFFFF" height="29.1328" style="stroke:#181818;stroke-width:1;" width="10" x="672.2466" y="500.1563"/></g><g><title>GroupsRepository</title><rect fill="#FFFFFF" height="214.9297" style="stroke:#181818;stroke-width:1;" width="10" x="833.0352" y="417.7578"/></g><g><title>NotificationPublisher</title><rect fill="#FFFFFF" height="244.0625" style="stroke:#181818;stroke-width:1;" width="10" x="1026.7705" y="388.625"/></g><g><title>Message Broker</title><rect fill="#FFFFFF" height="541.3906" style="stroke:#181818;stroke-width:1;" width="10" x="1241.2183" y="91.2969"/></g><rect fill="none" height="162.7969" style="stroke:#000000;stroke-width:1.5;" width="1111.1938" x="10" y="461.8906"/><g><title>Group Member</title><rect fill="#000000" fill-opacity="0.00000" height="560.3906" width="8" x="71.4829" y="81.2969"/><line style="stroke:#181818;stroke-width:0.5;stroke-dasharray:5.0,5.0;" x1="75" x2="75" y1="81.2969" y2="641.6875"/></g><g><title>PushNotificationInfrastructure</title><rect fill="#000000" fill-opacity="0.00000" height="560.3906" width="8" x="301.1968" y="81.2969"/><line style="stroke:#181818;stroke-width:0.5;stroke-dasharray:5.0,5.0;" x1="304.2378" x2="304.2378" y1="81.2969" y2="641.6875"/></g><g><title>UsersTokensService</title><rect fill="#000000" fill-opacity="0.00000" height="560.3906" width="8" x="500.6309" y="81.2969"/><line style="stroke:#181818;stroke-width:0.5;stroke-dasharray:5.0,5.0;" x1="504.1558" x2="504.1558" y1="81.2969" y2="641.6875"/></g><g><title>UsersTokensRepository</title><rect fill="#000000" fill-opacity="0.00000" height="560.3906" width="8" x="673.2466" y="81.2969"/><line style="stroke:#181818;stroke-width:0.5;stroke-dasharray:5.0,5.0;" x1="677.106" x2="677.106" y1="81.2969" y2="641.6875"/></g><g><title>GroupsRepository</title><rect fill="#000000" fill-opacity="0.00000" height="560.3906" width="8" x="834.0352" y="81.2969"/><line style="stroke:#181818;stroke-width:0.5;stroke-dasharray:5.0,5.0;" x1="837.3872" x2="837.3872" y1="81.2969" y2="641.6875"/></g><g><title>NotificationPublisher</title><rect fill="#000000" fill-opacity="0.00000" height="560.3906" width="8" x="1027.7705" y="81.2969"/><line style="stroke:#181818;stroke-width:0.5;stroke-dasharray:5.0,5.0;" x1="1031.3472" x2="1031.3472" y1="81.2969" y2="641.6875"/></g><g><title>Message Broker</title><rect fill="#000000" fill-opacity="0.00000" height="560.3906" width="8" x="1242.2183" y="81.2969"/><line style="stroke:#181818;stroke-width:0.5;stroke-dasharray:5.0,5.0;" x1="1246.1123" x2="1246.1123" y1="81.2969" y2="641.6875"/></g><g class="participant participant-head" data-participant="User"><text fill="#000000" font-family="sans-serif" font-size="14" lengthAdjust="spacing" textLength="104.9658" x="20" y="77.9951">Group Member</text><ellipse cx="75.4829" cy="13.5" fill="#E2E2F0" rx="8" ry="8" style="stroke:#181818;stroke-width:0.5;"/><path d="M75.4829,21.5 L75.4829,48.5 M62.4829,29.5 L88.4829,29.5 M75.4829,48.5 L62.4829,63.5 M75.4829,48.5 L88.4829,63.5" fill="none" style="stroke:#181818;stroke-width:0.5;"/></g><g class="participant participant-tail" data-participant="User"><text fill="#000000" font-family="sans-serif" font-size="14" lengthAdjust="spacing" textLength="104.9658" x="20" y="653.6826">Group Member</text><ellipse cx="75.4829" cy="665.4844" fill="#E2E2F0" rx="8" ry="8" style="stroke:#181818;stroke-width:0.5;"/><path d="M75.4829,673.4844 L75.4829,700.4844 M62.4829,681.4844 L88.4829,681.4844 M75.4829,700.4844 L62.4829,715.4844 M75.4829,700.4844 L88.4829,715.4844" fill="none" style="stroke:#181818;stroke-width:0.5;"/></g><g class="participant participant-head" data-participant="PNS"><rect fill="#E2E2F0" height="30.2969" rx="2.5" ry="2.5" style="stroke:#181818;stroke-width:0.5;" width="223.918" x="193.2378" y="50"/><text fill="#000000" font-family="sans-serif" font-size="14" lengthAdjust="spacing" textLength="209.918" x="200.2378" y="69.9951">PushNotificationInfrastructure</text></g><g class="participant participant-tail" data-participant="PNS"><rect fill="#E2E2F0" height="30.2969" rx="2.5" ry="2.5" style="stroke:#181818;stroke-width:0.5;" width="223.918" x="193.2378" y="640.6875"/><text fill="#000000" font-family="sans-serif" font-size="14" lengthAdjust="spacing" textLength="209.918" x="200.2378" y="660.6826">PushNotificationInfrastructure</text></g><g class="participant participant-head" data-participant="UTS"><rect fill="#E2E2F0" height="30.2969" rx="2.5" ry="2.5" style="stroke:#181818;stroke-width:0.5;" width="154.9502" x="427.1558" y="50"/><text fill="#000000" font-family="sans-serif" font-size="14" lengthAdjust="spacing" textLength="140.9502" x="434.1558" y="69.9951">UsersTokensService</text></g><g class="participant participant-tail" data-participant="UTS"><rect fill="#E2E2F0" height="30.2969" rx="2.5" ry="2.5" style="stroke:#181818;stroke-width:0.5;" width="154.9502" x="427.1558" y="640.6875"/><text fill="#000000" font-family="sans-serif" font-size="14" lengthAdjust="spacing" textLength="140.9502" x="434.1558" y="660.6826">UsersTokensService</text></g><g class="participant participant-head" data-participant="UTR"><text fill="#000000" font-family="sans-serif" font-size="14" lengthAdjust="spacing" textLength="164.2813" x="592.106" y="77.9951">UsersTokensRepository</text><path d="M659.2466,29 C659.2466,19 677.2466,19 677.2466,19 C677.2466,19 695.2466,19 695.2466,29 L695.2466,55 C695.2466,65 677.2466,65 677.2466,65 C677.2466,65 659.2466,65 659.2466,55 L659.2466,29" fill="#E2E2F0" style="stroke:#181818;stroke-width:1.5;"/><path d="M659.2466,29 C659.2466,39 677.2466,39 677.2466,39 C677.2466,39 695.2466,39 695.2466,29" fill="none" style="stroke:#181818;stroke-width:1.5;"/></g><g class="participant participant-tail" data-participant="UTR"><text fill="#000000" font-family="sans-serif" font-size="14" lengthAdjust="spacing" textLength="164.2813" x="592.106" y="653.6826">UsersTokensRepository</text><path d="M659.2466,666.9844 C659.2466,656.9844 677.2466,656.9844 677.2466,656.9844 C677.2466,656.9844 695.2466,656.9844 695.2466,666.9844 L695.2466,692.9844 C695.2466,702.9844 677.2466,702.9844 677.2466,702.9844 C677.2466,702.9844 659.2466,702.9844 659.2466,692.9844 L659.2466,666.9844" fill="#E2E2F0" style="stroke:#181818;stroke-width:1.5;"/><path d="M659.2466,666.9844 C659.2466,676.9844 677.2466,676.9844 677.2466,676.9844 C677.2466,676.9844 695.2466,676.9844 695.2466,666.9844" fill="none" style="stroke:#181818;stroke-width:1.5;"/></g><g class="participant participant-head" data-participant="GR"><text fill="#000000" font-family="sans-serif" font-size="14" lengthAdjust="spacing" textLength="125.2959" x="772.3872" y="77.9951">GroupsRepository</text><path d="M820.0352,29 C820.0352,19 838.0352,19 838.0352,19 C838.0352,19 856.0352,19 856.0352,29 L856.0352,55 C856.0352,65 838.0352,65 838.0352,65 C838.0352,65 820.0352,65 820.0352,55 L820.0352,29" fill="#E2E2F0" style="stroke:#181818;stroke-width:1.5;"/><path d="M820.0352,29 C820.0352,39 838.0352,39 838.0352,39 C838.0352,39 856.0352,39 856.0352,29" fill="none" style="stroke:#181818;stroke-width:1.5;"/></g><g class="participant participant-tail" data-participant="GR"><text fill="#000000" font-family="sans-serif" font-size="14" lengthAdjust="spacing" textLength="125.2959" x="772.3872" y="653.6826">GroupsRepository</text><path d="M820.0352,666.9844 C820.0352,656.9844 838.0352,656.9844 838.0352,656.9844 C838.0352,656.9844 856.0352,656.9844 856.0352,666.9844 L856.0352,692.9844 C856.0352,702.9844 838.0352,702.9844 838.0352,702.9844 C838.0352,702.9844 820.0352,702.9844 820.0352,692.9844 L820.0352,666.9844" fill="#E2E2F0" style="stroke:#181818;stroke-width:1.5;"/><path d="M820.0352,666.9844 C820.0352,676.9844 838.0352,676.9844 838.0352,676.9844 C838.0352,676.9844 856.0352,676.9844 856.0352,666.9844" fill="none" style="stroke:#181818;stroke-width:1.5;"/></g><g class="participant participant-head" data-participant="NP"><rect fill="#E2E2F0" height="30.2969" rx="2.5" ry="2.5" style="stroke:#181818;stroke-width:0.5;" width="158.8467" x="952.3472" y="50"/><text fill="#000000" font-family="sans-serif" font-size="14" lengthAdjust="spacing" textLength="144.8467" x="959.3472" y="69.9951">NotificationPublisher</text></g><g class="participant participant-tail" data-participant="NP"><rect fill="#E2E2F0" height="30.2969" rx="2.5" ry="2.5" style="stroke:#181818;stroke-width:0.5;" width="158.8467" x="952.3472" y="640.6875"/><text fill="#000000" font-family="sans-serif" font-size="14" lengthAdjust="spacing" textLength="144.8467" x="959.3472" y="660.6826">NotificationPublisher</text></g><g class="participant participant-head" data-participant="Broker"><path d="M1185.1123,55 L1307.3242,55 C1312.3242,55 1312.3242,68.1484 1312.3242,68.1484 C1312.3242,68.1484 1312.3242,81.2969 1307.3242,81.2969 L1185.1123,81.2969 C1180.1123,81.2969 1180.1123,68.1484 1180.1123,68.1484 C1180.1123,68.1484 1180.1123,55 1185.1123,55" fill="#E2E2F0" style="stroke:#181818;stroke-width:0.5;"/><path d="M1307.3242,55 C1302.3242,55 1302.3242,68.1484 1302.3242,68.1484 C1302.3242,81.2969 1307.3242,81.2969 1307.3242,81.2969" fill="none" style="stroke:#181818;stroke-width:0.5;"/><text fill="#000000" font-family="sans-serif" font-size="14" lengthAdjust="spacing" textLength="112.2119" x="1185.1123" y="72.9951">Message Broker</text></g><g class="participant participant-tail" data-participant="Broker"><path d="M1185.1123,640.6875 L1307.3242,640.6875 C1312.3242,640.6875 1312.3242,653.8359 1312.3242,653.8359 C1312.3242,653.8359 1312.3242,666.9844 1307.3242,666.9844 L1185.1123,666.9844 C1180.1123,666.9844 1180.1123,653.8359 1180.1123,653.8359 C1180.1123,653.8359 1180.1123,640.6875 1185.1123,640.6875" fill="#E2E2F0" style="stroke:#181818;stroke-width:0.5;"/><path d="M1307.3242,640.6875 C1302.3242,640.6875 1302.3242,653.8359 1302.3242,653.8359 C1302.3242,666.9844 1307.3242,666.9844 1307.3242,666.9844" fill="none" style="stroke:#181818;stroke-width:0.5;"/><text fill="#000000" font-family="sans-serif" font-size="14" lengthAdjust="spacing" textLength="112.2119" x="1185.1123" y="658.6826">Message Broker</text></g><g><title>Group Member</title><rect fill="#FFFFFF" height="541.3906" style="stroke:#181818;stroke-width:1;" width="10" x="70.4829" y="91.2969"/></g><g><title>PushNotificationInfrastructure</title><rect fill="#FFFFFF" height="29.1328" style="stroke:#181818;stroke-width:1;" width="10" x="300.1968" y="155.5625"/></g><g><title>PushNotificationInfrastructure</title><rect fill="#FFFFFF" height="58.2656" style="stroke:#181818;stroke-width:1;" width="10" x="300.1968" y="558.4219"/></g><g><title>UsersTokensService</title><rect fill="#FFFFFF" height="418.8594" style="stroke:#181818;stroke-width:1;" width="10" x="499.6309" y="213.8281"/></g><g><title>UsersTokensRepository</title><rect fill="#FFFFFF" height="58.2656" style="stroke:#181818;stroke-width:1;" width="10" x="672.2466" y="242.9609"/></g><g><title>UsersTokensRepository</title><rect fill="#FFFFFF" height="29.1328" style="stroke:#181818;stroke-width:1;" width="10" x="672.2466" y="500.1563"/></g><g><title>GroupsRepository</title><rect fill="#FFFFFF" height="214.9297" style="stroke:#181818;stroke-width:1;" width="10" x="833.0352" y="417.7578"/></g><g><title>NotificationPublisher</title><rect fill="#FFFFFF" height="244.0625" style="stroke:#181818;stroke-width:1;" width="10" x="1026.7705" y="388.625"/></g><g><title>Message Broker</title><rect fill="#FFFFFF" height="541.3906" style="stroke:#181818;stroke-width:1;" width="10" x="1241.2183" y="91.2969"/></g><rect fill="#EEEEEE" height="3" style="stroke:#EEEEEE;stroke-width:1;" width="1317.3242" x="0" y="111.8633"/><line style="stroke:#000000;stroke-width:1;" x1="0" x2="1317.3242" y1="111.8633" y2="111.8633"/><line style="stroke:#000000;stroke-width:1;" x1="0" x2="1317.3242" y1="114.8633" y2="114.8633"/><rect fill="#EEEEEE" height="23.1328" style="stroke:#000000;stroke-width:2;" width="242.0459" x="537.6392" y="101.2969"/><text fill="#000000" font-family="sans-serif" font-size="13" font-weight="bold" lengthAdjust="spacing" textLength="223.52" x="543.6392" y="117.3638">User device token registration</text><g class="message" data-participant-1="User" data-participant-2="PNS"><polygon fill="#181818" points="288.1968,151.5625,298.1968,155.5625,288.1968,159.5625,292.1968,155.5625" style="stroke:#181818;stroke-width:1;"/><line style="stroke:#181818;stroke-width:1;" x1="80.4829" x2="294.1968" y1="155.5625" y2="155.5625"/><text fill="#000000" font-family="sans-serif" font-size="13" font-weight="bold" lengthAdjust="spacing" textLength="9.0454" x="87.4829" y="150.4966">1</text><text fill="#000000" font-family="sans-serif" font-size="13" lengthAdjust="spacing" textLength="187.6685" x="100.5283" y="150.4966">Request token for my device</text></g><g class="message" data-participant-1="PNS" data-participant-2="User"><polygon fill="#181818" points="91.4829,180.6953,81.4829,184.6953,91.4829,188.6953,87.4829,184.6953" style="stroke:#181818;stroke-width:1;"/><line style="stroke:#181818;stroke-width:1;" x1="85.4829" x2="304.1968" y1="184.6953" y2="184.6953"/><text fill="#000000" font-family="sans-serif" font-size="13" font-weight="bold" lengthAdjust="spacing" textLength="9.0454" x="97.4829" y="179.6294">2</text><text fill="#000000" font-family="sans-serif" font-size="13" lengthAdjust="spacing" textLength="58.6016" x="110.5283" y="179.6294">&lt;token&gt;</text></g><g class="message" data-participant-1="User" data-participant-2="UTS"><polygon fill="#181818" points="487.6309,209.8281,497.6309,213.8281,487.6309,217.8281,491.6309,213.8281" style="stroke:#181818;stroke-width:1;"/><line style="stroke:#181818;stroke-width:1;" x1="80.4829" x2="493.6309" y1="213.8281" y2="213.8281"/><text fill="#000000" font-family="sans-serif" font-size="13" font-weight="bold" lengthAdjust="spacing" textLength="9.0454" x="87.4829" y="208.7622">3</text><text fill="#000000" font-family="sans-serif" font-size="13" lengthAdjust="spacing" textLength="145.209" x="100.5283" y="208.7622">Register &lt;uid, token&gt;</text></g><g class="message" data-participant-1="UTS" data-participant-2="UTR"><polygon fill="#181818" points="660.2466,238.9609,670.2466,242.9609,660.2466,246.9609,664.2466,242.9609" style="stroke:#181818;stroke-width:1;"/><line style="stroke:#181818;stroke-width:1;" x1="509.6309" x2="666.2466" y1="242.9609" y2="242.9609"/><text fill="#000000" font-family="sans-serif" font-size="13" font-weight="bold" lengthAdjust="spacing" textLength="9.0454" x="516.6309" y="237.895">4</text><text fill="#000000" font-family="sans-serif" font-size="13" lengthAdjust="spacing" textLength="123.0112" x="529.6763" y="237.895">Save &lt;uid, token&gt;</text></g><g class="message" data-participant-1="UTR" data-participant-2="UTS"><line style="stroke:#181818;stroke-width:1;" x1="510.6309" x2="520.6309" y1="272.0938" y2="268.0938"/><line style="stroke:#181818;stroke-width:1;" x1="510.6309" x2="520.6309" y1="272.0938" y2="276.0938"/><line style="stroke:#181818;stroke-width:1;stroke-dasharray:2.0,2.0;" x1="509.6309" x2="671.2466" y1="272.0938" y2="272.0938"/><text fill="#000000" font-family="sans-serif" font-size="13" font-weight="bold" lengthAdjust="spacing" textLength="9.0454" x="526.6309" y="267.0278">5</text><text fill="#000000" font-family="sans-serif" font-size="13" lengthAdjust="spacing" textLength="17.7607" x="539.6763" y="267.0278">Ok</text></g><g class="message" data-participant-1="UTS" data-participant-2="User"><line style="stroke:#181818;stroke-width:1;" x1="81.4829" x2="91.4829" y1="301.2266" y2="297.2266"/><line style="stroke:#181818;stroke-width:1;" x1="81.4829" x2="91.4829" y1="301.2266" y2="305.2266"/><line style="stroke:#181818;stroke-width:1;stroke-dasharray:2.0,2.0;" x1="80.4829" x2="498.6309" y1="301.2266" y2="301.2266"/><text fill="#000000" font-family="sans-serif" font-size="13" font-weight="bold" lengthAdjust="spacing" textLength="9.0454" x="97.4829" y="296.1606">6</text><text fill="#000000" font-family="sans-serif" font-size="13" lengthAdjust="spacing" textLength="17.7607" x="110.5283" y="296.1606">Ok</text></g><rect fill="#EEEEEE" height="3" style="stroke:#EEEEEE;stroke-width:1;" width="1317.3242" x="0" y="329.793"/><line style="stroke:#000000;stroke-width:1;" x1="0" x2="1317.3242" y1="329.793" y2="329.793"/><line style="stroke:#000000;stroke-width:1;" x1="0" x2="1317.3242" y1="332.793" y2="332.793"/><rect fill="#EEEEEE" height="23.1328" style="stroke:#000000;stroke-width:2;" width="277.0532" x="520.1355" y="319.2266"/><text fill="#000000" font-family="sans-serif" font-size="13" font-weight="bold" lengthAdjust="spacing" textLength="258.5273" x="526.1355" y="335.2935">A notification command is received</text><g class="message" data-participant-1="Broker" data-participant-2="NP"><line style="stroke:#181818;stroke-width:1;" x1="1037.7705" x2="1047.7705" y1="388.625" y2="384.625"/><line style="stroke:#181818;stroke-width:1;" x1="1037.7705" x2="1047.7705" y1="388.625" y2="392.625"/><line style="stroke:#181818;stroke-width:1;stroke-dasharray:2.0,2.0;" x1="1036.7705" x2="1240.2183" y1="388.625" y2="388.625"/><text fill="#000000" font-family="sans-serif" font-size="13" font-weight="bold" lengthAdjust="spacing" textLength="9.0454" x="1053.7705" y="375.9927">7</text><text fill="#000000" font-family="sans-serif" font-size="13" lengthAdjust="spacing" textLength="168.27" x="1066.8159" y="368.4263">Send &lt;notification&gt; to all</text><text fill="#000000" font-family="sans-serif" font-size="13" lengthAdjust="spacing" textLength="166.5625" x="1070.9482" y="383.5591">members of group &lt;gid&gt;</text></g><g class="message" data-participant-1="NP" data-participant-2="GR"><polygon fill="#181818" points="854.0352,413.7578,844.0352,417.7578,854.0352,421.7578,850.0352,417.7578" style="stroke:#181818;stroke-width:1;"/><line style="stroke:#181818;stroke-width:1;stroke-dasharray:2.0,2.0;" x1="848.0352" x2="1025.7705" y1="417.7578" y2="417.7578"/><text fill="#000000" font-family="sans-serif" font-size="13" font-weight="bold" lengthAdjust="spacing" textLength="9.0454" x="860.0352" y="412.6919">8</text><text fill="#000000" font-family="sans-serif" font-size="13" lengthAdjust="spacing" textLength="151.6899" x="873.0806" y="412.6919">Get members of &lt;gid&gt;</text></g><g class="message" data-participant-1="GR" data-participant-2="NP"><line style="stroke:#181818;stroke-width:1;" x1="1024.7705" x2="1014.7705" y1="446.8906" y2="442.8906"/><line style="stroke:#181818;stroke-width:1;" x1="1024.7705" x2="1014.7705" y1="446.8906" y2="450.8906"/><line style="stroke:#181818;stroke-width:1;stroke-dasharray:2.0,2.0;" x1="843.0352" x2="1025.7705" y1="446.8906" y2="446.8906"/><text fill="#000000" font-family="sans-serif" font-size="13" font-weight="bold" lengthAdjust="spacing" textLength="9.0454" x="850.0352" y="441.8247">9</text><text fill="#000000" font-family="sans-serif" font-size="13" lengthAdjust="spacing" textLength="105.2124" x="863.0806" y="441.8247">List of members</text></g><path d="M10,461.8906 L86.624,461.8906 L86.624,469.0234 L76.624,479.0234 L10,479.0234 L10,461.8906" fill="#FFD700" style="stroke:#000000;stroke-width:1.5;"/><rect fill="none" height="162.7969" style="stroke:#000000;stroke-width:1.5;" width="1111.1938" x="10" y="461.8906"/><text fill="#000000" font-family="sans-serif" font-size="13" font-weight="bold" lengthAdjust="spacing" textLength="31.624" x="25" y="474.9575">loop</text><text fill="#000000" font-family="sans-serif" font-size="11" font-weight="bold" lengthAdjust="spacing" textLength="104.5698" x="101.624" y="474.1011">[forach member]</text><g class="message" data-participant-1="NP" data-participant-2="UTR"><polygon fill="#181818" points="693.2466,496.1563,683.2466,500.1563,693.2466,504.1563,689.2466,500.1563" style="stroke:#181818;stroke-width:1;"/><line style="stroke:#181818;stroke-width:1;" x1="687.2466" x2="1025.7705" y1="500.1563" y2="500.1563"/><text fill="#000000" font-family="sans-serif" font-size="13" font-weight="bold" lengthAdjust="spacing" textLength="18.0908" x="699.2466" y="495.0903">10</text><text fill="#000000" font-family="sans-serif" font-size="13" lengthAdjust="spacing" textLength="144.9551" x="721.3374" y="495.0903">Get &lt;member&gt; token</text></g><g class="message" data-participant-1="UTR" data-participant-2="NP"><line style="stroke:#181818;stroke-width:1;" x1="1024.7705" x2="1014.7705" y1="529.2891" y2="525.2891"/><line style="stroke:#181818;stroke-width:1;" x1="1024.7705" x2="1014.7705" y1="529.2891" y2="533.2891"/><line style="stroke:#181818;stroke-width:1;stroke-dasharray:2.0,2.0;" x1="677.2466" x2="1025.7705" y1="529.2891" y2="529.2891"/><text fill="#000000" font-family="sans-serif" font-size="13" font-weight="bold" lengthAdjust="spacing" textLength="18.0908" x="684.2466" y="524.2231">11</text><text fill="#000000" font-family="sans-serif" font-size="13" lengthAdjust="spacing" textLength="39.6602" x="706.3374" y="524.2231">Token</text></g><g class="message" data-participant-1="NP" data-participant-2="PNS"><polygon fill="#181818" points="321.1968,554.4219,311.1968,558.4219,321.1968,562.4219,317.1968,558.4219" style="stroke:#181818;stroke-width:1;"/><line style="stroke:#181818;stroke-width:1;" x1="315.1968" x2="1025.7705" y1="558.4219" y2="558.4219"/><text fill="#000000" font-family="sans-serif" font-size="13" font-weight="bold" lengthAdjust="spacing" textLength="18.0908" x="327.1968" y="553.356">12</text><text fill="#000000" font-family="sans-serif" font-size="13" lengthAdjust="spacing" textLength="258.5146" x="349.2876" y="553.356">Send &lt;notification&gt; to device &lt;token&gt;</text></g><g class="message" data-participant-1="PNS" data-participant-2="NP"><line style="stroke:#181818;stroke-width:1;" x1="1024.7705" x2="1014.7705" y1="587.5547" y2="583.5547"/><line style="stroke:#181818;stroke-width:1;" x1="1024.7705" x2="1014.7705" y1="587.5547" y2="591.5547"/><line style="stroke:#181818;stroke-width:1;stroke-dasharray:2.0,2.0;" x1="310.1968" x2="1025.7705" y1="587.5547" y2="587.5547"/><text fill="#000000" font-family="sans-serif" font-size="13" font-weight="bold" lengthAdjust="spacing" textLength="18.0908" x="317.1968" y="582.4888">13</text><text fill="#000000" font-family="sans-serif" font-size="13" lengthAdjust="spacing" textLength="17.7607" x="339.2876" y="582.4888">Ok</text></g><g class="message" data-participant-1="PNS" data-participant-2="User"><line style="stroke:#181818;stroke-width:1;" x1="81.4829" x2="91.4829" y1="616.6875" y2="612.6875"/><line style="stroke:#181818;stroke-width:1;" x1="81.4829" x2="91.4829" y1="616.6875" y2="620.6875"/><line style="stroke:#181818;stroke-width:1;stroke-dasharray:2.0,2.0;" x1="80.4829" x2="304.1968" y1="616.6875" y2="616.6875"/><text fill="#000000" font-family="sans-serif" font-size="13" font-weight="bold" lengthAdjust="spacing" textLength="18.0908" x="97.4829" y="611.6216">14</text><text fill="#000000" font-family="sans-serif" font-size="13" lengthAdjust="spacing" textLength="74.5913" x="119.5737" y="611.6216">Notification</text></g><!--SRC=[TLDDRu904BtlhvZOQ_a31adQYsbIBG5xwsM54JS2I_V3n7_VcLqiOA89KMVVcpVxvY6zqxtlZcY4s6pWswA16g-gGd3wWZqOR9HrHZgbUzXiX92LqmPMMwFz03jawWga3LGnIEDKfGRPEyYzFU-rKoTL1VP7VpAIMldAUODCoVVbWi4jx85bROac3C6D3wMefPD7QN4EAN3GLj4mjuWg9bGOxW6mBHPQyyboVsoLFTFL2RVFnQz7Zx3QeRMoGNWtf1Sl6Ny64zHLkZZFzEz-76nCChxW6WgaVjQDVfx8lEusUZmnsGfwcCJaDQG1deaQ5vXxPpA5E_Dkg91wLR_2o9Xc8-FeYV1Y3QMyubDe4Q1fcYGH_7M9McEb39NPCCpWnBn1FtCIAjrrigz1MKfEXUgATKXDT0QI9Cl8OPe52PJEgHaD1R9juQU7BiJAWZv14tAMDggUZKixskVSZBQwXYswEUC1ItlV5fFm9pd6g94WHAlryDBejkRLoEeydWYW3ukCvh586e-oQ5z0BFpW0drFOeT_t8DpK_CGaITkZ2_YFGeBFGu35q9exdgqeaKjHcaUzSTXk0s9Ypy0]--></g></svg>