<svg xmlns="http://www.w3.org/2000/svg" xmlns:xlink="http://www.w3.org/1999/xlink" contentStyleType="text/css" data-diagram-type="DESCRIPTION" height="691px" preserveAspectRatio="none" style="width:769px;height:691px;background:#FFFFFF;" version="1.1" viewBox="0 0 769 691" width="769px" zoomAndPan="magnify"><defs/><g><!--cluster :notification-service--><g class="cluster" data-entity=".notification-service" data-source-line="44" data-uid="ent0002" id="cluster_.notification-service"><rect fill="none" height="678" rx="2.5" ry="2.5" style="stroke:#181818;stroke-width:1;" width="756" x="7" y="7"/><rect fill="none" height="10" style="stroke:#181818;stroke-width:1;" width="15" x="743" y="12"/><rect fill="none" height="2" style="stroke:#181818;stroke-width:1;" width="4" x="741" y="14"/><rect fill="none" height="2" style="stroke:#181818;stroke-width:1;" width="4" x="741" y="18"/><text fill="#000000" font-family="sans-serif" font-size="14" font-weight="bold" lengthAdjust="spacing" textLength="158.6484" x="305.6758" y="32.9951">:notification-service</text></g><!--entity C--><g class="entity" data-entity="C" data-source-line="45" data-uid="ent0003" id="entity_C"><rect fill="#F1F1F1" height="46.2969" rx="2.5" ry="2.5" style="stroke:#181818;stroke-width:0.5;" width="112.9873" x="96.5" y="42"/><rect fill="#F1F1F1" height="10" style="stroke:#181818;stroke-width:0.5;" width="15" x="189.4873" y="47"/><rect fill="#F1F1F1" height="2" style="stroke:#181818;stroke-width:0.5;" width="4" x="187.4873" y="49"/><rect fill="#F1F1F1" height="2" style="stroke:#181818;stroke-width:0.5;" width="4" x="187.4873" y="53"/><text fill="#000000" font-family="sans-serif" font-size="14" lengthAdjust="spacing" textLength="72.9873" x="111.5" y="74.9951">:commons</text></g><!--entity D--><g class="entity" data-entity="D" data-source-line="46" data-uid="ent0004" id="entity_D"><rect fill="#F1F1F1" height="46.2969" rx="2.5" ry="2.5" style="stroke:#181818;stroke-width:0.5;" width="97.1484" x="104.5" y="148"/><rect fill="#F1F1F1" height="10" style="stroke:#181818;stroke-width:0.5;" width="15" x="181.6484" y="153"/><rect fill="#F1F1F1" height="2" style="stroke:#181818;stroke-width:0.5;" width="4" x="179.6484" y="155"/><rect fill="#F1F1F1" height="2" style="stroke:#181818;stroke-width:0.5;" width="4" x="179.6484" y="159"/><text fill="#000000" font-family="sans-serif" font-size="14" lengthAdjust="spacing" textLength="57.1484" x="119.5" y="180.9951">:domain</text></g><!--entity A--><g class="entity" data-entity="A" data-source-line="47" data-uid="ent0005" id="entity_A"><rect fill="#F1F1F1" height="46.2969" rx="2.5" ry="2.5" style="stroke:#181818;stroke-width:0.5;" width="121.9424" x="92" y="254"/><rect fill="#F1F1F1" height="10" style="stroke:#181818;stroke-width:0.5;" width="15" x="193.9424" y="259"/><rect fill="#F1F1F1" height="2" style="stroke:#181818;stroke-width:0.5;" width="4" x="191.9424" y="261"/><rect fill="#F1F1F1" height="2" style="stroke:#181818;stroke-width:0.5;" width="4" x="191.9424" y="265"/><text fill="#000000" font-family="sans-serif" font-size="14" lengthAdjust="spacing" textLength="81.9424" x="107" y="286.9951">:application</text></g><!--entity storage--><g class="entity" data-entity="storage" data-source-line="49" data-uid="ent0006" id="entity_storage"><rect fill="#F1F1F1" height="46.2969" rx="2.5" ry="2.5" style="stroke:#181818;stroke-width:0.5;" width="97.9004" x="23" y="368.5"/><rect fill="#F1F1F1" height="10" style="stroke:#181818;stroke-width:0.5;" width="15" x="100.9004" y="373.5"/><rect fill="#F1F1F1" height="2" style="stroke:#181818;stroke-width:0.5;" width="4" x="98.9004" y="375.5"/><rect fill="#F1F1F1" height="2" style="stroke:#181818;stroke-width:0.5;" width="4" x="98.9004" y="379.5"/><text fill="#000000" font-family="sans-serif" font-size="14" lengthAdjust="spacing" textLength="57.9004" x="38" y="401.4951">:storage</text></g><!--entity postgres--><g class="entity" data-entity="postgres" data-source-line="50" data-uid="ent0007" id="entity_postgres"><rect fill="#FFFFFF" height="62.5938" rx="2.5" ry="2.5" style="stroke:#181818;stroke-width:0.5;" width="117.3799" x="477.5" y="360"/><rect fill="#FFFFFF" height="10" style="stroke:#181818;stroke-width:0.5;" width="15" x="574.8799" y="365"/><rect fill="#FFFFFF" height="2" style="stroke:#181818;stroke-width:0.5;" width="4" x="572.8799" y="367"/><rect fill="#FFFFFF" height="2" style="stroke:#181818;stroke-width:0.5;" width="4" x="572.8799" y="371"/><text fill="#000000" font-family="sans-serif" font-size="14" font-style="italic" lengthAdjust="spacing" textLength="75.3799" x="493.5" y="392.9951">&#171;external&#187;</text><text fill="#000000" font-family="sans-serif" font-size="14" lengthAdjust="spacing" textLength="73.5615" x="494.4092" y="409.292">postgresql</text></g><!--entity P--><g class="entity" data-entity="P" data-source-line="52" data-uid="ent0008" id="entity_P"><rect fill="#F1F1F1" height="46.2969" rx="2.5" ry="2.5" style="stroke:#181818;stroke-width:0.5;" width="133.6387" x="156" y="368.5"/><rect fill="#F1F1F1" height="10" style="stroke:#181818;stroke-width:0.5;" width="15" x="269.6387" y="373.5"/><rect fill="#F1F1F1" height="2" style="stroke:#181818;stroke-width:0.5;" width="4" x="267.6387" y="375.5"/><rect fill="#F1F1F1" height="2" style="stroke:#181818;stroke-width:0.5;" width="4" x="267.6387" y="379.5"/><text fill="#000000" font-family="sans-serif" font-size="14" lengthAdjust="spacing" textLength="93.6387" x="171" y="401.4951">:presentation</text></g><!--entity protoc--><g class="entity" data-entity="protoc" data-source-line="53" data-uid="ent0009" id="entity_protoc"><rect fill="#FFFFFF" height="62.5938" rx="2.5" ry="2.5" style="stroke:#181818;stroke-width:0.5;" width="117.3799" x="325.5" y="360"/><rect fill="#FFFFFF" height="10" style="stroke:#181818;stroke-width:0.5;" width="15" x="422.8799" y="365"/><rect fill="#FFFFFF" height="2" style="stroke:#181818;stroke-width:0.5;" width="4" x="420.8799" y="367"/><rect fill="#FFFFFF" height="2" style="stroke:#181818;stroke-width:0.5;" width="4" x="420.8799" y="371"/><text fill="#000000" font-family="sans-serif" font-size="14" font-style="italic" lengthAdjust="spacing" textLength="75.3799" x="341.5" y="392.9951">&#171;external&#187;</text><text fill="#000000" font-family="sans-serif" font-size="14" lengthAdjust="spacing" textLength="44.96" x="356.71" y="409.292">protoc</text></g><!--entity protobuf--><g class="entity" data-entity="protobuf" data-source-line="54" data-uid="ent0010" id="entity_protobuf"><rect fill="#FFFFFF" height="62.5938" rx="2.5" ry="2.5" style="stroke:#181818;stroke-width:0.5;" width="117.3799" x="629.5" y="360"/><rect fill="#FFFFFF" height="10" style="stroke:#181818;stroke-width:0.5;" width="15" x="726.8799" y="365"/><rect fill="#FFFFFF" height="2" style="stroke:#181818;stroke-width:0.5;" width="4" x="724.8799" y="367"/><rect fill="#FFFFFF" height="2" style="stroke:#181818;stroke-width:0.5;" width="4" x="724.8799" y="371"/><text fill="#000000" font-family="sans-serif" font-size="14" font-style="italic" lengthAdjust="spacing" textLength="75.3799" x="645.5" y="392.9951">&#171;external&#187;</text><text fill="#000000" font-family="sans-serif" font-size="14" lengthAdjust="spacing" textLength="59.9512" x="653.2144" y="409.292">protobuf</text></g><!--entity fcm--><g class="entity" data-entity="fcm" data-source-line="56" data-uid="ent0011" id="entity_fcm"><rect fill="#F1F1F1" height="46.2969" rx="2.5" ry="2.5" style="stroke:#181818;stroke-width:0.5;" width="70.9805" x="81.5" y="491.5"/><rect fill="#F1F1F1" height="10" style="stroke:#181818;stroke-width:0.5;" width="15" x="132.4805" y="496.5"/><rect fill="#F1F1F1" height="2" style="stroke:#181818;stroke-width:0.5;" width="4" x="130.4805" y="498.5"/><rect fill="#F1F1F1" height="2" style="stroke:#181818;stroke-width:0.5;" width="4" x="130.4805" y="502.5"/><text fill="#000000" font-family="sans-serif" font-size="14" lengthAdjust="spacing" textLength="30.9805" x="96.5" y="524.4951">:fcm</text></g><!--entity firebase--><g class="entity" data-entity="firebase" data-source-line="57" data-uid="ent0012" id="entity_firebase"><rect fill="#FFFFFF" height="62.5938" rx="2.5" ry="2.5" style="stroke:#181818;stroke-width:0.5;" width="145.4785" x="415.5" y="483"/><rect fill="#FFFFFF" height="10" style="stroke:#181818;stroke-width:0.5;" width="15" x="540.9785" y="488"/><rect fill="#FFFFFF" height="2" style="stroke:#181818;stroke-width:0.5;" width="4" x="538.9785" y="490"/><rect fill="#FFFFFF" height="2" style="stroke:#181818;stroke-width:0.5;" width="4" x="538.9785" y="494"/><text fill="#000000" font-family="sans-serif" font-size="14" font-style="italic" lengthAdjust="spacing" textLength="75.3799" x="445.5493" y="515.9951">&#171;external&#187;</text><text fill="#000000" font-family="sans-serif" font-size="14" lengthAdjust="spacing" textLength="105.4785" x="430.5" y="532.292">firebase-admin</text></g><!--entity grpc--><g class="entity" data-entity="grpc" data-source-line="59" data-uid="ent0013" id="entity_grpc"><rect fill="#F1F1F1" height="46.2969" rx="2.5" ry="2.5" style="stroke:#181818;stroke-width:0.5;" width="75.9434" x="188" y="491.5"/><rect fill="#F1F1F1" height="10" style="stroke:#181818;stroke-width:0.5;" width="15" x="243.9434" y="496.5"/><rect fill="#F1F1F1" height="2" style="stroke:#181818;stroke-width:0.5;" width="4" x="241.9434" y="498.5"/><rect fill="#F1F1F1" height="2" style="stroke:#181818;stroke-width:0.5;" width="4" x="241.9434" y="502.5"/><text fill="#000000" font-family="sans-serif" font-size="14" lengthAdjust="spacing" textLength="35.9434" x="203" y="524.4951">:grpc</text></g><!--entity mom--><g class="entity" data-entity="mom" data-source-line="61" data-uid="ent0014" id="entity_mom"><rect fill="#F1F1F1" height="46.2969" rx="2.5" ry="2.5" style="stroke:#181818;stroke-width:0.5;" width="80.5576" x="299.5" y="491.5"/><rect fill="#F1F1F1" height="10" style="stroke:#181818;stroke-width:0.5;" width="15" x="360.0576" y="496.5"/><rect fill="#F1F1F1" height="2" style="stroke:#181818;stroke-width:0.5;" width="4" x="358.0576" y="498.5"/><rect fill="#F1F1F1" height="2" style="stroke:#181818;stroke-width:0.5;" width="4" x="358.0576" y="502.5"/><text fill="#000000" font-family="sans-serif" font-size="14" lengthAdjust="spacing" textLength="40.5576" x="314.5" y="524.4951">:mom</text></g><!--entity mq--><g class="entity" data-entity="mq" data-source-line="62" data-uid="ent0015" id="entity_mq"><rect fill="#FFFFFF" height="62.5938" rx="2.5" ry="2.5" style="stroke:#181818;stroke-width:0.5;" width="147.5156" x="596" y="483"/><rect fill="#FFFFFF" height="10" style="stroke:#181818;stroke-width:0.5;" width="15" x="723.5156" y="488"/><rect fill="#FFFFFF" height="2" style="stroke:#181818;stroke-width:0.5;" width="4" x="721.5156" y="490"/><rect fill="#FFFFFF" height="2" style="stroke:#181818;stroke-width:0.5;" width="4" x="721.5156" y="494"/><text fill="#000000" font-family="sans-serif" font-size="14" font-style="italic" lengthAdjust="spacing" textLength="75.3799" x="627.0679" y="515.9951">&#171;external&#187;</text><text fill="#000000" font-family="sans-serif" font-size="14" lengthAdjust="spacing" textLength="107.5156" x="611" y="532.292">rabbitmq-client</text></g><!--entity entry--><g class="entity" data-entity="entry" data-source-line="64" data-uid="ent0016" id="entity_entry"><rect fill="#CCFFCC" height="62.5938" rx="2.5" ry="2.5" style="stroke:#181818;stroke-width:0.5;" width="136.8213" x="102.5" y="606"/><rect fill="#CCFFCC" height="10" style="stroke:#181818;stroke-width:0.5;" width="15" x="219.3213" y="611"/><rect fill="#CCFFCC" height="2" style="stroke:#181818;stroke-width:0.5;" width="4" x="217.3213" y="613"/><rect fill="#CCFFCC" height="2" style="stroke:#181818;stroke-width:0.5;" width="4" x="217.3213" y="617"/><text fill="#000000" font-family="sans-serif" font-size="14" font-style="italic" lengthAdjust="spacing" textLength="94.8213" x="118.5" y="638.9951">&#171;executable&#187;</text><text fill="#000000" font-family="sans-serif" font-size="14" lengthAdjust="spacing" textLength="77.4375" x="127.1919" y="655.292">:entrypoint</text></g><!--reverse link C to D--><g class="link" data-entity-1="C" data-entity-2="D" data-source-line="66" data-uid="lnk18" id="link_C_D"><path d="M153,106.06 C153,123.7 153,130.34 153,147.98" fill="none" id="C-backto-D" style="stroke:#181818;stroke-width:1;"/><polygon fill="none" points="153,88.06,147,106.06,159,106.06,153,88.06" style="stroke:#181818;stroke-width:1;"/></g><!--reverse link D to A--><g class="link" data-entity-1="D" data-entity-2="A" data-source-line="67" data-uid="lnk20" id="link_D_A"><path d="M153,212.06 C153,229.7 153,236.34 153,253.98" fill="none" id="D-backto-A" style="stroke:#181818;stroke-width:1;"/><polygon fill="none" points="153,194.06,147,212.06,159,212.06,153,194.06" style="stroke:#181818;stroke-width:1;"/></g><!--reverse link A to storage--><g class="link" data-entity-1="A" data-entity-2="storage" data-source-line="69" data-uid="lnk22" id="link_A_storage"><path d="M126.4817,314.8371 C112.2817,334.5571 102.16,348.61 87.97,368.32" fill="none" id="A-backto-storage" style="stroke:#181818;stroke-width:1;"/><polygon fill="none" points="137,300.23,121.6127,311.331,131.3508,318.3431,137,300.23" style="stroke:#181818;stroke-width:1;"/></g><!--reverse link postgres to storage--><g class="link" data-entity-1="postgres" data-entity-2="storage" data-source-line="70" data-uid="lnk23" id="link_postgres_storage"><path d="M484.4409,349.3617 C468.2009,337.5317 462.79,336.07 442.5,330 C320.73,293.54 277.37,290.67 156.5,330 C133.21,337.58 110.98,354.27 95.18,368.35" fill="none" id="postgres-backto-storage" style="stroke:#181818;stroke-width:1;"/><polygon fill="none" points="498.99,359.96,487.9736,344.512,480.9081,354.2114,498.99,359.96" style="stroke:#181818;stroke-width:1;"/></g><!--reverse link A to P--><g class="link" data-entity-1="A" data-entity-2="P" data-source-line="72" data-uid="lnk25" id="link_A_P"><path d="M176.3393,315.5131 C188.6093,335.2331 196.94,348.61 209.2,368.32" fill="none" id="A-backto-P" style="stroke:#181818;stroke-width:1;"/><polygon fill="none" points="166.83,300.23,171.2449,318.6829,181.4337,312.3433,166.83,300.23" style="stroke:#181818;stroke-width:1;"/></g><!--link P to protoc--><g class="link" data-entity-1="P" data-entity-2="protoc" data-source-line="73" data-uid="lnk27" id="link_P_protoc"><path d="M290.29,391.5 C302.01,391.5 295.72,391.5 307.43,391.5" fill="none" id="P-to-protoc" style="stroke:#181818;stroke-width:1;"/><polygon fill="none" points="325.43,391.5,307.43,385.5,307.43,397.5,325.43,391.5" style="stroke:#181818;stroke-width:1;"/></g><!--link P to protobuf--><g class="link" data-entity-1="P" data-entity-2="protobuf" data-source-line="74" data-uid="lnk29" id="link_P_protobuf"><path d="M251.95,368.28 C271.47,354.17 298.5,337.48 325.5,330 C440.72,298.09 479.97,295.71 594.5,330 C614.79,336.07 620.2009,337.5317 636.4409,349.3617" fill="none" id="P-to-protobuf" style="stroke:#181818;stroke-width:1;"/><polygon fill="none" points="650.99,359.96,639.9736,344.512,632.9081,354.2114,650.99,359.96" style="stroke:#181818;stroke-width:1;"/></g><!--reverse link P to fcm--><g class="link" data-entity-1="P" data-entity-2="fcm" data-source-line="76" data-uid="lnk31" id="link_P_fcm"><path d="M191.6999,428.2302 C172.5699,450.0702 155.4,469.66 136.32,491.45" fill="none" id="P-backto-fcm" style="stroke:#181818;stroke-width:1;"/><polygon fill="none" points="203.56,414.69,187.1865,424.2769,196.2133,432.1836,203.56,414.69" style="stroke:#181818;stroke-width:1;"/></g><!--link fcm to firebase--><g class="link" data-entity-1="fcm" data-entity-2="firebase" data-source-line="77" data-uid="lnk33" id="link_fcm_firebase"><path d="M135.93,491.42 C149.03,477.37 167.78,460.69 188.5,453 C268.51,423.32 298.03,431.08 380.5,453 C403.15,459.02 410.7772,461.4545 429.5572,473.3045" fill="none" id="fcm-to-firebase" style="stroke:#181818;stroke-width:1;"/><polygon fill="none" points="444.78,482.91,432.759,468.2303,426.3553,478.3788,444.78,482.91" style="stroke:#181818;stroke-width:1;"/></g><!--reverse link P to grpc--><g class="link" data-entity-1="P" data-entity-2="grpc" data-source-line="79" data-uid="lnk35" id="link_P_grpc"><path d="M223.9949,432.6845 C224.5349,454.5245 224.91,469.66 225.45,491.45" fill="none" id="P-backto-grpc" style="stroke:#181818;stroke-width:1;"/><polygon fill="none" points="223.55,414.69,217.9968,432.8328,229.9931,432.5362,223.55,414.69" style="stroke:#181818;stroke-width:1;"/></g><!--reverse link P to mom--><g class="link" data-entity-1="P" data-entity-2="mom" data-source-line="81" data-uid="lnk37" id="link_P_mom"><path d="M256.9698,427.6324 C278.0798,449.4724 297.61,469.66 318.68,491.45" fill="none" id="P-backto-mom" style="stroke:#181818;stroke-width:1;"/><polygon fill="none" points="244.46,414.69,252.6557,431.8023,261.2839,423.4625,244.46,414.69" style="stroke:#181818;stroke-width:1;"/></g><!--link mom to mq--><g class="link" data-entity-1="mom" data-entity-2="mq" data-source-line="82" data-uid="lnk39" id="link_mom_mq"><path d="M360.24,491.4 C374.18,477.33 394,460.65 415.5,453 C476.22,431.4 498.15,436.69 560.5,453 C583.49,459.01 591.4544,461.587 610.5844,473.427" fill="none" id="mom-to-mq" style="stroke:#181818;stroke-width:1;"/><polygon fill="none" points="625.89,482.9,613.742,468.3251,607.4267,478.5289,625.89,482.9" style="stroke:#181818;stroke-width:1;"/></g><!--reverse link fcm to entry--><g class="link" data-entity-1="fcm" data-entity-2="entry" data-source-line="84" data-uid="lnk41" id="link_fcm_entry"><path d="M134.2368,554.1269 C142.7668,573.2369 147.82,584.56 157.29,605.79" fill="none" id="fcm-backto-entry" style="stroke:#181818;stroke-width:1;"/><polygon fill="none" points="126.9,537.69,128.7579,556.5725,139.7158,551.6813,126.9,537.69" style="stroke:#181818;stroke-width:1;"/></g><!--reverse link grpc to entry--><g class="link" data-entity-1="grpc" data-entity-2="entry" data-source-line="85" data-uid="lnk43" id="link_grpc_entry"><path d="M208.4661,554.0787 C199.7861,573.1887 194.61,584.56 184.96,605.79" fill="none" id="grpc-backto-entry" style="stroke:#181818;stroke-width:1;"/><polygon fill="none" points="215.91,537.69,203.0032,551.5973,213.929,556.56,215.91,537.69" style="stroke:#181818;stroke-width:1;"/></g><!--reverse link mom to entry--><g class="link" data-entity-1="mom" data-entity-2="entry" data-source-line="86" data-uid="lnk45" id="link_mom_entry"><path d="M294.3665,548.1715 C267.6865,567.2815 243.55,584.56 213.89,605.79" fill="none" id="mom-backto-entry" style="stroke:#181818;stroke-width:1;"/><polygon fill="none" points="309,537.69,290.8727,543.2936,297.8603,553.0493,309,537.69" style="stroke:#181818;stroke-width:1;"/></g><!--reverse link storage to entry--><g class="link" data-entity-1="storage" data-entity-2="entry" data-source-line="87" data-uid="lnk47" id="link_storage_entry"><path d="M59.6509,431.859 C50.6809,462.819 44.01,502.91 64,546 C75.37,570.5 96.99,590.77 117.84,605.87" fill="none" id="storage-backto-entry" style="stroke:#181818;stroke-width:1;"/><polygon fill="none" points="64.66,414.57,53.8879,430.1893,65.4139,433.5287,64.66,414.57" style="stroke:#181818;stroke-width:1;"/></g><!--SRC=[TP9DRiCW48NtFWLArrmWYYAbyRAgigkggWkCiOC2307SDcfozs9-GfoutfZvviruvc5xu4eJGoIY83KefXpwhP1_dWazz0O6rMv1W5cjs8zZHX6nNgEtFNViFnMZWoEDO5xtH6dNKJglTCmwhw4degfBPQ-3rCIN4ylk2j0Bx_VkdGa1tpVgLsWVb76ygcoqM2fmlEEKE0uAMsQ-E6MBjEd7qYibAFk9Y4NRn5gGXAk0weI8rYBr27nJfOHrO4ZF0apdcD5WNM-OFOgGoo6wTJCtqJxXXotjTwc70GSqreVZjBfecg4hAX_CVgMZCeZyEvAE6pRQZKahqxuPpJReZOx3Z8SC9SIk_Xs98Kt3dJnYAhXVAYQFimrzsfmqyAGA8Ph-I55Q8pneV5wdAzhai8xfP7occm2BusTiyFLoGcvt9qtcdh70oVlYP8A1UkjoPPGLlu9ij3RmqQ6Y3CWRDAqTJGbLetM1H0EIA5_J10Rd7sZsVWBpmfVg3m00]--></g></svg>