<svg xmlns="http://www.w3.org/2000/svg" xmlns:xlink="http://www.w3.org/1999/xlink" contentStyleType="text/css" height="568px" preserveAspectRatio="none" style="width:707px;height:568px;background:#FFFFFF;" version="1.1" viewBox="0 0 707 568" width="707px" zoomAndPan="magnify"><defs/><g><!--cluster :location-service--><g id="cluster_:location-service"><rect fill="none" height="555" rx="2.5" ry="2.5" style="stroke:#181818;stroke-width:1;" width="694" x="7" y="7"/><rect fill="none" height="10" style="stroke:#181818;stroke-width:1;" width="15" x="681" y="12"/><rect fill="none" height="2" style="stroke:#181818;stroke-width:1;" width="4" x="679" y="14"/><rect fill="none" height="2" style="stroke:#181818;stroke-width:1;" width="4" x="679" y="18"/><text fill="#000000" font-family="sans-serif" font-size="14" font-weight="bold" lengthAdjust="spacing" textLength="131.0996" x="288.4502" y="32.9951">:location-service</text></g><!--entity C--><g id="elem_C"><rect fill="#F1F1F1" height="46.2969" rx="2.5" ry="2.5" style="stroke:#181818;stroke-width:0.5;" width="112.9873" x="246.5" y="42"/><rect fill="#F1F1F1" height="10" style="stroke:#181818;stroke-width:0.5;" width="15" x="339.4873" y="47"/><rect fill="#F1F1F1" height="2" style="stroke:#181818;stroke-width:0.5;" width="4" x="337.4873" y="49"/><rect fill="#F1F1F1" height="2" style="stroke:#181818;stroke-width:0.5;" width="4" x="337.4873" y="53"/><text fill="#000000" font-family="sans-serif" font-size="14" lengthAdjust="spacing" textLength="72.9873" x="261.5" y="74.9951">:commons</text></g><!--entity D--><g id="elem_D"><rect fill="#F1F1F1" height="46.2969" rx="2.5" ry="2.5" style="stroke:#181818;stroke-width:0.5;" width="97.1484" x="254.5" y="148"/><rect fill="#F1F1F1" height="10" style="stroke:#181818;stroke-width:0.5;" width="15" x="331.6484" y="153"/><rect fill="#F1F1F1" height="2" style="stroke:#181818;stroke-width:0.5;" width="4" x="329.6484" y="155"/><rect fill="#F1F1F1" height="2" style="stroke:#181818;stroke-width:0.5;" width="4" x="329.6484" y="159"/><text fill="#000000" font-family="sans-serif" font-size="14" lengthAdjust="spacing" textLength="57.1484" x="269.5" y="180.9951">:domain</text></g><!--entity A--><g id="elem_A"><rect fill="#F1F1F1" height="46.2969" rx="2.5" ry="2.5" style="stroke:#181818;stroke-width:0.5;" width="121.9424" x="242" y="254"/><rect fill="#F1F1F1" height="10" style="stroke:#181818;stroke-width:0.5;" width="15" x="343.9424" y="259"/><rect fill="#F1F1F1" height="2" style="stroke:#181818;stroke-width:0.5;" width="4" x="341.9424" y="261"/><rect fill="#F1F1F1" height="2" style="stroke:#181818;stroke-width:0.5;" width="4" x="341.9424" y="265"/><text fill="#000000" font-family="sans-serif" font-size="14" lengthAdjust="spacing" textLength="81.9424" x="257" y="286.9951">:application</text></g><!--entity P--><g id="elem_P"><rect fill="#F1F1F1" height="46.2969" rx="2.5" ry="2.5" style="stroke:#181818;stroke-width:0.5;" width="133.6387" x="236" y="368.5"/><rect fill="#F1F1F1" height="10" style="stroke:#181818;stroke-width:0.5;" width="15" x="349.6387" y="373.5"/><rect fill="#F1F1F1" height="2" style="stroke:#181818;stroke-width:0.5;" width="4" x="347.6387" y="375.5"/><rect fill="#F1F1F1" height="2" style="stroke:#181818;stroke-width:0.5;" width="4" x="347.6387" y="379.5"/><text fill="#000000" font-family="sans-serif" font-size="14" lengthAdjust="spacing" textLength="93.6387" x="251" y="401.4951">:presentation</text></g><!--entity circe--><g id="elem_circe"><rect fill="#FFFFFF" height="62.5938" rx="2.5" ry="2.5" style="stroke:#181818;stroke-width:0.5;" width="180.5195" x="405.5" y="360"/><rect fill="#FFFFFF" height="10" style="stroke:#181818;stroke-width:0.5;" width="15" x="566.0195" y="365"/><rect fill="#FFFFFF" height="2" style="stroke:#181818;stroke-width:0.5;" width="4" x="564.0195" y="367"/><rect fill="#FFFFFF" height="2" style="stroke:#181818;stroke-width:0.5;" width="4" x="564.0195" y="371"/><text fill="#000000" font-family="sans-serif" font-size="14" font-style="italic" lengthAdjust="spacing" textLength="75.3799" x="453.0698" y="392.9951">&#171;external&#187;</text><text fill="#000000" font-family="sans-serif" font-size="14" lengthAdjust="spacing" textLength="140.5195" x="420.5" y="409.292">io.circe:circe-core_3</text></g><!--entity grpc--><g id="elem_grpc"><rect fill="#FFFFFF" height="62.5938" rx="2.5" ry="2.5" style="stroke:#181818;stroke-width:0.5;" width="115.3799" x="85.5" y="360"/><rect fill="#FFFFFF" height="10" style="stroke:#181818;stroke-width:0.5;" width="15" x="180.8799" y="365"/><rect fill="#FFFFFF" height="2" style="stroke:#181818;stroke-width:0.5;" width="4" x="178.8799" y="367"/><rect fill="#FFFFFF" height="2" style="stroke:#181818;stroke-width:0.5;" width="4" x="178.8799" y="371"/><text fill="#000000" font-family="sans-serif" font-size="14" font-style="italic" lengthAdjust="spacing" textLength="75.3799" x="100.5" y="392.9951">&#171;external&#187;</text><text fill="#000000" font-family="sans-serif" font-size="14" lengthAdjust="spacing" textLength="60.1836" x="108.0981" y="409.292">io.grpc-*</text></g><!--entity I--><g id="elem_I"><rect fill="#F1F1F1" height="46.2969" rx="2.5" ry="2.5" style="stroke:#181818;stroke-width:0.5;" width="140.584" x="232.5" y="491.5"/><rect fill="#F1F1F1" height="10" style="stroke:#181818;stroke-width:0.5;" width="15" x="353.084" y="496.5"/><rect fill="#F1F1F1" height="2" style="stroke:#181818;stroke-width:0.5;" width="4" x="351.084" y="498.5"/><rect fill="#F1F1F1" height="2" style="stroke:#181818;stroke-width:0.5;" width="4" x="351.084" y="502.5"/><text fill="#000000" font-family="sans-serif" font-size="14" lengthAdjust="spacing" textLength="100.584" x="247.5" y="524.4951">:infrastructure</text></g><!--entity http4s--><g id="elem_http4s"><rect fill="#FFFFFF" height="62.5938" rx="2.5" ry="2.5" style="stroke:#181818;stroke-width:0.5;" width="174.3057" x="23" y="483"/><rect fill="#FFFFFF" height="10" style="stroke:#181818;stroke-width:0.5;" width="15" x="177.3057" y="488"/><rect fill="#FFFFFF" height="2" style="stroke:#181818;stroke-width:0.5;" width="4" x="175.3057" y="490"/><rect fill="#FFFFFF" height="2" style="stroke:#181818;stroke-width:0.5;" width="4" x="175.3057" y="494"/><text fill="#000000" font-family="sans-serif" font-size="14" font-style="italic" lengthAdjust="spacing" textLength="75.3799" x="67.4629" y="515.9951">&#171;external&#187;</text><text fill="#000000" font-family="sans-serif" font-size="14" lengthAdjust="spacing" textLength="134.3057" x="38" y="532.292">org.http4s:http4s-*</text></g><!--entity akka--><g id="elem_akka"><rect fill="#FFFFFF" height="62.5938" rx="2.5" ry="2.5" style="stroke:#181818;stroke-width:0.5;" width="275.6689" x="409" y="483"/><rect fill="#FFFFFF" height="10" style="stroke:#181818;stroke-width:0.5;" width="15" x="664.6689" y="488"/><rect fill="#FFFFFF" height="2" style="stroke:#181818;stroke-width:0.5;" width="4" x="662.6689" y="490"/><rect fill="#FFFFFF" height="2" style="stroke:#181818;stroke-width:0.5;" width="4" x="662.6689" y="494"/><text fill="#000000" font-family="sans-serif" font-size="14" font-style="italic" lengthAdjust="spacing" textLength="75.3799" x="504.1445" y="515.9951">&#171;external&#187;</text><text fill="#000000" font-family="sans-serif" font-size="14" lengthAdjust="spacing" textLength="235.6689" x="424" y="532.292">com.typesafe.akka:akka-cluster-*</text></g><!--reverse link C to D--><g id="link_C_D"><path d="M303,106.06 C303,123.7 303,130.34 303,147.98 " fill="none" id="C-backto-D" style="stroke:#181818;stroke-width:1;"/><polygon fill="none" points="303,88.06,297,106.06,309,106.06,303,88.06" style="stroke:#181818;stroke-width:1;"/></g><!--reverse link D to A--><g id="link_D_A"><path d="M303,212.06 C303,229.7 303,236.34 303,253.98 " fill="none" id="D-backto-A" style="stroke:#181818;stroke-width:1;"/><polygon fill="none" points="303,194.06,297,212.06,309,212.06,303,194.06" style="stroke:#181818;stroke-width:1;"/></g><!--reverse link A to P--><g id="link_A_P"><path d="M303,318.23 C303,337.95 303,348.61 303,368.32 " fill="none" id="A-backto-P" style="stroke:#181818;stroke-width:1;"/><polygon fill="none" points="303,300.23,297,318.23,309,318.23,303,300.23" style="stroke:#181818;stroke-width:1;"/></g><!--link P to circe--><g id="link_P_circe"><path d="M370.1,391.5 C381.74,391.5 375.38,391.5 387.02,391.5 " fill="none" id="P-to-circe" style="stroke:#181818;stroke-width:1;"/><polygon fill="none" points="405.02,391.5,387.02,385.5,387.02,397.5,405.02,391.5" style="stroke:#181818;stroke-width:1;"/></g><!--reverse link grpc to P--><g id="link_grpc_P"><path d="M218.5,391.5 C230.24,391.5 223.99,391.5 235.73,391.5 " fill="none" id="grpc-backto-P" style="stroke:#181818;stroke-width:1;"/><polygon fill="none" points="200.5,391.5,218.5,397.5,218.5,385.5,200.5,391.5" style="stroke:#181818;stroke-width:1;"/></g><!--reverse link P to I--><g id="link_P_I"><path d="M303,432.69 C303,454.53 303,469.66 303,491.45 " fill="none" id="P-backto-I" style="stroke:#181818;stroke-width:1;"/><polygon fill="none" points="303,414.69,297,432.69,309,432.69,303,414.69" style="stroke:#181818;stroke-width:1;"/></g><!--reverse link http4s to I--><g id="link_http4s_I"><path d="M215.08,514.5 C226.8,514.5 220.52,514.5 232.25,514.5 " fill="none" id="http4s-backto-I" style="stroke:#181818;stroke-width:1;"/><polygon fill="none" points="197.08,514.5,215.08,520.5,215.08,508.5,197.08,514.5" style="stroke:#181818;stroke-width:1;"/></g><!--link I to akka--><g id="link_I_akka"><path d="M373.53,514.5 C385.28,514.5 379.02,514.5 390.77,514.5 " fill="none" id="I-to-akka" style="stroke:#181818;stroke-width:1;"/><polygon fill="none" points="408.77,514.5,390.77,508.5,390.77,520.5,408.77,514.5" style="stroke:#181818;stroke-width:1;"/></g><!--SRC=[TPB1JiCm38RlVOe8RaZf1KxLD6bibqa8xOOGGiXuRXSrJQ8a1IRAkvCcwJPWz93M__yviTsuLYW35Zg6kZDQaVBiis3XkGLi6wjxjLrggUriHX-Uh08vdxE7dV3q7qNOUtYL5BXBnBf6F4zwSZumk0TLV1NkKCWAGZeu-fN0xaIpyuyafNu_eU_rzW-PoYkE7LrKKYDueHLtPDy4qaNkygaALAULUsRWs39hMzs1K55QPGcCaIBj4VL5aGrZoOKpZiuc6KANA2nI5LUEsjBBTGIYm4u7UiXeh45-5QdnyoUK3nIgjk2yxT7tbYAxJfQsJRdptjouAhtoLYauSsBelVHxGmvgAg5jeHeNZh9t0SpPetIca1NZlU73F0zjCOLfO9ifNCGmjpnmIRNdUKIfmu7RySTEudfAJE5K-i1pay4FvbXJk3JV]--></g></svg>