<svg xmlns="http://www.w3.org/2000/svg" xmlns:xlink="http://www.w3.org/1999/xlink" contentStyleType="text/css" data-diagram-type="CLASS" height="1207px" preserveAspectRatio="none" style="width:900px;height:1207px;background:#FFFFFF;" version="1.1" viewBox="0 0 900 1207" width="900px" zoomAndPan="magnify"><defs/><g><!--cluster domain--><g id="cluster_domain"><path d="M8.5,6 L67.9404,6 A3.75,3.75 0 0 1 70.4404,8.5 L77.4404,28.2969 L890.5,28.2969 A2.5,2.5 0 0 1 893,30.7969 L893,1197.5 A2.5,2.5 0 0 1 890.5,1200 L8.5,1200 A2.5,2.5 0 0 1 6,1197.5 L6,8.5 A2.5,2.5 0 0 1 8.5,6 " fill="#FFFFFF" fill-opacity="0.00000" style="stroke:#000000;stroke-width:1.5;"/><line style="stroke:#000000;stroke-width:1.5;" x1="6" x2="77.4404" y1="28.2969" y2="28.2969"/><text fill="#000000" font-family="sans-serif" font-size="14" font-weight="bold" lengthAdjust="spacing" textLength="58.4404" x="10" y="20.9951">domain</text></g><!--cluster entities--><g id="cluster_entities"><path d="M32.5,367 L93.7725,367 A3.75,3.75 0 0 1 96.2725,369.5 L103.2725,389.2969 L559.5,389.2969 A2.5,2.5 0 0 1 562,391.7969 L562,669.5 A2.5,2.5 0 0 1 559.5,672 L32.5,672 A2.5,2.5 0 0 1 30,669.5 L30,369.5 A2.5,2.5 0 0 1 32.5,367 " fill="#FFFFFF" fill-opacity="0.00000" style="stroke:#000000;stroke-width:1.5;"/><line style="stroke:#000000;stroke-width:1.5;" x1="30" x2="103.2725" y1="389.2969" y2="389.2969"/><text fill="#000000" font-family="sans-serif" font-size="14" font-weight="bold" lengthAdjust="spacing" textLength="60.2725" x="34" y="381.9951">entities</text></g><!--cluster events--><g id="cluster_events"><path d="M32.5,49 L86.6084,49 A3.75,3.75 0 0 1 89.1084,51.5 L96.1084,71.2969 L866.5,71.2969 A2.5,2.5 0 0 1 869,73.7969 L869,294.5 A2.5,2.5 0 0 1 866.5,297 L32.5,297 A2.5,2.5 0 0 1 30,294.5 L30,51.5 A2.5,2.5 0 0 1 32.5,49 " fill="#FFFFFF" fill-opacity="0.00000" style="stroke:#000000;stroke-width:1.5;"/><line style="stroke:#000000;stroke-width:1.5;" x1="30" x2="96.1084" y1="71.2969" y2="71.2969"/><text fill="#000000" font-family="sans-serif" font-size="14" font-weight="bold" lengthAdjust="spacing" textLength="53.1084" x="34" y="63.9951">events</text></g><!--cluster commands--><g id="cluster_commands"><path d="M69.5,696 L155.3613,696 A3.75,3.75 0 0 1 157.8613,698.5 L164.8613,718.2969 L651.5,718.2969 A2.5,2.5 0 0 1 654,720.7969 L654,1173.5 A2.5,2.5 0 0 1 651.5,1176 L69.5,1176 A2.5,2.5 0 0 1 67,1173.5 L67,698.5 A2.5,2.5 0 0 1 69.5,696 " fill="#FFFFFF" fill-opacity="0.00000" style="stroke:#000000;stroke-width:1.5;"/><line style="stroke:#000000;stroke-width:1.5;" x1="67" x2="164.8613" y1="718.2969" y2="718.2969"/><text fill="#000000" font-family="sans-serif" font-size="14" font-weight="bold" lengthAdjust="spacing" textLength="84.8613" x="71" y="710.9951">commands</text></g><!--class GroupId--><g id="elem_GroupId"><rect codeLine="17" fill="#F1F1F1" height="72.5625" id="GroupId" rx="2.5" ry="2.5" style="stroke:#181818;stroke-width:0.5;" width="116.3828" x="430" y="426"/><ellipse cx="445" cy="446.1328" fill="#B4A7E5" rx="11" ry="11" style="stroke:#181818;stroke-width:1;"/><path d="M440.9219,441.8984 L440.9219,439.7422 L448.3125,439.7422 L448.3125,441.8984 L445.8438,441.8984 L445.8438,449.9766 L448.3125,449.9766 L448.3125,452.1328 L440.9219,452.1328 L440.9219,449.9766 L443.3906,449.9766 L443.3906,441.8984 L440.9219,441.8984 Z " fill="#000000"/><text fill="#000000" font-family="sans-serif" font-size="12" font-style="italic" lengthAdjust="spacing" textLength="88.3828" x="457" y="442.1387">&#171;value object&#187;</text><text fill="#000000" font-family="sans-serif" font-size="14" font-style="italic" lengthAdjust="spacing" textLength="55.9453" x="473.2188" y="457.9639">GroupId</text><line style="stroke:#181818;stroke-width:0.5;" x1="431" x2="545.3828" y1="466.2656" y2="466.2656"/><ellipse cx="441" cy="479.9141" fill="#FFFFFF" fill-opacity="0.00000" rx="3" ry="3" style="stroke:#038048;stroke-width:1;"/><text fill="#000000" font-family="sans-serif" font-size="14" lengthAdjust="spacing" textLength="89.1885" x="450" y="483.2607">value: String</text><line style="stroke:#181818;stroke-width:0.5;" x1="431" x2="545.3828" y1="490.5625" y2="490.5625"/></g><!--class UserId--><g id="elem_UserId"><rect codeLine="21" fill="#F1F1F1" height="72.5625" id="UserId" rx="2.5" ry="2.5" style="stroke:#181818;stroke-width:0.5;" width="116.3828" x="267" y="583"/><ellipse cx="282" cy="603.1328" fill="#B4A7E5" rx="11" ry="11" style="stroke:#181818;stroke-width:1;"/><path d="M277.9219,598.8984 L277.9219,596.7422 L285.3125,596.7422 L285.3125,598.8984 L282.8438,598.8984 L282.8438,606.9766 L285.3125,606.9766 L285.3125,609.1328 L277.9219,609.1328 L277.9219,606.9766 L280.3906,606.9766 L280.3906,598.8984 L277.9219,598.8984 Z " fill="#000000"/><text fill="#000000" font-family="sans-serif" font-size="12" font-style="italic" lengthAdjust="spacing" textLength="88.3828" x="294" y="599.1387">&#171;value object&#187;</text><text fill="#000000" font-family="sans-serif" font-size="14" font-style="italic" lengthAdjust="spacing" textLength="44.9258" x="315.7285" y="614.9639">UserId</text><line style="stroke:#181818;stroke-width:0.5;" x1="268" x2="382.3828" y1="623.2656" y2="623.2656"/><ellipse cx="278" cy="636.9141" fill="#FFFFFF" fill-opacity="0.00000" rx="3" ry="3" style="stroke:#038048;stroke-width:1;"/><text fill="#000000" font-family="sans-serif" font-size="14" lengthAdjust="spacing" textLength="89.1885" x="287" y="640.2607">value: String</text><line style="stroke:#181818;stroke-width:0.5;" x1="268" x2="382.3828" y1="647.5625" y2="647.5625"/></g><!--class User--><g id="elem_User"><rect codeLine="25" fill="#F1F1F1" height="121.4531" id="User" rx="2.5" ry="2.5" style="stroke:#181818;stroke-width:0.5;" width="138.5742" x="255.5" y="402"/><ellipse cx="297.9175" cy="422.1328" fill="#B4A7E5" rx="11" ry="11" style="stroke:#181818;stroke-width:1;"/><path d="M293.8394,417.8984 L293.8394,415.7422 L301.23,415.7422 L301.23,417.8984 L298.7612,417.8984 L298.7612,425.9766 L301.23,425.9766 L301.23,428.1328 L293.8394,428.1328 L293.8394,425.9766 L296.3081,425.9766 L296.3081,417.8984 L293.8394,417.8984 Z " fill="#000000"/><text fill="#000000" font-family="sans-serif" font-size="12" font-style="italic" lengthAdjust="spacing" textLength="49.6465" x="316.0103" y="418.1387">&#171;entity&#187;</text><text fill="#000000" font-family="sans-serif" font-size="14" font-style="italic" lengthAdjust="spacing" textLength="31.9102" x="324.8784" y="433.9639">User</text><line style="stroke:#181818;stroke-width:0.5;" x1="256.5" x2="393.0742" y1="442.2656" y2="442.2656"/><ellipse cx="266.5" cy="455.9141" fill="#FFFFFF" fill-opacity="0.00000" rx="3" ry="3" style="stroke:#038048;stroke-width:1;"/><text fill="#000000" font-family="sans-serif" font-size="14" lengthAdjust="spacing" textLength="63.7246" x="275.5" y="459.2607">id: String</text><ellipse cx="266.5" cy="472.2109" fill="#FFFFFF" fill-opacity="0.00000" rx="3" ry="3" style="stroke:#038048;stroke-width:1;"/><text fill="#000000" font-family="sans-serif" font-size="14" lengthAdjust="spacing" textLength="90.6514" x="275.5" y="475.5576">name: String</text><ellipse cx="266.5" cy="488.5078" fill="#FFFFFF" fill-opacity="0.00000" rx="3" ry="3" style="stroke:#038048;stroke-width:1;"/><text fill="#000000" font-family="sans-serif" font-size="14" lengthAdjust="spacing" textLength="112.5742" x="275.5" y="491.8545">surname: String</text><ellipse cx="266.5" cy="504.8047" fill="#FFFFFF" fill-opacity="0.00000" rx="3" ry="3" style="stroke:#038048;stroke-width:1;"/><text fill="#000000" font-family="sans-serif" font-size="14" lengthAdjust="spacing" textLength="89.5576" x="275.5" y="508.1514">email: String</text><line style="stroke:#181818;stroke-width:0.5;" x1="256.5" x2="393.0742" y1="515.4531" y2="515.4531"/></g><!--class NotificationMessage--><g id="elem_NotificationMessage"><rect codeLine="32" fill="#F1F1F1" height="88.8594" id="NotificationMessage" rx="2.5" ry="2.5" style="stroke:#181818;stroke-width:0.5;" width="173.6885" x="46" y="418"/><ellipse cx="61" cy="438.1328" fill="#B4A7E5" rx="11" ry="11" style="stroke:#181818;stroke-width:1;"/><path d="M56.9219,433.8984 L56.9219,431.7422 L64.3125,431.7422 L64.3125,433.8984 L61.8438,433.8984 L61.8438,441.9766 L64.3125,441.9766 L64.3125,444.1328 L56.9219,444.1328 L56.9219,441.9766 L59.3906,441.9766 L59.3906,433.8984 L56.9219,433.8984 Z " fill="#000000"/><text fill="#000000" font-family="sans-serif" font-size="12" font-style="italic" lengthAdjust="spacing" textLength="49.6465" x="121.021" y="434.1387">&#171;entity&#187;</text><text fill="#000000" font-family="sans-serif" font-size="14" font-style="italic" lengthAdjust="spacing" textLength="141.6885" x="75" y="449.9639">NotificationMessage</text><line style="stroke:#181818;stroke-width:0.5;" x1="47" x2="218.6885" y1="458.2656" y2="458.2656"/><ellipse cx="57" cy="471.9141" fill="#FFFFFF" fill-opacity="0.00000" rx="3" ry="3" style="stroke:#038048;stroke-width:1;"/><text fill="#000000" font-family="sans-serif" font-size="14" lengthAdjust="spacing" textLength="78.3193" x="66" y="475.2607">title: String</text><ellipse cx="57" cy="488.2109" fill="#FFFFFF" fill-opacity="0.00000" rx="3" ry="3" style="stroke:#038048;stroke-width:1;"/><text fill="#000000" font-family="sans-serif" font-size="14" lengthAdjust="spacing" textLength="85.5723" x="66" y="491.5576">body: String</text><line style="stroke:#181818;stroke-width:0.5;" x1="47" x2="218.6885" y1="498.8594" y2="498.8594"/></g><!--class Event--><g id="elem_Event"><rect codeLine="41" fill="#F1F1F1" height="48" id="Event" rx="2.5" ry="2.5" style="stroke:#181818;stroke-width:0.5;" width="72.1064" x="408" y="84"/><ellipse cx="423" cy="100" fill="#B4A7E5" rx="11" ry="11" style="stroke:#181818;stroke-width:1;"/><path d="M418.9219,95.7656 L418.9219,93.6094 L426.3125,93.6094 L426.3125,95.7656 L423.8438,95.7656 L423.8438,103.8438 L426.3125,103.8438 L426.3125,106 L418.9219,106 L418.9219,103.8438 L421.3906,103.8438 L421.3906,95.7656 L418.9219,95.7656 Z " fill="#000000"/><text fill="#000000" font-family="sans-serif" font-size="14" font-style="italic" lengthAdjust="spacing" textLength="40.1064" x="437" y="104.8467">Event</text><line style="stroke:#181818;stroke-width:0.5;" x1="409" x2="479.1064" y1="116" y2="116"/><line style="stroke:#181818;stroke-width:0.5;" x1="409" x2="479.1064" y1="124" y2="124"/></g><!--class AddedMemberToGroup--><g id="elem_AddedMemberToGroup"><rect codeLine="43" fill="#F1F1F1" height="88.8594" id="AddedMemberToGroup" rx="2.5" ry="2.5" style="stroke:#181818;stroke-width:0.5;" width="194.4834" x="227" y="192"/><ellipse cx="242" cy="212.1328" fill="#B4A7E5" rx="11" ry="11" style="stroke:#181818;stroke-width:1;"/><path d="M237.9219,207.8984 L237.9219,205.7422 L245.3125,205.7422 L245.3125,207.8984 L242.8438,207.8984 L242.8438,215.9766 L245.3125,215.9766 L245.3125,218.1328 L237.9219,218.1328 L237.9219,215.9766 L240.3906,215.9766 L240.3906,207.8984 L237.9219,207.8984 Z " fill="#000000"/><text fill="#000000" font-family="sans-serif" font-size="12" font-style="italic" lengthAdjust="spacing" textLength="97.7461" x="288.3687" y="208.1387">&#171;domain event&#187;</text><text fill="#000000" font-family="sans-serif" font-size="14" font-style="italic" lengthAdjust="spacing" textLength="162.4834" x="256" y="223.9639">AddedMemberToGroup</text><line style="stroke:#181818;stroke-width:0.5;" x1="228" x2="420.4834" y1="232.2656" y2="232.2656"/><ellipse cx="238" cy="245.9141" fill="#FFFFFF" fill-opacity="0.00000" rx="3" ry="3" style="stroke:#038048;stroke-width:1;"/><text fill="#000000" font-family="sans-serif" font-size="14" lengthAdjust="spacing" textLength="119.0957" x="247" y="249.2607">groupId: GroupId</text><ellipse cx="238" cy="262.2109" fill="#FFFFFF" fill-opacity="0.00000" rx="3" ry="3" style="stroke:#038048;stroke-width:1;"/><text fill="#000000" font-family="sans-serif" font-size="14" lengthAdjust="spacing" textLength="142.5156" x="247" y="265.5576">addedMember: User</text><line style="stroke:#181818;stroke-width:0.5;" x1="228" x2="420.4834" y1="272.8594" y2="272.8594"/></g><!--class GroupCreated--><g id="elem_GroupCreated"><rect codeLine="47" fill="#F1F1F1" height="88.8594" id="GroupCreated" rx="2.5" ry="2.5" style="stroke:#181818;stroke-width:0.5;" width="145.0957" x="46.5" y="192"/><ellipse cx="68.0039" cy="212.1328" fill="#B4A7E5" rx="11" ry="11" style="stroke:#181818;stroke-width:1;"/><path d="M63.9258,207.8984 L63.9258,205.7422 L71.3164,205.7422 L71.3164,207.8984 L68.8477,207.8984 L68.8477,215.9766 L71.3164,215.9766 L71.3164,218.1328 L63.9258,218.1328 L63.9258,215.9766 L66.3945,215.9766 L66.3945,207.8984 L63.9258,207.8984 Z " fill="#000000"/><text fill="#000000" font-family="sans-serif" font-size="12" font-style="italic" lengthAdjust="spacing" textLength="97.7461" x="83.8975" y="208.1387">&#171;domain event&#187;</text><text fill="#000000" font-family="sans-serif" font-size="14" font-style="italic" lengthAdjust="spacing" textLength="98.6426" x="83.4492" y="223.9639">GroupCreated</text><line style="stroke:#181818;stroke-width:0.5;" x1="47.5" x2="190.5957" y1="232.2656" y2="232.2656"/><ellipse cx="57.5" cy="245.9141" fill="#FFFFFF" fill-opacity="0.00000" rx="3" ry="3" style="stroke:#038048;stroke-width:1;"/><text fill="#000000" font-family="sans-serif" font-size="14" lengthAdjust="spacing" textLength="119.0957" x="66.5" y="249.2607">groupId: GroupId</text><ellipse cx="57.5" cy="262.2109" fill="#FFFFFF" fill-opacity="0.00000" rx="3" ry="3" style="stroke:#038048;stroke-width:1;"/><text fill="#000000" font-family="sans-serif" font-size="14" lengthAdjust="spacing" textLength="112.6016" x="66.5" y="265.5576">createdBy: User</text><line style="stroke:#181818;stroke-width:0.5;" x1="47.5" x2="190.5957" y1="272.8594" y2="272.8594"/></g><!--class GroupDeleted--><g id="elem_GroupDeleted"><rect codeLine="51" fill="#F1F1F1" height="72.5625" id="GroupDeleted" rx="2.5" ry="2.5" style="stroke:#181818;stroke-width:0.5;" width="145.0957" x="707.5" y="200"/><ellipse cx="729.3761" cy="220.1328" fill="#B4A7E5" rx="11" ry="11" style="stroke:#181818;stroke-width:1;"/><path d="M725.298,215.8984 L725.298,213.7422 L732.6886,213.7422 L732.6886,215.8984 L730.2199,215.8984 L730.2199,223.9766 L732.6886,223.9766 L732.6886,226.1328 L725.298,226.1328 L725.298,223.9766 L727.7667,223.9766 L727.7667,215.8984 L725.298,215.8984 Z " fill="#000000"/><text fill="#000000" font-family="sans-serif" font-size="12" font-style="italic" lengthAdjust="spacing" textLength="97.7461" x="744.9388" y="216.1387">&#171;domain event&#187;</text><text fill="#000000" font-family="sans-serif" font-size="14" font-style="italic" lengthAdjust="spacing" textLength="97.8154" x="744.9042" y="231.9639">GroupDeleted</text><line style="stroke:#181818;stroke-width:0.5;" x1="708.5" x2="851.5957" y1="240.2656" y2="240.2656"/><ellipse cx="718.5" cy="253.9141" fill="#FFFFFF" fill-opacity="0.00000" rx="3" ry="3" style="stroke:#038048;stroke-width:1;"/><text fill="#000000" font-family="sans-serif" font-size="14" lengthAdjust="spacing" textLength="119.0957" x="727.5" y="257.2607">groupId: GroupId</text><line style="stroke:#181818;stroke-width:0.5;" x1="708.5" x2="851.5957" y1="264.5625" y2="264.5625"/></g><!--class RemovedMemberToGroup--><g id="elem_RemovedMemberToGroup"><rect codeLine="54" fill="#F1F1F1" height="88.8594" id="RemovedMemberToGroup" rx="2.5" ry="2.5" style="stroke:#181818;stroke-width:0.5;" width="215.9619" x="456" y="192"/><ellipse cx="471" cy="212.1328" fill="#B4A7E5" rx="11" ry="11" style="stroke:#181818;stroke-width:1;"/><path d="M466.9219,207.8984 L466.9219,205.7422 L474.3125,205.7422 L474.3125,207.8984 L471.8438,207.8984 L471.8438,215.9766 L474.3125,215.9766 L474.3125,218.1328 L466.9219,218.1328 L466.9219,215.9766 L469.3906,215.9766 L469.3906,207.8984 L466.9219,207.8984 Z " fill="#000000"/><text fill="#000000" font-family="sans-serif" font-size="12" font-style="italic" lengthAdjust="spacing" textLength="97.7461" x="528.1079" y="208.1387">&#171;domain event&#187;</text><text fill="#000000" font-family="sans-serif" font-size="14" font-style="italic" lengthAdjust="spacing" textLength="183.9619" x="485" y="223.9639">RemovedMemberToGroup</text><line style="stroke:#181818;stroke-width:0.5;" x1="457" x2="670.9619" y1="232.2656" y2="232.2656"/><ellipse cx="467" cy="245.9141" fill="#FFFFFF" fill-opacity="0.00000" rx="3" ry="3" style="stroke:#038048;stroke-width:1;"/><text fill="#000000" font-family="sans-serif" font-size="14" lengthAdjust="spacing" textLength="119.0957" x="476" y="249.2607">groupId: GroupId</text><ellipse cx="467" cy="262.2109" fill="#FFFFFF" fill-opacity="0.00000" rx="3" ry="3" style="stroke:#038048;stroke-width:1;"/><text fill="#000000" font-family="sans-serif" font-size="14" lengthAdjust="spacing" textLength="161.0205" x="476" y="265.5576">removedMember: User</text><line style="stroke:#181818;stroke-width:0.5;" x1="457" x2="670.9619" y1="272.8594" y2="272.8594"/></g><!--class Command--><g id="elem_Command"><rect codeLine="68" fill="#F1F1F1" height="64.2969" id="Command" rx="2.5" ry="2.5" style="stroke:#181818;stroke-width:0.5;" width="172.7334" x="114.5" y="731"/><ellipse cx="160.6392" cy="747" fill="#B4A7E5" rx="11" ry="11" style="stroke:#181818;stroke-width:1;"/><path d="M156.561,742.7656 L156.561,740.6094 L163.9517,740.6094 L163.9517,742.7656 L161.4829,742.7656 L161.4829,750.8438 L163.9517,750.8438 L163.9517,753 L156.561,753 L156.561,750.8438 L159.0298,750.8438 L159.0298,742.7656 L156.561,742.7656 Z " fill="#000000"/><text fill="#000000" font-family="sans-serif" font-size="14" font-style="italic" lengthAdjust="spacing" textLength="71.9551" x="181.1392" y="751.8467">Command</text><line style="stroke:#181818;stroke-width:0.5;" x1="115.5" x2="286.2334" y1="763" y2="763"/><ellipse cx="125.5" cy="776.6484" fill="#FFFFFF" fill-opacity="0.00000" rx="3" ry="3" style="stroke:#038048;stroke-width:1;"/><text fill="#000000" font-family="sans-serif" font-size="14" lengthAdjust="spacing" textLength="146.7334" x="134.5" y="779.9951">type: CommandType</text><line style="stroke:#181818;stroke-width:0.5;" x1="115.5" x2="286.2334" y1="787.2969" y2="787.2969"/></g><!--class PushNotificationCommand--><g id="elem_PushNotificationCommand"><rect codeLine="72" fill="#F1F1F1" height="80.5938" id="PushNotificationCommand" rx="2.5" ry="2.5" style="stroke:#181818;stroke-width:0.5;" width="239.7734" x="85" y="855"/><ellipse cx="109.9031" cy="871" fill="#B4A7E5" rx="11" ry="11" style="stroke:#181818;stroke-width:1;"/><path d="M105.825,866.7656 L105.825,864.6094 L113.2156,864.6094 L113.2156,866.7656 L110.7468,866.7656 L110.7468,874.8438 L113.2156,874.8438 L113.2156,877 L105.825,877 L105.825,874.8438 L108.2937,874.8438 L108.2937,866.7656 L105.825,866.7656 Z " fill="#000000"/><text fill="#000000" font-family="sans-serif" font-size="14" font-style="italic" lengthAdjust="spacing" textLength="185.7666" x="126.1038" y="875.8467">PushNotificationCommand</text><line style="stroke:#181818;stroke-width:0.5;" x1="86" x2="323.7734" y1="887" y2="887"/><ellipse cx="96" cy="900.6484" fill="#FFFFFF" fill-opacity="0.00000" rx="3" ry="3" style="stroke:#038048;stroke-width:1;"/><text fill="#000000" font-family="sans-serif" font-size="14" lengthAdjust="spacing" textLength="102.1289" x="105" y="903.9951">sender: UserId</text><ellipse cx="96" cy="916.9453" fill="#FFFFFF" fill-opacity="0.00000" rx="3" ry="3" style="stroke:#038048;stroke-width:1;"/><text fill="#000000" font-family="sans-serif" font-size="14" lengthAdjust="spacing" textLength="213.7734" x="105" y="920.292">message: NotificationMessage</text><line style="stroke:#181818;stroke-width:0.5;" x1="86" x2="323.7734" y1="927.5938" y2="927.5938"/></g><!--class GroupWisePushNotification--><g id="elem_GroupWisePushNotification"><rect codeLine="77" fill="#F1F1F1" height="64.2969" id="GroupWisePushNotification" rx="2.5" ry="2.5" style="stroke:#181818;stroke-width:0.5;" width="222.3809" x="377" y="996"/><ellipse cx="392" cy="1012" fill="#B4A7E5" rx="11" ry="11" style="stroke:#181818;stroke-width:1;"/><path d="M387.9219,1007.7656 L387.9219,1005.6094 L395.3125,1005.6094 L395.3125,1007.7656 L392.8438,1007.7656 L392.8438,1015.8438 L395.3125,1015.8438 L395.3125,1018 L387.9219,1018 L387.9219,1015.8438 L390.3906,1015.8438 L390.3906,1007.7656 L387.9219,1007.7656 Z " fill="#000000"/><text fill="#000000" font-family="sans-serif" font-size="14" font-style="italic" lengthAdjust="spacing" textLength="190.3809" x="406" y="1016.8467">GroupWisePushNotification</text><line style="stroke:#181818;stroke-width:0.5;" x1="378" x2="598.3809" y1="1028" y2="1028"/><ellipse cx="388" cy="1041.6484" fill="#FFFFFF" fill-opacity="0.00000" rx="3" ry="3" style="stroke:#038048;stroke-width:1;"/><text fill="#000000" font-family="sans-serif" font-size="14" lengthAdjust="spacing" textLength="126.8203" x="397" y="1044.9951">recipient: GroupId</text><line style="stroke:#181818;stroke-width:0.5;" x1="378" x2="598.3809" y1="1052.2969" y2="1052.2969"/></g><g id="elem_GMN31"><path d="M340.5,1127.5 L340.5,1152.6328 A0,0 0 0 0 340.5,1152.6328 L637.4453,1152.6328 A0,0 0 0 0 637.4453,1152.6328 L637.4453,1137.5 L627.4453,1127.5 L492.89,1127.5 L488.28,1060.23 L484.89,1127.5 L340.5,1127.5 A0,0 0 0 0 340.5,1127.5 " fill="#FEFFDD" style="stroke:#181818;stroke-width:0.5;"/><path d="M627.4453,1127.5 L627.4453,1137.5 L637.4453,1137.5 L627.4453,1127.5 " fill="#FEFFDD" style="stroke:#181818;stroke-width:0.5;"/><text fill="#000000" font-family="sans-serif" font-size="13" lengthAdjust="spacing" textLength="159.1992" x="346.5" y="1144.5669">sent to all members of a</text><text fill="#000000" font-family="monospace" font-size="13" lengthAdjust="spacing" textLength="70.4399" x="509.8315" y="1144.5669">recipient</text><text fill="#000000" font-family="sans-serif" font-size="13" lengthAdjust="spacing" textLength="38.0415" x="584.4038" y="1144.5669">group</text></g><!--class CoMembersPushNotification--><g id="elem_CoMembersPushNotification"><rect codeLine="84" fill="#F1F1F1" height="64.2969" id="CoMembersPushNotification" rx="2.5" ry="2.5" style="stroke:#181818;stroke-width:0.5;" width="229.0322" x="90.5" y="996"/><ellipse cx="105.5" cy="1012" fill="#B4A7E5" rx="11" ry="11" style="stroke:#181818;stroke-width:1;"/><path d="M101.4219,1007.7656 L101.4219,1005.6094 L108.8125,1005.6094 L108.8125,1007.7656 L106.3438,1007.7656 L106.3438,1015.8438 L108.8125,1015.8438 L108.8125,1018 L101.4219,1018 L101.4219,1015.8438 L103.8906,1015.8438 L103.8906,1007.7656 L101.4219,1007.7656 Z " fill="#000000"/><text fill="#000000" font-family="sans-serif" font-size="14" font-style="italic" lengthAdjust="spacing" textLength="197.0322" x="119.5" y="1016.8467">CoMembersPushNotification</text><line style="stroke:#181818;stroke-width:0.5;" x1="91.5" x2="318.5322" y1="1028" y2="1028"/><ellipse cx="101.5" cy="1041.6484" fill="#FFFFFF" fill-opacity="0.00000" rx="3" ry="3" style="stroke:#038048;stroke-width:1;"/><text fill="#000000" font-family="sans-serif" font-size="14" lengthAdjust="spacing" textLength="153.4668" x="110.5" y="1044.9951">referenceUser: UserId</text><line style="stroke:#181818;stroke-width:0.5;" x1="91.5" x2="318.5322" y1="1052.2969" y2="1052.2969"/></g><g id="elem_GMN36"><path d="M83,1120 L83,1160.2656 A0,0 0 0 0 83,1160.2656 L305.1001,1160.2656 A0,0 0 0 0 305.1001,1160.2656 L305.1001,1130 L295.1001,1120 L199.92,1120 L201.88,1060.23 L191.92,1120 L83,1120 A0,0 0 0 0 83,1120 " fill="#FEFFDD" style="stroke:#181818;stroke-width:0.5;"/><path d="M295.1001,1120 L295.1001,1130 L305.1001,1130 L295.1001,1120 " fill="#FEFFDD" style="stroke:#181818;stroke-width:0.5;"/><text fill="#000000" font-family="sans-serif" font-size="13" lengthAdjust="spacing" textLength="168.5303" x="89" y="1137.0669">sent to all users sharing a</text><text fill="#000000" font-family="sans-serif" font-size="13" lengthAdjust="spacing" textLength="95.2212" x="89" y="1152.1997">group with the</text><text fill="#000000" font-family="monospace" font-size="13" lengthAdjust="spacing" textLength="101.7466" x="188.3535" y="1152.1997">referenceUser</text></g><!--link User to UserId--><g id="link_User_UserId"><path codeLine="37" d="M325,535.43 C325,555.53 325,559.3 325,576.93 " fill="#FFFFFF" fill-opacity="0.00000" id="User-UserId" style="stroke:#181818;stroke-width:1;"/><polygon fill="#181818" points="325,523.43,321,529.43,325,535.43,329,529.43,325,523.43" style="stroke:#181818;stroke-width:1;"/><polygon fill="#181818" points="325,582.93,329,573.93,325,577.93,321,573.93,325,582.93" style="stroke:#181818;stroke-width:1;"/><text fill="#000000" font-family="sans-serif" font-size="13" lengthAdjust="spacing" textLength="8.271" x="316.2522" y="571.9241">1</text></g><!--reverse link Event to AddedMemberToGroup--><g id="link_Event_AddedMemberToGroup"><path d="M409.603,145.2599 C393.773,161.9499 384.33,171.9 365.29,191.97 " fill="#FFFFFF" fill-opacity="0.00000" id="Event-backto-AddedMemberToGroup" style="stroke:#181818;stroke-width:1;"/><polygon fill="#FFFFFF" fill-opacity="0.00000" points="421.99,132.2,405.2497,141.131,413.9563,149.3889,421.99,132.2" style="stroke:#181818;stroke-width:1;"/></g><!--reverse link Event to GroupCreated--><g id="link_Event_GroupCreated"><path d="M390.7606,126.0612 C344.4006,141.1212 278.88,163.42 210,192 C204.02,194.48 197.86,197.16 191.71,199.92 " fill="#FFFFFF" fill-opacity="0.00000" id="Event-backto-GroupCreated" style="stroke:#181818;stroke-width:1;"/><polygon fill="#FFFFFF" fill-opacity="0.00000" points="407.88,120.5,388.9069,120.3548,392.6144,131.7677,407.88,120.5" style="stroke:#181818;stroke-width:1;"/></g><!--reverse link Event to GroupDeleted--><g id="link_Event_GroupDeleted"><path d="M497.6021,124.9113 C546.0721,139.5413 616.98,162.17 690,192 C695.94,194.43 702.05,197.06 708.15,199.79 " fill="#FFFFFF" fill-opacity="0.00000" id="Event-backto-GroupDeleted" style="stroke:#181818;stroke-width:1;"/><polygon fill="#FFFFFF" fill-opacity="0.00000" points="480.37,119.71,495.8684,130.6553,499.3359,119.1672,480.37,119.71" style="stroke:#181818;stroke-width:1;"/></g><!--reverse link Event to RemovedMemberToGroup--><g id="link_Event_RemovedMemberToGroup"><path d="M478.397,145.2599 C494.227,161.9499 503.67,171.9 522.71,191.97 " fill="#FFFFFF" fill-opacity="0.00000" id="Event-backto-RemovedMemberToGroup" style="stroke:#181818;stroke-width:1;"/><polygon fill="#FFFFFF" fill-opacity="0.00000" points="466.01,132.2,474.0437,149.3889,482.7503,141.131,466.01,132.2" style="stroke:#181818;stroke-width:1;"/></g><!--link RemovedMemberToGroup to GroupId--><g id="link_RemovedMemberToGroup_GroupId"><path codeLine="59" d="M545.3124,292.5831 C530.9624,334.8531 515.2869,381.0578 501.9769,420.3078 " fill="#FFFFFF" fill-opacity="0.00000" id="RemovedMemberToGroup-GroupId" style="stroke:#181818;stroke-width:1;"/><polygon fill="#181818" points="549.17,281.22,543.4535,285.6157,545.3124,292.5831,551.0289,288.1874,549.17,281.22" style="stroke:#181818;stroke-width:1;"/><polygon fill="#181818" points="500.05,425.99,506.7284,418.7513,501.6557,421.2549,499.1522,416.1821,500.05,425.99" style="stroke:#181818;stroke-width:1;"/></g><!--link GroupDeleted to GroupId--><g id="link_GroupDeleted_GroupId"><path codeLine="60" d="M723.8882,280.5431 C669.2982,322.4131 593.7004,380.4178 539.1904,422.2378 " fill="#FFFFFF" fill-opacity="0.00000" id="GroupDeleted-GroupId" style="stroke:#181818;stroke-width:1;"/><polygon fill="#181818" points="733.41,273.24,726.2147,273.7176,723.8882,280.5431,731.0835,280.0655,733.41,273.24" style="stroke:#181818;stroke-width:1;"/><polygon fill="#181818" points="534.43,425.89,544.0054,423.5853,538.397,422.8465,539.1358,417.2381,534.43,425.89" style="stroke:#181818;stroke-width:1;"/></g><!--link GroupCreated to GroupId--><g id="link_GroupCreated_GroupId"><path codeLine="61" d="M180.4723,288.0562 C192.7923,296.9162 196.54,298.5 210,305 C293.69,345.4 335.14,306.76 412,359 C436.73,375.81 453.4709,398.2325 466.6409,420.5525 " fill="#FFFFFF" fill-opacity="0.00000" id="GroupCreated-GroupId" style="stroke:#181818;stroke-width:1;"/><polygon fill="#181818" points="170.73,281.05,173.2657,287.8006,180.4723,288.0562,177.9366,281.3057,170.73,281.05" style="stroke:#181818;stroke-width:1;"/><polygon fill="#181818" points="469.69,425.72,468.5613,415.936,467.1491,421.4138,461.6714,420.0015,469.69,425.72" style="stroke:#181818;stroke-width:1;"/></g><!--link GroupCreated to User--><g id="link_GroupCreated_User"><path codeLine="62" d="M161.923,290.2566 C178.733,309.8966 191.95,323.62 213,342 C223.12,350.84 228.01,350.02 238,359 C252.32,371.87 262.5537,382.5272 275.1237,397.2472 " fill="#FFFFFF" fill-opacity="0.00000" id="GroupCreated-User" style="stroke:#181818;stroke-width:1;"/><polygon fill="#181818" points="154.12,281.14,154.9826,288.2993,161.923,290.2566,161.0604,283.0973,154.12,281.14" style="stroke:#181818;stroke-width:1;"/><polygon fill="#181818" points="279.02,401.81,276.2174,392.3683,275.7731,398.0077,270.1337,397.5634,279.02,401.81" style="stroke:#181818;stroke-width:1;"/></g><!--link AddedMemberToGroup to GroupId--><g id="link_AddedMemberToGroup_GroupId"><path codeLine="63" d="M363.0992,290.9021 C394.0492,333.1721 429.7253,381.899 458.4653,421.149 " fill="#FFFFFF" fill-opacity="0.00000" id="AddedMemberToGroup-GroupId" style="stroke:#181818;stroke-width:1;"/><polygon fill="#181818" points="356.01,281.22,356.3272,288.4241,363.0992,290.9021,362.782,283.698,356.01,281.22" style="stroke:#181818;stroke-width:1;"/><polygon fill="#181818" points="462.01,425.99,459.9203,416.3654,459.0561,421.9559,453.4656,421.0917,462.01,425.99" style="stroke:#181818;stroke-width:1;"/></g><!--link AddedMemberToGroup to User--><g id="link_AddedMemberToGroup_User"><path codeLine="64" d="M324.2524,293.2199 C324.4024,327.5999 324.5331,357.8501 324.7031,395.7901 " fill="#FFFFFF" fill-opacity="0.00000" id="AddedMemberToGroup-User" style="stroke:#181818;stroke-width:1;"/><polygon fill="#181818" points="324.2,281.22,320.2262,287.2374,324.2524,293.2199,328.2261,287.2025,324.2,281.22" style="stroke:#181818;stroke-width:1;"/><polygon fill="#181818" points="324.73,401.79,328.6896,392.7722,324.7076,396.7901,320.6897,392.808,324.73,401.79" style="stroke:#181818;stroke-width:1;"/></g><!--reverse link Command to PushNotificationCommand--><g id="link_Command_PushNotificationCommand"><path d="M202.5061,813.2517 C203.0461,831.0417 203.19,835.53 203.78,854.59 " fill="#FFFFFF" fill-opacity="0.00000" id="Command-backto-PushNotificationCommand" style="stroke:#181818;stroke-width:1;"/><polygon fill="#FFFFFF" fill-opacity="0.00000" points="201.96,795.26,196.5089,813.4338,208.5034,813.0697,201.96,795.26" style="stroke:#181818;stroke-width:1;"/></g><!--reverse link PushNotificationCommand to GroupWisePushNotification--><g id="link_PushNotificationCommand_GroupWisePushNotification"><path d="M307.026,943.5471 C348.666,962.7471 381.66,977.96 420.57,995.91 " fill="#FFFFFF" fill-opacity="0.00000" id="PushNotificationCommand-backto-GroupWisePushNotification" style="stroke:#181818;stroke-width:1;"/><polygon fill="#FFFFFF" fill-opacity="0.00000" points="290.68,936.01,304.5137,948.9957,309.5384,938.0984,290.68,936.01" style="stroke:#181818;stroke-width:1;"/></g><!--reverse link PushNotificationCommand to CoMembersPushNotification--><g id="link_PushNotificationCommand_CoMembersPushNotification"><path d="M205,954.01 C205,973.21 205,977.96 205,995.91 " fill="#FFFFFF" fill-opacity="0.00000" id="PushNotificationCommand-backto-CoMembersPushNotification" style="stroke:#181818;stroke-width:1;"/><polygon fill="#FFFFFF" fill-opacity="0.00000" points="205,936.01,199,954.01,211,954.01,205,936.01" style="stroke:#181818;stroke-width:1;"/></g><!--link UserId to PushNotificationCommand--><g id="link_UserId_PushNotificationCommand"><path codeLine="92" d="M327.8062,662.1568 C329.0062,698.8268 326.47,750.68 305,795 C293.95,817.81 284.3539,830.3511 266.2839,846.8411 " fill="#FFFFFF" fill-opacity="0.00000" id="UserId-PushNotificationCommand" style="stroke:#181818;stroke-width:1;"/><polygon fill="#181818" points="327.61,656.16,323.9065,665.286,327.7735,661.1573,331.9022,665.0244,327.61,656.16" style="stroke:#181818;stroke-width:1;"/><polygon fill="#181818" points="257.42,854.93,264.5483,853.8402,266.2839,846.8411,259.1557,847.9309,257.42,854.93" style="stroke:#181818;stroke-width:1;"/></g><!--link GroupId to GroupWisePushNotification--><g id="link_GroupId_GroupWisePushNotification"><path codeLine="93" d="M488,505.18 C488,608.12 488,886.5 488,983.71 " fill="#FFFFFF" fill-opacity="0.00000" id="GroupId-GroupWisePushNotification" style="stroke:#181818;stroke-width:1;"/><polygon fill="#181818" points="488,499.18,484,508.18,488,504.18,492,508.18,488,499.18" style="stroke:#181818;stroke-width:1;"/><polygon fill="#181818" points="488,995.71,492,989.71,488,983.71,484,989.71,488,995.71" style="stroke:#181818;stroke-width:1;"/></g><!--link UserId to CoMembersPushNotification--><g id="link_UserId_CoMembersPushNotification"><path codeLine="94" d="M340.4143,661.9131 C361.1943,723.2831 391.9,845.18 343,936 C329.12,961.77 314.7792,975.4373 290.0492,989.7873 " fill="#FFFFFF" fill-opacity="0.00000" id="UserId-CoMembersPushNotification" style="stroke:#181818;stroke-width:1;"/><polygon fill="#181818" points="338.49,656.23,337.5877,666.0374,340.0936,660.9659,345.1651,663.4717,338.49,656.23" style="stroke:#181818;stroke-width:1;"/><polygon fill="#181818" points="279.67,995.81,286.8671,996.2584,290.0492,989.7873,282.852,989.3389,279.67,995.81" style="stroke:#181818;stroke-width:1;"/></g><!--SRC=[jLKzRy8m4DtpAwoCL0nT4K9gQLLreAfQgiucFi1jOaUsGuiG_xrdvwCXiIC6y0I-yxltxfwTd2RVT0E4oOnoGGvHH73brIu8mmq7ZVkaMbmOK6kQ07bIiiYV6PbETpGjWCZL5oHcDcibstL3N7X2tetYOjF4Zf47yqE3kW8a0ZefUmyKPpsSCY1e1e6GBjH05B2LwNdaNgJXQvvGmwLOWDQswGDSSJiDLLr9jXygwlem6ezd9BwDgqP7hPncvZiixv_uemtvPDmn1cm1sGhKKZfVe8hAKWuFjS2l0S5q2T9JjYdDDAbTrGdJ_m8JnxsbCE3CkG9gW5sOI5AYtk_FfV40ALoIXg_G6sHoTzq1g7Q9dlRcfvS9cWvTryKzwSv0IZt7irDEk7cSwGSA9ZPmdNkIo2oZjf- -cp8lW_qBlC_n_bRH9VuPVXvU2xrjFn4rR3tAK1cDqNfClL5cvJipyJq-mtHSMpwvXYwlXb28yA5dfuJd77quP70X3U2pPepCY5o7gvzWQsjk8mbDKrHgnwdjOKhYk2aQnwNTcuF8tLMBlACiNQ4l87eD2aG2TYozuGHr1ma4THVQgjPRQhy5X9xaEU7aXvijCLjmNMcnYkE1deHqZiP5Nj-KxjNqkgK-q1rzkDMU4iVe6Fq1]--></g></svg>