<svg xmlns="http://www.w3.org/2000/svg" xmlns:xlink="http://www.w3.org/1999/xlink" contentStyleType="text/css" data-diagram-type="CLASS" height="1207px" preserveAspectRatio="none" style="width:900px;height:1207px;background:#1B1B1B;" version="1.1" viewBox="0 0 900 1207" width="900px" zoomAndPan="magnify"><defs/><g><rect fill="#1B1B1B" height="1207" style="stroke:none;stroke-width:1;" width="900" x="0" y="0"/><!--cluster domain--><g class="cluster" data-entity="domain" data-source-line="14" data-uid="ent0002" id="cluster_domain"><path d="M8.5,6 L67.9404,6 A3.75,3.75 0 0 1 70.4404,8.5 L77.4404,28.2969 L890.5,28.2969 A2.5,2.5 0 0 1 893,30.7969 L893,1197.5 A2.5,2.5 0 0 1 890.5,1200 L8.5,1200 A2.5,2.5 0 0 1 6,1197.5 L6,8.5 A2.5,2.5 0 0 1 8.5,6" fill="none" style="stroke:#FFFFFF;stroke-width:1.5;"/><line style="stroke:#FFFFFF;stroke-width:1.5;" x1="6" x2="77.4404" y1="28.2969" y2="28.2969"/><text fill="#FFFFFF" font-family="sans-serif" font-size="14" font-weight="bold" lengthAdjust="spacing" textLength="58.4404" x="10" y="20.9951">domain</text></g><!--cluster entities--><g class="cluster" data-entity="entities" data-source-line="16" data-uid="ent0003" id="cluster_entities"><path d="M129.5,367 L190.7725,367 A3.75,3.75 0 0 1 193.2725,369.5 L200.2725,389.2969 L656.5,389.2969 A2.5,2.5 0 0 1 659,391.7969 L659,669.5 A2.5,2.5 0 0 1 656.5,672 L129.5,672 A2.5,2.5 0 0 1 127,669.5 L127,369.5 A2.5,2.5 0 0 1 129.5,367" fill="none" style="stroke:#FFFFFF;stroke-width:1.5;"/><line style="stroke:#FFFFFF;stroke-width:1.5;" x1="127" x2="200.2725" y1="389.2969" y2="389.2969"/><text fill="#FFFFFF" font-family="sans-serif" font-size="14" font-weight="bold" lengthAdjust="spacing" textLength="60.2725" x="131" y="381.9951">entities</text></g><!--cluster events--><g class="cluster" data-entity="events" data-source-line="39" data-uid="ent0009" id="cluster_events"><path d="M32.5,49 L86.6084,49 A3.75,3.75 0 0 1 89.1084,51.5 L96.1084,71.2969 L866.5,71.2969 A2.5,2.5 0 0 1 869,73.7969 L869,294.5 A2.5,2.5 0 0 1 866.5,297 L32.5,297 A2.5,2.5 0 0 1 30,294.5 L30,51.5 A2.5,2.5 0 0 1 32.5,49" fill="none" style="stroke:#FFFFFF;stroke-width:1.5;"/><line style="stroke:#FFFFFF;stroke-width:1.5;" x1="30" x2="96.1084" y1="71.2969" y2="71.2969"/><text fill="#FFFFFF" font-family="sans-serif" font-size="14" font-weight="bold" lengthAdjust="spacing" textLength="53.1084" x="34" y="63.9951">events</text></g><!--cluster commands--><g class="cluster" data-entity="commands" data-source-line="66" data-uid="ent0025" id="cluster_commands"><path d="M38.5,696 L124.3613,696 A3.75,3.75 0 0 1 126.8613,698.5 L133.8613,718.2969 L620.5,718.2969 A2.5,2.5 0 0 1 623,720.7969 L623,1173.5 A2.5,2.5 0 0 1 620.5,1176 L38.5,1176 A2.5,2.5 0 0 1 36,1173.5 L36,698.5 A2.5,2.5 0 0 1 38.5,696" fill="none" style="stroke:#FFFFFF;stroke-width:1.5;"/><line style="stroke:#FFFFFF;stroke-width:1.5;" x1="36" x2="133.8613" y1="718.2969" y2="718.2969"/><text fill="#FFFFFF" font-family="sans-serif" font-size="14" font-weight="bold" lengthAdjust="spacing" textLength="84.8613" x="40" y="710.9951">commands</text></g><!--class GroupId--><g class="entity" data-entity="GroupId" data-source-line="17" data-uid="ent0004" id="entity_GroupId"><rect fill="#313139" height="72.5625" rx="2.5" ry="2.5" style="stroke:#E7E7E7;stroke-width:0.5;" width="116.3828" x="527" y="426"/><ellipse cx="542" cy="446.1328" fill="#352866" rx="11" ry="11" style="stroke:#E7E7E7;stroke-width:1;"/><path d="M537.9219,441.8984 L537.9219,439.7422 L545.3125,439.7422 L545.3125,441.8984 L542.8438,441.8984 L542.8438,449.9766 L545.3125,449.9766 L545.3125,452.1328 L537.9219,452.1328 L537.9219,449.9766 L540.3906,449.9766 L540.3906,441.8984 L537.9219,441.8984 Z " fill="#FFFFFF"/><text fill="#000000" font-family="sans-serif" font-size="12" font-style="italic" lengthAdjust="spacing" textLength="88.3828" x="554" y="442.1387">&#171;value object&#187;</text><text fill="#FFFFFF" font-family="sans-serif" font-size="14" font-style="italic" lengthAdjust="spacing" textLength="55.9453" x="570.2188" y="457.9639">GroupId</text><line style="stroke:#E7E7E7;stroke-width:0.5;" x1="528" x2="642.3828" y1="466.2656" y2="466.2656"/><ellipse cx="538" cy="479.9141" fill="none" rx="3" ry="3" style="stroke:#038048;stroke-width:1;"/><text fill="#FFFFFF" font-family="sans-serif" font-size="14" lengthAdjust="spacing" textLength="89.1885" x="547" y="483.2607">value: String</text><line style="stroke:#E7E7E7;stroke-width:0.5;" x1="528" x2="642.3828" y1="490.5625" y2="490.5625"/></g><!--class UserId--><g class="entity" data-entity="UserId" data-source-line="21" data-uid="ent0005" id="entity_UserId"><rect fill="#313139" height="72.5625" rx="2.5" ry="2.5" style="stroke:#E7E7E7;stroke-width:0.5;" width="116.3828" x="155" y="583"/><ellipse cx="170" cy="603.1328" fill="#352866" rx="11" ry="11" style="stroke:#E7E7E7;stroke-width:1;"/><path d="M165.9219,598.8984 L165.9219,596.7422 L173.3125,596.7422 L173.3125,598.8984 L170.8438,598.8984 L170.8438,606.9766 L173.3125,606.9766 L173.3125,609.1328 L165.9219,609.1328 L165.9219,606.9766 L168.3906,606.9766 L168.3906,598.8984 L165.9219,598.8984 Z " fill="#FFFFFF"/><text fill="#000000" font-family="sans-serif" font-size="12" font-style="italic" lengthAdjust="spacing" textLength="88.3828" x="182" y="599.1387">&#171;value object&#187;</text><text fill="#FFFFFF" font-family="sans-serif" font-size="14" font-style="italic" lengthAdjust="spacing" textLength="44.9258" x="203.7285" y="614.9639">UserId</text><line style="stroke:#E7E7E7;stroke-width:0.5;" x1="156" x2="270.3828" y1="623.2656" y2="623.2656"/><ellipse cx="166" cy="636.9141" fill="none" rx="3" ry="3" style="stroke:#038048;stroke-width:1;"/><text fill="#FFFFFF" font-family="sans-serif" font-size="14" lengthAdjust="spacing" textLength="89.1885" x="175" y="640.2607">value: String</text><line style="stroke:#E7E7E7;stroke-width:0.5;" x1="156" x2="270.3828" y1="647.5625" y2="647.5625"/></g><!--class User--><g class="entity" data-entity="User" data-source-line="25" data-uid="ent0006" id="entity_User"><rect fill="#313139" height="121.4531" rx="2.5" ry="2.5" style="stroke:#E7E7E7;stroke-width:0.5;" width="138.5742" x="143.5" y="402"/><ellipse cx="185.9175" cy="422.1328" fill="#352866" rx="11" ry="11" style="stroke:#E7E7E7;stroke-width:1;"/><path d="M181.8394,417.8984 L181.8394,415.7422 L189.23,415.7422 L189.23,417.8984 L186.7612,417.8984 L186.7612,425.9766 L189.23,425.9766 L189.23,428.1328 L181.8394,428.1328 L181.8394,425.9766 L184.3081,425.9766 L184.3081,417.8984 L181.8394,417.8984 Z " fill="#FFFFFF"/><text fill="#000000" font-family="sans-serif" font-size="12" font-style="italic" lengthAdjust="spacing" textLength="49.6465" x="204.0103" y="418.1387">&#171;entity&#187;</text><text fill="#FFFFFF" font-family="sans-serif" font-size="14" font-style="italic" lengthAdjust="spacing" textLength="31.9102" x="212.8784" y="433.9639">User</text><line style="stroke:#E7E7E7;stroke-width:0.5;" x1="144.5" x2="281.0742" y1="442.2656" y2="442.2656"/><ellipse cx="154.5" cy="455.9141" fill="none" rx="3" ry="3" style="stroke:#038048;stroke-width:1;"/><text fill="#FFFFFF" font-family="sans-serif" font-size="14" lengthAdjust="spacing" textLength="63.7246" x="163.5" y="459.2607">id: String</text><ellipse cx="154.5" cy="472.2109" fill="none" rx="3" ry="3" style="stroke:#038048;stroke-width:1;"/><text fill="#FFFFFF" font-family="sans-serif" font-size="14" lengthAdjust="spacing" textLength="90.6514" x="163.5" y="475.5576">name: String</text><ellipse cx="154.5" cy="488.5078" fill="none" rx="3" ry="3" style="stroke:#038048;stroke-width:1;"/><text fill="#FFFFFF" font-family="sans-serif" font-size="14" lengthAdjust="spacing" textLength="112.5742" x="163.5" y="491.8545">surname: String</text><ellipse cx="154.5" cy="504.8047" fill="none" rx="3" ry="3" style="stroke:#038048;stroke-width:1;"/><text fill="#FFFFFF" font-family="sans-serif" font-size="14" lengthAdjust="spacing" textLength="89.5576" x="163.5" y="508.1514">email: String</text><line style="stroke:#E7E7E7;stroke-width:0.5;" x1="144.5" x2="281.0742" y1="515.4531" y2="515.4531"/></g><!--class NotificationMessage--><g class="entity" data-entity="NotificationMessage" data-source-line="33" data-uid="ent0008" id="entity_NotificationMessage"><rect fill="#313139" height="88.8594" rx="2.5" ry="2.5" style="stroke:#E7E7E7;stroke-width:0.5;" width="173.6885" x="318" y="418"/><ellipse cx="333" cy="438.1328" fill="#352866" rx="11" ry="11" style="stroke:#E7E7E7;stroke-width:1;"/><path d="M328.9219,433.8984 L328.9219,431.7422 L336.3125,431.7422 L336.3125,433.8984 L333.8438,433.8984 L333.8438,441.9766 L336.3125,441.9766 L336.3125,444.1328 L328.9219,444.1328 L328.9219,441.9766 L331.3906,441.9766 L331.3906,433.8984 L328.9219,433.8984 Z " fill="#FFFFFF"/><text fill="#000000" font-family="sans-serif" font-size="12" font-style="italic" lengthAdjust="spacing" textLength="49.6465" x="393.021" y="434.1387">&#171;entity&#187;</text><text fill="#FFFFFF" font-family="sans-serif" font-size="14" font-style="italic" lengthAdjust="spacing" textLength="141.6885" x="347" y="449.9639">NotificationMessage</text><line style="stroke:#E7E7E7;stroke-width:0.5;" x1="319" x2="490.6885" y1="458.2656" y2="458.2656"/><ellipse cx="329" cy="471.9141" fill="none" rx="3" ry="3" style="stroke:#038048;stroke-width:1;"/><text fill="#FFFFFF" font-family="sans-serif" font-size="14" lengthAdjust="spacing" textLength="78.3193" x="338" y="475.2607">title: String</text><ellipse cx="329" cy="488.2109" fill="none" rx="3" ry="3" style="stroke:#038048;stroke-width:1;"/><text fill="#FFFFFF" font-family="sans-serif" font-size="14" lengthAdjust="spacing" textLength="85.5723" x="338" y="491.5576">body: String</text><line style="stroke:#E7E7E7;stroke-width:0.5;" x1="319" x2="490.6885" y1="498.8594" y2="498.8594"/></g><!--class Event--><g class="entity" data-entity="Event" data-source-line="40" data-uid="ent0010" id="entity_Event"><rect fill="#313139" height="48" rx="2.5" ry="2.5" style="stroke:#E7E7E7;stroke-width:0.5;" width="72.1064" x="408" y="84"/><ellipse cx="423" cy="100" fill="#352866" rx="11" ry="11" style="stroke:#E7E7E7;stroke-width:1;"/><path d="M418.9219,95.7656 L418.9219,93.6094 L426.3125,93.6094 L426.3125,95.7656 L423.8438,95.7656 L423.8438,103.8438 L426.3125,103.8438 L426.3125,106 L418.9219,106 L418.9219,103.8438 L421.3906,103.8438 L421.3906,95.7656 L418.9219,95.7656 Z " fill="#FFFFFF"/><text fill="#FFFFFF" font-family="sans-serif" font-size="14" font-style="italic" lengthAdjust="spacing" textLength="40.1064" x="437" y="104.8467">Event</text><line style="stroke:#E7E7E7;stroke-width:0.5;" x1="409" x2="479.1064" y1="116" y2="116"/><line style="stroke:#E7E7E7;stroke-width:0.5;" x1="409" x2="479.1064" y1="124" y2="124"/></g><!--class AddedMemberToGroup--><g class="entity" data-entity="AddedMemberToGroup" data-source-line="42" data-uid="ent0011" id="entity_AddedMemberToGroup"><rect fill="#313139" height="88.8594" rx="2.5" ry="2.5" style="stroke:#E7E7E7;stroke-width:0.5;" width="194.4834" x="227" y="192"/><ellipse cx="242" cy="212.1328" fill="#352866" rx="11" ry="11" style="stroke:#E7E7E7;stroke-width:1;"/><path d="M237.9219,207.8984 L237.9219,205.7422 L245.3125,205.7422 L245.3125,207.8984 L242.8438,207.8984 L242.8438,215.9766 L245.3125,215.9766 L245.3125,218.1328 L237.9219,218.1328 L237.9219,215.9766 L240.3906,215.9766 L240.3906,207.8984 L237.9219,207.8984 Z " fill="#FFFFFF"/><text fill="#000000" font-family="sans-serif" font-size="12" font-style="italic" lengthAdjust="spacing" textLength="97.7461" x="288.3687" y="208.1387">&#171;domain event&#187;</text><text fill="#FFFFFF" font-family="sans-serif" font-size="14" font-style="italic" lengthAdjust="spacing" textLength="162.4834" x="256" y="223.9639">AddedMemberToGroup</text><line style="stroke:#E7E7E7;stroke-width:0.5;" x1="228" x2="420.4834" y1="232.2656" y2="232.2656"/><ellipse cx="238" cy="245.9141" fill="none" rx="3" ry="3" style="stroke:#038048;stroke-width:1;"/><text fill="#FFFFFF" font-family="sans-serif" font-size="14" lengthAdjust="spacing" textLength="119.0957" x="247" y="249.2607">groupId: GroupId</text><ellipse cx="238" cy="262.2109" fill="none" rx="3" ry="3" style="stroke:#038048;stroke-width:1;"/><text fill="#FFFFFF" font-family="sans-serif" font-size="14" lengthAdjust="spacing" textLength="142.5156" x="247" y="265.5576">addedMember: User</text><line style="stroke:#E7E7E7;stroke-width:0.5;" x1="228" x2="420.4834" y1="272.8594" y2="272.8594"/></g><!--class GroupCreated--><g class="entity" data-entity="GroupCreated" data-source-line="46" data-uid="ent0013" id="entity_GroupCreated"><rect fill="#313139" height="88.8594" rx="2.5" ry="2.5" style="stroke:#E7E7E7;stroke-width:0.5;" width="145.0957" x="46.5" y="192"/><ellipse cx="68.0039" cy="212.1328" fill="#352866" rx="11" ry="11" style="stroke:#E7E7E7;stroke-width:1;"/><path d="M63.9258,207.8984 L63.9258,205.7422 L71.3164,205.7422 L71.3164,207.8984 L68.8477,207.8984 L68.8477,215.9766 L71.3164,215.9766 L71.3164,218.1328 L63.9258,218.1328 L63.9258,215.9766 L66.3945,215.9766 L66.3945,207.8984 L63.9258,207.8984 Z " fill="#FFFFFF"/><text fill="#000000" font-family="sans-serif" font-size="12" font-style="italic" lengthAdjust="spacing" textLength="97.7461" x="83.8975" y="208.1387">&#171;domain event&#187;</text><text fill="#FFFFFF" font-family="sans-serif" font-size="14" font-style="italic" lengthAdjust="spacing" textLength="98.6426" x="83.4492" y="223.9639">GroupCreated</text><line style="stroke:#E7E7E7;stroke-width:0.5;" x1="47.5" x2="190.5957" y1="232.2656" y2="232.2656"/><ellipse cx="57.5" cy="245.9141" fill="none" rx="3" ry="3" style="stroke:#038048;stroke-width:1;"/><text fill="#FFFFFF" font-family="sans-serif" font-size="14" lengthAdjust="spacing" textLength="119.0957" x="66.5" y="249.2607">groupId: GroupId</text><ellipse cx="57.5" cy="262.2109" fill="none" rx="3" ry="3" style="stroke:#038048;stroke-width:1;"/><text fill="#FFFFFF" font-family="sans-serif" font-size="14" lengthAdjust="spacing" textLength="112.6016" x="66.5" y="265.5576">createdBy: User</text><line style="stroke:#E7E7E7;stroke-width:0.5;" x1="47.5" x2="190.5957" y1="272.8594" y2="272.8594"/></g><!--class GroupDeleted--><g class="entity" data-entity="GroupDeleted" data-source-line="50" data-uid="ent0015" id="entity_GroupDeleted"><rect fill="#313139" height="72.5625" rx="2.5" ry="2.5" style="stroke:#E7E7E7;stroke-width:0.5;" width="145.0957" x="707.5" y="200"/><ellipse cx="729.3761" cy="220.1328" fill="#352866" rx="11" ry="11" style="stroke:#E7E7E7;stroke-width:1;"/><path d="M725.298,215.8984 L725.298,213.7422 L732.6886,213.7422 L732.6886,215.8984 L730.2199,215.8984 L730.2199,223.9766 L732.6886,223.9766 L732.6886,226.1328 L725.298,226.1328 L725.298,223.9766 L727.7667,223.9766 L727.7667,215.8984 L725.298,215.8984 Z " fill="#FFFFFF"/><text fill="#000000" font-family="sans-serif" font-size="12" font-style="italic" lengthAdjust="spacing" textLength="97.7461" x="744.9388" y="216.1387">&#171;domain event&#187;</text><text fill="#FFFFFF" font-family="sans-serif" font-size="14" font-style="italic" lengthAdjust="spacing" textLength="97.8154" x="744.9042" y="231.9639">GroupDeleted</text><line style="stroke:#E7E7E7;stroke-width:0.5;" x1="708.5" x2="851.5957" y1="240.2656" y2="240.2656"/><ellipse cx="718.5" cy="253.9141" fill="none" rx="3" ry="3" style="stroke:#038048;stroke-width:1;"/><text fill="#FFFFFF" font-family="sans-serif" font-size="14" lengthAdjust="spacing" textLength="119.0957" x="727.5" y="257.2607">groupId: GroupId</text><line style="stroke:#E7E7E7;stroke-width:0.5;" x1="708.5" x2="851.5957" y1="264.5625" y2="264.5625"/></g><!--class RemovedMemberToGroup--><g class="entity" data-entity="RemovedMemberToGroup" data-source-line="53" data-uid="ent0017" id="entity_RemovedMemberToGroup"><rect fill="#313139" height="88.8594" rx="2.5" ry="2.5" style="stroke:#E7E7E7;stroke-width:0.5;" width="215.9619" x="456" y="192"/><ellipse cx="471" cy="212.1328" fill="#352866" rx="11" ry="11" style="stroke:#E7E7E7;stroke-width:1;"/><path d="M466.9219,207.8984 L466.9219,205.7422 L474.3125,205.7422 L474.3125,207.8984 L471.8438,207.8984 L471.8438,215.9766 L474.3125,215.9766 L474.3125,218.1328 L466.9219,218.1328 L466.9219,215.9766 L469.3906,215.9766 L469.3906,207.8984 L466.9219,207.8984 Z " fill="#FFFFFF"/><text fill="#000000" font-family="sans-serif" font-size="12" font-style="italic" lengthAdjust="spacing" textLength="97.7461" x="528.1079" y="208.1387">&#171;domain event&#187;</text><text fill="#FFFFFF" font-family="sans-serif" font-size="14" font-style="italic" lengthAdjust="spacing" textLength="183.9619" x="485" y="223.9639">RemovedMemberToGroup</text><line style="stroke:#E7E7E7;stroke-width:0.5;" x1="457" x2="670.9619" y1="232.2656" y2="232.2656"/><ellipse cx="467" cy="245.9141" fill="none" rx="3" ry="3" style="stroke:#038048;stroke-width:1;"/><text fill="#FFFFFF" font-family="sans-serif" font-size="14" lengthAdjust="spacing" textLength="119.0957" x="476" y="249.2607">groupId: GroupId</text><ellipse cx="467" cy="262.2109" fill="none" rx="3" ry="3" style="stroke:#038048;stroke-width:1;"/><text fill="#FFFFFF" font-family="sans-serif" font-size="14" lengthAdjust="spacing" textLength="161.0205" x="476" y="265.5576">removedMember: User</text><line style="stroke:#E7E7E7;stroke-width:0.5;" x1="457" x2="670.9619" y1="272.8594" y2="272.8594"/></g><!--class Command--><g class="entity" data-entity="Command" data-source-line="67" data-uid="ent0026" id="entity_Command"><rect fill="#313139" height="64.2969" rx="2.5" ry="2.5" style="stroke:#E7E7E7;stroke-width:0.5;" width="172.7334" x="101.5" y="731"/><ellipse cx="147.6392" cy="747" fill="#352866" rx="11" ry="11" style="stroke:#E7E7E7;stroke-width:1;"/><path d="M143.561,742.7656 L143.561,740.6094 L150.9517,740.6094 L150.9517,742.7656 L148.4829,742.7656 L148.4829,750.8438 L150.9517,750.8438 L150.9517,753 L143.561,753 L143.561,750.8438 L146.0298,750.8438 L146.0298,742.7656 L143.561,742.7656 Z " fill="#FFFFFF"/><text fill="#FFFFFF" font-family="sans-serif" font-size="14" font-style="italic" lengthAdjust="spacing" textLength="71.9551" x="168.1392" y="751.8467">Command</text><line style="stroke:#E7E7E7;stroke-width:0.5;" x1="102.5" x2="273.2334" y1="763" y2="763"/><ellipse cx="112.5" cy="776.6484" fill="none" rx="3" ry="3" style="stroke:#038048;stroke-width:1;"/><text fill="#FFFFFF" font-family="sans-serif" font-size="14" lengthAdjust="spacing" textLength="146.7334" x="121.5" y="779.9951">type: CommandType</text><line style="stroke:#E7E7E7;stroke-width:0.5;" x1="102.5" x2="273.2334" y1="787.2969" y2="787.2969"/></g><!--class CommandType--><g class="entity" data-entity="CommandType" data-source-line="71" data-uid="ent0027" id="entity_CommandType"><rect fill="#313139" height="80.5938" rx="2.5" ry="2.5" style="stroke:#E7E7E7;stroke-width:0.5;" width="216.7432" x="59.5" y="855"/><ellipse cx="110.4756" cy="871" fill="#852D19" rx="11" ry="11" style="stroke:#E7E7E7;stroke-width:1;"/><path d="M114.585,877 L106.8662,877 L106.8662,864.6094 L114.585,864.6094 L114.585,866.7656 L109.3193,866.7656 L109.3193,869.4375 L114.085,869.4375 L114.085,871.5938 L109.3193,871.5938 L109.3193,874.8438 L114.585,874.8438 L114.585,877 Z " fill="#FFFFFF"/><text fill="#FFFFFF" font-family="sans-serif" font-size="14" lengthAdjust="spacing" textLength="106.292" x="130.9756" y="875.8467">CommandType</text><line style="stroke:#E7E7E7;stroke-width:0.5;" x1="60.5" x2="275.2432" y1="887" y2="887"/><text fill="#FFFFFF" font-family="sans-serif" font-size="14" lengthAdjust="spacing" textLength="199.8691" x="65.5" y="903.9951">GROUP_WISE_NOTIFICATION</text><text fill="#FFFFFF" font-family="sans-serif" font-size="14" lengthAdjust="spacing" textLength="204.7432" x="65.5" y="920.292">CO_MEMBERS_NOTIFICATION</text><line style="stroke:#E7E7E7;stroke-width:0.5;" x1="60.5" x2="275.2432" y1="927.5938" y2="927.5938"/></g><!--class PushNotificationCommand--><g class="entity" data-entity="PushNotificationCommand" data-source-line="77" data-uid="ent0029" id="entity_PushNotificationCommand"><rect fill="#313139" height="80.5938" rx="2.5" ry="2.5" style="stroke:#E7E7E7;stroke-width:0.5;" width="239.7734" x="312" y="855"/><ellipse cx="336.9031" cy="871" fill="#352866" rx="11" ry="11" style="stroke:#E7E7E7;stroke-width:1;"/><path d="M332.825,866.7656 L332.825,864.6094 L340.2156,864.6094 L340.2156,866.7656 L337.7468,866.7656 L337.7468,874.8438 L340.2156,874.8438 L340.2156,877 L332.825,877 L332.825,874.8438 L335.2937,874.8438 L335.2937,866.7656 L332.825,866.7656 Z " fill="#FFFFFF"/><text fill="#FFFFFF" font-family="sans-serif" font-size="14" font-style="italic" lengthAdjust="spacing" textLength="185.7666" x="353.1038" y="875.8467">PushNotificationCommand</text><line style="stroke:#E7E7E7;stroke-width:0.5;" x1="313" x2="550.7734" y1="887" y2="887"/><ellipse cx="323" cy="900.6484" fill="none" rx="3" ry="3" style="stroke:#038048;stroke-width:1;"/><text fill="#FFFFFF" font-family="sans-serif" font-size="14" lengthAdjust="spacing" textLength="102.1289" x="332" y="903.9951">sender: UserId</text><ellipse cx="323" cy="916.9453" fill="none" rx="3" ry="3" style="stroke:#038048;stroke-width:1;"/><text fill="#FFFFFF" font-family="sans-serif" font-size="14" lengthAdjust="spacing" textLength="213.7734" x="332" y="920.292">message: NotificationMessage</text><line style="stroke:#E7E7E7;stroke-width:0.5;" x1="313" x2="550.7734" y1="927.5938" y2="927.5938"/></g><!--class GroupWisePushNotification--><g class="entity" data-entity="GroupWisePushNotification" data-source-line="83" data-uid="ent0032" id="entity_GroupWisePushNotification"><rect fill="#313139" height="64.2969" rx="2.5" ry="2.5" style="stroke:#E7E7E7;stroke-width:0.5;" width="222.3809" x="347" y="996"/><ellipse cx="362" cy="1012" fill="#352866" rx="11" ry="11" style="stroke:#E7E7E7;stroke-width:1;"/><path d="M357.9219,1007.7656 L357.9219,1005.6094 L365.3125,1005.6094 L365.3125,1007.7656 L362.8438,1007.7656 L362.8438,1015.8438 L365.3125,1015.8438 L365.3125,1018 L357.9219,1018 L357.9219,1015.8438 L360.3906,1015.8438 L360.3906,1007.7656 L357.9219,1007.7656 Z " fill="#FFFFFF"/><text fill="#FFFFFF" font-family="sans-serif" font-size="14" font-style="italic" lengthAdjust="spacing" textLength="190.3809" x="376" y="1016.8467">GroupWisePushNotification</text><line style="stroke:#E7E7E7;stroke-width:0.5;" x1="348" x2="568.3809" y1="1028" y2="1028"/><ellipse cx="358" cy="1041.6484" fill="none" rx="3" ry="3" style="stroke:#038048;stroke-width:1;"/><text fill="#FFFFFF" font-family="sans-serif" font-size="14" lengthAdjust="spacing" textLength="126.8203" x="367" y="1044.9951">recipient: GroupId</text><line style="stroke:#E7E7E7;stroke-width:0.5;" x1="348" x2="568.3809" y1="1052.2969" y2="1052.2969"/></g><g class="entity" data-entity="GMN34" data-source-line="87" data-uid="ent0035" id="entity_GMN34"><path d="M309.5,1127.5 L309.5,1152.6328 A0,0 0 0 0 309.5,1152.6328 L606.4453,1152.6328 A0,0 0 0 0 606.4453,1152.6328 L606.4453,1137.5 L596.4453,1127.5 L462,1127.5 L458,1060.23 L454,1127.5 L309.5,1127.5 A0,0 0 0 0 309.5,1127.5" fill="#714137" style="stroke:#E7E7E7;stroke-width:0.5;"/><path d="M596.4453,1127.5 L596.4453,1137.5 L606.4453,1137.5 L596.4453,1127.5" fill="#714137" style="stroke:#E7E7E7;stroke-width:0.5;"/><text fill="#FFFFFF" font-family="sans-serif" font-size="13" lengthAdjust="spacing" textLength="159.1992" x="315.5" y="1144.5669">sent to all members of a</text><text fill="#FFFFFF" font-family="monospace" font-size="13" lengthAdjust="spacing" textLength="70.4399" x="478.8315" y="1144.5669">recipient</text><text fill="#FFFFFF" font-family="sans-serif" font-size="13" lengthAdjust="spacing" textLength="38.0415" x="553.4038" y="1144.5669">group</text></g><!--class CoMembersPushNotification--><g class="entity" data-entity="CoMembersPushNotification" data-source-line="90" data-uid="ent0037" id="entity_CoMembersPushNotification"><rect fill="#313139" height="64.2969" rx="2.5" ry="2.5" style="stroke:#E7E7E7;stroke-width:0.5;" width="229.0322" x="52.5" y="996"/><ellipse cx="67.5" cy="1012" fill="#352866" rx="11" ry="11" style="stroke:#E7E7E7;stroke-width:1;"/><path d="M63.4219,1007.7656 L63.4219,1005.6094 L70.8125,1005.6094 L70.8125,1007.7656 L68.3438,1007.7656 L68.3438,1015.8438 L70.8125,1015.8438 L70.8125,1018 L63.4219,1018 L63.4219,1015.8438 L65.8906,1015.8438 L65.8906,1007.7656 L63.4219,1007.7656 Z " fill="#FFFFFF"/><text fill="#FFFFFF" font-family="sans-serif" font-size="14" font-style="italic" lengthAdjust="spacing" textLength="197.0322" x="81.5" y="1016.8467">CoMembersPushNotification</text><line style="stroke:#E7E7E7;stroke-width:0.5;" x1="53.5" x2="280.5322" y1="1028" y2="1028"/><ellipse cx="63.5" cy="1041.6484" fill="none" rx="3" ry="3" style="stroke:#038048;stroke-width:1;"/><text fill="#FFFFFF" font-family="sans-serif" font-size="14" lengthAdjust="spacing" textLength="153.4668" x="72.5" y="1044.9951">referenceUser: UserId</text><line style="stroke:#E7E7E7;stroke-width:0.5;" x1="53.5" x2="280.5322" y1="1052.2969" y2="1052.2969"/></g><g class="entity" data-entity="GMN39" data-source-line="94" data-uid="ent0040" id="entity_GMN39"><path d="M52,1120 L52,1160.2656 A0,0 0 0 0 52,1160.2656 L274.1001,1160.2656 A0,0 0 0 0 274.1001,1160.2656 L274.1001,1130 L264.1001,1120 L167.7,1120 L165.86,1060.23 L159.7,1120 L52,1120 A0,0 0 0 0 52,1120" fill="#714137" style="stroke:#E7E7E7;stroke-width:0.5;"/><path d="M264.1001,1120 L264.1001,1130 L274.1001,1130 L264.1001,1120" fill="#714137" style="stroke:#E7E7E7;stroke-width:0.5;"/><text fill="#FFFFFF" font-family="sans-serif" font-size="13" lengthAdjust="spacing" textLength="168.5303" x="58" y="1137.0669">sent to all users sharing a</text><text fill="#FFFFFF" font-family="sans-serif" font-size="13" lengthAdjust="spacing" textLength="95.2212" x="58" y="1152.1997">group with the</text><text fill="#FFFFFF" font-family="monospace" font-size="13" lengthAdjust="spacing" textLength="101.7466" x="157.3535" y="1152.1997">referenceUser</text></g><!--link User to UserId--><g class="link" data-entity-1="User" data-entity-2="UserId" data-source-line="31" data-uid="lnk7" id="link_User_UserId"><path codeLine="31" d="M213,535.43 C213,555.53 213,559.3 213,576.93" fill="none" id="User-UserId" style="stroke:#E7E7E7;stroke-width:1;"/><polygon fill="#E7E7E7" points="213,523.43,209,529.43,213,535.43,217,529.43,213,523.43" style="stroke:#E7E7E7;stroke-width:1;"/><polygon fill="#E7E7E7" points="213,582.93,217,573.93,213,577.93,209,573.93,213,582.93" style="stroke:#E7E7E7;stroke-width:1;"/><text fill="#FFFFFF" font-family="sans-serif" font-size="13" lengthAdjust="spacing" textLength="8.271" x="204.2522" y="571.9241">1</text></g><!--reverse link Event to AddedMemberToGroup--><g class="link" data-entity-1="Event" data-entity-2="AddedMemberToGroup" data-source-line="43" data-uid="lnk12" id="link_Event_AddedMemberToGroup"><path d="M409.603,145.2599 C393.773,161.9499 384.33,171.9 365.29,191.97" fill="none" id="Event-backto-AddedMemberToGroup" style="stroke:#E7E7E7;stroke-width:1;"/><polygon fill="none" points="421.99,132.2,405.2497,141.131,413.9563,149.3889,421.99,132.2" style="stroke:#E7E7E7;stroke-width:1;"/></g><!--reverse link Event to GroupCreated--><g class="link" data-entity-1="Event" data-entity-2="GroupCreated" data-source-line="47" data-uid="lnk14" id="link_Event_GroupCreated"><path d="M390.7606,126.0612 C344.4006,141.1212 278.88,163.42 210,192 C204.02,194.48 197.86,197.16 191.71,199.92" fill="none" id="Event-backto-GroupCreated" style="stroke:#E7E7E7;stroke-width:1;"/><polygon fill="none" points="407.88,120.5,388.9069,120.3548,392.6144,131.7677,407.88,120.5" style="stroke:#E7E7E7;stroke-width:1;"/></g><!--reverse link Event to GroupDeleted--><g class="link" data-entity-1="Event" data-entity-2="GroupDeleted" data-source-line="51" data-uid="lnk16" id="link_Event_GroupDeleted"><path d="M497.6021,124.9113 C546.0721,139.5413 616.98,162.17 690,192 C695.94,194.43 702.05,197.06 708.15,199.79" fill="none" id="Event-backto-GroupDeleted" style="stroke:#E7E7E7;stroke-width:1;"/><polygon fill="none" points="480.37,119.71,495.8684,130.6553,499.3359,119.1672,480.37,119.71" style="stroke:#E7E7E7;stroke-width:1;"/></g><!--reverse link Event to RemovedMemberToGroup--><g class="link" data-entity-1="Event" data-entity-2="RemovedMemberToGroup" data-source-line="54" data-uid="lnk18" id="link_Event_RemovedMemberToGroup"><path d="M478.397,145.2599 C494.227,161.9499 503.67,171.9 522.71,191.97" fill="none" id="Event-backto-RemovedMemberToGroup" style="stroke:#E7E7E7;stroke-width:1;"/><polygon fill="none" points="466.01,132.2,474.0437,149.3889,482.7503,141.131,466.01,132.2" style="stroke:#E7E7E7;stroke-width:1;"/></g><!--link RemovedMemberToGroup to GroupId--><g class="link" data-entity-1="RemovedMemberToGroup" data-entity-2="GroupId" data-source-line="58" data-uid="lnk19" id="link_RemovedMemberToGroup_GroupId"><path codeLine="58" d="M569.2193,293.1677 C573.1793,335.4377 577.4299,380.7662 581.1099,420.0162" fill="none" id="RemovedMemberToGroup-GroupId" style="stroke:#E7E7E7;stroke-width:1;"/><polygon fill="#E7E7E7" points="568.1,281.22,564.6771,287.5669,569.2193,293.1677,572.6422,286.8207,568.1,281.22" style="stroke:#E7E7E7;stroke-width:1;"/><polygon fill="#E7E7E7" points="581.67,425.99,584.8124,416.6559,581.2033,421.0118,576.8473,417.4027,581.67,425.99" style="stroke:#E7E7E7;stroke-width:1;"/></g><!--link GroupDeleted to GroupId--><g class="link" data-entity-1="GroupDeleted" data-entity-2="GroupId" data-source-line="59" data-uid="lnk20" id="link_GroupDeleted_GroupId"><path codeLine="59" d="M740.79,282.5402 C704.29,324.4602 656.1891,379.7141 619.8691,421.4441" fill="none" id="GroupDeleted-GroupId" style="stroke:#E7E7E7;stroke-width:1;"/><polygon fill="#E7E7E7" points="748.67,273.49,741.7133,275.3884,740.79,282.5402,747.7467,280.6418,748.67,273.49" style="stroke:#E7E7E7;stroke-width:1;"/><polygon fill="#E7E7E7" points="615.93,425.97,624.8559,421.8073,619.2126,422.1985,618.8214,416.5551,615.93,425.97" style="stroke:#E7E7E7;stroke-width:1;"/></g><!--link GroupCreated to GroupId--><g class="link" data-entity-1="GroupCreated" data-entity-2="GroupId" data-source-line="60" data-uid="lnk21" id="link_GroupCreated_GroupId"><path codeLine="60" d="M179.1128,288.2094 C191.7028,297.2894 195.92,298.91 210,305 C334.35,358.77 395.12,287.2 510,359 C535.43,374.89 552.07,397.5997 564.83,420.2997" fill="none" id="GroupCreated-GroupId" style="stroke:#E7E7E7;stroke-width:1;"/><polygon fill="#E7E7E7" points="169.38,281.19,171.9066,287.944,179.1128,288.2094,176.5862,281.4554,169.38,281.19" style="stroke:#E7E7E7;stroke-width:1;"/><polygon fill="#E7E7E7" points="567.77,425.53,566.8468,415.7245,565.32,421.1714,559.8731,419.6446,567.77,425.53" style="stroke:#E7E7E7;stroke-width:1;"/></g><!--link GroupCreated to User--><g class="link" data-entity-1="GroupCreated" data-entity-2="User" data-source-line="61" data-uid="lnk22" id="link_GroupCreated_User"><path codeLine="61" d="M141.9914,292.286 C156.4114,326.666 169.6984,358.3173 185.6184,396.2573" fill="none" id="GroupCreated-User" style="stroke:#E7E7E7;stroke-width:1;"/><polygon fill="#E7E7E7" points="137.35,281.22,135.982,288.3002,141.9914,292.286,143.3594,285.2059,137.35,281.22" style="stroke:#E7E7E7;stroke-width:1;"/><polygon fill="#E7E7E7" points="187.94,401.79,188.1461,391.9433,186.0054,397.1794,180.7692,395.0387,187.94,401.79" style="stroke:#E7E7E7;stroke-width:1;"/></g><!--link AddedMemberToGroup to GroupId--><g class="link" data-entity-1="AddedMemberToGroup" data-entity-2="GroupId" data-source-line="62" data-uid="lnk23" id="link_AddedMemberToGroup_GroupId"><path codeLine="62" d="M406.9266,287.5708 C450.6266,314.5908 491.11,341.09 510,359 C530.8,378.72 546.5384,399.8269 560.2184,420.7669" fill="none" id="AddedMemberToGroup-GroupId" style="stroke:#E7E7E7;stroke-width:1;"/><polygon fill="#E7E7E7" points="396.72,281.26,399.7197,287.8176,406.9266,287.5708,403.9269,281.0132,396.72,281.26" style="stroke:#E7E7E7;stroke-width:1;"/><polygon fill="#E7E7E7" points="563.5,425.79,561.9264,416.0677,560.7654,421.6041,555.2289,420.4431,563.5,425.79" style="stroke:#E7E7E7;stroke-width:1;"/></g><!--link AddedMemberToGroup to User--><g class="link" data-entity-1="AddedMemberToGroup" data-entity-2="User" data-source-line="63" data-uid="lnk24" id="link_AddedMemberToGroup_User"><path codeLine="63" d="M297.0035,291.9731 C279.9735,326.3531 264.054,358.4738 245.254,396.4138" fill="none" id="AddedMemberToGroup-User" style="stroke:#E7E7E7;stroke-width:1;"/><polygon fill="#E7E7E7" points="302.33,281.22,296.0824,284.821,297.0035,291.9731,303.2511,288.372,302.33,281.22" style="stroke:#E7E7E7;stroke-width:1;"/><polygon fill="#E7E7E7" points="242.59,401.79,250.1701,395.5017,244.81,397.3099,243.0019,391.9498,242.59,401.79" style="stroke:#E7E7E7;stroke-width:1;"/></g><!--link Command to CommandType--><g class="link" data-entity-1="Command" data-entity-2="CommandType" data-source-line="75" data-uid="lnk28" id="link_Command_CommandType"><path codeLine="75" d="M181.3898,807.1212 C178.6598,824.9112 177.9486,829.5992 175.0286,848.6592" fill="none" id="Command-CommandType" style="stroke:#E7E7E7;stroke-width:1;"/><polygon fill="#E7E7E7" points="183.21,795.26,178.3462,800.5839,181.3898,807.1212,186.2536,801.7973,183.21,795.26" style="stroke:#E7E7E7;stroke-width:1;"/><polygon fill="#E7E7E7" points="174.12,854.59,179.4368,846.2995,174.8772,849.6477,171.529,845.0881,174.12,854.59" style="stroke:#E7E7E7;stroke-width:1;"/></g><!--reverse link Command to PushNotificationCommand--><g class="link" data-entity-1="Command" data-entity-2="PushNotificationCommand" data-source-line="78" data-uid="lnk30" id="link_Command_PushNotificationCommand"><path d="M262.0032,803.5778 C295.5532,821.5178 322.2,835.78 358.11,854.98" fill="none" id="Command-backto-PushNotificationCommand" style="stroke:#E7E7E7;stroke-width:1;"/><polygon fill="none" points="246.13,795.09,259.1739,808.8688,264.8324,798.2867,246.13,795.09" style="stroke:#E7E7E7;stroke-width:1;"/></g><!--link NotificationMessage to PushNotificationCommand--><g class="link" data-entity-1="NotificationMessage" data-entity-2="PushNotificationCommand" data-source-line="81" data-uid="lnk31" id="link_NotificationMessage_PushNotificationCommand"><path codeLine="81" d="M408.115,513.1883 C413.375,597.1883 423.6996,762.0435 428.7596,842.8035" fill="none" id="NotificationMessage-PushNotificationCommand" style="stroke:#E7E7E7;stroke-width:1;"/><polygon fill="#E7E7E7" points="407.74,507.2,404.3103,516.4324,408.0525,512.1902,412.2947,515.9324,407.74,507.2" style="stroke:#E7E7E7;stroke-width:1;"/><polygon fill="#E7E7E7" points="429.51,854.78,433.127,848.5416,428.7596,842.8035,425.1426,849.0419,429.51,854.78" style="stroke:#E7E7E7;stroke-width:1;"/></g><!--reverse link PushNotificationCommand to GroupWisePushNotification--><g class="link" data-entity-1="PushNotificationCommand" data-entity-2="GroupWisePushNotification" data-source-line="84" data-uid="lnk33" id="link_PushNotificationCommand_GroupWisePushNotification"><path d="M443.3912,953.6622 C447.2212,972.8622 448.23,977.96 451.81,995.91" fill="none" id="PushNotificationCommand-backto-GroupWisePushNotification" style="stroke:#E7E7E7;stroke-width:1;"/><polygon fill="none" points="439.87,936.01,437.5072,954.836,449.2753,952.4885,439.87,936.01" style="stroke:#E7E7E7;stroke-width:1;"/></g><!--reverse link PushNotificationCommand to CoMembersPushNotification--><g class="link" data-entity-1="PushNotificationCommand" data-entity-2="CoMembersPushNotification" data-source-line="91" data-uid="lnk38" id="link_PushNotificationCommand_CoMembersPushNotification"><path d="M335.6209,943.9603 C296.6209,963.1603 266.58,977.96 230.14,995.91" fill="none" id="PushNotificationCommand-backto-CoMembersPushNotification" style="stroke:#E7E7E7;stroke-width:1;"/><polygon fill="none" points="351.77,936.01,332.9708,938.5773,338.271,949.3433,351.77,936.01" style="stroke:#E7E7E7;stroke-width:1;"/></g><!--link UserId to PushNotificationCommand--><g class="link" data-entity-1="UserId" data-entity-2="PushNotificationCommand" data-source-line="98" data-uid="lnk43" id="link_UserId_PushNotificationCommand"><path codeLine="98" d="M263.3499,659.9313 C274.7499,669.7313 282.02,676.84 292,688 C339.65,741.27 377.9345,801.3134 403.4745,844.6234" fill="none" id="UserId-PushNotificationCommand" style="stroke:#E7E7E7;stroke-width:1;"/><polygon fill="#E7E7E7" points="258.8,656.02,263.0173,664.9202,262.5916,659.2794,268.2324,658.8537,258.8,656.02" style="stroke:#E7E7E7;stroke-width:1;"/><polygon fill="#E7E7E7" points="409.57,854.96,409.9678,847.7599,403.4745,844.6234,403.0767,851.8235,409.57,854.96" style="stroke:#E7E7E7;stroke-width:1;"/></g><!--link GroupId to GroupWisePushNotification--><g class="link" data-entity-1="GroupId" data-entity-2="GroupWisePushNotification" data-source-line="99" data-uid="lnk45" id="link_GroupId_GroupWisePushNotification"><path codeLine="99" d="M594.601,504.9603 C611.961,587.0803 643.25,788.19 570,936 C557.82,960.58 545.3935,973.888 523.9135,988.958" fill="none" id="GroupId-GroupWisePushNotification" style="stroke:#E7E7E7;stroke-width:1;"/><polygon fill="#E7E7E7" points="593.36,499.09,591.3079,508.7227,594.3941,503.9819,599.135,507.0681,593.36,499.09" style="stroke:#E7E7E7;stroke-width:1;"/><polygon fill="#E7E7E7" points="514.09,995.85,521.2991,995.6785,523.9135,988.958,516.7044,989.1295,514.09,995.85" style="stroke:#E7E7E7;stroke-width:1;"/></g><!--link UserId to CoMembersPushNotification--><g class="link" data-entity-1="UserId" data-entity-2="CoMembersPushNotification" data-source-line="100" data-uid="lnk47" id="link_UserId_CoMembersPushNotification"><path codeLine="100" d="M149.2334,641.0759 C124.0834,651.7059 101.92,665.27 84,688 C36.62,748.1 51.4,779.05 42,855 C37.58,890.73 25.67,903.92 42,936 C54.84,961.24 68.1901,974.7127 91.3701,989.3827" fill="none" id="UserId-CoMembersPushNotification" style="stroke:#E7E7E7;stroke-width:1;"/><polygon fill="#E7E7E7" points="154.76,638.74,144.9128,638.5594,150.1545,640.6866,148.0273,645.9283,154.76,638.74" style="stroke:#E7E7E7;stroke-width:1;"/><polygon fill="#E7E7E7" points="101.51,995.8,98.5791,989.2114,91.3701,989.3827,94.3009,995.9713,101.51,995.8" style="stroke:#E7E7E7;stroke-width:1;"/></g><!--SRC=[jLLDR-8m4BtdLrWvikAmLrGXjIojSW0geEeHcNW0xoPs53lieeh_lhQJq7oCenweJy4pddblvisGqVWFFG9XCgLSa8yW8EParIq8pJK7PUv9TRZGa1ze3EGbbqKMCVBmSAP90KJkVqEifzE6ipq_Y3DFo4RdN1nljck0n7nJa7z3I1FGKRaWeJZhnIaDWgRWCQaY7x22AMM2WAk_7ABHU3mbuS-meemXNqhD3poccakn0ALiHmQ8cEl41salsSM3wDff-Taam1i-joOCw2DZm1QGxY7VIYSBWxDIb8jdqC8_3OAfCaWF-x7KqgGMLSTCFnDCNC6GgdQ4ESk1Qc1t1XANKPykNuNn2nAu9mmiqHfIUVxU1kJD53tkjqyKYL6waNetRgiw0ovr7x_iqiA6A1CFv7MyXUlCIIpJbDfwOfCoAutz4RraPa8hwzRym8e8eaYRFfqeB-lLs-lkFThCTylLDdgEPe_RQBLi-SnMkyLyyJHVRt2VJnNLIDqwQW93MBqMwjJSIVNRMba-rifOQzNqb9MMYss2RJi4BxeJJQD6FdI1RpBVkOBkcniL7zMFtbp4FEDce8OcLKWDPWDhBLCY3_xihTZAJgcMX2Q9gP7LfRAFAGd3Mz8mBEUs8HtciWMe9ajvgpkGFa0E8WRRq5vRlRoz0Boy2sLPgnErVrk4jlmSSVANwnFH9t1LQQ0Amu6Q-7YEnaLMZtntnw1gSG_wkyHVwUf18y4rk0R_0G00]--></g></svg>