<svg xmlns="http://www.w3.org/2000/svg" xmlns:xlink="http://www.w3.org/1999/xlink" contentStyleType="text/css" data-diagram-type="DESCRIPTION" height="776px" preserveAspectRatio="none" style="width:1020px;height:776px;background:#FFFFFF;" version="1.1" viewBox="0 0 1020 776" width="1020px" zoomAndPan="magnify"><defs/><g><!--cluster Tracking sub-system--><g class="cluster" data-entity="Tracking sub-system" data-source-line="192" data-uid="ent0004" id="cluster_Tracking sub-system"><rect fill="none" height="582" rx="2.5" ry="2.5" style="stroke:#181818;stroke-width:1;" width="963" x="51.32" y="97.5"/><text fill="#000000" font-family="sans-serif" font-size="14" font-weight="bold" lengthAdjust="spacing" textLength="163.8711" x="450.8845" y="112.4951">Tracking sub-system</text></g><!--entity UC1--><g class="entity" data-entity="UC1" data-source-line="193" data-uid="ent0005" id="entity_UC1"><ellipse cx="559.0238" cy="463.6408" fill="#F1F1F1" rx="88.7038" ry="20.1408" style="stroke:#181818;stroke-width:0.5;"/><text fill="#000000" font-family="sans-serif" font-size="14" lengthAdjust="spacing" textLength="150.8008" x="483.6234" y="468.2892">Start location sharing</text></g><!--entity UC2--><g class="entity" data-entity="UC2" data-source-line="194" data-uid="ent0006" id="entity_UC2"><ellipse cx="206.4822" cy="221.4324" fill="#F1F1F1" rx="87.6622" ry="19.9324" style="stroke:#181818;stroke-width:0.5;"/><text fill="#000000" font-family="sans-serif" font-size="14" lengthAdjust="spacing" textLength="148.4287" x="132.2679" y="226.0809">Stop location sharing</text></g><!--entity UC3--><g class="entity" data-entity="UC3" data-source-line="195" data-uid="ent0007" id="entity_UC3"><ellipse cx="885.3491" cy="463.6058" fill="#F1F1F1" rx="108.5291" ry="24.1058" style="stroke:#181818;stroke-width:0.5;"/><text fill="#000000" font-family="sans-serif" font-size="14" lengthAdjust="spacing" textLength="194.6943" x="788.002" y="468.2543">Send a GPS location update</text></g><!--entity UC4--><g class="entity" data-entity="UC4" data-source-line="196" data-uid="ent0008" id="entity_UC4"><ellipse cx="206.3241" cy="306.7008" fill="#F1F1F1" rx="139.0041" ry="30.2008" style="stroke:#181818;stroke-width:0.5;"/><text fill="#000000" font-family="sans-serif" font-size="14" lengthAdjust="spacing" textLength="221.6553" x="93.2714" y="304.3766">View real-time group members'</text><text fill="#000000" font-family="sans-serif" font-size="14" lengthAdjust="spacing" textLength="204.0186" x="106.54" y="320.6735">locations and state on a map</text></g><!--entity UC5--><g class="entity" data-entity="UC5" data-source-line="197" data-uid="ent0009" id="entity_UC5"><ellipse cx="206.4945" cy="645.5349" fill="#F1F1F1" rx="75.6745" ry="17.5349" style="stroke:#181818;stroke-width:0.5;"/><text fill="#000000" font-family="sans-serif" font-size="14" lengthAdjust="spacing" textLength="120.3604" x="146.3143" y="650.1833">Trigger SOS alert</text></g><!--entity UC6--><g class="entity" data-entity="UC6" data-source-line="198" data-uid="ent0010" id="entity_UC6"><ellipse cx="206.4554" cy="149.6271" fill="#F1F1F1" rx="71.1354" ry="16.6271" style="stroke:#181818;stroke-width:0.5;"/><text fill="#000000" font-family="sans-serif" font-size="14" lengthAdjust="spacing" textLength="109.2246" x="151.8431" y="154.2755">Stop SOS mode</text></g><!--entity UC7--><g class="entity" data-entity="UC7" data-source-line="199" data-uid="ent0011" id="entity_UC7"><ellipse cx="206.1863" cy="463.2733" fill="#F1F1F1" rx="71.8663" ry="16.7733" style="stroke:#181818;stroke-width:0.5;"/><text fill="#000000" font-family="sans-serif" font-size="14" lengthAdjust="spacing" textLength="111.043" x="150.6648" y="467.9217">Share a journey</text></g><!--entity UC8--><g class="entity" data-entity="UC8" data-source-line="200" data-uid="ent0012" id="entity_UC8"><ellipse cx="206.3043" cy="391.6969" fill="#F1F1F1" rx="86.4843" ry="19.6969" style="stroke:#181818;stroke-width:0.5;"/><text fill="#000000" font-family="sans-serif" font-size="14" lengthAdjust="spacing" textLength="145.7354" x="133.4366" y="396.3453">Stop journey sharing</text></g><!--entity UC9--><g class="entity" data-entity="UC9" data-source-line="201" data-uid="ent0013" id="entity_UC9"><ellipse cx="206.1969" cy="562.3754" fill="#F1F1F1" rx="137.3769" ry="29.8754" style="stroke:#181818;stroke-width:0.5;"/><text fill="#000000" font-family="sans-serif" font-size="14" lengthAdjust="spacing" textLength="231.6836" x="88.13" y="562.3389">View path of a group member on</text><text fill="#000000" font-family="sans-serif" font-size="14" lengthAdjust="spacing" textLength="177.707" x="119.5685" y="578.6358">a journey or in SOS Mode</text></g><!--entity UC10--><g class="entity" data-entity="UC10" data-source-line="202" data-uid="ent0014" id="entity_UC10"><ellipse cx="885.3459" cy="628.2998" fill="#F1F1F1" rx="113.0259" ry="25.2998" style="stroke:#181818;stroke-width:0.5;"/><text fill="#000000" font-family="sans-serif" font-size="14" lengthAdjust="spacing" textLength="133.5195" x="816.3611" y="623.7245">Trigger notification</text><text fill="#000000" font-family="sans-serif" font-size="14" lengthAdjust="spacing" textLength="156.3652" x="809.3884" y="640.0214">for all group members</text></g><!--entity User--><g class="entity" data-entity="User" data-source-line="189" data-uid="ent0002" id="entity_User"><ellipse cx="206.3029" cy="14" fill="#F1F1F1" rx="8" ry="8" style="stroke:#181818;stroke-width:0.5;"/><path d="M206.3029,22 L206.3029,49 M193.3029,30 L219.3029,30 M206.3029,49 L193.3029,64 M206.3029,49 L219.3029,64" fill="none" style="stroke:#181818;stroke-width:0.5;"/><text fill="#000000" font-family="sans-serif" font-size="14" lengthAdjust="spacing" textLength="104.9658" x="153.82" y="78.4951">Group Member</text></g><!--entity System--><g class="entity" data-entity="System" data-source-line="190" data-uid="ent0003" id="entity_System"><ellipse cx="885.423" cy="704" fill="#F1F1F1" rx="8" ry="8" style="stroke:#181818;stroke-width:0.5;"/><path d="M885.423,712 L885.423,739 M872.423,720 L898.423,720 M885.423,739 L872.423,754 M885.423,739 L898.423,754" fill="none" style="stroke:#181818;stroke-width:0.5;"/><text fill="#000000" font-family="sans-serif" font-size="14" lengthAdjust="spacing" textLength="52.2061" x="859.32" y="768.4951">System</text></g><!--link User to UC1--><g class="link" data-entity-1="User" data-entity-2="UC1" data-source-line="205" data-uid="lnk15" id="link_User_UC1"><path d="M259.01,62.92 C286.87,75.22 320.52,93.22 345.32,116.5 C373.26,142.73 503.5396,368.6126 543.4896,438.4126" fill="none" id="User-to-UC1" style="stroke:#181818;stroke-width:1;"/><polygon fill="#181818" points="546.47,443.62,545.4709,433.8219,543.9863,439.2805,538.5277,437.7959,546.47,443.62" style="stroke:#181818;stroke-width:1;"/></g><!--link User to UC2--><g class="link" data-entity-1="User" data-entity-2="UC2" data-source-line="206" data-uid="lnk16" id="link_User_UC2"><path d="M153.65,55.01 C93.47,71.19 6,105.66 28.32,166 C41.57,201.82 74.4878,215.579 112.5278,220.899" fill="none" id="User-to-UC2" style="stroke:#181818;stroke-width:1;"/><polygon fill="#181818" points="118.47,221.73,110.1108,216.522,113.5182,221.0375,109.0027,224.4449,118.47,221.73" style="stroke:#181818;stroke-width:1;"/></g><!--link User to UC3--><g class="link" data-entity-1="User" data-entity-2="UC3" data-source-line="207" data-uid="lnk17" id="link_User_UC3"><path d="M259.01,69.51 C285.17,83.01 317.25,100.08 345.32,116.5 C541.29,231.13 762.2443,380.0375 845.9443,437.1675" fill="none" id="User-to-UC3" style="stroke:#181818;stroke-width:1;"/><polygon fill="#181818" points="850.9,440.55,845.7215,432.1724,846.7703,437.7312,841.2115,438.78,850.9,440.55" style="stroke:#181818;stroke-width:1;"/></g><!--link UC1 to UC3--><g class="link" data-entity-1="UC1" data-entity-2="UC3" data-source-line="208" data-uid="lnk18" id="link_UC1_UC3"><path d="M647.64,463.5 C687.43,463.5 728.85,463.5 770.75,463.5" fill="none" id="UC1-to-UC3" style="stroke:#181818;stroke-width:1;stroke-dasharray:7,7;"/><polygon fill="#181818" points="776.75,463.5,767.75,459.5,771.75,463.5,767.75,467.5,776.75,463.5" style="stroke:#181818;stroke-width:1;"/><text fill="#000000" font-family="sans-serif" font-size="13" lengthAdjust="spacing" textLength="63.0068" x="678.32" y="459.5669">&#171;include&#187;</text></g><!--link User to UC4--><g class="link" data-entity-1="User" data-entity-2="UC4" data-source-line="210" data-uid="lnk19" id="link_User_UC4"><path d="M153.6,60.36 C120.03,72.66 76.73,91.54 43.32,116.5 C35.12,122.63 31.88,124.39 28.32,134 C11.82,178.6 11.82,196.4 28.32,241 C37.69,266.32 53.7318,279.9655 78.8018,289.7655" fill="none" id="User-to-UC4" style="stroke:#181818;stroke-width:1;"/><polygon fill="#181818" points="84.39,291.95,77.464,284.9478,79.7332,290.1296,74.5514,292.3988,84.39,291.95" style="stroke:#181818;stroke-width:1;"/></g><!--link User to UC5--><g class="link" data-entity-1="User" data-entity-2="UC5" data-source-line="212" data-uid="lnk20" id="link_User_UC5"><path d="M153.77,51.11 C108.29,61.06 46.96,83.6 28.32,134 C10.67,181.73 10.67,544.27 28.32,592 C43.04,631.8 83.628,644.365 125.438,647.615" fill="none" id="User-to-UC5" style="stroke:#181818;stroke-width:1;"/><polygon fill="#181818" points="131.42,648.08,122.7571,643.3945,126.435,647.6925,122.1371,651.3705,131.42,648.08" style="stroke:#181818;stroke-width:1;"/></g><!--link User to UC6--><g class="link" data-entity-1="User" data-entity-2="UC6" data-source-line="213" data-uid="lnk21" id="link_User_UC6"><path d="M206.32,81.58 C206.32,98.7 206.32,109.82 206.32,126.94" fill="none" id="User-to-UC6" style="stroke:#181818;stroke-width:1;"/><polygon fill="#181818" points="206.32,132.94,210.32,123.94,206.32,127.94,202.32,123.94,206.32,132.94" style="stroke:#181818;stroke-width:1;"/></g><!--link UC5 to UC1--><g class="link" data-entity-1="UC5" data-entity-2="UC1" data-source-line="215" data-uid="lnk22" id="link_UC5_UC1"><path d="M266.27,634.85 C291.32,629.13 320.44,620.87 345.32,609.5 C420.64,575.09 493.4718,518.0245 530.6318,486.8745" fill="none" id="UC5-to-UC1" style="stroke:#181818;stroke-width:1;stroke-dasharray:7,7;"/><polygon fill="#181818" points="535.23,483.02,525.7631,485.7363,531.3982,486.2321,530.9024,491.8672,535.23,483.02" style="stroke:#181818;stroke-width:1;"/><text fill="#000000" font-family="sans-serif" font-size="13" lengthAdjust="spacing" textLength="63.0068" x="376.32" y="553.5669">&#171;include&#187;</text></g><!--link UC5 to UC10--><g class="link" data-entity-1="UC5" data-entity-2="UC10" data-source-line="216" data-uid="lnk23" id="link_UC5_UC10"><path d="M281.71,643.63 C400.56,640.65 627.9819,634.9408 766.8419,631.4508" fill="none" id="UC5-to-UC10" style="stroke:#181818;stroke-width:1;stroke-dasharray:7,7;"/><polygon fill="#181818" points="772.84,631.3,763.7423,627.5274,767.8416,631.4256,763.9433,635.5249,772.84,631.3" style="stroke:#181818;stroke-width:1;"/><text fill="#000000" font-family="sans-serif" font-size="13" lengthAdjust="spacing" textLength="63.0068" x="527.32" y="630.5669">&#171;include&#187;</text></g><!--link User to UC7--><g class="link" data-entity-1="User" data-entity-2="UC7" data-source-line="218" data-uid="lnk24" id="link_User_UC7"><path d="M153.77,51.11 C108.29,61.06 46.96,83.6 28.32,134 C17.64,162.87 17.64,382.13 28.32,411 C43.52,452.1 86.8199,463.9963 129.6899,466.4563" fill="none" id="User-to-UC7" style="stroke:#181818;stroke-width:1;"/><polygon fill="#181818" points="135.68,466.8,126.9239,462.291,130.6882,466.5136,126.4656,470.2778,135.68,466.8" style="stroke:#181818;stroke-width:1;"/></g><!--link User to UC8--><g class="link" data-entity-1="User" data-entity-2="UC8" data-source-line="219" data-uid="lnk25" id="link_User_UC8"><path d="M153.77,51.11 C108.29,61.06 46.96,83.6 28.32,134 C12.75,176.1 12.75,293.9 28.32,336 C41.69,372.13 75.1446,385.8521 113.4846,391.0621" fill="none" id="User-to-UC8" style="stroke:#181818;stroke-width:1;"/><polygon fill="#181818" points="119.43,391.87,111.0506,386.6946,114.4755,391.1967,109.9734,394.6217,119.43,391.87" style="stroke:#181818;stroke-width:1;"/></g><!--link UC7 to UC1--><g class="link" data-entity-1="UC7" data-entity-2="UC1" data-source-line="220" data-uid="lnk26" id="link_UC7_UC1"><path d="M278.67,463.5 C334.02,463.5 405,463.5 464.1,463.5" fill="none" id="UC7-to-UC1" style="stroke:#181818;stroke-width:1;stroke-dasharray:7,7;"/><polygon fill="#181818" points="470.1,463.5,461.1,459.5,465.1,463.5,461.1,467.5,470.1,463.5" style="stroke:#181818;stroke-width:1;"/><text fill="#000000" font-family="sans-serif" font-size="13" lengthAdjust="spacing" textLength="63.0068" x="376.32" y="459.5669">&#171;include&#187;</text></g><!--reverse link UC9 to UC7--><g class="link" data-entity-1="UC9" data-entity-2="UC7" data-source-line="221" data-uid="lnk28" id="link_UC9_UC7"><path d="M206.32,526.26 C206.32,509.31 206.32,494.8 206.32,480.61" fill="none" id="UC9-backto-UC7" style="stroke:#181818;stroke-width:1;stroke-dasharray:7,7;"/><polygon fill="#181818" points="206.32,532.26,210.32,523.26,206.32,527.26,202.32,523.26,206.32,532.26" style="stroke:#181818;stroke-width:1;"/><text fill="#000000" font-family="sans-serif" font-size="13" lengthAdjust="spacing" textLength="63.0068" x="163.32" y="511.0669">&#171;include&#187;</text></g><!--reverse link UC3 to UC10--><g class="link" data-entity-1="UC3" data-entity-2="UC10" data-source-line="223" data-uid="lnk29" id="link_UC3_UC10"><path d="M885.32,493.76 C885.32,524.5 885.32,571.27 885.32,602.72" fill="none" id="UC3-backto-UC10" style="stroke:#181818;stroke-width:1;stroke-dasharray:7,7;"/><polygon fill="#181818" points="885.32,487.76,881.32,496.76,885.32,492.76,889.32,496.76,885.32,487.76" style="stroke:#181818;stroke-width:1;"/><text fill="#000000" font-family="sans-serif" font-size="13" lengthAdjust="spacing" textLength="61.1851" x="843.32" y="549.8169">&#171;extend&#187;</text></g><!--link System to UC10--><g class="link" data-entity-1="System" data-entity-2="UC10" data-source-line="225" data-uid="lnk31" id="link_System_UC10"><path d="M885.32,695.36 C885.32,681.6 885.32,673.85 885.32,660.09" fill="none" id="System-to-UC10" style="stroke:#181818;stroke-width:1;"/><polygon fill="#181818" points="885.32,654.09,881.32,663.09,885.32,659.09,889.32,663.09,885.32,654.09" style="stroke:#181818;stroke-width:1;"/></g><!--SRC=[TLDDRy8m3BtdLrXSTYeQtp0XBXmueKqgsucBQTsIBKsg9DM6flttkQMifOEUtBpdPpyxKPHuy0QiJ8yUOcafyj9e8J3ona9lOqsHmvQo0zaUe8DNH_O2XYVdAQkEpw4GPJxgL17qTXQZ3wbJSCKXS3NrMm1_XQC87ND2ZzQ3CX6MLS4TqNB6kT1wqEMQ_1vrsA6IZW5Xyn8s2KKUewUQFxhclqdw14ke0YypWhGodLMctGFizP-A0sHbvra9M1CXmxoM75zBxdYYALa8dqD0HTRNjCaDKoKdC_6bkMc7maw9IxsRmcewrQJP3PsQqPdD_8RN7FqHJCAgRQ-bfRrkIW4lMUgglMtJtkAsKMsyJ6GzR5P9E1cLkXxcPREFuaU8yYf1iAestSJ3LZmIZ46_NyNm1Ckbr94gObgjskdZzi-a5KyPM4zgWK57e8KytjUUjU8vvypkgZ6Y-3LLwEAV8FU_x3UrwClp7JqZVBGCojJWyen-0G00]--></g></svg>