<svg xmlns="http://www.w3.org/2000/svg" xmlns:xlink="http://www.w3.org/1999/xlink" contentStyleType="text/css" data-diagram-type="DESCRIPTION" height="794px" preserveAspectRatio="none" style="width:1075px;height:794px;background:#FFFFFF;" version="1.1" viewBox="0 0 1075 794" width="1075px" zoomAndPan="magnify"><defs/><g><!--cluster Tracking sub-system--><g id="cluster_Tracking sub-system"><rect fill="#FFFFFF" fill-opacity="0.00000" height="600" rx="2.5" ry="2.5" style="stroke:#181818;stroke-width:1;" width="1017" x="52.95" y="97.5"/><text fill="#000000" font-family="sans-serif" font-size="14" font-weight="bold" lengthAdjust="spacing" textLength="163.8711" x="479.5145" y="112.4951">Tracking sub-system</text></g><g id="elem_UC1"><ellipse cx="590.9772" cy="474.7054" fill="#F1F1F1" rx="94.0272" ry="21.2054" style="stroke:#181818;stroke-width:0.5;"/><text fill="#000000" font-family="sans-serif" font-size="14" lengthAdjust="spacing" textLength="150.8008" x="515.5768" y="477.5521">Start location sharing</text></g><g id="elem_UC2"><ellipse cx="220.4182" cy="224.4936" fill="#F1F1F1" rx="92.9682" ry="20.9936" style="stroke:#181818;stroke-width:0.5;"/><text fill="#000000" font-family="sans-serif" font-size="14" lengthAdjust="spacing" textLength="148.4287" x="146.2038" y="227.3403">Stop location sharing</text></g><g id="elem_UC3"><ellipse cx="932.0381" cy="474.7176" fill="#F1F1F1" rx="114.0881" ry="25.2176" style="stroke:#181818;stroke-width:0.5;"/><text fill="#000000" font-family="sans-serif" font-size="14" lengthAdjust="spacing" textLength="194.6943" x="834.6909" y="477.5643">Send a GPS location update</text></g><g id="elem_UC4"><ellipse cx="220.3879" cy="312.3876" fill="#F1F1F1" rx="147.4379" ry="31.8876" style="stroke:#181818;stroke-width:0.5;"/><text fill="#000000" font-family="sans-serif" font-size="14" lengthAdjust="spacing" textLength="221.6553" x="104.3352" y="307.9867">View real-time group members'</text><text fill="#000000" font-family="sans-serif" font-size="14" lengthAdjust="spacing" textLength="204.0186" x="117.6037" y="324.2836">locations and state on a map</text></g><g id="elem_UC5"><ellipse cx="220.2105" cy="662.5521" fill="#F1F1F1" rx="80.7605" ry="18.5521" style="stroke:#181818;stroke-width:0.5;"/><text fill="#000000" font-family="sans-serif" font-size="14" lengthAdjust="spacing" textLength="120.3604" x="158.6474" y="665.8481">Trigger SOS alert</text></g><g id="elem_UC6"><ellipse cx="220.2059" cy="150.6512" fill="#F1F1F1" rx="76.2559" ry="17.6512" style="stroke:#181818;stroke-width:0.5;"/><text fill="#000000" font-family="sans-serif" font-size="14" lengthAdjust="spacing" textLength="109.2246" x="162.5936" y="154.3987">Stop SOS mode</text></g><g id="elem_UC7"><ellipse cx="220.4233" cy="474.2947" fill="#F1F1F1" rx="76.9733" ry="17.7947" style="stroke:#181818;stroke-width:0.5;"/><text fill="#000000" font-family="sans-serif" font-size="14" lengthAdjust="spacing" textLength="111.043" x="162.0203" y="478.0116">Share a journey</text></g><g id="elem_UC8"><ellipse cx="220.2196" cy="400.2539" fill="#F1F1F1" rx="91.7696" ry="20.7539" style="stroke:#181818;stroke-width:0.5;"/><text fill="#000000" font-family="sans-serif" font-size="14" lengthAdjust="spacing" textLength="145.7354" x="147.3519" y="403.1006">Stop journey sharing</text></g><g id="elem_UC9"><ellipse cx="220.4497" cy="576.6999" fill="#F1F1F1" rx="151.4997" ry="32.6999" style="stroke:#181818;stroke-width:0.5;"/><text fill="#000000" font-family="sans-serif" font-size="14" lengthAdjust="spacing" textLength="231.6836" x="99.9355" y="572.1434">View path of a group member on</text><text fill="#000000" font-family="sans-serif" font-size="14" lengthAdjust="spacing" textLength="177.707" x="131.374" y="588.4403">a journey or in SOS Mode</text></g><g id="elem_UC10"><ellipse cx="931.7187" cy="646.2537" fill="#F1F1F1" rx="121.7687" ry="26.7537" style="stroke:#181818;stroke-width:0.5;"/><text fill="#000000" font-family="sans-serif" font-size="14" lengthAdjust="spacing" textLength="133.5195" x="862.7338" y="640.952">Trigger notification</text><text fill="#000000" font-family="sans-serif" font-size="14" lengthAdjust="spacing" textLength="156.3652" x="855.7611" y="657.2489">for all group members</text></g><!--entity User--><g id="elem_User"><ellipse cx="220.4329" cy="14" fill="#F1F1F1" rx="8" ry="8" style="stroke:#181818;stroke-width:0.5;"/><path d="M220.4329,22 L220.4329,49 M207.4329,30 L233.4329,30 M220.4329,49 L207.4329,64 M220.4329,49 L233.4329,64 " fill="#FFFFFF" fill-opacity="0.00000" style="stroke:#181818;stroke-width:0.5;"/><text fill="#000000" font-family="sans-serif" font-size="14" lengthAdjust="spacing" textLength="104.9658" x="167.95" y="78.4951">Group Member</text></g><!--entity System--><g id="elem_System"><ellipse cx="932.053" cy="722" fill="#F1F1F1" rx="8" ry="8" style="stroke:#181818;stroke-width:0.5;"/><path d="M932.053,730 L932.053,757 M919.053,738 L945.053,738 M932.053,757 L919.053,772 M932.053,757 L945.053,772 " fill="#FFFFFF" fill-opacity="0.00000" style="stroke:#181818;stroke-width:0.5;"/><text fill="#000000" font-family="sans-serif" font-size="14" lengthAdjust="spacing" textLength="52.2061" x="905.95" y="786.4951">System</text></g><!--link User to UC1--><g id="link_User_UC1"><path d="M273.21,60.14 C304.46,72.11 343.59,90.72 371.95,116.5 C386.59,129.81 530.6768,373.749 574.5968,448.379 " fill="#FFFFFF" fill-opacity="0.00000" id="User-to-UC1" style="stroke:#181818;stroke-width:1;"/><polygon fill="#181818" points="577.64,453.55,576.5226,443.7647,575.104,449.2408,569.6279,447.8223,577.64,453.55" style="stroke:#181818;stroke-width:1;"/></g><!--link User to UC2--><g id="link_User_UC2"><path d="M167.83,53.59 C103.51,68.88 6,103.25 29.95,168 C44.23,206.58 80.5823,220.7688 121.7123,225.6788 " fill="#FFFFFF" fill-opacity="0.00000" id="User-to-UC2" style="stroke:#181818;stroke-width:1;"/><polygon fill="#181818" points="127.67,226.39,119.2076,221.3514,122.7053,225.7973,118.2593,229.295,127.67,226.39" style="stroke:#181818;stroke-width:1;"/></g><!--link User to UC3--><g id="link_User_UC3"><path d="M273.07,66.7 C302.49,80.37 339.78,98.48 371.95,116.5 C577.32,231.54 805.8916,387.4779 891.9116,447.2079 " fill="#FFFFFF" fill-opacity="0.00000" id="User-to-UC3" style="stroke:#181818;stroke-width:1;"/><polygon fill="#181818" points="896.84,450.63,891.7289,442.2112,892.733,447.7782,887.166,448.7824,896.84,450.63" style="stroke:#181818;stroke-width:1;"/></g><!--link UC1 to UC3--><g id="link_UC1_UC3"><path d="M685.03,474.5 C726.1,474.5 768.73,474.5 811.86,474.5 " fill="#FFFFFF" fill-opacity="0.00000" id="UC1-to-UC3" style="stroke:#181818;stroke-width:1;stroke-dasharray:7.0,7.0;"/><polygon fill="#181818" points="817.86,474.5,808.86,470.5,812.86,474.5,808.86,478.5,817.86,474.5" style="stroke:#181818;stroke-width:1;"/><text fill="#000000" font-family="sans-serif" font-size="13" lengthAdjust="spacing" textLength="63.0068" x="715.95" y="470.5669">&#171;include&#187;</text></g><!--link User to UC4--><g id="link_User_UC4"><path d="M167.64,58.29 C130.97,70.2 82.2,89.45 44.95,116.5 C36.66,122.52 33.51,124.39 29.95,134 C12.84,180.27 12.84,198.73 29.95,245 C39.75,271.49 56.6373,285.827 82.8373,296.007 " fill="#FFFFFF" fill-opacity="0.00000" id="User-to-UC4" style="stroke:#181818;stroke-width:1;"/><polygon fill="#181818" points="88.43,298.18,81.4897,291.192,83.7694,296.3691,78.5923,298.6489,88.43,298.18" style="stroke:#181818;stroke-width:1;"/></g><!--link User to UC5--><g id="link_User_UC5"><path d="M167.83,49.12 C118.75,57.71 50.15,79.4 29.95,134 C11.64,183.5 11.64,559.5 29.95,609 C45.8,651.85 90.6082,664.3056 135.7682,666.6756 " fill="#FFFFFF" fill-opacity="0.00000" id="User-to-UC5" style="stroke:#181818;stroke-width:1;"/><polygon fill="#181818" points="141.76,666.99,132.982,662.5238,136.7669,666.728,132.5627,670.5128,141.76,666.99" style="stroke:#181818;stroke-width:1;"/></g><!--link User to UC6--><g id="link_User_UC6"><path d="M220.45,81.58 C220.45,98.7 220.45,109.82 220.45,126.95 " fill="#FFFFFF" fill-opacity="0.00000" id="User-to-UC6" style="stroke:#181818;stroke-width:1;"/><polygon fill="#181818" points="220.45,132.95,224.45,123.95,220.45,127.95,216.45,123.95,220.45,132.95" style="stroke:#181818;stroke-width:1;"/></g><!--link UC5 to UC1--><g id="link_UC5_UC1"><path d="M288.03,652.15 C314.85,646.57 345.6,638.32 371.95,626.5 C449.83,591.55 524.4567,531.659 562.3767,498.949 " fill="#FFFFFF" fill-opacity="0.00000" id="UC5-to-UC1" style="stroke:#181818;stroke-width:1;stroke-dasharray:7.0,7.0;"/><polygon fill="#181818" points="566.92,495.03,557.4924,497.8797,563.134,498.2959,562.7178,503.9374,566.92,495.03" style="stroke:#181818;stroke-width:1;"/><text fill="#000000" font-family="sans-serif" font-size="13" lengthAdjust="spacing" textLength="63.0068" x="402.95" y="568.5669">&#171;include&#187;</text></g><!--link UC5 to UC10--><g id="link_UC5_UC10"><path d="M301.12,660.7 C425.11,657.91 659.0615,652.6354 804.3415,649.3554 " fill="#FFFFFF" fill-opacity="0.00000" id="UC5-to-UC10" style="stroke:#181818;stroke-width:1;stroke-dasharray:7.0,7.0;"/><polygon fill="#181818" points="810.34,649.22,801.252,645.4242,805.3413,649.3329,801.4326,653.4221,810.34,649.22" style="stroke:#181818;stroke-width:1;"/><text fill="#000000" font-family="sans-serif" font-size="13" lengthAdjust="spacing" textLength="63.0068" x="559.45" y="648.5669">&#171;include&#187;</text></g><!--link User to UC7--><g id="link_User_UC7"><path d="M167.83,49.12 C118.75,57.71 50.15,79.4 29.95,134 C18.89,163.91 18.89,391.09 29.95,421 C46.31,465.22 93.8945,477.1676 140.0745,478.9576 " fill="#FFFFFF" fill-opacity="0.00000" id="User-to-UC7" style="stroke:#181818;stroke-width:1;"/><polygon fill="#181818" points="146.07,479.19,137.2317,474.8444,141.0738,478.9963,136.9218,482.8384,146.07,479.19" style="stroke:#181818;stroke-width:1;"/></g><!--link User to UC8--><g id="link_User_UC8"><path d="M167.83,49.12 C118.75,57.71 50.15,79.4 29.95,134 C13.76,177.77 13.76,300.23 29.95,344 C44.35,382.91 81.2895,397.0426 122.7395,401.8226 " fill="#FFFFFF" fill-opacity="0.00000" id="User-to-UC8" style="stroke:#181818;stroke-width:1;"/><polygon fill="#181818" points="128.7,402.51,120.2175,397.5053,123.7329,401.9372,119.301,405.4526,128.7,402.51" style="stroke:#181818;stroke-width:1;"/></g><!--link UC7 to UC1--><g id="link_UC7_UC1"><path d="M297.81,474.5 C355.57,474.5 429.18,474.5 490.7,474.5 " fill="#FFFFFF" fill-opacity="0.00000" id="UC7-to-UC1" style="stroke:#181818;stroke-width:1;stroke-dasharray:7.0,7.0;"/><polygon fill="#181818" points="496.7,474.5,487.7,470.5,491.7,474.5,487.7,478.5,496.7,474.5" style="stroke:#181818;stroke-width:1;"/><text fill="#000000" font-family="sans-serif" font-size="13" lengthAdjust="spacing" textLength="63.0068" x="402.95" y="470.5669">&#171;include&#187;</text></g><!--reverse link UC9 to UC7--><g id="link_UC9_UC7"><path d="M220.45,537.95 C220.45,520.92 220.45,506.73 220.45,492.52 " fill="#FFFFFF" fill-opacity="0.00000" id="UC9-backto-UC7" style="stroke:#181818;stroke-width:1;stroke-dasharray:7.0,7.0;"/><polygon fill="#181818" points="220.45,543.95,224.45,534.95,220.45,538.95,216.45,534.95,220.45,543.95" style="stroke:#181818;stroke-width:1;"/><text fill="#000000" font-family="sans-serif" font-size="13" lengthAdjust="spacing" textLength="63.0068" x="177.45" y="522.8169">&#171;include&#187;</text></g><!--reverse link UC3 to UC10--><g id="link_UC3_UC10"><path d="M931.95,505.67 C931.95,537.58 931.95,586.38 931.95,619.25 " fill="#FFFFFF" fill-opacity="0.00000" id="UC3-backto-UC10" style="stroke:#181818;stroke-width:1;stroke-dasharray:7.0,7.0;"/><polygon fill="#181818" points="931.95,499.67,927.95,508.67,931.95,504.67,935.95,508.67,931.95,499.67" style="stroke:#181818;stroke-width:1;"/><text fill="#000000" font-family="sans-serif" font-size="13" lengthAdjust="spacing" textLength="61.1851" x="889.95" y="564.0669">&#171;extend&#187;</text></g><!--link System to UC10--><g id="link_System_UC10"><path d="M931.95,713.36 C931.95,700.12 931.95,692.89 931.95,679.66 " fill="#FFFFFF" fill-opacity="0.00000" id="System-to-UC10" style="stroke:#181818;stroke-width:1;"/><polygon fill="#181818" points="931.95,673.66,927.95,682.66,931.95,678.66,935.95,682.66,931.95,673.66" style="stroke:#181818;stroke-width:1;"/></g><!--SRC=[TLDDRy8m3BtdLrXSTYeQtp0XBXmueKqgsucBQTsIBKsg9DM6flttkQMifOEUtBpdPpyxKPHuy0QiJ8yUOcafyj9e8J3ona9lOqsHmvQo0zaUe8DNH_O2XYVdAQkEpw4GPJxgL17qTXQZ3wbJSCKXS3NrMm1_XQC87ND2ZzQ3CX6MLS4TqNB6kT1wqEMQ_1vrsA6IZW5Xyn8s2KKUewUQFxhclqdw14ke0YypWhGodLMctGFizP-A0sHbvra9M1CXmxoM75zBxdYYALa8dqD0HTRNjCaDKoKdC_6bkMc7maw9IxsRmcewrQJP3PsQqPdD_8RN7FqHJCAgRQ-bfRrkIW4lMUgglMtJtkAsKMsyJ6GzR5P9E1cLkXxcPREFuaU8yYf1iAestSJ3LZmIZ46_NyNm1Ckbr94gObgjskdZzi-a5KyPM4zgWK57e8KytjUUjU8vvypkgZ6Y-3LLwEAV8FU_x3UrwClp7JqZVBGCojJWyen-0G00]--></g></svg>