<svg xmlns="http://www.w3.org/2000/svg" xmlns:xlink="http://www.w3.org/1999/xlink" contentStyleType="text/css" data-diagram-type="DESCRIPTION" height="769px" preserveAspectRatio="none" style="width:462px;height:769px;background:#1B1B1B;" version="1.1" viewBox="0 0 462 769" width="462px" zoomAndPan="magnify"><defs/><g><rect fill="#1B1B1B" height="769" style="stroke:none;stroke-width:1;" width="462" x="0" y="0"/><!--cluster Users sub-system--><g class="cluster" data-entity="Users sub-system" data-source-line="17" data-uid="ent0003" id="cluster_Users sub-system"><rect fill="none" height="329" rx="2.5" ry="2.5" style="stroke:#E7E7E7;stroke-width:1;" width="265" x="188" y="7"/><text fill="#FFFFFF" font-family="sans-serif" font-size="14" font-weight="bold" lengthAdjust="spacing" textLength="140.0068" x="250.4966" y="21.9951">Users sub-system</text></g><!--cluster Group sub-system--><g class="cluster" data-entity="Group sub-system" data-source-line="24" data-uid="ent0008" id="cluster_Group sub-system"><rect fill="none" height="403" rx="2.5" ry="2.5" style="stroke:#E7E7E7;stroke-width:1;" width="271" x="185" y="360"/><text fill="#FFFFFF" font-family="sans-serif" font-size="14" font-weight="bold" lengthAdjust="spacing" textLength="143.5752" x="248.7124" y="374.9951">Group sub-system</text></g><!--entity UC1--><g class="entity" data-entity="UC1" data-source-line="18" data-uid="ent0004" id="entity_UC1"><ellipse cx="320.4801" cy="64.796" fill="#313139" rx="99.4801" ry="22.296" style="stroke:#E7E7E7;stroke-width:0.5;"/><text fill="#FFFFFF" font-family="sans-serif" font-size="14" lengthAdjust="spacing" textLength="174.9111" x="233.0245" y="69.4444">Register with the system</text></g><!--entity UC2--><g class="entity" data-entity="UC2" data-source-line="19" data-uid="ent0005" id="entity_UC2"><ellipse cx="320.5849" cy="146.217" fill="#313139" rx="104.0849" ry="23.217" style="stroke:#E7E7E7;stroke-width:0.5;"/><text fill="#FFFFFF" font-family="sans-serif" font-size="14" lengthAdjust="spacing" textLength="185.0215" x="228.0742" y="150.8654">Log in with my credentials</text></g><!--entity UC3--><g class="entity" data-entity="UC3" data-source-line="20" data-uid="ent0006" id="entity_UC3"><ellipse cx="320.3511" cy="230.1702" fill="#313139" rx="116.3511" ry="25.6702" style="stroke:#E7E7E7;stroke-width:0.5;"/><text fill="#FFFFFF" font-family="sans-serif" font-size="14" lengthAdjust="spacing" textLength="211.5518" x="214.5752" y="234.8186">Update my profile information</text></g><!--entity UC4--><g class="entity" data-entity="UC4" data-source-line="21" data-uid="ent0007" id="entity_UC4"><ellipse cx="320.7149" cy="305.0236" fill="#313139" rx="40.2149" ry="14.5236" style="stroke:#E7E7E7;stroke-width:0.5;"/><text fill="#FFFFFF" font-family="sans-serif" font-size="14" lengthAdjust="spacing" textLength="52.6299" x="294.4" y="309.6721">Log out</text></g><!--entity UC5--><g class="entity" data-entity="UC5" data-source-line="25" data-uid="ent0009" id="entity_UC5"><ellipse cx="320.4151" cy="414.083" fill="#313139" rx="83.4151" ry="19.083" style="stroke:#E7E7E7;stroke-width:0.5;"/><text fill="#FFFFFF" font-family="sans-serif" font-size="14" lengthAdjust="spacing" textLength="138.6602" x="251.085" y="418.7315">Create a new group</text></g><!--entity UC6--><g class="entity" data-entity="UC6" data-source-line="26" data-uid="ent0010" id="entity_UC6"><ellipse cx="320.6657" cy="489.8331" fill="#313139" rx="97.1657" ry="21.8331" style="stroke:#E7E7E7;stroke-width:0.5;"/><text fill="#FFFFFF" font-family="sans-serif" font-size="14" lengthAdjust="spacing" textLength="169.791" x="235.7702" y="494.4816">Add one user to a group</text></g><!--entity UC7--><g class="entity" data-entity="UC7" data-source-line="27" data-uid="ent0011" id="entity_UC7"><ellipse cx="320.7008" cy="573.8402" fill="#313139" rx="119.7008" ry="26.3402" style="stroke:#E7E7E7;stroke-width:0.5;"/><text fill="#FFFFFF" font-family="sans-serif" font-size="14" lengthAdjust="spacing" textLength="218.7158" x="211.3429" y="578.4886">Remove one user from a group</text></g><!--entity UC8--><g class="entity" data-entity="UC8" data-source-line="28" data-uid="ent0012" id="entity_UC8"><ellipse cx="320.6285" cy="651.9257" fill="#313139" rx="67.6285" ry="15.9257" style="stroke:#E7E7E7;stroke-width:0.5;"/><text fill="#FFFFFF" font-family="sans-serif" font-size="14" lengthAdjust="spacing" textLength="100.3379" x="270.4596" y="656.5741">Leave a group</text></g><!--entity UC9--><g class="entity" data-entity="UC9" data-source-line="29" data-uid="ent0013" id="entity_UC9"><ellipse cx="320.7238" cy="725.1448" fill="#313139" rx="96.2238" ry="21.6448" style="stroke:#E7E7E7;stroke-width:0.5;"/><text fill="#FFFFFF" font-family="sans-serif" font-size="14" lengthAdjust="spacing" textLength="167.6992" x="236.8742" y="729.7932">Update the group name</text></g><!--entity AuthUser--><g class="entity" data-entity="AuthUser" data-source-line="15" data-uid="ent0002" id="entity_AuthUser"><ellipse cx="73.6519" cy="460.5" fill="#313139" rx="8" ry="8" style="stroke:#E7E7E7;stroke-width:0.5;"/><path d="M73.6519,468.5 L73.6519,495.5 M60.6519,476.5 L86.6519,476.5 M73.6519,495.5 L60.6519,510.5 M73.6519,495.5 L86.6519,510.5" fill="none" style="stroke:#E7E7E7;stroke-width:0.5;"/><text fill="#FFFFFF" font-family="sans-serif" font-size="14" lengthAdjust="spacing" textLength="135.3037" x="6" y="524.9951">Authenticated User</text></g><!--entity User--><g class="entity" data-entity="User" data-source-line="32" data-uid="ent0014" id="entity_User"><ellipse cx="73.4551" cy="76.5" fill="#313139" rx="8" ry="8" style="stroke:#E7E7E7;stroke-width:0.5;"/><path d="M73.4551,84.5 L73.4551,111.5 M60.4551,92.5 L86.4551,92.5 M73.4551,111.5 L60.4551,126.5 M73.4551,111.5 L86.4551,126.5" fill="none" style="stroke:#E7E7E7;stroke-width:0.5;"/><text fill="#FFFFFF" font-family="sans-serif" font-size="14" lengthAdjust="spacing" textLength="31.9102" x="57.5" y="140.9951">User</text></g><!--link User to UC1--><g class="link" data-entity-1="User" data-entity-2="UC1" data-source-line="32" data-uid="lnk15" id="link_User_UC1"><path d="M89.83,103.44 C119.37,98.49 180.1222,88.3196 234.0622,79.2996" fill="none" id="User-to-UC1" style="stroke:#E7E7E7;stroke-width:1;"/><polygon fill="#E7E7E7" points="239.98,78.31,230.4435,75.8492,235.0485,79.1347,231.763,83.7396,239.98,78.31" style="stroke:#E7E7E7;stroke-width:1;"/></g><!--link User to UC2--><g class="link" data-entity-1="User" data-entity-2="UC2" data-source-line="33" data-uid="lnk16" id="link_User_UC2"><path d="M89.83,108.5 C118.69,113.21 177.0685,122.7424 230.3085,131.4424" fill="none" id="User-to-UC2" style="stroke:#E7E7E7;stroke-width:1;"/><polygon fill="#E7E7E7" points="236.23,132.41,227.9929,127.0109,231.2954,131.6036,226.7027,134.9062,236.23,132.41" style="stroke:#E7E7E7;stroke-width:1;"/></g><!--link AuthUser to UC3--><g class="link" data-entity-1="AuthUser" data-entity-2="UC3" data-source-line="34" data-uid="lnk17" id="link_AuthUser_UC3"><path d="M82.51,451.62 C94.62,403.09 122.24,320.19 177,273 C191.39,260.6 203.5892,253.74 221.7592,247.46" fill="none" id="AuthUser-to-UC3" style="stroke:#E7E7E7;stroke-width:1;"/><polygon fill="#E7E7E7" points="227.43,245.5,217.6171,244.6594,222.7043,247.1333,220.2304,252.2205,227.43,245.5" style="stroke:#E7E7E7;stroke-width:1;"/></g><!--link AuthUser to UC4--><g class="link" data-entity-1="AuthUser" data-entity-2="UC4" data-source-line="35" data-uid="lnk18" id="link_AuthUser_UC4"><path d="M103.98,451.89 C123.09,428.87 149.48,400.01 177,379 C213.78,350.92 257.2469,330.4606 287.1469,317.9206" fill="none" id="AuthUser-to-UC4" style="stroke:#E7E7E7;stroke-width:1;"/><polygon fill="#E7E7E7" points="292.68,315.6,282.8333,315.3921,288.0691,317.5338,285.9274,322.7696,292.68,315.6" style="stroke:#E7E7E7;stroke-width:1;"/></g><!--link AuthUser to UC5--><g class="link" data-entity-1="AuthUser" data-entity-2="UC5" data-source-line="38" data-uid="lnk19" id="link_AuthUser_UC5"><path d="M141.06,462.64 C152.94,458.16 165.27,453.76 177,450 C203.98,441.37 228.5162,434.8524 254.2662,428.6624" fill="none" id="AuthUser-to-UC5" style="stroke:#E7E7E7;stroke-width:1;"/><polygon fill="#E7E7E7" points="260.1,427.26,250.4144,425.4744,255.2385,428.4286,252.2842,433.2528,260.1,427.26" style="stroke:#E7E7E7;stroke-width:1;"/></g><!--link AuthUser to UC6--><g class="link" data-entity-1="AuthUser" data-entity-2="UC6" data-source-line="39" data-uid="lnk20" id="link_AuthUser_UC6"><path d="M141.12,490 C166.49,490 189.92,490 217.47,490" fill="none" id="AuthUser-to-UC6" style="stroke:#E7E7E7;stroke-width:1;"/><polygon fill="#E7E7E7" points="223.47,490,214.47,486,218.47,490,214.47,494,223.47,490" style="stroke:#E7E7E7;stroke-width:1;"/></g><!--link AuthUser to UC7--><g class="link" data-entity-1="AuthUser" data-entity-2="UC7" data-source-line="40" data-uid="lnk21" id="link_AuthUser_UC7"><path d="M141.01,515.94 C152.95,520.42 165.31,524.93 177,529 C200.4,537.14 220.4442,543.677 243.5642,550.917" fill="none" id="AuthUser-to-UC7" style="stroke:#E7E7E7;stroke-width:1;"/><polygon fill="#E7E7E7" points="249.29,552.71,241.8966,546.2032,244.5185,551.2158,239.5059,553.8377,249.29,552.71" style="stroke:#E7E7E7;stroke-width:1;"/></g><!--link AuthUser to UC8--><g class="link" data-entity-1="AuthUser" data-entity-2="UC8" data-source-line="41" data-uid="lnk22" id="link_AuthUser_UC8"><path d="M95.56,528.26 C113.49,557.25 141.89,595.75 177,618 C200.95,633.18 225.1612,640.5481 251.5312,645.1981" fill="none" id="AuthUser-to-UC8" style="stroke:#E7E7E7;stroke-width:1;"/><polygon fill="#E7E7E7" points="257.44,646.24,249.2714,640.7379,252.516,645.3717,247.8821,648.6163,257.44,646.24" style="stroke:#E7E7E7;stroke-width:1;"/></g><!--link AuthUser to UC9--><g class="link" data-entity-1="AuthUser" data-entity-2="UC9" data-source-line="42" data-uid="lnk23" id="link_AuthUser_UC9"><path d="M84.34,528.03 C97.81,572.49 126.31,645.17 177,686 C194.08,699.76 209.8622,707.0883 231.0122,712.8683" fill="none" id="AuthUser-to-UC9" style="stroke:#E7E7E7;stroke-width:1;"/><polygon fill="#E7E7E7" points="236.8,714.45,229.1728,708.2189,231.9769,713.1319,227.0639,715.9359,236.8,714.45" style="stroke:#E7E7E7;stroke-width:1;"/></g><!--SRC=[VP4xRiCm341tdOBmxg7vPoaGPCZIgO0Fe5gqBI2I38fE41IzUyLKGMkrg3OzFLBydB5Zu01a-u71MCAMRV1AwPO3GNMOU43FjjMC1fg8L86E85WkIac0zlqPeH8G8KvlTRn5HbV1ku9qfeYjZabunTwc1uAhvG5IOdY8AMLpV9hRBw47wxzSTuEMq4Wb-XoplvZxpMXIaQAE53gRAhA-2-IqD9H3bh-_21FdnvNwcFLpeZ2D__Lp99GVDNYyGYzsphIUUmTZ87WKG39iFPCtvP1SkE2ttr5mHSIsw0Br1Gjbz-TiPEHt2xnscDMzj2sxWxf-lg_XnsMX7glEO5c2bL8bMfTWKu9j2NObsAjF]--></g></svg>