<svg xmlns="http://www.w3.org/2000/svg" xmlns:xlink="http://www.w3.org/1999/xlink" contentStyleType="text/css" data-diagram-type="CLASS" height="432px" preserveAspectRatio="none" style="width:1235px;height:432px;background:#FFFFFF;" version="1.1" viewBox="0 0 1235 432" width="1235px" zoomAndPan="magnify"><defs/><g><!--cluster domain--><g class="cluster" data-entity="domain" data-source-line="19" data-uid="ent0002" id="cluster_domain"><path d="M8.5,6 L67.9404,6 A3.75,3.75 0 0 1 70.4404,8.5 L77.4404,28.2969 L1225.5,28.2969 A2.5,2.5 0 0 1 1228,30.7969 L1228,422.5 A2.5,2.5 0 0 1 1225.5,425 L8.5,425 A2.5,2.5 0 0 1 6,422.5 L6,8.5 A2.5,2.5 0 0 1 8.5,6" fill="none" style="stroke:#000000;stroke-width:1.5;"/><line style="stroke:#000000;stroke-width:1.5;" x1="6" x2="77.4404" y1="28.2969" y2="28.2969"/><text fill="#000000" font-family="sans-serif" font-size="14" font-weight="bold" lengthAdjust="spacing" textLength="58.4404" x="10" y="20.9951">domain</text></g><!--cluster user--><g class="cluster" data-entity="user" data-source-line="20" data-uid="ent0003" id="cluster_user"><path d="M860.5,229 L896.1992,229 A3.75,3.75 0 0 1 898.6992,231.5 L905.6992,251.2969 L1182.5,251.2969 A2.5,2.5 0 0 1 1185,253.7969 L1185,398.5 A2.5,2.5 0 0 1 1182.5,401 L860.5,401 A2.5,2.5 0 0 1 858,398.5 L858,231.5 A2.5,2.5 0 0 1 860.5,229" fill="none" style="stroke:#000000;stroke-width:1.5;"/><line style="stroke:#000000;stroke-width:1.5;" x1="858" x2="905.6992" y1="251.2969" y2="251.2969"/><text fill="#000000" font-family="sans-serif" font-size="14" font-weight="bold" lengthAdjust="spacing" textLength="34.6992" x="862" y="243.9951">user</text></g><!--cluster group--><g class="cluster" data-entity="group" data-source-line="33" data-uid="ent0007" id="cluster_group"><path d="M841.5,49 L889.0322,49 A3.75,3.75 0 0 1 891.5322,51.5 L898.5322,71.2969 L1201.5,71.2969 A2.5,2.5 0 0 1 1204,73.7969 L1204,202.5 A2.5,2.5 0 0 1 1201.5,205 L841.5,205 A2.5,2.5 0 0 1 839,202.5 L839,51.5 A2.5,2.5 0 0 1 841.5,49" fill="none" style="stroke:#000000;stroke-width:1.5;"/><line style="stroke:#000000;stroke-width:1.5;" x1="839" x2="898.5322" y1="71.2969" y2="71.2969"/><text fill="#000000" font-family="sans-serif" font-size="14" font-weight="bold" lengthAdjust="spacing" textLength="46.5322" x="843" y="63.9951">group</text></g><!--cluster event--><g class="cluster" data-entity="event" data-source-line="46" data-uid="ent0012" id="cluster_event"><path d="M32.5,49 L78.2754,49 A3.75,3.75 0 0 1 80.7754,51.5 L87.7754,71.2969 L812.5,71.2969 A2.5,2.5 0 0 1 815,73.7969 L815,366 A2.5,2.5 0 0 1 812.5,368.5 L32.5,368.5 A2.5,2.5 0 0 1 30,366 L30,51.5 A2.5,2.5 0 0 1 32.5,49" fill="none" style="stroke:#000000;stroke-width:1.5;"/><line style="stroke:#000000;stroke-width:1.5;" x1="30" x2="87.7754" y1="71.2969" y2="71.2969"/><text fill="#000000" font-family="sans-serif" font-size="14" font-weight="bold" lengthAdjust="spacing" textLength="44.7754" x="34" y="63.9951">event</text></g><!--class User--><g class="entity" data-entity="User" data-source-line="21" data-uid="ent0004" id="entity_User"><rect fill="#F1F1F1" height="121.4531" rx="2.5" ry="2.5" style="stroke:#181818;stroke-width:0.5;" width="143.6602" x="874" y="264"/><ellipse cx="918.7568" cy="284.1328" fill="#B4A7E5" rx="11" ry="11" style="stroke:#181818;stroke-width:1;"/><path d="M914.6787,279.8984 L914.6787,277.7422 L922.0693,277.7422 L922.0693,279.8984 L919.6006,279.8984 L919.6006,287.9766 L922.0693,287.9766 L922.0693,290.1328 L914.6787,290.1328 L914.6787,287.9766 L917.1475,287.9766 L917.1475,279.8984 L914.6787,279.8984 Z " fill="#000000"/><text fill="#000000" font-family="sans-serif" font-size="12" font-style="italic" lengthAdjust="spacing" textLength="49.6465" x="937.2568" y="280.1387">&#171;entity&#187;</text><text fill="#000000" font-family="sans-serif" font-size="14" font-style="italic" lengthAdjust="spacing" textLength="31.9102" x="946.125" y="295.9639">User</text><line style="stroke:#181818;stroke-width:0.5;" x1="875" x2="1016.6602" y1="304.2656" y2="304.2656"/><ellipse cx="885" cy="317.9141" fill="none" rx="3" ry="3" style="stroke:#038048;stroke-width:1;"/><text fill="#000000" font-family="sans-serif" font-size="14" lengthAdjust="spacing" textLength="66.8691" x="894" y="321.2607">id: UserId</text><ellipse cx="885" cy="334.2109" fill="none" rx="3" ry="3" style="stroke:#038048;stroke-width:1;"/><text fill="#000000" font-family="sans-serif" font-size="14" lengthAdjust="spacing" textLength="90.6514" x="894" y="337.5576">name: String</text><ellipse cx="885" cy="350.5078" fill="none" rx="3" ry="3" style="stroke:#038048;stroke-width:1;"/><text fill="#000000" font-family="sans-serif" font-size="14" lengthAdjust="spacing" textLength="89.5576" x="894" y="353.8545">email: String</text><ellipse cx="885" cy="366.8047" fill="none" rx="3" ry="3" style="stroke:#038048;stroke-width:1;"/><text fill="#000000" font-family="sans-serif" font-size="14" lengthAdjust="spacing" textLength="117.6602" x="894" y="370.1514">password: String</text><line style="stroke:#181818;stroke-width:0.5;" x1="875" x2="1016.6602" y1="377.4531" y2="377.4531"/></g><!--class UserId--><g class="entity" data-entity="UserId" data-source-line="27" data-uid="ent0005" id="entity_UserId"><rect fill="#F1F1F1" height="72.5625" rx="2.5" ry="2.5" style="stroke:#181818;stroke-width:0.5;" width="116.3828" x="1053" y="288"/><ellipse cx="1068" cy="308.1328" fill="#B4A7E5" rx="11" ry="11" style="stroke:#181818;stroke-width:1;"/><path d="M1063.9219,303.8984 L1063.9219,301.7422 L1071.3125,301.7422 L1071.3125,303.8984 L1068.8438,303.8984 L1068.8438,311.9766 L1071.3125,311.9766 L1071.3125,314.1328 L1063.9219,314.1328 L1063.9219,311.9766 L1066.3906,311.9766 L1066.3906,303.8984 L1063.9219,303.8984 Z " fill="#000000"/><text fill="#000000" font-family="sans-serif" font-size="12" font-style="italic" lengthAdjust="spacing" textLength="88.3828" x="1080" y="304.1387">&#171;value object&#187;</text><text fill="#000000" font-family="sans-serif" font-size="14" font-style="italic" lengthAdjust="spacing" textLength="44.9258" x="1101.7285" y="319.9639">UserId</text><line style="stroke:#181818;stroke-width:0.5;" x1="1054" x2="1168.3828" y1="328.2656" y2="328.2656"/><ellipse cx="1064" cy="341.9141" fill="none" rx="3" ry="3" style="stroke:#038048;stroke-width:1;"/><text fill="#000000" font-family="sans-serif" font-size="14" lengthAdjust="spacing" textLength="82.8105" x="1073" y="345.2607">value: UUID</text><line style="stroke:#181818;stroke-width:0.5;" x1="1054" x2="1168.3828" y1="352.5625" y2="352.5625"/></g><!--class Group--><g class="entity" data-entity="Group" data-source-line="34" data-uid="ent0008" id="entity_Group"><rect fill="#F1F1F1" height="105.1563" rx="2.5" ry="2.5" style="stroke:#181818;stroke-width:0.5;" width="181.4492" x="855.5" y="84"/><ellipse cx="919.1514" cy="104.1328" fill="#B4A7E5" rx="11" ry="11" style="stroke:#181818;stroke-width:1;"/><path d="M915.0732,99.8984 L915.0732,97.7422 L922.4639,97.7422 L922.4639,99.8984 L919.9951,99.8984 L919.9951,107.9766 L922.4639,107.9766 L922.4639,110.1328 L915.0732,110.1328 L915.0732,107.9766 L917.542,107.9766 L917.542,99.8984 L915.0732,99.8984 Z " fill="#000000"/><text fill="#000000" font-family="sans-serif" font-size="12" font-style="italic" lengthAdjust="spacing" textLength="49.6465" x="937.6514" y="100.1387">&#171;entity&#187;</text><text fill="#000000" font-family="sans-serif" font-size="14" font-style="italic" lengthAdjust="spacing" textLength="42.9297" x="941.0098" y="115.9639">Group</text><line style="stroke:#181818;stroke-width:0.5;" x1="856.5" x2="1035.9492" y1="124.2656" y2="124.2656"/><ellipse cx="866.5" cy="137.9141" fill="none" rx="3" ry="3" style="stroke:#038048;stroke-width:1;"/><text fill="#000000" font-family="sans-serif" font-size="14" lengthAdjust="spacing" textLength="77.8887" x="875.5" y="141.2607">id: GroupId</text><ellipse cx="866.5" cy="154.2109" fill="none" rx="3" ry="3" style="stroke:#038048;stroke-width:1;"/><text fill="#000000" font-family="sans-serif" font-size="14" lengthAdjust="spacing" textLength="90.6514" x="875.5" y="157.5576">name: String</text><ellipse cx="866.5" cy="170.5078" fill="none" rx="3" ry="3" style="stroke:#038048;stroke-width:1;"/><text fill="#000000" font-family="sans-serif" font-size="14" lengthAdjust="spacing" textLength="155.4492" x="875.5" y="173.8545">members: List&lt;User&gt;</text><line style="stroke:#181818;stroke-width:0.5;" x1="856.5" x2="1035.9492" y1="181.1563" y2="181.1563"/></g><!--class GroupId--><g class="entity" data-entity="GroupId" data-source-line="39" data-uid="ent0009" id="entity_GroupId"><rect fill="#F1F1F1" height="72.5625" rx="2.5" ry="2.5" style="stroke:#181818;stroke-width:0.5;" width="116.3828" x="1072" y="100"/><ellipse cx="1087" cy="120.1328" fill="#B4A7E5" rx="11" ry="11" style="stroke:#181818;stroke-width:1;"/><path d="M1082.9219,115.8984 L1082.9219,113.7422 L1090.3125,113.7422 L1090.3125,115.8984 L1087.8438,115.8984 L1087.8438,123.9766 L1090.3125,123.9766 L1090.3125,126.1328 L1082.9219,126.1328 L1082.9219,123.9766 L1085.3906,123.9766 L1085.3906,115.8984 L1082.9219,115.8984 Z " fill="#000000"/><text fill="#000000" font-family="sans-serif" font-size="12" font-style="italic" lengthAdjust="spacing" textLength="88.3828" x="1099" y="116.1387">&#171;value object&#187;</text><text fill="#000000" font-family="sans-serif" font-size="14" font-style="italic" lengthAdjust="spacing" textLength="55.9453" x="1115.2188" y="131.9639">GroupId</text><line style="stroke:#181818;stroke-width:0.5;" x1="1073" x2="1187.3828" y1="140.2656" y2="140.2656"/><ellipse cx="1083" cy="153.9141" fill="none" rx="3" ry="3" style="stroke:#038048;stroke-width:1;"/><text fill="#000000" font-family="sans-serif" font-size="14" lengthAdjust="spacing" textLength="82.8105" x="1092" y="157.2607">value: UUID</text><line style="stroke:#181818;stroke-width:0.5;" x1="1073" x2="1187.3828" y1="164.5625" y2="164.5625"/></g><!--class DomainEvent--><g class="entity" data-entity="DomainEvent" data-source-line="47" data-uid="ent0013" id="entity_DomainEvent"><rect fill="#F1F1F1" height="56.2656" rx="2.5" ry="2.5" style="stroke:#181818;stroke-width:0.5;" width="126.4316" x="408" y="296.5"/><ellipse cx="423" cy="316.6328" fill="#B4A7E5" rx="11" ry="11" style="stroke:#181818;stroke-width:1;"/><path d="M418.9219,312.3984 L418.9219,310.2422 L426.3125,310.2422 L426.3125,312.3984 L423.8438,312.3984 L423.8438,320.4766 L426.3125,320.4766 L426.3125,322.6328 L418.9219,322.6328 L418.9219,320.4766 L421.3906,320.4766 L421.3906,312.3984 L418.9219,312.3984 Z " fill="#000000"/><text fill="#000000" font-family="sans-serif" font-size="12" font-style="italic" lengthAdjust="spacing" textLength="48.9902" x="459.7207" y="312.6387">&#171;event&#187;</text><text fill="#000000" font-family="sans-serif" font-size="14" font-style="italic" lengthAdjust="spacing" textLength="94.4316" x="437" y="328.4639">DomainEvent</text><line style="stroke:#181818;stroke-width:0.5;" x1="409" x2="533.4316" y1="336.7656" y2="336.7656"/><line style="stroke:#181818;stroke-width:0.5;" x1="409" x2="533.4316" y1="344.7656" y2="344.7656"/></g><!--class UserCreated--><g class="entity" data-entity="UserCreated" data-source-line="50" data-uid="ent0014" id="entity_UserCreated"><rect fill="#F1F1F1" height="105.1563" rx="2.5" ry="2.5" style="stroke:#181818;stroke-width:0.5;" width="123.6445" x="675" y="84"/><ellipse cx="691.8097" cy="104.1328" fill="#ADD1B2" rx="11" ry="11" style="stroke:#181818;stroke-width:1;"/><path d="M694.7784,109.7734 Q694.2003,110.0703 693.5597,110.2109 Q692.919,110.3672 692.2159,110.3672 Q689.7159,110.3672 688.3878,108.7266 Q687.0753,107.0703 687.0753,103.9453 Q687.0753,100.8203 688.3878,99.1641 Q689.7159,97.5078 692.2159,97.5078 Q692.919,97.5078 693.5597,97.6641 Q694.2159,97.8203 694.7784,98.1172 L694.7784,100.8359 Q694.1534,100.2578 693.5597,99.9922 Q692.9659,99.7109 692.3409,99.7109 Q690.9972,99.7109 690.3097,100.7891 Q689.6222,101.8516 689.6222,103.9453 Q689.6222,106.0391 690.3097,107.1172 Q690.9972,108.1797 692.3409,108.1797 Q692.9659,108.1797 693.5597,107.9141 Q694.1534,107.6328 694.7784,107.0547 L694.7784,109.7734 Z " fill="#000000"/><text fill="#000000" font-family="sans-serif" font-size="12" font-style="italic" lengthAdjust="spacing" textLength="48.9902" x="725.5282" y="100.1387">&#171;event&#187;</text><text fill="#000000" font-family="sans-serif" font-size="14" lengthAdjust="spacing" textLength="87.623" x="706.2118" y="115.9639">UserCreated</text><line style="stroke:#181818;stroke-width:0.5;" x1="676" x2="797.6445" y1="124.2656" y2="124.2656"/><ellipse cx="686" cy="137.9141" fill="none" rx="3" ry="3" style="stroke:#038048;stroke-width:1;"/><text fill="#000000" font-family="sans-serif" font-size="14" lengthAdjust="spacing" textLength="97.6445" x="695" y="141.2607">userId: UserId</text><ellipse cx="686" cy="154.2109" fill="none" rx="3" ry="3" style="stroke:#038048;stroke-width:1;"/><text fill="#000000" font-family="sans-serif" font-size="14" lengthAdjust="spacing" textLength="90.6514" x="695" y="157.5576">name: String</text><ellipse cx="686" cy="170.5078" fill="none" rx="3" ry="3" style="stroke:#038048;stroke-width:1;"/><text fill="#000000" font-family="sans-serif" font-size="14" lengthAdjust="spacing" textLength="89.5576" x="695" y="173.8545">email: String</text><line style="stroke:#181818;stroke-width:0.5;" x1="676" x2="797.6445" y1="181.1563" y2="181.1563"/></g><!--class GroupCreated--><g class="entity" data-entity="GroupCreated" data-source-line="55" data-uid="ent0015" id="entity_GroupCreated"><rect fill="#F1F1F1" height="88.8594" rx="2.5" ry="2.5" style="stroke:#181818;stroke-width:0.5;" width="145.0957" x="494.5" y="92"/><ellipse cx="516.0039" cy="112.1328" fill="#ADD1B2" rx="11" ry="11" style="stroke:#181818;stroke-width:1;"/><path d="M518.9727,117.7734 Q518.3945,118.0703 517.7539,118.2109 Q517.1133,118.3672 516.4102,118.3672 Q513.9102,118.3672 512.582,116.7266 Q511.2695,115.0703 511.2695,111.9453 Q511.2695,108.8203 512.582,107.1641 Q513.9102,105.5078 516.4102,105.5078 Q517.1133,105.5078 517.7539,105.6641 Q518.4102,105.8203 518.9727,106.1172 L518.9727,108.8359 Q518.3477,108.2578 517.7539,107.9922 Q517.1602,107.7109 516.5352,107.7109 Q515.1914,107.7109 514.5039,108.7891 Q513.8164,109.8516 513.8164,111.9453 Q513.8164,114.0391 514.5039,115.1172 Q515.1914,116.1797 516.5352,116.1797 Q517.1602,116.1797 517.7539,115.9141 Q518.3477,115.6328 518.9727,115.0547 L518.9727,117.7734 Z " fill="#000000"/><text fill="#000000" font-family="sans-serif" font-size="12" font-style="italic" lengthAdjust="spacing" textLength="48.9902" x="556.2754" y="108.1387">&#171;event&#187;</text><text fill="#000000" font-family="sans-serif" font-size="14" lengthAdjust="spacing" textLength="98.6426" x="531.4492" y="123.9639">GroupCreated</text><line style="stroke:#181818;stroke-width:0.5;" x1="495.5" x2="638.5957" y1="132.2656" y2="132.2656"/><ellipse cx="505.5" cy="145.9141" fill="none" rx="3" ry="3" style="stroke:#038048;stroke-width:1;"/><text fill="#000000" font-family="sans-serif" font-size="14" lengthAdjust="spacing" textLength="119.0957" x="514.5" y="149.2607">groupId: GroupId</text><ellipse cx="505.5" cy="162.2109" fill="none" rx="3" ry="3" style="stroke:#038048;stroke-width:1;"/><text fill="#000000" font-family="sans-serif" font-size="14" lengthAdjust="spacing" textLength="90.6514" x="514.5" y="165.5576">name: String</text><line style="stroke:#181818;stroke-width:0.5;" x1="495.5" x2="638.5957" y1="172.8594" y2="172.8594"/></g><!--class UserAddedToGroup--><g class="entity" data-entity="UserAddedToGroup" data-source-line="59" data-uid="ent0016" id="entity_UserAddedToGroup"><rect fill="#F1F1F1" height="88.8594" rx="2.5" ry="2.5" style="stroke:#181818;stroke-width:0.5;" width="168.8076" x="290.5" y="92"/><ellipse cx="305.5" cy="112.1328" fill="#ADD1B2" rx="11" ry="11" style="stroke:#181818;stroke-width:1;"/><path d="M308.4688,117.7734 Q307.8906,118.0703 307.25,118.2109 Q306.6094,118.3672 305.9063,118.3672 Q303.4063,118.3672 302.0781,116.7266 Q300.7656,115.0703 300.7656,111.9453 Q300.7656,108.8203 302.0781,107.1641 Q303.4063,105.5078 305.9063,105.5078 Q306.6094,105.5078 307.25,105.6641 Q307.9063,105.8203 308.4688,106.1172 L308.4688,108.8359 Q307.8438,108.2578 307.25,107.9922 Q306.6563,107.7109 306.0313,107.7109 Q304.6875,107.7109 304,108.7891 Q303.3125,109.8516 303.3125,111.9453 Q303.3125,114.0391 304,115.1172 Q304.6875,116.1797 306.0313,116.1797 Q306.6563,116.1797 307.25,115.9141 Q307.8438,115.6328 308.4688,115.0547 L308.4688,117.7734 Z " fill="#000000"/><text fill="#000000" font-family="sans-serif" font-size="12" font-style="italic" lengthAdjust="spacing" textLength="48.9902" x="363.4087" y="108.1387">&#171;event&#187;</text><text fill="#000000" font-family="sans-serif" font-size="14" lengthAdjust="spacing" textLength="136.8076" x="319.5" y="123.9639">UserAddedToGroup</text><line style="stroke:#181818;stroke-width:0.5;" x1="291.5" x2="458.3076" y1="132.2656" y2="132.2656"/><ellipse cx="301.5" cy="145.9141" fill="none" rx="3" ry="3" style="stroke:#038048;stroke-width:1;"/><text fill="#000000" font-family="sans-serif" font-size="14" lengthAdjust="spacing" textLength="97.6445" x="310.5" y="149.2607">userId: UserId</text><ellipse cx="301.5" cy="162.2109" fill="none" rx="3" ry="3" style="stroke:#038048;stroke-width:1;"/><text fill="#000000" font-family="sans-serif" font-size="14" lengthAdjust="spacing" textLength="119.0957" x="310.5" y="165.5576">groupId: GroupId</text><line style="stroke:#181818;stroke-width:0.5;" x1="291.5" x2="458.3076" y1="172.8594" y2="172.8594"/></g><!--class UserRemovedFromGroup--><g class="entity" data-entity="UserRemovedFromGroup" data-source-line="63" data-uid="ent0017" id="entity_UserRemovedFromGroup"><rect fill="#F1F1F1" height="88.8594" rx="2.5" ry="2.5" style="stroke:#181818;stroke-width:0.5;" width="209.1807" x="46.5" y="92"/><ellipse cx="61.5" cy="112.1328" fill="#ADD1B2" rx="11" ry="11" style="stroke:#181818;stroke-width:1;"/><path d="M64.4688,117.7734 Q63.8906,118.0703 63.25,118.2109 Q62.6094,118.3672 61.9063,118.3672 Q59.4063,118.3672 58.0781,116.7266 Q56.7656,115.0703 56.7656,111.9453 Q56.7656,108.8203 58.0781,107.1641 Q59.4063,105.5078 61.9063,105.5078 Q62.6094,105.5078 63.25,105.6641 Q63.9063,105.8203 64.4688,106.1172 L64.4688,108.8359 Q63.8438,108.2578 63.25,107.9922 Q62.6563,107.7109 62.0313,107.7109 Q60.6875,107.7109 60,108.7891 Q59.3125,109.8516 59.3125,111.9453 Q59.3125,114.0391 60,115.1172 Q60.6875,116.1797 62.0313,116.1797 Q62.6563,116.1797 63.25,115.9141 Q63.8438,115.6328 64.4688,115.0547 L64.4688,117.7734 Z " fill="#000000"/><text fill="#000000" font-family="sans-serif" font-size="12" font-style="italic" lengthAdjust="spacing" textLength="48.9902" x="139.5952" y="108.1387">&#171;event&#187;</text><text fill="#000000" font-family="sans-serif" font-size="14" lengthAdjust="spacing" textLength="177.1807" x="75.5" y="123.9639">UserRemovedFromGroup</text><line style="stroke:#181818;stroke-width:0.5;" x1="47.5" x2="254.6807" y1="132.2656" y2="132.2656"/><ellipse cx="57.5" cy="145.9141" fill="none" rx="3" ry="3" style="stroke:#038048;stroke-width:1;"/><text fill="#000000" font-family="sans-serif" font-size="14" lengthAdjust="spacing" textLength="97.6445" x="66.5" y="149.2607">userId: UserId</text><ellipse cx="57.5" cy="162.2109" fill="none" rx="3" ry="3" style="stroke:#038048;stroke-width:1;"/><text fill="#000000" font-family="sans-serif" font-size="14" lengthAdjust="spacing" textLength="119.0957" x="66.5" y="165.5576">groupId: GroupId</text><line style="stroke:#181818;stroke-width:0.5;" x1="47.5" x2="254.6807" y1="172.8594" y2="172.8594"/></g><!--link User to UserId--><g class="link" data-entity-1="User" data-entity-2="UserId" data-source-line="30" data-uid="lnk6" id="link_User_UserId"><path codeLine="30" d="M1030.19,324.5 C1041.79,324.5 1035.39,324.5 1046.99,324.5" fill="none" id="User-UserId" style="stroke:#181818;stroke-width:1;"/><polygon fill="#181818" points="1018.19,324.5,1024.19,328.5,1030.19,324.5,1024.19,320.5,1018.19,324.5" style="stroke:#181818;stroke-width:1;"/><polygon fill="#181818" points="1052.99,324.5,1043.99,320.5,1047.99,324.5,1043.99,328.5,1052.99,324.5" style="stroke:#181818;stroke-width:1;"/><text fill="#000000" font-family="sans-serif" font-size="13" lengthAdjust="spacing" textLength="8.271" x="1036.6499" y="320.5974">1</text></g><!--link Group to GroupId--><g class="link" data-entity-1="Group" data-entity-2="GroupId" data-source-line="42" data-uid="lnk10" id="link_Group_GroupId"><path codeLine="42" d="M1048.56,136.5 C1060.36,136.5 1054.17,136.5 1065.97,136.5" fill="none" id="Group-GroupId" style="stroke:#181818;stroke-width:1;"/><polygon fill="#181818" points="1036.56,136.5,1042.56,140.5,1048.56,136.5,1042.56,132.5,1036.56,136.5" style="stroke:#181818;stroke-width:1;"/><polygon fill="#181818" points="1071.97,136.5,1062.97,132.5,1066.97,136.5,1062.97,140.5,1071.97,136.5" style="stroke:#181818;stroke-width:1;"/><text fill="#000000" font-family="sans-serif" font-size="13" lengthAdjust="spacing" textLength="8.271" x="1055.6272" y="132.5974">1</text></g><!--link Group to User--><g class="link" data-entity-1="Group" data-entity-2="User" data-source-line="43" data-uid="lnk11" id="link_Group_User"><path codeLine="43" d="M946,189.31 C946,212.42 946,233.79 946,257.75" fill="none" id="Group-to-User" style="stroke:#181818;stroke-width:1;"/><polygon fill="#181818" points="946,263.75,950,254.75,946,258.75,942,254.75,946,263.75" style="stroke:#181818;stroke-width:1;"/><text fill="#000000" font-family="sans-serif" font-size="13" lengthAdjust="spacing" textLength="23.0356" x="921.692" y="252.907">0..*</text></g><!--link UserCreated to DomainEvent--><g class="link" data-entity-1="UserCreated" data-entity-2="DomainEvent" data-source-line="68" data-uid="lnk18" id="link_UserCreated_DomainEvent"><path codeLine="68" d="M685.53,189.18 C676.33,197.5 666.61,205.75 657,213 C614.42,245.12 577.6771,267.0266 539.2971,287.8166" fill="none" id="UserCreated-to-DomainEvent" style="stroke:#181818;stroke-width:1;stroke-dasharray:7.0,7.0;"/><polygon fill="none" points="523.47,296.39,542.1549,293.0923,536.4393,282.5409,523.47,296.39" style="stroke:#181818;stroke-width:1;"/></g><!--link GroupCreated to DomainEvent--><g class="link" data-entity-1="GroupCreated" data-entity-2="DomainEvent" data-source-line="69" data-uid="lnk19" id="link_GroupCreated_DomainEvent"><path codeLine="69" d="M544.49,181.11 C526.09,216.76 508.9044,250.0542 493.2944,280.3042" fill="none" id="GroupCreated-to-DomainEvent" style="stroke:#181818;stroke-width:1;stroke-dasharray:7.0,7.0;"/><polygon fill="none" points="485.04,296.3,498.6263,283.0557,487.9624,277.5527,485.04,296.3" style="stroke:#181818;stroke-width:1;"/></g><!--link UserAddedToGroup to DomainEvent--><g class="link" data-entity-1="UserAddedToGroup" data-entity-2="DomainEvent" data-source-line="70" data-uid="lnk20" id="link_UserAddedToGroup_DomainEvent"><path codeLine="70" d="M397.51,181.11 C415.91,216.76 433.0956,250.0542 448.7056,280.3042" fill="none" id="UserAddedToGroup-to-DomainEvent" style="stroke:#181818;stroke-width:1;stroke-dasharray:7.0,7.0;"/><polygon fill="none" points="456.96,296.3,454.0376,277.5527,443.3737,283.0557,456.96,296.3" style="stroke:#181818;stroke-width:1;"/></g><!--link UserRemovedFromGroup to DomainEvent--><g class="link" data-entity-1="UserRemovedFromGroup" data-entity-2="DomainEvent" data-source-line="71" data-uid="lnk21" id="link_UserRemovedFromGroup_DomainEvent"><path codeLine="71" d="M220.35,181.17 C237.47,191.74 255.82,202.9 273,213 C322.88,242.33 364.967,265.7739 405.217,287.7839" fill="none" id="UserRemovedFromGroup-to-DomainEvent" style="stroke:#181818;stroke-width:1;stroke-dasharray:7.0,7.0;"/><polygon fill="none" points="421.01,296.42,408.0957,282.5196,402.3383,293.0482,421.01,296.42" style="stroke:#181818;stroke-width:1;"/></g><!--SRC=[hLBDJeGm4Bxp59Czhe7ebH0IuweXyQJk0tJfY5LAIIaOetrtIuiiksNNrNYXoNp3V3ypDSbVIO501IUiWey0e1vAROFI5W1OfL0-aHnXtHUJ12l5r7kQ3ZZ06J0QMpIZOwaY76DuK99LnLX4GrHwrPeqpPkGT0VGC-GPDVGTALi4iNd1NEs8i83HiSvMambMz3AKh7XMOGgBYyLMgGucbWifsjhpV6kh1qrR-2VN7Fa6PHF37MjKqhEdinQ7OR_tw4JkcfmgStZO8-THj7G91ExlIGBO6PTU0Yjx7TSMCpdqxoZ9qTjFNfejsi5N4eb2wZNt-biR_L-FHK-OhATZL8KBu8GTwJq3bvGYVHJZwazrCSkuF_mUkUYGtaZ1_vDWlFNlIABeCvtkRdi8Hpiy_mUxF2CpdJhGNm00]--></g></svg>