<svg xmlns="http://www.w3.org/2000/svg" xmlns:xlink="http://www.w3.org/1999/xlink" contentStyleType="text/css" data-diagram-type="CLASS" height="473px" preserveAspectRatio="none" style="width:1655px;height:473px;background:#FFFFFF;" version="1.1" viewBox="0 0 1655 473" width="1655px" zoomAndPan="magnify"><defs/><g><!--cluster application--><g class="cluster" data-entity="application" data-source-line="99" data-uid="ent0002" id="cluster_application"><path d="M8.5,6 L97.4102,6 A3.75,3.75 0 0 1 99.9102,8.5 L106.9102,28.2969 L1645.5,28.2969 A2.5,2.5 0 0 1 1648,30.7969 L1648,463.5 A2.5,2.5 0 0 1 1645.5,466 L8.5,466 A2.5,2.5 0 0 1 6,463.5 L6,8.5 A2.5,2.5 0 0 1 8.5,6" fill="none" style="stroke:#000000;stroke-width:1.5;"/><line style="stroke:#000000;stroke-width:1.5;" x1="6" x2="106.9102" y1="28.2969" y2="28.2969"/><text fill="#000000" font-family="sans-serif" font-size="14" font-weight="bold" lengthAdjust="spacing" textLength="87.9102" x="10" y="20.9951">application</text></g><!--cluster repository--><g class="cluster" data-entity="repository" data-source-line="100" data-uid="ent0003" id="cluster_repository"><path d="M32.5,270 L115.0117,270 A3.75,3.75 0 0 1 117.5117,272.5 L124.5117,292.2969 L831.5,292.2969 A2.5,2.5 0 0 1 834,294.7969 L834,439.5 A2.5,2.5 0 0 1 831.5,442 L32.5,442 A2.5,2.5 0 0 1 30,439.5 L30,272.5 A2.5,2.5 0 0 1 32.5,270" fill="none" style="stroke:#000000;stroke-width:1.5;"/><line style="stroke:#000000;stroke-width:1.5;" x1="30" x2="124.5117" y1="292.2969" y2="292.2969"/><text fill="#000000" font-family="sans-serif" font-size="14" font-weight="bold" lengthAdjust="spacing" textLength="81.5117" x="34" y="284.9951">repository</text></g><!--cluster service--><g class="cluster" data-entity="service" data-source-line="117" data-uid="ent0006" id="cluster_service"><path d="M471.5,49 L528.9512,49 A3.75,3.75 0 0 1 531.4512,51.5 L538.4512,71.2969 L1417.5,71.2969 A2.5,2.5 0 0 1 1420,73.7969 L1420,218.5 A2.5,2.5 0 0 1 1417.5,221 L471.5,221 A2.5,2.5 0 0 1 469,218.5 L469,51.5 A2.5,2.5 0 0 1 471.5,49" fill="none" style="stroke:#000000;stroke-width:1.5;"/><line style="stroke:#000000;stroke-width:1.5;" x1="469" x2="538.4512" y1="71.2969" y2="71.2969"/><text fill="#000000" font-family="sans-serif" font-size="14" font-weight="bold" lengthAdjust="spacing" textLength="56.4512" x="473" y="63.9951">service</text></g><!--cluster event--><g class="cluster" data-entity="event" data-source-line="135" data-uid="ent0012" id="cluster_event"><path d="M860.5,306.5 L906.2754,306.5 A3.75,3.75 0 0 1 908.7754,309 L915.7754,328.7969 L1621.5,328.7969 A2.5,2.5 0 0 1 1624,331.2969 L1624,403 A2.5,2.5 0 0 1 1621.5,405.5 L860.5,405.5 A2.5,2.5 0 0 1 858,403 L858,309 A2.5,2.5 0 0 1 860.5,306.5" fill="none" style="stroke:#000000;stroke-width:1.5;"/><line style="stroke:#000000;stroke-width:1.5;" x1="858" x2="915.7754" y1="328.7969" y2="328.7969"/><text fill="#000000" font-family="sans-serif" font-size="14" font-weight="bold" lengthAdjust="spacing" textLength="44.7754" x="862" y="321.4951">event</text></g><!--class UserRepository--><g class="entity" data-entity="UserRepository" data-source-line="101" data-uid="ent0004" id="entity_UserRepository"><rect fill="#F1F1F1" height="121.4531" rx="2.5" ry="2.5" style="stroke:#181818;stroke-width:0.5;" width="331.0059" x="46.5" y="305"/><ellipse cx="154.2617" cy="325.1328" fill="#B4A7E5" rx="11" ry="11" style="stroke:#181818;stroke-width:1;"/><path d="M150.1836,320.8984 L150.1836,318.7422 L157.5742,318.7422 L157.5742,320.8984 L155.1055,320.8984 L155.1055,328.9766 L157.5742,328.9766 L157.5742,331.1328 L150.1836,331.1328 L150.1836,328.9766 L152.6523,328.9766 L152.6523,320.8984 L150.1836,320.8984 Z " fill="#000000"/><text fill="#000000" font-family="sans-serif" font-size="12" font-style="italic" lengthAdjust="spacing" textLength="75.7559" x="190.375" y="321.1387">&#171;repository&#187;</text><text fill="#000000" font-family="sans-serif" font-size="14" font-style="italic" lengthAdjust="spacing" textLength="106.9824" x="174.7617" y="336.9639">UserRepository</text><line style="stroke:#181818;stroke-width:0.5;" x1="47.5" x2="376.5059" y1="345.2656" y2="345.2656"/><ellipse cx="57.5" cy="358.9141" fill="none" rx="3" ry="3" style="stroke:#038048;stroke-width:1;"/><text fill="#000000" font-family="sans-serif" font-size="14" lengthAdjust="spacing" textLength="305.0059" x="66.5" y="362.2607">TODO ADD METHODS FOR UPDATING USER</text><line style="stroke:#181818;stroke-width:0.5;" x1="47.5" x2="376.5059" y1="369.5625" y2="369.5625"/><ellipse cx="57.5" cy="383.2109" fill="#84BE84" rx="3" ry="3" style="stroke:#038048;stroke-width:1;"/><text fill="#000000" font-family="sans-serif" font-size="14" lengthAdjust="spacing" textLength="154.1025" x="66.5" y="386.5576">save(user: User): void</text><ellipse cx="57.5" cy="399.5078" fill="#84BE84" rx="3" ry="3" style="stroke:#038048;stroke-width:1;"/><text fill="#000000" font-family="sans-serif" font-size="14" lengthAdjust="spacing" textLength="176.3535" x="66.5" y="402.8545">findById(id: UserId): User</text><ellipse cx="57.5" cy="415.8047" fill="#84BE84" rx="3" ry="3" style="stroke:#038048;stroke-width:1;"/><text fill="#000000" font-family="sans-serif" font-size="14" lengthAdjust="spacing" textLength="165.4365" x="66.5" y="419.1514">delete(user: User): void</text></g><!--class GroupRepository--><g class="entity" data-entity="GroupRepository" data-source-line="108" data-uid="ent0005" id="entity_GroupRepository"><rect fill="#F1F1F1" height="121.4531" rx="2.5" ry="2.5" style="stroke:#181818;stroke-width:0.5;" width="404.8477" x="412.5" y="305"/><ellipse cx="551.6729" cy="325.1328" fill="#B4A7E5" rx="11" ry="11" style="stroke:#181818;stroke-width:1;"/><path d="M547.5947,320.8984 L547.5947,318.7422 L554.9854,318.7422 L554.9854,320.8984 L552.5166,320.8984 L552.5166,328.9766 L554.9854,328.9766 L554.9854,331.1328 L547.5947,331.1328 L547.5947,328.9766 L550.0635,328.9766 L550.0635,320.8984 L547.5947,320.8984 Z " fill="#000000"/><text fill="#000000" font-family="sans-serif" font-size="12" font-style="italic" lengthAdjust="spacing" textLength="75.7559" x="593.2959" y="321.1387">&#171;repository&#187;</text><text fill="#000000" font-family="sans-serif" font-size="14" font-style="italic" lengthAdjust="spacing" textLength="118.002" x="572.1729" y="336.9639">GroupRepository</text><line style="stroke:#181818;stroke-width:0.5;" x1="413.5" x2="816.3477" y1="345.2656" y2="345.2656"/><ellipse cx="423.5" cy="358.9141" fill="none" rx="3" ry="3" style="stroke:#038048;stroke-width:1;"/><text fill="#000000" font-family="sans-serif" font-size="14" lengthAdjust="spacing" textLength="378.8477" x="432.5" y="362.2607">TODO ADD METHODS FOR ADDING/REMOVING USERS</text><line style="stroke:#181818;stroke-width:0.5;" x1="413.5" x2="816.3477" y1="369.5625" y2="369.5625"/><ellipse cx="423.5" cy="383.2109" fill="#84BE84" rx="3" ry="3" style="stroke:#038048;stroke-width:1;"/><text fill="#000000" font-family="sans-serif" font-size="14" lengthAdjust="spacing" textLength="175.5537" x="432.5" y="386.5576">save(group: Group): void</text><ellipse cx="423.5" cy="399.5078" fill="#84BE84" rx="3" ry="3" style="stroke:#038048;stroke-width:1;"/><text fill="#000000" font-family="sans-serif" font-size="14" lengthAdjust="spacing" textLength="198.3926" x="432.5" y="402.8545">findById(id: GroupId): Group</text><ellipse cx="423.5" cy="415.8047" fill="#84BE84" rx="3" ry="3" style="stroke:#038048;stroke-width:1;"/><text fill="#000000" font-family="sans-serif" font-size="14" lengthAdjust="spacing" textLength="186.8877" x="432.5" y="419.1514">delete(group: Group): void</text></g><!--class UserService--><g class="entity" data-entity="UserService" data-source-line="118" data-uid="ent0007" id="entity_UserService"><rect fill="#F1F1F1" height="121.4531" rx="2.5" ry="2.5" style="stroke:#181818;stroke-width:0.5;" width="470.3291" x="485" y="84"/><ellipse cx="674.0889" cy="104.1328" fill="#B4A7E5" rx="11" ry="11" style="stroke:#181818;stroke-width:1;"/><path d="M670.0107,99.8984 L670.0107,97.7422 L677.4014,97.7422 L677.4014,99.8984 L674.9326,99.8984 L674.9326,107.9766 L677.4014,107.9766 L677.4014,110.1328 L670.0107,110.1328 L670.0107,107.9766 L672.4795,107.9766 L672.4795,99.8984 L670.0107,99.8984 Z " fill="#000000"/><text fill="#000000" font-family="sans-serif" font-size="12" font-style="italic" lengthAdjust="spacing" textLength="57.7969" x="707.5161" y="100.1387">&#171;service&#187;</text><text fill="#000000" font-family="sans-serif" font-size="14" font-style="italic" lengthAdjust="spacing" textLength="83.6514" x="694.5889" y="115.9639">UserService</text><line style="stroke:#181818;stroke-width:0.5;" x1="486" x2="954.3291" y1="124.2656" y2="124.2656"/><ellipse cx="496" cy="137.9141" fill="none" rx="3" ry="3" style="stroke:#038048;stroke-width:1;"/><text fill="#000000" font-family="sans-serif" font-size="14" lengthAdjust="spacing" textLength="305.0059" x="505" y="141.2607">TODO ADD METHODS FOR UPDATING USER</text><line style="stroke:#181818;stroke-width:0.5;" x1="486" x2="954.3291" y1="148.5625" y2="148.5625"/><ellipse cx="496" cy="162.2109" fill="#84BE84" rx="3" ry="3" style="stroke:#038048;stroke-width:1;"/><text fill="#000000" font-family="sans-serif" font-size="14" lengthAdjust="spacing" textLength="444.3291" x="505" y="165.5576">createUser(name: String, email: String, password: String): User</text><ellipse cx="496" cy="178.5078" fill="#84BE84" rx="3" ry="3" style="stroke:#038048;stroke-width:1;"/><text fill="#000000" font-family="sans-serif" font-size="14" lengthAdjust="spacing" textLength="202.5693" x="505" y="181.8545">updateUser(user: User): void</text><ellipse cx="496" cy="194.8047" fill="#84BE84" rx="3" ry="3" style="stroke:#038048;stroke-width:1;"/><text fill="#000000" font-family="sans-serif" font-size="14" lengthAdjust="spacing" textLength="192.6025" x="505" y="198.1514">deleteUser(id: UserId): void</text></g><!--class GroupService--><g class="entity" data-entity="GroupService" data-source-line="125" data-uid="ent0008" id="entity_GroupService"><rect fill="#F1F1F1" height="121.4531" rx="2.5" ry="2.5" style="stroke:#181818;stroke-width:0.5;" width="413.6182" x="990" y="84"/><ellipse cx="1145.2236" cy="104.1328" fill="#B4A7E5" rx="11" ry="11" style="stroke:#181818;stroke-width:1;"/><path d="M1141.1455,99.8984 L1141.1455,97.7422 L1148.5361,97.7422 L1148.5361,99.8984 L1146.0674,99.8984 L1146.0674,107.9766 L1148.5361,107.9766 L1148.5361,110.1328 L1141.1455,110.1328 L1141.1455,107.9766 L1143.6143,107.9766 L1143.6143,99.8984 L1141.1455,99.8984 Z " fill="#000000"/><text fill="#000000" font-family="sans-serif" font-size="12" font-style="italic" lengthAdjust="spacing" textLength="57.7969" x="1184.1606" y="100.1387">&#171;service&#187;</text><text fill="#000000" font-family="sans-serif" font-size="14" font-style="italic" lengthAdjust="spacing" textLength="94.6709" x="1165.7236" y="115.9639">GroupService</text><line style="stroke:#181818;stroke-width:0.5;" x1="991" x2="1402.6182" y1="124.2656" y2="124.2656"/><ellipse cx="1001" cy="137.9141" fill="none" rx="3" ry="3" style="stroke:#038048;stroke-width:1;"/><text fill="#000000" font-family="sans-serif" font-size="14" lengthAdjust="spacing" textLength="378.8477" x="1010" y="141.2607">TODO ADD METHODS FOR ADDING/REMOVING USERS</text><line style="stroke:#181818;stroke-width:0.5;" x1="991" x2="1402.6182" y1="148.5625" y2="148.5625"/><ellipse cx="1001" cy="162.2109" fill="#84BE84" rx="3" ry="3" style="stroke:#038048;stroke-width:1;"/><text fill="#000000" font-family="sans-serif" font-size="14" lengthAdjust="spacing" textLength="241.3496" x="1010" y="165.5576">createGroup(name: String): Group</text><ellipse cx="1001" cy="178.5078" fill="#84BE84" rx="3" ry="3" style="stroke:#038048;stroke-width:1;"/><text fill="#000000" font-family="sans-serif" font-size="14" lengthAdjust="spacing" textLength="341.6055" x="1010" y="181.8545">addUserToGroup(user: User, group: Group): void</text><ellipse cx="1001" cy="194.8047" fill="#84BE84" rx="3" ry="3" style="stroke:#038048;stroke-width:1;"/><text fill="#000000" font-family="sans-serif" font-size="14" lengthAdjust="spacing" textLength="387.6182" x="1010" y="198.1514">removeUserFromGroup(user: User, group: Group): void</text></g><!--class UserCreated--><g class="entity" data-entity="UserCreated" data-source-line="135" data-uid="ent0011" id="entity_UserCreated"><rect fill="#F1F1F1" height="48" rx="2.5" ry="2.5" style="stroke:#181818;stroke-width:0.5;" width="119.623" x="874" y="341.5"/><ellipse cx="889" cy="357.5" fill="#ADD1B2" rx="11" ry="11" style="stroke:#181818;stroke-width:1;"/><path d="M891.9688,363.1406 Q891.3906,363.4375 890.75,363.5781 Q890.1094,363.7344 889.4063,363.7344 Q886.9063,363.7344 885.5781,362.0938 Q884.2656,360.4375 884.2656,357.3125 Q884.2656,354.1875 885.5781,352.5313 Q886.9063,350.875 889.4063,350.875 Q890.1094,350.875 890.75,351.0313 Q891.4063,351.1875 891.9688,351.4844 L891.9688,354.2031 Q891.3438,353.625 890.75,353.3594 Q890.1563,353.0781 889.5313,353.0781 Q888.1875,353.0781 887.5,354.1563 Q886.8125,355.2188 886.8125,357.3125 Q886.8125,359.4063 887.5,360.4844 Q888.1875,361.5469 889.5313,361.5469 Q890.1563,361.5469 890.75,361.2813 Q891.3438,361 891.9688,360.4219 L891.9688,363.1406 Z " fill="#000000"/><text fill="#000000" font-family="sans-serif" font-size="14" lengthAdjust="spacing" textLength="87.623" x="903" y="362.3467">UserCreated</text><line style="stroke:#181818;stroke-width:0.5;" x1="875" x2="992.623" y1="373.5" y2="373.5"/><line style="stroke:#181818;stroke-width:0.5;" x1="875" x2="992.623" y1="381.5" y2="381.5"/></g><!--class GroupCreated--><g class="entity" data-entity="GroupCreated" data-source-line="136" data-uid="ent0014" id="entity_GroupCreated"><rect fill="#F1F1F1" height="48" rx="2.5" ry="2.5" style="stroke:#181818;stroke-width:0.5;" width="130.6426" x="1273.5" y="341.5"/><ellipse cx="1288.5" cy="357.5" fill="#ADD1B2" rx="11" ry="11" style="stroke:#181818;stroke-width:1;"/><path d="M1291.4688,363.1406 Q1290.8906,363.4375 1290.25,363.5781 Q1289.6094,363.7344 1288.9063,363.7344 Q1286.4063,363.7344 1285.0781,362.0938 Q1283.7656,360.4375 1283.7656,357.3125 Q1283.7656,354.1875 1285.0781,352.5313 Q1286.4063,350.875 1288.9063,350.875 Q1289.6094,350.875 1290.25,351.0313 Q1290.9063,351.1875 1291.4688,351.4844 L1291.4688,354.2031 Q1290.8438,353.625 1290.25,353.3594 Q1289.6563,353.0781 1289.0313,353.0781 Q1287.6875,353.0781 1287,354.1563 Q1286.3125,355.2188 1286.3125,357.3125 Q1286.3125,359.4063 1287,360.4844 Q1287.6875,361.5469 1289.0313,361.5469 Q1289.6563,361.5469 1290.25,361.2813 Q1290.8438,361 1291.4688,360.4219 L1291.4688,363.1406 Z " fill="#000000"/><text fill="#000000" font-family="sans-serif" font-size="14" lengthAdjust="spacing" textLength="98.6426" x="1302.5" y="362.3467">GroupCreated</text><line style="stroke:#181818;stroke-width:0.5;" x1="1274.5" x2="1403.1426" y1="373.5" y2="373.5"/><line style="stroke:#181818;stroke-width:0.5;" x1="1274.5" x2="1403.1426" y1="381.5" y2="381.5"/></g><!--class UserAddedToGroup--><g class="entity" data-entity="UserAddedToGroup" data-source-line="137" data-uid="ent0016" id="entity_UserAddedToGroup"><rect fill="#F1F1F1" height="48" rx="2.5" ry="2.5" style="stroke:#181818;stroke-width:0.5;" width="168.8076" x="1439.5" y="341.5"/><ellipse cx="1454.5" cy="357.5" fill="#ADD1B2" rx="11" ry="11" style="stroke:#181818;stroke-width:1;"/><path d="M1457.4688,363.1406 Q1456.8906,363.4375 1456.25,363.5781 Q1455.6094,363.7344 1454.9063,363.7344 Q1452.4063,363.7344 1451.0781,362.0938 Q1449.7656,360.4375 1449.7656,357.3125 Q1449.7656,354.1875 1451.0781,352.5313 Q1452.4063,350.875 1454.9063,350.875 Q1455.6094,350.875 1456.25,351.0313 Q1456.9063,351.1875 1457.4688,351.4844 L1457.4688,354.2031 Q1456.8438,353.625 1456.25,353.3594 Q1455.6563,353.0781 1455.0313,353.0781 Q1453.6875,353.0781 1453,354.1563 Q1452.3125,355.2188 1452.3125,357.3125 Q1452.3125,359.4063 1453,360.4844 Q1453.6875,361.5469 1455.0313,361.5469 Q1455.6563,361.5469 1456.25,361.2813 Q1456.8438,361 1457.4688,360.4219 L1457.4688,363.1406 Z " fill="#000000"/><text fill="#000000" font-family="sans-serif" font-size="14" lengthAdjust="spacing" textLength="136.8076" x="1468.5" y="362.3467">UserAddedToGroup</text><line style="stroke:#181818;stroke-width:0.5;" x1="1440.5" x2="1607.3076" y1="373.5" y2="373.5"/><line style="stroke:#181818;stroke-width:0.5;" x1="1440.5" x2="1607.3076" y1="381.5" y2="381.5"/></g><!--class UserRemovedFromGroup--><g class="entity" data-entity="UserRemovedFromGroup" data-source-line="138" data-uid="ent0018" id="entity_UserRemovedFromGroup"><rect fill="#F1F1F1" height="48" rx="2.5" ry="2.5" style="stroke:#181818;stroke-width:0.5;" width="209.1807" x="1029.5" y="341.5"/><ellipse cx="1044.5" cy="357.5" fill="#ADD1B2" rx="11" ry="11" style="stroke:#181818;stroke-width:1;"/><path d="M1047.4688,363.1406 Q1046.8906,363.4375 1046.25,363.5781 Q1045.6094,363.7344 1044.9063,363.7344 Q1042.4063,363.7344 1041.0781,362.0938 Q1039.7656,360.4375 1039.7656,357.3125 Q1039.7656,354.1875 1041.0781,352.5313 Q1042.4063,350.875 1044.9063,350.875 Q1045.6094,350.875 1046.25,351.0313 Q1046.9063,351.1875 1047.4688,351.4844 L1047.4688,354.2031 Q1046.8438,353.625 1046.25,353.3594 Q1045.6563,353.0781 1045.0313,353.0781 Q1043.6875,353.0781 1043,354.1563 Q1042.3125,355.2188 1042.3125,357.3125 Q1042.3125,359.4063 1043,360.4844 Q1043.6875,361.5469 1045.0313,361.5469 Q1045.6563,361.5469 1046.25,361.2813 Q1046.8438,361 1047.4688,360.4219 L1047.4688,363.1406 Z " fill="#000000"/><text fill="#000000" font-family="sans-serif" font-size="14" lengthAdjust="spacing" textLength="177.1807" x="1058.5" y="362.3467">UserRemovedFromGroup</text><line style="stroke:#181818;stroke-width:0.5;" x1="1030.5" x2="1237.6807" y1="373.5" y2="373.5"/><line style="stroke:#181818;stroke-width:0.5;" x1="1030.5" x2="1237.6807" y1="381.5" y2="381.5"/></g><!--link UserService to UserRepository--><g class="link" data-entity-1="UserService" data-entity-2="UserRepository" data-source-line="133" data-uid="lnk9" id="link_UserService_UserRepository"><path codeLine="133" d="M536.94,205.1 C490.05,222 440.14,241.44 395,262 C367.33,274.6 343.4783,286.9641 316.8383,301.8441" fill="none" id="UserService-to-UserRepository" style="stroke:#181818;stroke-width:1;stroke-dasharray:7.0,7.0;"/><polygon fill="#181818" points="311.6,304.77,321.408,303.8734,315.9652,302.3318,317.5068,296.889,311.6,304.77" style="stroke:#181818;stroke-width:1;"/><text fill="#000000" font-family="sans-serif" font-size="13" lengthAdjust="spacing" textLength="29.7832" x="447" y="250.0669">uses</text></g><!--link GroupService to GroupRepository--><g class="link" data-entity-1="GroupService" data-entity-2="GroupRepository" data-source-line="134" data-uid="lnk10" id="link_GroupService_GroupRepository"><path codeLine="134" d="M1040.07,205.05 C1017.62,213.26 994.77,221.46 973,229 C938.6,240.92 930.17,244.59 895,254 C878.75,258.35 874.04,256.93 858,262 C820.23,273.93 785.7763,287.1634 749.3763,302.5534" fill="none" id="GroupService-to-GroupRepository" style="stroke:#181818;stroke-width:1;stroke-dasharray:7.0,7.0;"/><polygon fill="#181818" points="743.85,304.89,753.6972,305.0694,748.4553,302.9429,750.5818,297.7009,743.85,304.89" style="stroke:#181818;stroke-width:1;"/><text fill="#000000" font-family="sans-serif" font-size="13" lengthAdjust="spacing" textLength="29.7832" x="950" y="250.0669">uses</text></g><!--link UserService to UserCreated--><g class="link" data-entity-1="UserService" data-entity-2="UserCreated" data-source-line="135" data-uid="lnk13" id="link_UserService_UserCreated"><path codeLine="135" d="M778.3,205.05 C796.18,223.32 815.9,243.48 834,262 C860.58,289.21 886.9215,316.2139 907.1815,336.9939" fill="none" id="UserService-to-UserCreated" style="stroke:#181818;stroke-width:1;stroke-dasharray:7.0,7.0;"/><polygon fill="#181818" points="911.37,341.29,907.9512,332.0536,907.8795,337.71,902.2231,337.6383,911.37,341.29" style="stroke:#181818;stroke-width:1;"/><text fill="#000000" font-family="sans-serif" font-size="13" lengthAdjust="spacing" textLength="61.75" x="825" y="250.0669">publishes</text></g><!--link GroupService to GroupCreated--><g class="link" data-entity-1="GroupService" data-entity-2="GroupCreated" data-source-line="136" data-uid="lnk15" id="link_GroupService_GroupCreated"><path codeLine="136" d="M1235.61,205.05 C1264.77,250.02 1299.9365,304.2452 1320.7565,336.3652" fill="none" id="GroupService-to-GroupCreated" style="stroke:#181818;stroke-width:1;stroke-dasharray:7.0,7.0;"/><polygon fill="#181818" points="1324.02,341.4,1322.4812,331.6721,1321.3004,337.2043,1315.7682,336.0235,1324.02,341.4" style="stroke:#181818;stroke-width:1;"/><text fill="#000000" font-family="sans-serif" font-size="13" lengthAdjust="spacing" textLength="61.75" x="1264" y="250.0669">publishes</text></g><!--link GroupService to UserAddedToGroup--><g class="link" data-entity-1="GroupService" data-entity-2="UserAddedToGroup" data-source-line="137" data-uid="lnk17" id="link_GroupService_UserAddedToGroup"><path codeLine="137" d="M1328.69,205 C1360.4,221.65 1393.36,240.99 1422,262 C1453.99,285.46 1481.4062,314.4696 1500.7262,336.7196" fill="none" id="GroupService-to-UserAddedToGroup" style="stroke:#181818;stroke-width:1;stroke-dasharray:7.0,7.0;"/><polygon fill="#181818" points="1504.66,341.25,1501.7795,331.8318,1501.3818,337.4746,1495.7389,337.0769,1504.66,341.25" style="stroke:#181818;stroke-width:1;"/><text fill="#000000" font-family="sans-serif" font-size="13" lengthAdjust="spacing" textLength="61.75" x="1406" y="250.0669">publishes</text></g><!--link GroupService to UserRemovedFromGroup--><g class="link" data-entity-1="GroupService" data-entity-2="UserRemovedFromGroup" data-source-line="138" data-uid="lnk19" id="link_GroupService_UserRemovedFromGroup"><path codeLine="138" d="M1179.87,205.05 C1166.93,250.02 1151.5388,303.5138 1142.2988,335.6338" fill="none" id="GroupService-to-UserRemovedFromGroup" style="stroke:#181818;stroke-width:1;stroke-dasharray:7.0,7.0;"/><polygon fill="#181818" points="1140.64,341.4,1146.9722,333.8566,1142.0223,336.5949,1139.284,331.6449,1140.64,341.4" style="stroke:#181818;stroke-width:1;"/><text fill="#000000" font-family="sans-serif" font-size="13" lengthAdjust="spacing" textLength="61.75" x="1170" y="250.0669">publishes</text></g><!--SRC=[hPDTRu8m58RlzolEfMQ6tHDYueOwBnmBuEuxpj4r0zgKZyKi_lT1GH1qn7rSa9JJzptjqxULB7XdEm8cPSW3bd8HVzu0oBgiI8g4fqBjeIm3y3WbjMK1mIOXvRRJbjLgfzDQ3N0B2Sjfb1LYKrl69kI2OpEzvJ7UxrSuubW9LZYk1eq4AQJqKez6uJks0pFRXlNSVtHi3nQE2vjdU-QldfQmyUQkbXvw24ibCdarmwvKcvLfa48hD8OUzJakzHacAVuBZZjtldPUZa1UGrH-9v4LvvFp0kvINbuzPrcrgaCPA68fbRfHp28omKiLZtSJe8ZniFsLB4a-XC9ZfPzN9l7Ov_lSgyFGeaxo_nViDR1QsA4zIuqXbflpHQLjYIOmT2CKHIBNV0ibekkyjVcFTw6cDKu3DupfoLisUc_NX69doOcrStuzR__Hd9dxwr9ESQgh3_hCiR38x3NaoTlmefLHbt_bB9US8HBMsVtSxUeGiKcmq-7m1G00]--></g></svg>