<svg xmlns="http://www.w3.org/2000/svg" xmlns:xlink="http://www.w3.org/1999/xlink" contentStyleType="text/css" data-diagram-type="CLASS" height="618px" preserveAspectRatio="none" style="width:2090px;height:618px;background:#1B1B1B;" version="1.1" viewBox="0 0 2090 618" width="2090px" zoomAndPan="magnify"><defs/><g><rect fill="#1B1B1B" height="618" style="stroke:none;stroke-width:1;" width="2090" x="0" y="0"/><!--cluster application--><g class="cluster" data-entity="application" data-source-line="71" data-uid="ent0002" id="cluster_application"><path d="M8.5,6 L97.4102,6 A3.75,3.75 0 0 1 99.9102,8.5 L106.9102,28.2969 L1074.5,28.2969 A2.5,2.5 0 0 1 1077,30.7969 L1077,576.5 A2.5,2.5 0 0 1 1074.5,579 L8.5,579 A2.5,2.5 0 0 1 6,576.5 L6,8.5 A2.5,2.5 0 0 1 8.5,6" fill="none" style="stroke:#FFFFFF;stroke-width:1.5;"/><line style="stroke:#FFFFFF;stroke-width:1.5;" x1="6" x2="106.9102" y1="28.2969" y2="28.2969"/><text fill="#FFFFFF" font-family="sans-serif" font-size="14" font-weight="bold" lengthAdjust="spacing" textLength="87.9102" x="10" y="20.9951">application</text></g><!--cluster repository--><g class="cluster" data-entity="repository" data-source-line="72" data-uid="ent0003" id="cluster_repository"><path d="M175.5,383 L258.0117,383 A3.75,3.75 0 0 1 260.5117,385.5 L267.5117,405.2969 L974.5,405.2969 A2.5,2.5 0 0 1 977,407.7969 L977,552.5 A2.5,2.5 0 0 1 974.5,555 L175.5,555 A2.5,2.5 0 0 1 173,552.5 L173,385.5 A2.5,2.5 0 0 1 175.5,383" fill="none" style="stroke:#FFFFFF;stroke-width:1.5;"/><line style="stroke:#FFFFFF;stroke-width:1.5;" x1="173" x2="267.5117" y1="405.2969" y2="405.2969"/><text fill="#FFFFFF" font-family="sans-serif" font-size="14" font-weight="bold" lengthAdjust="spacing" textLength="81.5117" x="177" y="397.9951">repository</text></g><!--cluster service--><g class="cluster" data-entity="service" data-source-line="89" data-uid="ent0006" id="cluster_service"><path d="M32.5,49 L89.9512,49 A3.75,3.75 0 0 1 92.4512,51.5 L99.4512,71.2969 L1050.5,71.2969 A2.5,2.5 0 0 1 1053,73.7969 L1053,218.5 A2.5,2.5 0 0 1 1050.5,221 L32.5,221 A2.5,2.5 0 0 1 30,218.5 L30,51.5 A2.5,2.5 0 0 1 32.5,49" fill="none" style="stroke:#FFFFFF;stroke-width:1.5;"/><line style="stroke:#FFFFFF;stroke-width:1.5;" x1="30" x2="99.4512" y1="71.2969" y2="71.2969"/><text fill="#FFFFFF" font-family="sans-serif" font-size="14" font-weight="bold" lengthAdjust="spacing" textLength="56.4512" x="34" y="63.9951">service</text></g><!--cluster shared--><g class="cluster" data-entity="shared" data-source-line="108" data-uid="ent0011" id="cluster_shared"><path d="M1103.5,270 L1158.668,270 A3.75,3.75 0 0 1 1161.168,272.5 L1168.168,292.2969 L2080.5,292.2969 A2.5,2.5 0 0 1 2083,294.7969 L2083,608.5 A2.5,2.5 0 0 1 2080.5,611 L1103.5,611 A2.5,2.5 0 0 1 1101,608.5 L1101,272.5 A2.5,2.5 0 0 1 1103.5,270" fill="none" style="stroke:#FFFFFF;stroke-width:1.5;"/><line style="stroke:#FFFFFF;stroke-width:1.5;" x1="1101" x2="1168.168" y1="292.2969" y2="292.2969"/><text fill="#FFFFFF" font-family="sans-serif" font-size="14" font-weight="bold" lengthAdjust="spacing" textLength="54.168" x="1105" y="284.9951">shared</text></g><!--cluster kernel--><g class="cluster" data-entity="kernel" data-source-line="108" data-uid="ent0012" id="cluster_kernel"><path d="M1127.5,313 L1178.4707,313 A3.75,3.75 0 0 1 1180.9707,315.5 L1187.9707,335.2969 L2056.5,335.2969 A2.5,2.5 0 0 1 2059,337.7969 L2059,584.5 A2.5,2.5 0 0 1 2056.5,587 L1127.5,587 A2.5,2.5 0 0 1 1125,584.5 L1125,315.5 A2.5,2.5 0 0 1 1127.5,313" fill="none" style="stroke:#FFFFFF;stroke-width:1.5;"/><line style="stroke:#FFFFFF;stroke-width:1.5;" x1="1125" x2="1187.9707" y1="335.2969" y2="335.2969"/><text fill="#FFFFFF" font-family="sans-serif" font-size="14" font-weight="bold" lengthAdjust="spacing" textLength="49.9707" x="1129" y="327.9951">kernel</text></g><!--cluster domain--><g class="cluster" data-entity="domain" data-source-line="108" data-uid="ent0013" id="cluster_domain"><path d="M1151.5,356 L1210.9404,356 A3.75,3.75 0 0 1 1213.4404,358.5 L1220.4404,378.2969 L2032.5,378.2969 A2.5,2.5 0 0 1 2035,380.7969 L2035,560.5 A2.5,2.5 0 0 1 2032.5,563 L1151.5,563 A2.5,2.5 0 0 1 1149,560.5 L1149,358.5 A2.5,2.5 0 0 1 1151.5,356" fill="none" style="stroke:#FFFFFF;stroke-width:1.5;"/><line style="stroke:#FFFFFF;stroke-width:1.5;" x1="1149" x2="1220.4404" y1="378.2969" y2="378.2969"/><text fill="#FFFFFF" font-family="sans-serif" font-size="14" font-weight="bold" lengthAdjust="spacing" textLength="58.4404" x="1153" y="370.9951">domain</text></g><!--cluster events--><g class="cluster" data-entity="events" data-source-line="107" data-uid="ent0009" id="cluster_events"><path d="M1175.5,399 L1229.6084,399 A3.75,3.75 0 0 1 1232.1084,401.5 L1239.1084,421.2969 L2008.5,421.2969 A2.5,2.5 0 0 1 2011,423.7969 L2011,536.5 A2.5,2.5 0 0 1 2008.5,539 L1175.5,539 A2.5,2.5 0 0 1 1173,536.5 L1173,401.5 A2.5,2.5 0 0 1 1175.5,399" fill="none" style="stroke:#FFFFFF;stroke-width:1.5;"/><line style="stroke:#FFFFFF;stroke-width:1.5;" x1="1173" x2="1239.1084" y1="421.2969" y2="421.2969"/><text fill="#FFFFFF" font-family="sans-serif" font-size="14" font-weight="bold" lengthAdjust="spacing" textLength="53.1084" x="1177" y="413.9951">events</text></g><!--class UserRepository--><g class="entity" data-entity="UserRepository" data-source-line="73" data-uid="ent0004" id="entity_UserRepository"><rect fill="#313139" height="121.4531" rx="2.5" ry="2.5" style="stroke:#E7E7E7;stroke-width:0.5;" width="331.0059" x="189.5" y="418"/><ellipse cx="297.2617" cy="438.1328" fill="#352866" rx="11" ry="11" style="stroke:#E7E7E7;stroke-width:1;"/><path d="M293.1836,433.8984 L293.1836,431.7422 L300.5742,431.7422 L300.5742,433.8984 L298.1055,433.8984 L298.1055,441.9766 L300.5742,441.9766 L300.5742,444.1328 L293.1836,444.1328 L293.1836,441.9766 L295.6523,441.9766 L295.6523,433.8984 L293.1836,433.8984 Z " fill="#FFFFFF"/><text fill="#000000" font-family="sans-serif" font-size="12" font-style="italic" lengthAdjust="spacing" textLength="75.7559" x="333.375" y="434.1387">&#171;repository&#187;</text><text fill="#FFFFFF" font-family="sans-serif" font-size="14" font-style="italic" lengthAdjust="spacing" textLength="106.9824" x="317.7617" y="449.9639">UserRepository</text><line style="stroke:#E7E7E7;stroke-width:0.5;" x1="190.5" x2="519.5059" y1="458.2656" y2="458.2656"/><ellipse cx="200.5" cy="471.9141" fill="none" rx="3" ry="3" style="stroke:#038048;stroke-width:1;"/><text fill="#FFFFFF" font-family="sans-serif" font-size="14" lengthAdjust="spacing" textLength="305.0059" x="209.5" y="475.2607">TODO ADD METHODS FOR UPDATING USER</text><line style="stroke:#E7E7E7;stroke-width:0.5;" x1="190.5" x2="519.5059" y1="482.5625" y2="482.5625"/><ellipse cx="200.5" cy="496.2109" fill="#84BE84" rx="3" ry="3" style="stroke:#038048;stroke-width:1;"/><text fill="#FFFFFF" font-family="sans-serif" font-size="14" lengthAdjust="spacing" textLength="154.1025" x="209.5" y="499.5576">save(user: User): void</text><ellipse cx="200.5" cy="512.5078" fill="#84BE84" rx="3" ry="3" style="stroke:#038048;stroke-width:1;"/><text fill="#FFFFFF" font-family="sans-serif" font-size="14" lengthAdjust="spacing" textLength="176.3535" x="209.5" y="515.8545">findById(id: UserId): User</text><ellipse cx="200.5" cy="528.8047" fill="#84BE84" rx="3" ry="3" style="stroke:#038048;stroke-width:1;"/><text fill="#FFFFFF" font-family="sans-serif" font-size="14" lengthAdjust="spacing" textLength="165.4365" x="209.5" y="532.1514">delete(user: User): void</text></g><!--class GroupRepository--><g class="entity" data-entity="GroupRepository" data-source-line="80" data-uid="ent0005" id="entity_GroupRepository"><rect fill="#313139" height="121.4531" rx="2.5" ry="2.5" style="stroke:#E7E7E7;stroke-width:0.5;" width="404.8477" x="555.5" y="418"/><ellipse cx="694.6729" cy="438.1328" fill="#352866" rx="11" ry="11" style="stroke:#E7E7E7;stroke-width:1;"/><path d="M690.5947,433.8984 L690.5947,431.7422 L697.9854,431.7422 L697.9854,433.8984 L695.5166,433.8984 L695.5166,441.9766 L697.9854,441.9766 L697.9854,444.1328 L690.5947,444.1328 L690.5947,441.9766 L693.0635,441.9766 L693.0635,433.8984 L690.5947,433.8984 Z " fill="#FFFFFF"/><text fill="#000000" font-family="sans-serif" font-size="12" font-style="italic" lengthAdjust="spacing" textLength="75.7559" x="736.2959" y="434.1387">&#171;repository&#187;</text><text fill="#FFFFFF" font-family="sans-serif" font-size="14" font-style="italic" lengthAdjust="spacing" textLength="118.002" x="715.1729" y="449.9639">GroupRepository</text><line style="stroke:#E7E7E7;stroke-width:0.5;" x1="556.5" x2="959.3477" y1="458.2656" y2="458.2656"/><ellipse cx="566.5" cy="471.9141" fill="none" rx="3" ry="3" style="stroke:#038048;stroke-width:1;"/><text fill="#FFFFFF" font-family="sans-serif" font-size="14" lengthAdjust="spacing" textLength="378.8477" x="575.5" y="475.2607">TODO ADD METHODS FOR ADDING/REMOVING USERS</text><line style="stroke:#E7E7E7;stroke-width:0.5;" x1="556.5" x2="959.3477" y1="482.5625" y2="482.5625"/><ellipse cx="566.5" cy="496.2109" fill="#84BE84" rx="3" ry="3" style="stroke:#038048;stroke-width:1;"/><text fill="#FFFFFF" font-family="sans-serif" font-size="14" lengthAdjust="spacing" textLength="175.5537" x="575.5" y="499.5576">save(group: Group): void</text><ellipse cx="566.5" cy="512.5078" fill="#84BE84" rx="3" ry="3" style="stroke:#038048;stroke-width:1;"/><text fill="#FFFFFF" font-family="sans-serif" font-size="14" lengthAdjust="spacing" textLength="198.3926" x="575.5" y="515.8545">findById(id: GroupId): Group</text><ellipse cx="566.5" cy="528.8047" fill="#84BE84" rx="3" ry="3" style="stroke:#038048;stroke-width:1;"/><text fill="#FFFFFF" font-family="sans-serif" font-size="14" lengthAdjust="spacing" textLength="186.8877" x="575.5" y="532.1514">delete(group: Group): void</text></g><!--class UserService--><g class="entity" data-entity="UserService" data-source-line="90" data-uid="ent0007" id="entity_UserService"><rect fill="#313139" height="121.4531" rx="2.5" ry="2.5" style="stroke:#E7E7E7;stroke-width:0.5;" width="540.8555" x="46.5" y="84"/><ellipse cx="270.8521" cy="104.1328" fill="#352866" rx="11" ry="11" style="stroke:#E7E7E7;stroke-width:1;"/><path d="M266.7739,99.8984 L266.7739,97.7422 L274.1646,97.7422 L274.1646,99.8984 L271.6958,99.8984 L271.6958,107.9766 L274.1646,107.9766 L274.1646,110.1328 L266.7739,110.1328 L266.7739,107.9766 L269.2427,107.9766 L269.2427,99.8984 L266.7739,99.8984 Z " fill="#FFFFFF"/><text fill="#000000" font-family="sans-serif" font-size="12" font-style="italic" lengthAdjust="spacing" textLength="57.7969" x="304.2793" y="100.1387">&#171;service&#187;</text><text fill="#FFFFFF" font-family="sans-serif" font-size="14" font-style="italic" lengthAdjust="spacing" textLength="83.6514" x="291.3521" y="115.9639">UserService</text><line style="stroke:#E7E7E7;stroke-width:0.5;" x1="47.5" x2="586.3555" y1="124.2656" y2="124.2656"/><ellipse cx="57.5" cy="137.9141" fill="none" rx="3" ry="3" style="stroke:#038048;stroke-width:1;"/><text fill="#FFFFFF" font-family="sans-serif" font-size="14" lengthAdjust="spacing" textLength="305.0059" x="66.5" y="141.2607">TODO ADD METHODS FOR UPDATING USER</text><line style="stroke:#E7E7E7;stroke-width:0.5;" x1="47.5" x2="586.3555" y1="148.5625" y2="148.5625"/><ellipse cx="57.5" cy="162.2109" fill="#84BE84" rx="3" ry="3" style="stroke:#038048;stroke-width:1;"/><text fill="#FFFFFF" font-family="sans-serif" font-size="14" lengthAdjust="spacing" textLength="514.8555" x="66.5" y="165.5576">createUser(name: String, surname, email: String, password: String): User</text><ellipse cx="57.5" cy="178.5078" fill="#84BE84" rx="3" ry="3" style="stroke:#038048;stroke-width:1;"/><text fill="#FFFFFF" font-family="sans-serif" font-size="14" lengthAdjust="spacing" textLength="202.5693" x="66.5" y="181.8545">updateUser(user: User): void</text><ellipse cx="57.5" cy="194.8047" fill="#84BE84" rx="3" ry="3" style="stroke:#038048;stroke-width:1;"/><text fill="#FFFFFF" font-family="sans-serif" font-size="14" lengthAdjust="spacing" textLength="192.6025" x="66.5" y="198.1514">deleteUser(id: UserId): void</text></g><!--class GroupService--><g class="entity" data-entity="GroupService" data-source-line="97" data-uid="ent0008" id="entity_GroupService"><rect fill="#313139" height="121.4531" rx="2.5" ry="2.5" style="stroke:#E7E7E7;stroke-width:0.5;" width="413.6182" x="623" y="84"/><ellipse cx="778.2236" cy="104.1328" fill="#352866" rx="11" ry="11" style="stroke:#E7E7E7;stroke-width:1;"/><path d="M774.1455,99.8984 L774.1455,97.7422 L781.5361,97.7422 L781.5361,99.8984 L779.0674,99.8984 L779.0674,107.9766 L781.5361,107.9766 L781.5361,110.1328 L774.1455,110.1328 L774.1455,107.9766 L776.6143,107.9766 L776.6143,99.8984 L774.1455,99.8984 Z " fill="#FFFFFF"/><text fill="#000000" font-family="sans-serif" font-size="12" font-style="italic" lengthAdjust="spacing" textLength="57.7969" x="817.1606" y="100.1387">&#171;service&#187;</text><text fill="#FFFFFF" font-family="sans-serif" font-size="14" font-style="italic" lengthAdjust="spacing" textLength="94.6709" x="798.7236" y="115.9639">GroupService</text><line style="stroke:#E7E7E7;stroke-width:0.5;" x1="624" x2="1035.6182" y1="124.2656" y2="124.2656"/><ellipse cx="634" cy="137.9141" fill="none" rx="3" ry="3" style="stroke:#038048;stroke-width:1;"/><text fill="#FFFFFF" font-family="sans-serif" font-size="14" lengthAdjust="spacing" textLength="378.8477" x="643" y="141.2607">TODO ADD METHODS FOR ADDING/REMOVING USERS</text><line style="stroke:#E7E7E7;stroke-width:0.5;" x1="624" x2="1035.6182" y1="148.5625" y2="148.5625"/><ellipse cx="634" cy="162.2109" fill="#84BE84" rx="3" ry="3" style="stroke:#038048;stroke-width:1;"/><text fill="#FFFFFF" font-family="sans-serif" font-size="14" lengthAdjust="spacing" textLength="241.3496" x="643" y="165.5576">createGroup(name: String): Group</text><ellipse cx="634" cy="178.5078" fill="#84BE84" rx="3" ry="3" style="stroke:#038048;stroke-width:1;"/><text fill="#FFFFFF" font-family="sans-serif" font-size="14" lengthAdjust="spacing" textLength="341.6055" x="643" y="181.8545">addUserToGroup(user: User, group: Group): void</text><ellipse cx="634" cy="194.8047" fill="#84BE84" rx="3" ry="3" style="stroke:#038048;stroke-width:1;"/><text fill="#FFFFFF" font-family="sans-serif" font-size="14" lengthAdjust="spacing" textLength="387.6182" x="643" y="198.1514">removeUserFromGroup(user: User, group: Group): void</text></g><!--class AddedMemberToGroup--><g class="entity" data-entity="AddedMemberToGroup" data-source-line="108" data-uid="ent0010" id="entity_AddedMemberToGroup"><rect fill="#313139" height="88.8594" rx="2.5" ry="2.5" style="stroke:#E7E7E7;stroke-width:0.5;" width="194.4834" x="1189" y="434"/><ellipse cx="1204" cy="454.1328" fill="#352866" rx="11" ry="11" style="stroke:#E7E7E7;stroke-width:1;"/><path d="M1199.9219,449.8984 L1199.9219,447.7422 L1207.3125,447.7422 L1207.3125,449.8984 L1204.8438,449.8984 L1204.8438,457.9766 L1207.3125,457.9766 L1207.3125,460.1328 L1199.9219,460.1328 L1199.9219,457.9766 L1202.3906,457.9766 L1202.3906,449.8984 L1199.9219,449.8984 Z " fill="#FFFFFF"/><text fill="#000000" font-family="sans-serif" font-size="12" font-style="italic" lengthAdjust="spacing" textLength="97.7461" x="1250.3687" y="450.1387">&#171;domain event&#187;</text><text fill="#FFFFFF" font-family="sans-serif" font-size="14" font-style="italic" lengthAdjust="spacing" textLength="162.4834" x="1218" y="465.9639">AddedMemberToGroup</text><line style="stroke:#E7E7E7;stroke-width:0.5;" x1="1190" x2="1382.4834" y1="474.2656" y2="474.2656"/><ellipse cx="1200" cy="487.9141" fill="none" rx="3" ry="3" style="stroke:#038048;stroke-width:1;"/><text fill="#FFFFFF" font-family="sans-serif" font-size="14" lengthAdjust="spacing" textLength="119.0957" x="1209" y="491.2607">groupId: GroupId</text><ellipse cx="1200" cy="504.2109" fill="none" rx="3" ry="3" style="stroke:#038048;stroke-width:1;"/><text fill="#FFFFFF" font-family="sans-serif" font-size="14" lengthAdjust="spacing" textLength="142.5156" x="1209" y="507.5576">addedMember: User</text><line style="stroke:#E7E7E7;stroke-width:0.5;" x1="1190" x2="1382.4834" y1="514.8594" y2="514.8594"/></g><!--class GroupCreated--><g class="entity" data-entity="GroupCreated" data-source-line="112" data-uid="ent0014" id="entity_GroupCreated"><rect fill="#313139" height="88.8594" rx="2.5" ry="2.5" style="stroke:#E7E7E7;stroke-width:0.5;" width="145.0957" x="1418.5" y="434"/><ellipse cx="1440.0039" cy="454.1328" fill="#352866" rx="11" ry="11" style="stroke:#E7E7E7;stroke-width:1;"/><path d="M1435.9258,449.8984 L1435.9258,447.7422 L1443.3164,447.7422 L1443.3164,449.8984 L1440.8477,449.8984 L1440.8477,457.9766 L1443.3164,457.9766 L1443.3164,460.1328 L1435.9258,460.1328 L1435.9258,457.9766 L1438.3945,457.9766 L1438.3945,449.8984 L1435.9258,449.8984 Z " fill="#FFFFFF"/><text fill="#000000" font-family="sans-serif" font-size="12" font-style="italic" lengthAdjust="spacing" textLength="97.7461" x="1455.8975" y="450.1387">&#171;domain event&#187;</text><text fill="#FFFFFF" font-family="sans-serif" font-size="14" font-style="italic" lengthAdjust="spacing" textLength="98.6426" x="1455.4492" y="465.9639">GroupCreated</text><line style="stroke:#E7E7E7;stroke-width:0.5;" x1="1419.5" x2="1562.5957" y1="474.2656" y2="474.2656"/><ellipse cx="1429.5" cy="487.9141" fill="none" rx="3" ry="3" style="stroke:#038048;stroke-width:1;"/><text fill="#FFFFFF" font-family="sans-serif" font-size="14" lengthAdjust="spacing" textLength="119.0957" x="1438.5" y="491.2607">groupId: GroupId</text><ellipse cx="1429.5" cy="504.2109" fill="none" rx="3" ry="3" style="stroke:#038048;stroke-width:1;"/><text fill="#FFFFFF" font-family="sans-serif" font-size="14" lengthAdjust="spacing" textLength="112.6016" x="1438.5" y="507.5576">createdBy: User</text><line style="stroke:#E7E7E7;stroke-width:0.5;" x1="1419.5" x2="1562.5957" y1="514.8594" y2="514.8594"/></g><!--class GroupDeleted--><g class="entity" data-entity="GroupDeleted" data-source-line="116" data-uid="ent0015" id="entity_GroupDeleted"><rect fill="#313139" height="72.5625" rx="2.5" ry="2.5" style="stroke:#E7E7E7;stroke-width:0.5;" width="145.0957" x="1598.5" y="442"/><ellipse cx="1620.3761" cy="462.1328" fill="#352866" rx="11" ry="11" style="stroke:#E7E7E7;stroke-width:1;"/><path d="M1616.298,457.8984 L1616.298,455.7422 L1623.6886,455.7422 L1623.6886,457.8984 L1621.2199,457.8984 L1621.2199,465.9766 L1623.6886,465.9766 L1623.6886,468.1328 L1616.298,468.1328 L1616.298,465.9766 L1618.7667,465.9766 L1618.7667,457.8984 L1616.298,457.8984 Z " fill="#FFFFFF"/><text fill="#000000" font-family="sans-serif" font-size="12" font-style="italic" lengthAdjust="spacing" textLength="97.7461" x="1635.9388" y="458.1387">&#171;domain event&#187;</text><text fill="#FFFFFF" font-family="sans-serif" font-size="14" font-style="italic" lengthAdjust="spacing" textLength="97.8154" x="1635.9042" y="473.9639">GroupDeleted</text><line style="stroke:#E7E7E7;stroke-width:0.5;" x1="1599.5" x2="1742.5957" y1="482.2656" y2="482.2656"/><ellipse cx="1609.5" cy="495.9141" fill="none" rx="3" ry="3" style="stroke:#038048;stroke-width:1;"/><text fill="#FFFFFF" font-family="sans-serif" font-size="14" lengthAdjust="spacing" textLength="119.0957" x="1618.5" y="499.2607">groupId: GroupId</text><line style="stroke:#E7E7E7;stroke-width:0.5;" x1="1599.5" x2="1742.5957" y1="506.5625" y2="506.5625"/></g><!--class RemovedMemberToGroup--><g class="entity" data-entity="RemovedMemberToGroup" data-source-line="119" data-uid="ent0016" id="entity_RemovedMemberToGroup"><rect fill="#313139" height="88.8594" rx="2.5" ry="2.5" style="stroke:#E7E7E7;stroke-width:0.5;" width="215.9619" x="1779" y="434"/><ellipse cx="1794" cy="454.1328" fill="#352866" rx="11" ry="11" style="stroke:#E7E7E7;stroke-width:1;"/><path d="M1789.9219,449.8984 L1789.9219,447.7422 L1797.3125,447.7422 L1797.3125,449.8984 L1794.8438,449.8984 L1794.8438,457.9766 L1797.3125,457.9766 L1797.3125,460.1328 L1789.9219,460.1328 L1789.9219,457.9766 L1792.3906,457.9766 L1792.3906,449.8984 L1789.9219,449.8984 Z " fill="#FFFFFF"/><text fill="#000000" font-family="sans-serif" font-size="12" font-style="italic" lengthAdjust="spacing" textLength="97.7461" x="1851.1079" y="450.1387">&#171;domain event&#187;</text><text fill="#FFFFFF" font-family="sans-serif" font-size="14" font-style="italic" lengthAdjust="spacing" textLength="183.9619" x="1808" y="465.9639">RemovedMemberToGroup</text><line style="stroke:#E7E7E7;stroke-width:0.5;" x1="1780" x2="1993.9619" y1="474.2656" y2="474.2656"/><ellipse cx="1790" cy="487.9141" fill="none" rx="3" ry="3" style="stroke:#038048;stroke-width:1;"/><text fill="#FFFFFF" font-family="sans-serif" font-size="14" lengthAdjust="spacing" textLength="119.0957" x="1799" y="491.2607">groupId: GroupId</text><ellipse cx="1790" cy="504.2109" fill="none" rx="3" ry="3" style="stroke:#038048;stroke-width:1;"/><text fill="#FFFFFF" font-family="sans-serif" font-size="14" lengthAdjust="spacing" textLength="161.0205" x="1799" y="507.5576">removedMember: User</text><line style="stroke:#E7E7E7;stroke-width:0.5;" x1="1780" x2="1993.9619" y1="514.8594" y2="514.8594"/></g><!--link UserService to UserRepository--><g class="link" data-entity-1="UserService" data-entity-2="UserRepository" data-source-line="125" data-uid="lnk17" id="link_UserService_UserRepository"><path codeLine="125" d="M323.84,205.24 C330.73,265.45 340.617,351.869 347.507,411.999" fill="none" id="UserService-to-UserRepository" style="stroke:#E7E7E7;stroke-width:1;stroke-dasharray:7.0,7.0;"/><polygon fill="#E7E7E7" points="348.19,417.96,351.1394,408.5631,347.6208,412.9925,343.1914,409.4739,348.19,417.96" style="stroke:#E7E7E7;stroke-width:1;"/><text fill="#FFFFFF" font-family="sans-serif" font-size="13" lengthAdjust="spacing" textLength="29.7832" x="331" y="250.0669">uses</text></g><!--link GroupService to GroupRepository--><g class="link" data-entity-1="GroupService" data-entity-2="GroupRepository" data-source-line="126" data-uid="lnk18" id="link_GroupService_GroupRepository"><path codeLine="126" d="M809.84,205.23 C806.65,215.75 803.56,226.65 801,237 C785.96,297.95 774.8453,362.8787 767.3753,411.8187" fill="none" id="GroupService-to-GroupRepository" style="stroke:#E7E7E7;stroke-width:1;stroke-dasharray:7.0,7.0;"/><polygon fill="#E7E7E7" points="766.47,417.75,771.7822,409.4566,767.2244,412.8072,763.8738,408.2495,766.47,417.75" style="stroke:#E7E7E7;stroke-width:1;"/><text fill="#FFFFFF" font-family="sans-serif" font-size="13" lengthAdjust="spacing" textLength="29.7832" x="802" y="250.0669">uses</text></g><!--link GroupService to GroupDeleted--><g class="link" data-entity-1="GroupService" data-entity-2="GroupDeleted" data-source-line="127" data-uid="lnk19" id="link_GroupService_GroupDeleted"><path codeLine="127" d="M1037.3,154.35 C1230.31,166.64 1500.02,195.46 1581,262 C1636.45,307.56 1657.2417,387.2236 1665.4217,435.7036" fill="none" id="GroupService-to-GroupDeleted" style="stroke:#E7E7E7;stroke-width:1;stroke-dasharray:7.0,7.0;"/><polygon fill="#E7E7E7" points="1666.42,441.62,1668.8668,432.0799,1665.5881,436.6897,1660.9784,433.411,1666.42,441.62" style="stroke:#E7E7E7;stroke-width:1;"/><text fill="#FFFFFF" font-family="sans-serif" font-size="13" lengthAdjust="spacing" textLength="61.75" x="1564" y="250.0669">publishes</text></g><!--link GroupService to GroupCreated--><g class="link" data-entity-1="GroupService" data-entity-2="GroupCreated" data-source-line="128" data-uid="lnk20" id="link_GroupService_GroupCreated"><path codeLine="128" d="M1037.32,167.28 C1177.09,185.74 1345.71,216.53 1401,262 C1453.61,305.26 1474.8396,378.6499 1483.9696,428.0499" fill="none" id="GroupService-to-GroupCreated" style="stroke:#E7E7E7;stroke-width:1;stroke-dasharray:7.0,7.0;"/><polygon fill="#E7E7E7" points="1485.06,433.95,1487.3577,424.3729,1484.1513,429.0333,1479.491,425.8268,1485.06,433.95" style="stroke:#E7E7E7;stroke-width:1;"/><text fill="#FFFFFF" font-family="sans-serif" font-size="13" lengthAdjust="spacing" textLength="61.75" x="1388" y="250.0669">publishes</text></g><!--link GroupService to AddedMemberToGroup--><g class="link" data-entity-1="GroupService" data-entity-2="AddedMemberToGroup" data-source-line="129" data-uid="lnk21" id="link_GroupService_AddedMemberToGroup"><path codeLine="129" d="M911.79,205.05 C1002.13,270.82 1140.5994,371.6385 1221.1294,430.2685" fill="none" id="GroupService-to-AddedMemberToGroup" style="stroke:#E7E7E7;stroke-width:1;stroke-dasharray:7.0,7.0;"/><polygon fill="#E7E7E7" points="1225.98,433.8,1221.0584,425.269,1221.9378,430.8571,1216.3497,431.7365,1225.98,433.8" style="stroke:#E7E7E7;stroke-width:1;"/><text fill="#FFFFFF" font-family="sans-serif" font-size="13" lengthAdjust="spacing" textLength="61.75" x="978" y="250.0669">publishes</text></g><!--link GroupService to RemovedMemberToGroup--><g class="link" data-entity-1="GroupService" data-entity-2="RemovedMemberToGroup" data-source-line="130" data-uid="lnk22" id="link_GroupService_RemovedMemberToGroup"><path codeLine="130" d="M1037.19,148.97 C1275.45,156.78 1648.28,181.86 1761,262 C1820.34,304.19 1854.0643,378.1516 1871.6143,427.9116" fill="none" id="GroupService-to-RemovedMemberToGroup" style="stroke:#E7E7E7;stroke-width:1;stroke-dasharray:7.0,7.0;"/><polygon fill="#E7E7E7" points="1873.61,433.57,1874.3887,423.752,1871.9469,428.8547,1866.8442,426.4129,1873.61,433.57" style="stroke:#E7E7E7;stroke-width:1;"/><text fill="#FFFFFF" font-family="sans-serif" font-size="13" lengthAdjust="spacing" textLength="61.75" x="1738" y="250.0669">publishes</text></g><!--SRC=[hLHDRwim4BpdL-mnLIFtZg98QKdxSiYZWgHtDzwcLW5RDb1LLVvxZI5yXTAyFWv8i1xFCZjZIxf_emS4AcN8zpJX8eRF2O0iwmgbq3mHwiEM0NYSe7gXUuITHkNNo_DvZLqiIZJ0DMYQuJGrOCTkkN8W4vnLooyyPhSVQpRbh02isLNnKa4OXfZqSLI8hUTwi7HTsAosVpmtW7lFXzsZkzok_px0BbZv5dhiI7XG8fKNQpZaQAVODAZ28gmC-zRLqSSphCHy6nqt_chZFPq41PMY_6bOPkQJSIEkpw-WN9lFIrHBvLuXJJ37JMCQeGD1edXyc85ELLwO0KQKXtLTKgtVXMAdIjUuLB8JuVS1AAPYGQq8ZEVm9Qeji2Nxp3xAMFvpMr5WQqKp68g6maXaLj-z4j5bU_yl3iV9f0h3ArN8o1kg64F2XF4l9fXXdEYpW2mPGxR1wBdIQ2PMR06xfJ6s_DyEHSohl3UMQ4tLY4IlENTs_EpNhGhxpE7xgP5hS_QRHbqwtpewqgXKawobuPZ7e74napAzf7cI2LcqCFK5HZeNj0CcTVeRojOv6U3itfZ_HZgGHjBoo06PFeTSlux8VGhQoDmzfsRa3hrnQ_Ru0W00]--></g></svg>