<svg xmlns="http://www.w3.org/2000/svg" xmlns:xlink="http://www.w3.org/1999/xlink" contentStyleType="text/css" data-diagram-type="STATE" height="631px" preserveAspectRatio="none" style="width:804px;height:631px;background:#1B1B1B;" version="1.1" viewBox="0 0 804 631" width="804px" zoomAndPan="magnify"><defs/><g><rect fill="#1B1B1B" height="631" style="stroke:none;stroke-width:1;" width="804" x="0" y="0"/><path d="M73,7 L778.6081,7 A12.5,12.5 0 0 1 791.1081,19.5 L791.1081,33.2969 L60.5,33.2969 L60.5,19.5 A12.5,12.5 0 0 1 73,7" fill="#313139" style="stroke:#313139;stroke-width:1;"/><rect fill="none" height="442.8281" rx="12.5" ry="12.5" style="stroke:#E7E7E7;stroke-width:0.5;" width="730.6081" x="60.5" y="7"/><line style="stroke:#E7E7E7;stroke-width:0.5;" x1="60.5" x2="791.1081" y1="33.2969" y2="33.2969"/><text fill="#FFFFFF" font-family="sans-serif" font-size="14" lengthAdjust="spacing" textLength="89.0449" x="381.2816" y="24.9951">NormalMode</text><ellipse cx="426.84" cy="54.2969" fill="#222222" rx="10" ry="10" style="stroke:#222222;stroke-width:1;"/><g id="NormalMode.Active"><rect fill="#313139" height="50" rx="12.5" ry="12.5" style="stroke:#E7E7E7;stroke-width:0.5;" width="63.5518" x="394.84" y="101.2969"/><line style="stroke:#E7E7E7;stroke-width:0.5;" x1="394.84" x2="458.3918" y1="127.5938" y2="127.5938"/><text fill="#FFFFFF" font-family="sans-serif" font-size="14" lengthAdjust="spacing" textLength="43.5518" x="404.84" y="119.292">Active</text></g><g id="NormalMode.Inactive"><rect fill="#313139" height="50" rx="12.5" ry="12.5" style="stroke:#E7E7E7;stroke-width:0.5;" width="75.5557" x="79.84" y="101.2969"/><line style="stroke:#E7E7E7;stroke-width:0.5;" x1="79.84" x2="155.3957" y1="127.5938" y2="127.5938"/><text fill="#FFFFFF" font-family="sans-serif" font-size="14" lengthAdjust="spacing" textLength="55.5557" x="89.84" y="119.292">Inactive</text></g><g id="NormalMode.Routing"><rect fill="#313139" height="64.2344" rx="12.5" ry="12.5" style="stroke:#E7E7E7;stroke-width:0.5;" width="242.7734" x="152.34" y="219.2969"/><line style="stroke:#E7E7E7;stroke-width:0.5;" x1="152.34" x2="395.1134" y1="245.5938" y2="245.5938"/><text fill="#FFFFFF" font-family="sans-serif" font-size="14" lengthAdjust="spacing" textLength="54.3047" x="246.5744" y="237.292">Routing</text><text fill="#FFFFFF" font-family="sans-serif" font-size="12" lengthAdjust="spacing" textLength="222.7734" x="157.34" y="261.7324">entry [first time] / trigger notification</text><text fill="#FFFFFF" font-family="sans-serif" font-size="12" lengthAdjust="spacing" textLength="136.7227" x="157.34" y="275.7012">entry / perform checks</text></g><g id="NormalMode.Warning"><rect fill="#313139" height="50.2656" rx="12.5" ry="12.5" style="stroke:#E7E7E7;stroke-width:0.5;" width="402.6641" x="166.34" y="377.2969"/><line style="stroke:#E7E7E7;stroke-width:0.5;" x1="166.34" x2="569.0041" y1="403.5938" y2="403.5938"/><text fill="#FFFFFF" font-family="sans-serif" font-size="14" lengthAdjust="spacing" textLength="58.7002" x="338.3219" y="395.292">Warning</text><text fill="#FFFFFF" font-family="sans-serif" font-size="12" lengthAdjust="spacing" textLength="382.6641" x="171.34" y="419.7324">entry [not already notified the firing event] / trigger notification</text></g><!--link *start*NormalMode to Active--><g class="link" data-entity-1="*start*NormalMode" data-entity-2="Active" data-source-line="281" data-uid="lnk6" id="link_*start*NormalMode_Active"><path d="M426.84,64.4469 C426.84,73.7169 426.84,82.4369 426.84,95.0769" fill="none" id="*start*NormalMode-to-Active" style="stroke:#E7E7E7;stroke-width:1;"/><polygon fill="#E7E7E7" points="426.84,101.0769,430.84,92.0769,426.84,96.0769,422.84,92.0769,426.84,101.0769" style="stroke:#E7E7E7;stroke-width:1;"/></g><!--link Active to Active--><g class="link" data-entity-1="Active" data-entity-2="Active" data-source-line="282" data-uid="lnk7" id="link_Active_Active"><path d="M459.06,118.4269 C469.02,118.5869 476.84,121.2069 476.84,126.2969 C476.84,131.3869 475.0192,133.9105 465.0592,134.0705" fill="none" id="Active-to-Active" style="stroke:#E7E7E7;stroke-width:1;"/><polygon fill="#E7E7E7" points="459.06,134.1669,468.1231,138.0218,464.0594,134.0866,467.9946,130.0228,459.06,134.1669" style="stroke:#E7E7E7;stroke-width:1;"/><text fill="#FFFFFF" font-family="monospace" font-size="13" lengthAdjust="spacing" textLength="117.3999" x="482.84" y="130.8638">SampledLocation</text></g><!--reverse link Inactive to Active--><g class="link" data-entity-1="Inactive" data-entity-2="Active" data-source-line="284" data-uid="lnk10" id="link_Inactive_Active"><path d="M162.04,126.2969 C223.56,126.2969 337.48,126.2969 394.81,126.2969" fill="none" id="Inactive-backto-Active" style="stroke:#E7E7E7;stroke-width:1;"/><polygon fill="#E7E7E7" points="156.04,126.2969,165.04,130.2969,161.04,126.2969,165.04,122.2969,156.04,126.2969" style="stroke:#E7E7E7;stroke-width:1;"/><text fill="#FFFFFF" font-family="monospace" font-size="13" lengthAdjust="spacing" textLength="86.0933" x="165.84" y="119.3638">WentOffline</text><text fill="#FFFFFF" font-family="sans-serif" font-size="13" lengthAdjust="spacing" textLength="129.6509" x="256.0656" y="119.3638">/ trigger notification</text></g><!--link Inactive to Active--><g class="link" data-entity-1="Inactive" data-entity-2="Active" data-source-line="285" data-uid="lnk11" id="link_Inactive_Active"><path d="M156.2,135.9869 C174.18,140.0469 195.97,144.2869 215.84,146.2969 C268.46,151.6069 282.26,151.9469 334.84,146.2969 C354.99,144.1269 371.3847,140.8041 388.9347,136.4741" fill="none" id="Inactive-to-Active" style="stroke:#E7E7E7;stroke-width:1;"/><polygon fill="#E7E7E7" points="394.76,135.0369,385.0639,133.3092,389.9056,136.2346,386.9802,141.0763,394.76,135.0369" style="stroke:#E7E7E7;stroke-width:1;"/><text fill="#FFFFFF" font-family="monospace" font-size="13" lengthAdjust="spacing" textLength="117.3999" x="216.84" y="142.3638">SampledLocation</text></g><!--link Active to Routing--><g class="link" data-entity-1="Active" data-entity-2="Routing" data-source-line="289" data-uid="lnk13" id="link_Active_Routing"><path d="M394.73,127.7969 C362.78,130.1269 314.73,138.8969 287.84,169.2969 C275.93,182.7669 272.5514,196.6003 271.9914,213.2703" fill="none" id="Active-to-Routing" style="stroke:#E7E7E7;stroke-width:1;"/><polygon fill="#E7E7E7" points="271.79,219.2669,276.0899,210.4062,271.9579,214.2697,268.0944,210.1377,271.79,219.2669" style="stroke:#E7E7E7;stroke-width:1;"/><text fill="#FFFFFF" font-family="monospace" font-size="13" lengthAdjust="spacing" textLength="109.5732" x="288.84" y="189.8638">RoutingStarted</text></g><!--reverse link Active to Routing--><g class="link" data-entity-1="Active" data-entity-2="Routing" data-source-line="290" data-uid="lnk15" id="link_Active_Routing"><path d="M421.6139,157.2216 C417.9039,173.2116 412.17,187.8169 398.84,201.2969 C392.04,208.1769 384.16,214.1169 375.73,219.2369" fill="none" id="Active-backto-Routing" style="stroke:#E7E7E7;stroke-width:1;"/><polygon fill="#E7E7E7" points="422.97,151.3769,417.0394,159.2399,421.8399,156.2475,424.8323,161.0481,422.97,151.3769" style="stroke:#E7E7E7;stroke-width:1;"/><text fill="#FFFFFF" font-family="monospace" font-size="13" lengthAdjust="spacing" textLength="109.5732" x="427.8788" y="182.3638">RoutingStopped</text><text fill="#FFFFFF" font-family="sans-serif" font-size="13" lengthAdjust="spacing" textLength="4.1323" x="537.4521" y="182.3638">&#160;</text><text fill="#FFFFFF" font-family="sans-serif" font-size="13" lengthAdjust="spacing" textLength="129.6509" x="421.9723" y="197.4966">/ trigger notification</text></g><!--link Inactive to Routing--><g class="link" data-entity-1="Inactive" data-entity-2="Routing" data-source-line="291" data-uid="lnk16" id="link_Inactive_Routing"><path d="M125.99,151.3369 C132.47,167.2969 142.92,187.7469 157.84,201.2969 C165.37,208.1369 168.7748,211.1126 177.8448,216.3126" fill="none" id="Inactive-to-Routing" style="stroke:#E7E7E7;stroke-width:1;"/><polygon fill="#E7E7E7" points="183.05,219.2969,177.2317,211.3504,178.7123,216.81,173.2527,218.2906,183.05,219.2969" style="stroke:#E7E7E7;stroke-width:1;"/><text fill="#FFFFFF" font-family="monospace" font-size="13" lengthAdjust="spacing" textLength="109.5732" x="158.84" y="189.8638">RoutingStarted</text></g><!--link Routing to Routing--><g class="link" data-entity-1="Routing" data-entity-2="Routing" data-source-line="292" data-uid="lnk17" id="link_Routing_Routing"><path d="M395.81,241.5469 C406.59,243.5969 413.34,246.8469 413.34,251.2969 C413.34,255.7469 412.4844,257.876 401.7044,259.926" fill="none" id="Routing-to-Routing" style="stroke:#E7E7E7;stroke-width:1;"/><polygon fill="#E7E7E7" points="395.81,261.0469,405.3988,263.2951,400.722,260.1128,403.9043,255.4359,395.81,261.0469" style="stroke:#E7E7E7;stroke-width:1;"/><text fill="#FFFFFF" font-family="monospace" font-size="13" lengthAdjust="spacing" textLength="117.3999" x="419.34" y="255.8638">SampledLocation</text></g><!--link Routing to Warning--><g class="link" data-entity-1="Routing" data-entity-2="Warning" data-source-line="295" data-uid="lnk19" id="link_Routing_Warning"><path d="M152.27,271.6769 C121.48,279.1669 94.38,288.9669 84.84,301.2969 C72.06,317.8169 71.5,332.2269 84.84,348.2969 C97.33,363.3469 122.7542,372.9322 160.1942,380.6722" fill="none" id="Routing-to-Warning" style="stroke:#E7E7E7;stroke-width:1;"/><polygon fill="#E7E7E7" points="166.07,381.8869,158.0662,376.1477,161.1735,380.8746,156.4466,383.982,166.07,381.8869" style="stroke:#E7E7E7;stroke-width:1;"/><text fill="#FFFFFF" font-family="monospace" font-size="13" lengthAdjust="spacing" textLength="86.0933" x="168.3627" y="314.3638">WentOffline</text><text fill="#FFFFFF" font-family="sans-serif" font-size="13" lengthAdjust="spacing" textLength="4.1323" x="254.456" y="314.3638">,</text><text fill="#FFFFFF" font-family="sans-serif" font-size="13" lengthAdjust="spacing" textLength="4.1323" x="134.9899" y="329.4966">&#160;</text><text fill="#FFFFFF" font-family="monospace" font-size="13" lengthAdjust="spacing" textLength="148.7065" x="139.1222" y="329.4966">StuckAlertTriggered</text><text fill="#FFFFFF" font-family="sans-serif" font-size="13" lengthAdjust="spacing" textLength="4.1323" x="287.8288" y="329.4966">,</text><text fill="#FFFFFF" font-family="sans-serif" font-size="13" lengthAdjust="spacing" textLength="4.1323" x="85.84" y="344.6294">&#160;</text><text fill="#FFFFFF" font-family="monospace" font-size="13" lengthAdjust="spacing" textLength="164.3599" x="89.9723" y="344.6294">TimeoutAlertTriggered</text><text fill="#FFFFFF" font-family="sans-serif" font-size="13" lengthAdjust="spacing" textLength="4.3799" x="258.4645" y="344.6294">/</text><text fill="#FFFFFF" font-family="monospace" font-size="13" lengthAdjust="spacing" textLength="78.2666" x="266.9767" y="344.6294">late&lt;-true</text></g><!--reverse link Routing to Warning--><g class="link" data-entity-1="Routing" data-entity-2="Warning" data-source-line="296" data-uid="lnk21" id="link_Routing_Warning"><path d="M333.9559,287.2396 C340.1959,292.5596 341.35,294.6569 345.84,301.2969 C361.18,323.9669 366.03,355.5469 367.45,377.1169" fill="none" id="Routing-backto-Warning" style="stroke:#E7E7E7;stroke-width:1;"/><polygon fill="#E7E7E7" points="329.39,283.3469,333.6437,292.2298,333.1949,286.5908,338.8339,286.142,329.39,283.3469" style="stroke:#E7E7E7;stroke-width:1;"/><text fill="#FFFFFF" font-family="monospace" font-size="13" lengthAdjust="spacing" textLength="133.0532" x="363.84" y="321.8638">StuckAlertStopped</text><text fill="#FFFFFF" font-family="sans-serif" font-size="13" lengthAdjust="spacing" textLength="5.0718" x="501.0255" y="321.8638">[</text><text fill="#FFFFFF" font-family="monospace" font-size="13" lengthAdjust="spacing" textLength="39.1333" x="506.0973" y="321.8638">!late</text><text fill="#FFFFFF" font-family="sans-serif" font-size="13" lengthAdjust="spacing" textLength="9.2041" x="545.2306" y="321.8638">],</text><text fill="#FFFFFF" font-family="sans-serif" font-size="13" lengthAdjust="spacing" textLength="4.1323" x="373.7328" y="336.9966">&#160;</text><text fill="#FFFFFF" font-family="monospace" font-size="13" lengthAdjust="spacing" textLength="117.3999" x="377.8651" y="336.9966">SampledLocation</text><text fill="#FFFFFF" font-family="sans-serif" font-size="13" lengthAdjust="spacing" textLength="5.0718" x="499.3974" y="336.9966">[</text><text fill="#FFFFFF" font-family="monospace" font-size="13" lengthAdjust="spacing" textLength="39.1333" x="504.4692" y="336.9966">!late</text><text fill="#FFFFFF" font-family="sans-serif" font-size="13" lengthAdjust="spacing" textLength="5.0718" x="543.6025" y="336.9966">]</text></g><!--reverse link Active to Warning--><g class="link" data-entity-1="Active" data-entity-2="Warning" data-source-line="297" data-uid="lnk23" id="link_Active_Warning"><path d="M465.0974,128.5867 C495.3374,131.2167 533.19,139.7769 555.84,169.2969 C604.31,232.4569 611.2,285.0469 562.84,348.2969 C554,359.8669 530.39,369.4969 502.53,377.2469" fill="none" id="Active-backto-Warning" style="stroke:#E7E7E7;stroke-width:1;"/><polygon fill="#E7E7E7" points="459.12,128.0669,467.7396,132.8316,464.1012,128.5001,468.4327,124.8617,459.12,128.0669" style="stroke:#E7E7E7;stroke-width:1;"/><text fill="#FFFFFF" font-family="monospace" font-size="13" lengthAdjust="spacing" textLength="109.5732" x="605.8788" y="248.3638">RoutingStopped</text><text fill="#FFFFFF" font-family="sans-serif" font-size="13" lengthAdjust="spacing" textLength="4.1323" x="715.4521" y="248.3638">&#160;</text><text fill="#FFFFFF" font-family="sans-serif" font-size="13" lengthAdjust="spacing" textLength="129.6509" x="599.9723" y="263.4966">/ trigger notification</text></g><!--link Warning to Warning--><g class="link" data-entity-1="Warning" data-entity-2="Warning" data-source-line="298" data-uid="lnk24" id="link_Warning_Warning"><path d="M569.56,392.7469 C580.71,395.0669 587.34,398.2569 587.34,402.2969 C587.34,406.3369 586.5842,408.3046 575.4342,410.6246" fill="none" id="Warning-to-Warning" style="stroke:#E7E7E7;stroke-width:1;"/><polygon fill="#E7E7E7" points="569.56,411.8469,579.1861,413.9296,574.4552,410.8283,577.5564,406.0974,569.56,411.8469" style="stroke:#E7E7E7;stroke-width:1;"/><text fill="#FFFFFF" font-family="monospace" font-size="13" lengthAdjust="spacing" textLength="117.3999" x="599.1005" y="384.3638">SampledLocation</text><text fill="#FFFFFF" font-family="sans-serif" font-size="13" lengthAdjust="spacing" textLength="5.0718" x="720.6327" y="384.3638">[</text><text fill="#FFFFFF" font-family="monospace" font-size="13" lengthAdjust="spacing" textLength="31.3066" x="725.7045" y="384.3638">late</text><text fill="#FFFFFF" font-family="sans-serif" font-size="13" lengthAdjust="spacing" textLength="9.2041" x="757.0111" y="384.3638">],</text><text fill="#FFFFFF" font-family="sans-serif" font-size="13" lengthAdjust="spacing" textLength="4.1323" x="596.3456" y="399.4966">&#160;</text><text fill="#FFFFFF" font-family="monospace" font-size="13" lengthAdjust="spacing" textLength="164.3599" x="600.4779" y="399.4966">TimeoutAlertTriggered</text><text fill="#FFFFFF" font-family="sans-serif" font-size="13" lengthAdjust="spacing" textLength="4.1323" x="764.8378" y="399.4966">,</text><text fill="#FFFFFF" font-family="sans-serif" font-size="13" lengthAdjust="spacing" textLength="4.1323" x="604.1723" y="414.6294">&#160;</text><text fill="#FFFFFF" font-family="monospace" font-size="13" lengthAdjust="spacing" textLength="148.7065" x="608.3046" y="414.6294">StuckAlertTriggered</text><text fill="#FFFFFF" font-family="sans-serif" font-size="13" lengthAdjust="spacing" textLength="4.1323" x="757.0111" y="414.6294">,</text><text fill="#FFFFFF" font-family="sans-serif" font-size="13" lengthAdjust="spacing" textLength="4.1323" x="593.34" y="429.7622">&#160;</text><text fill="#FFFFFF" font-family="monospace" font-size="13" lengthAdjust="spacing" textLength="133.0532" x="597.4723" y="429.7622">StuckAlertStopped</text><text fill="#FFFFFF" font-family="sans-serif" font-size="13" lengthAdjust="spacing" textLength="5.0718" x="734.6579" y="429.7622">[</text><text fill="#FFFFFF" font-family="monospace" font-size="13" lengthAdjust="spacing" textLength="31.3066" x="739.7296" y="429.7622">late</text><text fill="#FFFFFF" font-family="sans-serif" font-size="13" lengthAdjust="spacing" textLength="5.0718" x="771.0363" y="429.7622">]</text></g><path d="M215.5,527 L634.2075,527 A12.5,12.5 0 0 1 646.7075,539.5 L646.7075,553.2969 L203,553.2969 L203,539.5 A12.5,12.5 0 0 1 215.5,527" fill="#313139" style="stroke:#313139;stroke-width:1;"/><rect fill="none" height="98.5625" rx="12.5" ry="12.5" style="stroke:#E7E7E7;stroke-width:0.5;" width="443.7075" x="203" y="527"/><line style="stroke:#E7E7E7;stroke-width:0.5;" x1="203" x2="646.7075" y1="553.2969" y2="553.2969"/><text fill="#FFFFFF" font-family="sans-serif" font-size="14" lengthAdjust="spacing" textLength="66.9375" x="391.385" y="544.9951">SOSMode</text><ellipse cx="224" cy="590.2969" fill="#222222" rx="10" ry="10" style="stroke:#222222;stroke-width:1;"/><g id="SOSMode.SOS"><rect fill="#313139" height="50.2656" rx="12.5" ry="12.5" style="stroke:#E7E7E7;stroke-width:0.5;" width="242.7734" x="252.5" y="565.2969"/><line style="stroke:#E7E7E7;stroke-width:0.5;" x1="252.5" x2="495.2734" y1="591.5938" y2="591.5938"/><text fill="#FFFFFF" font-family="sans-serif" font-size="14" lengthAdjust="spacing" textLength="28.793" x="359.4902" y="583.292">SOS</text><text fill="#FFFFFF" font-family="sans-serif" font-size="12" lengthAdjust="spacing" textLength="222.7734" x="257.5" y="607.7324">entry [first time] / trigger notification</text></g><!--link *start*SOSMode to SOS--><g class="link" data-entity-1="*start*SOSMode" data-entity-2="SOS" data-source-line="302" data-uid="lnk27" id="link_*start*SOSMode_SOS"><path d="M234.25,590.2969 C240.26,590.2969 240.26,590.2969 246.27,590.2969" fill="none" id="*start*SOSMode-to-SOS" style="stroke:#E7E7E7;stroke-width:1;"/><polygon fill="#E7E7E7" points="252.27,590.2969,243.27,586.2969,247.27,590.2969,243.27,594.2969,252.27,590.2969" style="stroke:#E7E7E7;stroke-width:1;"/></g><!--link SOS to SOS--><g class="link" data-entity-1="SOS" data-entity-2="SOS" data-source-line="304" data-uid="lnk28" id="link_SOS_SOS"><path d="M495.96,582.9169 C506.74,584.4669 513.5,586.9269 513.5,590.2969 C513.5,593.6669 512.6789,595.2729 501.8989,596.8229" fill="none" id="SOS-to-SOS" style="stroke:#E7E7E7;stroke-width:1;"/><polygon fill="#E7E7E7" points="495.96,597.6769,505.4377,600.3553,500.9091,596.9653,504.2991,592.4367,495.96,597.6769" style="stroke:#E7E7E7;stroke-width:1;"/><text fill="#FFFFFF" font-family="sans-serif" font-size="13" lengthAdjust="spacing" textLength="112.2075" x="519.5" y="594.8638">SampledLocation</text></g><ellipse cx="16" cy="228.5" fill="#222222" rx="10" ry="10" style="stroke:#222222;stroke-width:1;"/><!--link *start* to NormalMode--><g class="link" data-entity-1="*start*" data-entity-2="NormalMode" data-source-line="278" data-uid="lnk3" id="link_*start*_NormalMode"><path d="M26.01,228.5 C37.47,228.5 42.93,228.5 54.38,228.5" fill="none" id="*start*-to-NormalMode" style="stroke:#E7E7E7;stroke-width:1;"/><polygon fill="#E7E7E7" points="60.38,228.5,51.38,224.5,55.38,228.5,51.38,232.5,60.38,228.5" style="stroke:#E7E7E7;stroke-width:1;"/></g><!--link NormalMode to SOSMode--><g class="link" data-entity-1="NormalMode" data-entity-2="SOSMode" data-source-line="307" data-uid="lnk29" id="link_NormalMode_SOSMode"><path d="M323.83,450.2 C324.68,466.18 328.15,481.93 335,497 C339.98,507.95 343.2191,513.5802 351.5991,522.5302" fill="none" id="NormalMode-to-SOSMode" style="stroke:#E7E7E7;stroke-width:1;"/><polygon fill="#E7E7E7" points="355.7,526.91,352.4686,517.6064,352.2826,523.2602,346.6288,523.0742,355.7,526.91" style="stroke:#E7E7E7;stroke-width:1;"/><text fill="#FFFFFF" font-family="monospace" font-size="13" lengthAdjust="spacing" textLength="133.0532" x="336" y="493.0669">SOSAlertTriggered</text></g><!--link SOSMode to NormalMode--><g class="link" data-entity-1="SOSMode" data-entity-2="NormalMode" data-source-line="308" data-uid="lnk30" id="link_SOSMode_NormalMode"><path d="M461.08,526.81 C466.41,517.35 471.08,507.19 474,497 C478.35,481.81 480.4278,472.0013 481.2878,456.0113" fill="none" id="SOSMode-to-NormalMode" style="stroke:#E7E7E7;stroke-width:1;"/><polygon fill="#E7E7E7" points="481.61,450.02,477.1324,458.7922,481.3415,455.0128,485.1209,459.2218,481.61,450.02" style="stroke:#E7E7E7;stroke-width:1;"/><text fill="#FFFFFF" font-family="monospace" font-size="13" lengthAdjust="spacing" textLength="117.3999" x="478" y="493.0669">SOSAlertStopped</text></g><!--SRC=[dLJBQiCm4BpxAxOwbfhSImdaM6WRg0Cvk3a8Uvs8E99HrYcXzD-xybicAKvyYRAQdTaPsOeVDn3EuSFOWypVJOf1S2H9EAZ0Jm3yn0x9q4L2weHLgLuEgl0CGaJoKEIOlfb4aZ9QYC03vvWHDxngsRUiKTCootAbKGYO0LcrtQ85RKXbgkQfIBgka14xcYJyQKfIUiiGLh5dY3DbZmIa3hZvJslSDuC2RSQnGBB3P7y4prPglZMFqpS9qQmZafOmvN66h65P-DDtQ5CK3WrVUbeIDwdws2k9hQNLNcAi3ZAtADDpCmccG3i4Zj81ySJ0IM6wQNlwqSa_ESyy5PN9Vf6ZfLLDvsmqUoi-DQOQxxAq43c_joyXsH8RrwrGdRLdl9Feyuw5U70KGcpQGSRn334N5EuwJV29_7WkJk0FUIMH2LbU2Q7rzzjU1T4o6jy3SrUi_lBlpL-Mwmbh3kuTUNIwWykdmLNhAf5bDBOJjFkXTvDvyCvXy0S0]--></g></svg>