<svg xmlns="http://www.w3.org/2000/svg" xmlns:xlink="http://www.w3.org/1999/xlink" contentStyleType="text/css" data-diagram-type="CLASS" height="432px" preserveAspectRatio="none" style="width:426px;height:432px;background:#FFFFFF;" version="1.1" viewBox="0 0 426 432" width="426px" zoomAndPan="magnify"><defs/><g><!--cluster domain--><g class="cluster" data-entity="domain" data-source-line="19" data-uid="ent0002" id="cluster_domain"><path d="M8.5,6 L67.9404,6 A3.75,3.75 0 0 1 70.4404,8.5 L77.4404,28.2969 L416.5,28.2969 A2.5,2.5 0 0 1 419,30.7969 L419,422.5 A2.5,2.5 0 0 1 416.5,425 L8.5,425 A2.5,2.5 0 0 1 6,422.5 L6,8.5 A2.5,2.5 0 0 1 8.5,6" fill="none" style="stroke:#000000;stroke-width:1.5;"/><line style="stroke:#000000;stroke-width:1.5;" x1="6" x2="77.4404" y1="28.2969" y2="28.2969"/><text fill="#000000" font-family="sans-serif" font-size="14" font-weight="bold" lengthAdjust="spacing" textLength="58.4404" x="10" y="20.9951">domain</text></g><!--cluster user--><g class="cluster" data-entity="user" data-source-line="20" data-uid="ent0003" id="cluster_user"><path d="M51.5,229 L87.1992,229 A3.75,3.75 0 0 1 89.6992,231.5 L96.6992,251.2969 L373.5,251.2969 A2.5,2.5 0 0 1 376,253.7969 L376,398.5 A2.5,2.5 0 0 1 373.5,401 L51.5,401 A2.5,2.5 0 0 1 49,398.5 L49,231.5 A2.5,2.5 0 0 1 51.5,229" fill="none" style="stroke:#000000;stroke-width:1.5;"/><line style="stroke:#000000;stroke-width:1.5;" x1="49" x2="96.6992" y1="251.2969" y2="251.2969"/><text fill="#000000" font-family="sans-serif" font-size="14" font-weight="bold" lengthAdjust="spacing" textLength="34.6992" x="53" y="243.9951">user</text></g><!--cluster group--><g class="cluster" data-entity="group" data-source-line="33" data-uid="ent0007" id="cluster_group"><path d="M32.5,49 L80.0322,49 A3.75,3.75 0 0 1 82.5322,51.5 L89.5322,71.2969 L392.5,71.2969 A2.5,2.5 0 0 1 395,73.7969 L395,202.5 A2.5,2.5 0 0 1 392.5,205 L32.5,205 A2.5,2.5 0 0 1 30,202.5 L30,51.5 A2.5,2.5 0 0 1 32.5,49" fill="none" style="stroke:#000000;stroke-width:1.5;"/><line style="stroke:#000000;stroke-width:1.5;" x1="30" x2="89.5322" y1="71.2969" y2="71.2969"/><text fill="#000000" font-family="sans-serif" font-size="14" font-weight="bold" lengthAdjust="spacing" textLength="46.5322" x="34" y="63.9951">group</text></g><!--class User--><g class="entity" data-entity="User" data-source-line="21" data-uid="ent0004" id="entity_User"><rect fill="#F1F1F1" height="121.4531" rx="2.5" ry="2.5" style="stroke:#181818;stroke-width:0.5;" width="143.6602" x="65" y="264"/><ellipse cx="109.7568" cy="284.1328" fill="#B4A7E5" rx="11" ry="11" style="stroke:#181818;stroke-width:1;"/><path d="M105.6787,279.8984 L105.6787,277.7422 L113.0693,277.7422 L113.0693,279.8984 L110.6006,279.8984 L110.6006,287.9766 L113.0693,287.9766 L113.0693,290.1328 L105.6787,290.1328 L105.6787,287.9766 L108.1475,287.9766 L108.1475,279.8984 L105.6787,279.8984 Z " fill="#000000"/><text fill="#000000" font-family="sans-serif" font-size="12" font-style="italic" lengthAdjust="spacing" textLength="49.6465" x="128.2568" y="280.1387">&#171;entity&#187;</text><text fill="#000000" font-family="sans-serif" font-size="14" font-style="italic" lengthAdjust="spacing" textLength="31.9102" x="137.125" y="295.9639">User</text><line style="stroke:#181818;stroke-width:0.5;" x1="66" x2="207.6602" y1="304.2656" y2="304.2656"/><ellipse cx="76" cy="317.9141" fill="none" rx="3" ry="3" style="stroke:#038048;stroke-width:1;"/><text fill="#000000" font-family="sans-serif" font-size="14" lengthAdjust="spacing" textLength="66.8691" x="85" y="321.2607">id: UserId</text><ellipse cx="76" cy="334.2109" fill="none" rx="3" ry="3" style="stroke:#038048;stroke-width:1;"/><text fill="#000000" font-family="sans-serif" font-size="14" lengthAdjust="spacing" textLength="90.6514" x="85" y="337.5576">name: String</text><ellipse cx="76" cy="350.5078" fill="none" rx="3" ry="3" style="stroke:#038048;stroke-width:1;"/><text fill="#000000" font-family="sans-serif" font-size="14" lengthAdjust="spacing" textLength="89.5576" x="85" y="353.8545">email: String</text><ellipse cx="76" cy="366.8047" fill="none" rx="3" ry="3" style="stroke:#038048;stroke-width:1;"/><text fill="#000000" font-family="sans-serif" font-size="14" lengthAdjust="spacing" textLength="117.6602" x="85" y="370.1514">password: String</text><line style="stroke:#181818;stroke-width:0.5;" x1="66" x2="207.6602" y1="377.4531" y2="377.4531"/></g><!--class UserId--><g class="entity" data-entity="UserId" data-source-line="27" data-uid="ent0005" id="entity_UserId"><rect fill="#F1F1F1" height="72.5625" rx="2.5" ry="2.5" style="stroke:#181818;stroke-width:0.5;" width="116.3828" x="244" y="288"/><ellipse cx="259" cy="308.1328" fill="#B4A7E5" rx="11" ry="11" style="stroke:#181818;stroke-width:1;"/><path d="M254.9219,303.8984 L254.9219,301.7422 L262.3125,301.7422 L262.3125,303.8984 L259.8438,303.8984 L259.8438,311.9766 L262.3125,311.9766 L262.3125,314.1328 L254.9219,314.1328 L254.9219,311.9766 L257.3906,311.9766 L257.3906,303.8984 L254.9219,303.8984 Z " fill="#000000"/><text fill="#000000" font-family="sans-serif" font-size="12" font-style="italic" lengthAdjust="spacing" textLength="88.3828" x="271" y="304.1387">&#171;value object&#187;</text><text fill="#000000" font-family="sans-serif" font-size="14" font-style="italic" lengthAdjust="spacing" textLength="44.9258" x="292.7285" y="319.9639">UserId</text><line style="stroke:#181818;stroke-width:0.5;" x1="245" x2="359.3828" y1="328.2656" y2="328.2656"/><ellipse cx="255" cy="341.9141" fill="none" rx="3" ry="3" style="stroke:#038048;stroke-width:1;"/><text fill="#000000" font-family="sans-serif" font-size="14" lengthAdjust="spacing" textLength="82.8105" x="264" y="345.2607">value: UUID</text><line style="stroke:#181818;stroke-width:0.5;" x1="245" x2="359.3828" y1="352.5625" y2="352.5625"/></g><!--class Group--><g class="entity" data-entity="Group" data-source-line="34" data-uid="ent0008" id="entity_Group"><rect fill="#F1F1F1" height="105.1563" rx="2.5" ry="2.5" style="stroke:#181818;stroke-width:0.5;" width="181.4492" x="46.5" y="84"/><ellipse cx="110.1514" cy="104.1328" fill="#B4A7E5" rx="11" ry="11" style="stroke:#181818;stroke-width:1;"/><path d="M106.0732,99.8984 L106.0732,97.7422 L113.4639,97.7422 L113.4639,99.8984 L110.9951,99.8984 L110.9951,107.9766 L113.4639,107.9766 L113.4639,110.1328 L106.0732,110.1328 L106.0732,107.9766 L108.542,107.9766 L108.542,99.8984 L106.0732,99.8984 Z " fill="#000000"/><text fill="#000000" font-family="sans-serif" font-size="12" font-style="italic" lengthAdjust="spacing" textLength="49.6465" x="128.6514" y="100.1387">&#171;entity&#187;</text><text fill="#000000" font-family="sans-serif" font-size="14" font-style="italic" lengthAdjust="spacing" textLength="42.9297" x="132.0098" y="115.9639">Group</text><line style="stroke:#181818;stroke-width:0.5;" x1="47.5" x2="226.9492" y1="124.2656" y2="124.2656"/><ellipse cx="57.5" cy="137.9141" fill="none" rx="3" ry="3" style="stroke:#038048;stroke-width:1;"/><text fill="#000000" font-family="sans-serif" font-size="14" lengthAdjust="spacing" textLength="77.8887" x="66.5" y="141.2607">id: GroupId</text><ellipse cx="57.5" cy="154.2109" fill="none" rx="3" ry="3" style="stroke:#038048;stroke-width:1;"/><text fill="#000000" font-family="sans-serif" font-size="14" lengthAdjust="spacing" textLength="90.6514" x="66.5" y="157.5576">name: String</text><ellipse cx="57.5" cy="170.5078" fill="none" rx="3" ry="3" style="stroke:#038048;stroke-width:1;"/><text fill="#000000" font-family="sans-serif" font-size="14" lengthAdjust="spacing" textLength="155.4492" x="66.5" y="173.8545">members: List&lt;User&gt;</text><line style="stroke:#181818;stroke-width:0.5;" x1="47.5" x2="226.9492" y1="181.1563" y2="181.1563"/></g><!--class GroupId--><g class="entity" data-entity="GroupId" data-source-line="39" data-uid="ent0009" id="entity_GroupId"><rect fill="#F1F1F1" height="72.5625" rx="2.5" ry="2.5" style="stroke:#181818;stroke-width:0.5;" width="116.3828" x="263" y="100"/><ellipse cx="278" cy="120.1328" fill="#B4A7E5" rx="11" ry="11" style="stroke:#181818;stroke-width:1;"/><path d="M273.9219,115.8984 L273.9219,113.7422 L281.3125,113.7422 L281.3125,115.8984 L278.8438,115.8984 L278.8438,123.9766 L281.3125,123.9766 L281.3125,126.1328 L273.9219,126.1328 L273.9219,123.9766 L276.3906,123.9766 L276.3906,115.8984 L273.9219,115.8984 Z " fill="#000000"/><text fill="#000000" font-family="sans-serif" font-size="12" font-style="italic" lengthAdjust="spacing" textLength="88.3828" x="290" y="116.1387">&#171;value object&#187;</text><text fill="#000000" font-family="sans-serif" font-size="14" font-style="italic" lengthAdjust="spacing" textLength="55.9453" x="306.2188" y="131.9639">GroupId</text><line style="stroke:#181818;stroke-width:0.5;" x1="264" x2="378.3828" y1="140.2656" y2="140.2656"/><ellipse cx="274" cy="153.9141" fill="none" rx="3" ry="3" style="stroke:#038048;stroke-width:1;"/><text fill="#000000" font-family="sans-serif" font-size="14" lengthAdjust="spacing" textLength="82.8105" x="283" y="157.2607">value: UUID</text><line style="stroke:#181818;stroke-width:0.5;" x1="264" x2="378.3828" y1="164.5625" y2="164.5625"/></g><!--link User to UserId--><g class="link" data-entity-1="User" data-entity-2="UserId" data-source-line="30" data-uid="lnk6" id="link_User_UserId"><path codeLine="30" d="M221.19,324.5 C232.79,324.5 226.39,324.5 237.99,324.5" fill="none" id="User-UserId" style="stroke:#181818;stroke-width:1;"/><polygon fill="#181818" points="209.19,324.5,215.19,328.5,221.19,324.5,215.19,320.5,209.19,324.5" style="stroke:#181818;stroke-width:1;"/><polygon fill="#181818" points="243.99,324.5,234.99,320.5,238.99,324.5,234.99,328.5,243.99,324.5" style="stroke:#181818;stroke-width:1;"/><text fill="#000000" font-family="sans-serif" font-size="13" lengthAdjust="spacing" textLength="8.271" x="227.6499" y="320.5974">1</text></g><!--link Group to GroupId--><g class="link" data-entity-1="Group" data-entity-2="GroupId" data-source-line="42" data-uid="lnk10" id="link_Group_GroupId"><path codeLine="42" d="M239.56,136.5 C251.36,136.5 245.17,136.5 256.97,136.5" fill="none" id="Group-GroupId" style="stroke:#181818;stroke-width:1;"/><polygon fill="#181818" points="227.56,136.5,233.56,140.5,239.56,136.5,233.56,132.5,227.56,136.5" style="stroke:#181818;stroke-width:1;"/><polygon fill="#181818" points="262.97,136.5,253.97,132.5,257.97,136.5,253.97,140.5,262.97,136.5" style="stroke:#181818;stroke-width:1;"/><text fill="#000000" font-family="sans-serif" font-size="13" lengthAdjust="spacing" textLength="8.271" x="246.6272" y="132.5974">1</text></g><!--link Group to User--><g class="link" data-entity-1="Group" data-entity-2="User" data-source-line="43" data-uid="lnk11" id="link_Group_User"><path codeLine="43" d="M137,189.31 C137,212.42 137,233.79 137,257.75" fill="none" id="Group-to-User" style="stroke:#181818;stroke-width:1;"/><polygon fill="#181818" points="137,263.75,141,254.75,137,258.75,133,254.75,137,263.75" style="stroke:#181818;stroke-width:1;"/><text fill="#000000" font-family="sans-serif" font-size="13" lengthAdjust="spacing" textLength="23.0356" x="112.692" y="252.907">0..*</text></g><!--SRC=[bP312e9054NtViN3fQ7KLiHL44Axy0D6vpLDwOpCZ4M4_vwEOef6jBq7thtdLII_4OP0PKcuW9S3K0rHhL7P080BW-fCSeIq2wC8XU7c6SS31zW0fw6b2HqZGKeCuMGK5smCiIqg5cb5j7v8HMUWMIbFQ5j_9qMD8BChvcOsme9sHvhi9nViQCzNd5sC7uExSpzB6sUYp9IiguNpmQPVfIt-PLrYcQ7I8HovDb7N7gyg3iV-T-n7pYMdothkTsGR15x_0UlVl040]--></g></svg>