<svg xmlns="http://www.w3.org/2000/svg" xmlns:xlink="http://www.w3.org/1999/xlink" contentStyleType="text/css" data-diagram-type="CLASS" height="538px" preserveAspectRatio="none" style="width:439px;height:538px;background:#FFFFFF;" version="1.1" viewBox="0 0 439 538" width="439px" zoomAndPan="magnify"><defs/><g><!--cluster domain--><g class="cluster" data-entity="domain" data-source-line="19" data-uid="ent0002" id="cluster_domain"><path d="M8.5,6 L67.9404,6 A3.75,3.75 0 0 1 70.4404,8.5 L77.4404,28.2969 L429.5,28.2969 A2.5,2.5 0 0 1 432,30.7969 L432,528.5 A2.5,2.5 0 0 1 429.5,531 L8.5,531 A2.5,2.5 0 0 1 6,528.5 L6,8.5 A2.5,2.5 0 0 1 8.5,6" fill="none" style="stroke:#000000;stroke-width:1.5;"/><line style="stroke:#000000;stroke-width:1.5;" x1="6" x2="77.4404" y1="28.2969" y2="28.2969"/><text fill="#000000" font-family="sans-serif" font-size="14" font-weight="bold" lengthAdjust="spacing" textLength="58.4404" x="10" y="20.9951">domain</text></g><!--cluster user--><g class="cluster" data-entity="user" data-source-line="20" data-uid="ent0003" id="cluster_user"><path d="M32.5,335 L68.1992,335 A3.75,3.75 0 0 1 70.6992,337.5 L77.6992,357.2969 L354.5,357.2969 A2.5,2.5 0 0 1 357,359.7969 L357,504.5 A2.5,2.5 0 0 1 354.5,507 L32.5,507 A2.5,2.5 0 0 1 30,504.5 L30,337.5 A2.5,2.5 0 0 1 32.5,335" fill="none" style="stroke:#000000;stroke-width:1.5;"/><line style="stroke:#000000;stroke-width:1.5;" x1="30" x2="77.6992" y1="357.2969" y2="357.2969"/><text fill="#000000" font-family="sans-serif" font-size="14" font-weight="bold" lengthAdjust="spacing" textLength="34.6992" x="34" y="349.9951">user</text></g><!--cluster group--><g class="cluster" data-entity="group" data-source-line="39" data-uid="ent0008" id="cluster_group"><path d="M45.5,155 L93.0322,155 A3.75,3.75 0 0 1 95.5322,157.5 L102.5322,177.2969 L405.5,177.2969 A2.5,2.5 0 0 1 408,179.7969 L408,308.5 A2.5,2.5 0 0 1 405.5,311 L45.5,311 A2.5,2.5 0 0 1 43,308.5 L43,157.5 A2.5,2.5 0 0 1 45.5,155" fill="none" style="stroke:#000000;stroke-width:1.5;"/><line style="stroke:#000000;stroke-width:1.5;" x1="43" x2="102.5322" y1="177.2969" y2="177.2969"/><text fill="#000000" font-family="sans-serif" font-size="14" font-weight="bold" lengthAdjust="spacing" textLength="46.5322" x="47" y="169.9951">group</text></g><!--class Membership--><g class="entity" data-entity="Membership" data-source-line="34" data-uid="ent0007" id="entity_Membership"><rect fill="#F1F1F1" height="88.8594" rx="2.5" ry="2.5" style="stroke:#181818;stroke-width:0.5;" width="145.0957" x="246.5" y="41"/><ellipse cx="273.4549" cy="61.1328" fill="#B4A7E5" rx="11" ry="11" style="stroke:#181818;stroke-width:1;"/><path d="M269.3768,56.8984 L269.3768,54.7422 L276.7674,54.7422 L276.7674,56.8984 L274.2986,56.8984 L274.2986,64.9766 L276.7674,64.9766 L276.7674,67.1328 L269.3768,67.1328 L269.3768,64.9766 L271.8455,64.9766 L271.8455,56.8984 L269.3768,56.8984 Z " fill="#000000"/><text fill="#000000" font-family="sans-serif" font-size="12" font-style="italic" lengthAdjust="spacing" textLength="88.3828" x="289.1848" y="57.1387">&#171;value object&#187;</text><text fill="#000000" font-family="sans-serif" font-size="14" font-style="italic" lengthAdjust="spacing" textLength="86.5293" x="290.1115" y="72.9639">Membership</text><line style="stroke:#181818;stroke-width:0.5;" x1="247.5" x2="390.5957" y1="81.2656" y2="81.2656"/><ellipse cx="257.5" cy="94.9141" fill="none" rx="3" ry="3" style="stroke:#038048;stroke-width:1;"/><text fill="#000000" font-family="sans-serif" font-size="14" lengthAdjust="spacing" textLength="97.6445" x="266.5" y="98.2607">userId: UserId</text><ellipse cx="257.5" cy="111.2109" fill="none" rx="3" ry="3" style="stroke:#038048;stroke-width:1;"/><text fill="#000000" font-family="sans-serif" font-size="14" lengthAdjust="spacing" textLength="119.0957" x="266.5" y="114.5576">groupId: GroupId</text><line style="stroke:#181818;stroke-width:0.5;" x1="247.5" x2="390.5957" y1="121.8594" y2="121.8594"/></g><!--class membership--><g class="entity" data-entity="membership" data-source-line="52" data-uid="ent0013" id="entity_membership"><rect fill="#F1F1F1" height="48" rx="2.5" ry="2.5" style="stroke:#181818;stroke-width:0.5;" width="120.0879" x="68" y="61.5"/><ellipse cx="83" cy="77.5" fill="#ADD1B2" rx="11" ry="11" style="stroke:#181818;stroke-width:1;"/><path d="M85.9688,83.1406 Q85.3906,83.4375 84.75,83.5781 Q84.1094,83.7344 83.4063,83.7344 Q80.9063,83.7344 79.5781,82.0938 Q78.2656,80.4375 78.2656,77.3125 Q78.2656,74.1875 79.5781,72.5313 Q80.9063,70.875 83.4063,70.875 Q84.1094,70.875 84.75,71.0313 Q85.4063,71.1875 85.9688,71.4844 L85.9688,74.2031 Q85.3438,73.625 84.75,73.3594 Q84.1563,73.0781 83.5313,73.0781 Q82.1875,73.0781 81.5,74.1563 Q80.8125,75.2188 80.8125,77.3125 Q80.8125,79.4063 81.5,80.4844 Q82.1875,81.5469 83.5313,81.5469 Q84.1563,81.5469 84.75,81.2813 Q85.3438,81 85.9688,80.4219 L85.9688,83.1406 Z " fill="#000000"/><text fill="#000000" font-family="sans-serif" font-size="14" lengthAdjust="spacing" textLength="88.0879" x="97" y="82.3467">membership</text><line style="stroke:#181818;stroke-width:0.5;" x1="69" x2="187.0879" y1="93.5" y2="93.5"/><line style="stroke:#181818;stroke-width:0.5;" x1="69" x2="187.0879" y1="101.5" y2="101.5"/></g><!--class User--><g class="entity" data-entity="User" data-source-line="21" data-uid="ent0004" id="entity_User"><rect fill="#F1F1F1" height="121.4531" rx="2.5" ry="2.5" style="stroke:#181818;stroke-width:0.5;" width="143.6602" x="197" y="370"/><ellipse cx="241.7568" cy="390.1328" fill="#B4A7E5" rx="11" ry="11" style="stroke:#181818;stroke-width:1;"/><path d="M237.6787,385.8984 L237.6787,383.7422 L245.0693,383.7422 L245.0693,385.8984 L242.6006,385.8984 L242.6006,393.9766 L245.0693,393.9766 L245.0693,396.1328 L237.6787,396.1328 L237.6787,393.9766 L240.1475,393.9766 L240.1475,385.8984 L237.6787,385.8984 Z " fill="#000000"/><text fill="#000000" font-family="sans-serif" font-size="12" font-style="italic" lengthAdjust="spacing" textLength="49.6465" x="260.2568" y="386.1387">&#171;entity&#187;</text><text fill="#000000" font-family="sans-serif" font-size="14" font-style="italic" lengthAdjust="spacing" textLength="31.9102" x="269.125" y="401.9639">User</text><line style="stroke:#181818;stroke-width:0.5;" x1="198" x2="339.6602" y1="410.2656" y2="410.2656"/><ellipse cx="208" cy="423.9141" fill="none" rx="3" ry="3" style="stroke:#038048;stroke-width:1;"/><text fill="#000000" font-family="sans-serif" font-size="14" lengthAdjust="spacing" textLength="66.8691" x="217" y="427.2607">id: UserId</text><ellipse cx="208" cy="440.2109" fill="none" rx="3" ry="3" style="stroke:#038048;stroke-width:1;"/><text fill="#000000" font-family="sans-serif" font-size="14" lengthAdjust="spacing" textLength="90.6514" x="217" y="443.5576">name: String</text><ellipse cx="208" cy="456.5078" fill="none" rx="3" ry="3" style="stroke:#038048;stroke-width:1;"/><text fill="#000000" font-family="sans-serif" font-size="14" lengthAdjust="spacing" textLength="89.5576" x="217" y="459.8545">email: String</text><ellipse cx="208" cy="472.8047" fill="none" rx="3" ry="3" style="stroke:#038048;stroke-width:1;"/><text fill="#000000" font-family="sans-serif" font-size="14" lengthAdjust="spacing" textLength="117.6602" x="217" y="476.1514">password: String</text><line style="stroke:#181818;stroke-width:0.5;" x1="198" x2="339.6602" y1="483.4531" y2="483.4531"/></g><!--class UserId--><g class="entity" data-entity="UserId" data-source-line="27" data-uid="ent0005" id="entity_UserId"><rect fill="#F1F1F1" height="72.5625" rx="2.5" ry="2.5" style="stroke:#181818;stroke-width:0.5;" width="116.3828" x="46" y="394"/><ellipse cx="61" cy="414.1328" fill="#B4A7E5" rx="11" ry="11" style="stroke:#181818;stroke-width:1;"/><path d="M56.9219,409.8984 L56.9219,407.7422 L64.3125,407.7422 L64.3125,409.8984 L61.8438,409.8984 L61.8438,417.9766 L64.3125,417.9766 L64.3125,420.1328 L56.9219,420.1328 L56.9219,417.9766 L59.3906,417.9766 L59.3906,409.8984 L56.9219,409.8984 Z " fill="#000000"/><text fill="#000000" font-family="sans-serif" font-size="12" font-style="italic" lengthAdjust="spacing" textLength="88.3828" x="73" y="410.1387">&#171;value object&#187;</text><text fill="#000000" font-family="sans-serif" font-size="14" font-style="italic" lengthAdjust="spacing" textLength="44.9258" x="94.7285" y="425.9639">UserId</text><line style="stroke:#181818;stroke-width:0.5;" x1="47" x2="161.3828" y1="434.2656" y2="434.2656"/><ellipse cx="57" cy="447.9141" fill="none" rx="3" ry="3" style="stroke:#038048;stroke-width:1;"/><text fill="#000000" font-family="sans-serif" font-size="14" lengthAdjust="spacing" textLength="82.8105" x="66" y="451.2607">value: UUID</text><line style="stroke:#181818;stroke-width:0.5;" x1="47" x2="161.3828" y1="458.5625" y2="458.5625"/></g><!--class Group--><g class="entity" data-entity="Group" data-source-line="40" data-uid="ent0009" id="entity_Group"><rect fill="#F1F1F1" height="105.1563" rx="2.5" ry="2.5" style="stroke:#181818;stroke-width:0.5;" width="181.4492" x="59.5" y="190"/><ellipse cx="123.1514" cy="210.1328" fill="#B4A7E5" rx="11" ry="11" style="stroke:#181818;stroke-width:1;"/><path d="M119.0732,205.8984 L119.0732,203.7422 L126.4639,203.7422 L126.4639,205.8984 L123.9951,205.8984 L123.9951,213.9766 L126.4639,213.9766 L126.4639,216.1328 L119.0732,216.1328 L119.0732,213.9766 L121.542,213.9766 L121.542,205.8984 L119.0732,205.8984 Z " fill="#000000"/><text fill="#000000" font-family="sans-serif" font-size="12" font-style="italic" lengthAdjust="spacing" textLength="49.6465" x="141.6514" y="206.1387">&#171;entity&#187;</text><text fill="#000000" font-family="sans-serif" font-size="14" font-style="italic" lengthAdjust="spacing" textLength="42.9297" x="145.0098" y="221.9639">Group</text><line style="stroke:#181818;stroke-width:0.5;" x1="60.5" x2="239.9492" y1="230.2656" y2="230.2656"/><ellipse cx="70.5" cy="243.9141" fill="none" rx="3" ry="3" style="stroke:#038048;stroke-width:1;"/><text fill="#000000" font-family="sans-serif" font-size="14" lengthAdjust="spacing" textLength="77.8887" x="79.5" y="247.2607">id: GroupId</text><ellipse cx="70.5" cy="260.2109" fill="none" rx="3" ry="3" style="stroke:#038048;stroke-width:1;"/><text fill="#000000" font-family="sans-serif" font-size="14" lengthAdjust="spacing" textLength="90.6514" x="79.5" y="263.5576">name: String</text><ellipse cx="70.5" cy="276.5078" fill="none" rx="3" ry="3" style="stroke:#038048;stroke-width:1;"/><text fill="#000000" font-family="sans-serif" font-size="14" lengthAdjust="spacing" textLength="155.4492" x="79.5" y="279.8545">members: List&lt;User&gt;</text><line style="stroke:#181818;stroke-width:0.5;" x1="60.5" x2="239.9492" y1="287.1563" y2="287.1563"/></g><!--class GroupId--><g class="entity" data-entity="GroupId" data-source-line="45" data-uid="ent0010" id="entity_GroupId"><rect fill="#F1F1F1" height="72.5625" rx="2.5" ry="2.5" style="stroke:#181818;stroke-width:0.5;" width="116.3828" x="276" y="206"/><ellipse cx="291" cy="226.1328" fill="#B4A7E5" rx="11" ry="11" style="stroke:#181818;stroke-width:1;"/><path d="M286.9219,221.8984 L286.9219,219.7422 L294.3125,219.7422 L294.3125,221.8984 L291.8438,221.8984 L291.8438,229.9766 L294.3125,229.9766 L294.3125,232.1328 L286.9219,232.1328 L286.9219,229.9766 L289.3906,229.9766 L289.3906,221.8984 L286.9219,221.8984 Z " fill="#000000"/><text fill="#000000" font-family="sans-serif" font-size="12" font-style="italic" lengthAdjust="spacing" textLength="88.3828" x="303" y="222.1387">&#171;value object&#187;</text><text fill="#000000" font-family="sans-serif" font-size="14" font-style="italic" lengthAdjust="spacing" textLength="55.9453" x="319.2188" y="237.9639">GroupId</text><line style="stroke:#181818;stroke-width:0.5;" x1="277" x2="391.3828" y1="246.2656" y2="246.2656"/><ellipse cx="287" cy="259.9141" fill="none" rx="3" ry="3" style="stroke:#038048;stroke-width:1;"/><text fill="#000000" font-family="sans-serif" font-size="14" lengthAdjust="spacing" textLength="82.8105" x="296" y="263.2607">value: UUID</text><line style="stroke:#181818;stroke-width:0.5;" x1="277" x2="391.3828" y1="270.5625" y2="270.5625"/></g><!--link User to UserId--><g class="link" data-entity-1="User" data-entity-2="UserId" data-source-line="30" data-uid="lnk6" id="link_User_UserId"><path codeLine="30" d="M184.7,430.5 C173.13,430.5 179.57,430.5 168.01,430.5" fill="none" id="User-UserId" style="stroke:#181818;stroke-width:1;"/><polygon fill="#181818" points="196.7,430.5,190.7,426.5,184.7,430.5,190.7,434.5,196.7,430.5" style="stroke:#181818;stroke-width:1;"/><polygon fill="#181818" points="162.01,430.5,171.01,434.5,167.01,430.5,171.01,426.5,162.01,430.5" style="stroke:#181818;stroke-width:1;"/><text fill="#000000" font-family="sans-serif" font-size="13" lengthAdjust="spacing" textLength="8.271" x="170.3351" y="426.5974">1</text></g><!--link Group to GroupId--><g class="link" data-entity-1="Group" data-entity-2="GroupId" data-source-line="48" data-uid="lnk11" id="link_Group_GroupId"><path codeLine="48" d="M252.56,242.5 C264.36,242.5 258.17,242.5 269.97,242.5" fill="none" id="Group-GroupId" style="stroke:#181818;stroke-width:1;"/><polygon fill="#181818" points="240.56,242.5,246.56,246.5,252.56,242.5,246.56,238.5,240.56,242.5" style="stroke:#181818;stroke-width:1;"/><polygon fill="#181818" points="275.97,242.5,266.97,238.5,270.97,242.5,266.97,246.5,275.97,242.5" style="stroke:#181818;stroke-width:1;"/><text fill="#000000" font-family="sans-serif" font-size="13" lengthAdjust="spacing" textLength="8.271" x="259.6272" y="238.5974">1</text></g><!--link Group to User--><g class="link" data-entity-1="Group" data-entity-2="User" data-source-line="49" data-uid="lnk12" id="link_Group_User"><path codeLine="49" d="M183.15,295.31 C197.93,318.42 212.2048,340.7369 227.5448,364.6969" fill="none" id="Group-to-User" style="stroke:#181818;stroke-width:1;"/><polygon fill="#181818" points="230.78,369.75,229.296,360.0136,228.084,365.5391,222.5585,364.3271,230.78,369.75" style="stroke:#181818;stroke-width:1;"/><text fill="#000000" font-family="sans-serif" font-size="13" lengthAdjust="spacing" textLength="23.0356" x="202.0528" y="358.907">0..*</text></g><!--link membership to UserId--><g class="link" data-entity-1="membership" data-entity-2="UserId" data-source-line="52" data-uid="lnk14" id="link_membership_UserId"><path codeLine="52" d="M69.2068,116.3481 C54.8968,125.7681 50.97,131.55 43,147 C7.96,214.94 23.92,244.97 43,319 C49.89,345.74 61.5203,367.8763 74.8703,388.5963" fill="none" id="membership-UserId" style="stroke:#181818;stroke-width:1;"/><polygon fill="#181818" points="79.23,109.75,72.019,109.708,69.2068,116.3481,76.4178,116.3901,79.23,109.75" style="stroke:#181818;stroke-width:1;"/><polygon fill="#181818" points="78.12,393.64,76.6079,383.9079,75.4119,389.4369,69.8829,388.2409,78.12,393.64" style="stroke:#181818;stroke-width:1;"/><text fill="#000000" font-family="sans-serif" font-size="13" lengthAdjust="spacing" textLength="8.271" x="64.7877" y="382.8561">1</text></g><!--link membership to GroupId--><g class="link" data-entity-1="membership" data-entity-2="GroupId" data-source-line="53" data-uid="lnk15" id="link_membership_GroupId"><path codeLine="53" d="M194.9567,114.2874 C224.2267,126.9274 245.51,137.21 258,147 C278.88,163.36 294.1559,181.611 307.7959,200.901" fill="none" id="membership-GroupId" style="stroke:#181818;stroke-width:1;"/><polygon fill="#181818" points="183.94,109.53,187.8625,115.5809,194.9567,114.2874,191.0341,108.2365,183.94,109.53" style="stroke:#181818;stroke-width:1;"/><polygon fill="#181818" points="311.26,205.8,309.3299,196.1421,308.3733,201.7175,302.7979,200.7609,311.26,205.8" style="stroke:#181818;stroke-width:1;"/><text fill="#000000" font-family="sans-serif" font-size="13" lengthAdjust="spacing" textLength="8.271" x="298.487" y="195.0446">1</text></g><!--SRC=[bP7DYeCm58NtFiMbIyKotOguAWn2PrNw0D7SsimqFoInfHJVlPferR4Tc5quvtBFkLyKANz8XK0b9qp0FG1GlLGRr4u0OCAYFf8IuT29QOh2CdlBiju7Y83HnBavVKg2S4nWRpKJrLF4DkYyK1KnvYerdHdDY_2Sjl4NSguHPF6DfPsLS4RRuv1l9njSwJ3Mh3hPE8FLPZKsRO8Wc6Py8IzGcnDJYnmV4pam-VpQ22ejQzMfd_xXLuyqdR_0wORVynnt_G6K-yO9x9YnQLSgUqclN_P_VBxadD-qcVVZplbOhqCFTxYVZpp3cCgh-Fq1xmQ6XEO1]--></g></svg>