<svg xmlns="http://www.w3.org/2000/svg" xmlns:xlink="http://www.w3.org/1999/xlink" contentStyleType="text/css" data-diagram-type="STATE" height="587px" preserveAspectRatio="none" style="width:701px;height:587px;background:#1B1B1B;" version="1.1" viewBox="0 0 701 587" width="701px" zoomAndPan="magnify"><defs/><g><rect fill="#1B1B1B" height="587" style="stroke:#FFFFFF00;stroke-width:1;" width="701" x="0" y="0"/><path d="M73,7 L675.1132,7 A12.5,12.5 0 0 1 687.6132,19.5 L687.6132,33.2969 L60.5,33.2969 L60.5,19.5 A12.5,12.5 0 0 1 73,7 " fill="#313139" style="stroke:#313139;stroke-width:1;"/><rect fill="#FFFFFF" fill-opacity="0.00000" height="398.6953" rx="12.5" ry="12.5" style="stroke:#E7E7E7;stroke-width:0.5;" width="627.1132" x="60.5" y="7"/><line style="stroke:#E7E7E7;stroke-width:0.5;" x1="60.5" x2="687.6132" y1="33.2969" y2="33.2969"/><text fill="#FFFFFF" font-family="sans-serif" font-size="14" lengthAdjust="spacing" textLength="89.0449" x="329.5342" y="24.9951">NormalMode</text><ellipse cx="402.04" cy="54.2969" fill="#222222" rx="10" ry="10" style="stroke:#222222;stroke-width:1;"/><g id="NormalMode.Active"><rect fill="#313139" height="50" rx="12.5" ry="12.5" style="stroke:#E7E7E7;stroke-width:0.5;" width="63.5518" x="370.04" y="101.2969"/><line style="stroke:#E7E7E7;stroke-width:0.5;" x1="370.04" x2="433.5918" y1="127.5938" y2="127.5938"/><text fill="#FFFFFF" font-family="sans-serif" font-size="14" lengthAdjust="spacing" textLength="43.5518" x="380.04" y="119.292">Active</text></g><g id="NormalMode.Inactive"><rect fill="#313139" height="50" rx="12.5" ry="12.5" style="stroke:#E7E7E7;stroke-width:0.5;" width="75.5557" x="157.04" y="101.2969"/><line style="stroke:#E7E7E7;stroke-width:0.5;" x1="157.04" x2="232.5957" y1="127.5938" y2="127.5938"/><text fill="#FFFFFF" font-family="sans-serif" font-size="14" lengthAdjust="spacing" textLength="55.5557" x="167.04" y="119.292">Inactive</text></g><g id="NormalMode.Routing"><rect fill="#313139" height="50" rx="12.5" ry="12.5" style="stroke:#E7E7E7;stroke-width:0.5;" width="74.3047" x="262.04" y="204.2969"/><line style="stroke:#E7E7E7;stroke-width:0.5;" x1="262.04" x2="336.3447" y1="230.5938" y2="230.5938"/><text fill="#FFFFFF" font-family="sans-serif" font-size="14" lengthAdjust="spacing" textLength="54.3047" x="272.04" y="222.292">Routing</text></g><g id="NormalMode.Warning"><rect fill="#313139" height="50" rx="12.5" ry="12.5" style="stroke:#E7E7E7;stroke-width:0.5;" width="78.7002" x="328.54" y="340.7969"/><line style="stroke:#E7E7E7;stroke-width:0.5;" x1="328.54" x2="407.2402" y1="367.0938" y2="367.0938"/><text fill="#FFFFFF" font-family="sans-serif" font-size="14" lengthAdjust="spacing" textLength="58.7002" x="338.54" y="358.792">Warning</text></g><!--link *start*NormalMode to Active--><g id="link_*start*NormalMode_Active"><path d="M402.04,64.4469 C402.04,73.7169 402.04,82.4369 402.04,95.0769 " fill="#FFFFFF" fill-opacity="0.00000" id="*start*NormalMode-to-Active" style="stroke:#E7E7E7;stroke-width:1;"/><polygon fill="#E7E7E7" points="402.04,101.0769,406.04,92.0769,402.04,96.0769,398.04,92.0769,402.04,101.0769" style="stroke:#E7E7E7;stroke-width:1;"/></g><!--link Active to Active--><g id="link_Active_Active"><path d="M434.27,118.4269 C444.22,118.5869 452.04,121.2069 452.04,126.2969 C452.04,131.3869 450.2192,133.9104 440.2692,134.0704 " fill="#FFFFFF" fill-opacity="0.00000" id="Active-to-Active" style="stroke:#E7E7E7;stroke-width:1;"/><polygon fill="#E7E7E7" points="434.27,134.1669,443.3331,138.0217,439.2694,134.0865,443.2045,130.0227,434.27,134.1669" style="stroke:#E7E7E7;stroke-width:1;"/><text fill="#FFFFFF" font-family="monospace" font-size="13" lengthAdjust="spacing" textLength="117.3999" x="458.04" y="130.8638">SampledLocation</text></g><!--reverse link Inactive to Active--><g id="link_Inactive_Active"><path d="M239.0162,142.3036 C246.9362,144.6836 249.55,145.0469 257.54,146.2969 C296.19,152.3269 307,152.9169 345.54,146.2969 C353.65,144.9069 362.13,142.4669 369.98,139.7669 " fill="#FFFFFF" fill-opacity="0.00000" id="Inactive-backto-Active" style="stroke:#E7E7E7;stroke-width:1;"/><polygon fill="#E7E7E7" points="233.27,140.5769,240.7381,146.9978,238.0585,142.0158,243.0404,139.3362,233.27,140.5769" style="stroke:#E7E7E7;stroke-width:1;"/><text fill="#FFFFFF" font-family="monospace" font-size="13" lengthAdjust="spacing" textLength="86.0933" x="258.54" y="142.3638">WentOffline</text></g><!--link Inactive to Active--><g id="link_Inactive_Active"><path d="M233.49,126.2969 C272.78,126.2969 327.09,126.2969 363.91,126.2969 " fill="#FFFFFF" fill-opacity="0.00000" id="Inactive-to-Active" style="stroke:#E7E7E7;stroke-width:1;"/><polygon fill="#E7E7E7" points="369.91,126.2969,360.91,122.2969,364.91,126.2969,360.91,130.2969,369.91,126.2969" style="stroke:#E7E7E7;stroke-width:1;"/><text fill="#FFFFFF" font-family="monospace" font-size="13" lengthAdjust="spacing" textLength="117.3999" x="243.04" y="119.3638">SampledLocation</text></g><!--link Active to Routing--><g id="link_Active_Routing"><path d="M369.97,131.1969 C346.34,135.9269 315.69,146.3569 300.04,169.2969 C293.23,179.2869 291.8754,186.6284 293.0554,198.0884 " fill="#FFFFFF" fill-opacity="0.00000" id="Active-to-Routing" style="stroke:#E7E7E7;stroke-width:1;"/><polygon fill="#E7E7E7" points="293.67,204.0569,296.7271,194.6945,293.1579,199.0832,288.7692,195.5139,293.67,204.0569" style="stroke:#E7E7E7;stroke-width:1;"/><text fill="#FFFFFF" font-family="monospace" font-size="13" lengthAdjust="spacing" textLength="109.5732" x="301.04" y="182.3638">RoutingStarted</text></g><!--reverse link Active to Routing--><g id="link_Active_Routing"><path d="M414.8953,157.2244 C418.3953,168.6644 418.01,176.2469 411.04,186.2969 C394.31,210.4469 361.85,220.7369 336.17,225.0969 " fill="#FFFFFF" fill-opacity="0.00000" id="Active-backto-Routing" style="stroke:#E7E7E7;stroke-width:1;"/><polygon fill="#E7E7E7" points="413.14,151.4869,411.948,161.2633,414.6028,156.2681,419.598,158.9229,413.14,151.4869" style="stroke:#E7E7E7;stroke-width:1;"/><text fill="#FFFFFF" font-family="monospace" font-size="13" lengthAdjust="spacing" textLength="109.5732" x="416.04" y="182.3638">RoutingStopped</text></g><!--link Inactive to Routing--><g id="link_Inactive_Routing"><path d="M179.19,151.3069 C173.8,162.7069 170.75,176.0469 178.04,186.2969 C196.93,212.8369 227.8794,221.9882 255.9794,225.6182 " fill="#FFFFFF" fill-opacity="0.00000" id="Inactive-to-Routing" style="stroke:#E7E7E7;stroke-width:1;"/><polygon fill="#E7E7E7" points="261.93,226.3869,253.5166,221.2668,256.9712,225.7463,252.4917,229.2009,261.93,226.3869" style="stroke:#E7E7E7;stroke-width:1;"/><text fill="#FFFFFF" font-family="monospace" font-size="13" lengthAdjust="spacing" textLength="109.5732" x="179.04" y="182.3638">RoutingStarted</text></g><!--link Routing to Routing--><g id="link_Routing_Routing"><path d="M336.06,219.9769 C346.25,220.4269 354.04,223.5369 354.04,229.2969 C354.04,235.0569 352.2442,237.9022 342.0542,238.3522 " fill="#FFFFFF" fill-opacity="0.00000" id="Routing-to-Routing" style="stroke:#E7E7E7;stroke-width:1;"/><polygon fill="#E7E7E7" points="336.06,238.6169,345.2277,242.2159,341.0551,238.3963,344.8748,234.2237,336.06,238.6169" style="stroke:#E7E7E7;stroke-width:1;"/><text fill="#FFFFFF" font-family="monospace" font-size="13" lengthAdjust="spacing" textLength="117.3999" x="360.04" y="233.8638">SampledLocation</text></g><!--link Routing to Warning--><g id="link_Routing_Warning"><path d="M261.68,232.0969 C206.41,235.6369 107,245.6169 85.04,272.2969 C71.77,288.4269 71.5,303.3969 85.04,319.2969 C115.87,355.4669 252.2313,362.8698 322.5413,364.3598 " fill="#FFFFFF" fill-opacity="0.00000" id="Routing-to-Warning" style="stroke:#E7E7E7;stroke-width:1;"/><polygon fill="#E7E7E7" points="328.54,364.4869,319.6268,360.2971,323.5411,364.3809,319.4573,368.2953,328.54,364.4869" style="stroke:#E7E7E7;stroke-width:1;"/><text fill="#FFFFFF" font-family="monospace" font-size="13" lengthAdjust="spacing" textLength="86.0933" x="168.5627" y="285.3638">WentOffline</text><text fill="#FFFFFF" font-family="sans-serif" font-size="13" lengthAdjust="spacing" textLength="4.1323" x="254.656" y="285.3638">,</text><text fill="#FFFFFF" font-family="sans-serif" font-size="13" lengthAdjust="spacing" textLength="4.1323" x="135.1899" y="300.4966">&#160;</text><text fill="#FFFFFF" font-family="monospace" font-size="13" lengthAdjust="spacing" textLength="148.7065" x="139.3222" y="300.4966">StuckAlertTriggered</text><text fill="#FFFFFF" font-family="sans-serif" font-size="13" lengthAdjust="spacing" textLength="4.1323" x="288.0288" y="300.4966">,</text><text fill="#FFFFFF" font-family="sans-serif" font-size="13" lengthAdjust="spacing" textLength="4.1323" x="86.04" y="315.6294">&#160;</text><text fill="#FFFFFF" font-family="monospace" font-size="13" lengthAdjust="spacing" textLength="164.3599" x="90.1723" y="315.6294">TimeoutAlertTriggered</text><text fill="#FFFFFF" font-family="sans-serif" font-size="13" lengthAdjust="spacing" textLength="4.3799" x="258.6645" y="315.6294">/</text><text fill="#FFFFFF" font-family="monospace" font-size="13" lengthAdjust="spacing" textLength="78.2666" x="267.1767" y="315.6294">late&lt;-true</text></g><!--reverse link Routing to Warning--><g id="link_Routing_Warning"><path d="M335.9836,258.8279 C341.4236,264.1379 342.23,265.9069 346.04,272.2969 C358.55,293.2869 363.95,320.9169 366.28,340.5069 " fill="#FFFFFF" fill-opacity="0.00000" id="Routing-backto-Warning" style="stroke:#E7E7E7;stroke-width:1;"/><polygon fill="#E7E7E7" points="331.69,254.6369,335.3364,263.7858,335.268,258.1294,340.9245,258.061,331.69,254.6369" style="stroke:#E7E7E7;stroke-width:1;"/><text fill="#FFFFFF" font-family="monospace" font-size="13" lengthAdjust="spacing" textLength="133.0532" x="379.8518" y="292.8638">StuckAlertStopped</text><text fill="#FFFFFF" font-family="sans-serif" font-size="13" lengthAdjust="spacing" textLength="4.1323" x="512.905" y="292.8638">,</text><text fill="#FFFFFF" font-family="sans-serif" font-size="13" lengthAdjust="spacing" textLength="4.1323" x="363.04" y="307.9966">&#160;</text><text fill="#FFFFFF" font-family="monospace" font-size="13" lengthAdjust="spacing" textLength="117.3999" x="367.1723" y="307.9966">SampledLocation</text><text fill="#FFFFFF" font-family="sans-serif" font-size="13" lengthAdjust="spacing" textLength="5.0718" x="488.7046" y="307.9966">[</text><text fill="#FFFFFF" font-family="monospace" font-size="13" lengthAdjust="spacing" textLength="39.1333" x="493.7763" y="307.9966">!late</text><text fill="#FFFFFF" font-family="sans-serif" font-size="13" lengthAdjust="spacing" textLength="5.0718" x="532.9096" y="307.9966">]</text></g><!--reverse link Active to Warning--><g id="link_Active_Warning"><path d="M440.22,129.1261 C469.91,132.1061 506.82,140.8569 530.04,169.2969 C572.35,221.0969 582.92,266.3569 542.04,319.2969 C525.78,340.3669 454,353.5569 407.86,360.0069 " fill="#FFFFFF" fill-opacity="0.00000" id="Active-backto-Warning" style="stroke:#E7E7E7;stroke-width:1;"/><polygon fill="#E7E7E7" points="434.25,128.5269,442.8055,133.4057,439.225,129.0262,443.6045,125.4457,434.25,128.5269" style="stroke:#E7E7E7;stroke-width:1;"/><text fill="#FFFFFF" font-family="monospace" font-size="13" lengthAdjust="spacing" textLength="109.5732" x="568.04" y="233.8638">RoutingStopped</text></g><!--link Warning to Warning--><g id="link_Warning_Warning"><path d="M407.55,352.8069 C417.81,353.6069 425.54,357.9369 425.54,365.7969 C425.54,373.6569 423.7918,377.5205 413.5318,378.3205 " fill="#FFFFFF" fill-opacity="0.00000" id="Warning-to-Warning" style="stroke:#E7E7E7;stroke-width:1;"/><polygon fill="#E7E7E7" points="407.55,378.7869,416.8337,382.0751,412.5349,378.3982,416.2118,374.0993,407.55,378.7869" style="stroke:#E7E7E7;stroke-width:1;"/><text fill="#FFFFFF" font-family="monospace" font-size="13" lengthAdjust="spacing" textLength="117.3999" x="434.2949" y="355.3638">SampledLocation</text><text fill="#FFFFFF" font-family="sans-serif" font-size="13" lengthAdjust="spacing" textLength="5.0718" x="555.8271" y="355.3638">[</text><text fill="#FFFFFF" font-family="monospace" font-size="13" lengthAdjust="spacing" textLength="31.3066" x="560.8989" y="355.3638">late</text><text fill="#FFFFFF" font-family="sans-serif" font-size="13" lengthAdjust="spacing" textLength="9.2041" x="592.2055" y="355.3638">],</text><text fill="#FFFFFF" font-family="sans-serif" font-size="13" lengthAdjust="spacing" textLength="4.1323" x="431.54" y="370.4966">&#160;</text><text fill="#FFFFFF" font-family="monospace" font-size="13" lengthAdjust="spacing" textLength="164.3599" x="435.6723" y="370.4966">TimeoutAlertTriggered</text><text fill="#FFFFFF" font-family="sans-serif" font-size="13" lengthAdjust="spacing" textLength="4.1323" x="600.0322" y="370.4966">,</text><text fill="#FFFFFF" font-family="sans-serif" font-size="13" lengthAdjust="spacing" textLength="4.1323" x="443.499" y="385.6294">&#160;</text><text fill="#FFFFFF" font-family="monospace" font-size="13" lengthAdjust="spacing" textLength="148.7065" x="447.6313" y="385.6294">StuckAlertTriggered</text></g><path d="M331.5,483 L414.5,483 A12.5,12.5 0 0 1 427,495.5 L427,509.2969 L319,509.2969 L319,495.5 A12.5,12.5 0 0 1 331.5,483 " fill="#313139" style="stroke:#313139;stroke-width:1;"/><rect fill="#FFFFFF" fill-opacity="0.00000" height="98.2969" rx="12.5" ry="12.5" style="stroke:#E7E7E7;stroke-width:0.5;" width="108" x="319" y="483"/><line style="stroke:#E7E7E7;stroke-width:0.5;" x1="319" x2="427" y1="509.2969" y2="509.2969"/><text fill="#FFFFFF" font-family="sans-serif" font-size="14" lengthAdjust="spacing" textLength="66.9375" x="339.5313" y="500.9951">SOSMode</text><ellipse cx="340" cy="546.2969" fill="#222222" rx="10" ry="10" style="stroke:#222222;stroke-width:1;"/><g id="SOSMode.SOS"><rect fill="#313139" height="50" rx="12.5" ry="12.5" style="stroke:#E7E7E7;stroke-width:0.5;" width="50" x="368" y="521.2969"/><line style="stroke:#E7E7E7;stroke-width:0.5;" x1="368" x2="418" y1="547.5938" y2="547.5938"/><text fill="#FFFFFF" font-family="sans-serif" font-size="14" lengthAdjust="spacing" textLength="28.793" x="378.6035" y="539.292">SOS</text></g><!--link *start*SOSMode to SOS--><g id="link_*start*SOSMode_SOS"><path d="M350.35,546.2969 C356.13,546.2969 355.9,546.2969 361.68,546.2969 " fill="#FFFFFF" fill-opacity="0.00000" id="*start*SOSMode-to-SOS" style="stroke:#E7E7E7;stroke-width:1;"/><polygon fill="#E7E7E7" points="367.68,546.2969,358.68,542.2969,362.68,546.2969,358.68,550.2969,367.68,546.2969" style="stroke:#E7E7E7;stroke-width:1;"/></g><ellipse cx="16" cy="206.5" fill="#222222" rx="10" ry="10" style="stroke:#222222;stroke-width:1;"/><!--link *start* to NormalMode--><g id="link_*start*_NormalMode"><path d="M26.14,206.5 C37.58,206.5 43.01,206.5 54.45,206.5 " fill="#FFFFFF" fill-opacity="0.00000" id="*start*-to-NormalMode" style="stroke:#E7E7E7;stroke-width:1;"/><polygon fill="#E7E7E7" points="60.45,206.5,51.45,202.5,55.45,206.5,51.45,210.5,60.45,206.5" style="stroke:#E7E7E7;stroke-width:1;"/></g><!--link NormalMode to SOSMode--><g id="link_NormalMode_SOSMode"><path d="M289.84,406.19 C287.2,416.17 284.89,426.15 283,436 C277.91,462.55 292.1939,481.3581 314.0839,497.7181 " fill="#FFFFFF" fill-opacity="0.00000" id="NormalMode-to-SOSMode" style="stroke:#E7E7E7;stroke-width:1;"/><polygon fill="#E7E7E7" points="318.89,501.31,314.0755,492.7181,314.885,498.3167,309.2863,499.1262,318.89,501.31" style="stroke:#E7E7E7;stroke-width:1;"/><text fill="#FFFFFF" font-family="monospace" font-size="13" lengthAdjust="spacing" textLength="133.0532" x="284" y="449.0669">SOSAlertTriggered</text></g><!--link SOSMode to NormalMode--><g id="link_SOSMode_NormalMode"><path d="M409.08,482.64 C414.41,473.24 419.08,463.14 422,453 C426.36,437.87 428.3317,428.107 428.8317,412.187 " fill="#FFFFFF" fill-opacity="0.00000" id="SOSMode-to-NormalMode" style="stroke:#E7E7E7;stroke-width:1;"/><polygon fill="#E7E7E7" points="429.02,406.19,424.7394,415.06,428.863,411.1875,432.7355,415.3111,429.02,406.19" style="stroke:#E7E7E7;stroke-width:1;"/><text fill="#FFFFFF" font-family="monospace" font-size="13" lengthAdjust="spacing" textLength="117.3999" x="426" y="449.0669">SOSAlertStopped</text></g><!--SRC=[bPF1JeGm48RlF4NjqTXuDsQJFPge97QJFU0U6XYmsTAIEkZ1-EwsG0l5TSroQcQ- -V-PQIck3uHjoBEnhL1Ffe8iUqU1i8YGhuouh_2aGxSboWyOGkDn4ILtX58ksav1zMXAWT9eIhC4Lb2ZAtZGOYxPWyQyhfNKu71FnpIpidd3YnmgywbTmOlfKUfcg9ZE78L5g2QF0B2-I_KZRRekqdD75scdx1-THzhXUs5rm9Ezt91NxIMmBuzR1HPtRZKDMEyvvNQo1IUrpf9RbrFkLkyPsZwiE1YDuoTTHekuWc2-xfyKb5vvQKeF9rJ_MsgaqxbFsamkvqSzjwJiEpnkdlFrozxue2SM3v-DqU4yj9NpNveXpvA_AC7daNy0]--></g></svg>