<svg xmlns="http://www.w3.org/2000/svg" xmlns:xlink="http://www.w3.org/1999/xlink" contentStyleType="text/css" data-diagram-type="CLASS" height="538px" preserveAspectRatio="none" style="width:455px;height:538px;background:#FFFFFF;" version="1.1" viewBox="0 0 455 538" width="455px" zoomAndPan="magnify"><defs/><g><!--cluster domain--><g class="cluster" data-entity="domain" data-source-line="19" data-uid="ent0002" id="cluster_domain"><path d="M25.08,6 L84.5204,6 A3.75,3.75 0 0 1 87.0204,8.5 L94.0204,28.2969 L446.08,28.2969 A2.5,2.5 0 0 1 448.58,30.7969 L448.58,528.5 A2.5,2.5 0 0 1 446.08,531 L25.08,531 A2.5,2.5 0 0 1 22.58,528.5 L22.58,8.5 A2.5,2.5 0 0 1 25.08,6" fill="none" style="stroke:#000000;stroke-width:1.5;"/><line style="stroke:#000000;stroke-width:1.5;" x1="22.58" x2="94.0204" y1="28.2969" y2="28.2969"/><text fill="#000000" font-family="sans-serif" font-size="14" font-weight="bold" lengthAdjust="spacing" textLength="58.4404" x="26.58" y="20.9951">domain</text></g><!--cluster user--><g class="cluster" data-entity="user" data-source-line="20" data-uid="ent0003" id="cluster_user"><path d="M49.08,335 L84.7792,335 A3.75,3.75 0 0 1 87.2792,337.5 L94.2792,357.2969 L371.08,357.2969 A2.5,2.5 0 0 1 373.58,359.7969 L373.58,504.5 A2.5,2.5 0 0 1 371.08,507 L49.08,507 A2.5,2.5 0 0 1 46.58,504.5 L46.58,337.5 A2.5,2.5 0 0 1 49.08,335" fill="none" style="stroke:#000000;stroke-width:1.5;"/><line style="stroke:#000000;stroke-width:1.5;" x1="46.58" x2="94.2792" y1="357.2969" y2="357.2969"/><text fill="#000000" font-family="sans-serif" font-size="14" font-weight="bold" lengthAdjust="spacing" textLength="34.6992" x="50.58" y="349.9951">user</text></g><!--cluster group--><g class="cluster" data-entity="group" data-source-line="39" data-uid="ent0008" id="cluster_group"><path d="M62.08,155 L109.6122,155 A3.75,3.75 0 0 1 112.1122,157.5 L119.1122,177.2969 L422.08,177.2969 A2.5,2.5 0 0 1 424.58,179.7969 L424.58,308.5 A2.5,2.5 0 0 1 422.08,311 L62.08,311 A2.5,2.5 0 0 1 59.58,308.5 L59.58,157.5 A2.5,2.5 0 0 1 62.08,155" fill="none" style="stroke:#000000;stroke-width:1.5;"/><line style="stroke:#000000;stroke-width:1.5;" x1="59.58" x2="119.1122" y1="177.2969" y2="177.2969"/><text fill="#000000" font-family="sans-serif" font-size="14" font-weight="bold" lengthAdjust="spacing" textLength="46.5322" x="63.58" y="169.9951">group</text></g><!--class Membership--><g class="entity" data-entity="Membership" data-source-line="34" data-uid="ent0007" id="entity_Membership"><rect fill="#F1F1F1" height="88.8594" rx="2.5" ry="2.5" style="stroke:#181818;stroke-width:0.5;" width="145.0957" x="158.08" y="41"/><ellipse cx="185.0349" cy="61.1328" fill="#B4A7E5" rx="11" ry="11" style="stroke:#181818;stroke-width:1;"/><path d="M180.9568,56.8984 L180.9568,54.7422 L188.3474,54.7422 L188.3474,56.8984 L185.8786,56.8984 L185.8786,64.9766 L188.3474,64.9766 L188.3474,67.1328 L180.9568,67.1328 L180.9568,64.9766 L183.4255,64.9766 L183.4255,56.8984 L180.9568,56.8984 Z " fill="#000000"/><text fill="#000000" font-family="sans-serif" font-size="12" font-style="italic" lengthAdjust="spacing" textLength="88.3828" x="200.7648" y="57.1387">&#171;value object&#187;</text><text fill="#000000" font-family="sans-serif" font-size="14" font-style="italic" lengthAdjust="spacing" textLength="86.5293" x="201.6915" y="72.9639">Membership</text><line style="stroke:#181818;stroke-width:0.5;" x1="159.08" x2="302.1757" y1="81.2656" y2="81.2656"/><ellipse cx="169.08" cy="94.9141" fill="none" rx="3" ry="3" style="stroke:#038048;stroke-width:1;"/><text fill="#000000" font-family="sans-serif" font-size="14" lengthAdjust="spacing" textLength="97.6445" x="178.08" y="98.2607">userId: UserId</text><ellipse cx="169.08" cy="111.2109" fill="none" rx="3" ry="3" style="stroke:#038048;stroke-width:1;"/><text fill="#000000" font-family="sans-serif" font-size="14" lengthAdjust="spacing" textLength="119.0957" x="178.08" y="114.5576">groupId: GroupId</text><line style="stroke:#181818;stroke-width:0.5;" x1="159.08" x2="302.1757" y1="121.8594" y2="121.8594"/></g><!--class User--><g class="entity" data-entity="User" data-source-line="21" data-uid="ent0004" id="entity_User"><rect fill="#F1F1F1" height="121.4531" rx="2.5" ry="2.5" style="stroke:#181818;stroke-width:0.5;" width="143.6602" x="213.58" y="370"/><ellipse cx="258.3368" cy="390.1328" fill="#B4A7E5" rx="11" ry="11" style="stroke:#181818;stroke-width:1;"/><path d="M254.2587,385.8984 L254.2587,383.7422 L261.6493,383.7422 L261.6493,385.8984 L259.1806,385.8984 L259.1806,393.9766 L261.6493,393.9766 L261.6493,396.1328 L254.2587,396.1328 L254.2587,393.9766 L256.7275,393.9766 L256.7275,385.8984 L254.2587,385.8984 Z " fill="#000000"/><text fill="#000000" font-family="sans-serif" font-size="12" font-style="italic" lengthAdjust="spacing" textLength="49.6465" x="276.8368" y="386.1387">&#171;entity&#187;</text><text fill="#000000" font-family="sans-serif" font-size="14" font-style="italic" lengthAdjust="spacing" textLength="31.9102" x="285.705" y="401.9639">User</text><line style="stroke:#181818;stroke-width:0.5;" x1="214.58" x2="356.2402" y1="410.2656" y2="410.2656"/><ellipse cx="224.58" cy="423.9141" fill="none" rx="3" ry="3" style="stroke:#038048;stroke-width:1;"/><text fill="#000000" font-family="sans-serif" font-size="14" lengthAdjust="spacing" textLength="66.8691" x="233.58" y="427.2607">id: UserId</text><ellipse cx="224.58" cy="440.2109" fill="none" rx="3" ry="3" style="stroke:#038048;stroke-width:1;"/><text fill="#000000" font-family="sans-serif" font-size="14" lengthAdjust="spacing" textLength="90.6514" x="233.58" y="443.5576">name: String</text><ellipse cx="224.58" cy="456.5078" fill="none" rx="3" ry="3" style="stroke:#038048;stroke-width:1;"/><text fill="#000000" font-family="sans-serif" font-size="14" lengthAdjust="spacing" textLength="89.5576" x="233.58" y="459.8545">email: String</text><ellipse cx="224.58" cy="472.8047" fill="none" rx="3" ry="3" style="stroke:#038048;stroke-width:1;"/><text fill="#000000" font-family="sans-serif" font-size="14" lengthAdjust="spacing" textLength="117.6602" x="233.58" y="476.1514">password: String</text><line style="stroke:#181818;stroke-width:0.5;" x1="214.58" x2="356.2402" y1="483.4531" y2="483.4531"/></g><!--class UserId--><g class="entity" data-entity="UserId" data-source-line="27" data-uid="ent0005" id="entity_UserId"><rect fill="#F1F1F1" height="72.5625" rx="2.5" ry="2.5" style="stroke:#181818;stroke-width:0.5;" width="116.3828" x="62.58" y="394"/><ellipse cx="77.58" cy="414.1328" fill="#B4A7E5" rx="11" ry="11" style="stroke:#181818;stroke-width:1;"/><path d="M73.5019,409.8984 L73.5019,407.7422 L80.8925,407.7422 L80.8925,409.8984 L78.4238,409.8984 L78.4238,417.9766 L80.8925,417.9766 L80.8925,420.1328 L73.5019,420.1328 L73.5019,417.9766 L75.9706,417.9766 L75.9706,409.8984 L73.5019,409.8984 Z " fill="#000000"/><text fill="#000000" font-family="sans-serif" font-size="12" font-style="italic" lengthAdjust="spacing" textLength="88.3828" x="89.58" y="410.1387">&#171;value object&#187;</text><text fill="#000000" font-family="sans-serif" font-size="14" font-style="italic" lengthAdjust="spacing" textLength="44.9258" x="111.3085" y="425.9639">UserId</text><line style="stroke:#181818;stroke-width:0.5;" x1="63.58" x2="177.9628" y1="434.2656" y2="434.2656"/><ellipse cx="73.58" cy="447.9141" fill="none" rx="3" ry="3" style="stroke:#038048;stroke-width:1;"/><text fill="#000000" font-family="sans-serif" font-size="14" lengthAdjust="spacing" textLength="82.8105" x="82.58" y="451.2607">value: UUID</text><line style="stroke:#181818;stroke-width:0.5;" x1="63.58" x2="177.9628" y1="458.5625" y2="458.5625"/></g><!--class Group--><g class="entity" data-entity="Group" data-source-line="40" data-uid="ent0009" id="entity_Group"><rect fill="#F1F1F1" height="105.1563" rx="2.5" ry="2.5" style="stroke:#181818;stroke-width:0.5;" width="181.4492" x="76.08" y="190"/><ellipse cx="139.7314" cy="210.1328" fill="#B4A7E5" rx="11" ry="11" style="stroke:#181818;stroke-width:1;"/><path d="M135.6532,205.8984 L135.6532,203.7422 L143.0439,203.7422 L143.0439,205.8984 L140.5751,205.8984 L140.5751,213.9766 L143.0439,213.9766 L143.0439,216.1328 L135.6532,216.1328 L135.6532,213.9766 L138.122,213.9766 L138.122,205.8984 L135.6532,205.8984 Z " fill="#000000"/><text fill="#000000" font-family="sans-serif" font-size="12" font-style="italic" lengthAdjust="spacing" textLength="49.6465" x="158.2314" y="206.1387">&#171;entity&#187;</text><text fill="#000000" font-family="sans-serif" font-size="14" font-style="italic" lengthAdjust="spacing" textLength="42.9297" x="161.5898" y="221.9639">Group</text><line style="stroke:#181818;stroke-width:0.5;" x1="77.08" x2="256.5292" y1="230.2656" y2="230.2656"/><ellipse cx="87.08" cy="243.9141" fill="none" rx="3" ry="3" style="stroke:#038048;stroke-width:1;"/><text fill="#000000" font-family="sans-serif" font-size="14" lengthAdjust="spacing" textLength="77.8887" x="96.08" y="247.2607">id: GroupId</text><ellipse cx="87.08" cy="260.2109" fill="none" rx="3" ry="3" style="stroke:#038048;stroke-width:1;"/><text fill="#000000" font-family="sans-serif" font-size="14" lengthAdjust="spacing" textLength="90.6514" x="96.08" y="263.5576">name: String</text><ellipse cx="87.08" cy="276.5078" fill="none" rx="3" ry="3" style="stroke:#038048;stroke-width:1;"/><text fill="#000000" font-family="sans-serif" font-size="14" lengthAdjust="spacing" textLength="155.4492" x="96.08" y="279.8545">members: List&lt;User&gt;</text><line style="stroke:#181818;stroke-width:0.5;" x1="77.08" x2="256.5292" y1="287.1563" y2="287.1563"/></g><!--class GroupId--><g class="entity" data-entity="GroupId" data-source-line="45" data-uid="ent0010" id="entity_GroupId"><rect fill="#F1F1F1" height="72.5625" rx="2.5" ry="2.5" style="stroke:#181818;stroke-width:0.5;" width="116.3828" x="292.58" y="206"/><ellipse cx="307.58" cy="226.1328" fill="#B4A7E5" rx="11" ry="11" style="stroke:#181818;stroke-width:1;"/><path d="M303.5019,221.8984 L303.5019,219.7422 L310.8925,219.7422 L310.8925,221.8984 L308.4238,221.8984 L308.4238,229.9766 L310.8925,229.9766 L310.8925,232.1328 L303.5019,232.1328 L303.5019,229.9766 L305.9706,229.9766 L305.9706,221.8984 L303.5019,221.8984 Z " fill="#000000"/><text fill="#000000" font-family="sans-serif" font-size="12" font-style="italic" lengthAdjust="spacing" textLength="88.3828" x="319.58" y="222.1387">&#171;value object&#187;</text><text fill="#000000" font-family="sans-serif" font-size="14" font-style="italic" lengthAdjust="spacing" textLength="55.9453" x="335.7988" y="237.9639">GroupId</text><line style="stroke:#181818;stroke-width:0.5;" x1="293.58" x2="407.9628" y1="246.2656" y2="246.2656"/><ellipse cx="303.58" cy="259.9141" fill="none" rx="3" ry="3" style="stroke:#038048;stroke-width:1;"/><text fill="#000000" font-family="sans-serif" font-size="14" lengthAdjust="spacing" textLength="82.8105" x="312.58" y="263.2607">value: UUID</text><line style="stroke:#181818;stroke-width:0.5;" x1="293.58" x2="407.9628" y1="270.5625" y2="270.5625"/></g><!--link User to UserId--><g class="link" data-entity-1="User" data-entity-2="UserId" data-source-line="30" data-uid="lnk6" id="link_User_UserId"><path codeLine="30" d="M201.28,430.5 C189.71,430.5 196.15,430.5 184.59,430.5" fill="none" id="User-UserId" style="stroke:#181818;stroke-width:1;"/><polygon fill="#181818" points="213.28,430.5,207.28,426.5,201.28,430.5,207.28,434.5,213.28,430.5" style="stroke:#181818;stroke-width:1;"/><polygon fill="#181818" points="178.59,430.5,187.59,434.5,183.59,430.5,187.59,426.5,178.59,430.5" style="stroke:#181818;stroke-width:1;"/><text fill="#000000" font-family="sans-serif" font-size="13" lengthAdjust="spacing" textLength="8.271" x="186.9151" y="426.5974">1</text></g><!--link Group to GroupId--><g class="link" data-entity-1="Group" data-entity-2="GroupId" data-source-line="48" data-uid="lnk11" id="link_Group_GroupId"><path codeLine="48" d="M269.14,242.5 C280.94,242.5 274.75,242.5 286.55,242.5" fill="none" id="Group-GroupId" style="stroke:#181818;stroke-width:1;"/><polygon fill="#181818" points="257.14,242.5,263.14,246.5,269.14,242.5,263.14,238.5,257.14,242.5" style="stroke:#181818;stroke-width:1;"/><polygon fill="#181818" points="292.55,242.5,283.55,238.5,287.55,242.5,283.55,246.5,292.55,242.5" style="stroke:#181818;stroke-width:1;"/><text fill="#000000" font-family="sans-serif" font-size="13" lengthAdjust="spacing" textLength="8.271" x="276.2072" y="238.5974">1</text></g><!--link Group to User--><g class="link" data-entity-1="Group" data-entity-2="User" data-source-line="49" data-uid="lnk12" id="link_Group_User"><path codeLine="49" d="M199.73,295.31 C214.51,318.42 228.7848,340.7369 244.1248,364.6969" fill="none" id="Group-to-User" style="stroke:#181818;stroke-width:1;"/><polygon fill="#181818" points="247.36,369.75,245.876,360.0136,244.664,365.5391,239.1385,364.3271,247.36,369.75" style="stroke:#181818;stroke-width:1;"/><text fill="#000000" font-family="sans-serif" font-size="13" lengthAdjust="spacing" textLength="23.0356" x="218.6328" y="358.907">0..*</text></g><!--link Membership to UserId--><g class="link" data-entity-1="Membership" data-entity-2="UserId" data-source-line="52" data-uid="lnk13" id="link_Membership_UserId"><path codeLine="52" d="M145.9816,95.3957 C110.2016,102.6857 81.85,115.5 59.58,147 C6,222.8 58.5796,331.4513 93.6096,388.7313" fill="none" id="Membership-UserId" style="stroke:#181818;stroke-width:1;"/><polygon fill="#181818" points="157.74,93,151.0622,90.2784,145.9816,95.3957,152.6594,98.1173,157.74,93" style="stroke:#181818;stroke-width:1;"/><polygon fill="#181818" points="96.74,393.85,95.4569,384.0851,94.1314,389.5844,88.632,388.2589,96.74,393.85" style="stroke:#181818;stroke-width:1;"/><text fill="#000000" font-family="sans-serif" font-size="13" lengthAdjust="spacing" textLength="8.271" x="83.5967" y="382.8293">1</text></g><!--link Membership to GroupId--><g class="link" data-entity-1="Membership" data-entity-2="GroupId" data-source-line="53" data-uid="lnk14" id="link_Membership_GroupId"><path codeLine="53" d="M271.6758,139.5789 C290.1858,163.4889 301.827,178.5256 319.277,201.0656" fill="none" id="Membership-GroupId" style="stroke:#181818;stroke-width:1;"/><polygon fill="#181818" points="264.33,130.09,264.84,137.283,271.6758,139.5789,271.1659,132.3858,264.33,130.09" style="stroke:#181818;stroke-width:1;"/><polygon fill="#181818" points="322.95,205.81,320.6034,196.2448,319.8892,201.8564,314.2776,201.1421,322.95,205.81" style="stroke:#181818;stroke-width:1;"/><text fill="#000000" font-family="sans-serif" font-size="13" lengthAdjust="spacing" textLength="8.271" x="309.3059" y="195.0563">1</text></g><!--SRC=[bP713e8m44JlVCN68mIZLq8ucHWIFHa_eD8Lgz8sRT4OmxyBBGg8cdXhPZOxiw-IP2UI8r1H4CRXxW78LYerAYi0C6vGxKc6i6t4E4PkcBabIUi31C1ePDsKlYHE2enWOnJZ-Kl4EkWyKYNH-YeK7HZLX_2Krl4NSYuHnEw8cHcKi4RTOvikUXjiQJzKB3-OC879VD8rhJpFwsUiiTYXqWScHpak9h1Wqk6r0UHAbB9Hb-xXLdSqhJ_2QOU_y-ns_G1QkCOHh9WsSLCg-KYlNVO_FbTooA_VpFbXuyocKz_1VTxVu-c7L5pv-mTy6tWcL0y0]--></g></svg>