<svg xmlns="http://www.w3.org/2000/svg" xmlns:xlink="http://www.w3.org/1999/xlink" contentStyleType="text/css" data-diagram-type="CLASS" height="693px" preserveAspectRatio="none" style="width:2276px;height:693px;background:#FFFFFF;" version="1.1" viewBox="0 0 2276 693" width="2276px" zoomAndPan="magnify"><defs/><g><!--cluster application--><g class="cluster" data-entity="application" data-source-line="81" data-uid="ent0002" id="cluster_application"><path d="M8.5,6 L97.4102,6 A3.75,3.75 0 0 1 99.9102,8.5 L106.9102,28.2969 L1260.5,28.2969 A2.5,2.5 0 0 1 1263,30.7969 L1263,683.5 A2.5,2.5 0 0 1 1260.5,686 L8.5,686 A2.5,2.5 0 0 1 6,683.5 L6,8.5 A2.5,2.5 0 0 1 8.5,6" fill="none" style="stroke:#000000;stroke-width:1.5;"/><line style="stroke:#000000;stroke-width:1.5;" x1="6" x2="106.9102" y1="28.2969" y2="28.2969"/><text fill="#000000" font-family="sans-serif" font-size="14" font-weight="bold" lengthAdjust="spacing" textLength="87.9102" x="10" y="20.9951">application</text></g><!--cluster repository--><g class="cluster" data-entity="repository" data-source-line="82" data-uid="ent0003" id="cluster_repository"><path d="M46.5,408 L129.0117,408 A3.75,3.75 0 0 1 131.5117,410.5 L138.5117,430.2969 L1235.5,430.2969 A2.5,2.5 0 0 1 1238,432.7969 L1238,659.5 A2.5,2.5 0 0 1 1235.5,662 L46.5,662 A2.5,2.5 0 0 1 44,659.5 L44,410.5 A2.5,2.5 0 0 1 46.5,408" fill="none" style="stroke:#000000;stroke-width:1.5;"/><line style="stroke:#000000;stroke-width:1.5;" x1="44" x2="138.5117" y1="430.2969" y2="430.2969"/><text fill="#000000" font-family="sans-serif" font-size="14" font-weight="bold" lengthAdjust="spacing" textLength="81.5117" x="48" y="422.9951">repository</text></g><!--cluster service--><g class="cluster" data-entity="service" data-source-line="107" data-uid="ent0007" id="cluster_service"><path d="M32.5,49 L89.9512,49 A3.75,3.75 0 0 1 92.4512,51.5 L99.4512,71.2969 L1236.5,71.2969 A2.5,2.5 0 0 1 1239,73.7969 L1239,284.5 A2.5,2.5 0 0 1 1236.5,287 L32.5,287 A2.5,2.5 0 0 1 30,284.5 L30,51.5 A2.5,2.5 0 0 1 32.5,49" fill="none" style="stroke:#000000;stroke-width:1.5;"/><line style="stroke:#000000;stroke-width:1.5;" x1="30" x2="99.4512" y1="71.2969" y2="71.2969"/><text fill="#000000" font-family="sans-serif" font-size="14" font-weight="bold" lengthAdjust="spacing" textLength="56.4512" x="34" y="63.9951">service</text></g><!--cluster shared--><g class="cluster" data-entity="shared" data-source-line="133" data-uid="ent0013" id="cluster_shared"><path d="M1289.5,336 L1344.668,336 A3.75,3.75 0 0 1 1347.168,338.5 L1354.168,358.2969 L2266.5,358.2969 A2.5,2.5 0 0 1 2269,360.7969 L2269,674.5 A2.5,2.5 0 0 1 2266.5,677 L1289.5,677 A2.5,2.5 0 0 1 1287,674.5 L1287,338.5 A2.5,2.5 0 0 1 1289.5,336" fill="none" style="stroke:#000000;stroke-width:1.5;"/><line style="stroke:#000000;stroke-width:1.5;" x1="1287" x2="1354.168" y1="358.2969" y2="358.2969"/><text fill="#000000" font-family="sans-serif" font-size="14" font-weight="bold" lengthAdjust="spacing" textLength="54.168" x="1291" y="350.9951">shared</text></g><!--cluster kernel--><g class="cluster" data-entity="kernel" data-source-line="133" data-uid="ent0014" id="cluster_kernel"><path d="M1313.5,379 L1364.4707,379 A3.75,3.75 0 0 1 1366.9707,381.5 L1373.9707,401.2969 L2242.5,401.2969 A2.5,2.5 0 0 1 2245,403.7969 L2245,650.5 A2.5,2.5 0 0 1 2242.5,653 L1313.5,653 A2.5,2.5 0 0 1 1311,650.5 L1311,381.5 A2.5,2.5 0 0 1 1313.5,379" fill="none" style="stroke:#000000;stroke-width:1.5;"/><line style="stroke:#000000;stroke-width:1.5;" x1="1311" x2="1373.9707" y1="401.2969" y2="401.2969"/><text fill="#000000" font-family="sans-serif" font-size="14" font-weight="bold" lengthAdjust="spacing" textLength="49.9707" x="1315" y="393.9951">kernel</text></g><!--cluster domain--><g class="cluster" data-entity="domain" data-source-line="133" data-uid="ent0015" id="cluster_domain"><path d="M1337.5,422 L1396.9404,422 A3.75,3.75 0 0 1 1399.4404,424.5 L1406.4404,444.2969 L2218.5,444.2969 A2.5,2.5 0 0 1 2221,446.7969 L2221,626.5 A2.5,2.5 0 0 1 2218.5,629 L1337.5,629 A2.5,2.5 0 0 1 1335,626.5 L1335,424.5 A2.5,2.5 0 0 1 1337.5,422" fill="none" style="stroke:#000000;stroke-width:1.5;"/><line style="stroke:#000000;stroke-width:1.5;" x1="1335" x2="1406.4404" y1="444.2969" y2="444.2969"/><text fill="#000000" font-family="sans-serif" font-size="14" font-weight="bold" lengthAdjust="spacing" textLength="58.4404" x="1339" y="436.9951">domain</text></g><!--cluster events--><g class="cluster" data-entity="events" data-source-line="132" data-uid="ent0011" id="cluster_events"><path d="M1361.5,465 L1415.6084,465 A3.75,3.75 0 0 1 1418.1084,467.5 L1425.1084,487.2969 L2194.5,487.2969 A2.5,2.5 0 0 1 2197,489.7969 L2197,602.5 A2.5,2.5 0 0 1 2194.5,605 L1361.5,605 A2.5,2.5 0 0 1 1359,602.5 L1359,467.5 A2.5,2.5 0 0 1 1361.5,465" fill="none" style="stroke:#000000;stroke-width:1.5;"/><line style="stroke:#000000;stroke-width:1.5;" x1="1359" x2="1425.1084" y1="487.2969" y2="487.2969"/><text fill="#000000" font-family="sans-serif" font-size="14" font-weight="bold" lengthAdjust="spacing" textLength="53.1084" x="1363" y="479.9951">events</text></g><!--class UserRepository--><g class="entity" data-entity="UserRepository" data-source-line="83" data-uid="ent0004" id="entity_UserRepository"><rect fill="#F1F1F1" height="154.0469" rx="2.5" ry="2.5" style="stroke:#181818;stroke-width:0.5;" width="250.8682" x="60.5" y="467.5"/><ellipse cx="128.1929" cy="487.6328" fill="#B4A7E5" rx="11" ry="11" style="stroke:#181818;stroke-width:1;"/><path d="M124.1147,483.3984 L124.1147,481.2422 L131.5054,481.2422 L131.5054,483.3984 L129.0366,483.3984 L129.0366,491.4766 L131.5054,491.4766 L131.5054,493.6328 L124.1147,493.6328 L124.1147,491.4766 L126.5835,491.4766 L126.5835,483.3984 L124.1147,483.3984 Z " fill="#000000"/><text fill="#000000" font-family="sans-serif" font-size="12" font-style="italic" lengthAdjust="spacing" textLength="75.7559" x="164.3062" y="483.6387">&#171;repository&#187;</text><text fill="#000000" font-family="sans-serif" font-size="14" font-style="italic" lengthAdjust="spacing" textLength="106.9824" x="148.6929" y="499.4639">UserRepository</text><line style="stroke:#181818;stroke-width:0.5;" x1="61.5" x2="310.3682" y1="507.7656" y2="507.7656"/><line style="stroke:#181818;stroke-width:0.5;" x1="61.5" x2="310.3682" y1="515.7656" y2="515.7656"/><ellipse cx="71.5" cy="529.4141" fill="#84BE84" rx="3" ry="3" style="stroke:#038048;stroke-width:1;"/><text fill="#000000" font-family="sans-serif" font-size="14" lengthAdjust="spacing" textLength="154.1025" x="80.5" y="532.7607">save(user: User): void</text><ellipse cx="71.5" cy="545.7109" fill="#84BE84" rx="3" ry="3" style="stroke:#038048;stroke-width:1;"/><text fill="#000000" font-family="sans-serif" font-size="14" lengthAdjust="spacing" textLength="176.3535" x="80.5" y="549.0576">findById(id: UserId): User</text><ellipse cx="71.5" cy="562.0078" fill="#84BE84" rx="3" ry="3" style="stroke:#038048;stroke-width:1;"/><text fill="#000000" font-family="sans-serif" font-size="14" lengthAdjust="spacing" textLength="172.9424" x="80.5" y="565.3545">update(user: User): User</text><ellipse cx="71.5" cy="578.3047" fill="#84BE84" rx="3" ry="3" style="stroke:#038048;stroke-width:1;"/><text fill="#000000" font-family="sans-serif" font-size="14" lengthAdjust="spacing" textLength="218.6611" x="80.5" y="581.6514">deleteById(id: UserId): Boolean</text><ellipse cx="71.5" cy="594.6016" fill="#84BE84" rx="3" ry="3" style="stroke:#038048;stroke-width:1;"/><text fill="#000000" font-family="sans-serif" font-size="14" lengthAdjust="spacing" textLength="143.8691" x="80.5" y="597.9482">findAll(): List&lt;User&gt;</text><ellipse cx="71.5" cy="610.8984" fill="#84BE84" rx="3" ry="3" style="stroke:#038048;stroke-width:1;"/><text fill="#000000" font-family="sans-serif" font-size="14" lengthAdjust="spacing" textLength="224.8682" x="80.5" y="614.2451">findByEmail(email: String): User</text></g><!--class GroupRepository--><g class="entity" data-entity="GroupRepository" data-source-line="91" data-uid="ent0005" id="entity_GroupRepository"><rect fill="#F1F1F1" height="202.9375" rx="2.5" ry="2.5" style="stroke:#181818;stroke-width:0.5;" width="399.6865" x="822" y="443"/><ellipse cx="958.5923" cy="463.1328" fill="#B4A7E5" rx="11" ry="11" style="stroke:#181818;stroke-width:1;"/><path d="M954.5142,458.8984 L954.5142,456.7422 L961.9048,456.7422 L961.9048,458.8984 L959.436,458.8984 L959.436,466.9766 L961.9048,466.9766 L961.9048,469.1328 L954.5142,469.1328 L954.5142,466.9766 L956.9829,466.9766 L956.9829,458.8984 L954.5142,458.8984 Z " fill="#000000"/><text fill="#000000" font-family="sans-serif" font-size="12" font-style="italic" lengthAdjust="spacing" textLength="75.7559" x="1000.2153" y="459.1387">&#171;repository&#187;</text><text fill="#000000" font-family="sans-serif" font-size="14" font-style="italic" lengthAdjust="spacing" textLength="118.002" x="979.0923" y="474.9639">GroupRepository</text><line style="stroke:#181818;stroke-width:0.5;" x1="823" x2="1220.6865" y1="483.2656" y2="483.2656"/><line style="stroke:#181818;stroke-width:0.5;" x1="823" x2="1220.6865" y1="491.2656" y2="491.2656"/><ellipse cx="833" cy="504.9141" fill="#84BE84" rx="3" ry="3" style="stroke:#038048;stroke-width:1;"/><text fill="#000000" font-family="sans-serif" font-size="14" lengthAdjust="spacing" textLength="175.5537" x="842" y="508.2607">save(group: Group): void</text><ellipse cx="833" cy="521.2109" fill="#84BE84" rx="3" ry="3" style="stroke:#038048;stroke-width:1;"/><text fill="#000000" font-family="sans-serif" font-size="14" lengthAdjust="spacing" textLength="198.3926" x="842" y="524.5576">findById(id: GroupId): Group</text><ellipse cx="833" cy="537.5078" fill="#84BE84" rx="3" ry="3" style="stroke:#038048;stroke-width:1;"/><text fill="#000000" font-family="sans-serif" font-size="14" lengthAdjust="spacing" textLength="205.4131" x="842" y="540.8545">update(group: Group): Group</text><ellipse cx="833" cy="553.8047" fill="#84BE84" rx="3" ry="3" style="stroke:#038048;stroke-width:1;"/><text fill="#000000" font-family="sans-serif" font-size="14" lengthAdjust="spacing" textLength="229.6807" x="842" y="557.1514">deleteById(id: GroupId): Boolean</text><ellipse cx="833" cy="570.1016" fill="#84BE84" rx="3" ry="3" style="stroke:#038048;stroke-width:1;"/><text fill="#000000" font-family="sans-serif" font-size="14" lengthAdjust="spacing" textLength="154.8887" x="842" y="573.4482">findAll(): List&lt;Group&gt;</text><ellipse cx="833" cy="586.3984" fill="#84BE84" rx="3" ry="3" style="stroke:#038048;stroke-width:1;"/><text fill="#000000" font-family="sans-serif" font-size="14" lengthAdjust="spacing" textLength="346.5684" x="842" y="589.7451">addMember(groupId: GroupId, user: User): Group</text><ellipse cx="833" cy="602.6953" fill="#84BE84" rx="3" ry="3" style="stroke:#038048;stroke-width:1;"/><text fill="#000000" font-family="sans-serif" font-size="14" lengthAdjust="spacing" textLength="373.6865" x="842" y="606.042">removeMember(groupId: GroupId, user: User): Group</text><ellipse cx="833" cy="618.9922" fill="#84BE84" rx="3" ry="3" style="stroke:#038048;stroke-width:1;"/><text fill="#000000" font-family="sans-serif" font-size="14" lengthAdjust="spacing" textLength="365.9551" x="842" y="622.3389">findGroupsByUserEmail(email: String): List&lt;Group&gt;</text><ellipse cx="833" cy="635.2891" fill="#84BE84" rx="3" ry="3" style="stroke:#038048;stroke-width:1;"/><text fill="#000000" font-family="sans-serif" font-size="14" lengthAdjust="spacing" textLength="317.4404" x="842" y="638.6357">findGroupsByUserId(id: UserId): List&lt;Group&gt;</text></g><!--class AuthRepository--><g class="entity" data-entity="AuthRepository" data-source-line="102" data-uid="ent0006" id="entity_AuthRepository"><rect fill="#F1F1F1" height="72.5625" rx="2.5" ry="2.5" style="stroke:#181818;stroke-width:0.5;" width="439.5469" x="347" y="508"/><ellipse cx="508.5811" cy="528.1328" fill="#B4A7E5" rx="11" ry="11" style="stroke:#181818;stroke-width:1;"/><path d="M504.5029,523.8984 L504.5029,521.7422 L511.8936,521.7422 L511.8936,523.8984 L509.4248,523.8984 L509.4248,531.9766 L511.8936,531.9766 L511.8936,534.1328 L504.5029,534.1328 L504.5029,531.9766 L506.9717,531.9766 L506.9717,523.8984 L504.5029,523.8984 Z " fill="#000000"/><text fill="#000000" font-family="sans-serif" font-size="12" font-style="italic" lengthAdjust="spacing" textLength="75.7559" x="545.1455" y="524.1387">&#171;repository&#187;</text><text fill="#000000" font-family="sans-serif" font-size="14" font-style="italic" lengthAdjust="spacing" textLength="107.8848" x="529.0811" y="539.9639">AuthRepository</text><line style="stroke:#181818;stroke-width:0.5;" x1="348" x2="785.5469" y1="548.2656" y2="548.2656"/><line style="stroke:#181818;stroke-width:0.5;" x1="348" x2="785.5469" y1="556.2656" y2="556.2656"/><ellipse cx="358" cy="569.9141" fill="#84BE84" rx="3" ry="3" style="stroke:#038048;stroke-width:1;"/><text fill="#000000" font-family="sans-serif" font-size="14" lengthAdjust="spacing" textLength="413.5469" x="367" y="573.2607">checkCredentials(email: String, password: String): Boolean</text></g><!--class UserService--><g class="entity" data-entity="UserService" data-source-line="108" data-uid="ent0008" id="entity_UserService"><rect fill="#F1F1F1" height="137.75" rx="2.5" ry="2.5" style="stroke:#181818;stroke-width:0.5;" width="279.1895" x="46.5" y="108.5"/><ellipse cx="140.019" cy="128.6328" fill="#B4A7E5" rx="11" ry="11" style="stroke:#181818;stroke-width:1;"/><path d="M135.9409,124.3984 L135.9409,122.2422 L143.3315,122.2422 L143.3315,124.3984 L140.8628,124.3984 L140.8628,132.4766 L143.3315,132.4766 L143.3315,134.6328 L135.9409,134.6328 L135.9409,132.4766 L138.4097,132.4766 L138.4097,124.3984 L135.9409,124.3984 Z " fill="#000000"/><text fill="#000000" font-family="sans-serif" font-size="12" font-style="italic" lengthAdjust="spacing" textLength="57.7969" x="173.4463" y="124.6387">&#171;service&#187;</text><text fill="#000000" font-family="sans-serif" font-size="14" font-style="italic" lengthAdjust="spacing" textLength="83.6514" x="160.519" y="140.4639">UserService</text><line style="stroke:#181818;stroke-width:0.5;" x1="47.5" x2="324.6895" y1="148.7656" y2="148.7656"/><line style="stroke:#181818;stroke-width:0.5;" x1="47.5" x2="324.6895" y1="156.7656" y2="156.7656"/><ellipse cx="57.5" cy="170.4141" fill="#84BE84" rx="3" ry="3" style="stroke:#038048;stroke-width:1;"/><text fill="#000000" font-family="sans-serif" font-size="14" lengthAdjust="spacing" textLength="200.2725" x="66.5" y="173.7607">createUser(user: User): User</text><ellipse cx="57.5" cy="186.7109" fill="#84BE84" rx="3" ry="3" style="stroke:#038048;stroke-width:1;"/><text fill="#000000" font-family="sans-serif" font-size="14" lengthAdjust="spacing" textLength="173.7695" x="66.5" y="190.0576">getUser(id: UserId): User</text><ellipse cx="57.5" cy="203.0078" fill="#84BE84" rx="3" ry="3" style="stroke:#038048;stroke-width:1;"/><text fill="#000000" font-family="sans-serif" font-size="14" lengthAdjust="spacing" textLength="204.8525" x="66.5" y="206.3545">updateUser(user: User): User</text><ellipse cx="57.5" cy="219.3047" fill="#84BE84" rx="3" ry="3" style="stroke:#038048;stroke-width:1;"/><text fill="#000000" font-family="sans-serif" font-size="14" lengthAdjust="spacing" textLength="219.666" x="66.5" y="222.6514">deleteUser(id: UserId): Boolean</text><ellipse cx="57.5" cy="235.6016" fill="#84BE84" rx="3" ry="3" style="stroke:#038048;stroke-width:1;"/><text fill="#000000" font-family="sans-serif" font-size="14" lengthAdjust="spacing" textLength="253.1895" x="66.5" y="238.9482">getUserByEmail(email: String): User</text></g><!--class GroupService--><g class="entity" data-entity="GroupService" data-source-line="115" data-uid="ent0009" id="entity_GroupService"><rect fill="#F1F1F1" height="186.6406" rx="2.5" ry="2.5" style="stroke:#181818;stroke-width:0.5;" width="402.3389" x="821" y="84"/><ellipse cx="970.584" cy="104.1328" fill="#B4A7E5" rx="11" ry="11" style="stroke:#181818;stroke-width:1;"/><path d="M966.5059,99.8984 L966.5059,97.7422 L973.8965,97.7422 L973.8965,99.8984 L971.4277,99.8984 L971.4277,107.9766 L973.8965,107.9766 L973.8965,110.1328 L966.5059,110.1328 L966.5059,107.9766 L968.9746,107.9766 L968.9746,99.8984 L966.5059,99.8984 Z " fill="#000000"/><text fill="#000000" font-family="sans-serif" font-size="12" font-style="italic" lengthAdjust="spacing" textLength="57.7969" x="1009.521" y="100.1387">&#171;service&#187;</text><text fill="#000000" font-family="sans-serif" font-size="14" font-style="italic" lengthAdjust="spacing" textLength="94.6709" x="991.084" y="115.9639">GroupService</text><line style="stroke:#181818;stroke-width:0.5;" x1="822" x2="1222.3389" y1="124.2656" y2="124.2656"/><line style="stroke:#181818;stroke-width:0.5;" x1="822" x2="1222.3389" y1="132.2656" y2="132.2656"/><ellipse cx="832" cy="145.9141" fill="#84BE84" rx="3" ry="3" style="stroke:#038048;stroke-width:1;"/><text fill="#000000" font-family="sans-serif" font-size="14" lengthAdjust="spacing" textLength="241.3496" x="841" y="149.2607">createGroup(name: String): Group</text><ellipse cx="832" cy="162.2109" fill="#84BE84" rx="3" ry="3" style="stroke:#038048;stroke-width:1;"/><text fill="#000000" font-family="sans-serif" font-size="14" lengthAdjust="spacing" textLength="206.8281" x="841" y="165.5576">getGroup(id: GroupId): Group</text><ellipse cx="832" cy="178.5078" fill="#84BE84" rx="3" ry="3" style="stroke:#038048;stroke-width:1;"/><text fill="#000000" font-family="sans-serif" font-size="14" lengthAdjust="spacing" textLength="376.3389" x="841" y="181.8545">updateGroup(groupId: GroupId, group: Group): Group</text><ellipse cx="832" cy="194.8047" fill="#84BE84" rx="3" ry="3" style="stroke:#038048;stroke-width:1;"/><text fill="#000000" font-family="sans-serif" font-size="14" lengthAdjust="spacing" textLength="241.7051" x="841" y="198.1514">deleteGroup(id: GroupId): Boolean</text><ellipse cx="832" cy="211.1016" fill="#84BE84" rx="3" ry="3" style="stroke:#038048;stroke-width:1;"/><text fill="#000000" font-family="sans-serif" font-size="14" lengthAdjust="spacing" textLength="346.5684" x="841" y="214.4482">addMember(groupId: GroupId, user: User): Group</text><ellipse cx="832" cy="227.3984" fill="#84BE84" rx="3" ry="3" style="stroke:#038048;stroke-width:1;"/><text fill="#000000" font-family="sans-serif" font-size="14" lengthAdjust="spacing" textLength="373.6865" x="841" y="230.7451">removeMember(groupId: GroupId, user: User): Group</text><ellipse cx="832" cy="243.6953" fill="#84BE84" rx="3" ry="3" style="stroke:#038048;stroke-width:1;"/><text fill="#000000" font-family="sans-serif" font-size="14" lengthAdjust="spacing" textLength="342.5283" x="841" y="247.042">findAllGroupsOfUser(email: String): List&lt;Group&gt;</text><ellipse cx="832" cy="259.9922" fill="#84BE84" rx="3" ry="3" style="stroke:#038048;stroke-width:1;"/><text fill="#000000" font-family="sans-serif" font-size="14" lengthAdjust="spacing" textLength="334.7969" x="841" y="263.3389">findAllGroupsByUserId(id: UserId): List&lt;Group&gt;</text></g><!--class AuthService--><g class="entity" data-entity="AuthService" data-source-line="125" data-uid="ent0010" id="entity_AuthService"><rect fill="#F1F1F1" height="88.8594" rx="2.5" ry="2.5" style="stroke:#181818;stroke-width:0.5;" width="424.6787" x="360.5" y="133"/><ellipse cx="526.3125" cy="153.1328" fill="#B4A7E5" rx="11" ry="11" style="stroke:#181818;stroke-width:1;"/><path d="M522.2344,148.8984 L522.2344,146.7422 L529.625,146.7422 L529.625,148.8984 L527.1563,148.8984 L527.1563,156.9766 L529.625,156.9766 L529.625,159.1328 L522.2344,159.1328 L522.2344,156.9766 L524.7031,156.9766 L524.7031,148.8984 L522.2344,148.8984 Z " fill="#000000"/><text fill="#000000" font-family="sans-serif" font-size="12" font-style="italic" lengthAdjust="spacing" textLength="57.7969" x="560.1909" y="149.1387">&#171;service&#187;</text><text fill="#000000" font-family="sans-serif" font-size="14" font-style="italic" lengthAdjust="spacing" textLength="84.5537" x="546.8125" y="164.9639">AuthService</text><line style="stroke:#181818;stroke-width:0.5;" x1="361.5" x2="784.1787" y1="173.2656" y2="173.2656"/><line style="stroke:#181818;stroke-width:0.5;" x1="361.5" x2="784.1787" y1="181.2656" y2="181.2656"/><ellipse cx="371.5" cy="194.9141" fill="#84BE84" rx="3" ry="3" style="stroke:#038048;stroke-width:1;"/><text fill="#000000" font-family="sans-serif" font-size="14" lengthAdjust="spacing" textLength="398.6787" x="380.5" y="198.2607">authenticate(username: String, password: String): String</text><ellipse cx="371.5" cy="211.2109" fill="#84BE84" rx="3" ry="3" style="stroke:#038048;stroke-width:1;"/><text fill="#000000" font-family="sans-serif" font-size="14" lengthAdjust="spacing" textLength="233.3652" x="380.5" y="214.5576">authorize(token: String): Boolean</text></g><!--class AddedMemberToGroup--><g class="entity" data-entity="AddedMemberToGroup" data-source-line="133" data-uid="ent0012" id="entity_AddedMemberToGroup"><rect fill="#F1F1F1" height="88.8594" rx="2.5" ry="2.5" style="stroke:#181818;stroke-width:0.5;" width="194.4834" x="1626" y="500"/><ellipse cx="1641" cy="520.1328" fill="#B4A7E5" rx="11" ry="11" style="stroke:#181818;stroke-width:1;"/><path d="M1636.9219,515.8984 L1636.9219,513.7422 L1644.3125,513.7422 L1644.3125,515.8984 L1641.8438,515.8984 L1641.8438,523.9766 L1644.3125,523.9766 L1644.3125,526.1328 L1636.9219,526.1328 L1636.9219,523.9766 L1639.3906,523.9766 L1639.3906,515.8984 L1636.9219,515.8984 Z " fill="#000000"/><text fill="#000000" font-family="sans-serif" font-size="12" font-style="italic" lengthAdjust="spacing" textLength="97.7461" x="1687.3687" y="516.1387">&#171;domain event&#187;</text><text fill="#000000" font-family="sans-serif" font-size="14" font-style="italic" lengthAdjust="spacing" textLength="162.4834" x="1655" y="531.9639">AddedMemberToGroup</text><line style="stroke:#181818;stroke-width:0.5;" x1="1627" x2="1819.4834" y1="540.2656" y2="540.2656"/><ellipse cx="1637" cy="553.9141" fill="none" rx="3" ry="3" style="stroke:#038048;stroke-width:1;"/><text fill="#000000" font-family="sans-serif" font-size="14" lengthAdjust="spacing" textLength="119.0957" x="1646" y="557.2607">groupId: GroupId</text><ellipse cx="1637" cy="570.2109" fill="none" rx="3" ry="3" style="stroke:#038048;stroke-width:1;"/><text fill="#000000" font-family="sans-serif" font-size="14" lengthAdjust="spacing" textLength="142.5156" x="1646" y="573.5576">addedMember: User</text><line style="stroke:#181818;stroke-width:0.5;" x1="1627" x2="1819.4834" y1="580.8594" y2="580.8594"/></g><!--class GroupCreated--><g class="entity" data-entity="GroupCreated" data-source-line="137" data-uid="ent0016" id="entity_GroupCreated"><rect fill="#F1F1F1" height="88.8594" rx="2.5" ry="2.5" style="stroke:#181818;stroke-width:0.5;" width="145.0957" x="1855.5" y="500"/><ellipse cx="1877.0039" cy="520.1328" fill="#B4A7E5" rx="11" ry="11" style="stroke:#181818;stroke-width:1;"/><path d="M1872.9258,515.8984 L1872.9258,513.7422 L1880.3164,513.7422 L1880.3164,515.8984 L1877.8477,515.8984 L1877.8477,523.9766 L1880.3164,523.9766 L1880.3164,526.1328 L1872.9258,526.1328 L1872.9258,523.9766 L1875.3945,523.9766 L1875.3945,515.8984 L1872.9258,515.8984 Z " fill="#000000"/><text fill="#000000" font-family="sans-serif" font-size="12" font-style="italic" lengthAdjust="spacing" textLength="97.7461" x="1892.8975" y="516.1387">&#171;domain event&#187;</text><text fill="#000000" font-family="sans-serif" font-size="14" font-style="italic" lengthAdjust="spacing" textLength="98.6426" x="1892.4492" y="531.9639">GroupCreated</text><line style="stroke:#181818;stroke-width:0.5;" x1="1856.5" x2="1999.5957" y1="540.2656" y2="540.2656"/><ellipse cx="1866.5" cy="553.9141" fill="none" rx="3" ry="3" style="stroke:#038048;stroke-width:1;"/><text fill="#000000" font-family="sans-serif" font-size="14" lengthAdjust="spacing" textLength="119.0957" x="1875.5" y="557.2607">groupId: GroupId</text><ellipse cx="1866.5" cy="570.2109" fill="none" rx="3" ry="3" style="stroke:#038048;stroke-width:1;"/><text fill="#000000" font-family="sans-serif" font-size="14" lengthAdjust="spacing" textLength="112.6016" x="1875.5" y="573.5576">createdBy: User</text><line style="stroke:#181818;stroke-width:0.5;" x1="1856.5" x2="1999.5957" y1="580.8594" y2="580.8594"/></g><!--class GroupDeleted--><g class="entity" data-entity="GroupDeleted" data-source-line="141" data-uid="ent0017" id="entity_GroupDeleted"><rect fill="#F1F1F1" height="72.5625" rx="2.5" ry="2.5" style="stroke:#181818;stroke-width:0.5;" width="145.0957" x="2035.5" y="508"/><ellipse cx="2057.3761" cy="528.1328" fill="#B4A7E5" rx="11" ry="11" style="stroke:#181818;stroke-width:1;"/><path d="M2053.298,523.8984 L2053.298,521.7422 L2060.6886,521.7422 L2060.6886,523.8984 L2058.2199,523.8984 L2058.2199,531.9766 L2060.6886,531.9766 L2060.6886,534.1328 L2053.298,534.1328 L2053.298,531.9766 L2055.7667,531.9766 L2055.7667,523.8984 L2053.298,523.8984 Z " fill="#000000"/><text fill="#000000" font-family="sans-serif" font-size="12" font-style="italic" lengthAdjust="spacing" textLength="97.7461" x="2072.9388" y="524.1387">&#171;domain event&#187;</text><text fill="#000000" font-family="sans-serif" font-size="14" font-style="italic" lengthAdjust="spacing" textLength="97.8154" x="2072.9042" y="539.9639">GroupDeleted</text><line style="stroke:#181818;stroke-width:0.5;" x1="2036.5" x2="2179.5957" y1="548.2656" y2="548.2656"/><ellipse cx="2046.5" cy="561.9141" fill="none" rx="3" ry="3" style="stroke:#038048;stroke-width:1;"/><text fill="#000000" font-family="sans-serif" font-size="14" lengthAdjust="spacing" textLength="119.0957" x="2055.5" y="565.2607">groupId: GroupId</text><line style="stroke:#181818;stroke-width:0.5;" x1="2036.5" x2="2179.5957" y1="572.5625" y2="572.5625"/></g><!--class RemovedMemberToGroup--><g class="entity" data-entity="RemovedMemberToGroup" data-source-line="144" data-uid="ent0018" id="entity_RemovedMemberToGroup"><rect fill="#F1F1F1" height="88.8594" rx="2.5" ry="2.5" style="stroke:#181818;stroke-width:0.5;" width="215.9619" x="1375" y="500"/><ellipse cx="1390" cy="520.1328" fill="#B4A7E5" rx="11" ry="11" style="stroke:#181818;stroke-width:1;"/><path d="M1385.9219,515.8984 L1385.9219,513.7422 L1393.3125,513.7422 L1393.3125,515.8984 L1390.8438,515.8984 L1390.8438,523.9766 L1393.3125,523.9766 L1393.3125,526.1328 L1385.9219,526.1328 L1385.9219,523.9766 L1388.3906,523.9766 L1388.3906,515.8984 L1385.9219,515.8984 Z " fill="#000000"/><text fill="#000000" font-family="sans-serif" font-size="12" font-style="italic" lengthAdjust="spacing" textLength="97.7461" x="1447.1079" y="516.1387">&#171;domain event&#187;</text><text fill="#000000" font-family="sans-serif" font-size="14" font-style="italic" lengthAdjust="spacing" textLength="183.9619" x="1404" y="531.9639">RemovedMemberToGroup</text><line style="stroke:#181818;stroke-width:0.5;" x1="1376" x2="1589.9619" y1="540.2656" y2="540.2656"/><ellipse cx="1386" cy="553.9141" fill="none" rx="3" ry="3" style="stroke:#038048;stroke-width:1;"/><text fill="#000000" font-family="sans-serif" font-size="14" lengthAdjust="spacing" textLength="119.0957" x="1395" y="557.2607">groupId: GroupId</text><ellipse cx="1386" cy="570.2109" fill="none" rx="3" ry="3" style="stroke:#038048;stroke-width:1;"/><text fill="#000000" font-family="sans-serif" font-size="14" lengthAdjust="spacing" textLength="161.0205" x="1395" y="573.5576">removedMember: User</text><line style="stroke:#181818;stroke-width:0.5;" x1="1376" x2="1589.9619" y1="580.8594" y2="580.8594"/></g><!--link UserService to UserRepository--><g class="link" data-entity-1="UserService" data-entity-2="UserRepository" data-source-line="150" data-uid="lnk19" id="link_UserService_UserRepository"><path codeLine="150" d="M186,246.73 C186,309.45 186,396.32 186,461.41" fill="none" id="UserService-to-UserRepository" style="stroke:#181818;stroke-width:1;stroke-dasharray:7.0,7.0;"/><polygon fill="#181818" points="186,467.41,190,458.41,186,462.41,182,458.41,186,467.41" style="stroke:#181818;stroke-width:1;"/><text fill="#000000" font-family="sans-serif" font-size="13" lengthAdjust="spacing" textLength="29.7832" x="187" y="316.0669">uses</text></g><!--link GroupService to GroupRepository--><g class="link" data-entity-1="GroupService" data-entity-2="GroupRepository" data-source-line="151" data-uid="lnk20" id="link_GroupService_GroupRepository"><path codeLine="151" d="M1022,271.08 C1022,323.45 1022,383.01 1022,436.68" fill="none" id="GroupService-to-GroupRepository" style="stroke:#181818;stroke-width:1;stroke-dasharray:7.0,7.0;"/><polygon fill="#181818" points="1022,442.68,1026,433.68,1022,437.68,1018,433.68,1022,442.68" style="stroke:#181818;stroke-width:1;"/><text fill="#000000" font-family="sans-serif" font-size="13" lengthAdjust="spacing" textLength="29.7832" x="1023" y="316.0669">uses</text></g><!--link AuthService to AuthRepository--><g class="link" data-entity-1="AuthService" data-entity-2="AuthRepository" data-source-line="152" data-uid="lnk21" id="link_AuthService_AuthRepository"><path codeLine="152" d="M572.28,222.16 C571.08,295.21 568.7891,434.7508 567.6791,501.9708" fill="none" id="AuthService-to-AuthRepository" style="stroke:#181818;stroke-width:1;stroke-dasharray:7.0,7.0;"/><polygon fill="#181818" points="567.58,507.97,571.7281,499.0373,567.6626,502.9707,563.7291,498.9052,567.58,507.97" style="stroke:#181818;stroke-width:1;"/><text fill="#000000" font-family="sans-serif" font-size="13" lengthAdjust="spacing" textLength="29.7832" x="571" y="316.0669">uses</text></g><!--link GroupService to GroupDeleted--><g class="link" data-entity-1="GroupService" data-entity-2="GroupDeleted" data-source-line="153" data-uid="lnk22" id="link_GroupService_GroupDeleted"><path codeLine="153" d="M1223.22,184.96 C1478.39,197.09 1899.48,231.51 2018,328 C2073.81,373.44 2094.506,453.5512 2102.566,502.0312" fill="none" id="GroupService-to-GroupDeleted" style="stroke:#181818;stroke-width:1;stroke-dasharray:7.0,7.0;"/><polygon fill="#181818" points="2103.55,507.95,2106.0198,498.4158,2102.73,503.0177,2098.1281,499.7279,2103.55,507.95" style="stroke:#181818;stroke-width:1;"/><text fill="#000000" font-family="sans-serif" font-size="13" lengthAdjust="spacing" textLength="61.75" x="2007" y="316.0669">publishes</text></g><!--link GroupService to GroupCreated--><g class="link" data-entity-1="GroupService" data-entity-2="GroupCreated" data-source-line="154" data-uid="lnk23" id="link_GroupService_GroupCreated"><path codeLine="154" d="M1223.42,193.53 C1433.71,212.96 1745.54,253.51 1838,328 C1891.04,370.73 1912.1605,444.2861 1921.1405,493.8561" fill="none" id="GroupService-to-GroupCreated" style="stroke:#181818;stroke-width:1;stroke-dasharray:7.0,7.0;"/><polygon fill="#181818" points="1922.21,499.76,1924.5416,490.1911,1921.3187,494.8401,1916.6698,491.6172,1922.21,499.76" style="stroke:#181818;stroke-width:1;"/><text fill="#000000" font-family="sans-serif" font-size="13" lengthAdjust="spacing" textLength="61.75" x="1819" y="316.0669">publishes</text></g><!--link GroupService to AddedMemberToGroup--><g class="link" data-entity-1="GroupService" data-entity-2="AddedMemberToGroup" data-source-line="155" data-uid="lnk24" id="link_GroupService_AddedMemberToGroup"><path codeLine="155" d="M1223.23,189.1 C1345.82,204.73 1499.4,241.74 1609,328 C1664.71,371.85 1694.5486,444.8374 1709.7486,494.0274" fill="none" id="GroupService-to-AddedMemberToGroup" style="stroke:#181818;stroke-width:1;stroke-dasharray:7.0,7.0;"/><polygon fill="#181818" points="1711.52,499.76,1712.6846,489.9802,1710.0438,494.9829,1705.0412,492.3421,1711.52,499.76" style="stroke:#181818;stroke-width:1;"/><text fill="#000000" font-family="sans-serif" font-size="13" lengthAdjust="spacing" textLength="61.75" x="1597" y="316.0669">publishes</text></g><!--link GroupService to RemovedMemberToGroup--><g class="link" data-entity-1="GroupService" data-entity-2="RemovedMemberToGroup" data-source-line="156" data-uid="lnk25" id="link_GroupService_RemovedMemberToGroup"><path codeLine="156" d="M1160.84,271.06 C1186.87,289.4 1213.57,308.9 1238,328 C1309.86,384.16 1383.8309,450.8398 1432.1109,495.6198" fill="none" id="GroupService-to-RemovedMemberToGroup" style="stroke:#181818;stroke-width:1;stroke-dasharray:7.0,7.0;"/><polygon fill="#181818" points="1436.51,499.7,1432.6315,490.647,1432.8441,496.2998,1427.1912,496.5124,1436.51,499.7" style="stroke:#181818;stroke-width:1;"/><text fill="#000000" font-family="sans-serif" font-size="13" lengthAdjust="spacing" textLength="61.75" x="1227" y="316.0669">publishes</text></g><!--SRC=[nLRRYjim47tFL-ZHInT_W361P5jAeAMmstw0rfea8efa9DabBVllrSKRIufhkoRGXmHZdJapcZb7Sesh4pu0mdNDQ8Kr5HpzNY5KT-ybr49HBUJ5lKQ8SWroZoj0FnJ8vtwvB7liUjsX4Vg056uXQmouS24F1Me59TVbFULaUzcHZ18Fs947_t25D3N1Ek6800GOQBXbsGh10FCeruQnp2nzeKgN5hXEAlbqnfHbOFyBzA8bvOSmtLlIXSzIDFNiDXmikl11eurm2BS7zvIs8k69CKatUggfTZXatmzCo5SuluBqwNOzroEAPX6dbt0MBIo9jFMuDsfxiO3XKGoLcaQcGaXZqYbk6dsSCyJg2DNfIG81hYbcAYxkqTX6gPz2ag3SiEashVq51ZCLjjHKCEIkbswjB3jKN8i48mMB6t760RH3J9bhWiPBwfOfLLINRfcBvcpN0JEEpn3GnYeoDNZKj8yyxbQZC-mrb2Bjndyna36qTyAtlPlNNFjSuvOxQ7o0s22iRQhtipoSug1r_4D482Jz1PaM9-2Z7djRhQuEEs9ZsFna4WBBYJ3zu3cqfXHruxeD8T3DxBjmkpMRyI78XGGxSbfBfXCiuPvgIlXFJjfaSIfl3NDvJ2NwwAIx955Az-mqUgTMoP0iseCP8mg_JV9EM7buFERvEiBqPtUUVACKrZpgBvJH6JJ2cTxuewIXBKOua_ldt-eS4NWUZRr0TVFAg3hUaVjTktVc7Z3YdJCCAZZCyGS0]--></g></svg>