<svg xmlns="http://www.w3.org/2000/svg" xmlns:xlink="http://www.w3.org/1999/xlink" contentStyleType="text/css" data-diagram-type="CLASS" height="569px" preserveAspectRatio="none" style="width:779px;height:569px;background:#FFFFFF;" version="1.1" viewBox="0 0 779 569" width="779px" zoomAndPan="magnify"><defs/><g><!--cluster domain--><g class="cluster" data-entity="domain" data-source-line="19" data-uid="ent0002" id="cluster_domain"><path d="M25.87,6 L85.3104,6 A3.75,3.75 0 0 1 87.8104,8.5 L94.8104,28.2969 L769.87,28.2969 A2.5,2.5 0 0 1 772.37,30.7969 L772.37,559.5 A2.5,2.5 0 0 1 769.87,562 L25.87,562 A2.5,2.5 0 0 1 23.37,559.5 L23.37,8.5 A2.5,2.5 0 0 1 25.87,6" fill="none" style="stroke:#000000;stroke-width:1.5;"/><line style="stroke:#000000;stroke-width:1.5;" x1="23.37" x2="94.8104" y1="28.2969" y2="28.2969"/><text fill="#000000" font-family="sans-serif" font-size="14" font-weight="bold" lengthAdjust="spacing" textLength="58.4404" x="27.37" y="20.9951">domain</text></g><!--cluster user--><g class="cluster" data-entity="user" data-source-line="20" data-uid="ent0003" id="cluster_user"><path d="M49.87,366 L85.5692,366 A3.75,3.75 0 0 1 88.0692,368.5 L95.0692,388.2969 L371.87,388.2969 A2.5,2.5 0 0 1 374.37,390.7969 L374.37,535.5 A2.5,2.5 0 0 1 371.87,538 L49.87,538 A2.5,2.5 0 0 1 47.37,535.5 L47.37,368.5 A2.5,2.5 0 0 1 49.87,366" fill="none" style="stroke:#000000;stroke-width:1.5;"/><line style="stroke:#000000;stroke-width:1.5;" x1="47.37" x2="95.0692" y1="388.2969" y2="388.2969"/><text fill="#000000" font-family="sans-serif" font-size="14" font-weight="bold" lengthAdjust="spacing" textLength="34.6992" x="51.37" y="380.9951">user</text></g><!--cluster authentication--><g class="cluster" data-entity="authentication" data-source-line="34" data-uid="ent0007" id="cluster_authentication"><path d="M451.87,49 L568.7186,49 A3.75,3.75 0 0 1 571.2186,51.5 L578.2186,71.2969 L745.87,71.2969 A2.5,2.5 0 0 1 748.37,73.7969 L748.37,323.5 A2.5,2.5 0 0 1 745.87,326 L451.87,326 A2.5,2.5 0 0 1 449.37,323.5 L449.37,51.5 A2.5,2.5 0 0 1 451.87,49" fill="none" style="stroke:#000000;stroke-width:1.5;"/><line style="stroke:#000000;stroke-width:1.5;" x1="449.37" x2="578.2186" y1="71.2969" y2="71.2969"/><text fill="#000000" font-family="sans-serif" font-size="14" font-weight="bold" lengthAdjust="spacing" textLength="115.8486" x="453.37" y="63.9951">authentication</text></g><!--cluster group--><g class="cluster" data-entity="group" data-source-line="51" data-uid="ent0012" id="cluster_group"><path d="M62.87,186 L110.4022,186 A3.75,3.75 0 0 1 112.9022,188.5 L119.9022,208.2969 L422.87,208.2969 A2.5,2.5 0 0 1 425.37,210.7969 L425.37,339.5 A2.5,2.5 0 0 1 422.87,342 L62.87,342 A2.5,2.5 0 0 1 60.37,339.5 L60.37,188.5 A2.5,2.5 0 0 1 62.87,186" fill="none" style="stroke:#000000;stroke-width:1.5;"/><line style="stroke:#000000;stroke-width:1.5;" x1="60.37" x2="119.9022" y1="208.2969" y2="208.2969"/><text fill="#000000" font-family="sans-serif" font-size="14" font-weight="bold" lengthAdjust="spacing" textLength="46.5322" x="64.37" y="200.9951">group</text></g><!--class membership--><g class="entity" data-entity="membership" data-source-line="46" data-uid="ent0011" id="entity_membership"><rect fill="#F1F1F1" height="80.5938" rx="2.5" ry="2.5" style="stroke:#181818;stroke-width:0.5;" width="145.0957" x="158.87" y="80"/><ellipse cx="185.1235" cy="96" fill="#B4A7E5" rx="11" ry="11" style="stroke:#181818;stroke-width:1;"/><path d="M181.0454,91.7656 L181.0454,89.6094 L188.436,89.6094 L188.436,91.7656 L185.9673,91.7656 L185.9673,99.8438 L188.436,99.8438 L188.436,102 L181.0454,102 L181.0454,99.8438 L183.5141,99.8438 L183.5141,91.7656 L181.0454,91.7656 Z " fill="#000000"/><text fill="#000000" font-family="sans-serif" font-size="14" font-style="italic" lengthAdjust="spacing" textLength="88.0879" x="201.6243" y="100.8467">membership</text><line style="stroke:#181818;stroke-width:0.5;" x1="159.87" x2="302.9657" y1="112" y2="112"/><ellipse cx="169.87" cy="125.6484" fill="none" rx="3" ry="3" style="stroke:#038048;stroke-width:1;"/><text fill="#000000" font-family="sans-serif" font-size="14" lengthAdjust="spacing" textLength="97.6445" x="178.87" y="128.9951">userId: UserId</text><ellipse cx="169.87" cy="141.9453" fill="none" rx="3" ry="3" style="stroke:#038048;stroke-width:1;"/><text fill="#000000" font-family="sans-serif" font-size="14" lengthAdjust="spacing" textLength="119.0957" x="178.87" y="145.292">groupId: GroupId</text><line style="stroke:#181818;stroke-width:0.5;" x1="159.87" x2="302.9657" y1="152.5938" y2="152.5938"/></g><!--class User--><g class="entity" data-entity="User" data-source-line="21" data-uid="ent0004" id="entity_User"><rect fill="#F1F1F1" height="121.4531" rx="2.5" ry="2.5" style="stroke:#181818;stroke-width:0.5;" width="143.6602" x="214.37" y="401"/><ellipse cx="259.1268" cy="421.1328" fill="#B4A7E5" rx="11" ry="11" style="stroke:#181818;stroke-width:1;"/><path d="M255.0487,416.8984 L255.0487,414.7422 L262.4393,414.7422 L262.4393,416.8984 L259.9706,416.8984 L259.9706,424.9766 L262.4393,424.9766 L262.4393,427.1328 L255.0487,427.1328 L255.0487,424.9766 L257.5175,424.9766 L257.5175,416.8984 L255.0487,416.8984 Z " fill="#000000"/><text fill="#000000" font-family="sans-serif" font-size="12" font-style="italic" lengthAdjust="spacing" textLength="49.6465" x="277.6268" y="417.1387">&#171;entity&#187;</text><text fill="#000000" font-family="sans-serif" font-size="14" font-style="italic" lengthAdjust="spacing" textLength="31.9102" x="286.495" y="432.9639">User</text><line style="stroke:#181818;stroke-width:0.5;" x1="215.37" x2="357.0302" y1="441.2656" y2="441.2656"/><ellipse cx="225.37" cy="454.9141" fill="none" rx="3" ry="3" style="stroke:#038048;stroke-width:1;"/><text fill="#000000" font-family="sans-serif" font-size="14" lengthAdjust="spacing" textLength="66.8691" x="234.37" y="458.2607">id: UserId</text><ellipse cx="225.37" cy="471.2109" fill="none" rx="3" ry="3" style="stroke:#038048;stroke-width:1;"/><text fill="#000000" font-family="sans-serif" font-size="14" lengthAdjust="spacing" textLength="90.6514" x="234.37" y="474.5576">name: String</text><ellipse cx="225.37" cy="487.5078" fill="none" rx="3" ry="3" style="stroke:#038048;stroke-width:1;"/><text fill="#000000" font-family="sans-serif" font-size="14" lengthAdjust="spacing" textLength="89.5576" x="234.37" y="490.8545">email: String</text><ellipse cx="225.37" cy="503.8047" fill="none" rx="3" ry="3" style="stroke:#038048;stroke-width:1;"/><text fill="#000000" font-family="sans-serif" font-size="14" lengthAdjust="spacing" textLength="117.6602" x="234.37" y="507.1514">password: String</text><line style="stroke:#181818;stroke-width:0.5;" x1="215.37" x2="357.0302" y1="514.4531" y2="514.4531"/></g><!--class UserId--><g class="entity" data-entity="UserId" data-source-line="27" data-uid="ent0005" id="entity_UserId"><rect fill="#F1F1F1" height="72.5625" rx="2.5" ry="2.5" style="stroke:#181818;stroke-width:0.5;" width="116.3828" x="63.37" y="425"/><ellipse cx="78.37" cy="445.1328" fill="#B4A7E5" rx="11" ry="11" style="stroke:#181818;stroke-width:1;"/><path d="M74.2919,440.8984 L74.2919,438.7422 L81.6825,438.7422 L81.6825,440.8984 L79.2138,440.8984 L79.2138,448.9766 L81.6825,448.9766 L81.6825,451.1328 L74.2919,451.1328 L74.2919,448.9766 L76.7606,448.9766 L76.7606,440.8984 L74.2919,440.8984 Z " fill="#000000"/><text fill="#000000" font-family="sans-serif" font-size="12" font-style="italic" lengthAdjust="spacing" textLength="88.3828" x="90.37" y="441.1387">&#171;value object&#187;</text><text fill="#000000" font-family="sans-serif" font-size="14" font-style="italic" lengthAdjust="spacing" textLength="44.9258" x="112.0985" y="456.9639">UserId</text><line style="stroke:#181818;stroke-width:0.5;" x1="64.37" x2="178.7528" y1="465.2656" y2="465.2656"/><ellipse cx="74.37" cy="478.9141" fill="none" rx="3" ry="3" style="stroke:#038048;stroke-width:1;"/><text fill="#000000" font-family="sans-serif" font-size="14" lengthAdjust="spacing" textLength="82.8105" x="83.37" y="482.2607">value: UUID</text><line style="stroke:#181818;stroke-width:0.5;" x1="64.37" x2="178.7528" y1="489.5625" y2="489.5625"/></g><!--class Secret--><g class="entity" data-entity="Secret" data-source-line="35" data-uid="ent0008" id="entity_Secret"><rect fill="#F1F1F1" height="72.5625" rx="2.5" ry="2.5" style="stroke:#181818;stroke-width:0.5;" width="116.3828" x="465.37" y="84"/><ellipse cx="480.37" cy="104.1328" fill="#B4A7E5" rx="11" ry="11" style="stroke:#181818;stroke-width:1;"/><path d="M476.2919,99.8984 L476.2919,97.7422 L483.6825,97.7422 L483.6825,99.8984 L481.2138,99.8984 L481.2138,107.9766 L483.6825,107.9766 L483.6825,110.1328 L476.2919,110.1328 L476.2919,107.9766 L478.7606,107.9766 L478.7606,99.8984 L476.2919,99.8984 Z " fill="#000000"/><text fill="#000000" font-family="sans-serif" font-size="12" font-style="italic" lengthAdjust="spacing" textLength="88.3828" x="492.37" y="100.1387">&#171;value object&#187;</text><text fill="#000000" font-family="sans-serif" font-size="14" font-style="italic" lengthAdjust="spacing" textLength="45.0557" x="514.0336" y="115.9639">Secret</text><line style="stroke:#181818;stroke-width:0.5;" x1="466.37" x2="580.7528" y1="124.2656" y2="124.2656"/><ellipse cx="476.37" cy="137.9141" fill="none" rx="3" ry="3" style="stroke:#038048;stroke-width:1;"/><text fill="#000000" font-family="sans-serif" font-size="14" lengthAdjust="spacing" textLength="89.1885" x="485.37" y="141.2607">value: String</text><line style="stroke:#181818;stroke-width:0.5;" x1="466.37" x2="580.7528" y1="148.5625" y2="148.5625"/></g><!--class Issuer--><g class="entity" data-entity="Issuer" data-source-line="38" data-uid="ent0009" id="entity_Issuer"><rect fill="#F1F1F1" height="72.5625" rx="2.5" ry="2.5" style="stroke:#181818;stroke-width:0.5;" width="116.3828" x="616.37" y="84"/><ellipse cx="631.37" cy="104.1328" fill="#B4A7E5" rx="11" ry="11" style="stroke:#181818;stroke-width:1;"/><path d="M627.2919,99.8984 L627.2919,97.7422 L634.6825,97.7422 L634.6825,99.8984 L632.2138,99.8984 L632.2138,107.9766 L634.6825,107.9766 L634.6825,110.1328 L627.2919,110.1328 L627.2919,107.9766 L629.7606,107.9766 L629.7606,99.8984 L627.2919,99.8984 Z " fill="#000000"/><text fill="#000000" font-family="sans-serif" font-size="12" font-style="italic" lengthAdjust="spacing" textLength="88.3828" x="643.37" y="100.1387">&#171;value object&#187;</text><text fill="#000000" font-family="sans-serif" font-size="14" font-style="italic" lengthAdjust="spacing" textLength="41.959" x="666.5819" y="115.9639">Issuer</text><line style="stroke:#181818;stroke-width:0.5;" x1="617.37" x2="731.7528" y1="124.2656" y2="124.2656"/><ellipse cx="627.37" cy="137.9141" fill="none" rx="3" ry="3" style="stroke:#038048;stroke-width:1;"/><text fill="#000000" font-family="sans-serif" font-size="14" lengthAdjust="spacing" textLength="89.1885" x="636.37" y="141.2607">value: String</text><line style="stroke:#181818;stroke-width:0.5;" x1="617.37" x2="731.7528" y1="148.5625" y2="148.5625"/></g><!--class Audience--><g class="entity" data-entity="Audience" data-source-line="41" data-uid="ent0010" id="entity_Audience"><rect fill="#F1F1F1" height="72.5625" rx="2.5" ry="2.5" style="stroke:#181818;stroke-width:0.5;" width="116.3828" x="465.37" y="237"/><ellipse cx="480.37" cy="257.1328" fill="#B4A7E5" rx="11" ry="11" style="stroke:#181818;stroke-width:1;"/><path d="M476.2919,252.8984 L476.2919,250.7422 L483.6825,250.7422 L483.6825,252.8984 L481.2138,252.8984 L481.2138,260.9766 L483.6825,260.9766 L483.6825,263.1328 L476.2919,263.1328 L476.2919,260.9766 L478.7606,260.9766 L478.7606,252.8984 L476.2919,252.8984 Z " fill="#000000"/><text fill="#000000" font-family="sans-serif" font-size="12" font-style="italic" lengthAdjust="spacing" textLength="88.3828" x="492.37" y="253.1387">&#171;value object&#187;</text><text fill="#000000" font-family="sans-serif" font-size="14" font-style="italic" lengthAdjust="spacing" textLength="65.0234" x="504.0497" y="268.9639">Audience</text><line style="stroke:#181818;stroke-width:0.5;" x1="466.37" x2="580.7528" y1="277.2656" y2="277.2656"/><ellipse cx="476.37" cy="290.9141" fill="none" rx="3" ry="3" style="stroke:#038048;stroke-width:1;"/><text fill="#000000" font-family="sans-serif" font-size="14" lengthAdjust="spacing" textLength="89.1885" x="485.37" y="294.2607">value: String</text><line style="stroke:#181818;stroke-width:0.5;" x1="466.37" x2="580.7528" y1="301.5625" y2="301.5625"/></g><!--class Group--><g class="entity" data-entity="Group" data-source-line="52" data-uid="ent0013" id="entity_Group"><rect fill="#F1F1F1" height="105.1563" rx="2.5" ry="2.5" style="stroke:#181818;stroke-width:0.5;" width="181.4492" x="76.87" y="221"/><ellipse cx="140.5214" cy="241.1328" fill="#B4A7E5" rx="11" ry="11" style="stroke:#181818;stroke-width:1;"/><path d="M136.4432,236.8984 L136.4432,234.7422 L143.8339,234.7422 L143.8339,236.8984 L141.3651,236.8984 L141.3651,244.9766 L143.8339,244.9766 L143.8339,247.1328 L136.4432,247.1328 L136.4432,244.9766 L138.912,244.9766 L138.912,236.8984 L136.4432,236.8984 Z " fill="#000000"/><text fill="#000000" font-family="sans-serif" font-size="12" font-style="italic" lengthAdjust="spacing" textLength="49.6465" x="159.0214" y="237.1387">&#171;entity&#187;</text><text fill="#000000" font-family="sans-serif" font-size="14" font-style="italic" lengthAdjust="spacing" textLength="42.9297" x="162.3798" y="252.9639">Group</text><line style="stroke:#181818;stroke-width:0.5;" x1="77.87" x2="257.3192" y1="261.2656" y2="261.2656"/><ellipse cx="87.87" cy="274.9141" fill="none" rx="3" ry="3" style="stroke:#038048;stroke-width:1;"/><text fill="#000000" font-family="sans-serif" font-size="14" lengthAdjust="spacing" textLength="77.8887" x="96.87" y="278.2607">id: GroupId</text><ellipse cx="87.87" cy="291.2109" fill="none" rx="3" ry="3" style="stroke:#038048;stroke-width:1;"/><text fill="#000000" font-family="sans-serif" font-size="14" lengthAdjust="spacing" textLength="90.6514" x="96.87" y="294.5576">name: String</text><ellipse cx="87.87" cy="307.5078" fill="none" rx="3" ry="3" style="stroke:#038048;stroke-width:1;"/><text fill="#000000" font-family="sans-serif" font-size="14" lengthAdjust="spacing" textLength="155.4492" x="96.87" y="310.8545">members: List&lt;User&gt;</text><line style="stroke:#181818;stroke-width:0.5;" x1="77.87" x2="257.3192" y1="318.1563" y2="318.1563"/></g><!--class GroupId--><g class="entity" data-entity="GroupId" data-source-line="57" data-uid="ent0014" id="entity_GroupId"><rect fill="#F1F1F1" height="72.5625" rx="2.5" ry="2.5" style="stroke:#181818;stroke-width:0.5;" width="116.3828" x="293.37" y="237"/><ellipse cx="308.37" cy="257.1328" fill="#B4A7E5" rx="11" ry="11" style="stroke:#181818;stroke-width:1;"/><path d="M304.2919,252.8984 L304.2919,250.7422 L311.6825,250.7422 L311.6825,252.8984 L309.2138,252.8984 L309.2138,260.9766 L311.6825,260.9766 L311.6825,263.1328 L304.2919,263.1328 L304.2919,260.9766 L306.7606,260.9766 L306.7606,252.8984 L304.2919,252.8984 Z " fill="#000000"/><text fill="#000000" font-family="sans-serif" font-size="12" font-style="italic" lengthAdjust="spacing" textLength="88.3828" x="320.37" y="253.1387">&#171;value object&#187;</text><text fill="#000000" font-family="sans-serif" font-size="14" font-style="italic" lengthAdjust="spacing" textLength="55.9453" x="336.5888" y="268.9639">GroupId</text><line style="stroke:#181818;stroke-width:0.5;" x1="294.37" x2="408.7528" y1="277.2656" y2="277.2656"/><ellipse cx="304.37" cy="290.9141" fill="none" rx="3" ry="3" style="stroke:#038048;stroke-width:1;"/><text fill="#000000" font-family="sans-serif" font-size="14" lengthAdjust="spacing" textLength="82.8105" x="313.37" y="294.2607">value: UUID</text><line style="stroke:#181818;stroke-width:0.5;" x1="294.37" x2="408.7528" y1="301.5625" y2="301.5625"/></g><!--link User to UserId--><g class="link" data-entity-1="User" data-entity-2="UserId" data-source-line="30" data-uid="lnk6" id="link_User_UserId"><path codeLine="30" d="M202.07,461.5 C190.5,461.5 196.94,461.5 185.38,461.5" fill="none" id="User-UserId" style="stroke:#181818;stroke-width:1;"/><polygon fill="#181818" points="214.07,461.5,208.07,457.5,202.07,461.5,208.07,465.5,214.07,461.5" style="stroke:#181818;stroke-width:1;"/><polygon fill="#181818" points="179.38,461.5,188.38,465.5,184.38,461.5,188.38,457.5,179.38,461.5" style="stroke:#181818;stroke-width:1;"/><text fill="#000000" font-family="sans-serif" font-size="13" lengthAdjust="spacing" textLength="8.271" x="187.7051" y="457.5974">1</text></g><!--link Group to GroupId--><g class="link" data-entity-1="Group" data-entity-2="GroupId" data-source-line="60" data-uid="lnk15" id="link_Group_GroupId"><path codeLine="60" d="M269.93,273.5 C281.73,273.5 275.54,273.5 287.34,273.5" fill="none" id="Group-GroupId" style="stroke:#181818;stroke-width:1;"/><polygon fill="#181818" points="257.93,273.5,263.93,277.5,269.93,273.5,263.93,269.5,257.93,273.5" style="stroke:#181818;stroke-width:1;"/><polygon fill="#181818" points="293.34,273.5,284.34,269.5,288.34,273.5,284.34,277.5,293.34,273.5" style="stroke:#181818;stroke-width:1;"/><text fill="#000000" font-family="sans-serif" font-size="13" lengthAdjust="spacing" textLength="8.271" x="276.9972" y="269.5974">1</text></g><!--link Group to User--><g class="link" data-entity-1="Group" data-entity-2="User" data-source-line="61" data-uid="lnk16" id="link_Group_User"><path codeLine="61" d="M200.52,326.31 C215.3,349.42 229.5748,371.7369 244.9148,395.6969" fill="none" id="Group-to-User" style="stroke:#181818;stroke-width:1;"/><polygon fill="#181818" points="248.15,400.75,246.666,391.0136,245.454,396.5391,239.9285,395.3271,248.15,400.75" style="stroke:#181818;stroke-width:1;"/><text fill="#000000" font-family="sans-serif" font-size="13" lengthAdjust="spacing" textLength="23.0356" x="219.4228" y="389.907">0..*</text></g><!--link membership to UserId--><g class="link" data-entity-1="membership" data-entity-2="UserId" data-source-line="64" data-uid="lnk17" id="link_membership_UserId"><path codeLine="64" d="M146.8607,128.3706 C111.1107,134.8206 82.81,146.96 60.37,178 C6,253.23 58.9306,362.1469 94.2106,419.6069" fill="none" id="membership-UserId" style="stroke:#181818;stroke-width:1;"/><polygon fill="#181818" points="158.67,126.24,152.0551,123.3689,146.8607,128.3706,153.4755,131.2418,158.67,126.24" style="stroke:#181818;stroke-width:1;"/><polygon fill="#181818" points="97.35,424.72,96.0496,414.9574,94.7338,420.4591,89.2321,419.1433,97.35,424.72" style="stroke:#181818;stroke-width:1;"/><text fill="#000000" font-family="sans-serif" font-size="13" lengthAdjust="spacing" textLength="8.271" x="84.349" y="413.9503">1</text></g><!--link membership to GroupId--><g class="link" data-entity-1="membership" data-entity-2="GroupId" data-source-line="65" data-uid="lnk18" id="link_membership_GroupId"><path codeLine="65" d="M270.3651,170.5653 C289.0451,194.0753 301.3172,209.5225 319.3872,232.2625" fill="none" id="membership-GroupId" style="stroke:#181818;stroke-width:1;"/><polygon fill="#181818" points="262.9,161.17,263.5008,168.356,270.3651,170.5653,269.7643,163.3793,262.9,161.17" style="stroke:#181818;stroke-width:1;"/><polygon fill="#181818" points="323.12,236.96,320.6525,227.4253,320.0093,233.0454,314.3892,232.4023,323.12,236.96" style="stroke:#181818;stroke-width:1;"/><text fill="#000000" font-family="sans-serif" font-size="13" lengthAdjust="spacing" textLength="8.271" x="309.1636" y="225.9596">1</text></g><!--SRC=[hPBDQeGm58NtFiLbbef3knKH2eKYT3VC0sJChQOT4ybFXs7mtMlYR-fOQEakd1DFldiz3Ia-I8b0HKqOXri0q0oIKIYT0C2uHlb62eIZ5TCKkMRwccM33n01eubpSpf9dDIOm45Bnij9nEwXyqfjY58N8Qbdj7SUpsdt_2Sv6mHnUiT2Un3Ew3YE-VCYmK67iMHbfUCCTe-xcRGDWiNCnEZApbOGpGIVWcU40nOIzJQ2X-7DsAwoSgMCs-O_P3qPof1tXp-cjNOBSroDzGcbgbWpV1-vEkJ-FuwWbC8qLdtf3sFIk4_dhqhaBc-tQCxweKO3OGAlJEdKGcLtEpE4_RuqFQJVcYLPxyVMUTZlmxvIu_oB_OKn5HV-lNPR5yONsYy0]--></g></svg>