<svg xmlns="http://www.w3.org/2000/svg" xmlns:xlink="http://www.w3.org/1999/xlink" contentStyleType="text/css" data-diagram-type="CLASS" height="1011px" preserveAspectRatio="none" style="width:1271px;height:1011px;background:#FFFFFF;" version="1.1" viewBox="0 0 1271 1011" width="1271px" zoomAndPan="magnify"><defs/><g><!--cluster application--><g class="cluster" data-entity="application" data-source-line="67" data-uid="ent0002" id="cluster_application"><path d="M8.5,6 L97.4102,6 A3.75,3.75 0 0 1 99.9102,8.5 L106.9102,28.2969 L1261.5,28.2969 A2.5,2.5 0 0 1 1264,30.7969 L1264,611.5 A2.5,2.5 0 0 1 1261.5,614 L8.5,614 A2.5,2.5 0 0 1 6,611.5 L6,8.5 A2.5,2.5 0 0 1 8.5,6" fill="none" style="stroke:#000000;stroke-width:1.5;"/><line style="stroke:#000000;stroke-width:1.5;" x1="6" x2="106.9102" y1="28.2969" y2="28.2969"/><text fill="#000000" font-family="sans-serif" font-size="14" font-weight="bold" lengthAdjust="spacing" textLength="87.9102" x="10" y="20.9951">application</text></g><!--cluster repository--><g class="cluster" data-entity="repository" data-source-line="68" data-uid="ent0003" id="cluster_repository"><path d="M32.5,49 L115.0117,49 A3.75,3.75 0 0 1 117.5117,51.5 L124.5117,71.2969 L1221.5,71.2969 A2.5,2.5 0 0 1 1224,73.7969 L1224,300.5 A2.5,2.5 0 0 1 1221.5,303 L32.5,303 A2.5,2.5 0 0 1 30,300.5 L30,51.5 A2.5,2.5 0 0 1 32.5,49" fill="none" style="stroke:#000000;stroke-width:1.5;"/><line style="stroke:#000000;stroke-width:1.5;" x1="30" x2="124.5117" y1="71.2969" y2="71.2969"/><text fill="#000000" font-family="sans-serif" font-size="14" font-weight="bold" lengthAdjust="spacing" textLength="81.5117" x="34" y="63.9951">repository</text></g><!--cluster service--><g class="cluster" data-entity="service" data-source-line="93" data-uid="ent0007" id="cluster_service"><path d="M32.5,352 L89.9512,352 A3.75,3.75 0 0 1 92.4512,354.5 L99.4512,374.2969 L1237.5,374.2969 A2.5,2.5 0 0 1 1240,376.7969 L1240,587.5 A2.5,2.5 0 0 1 1237.5,590 L32.5,590 A2.5,2.5 0 0 1 30,587.5 L30,354.5 A2.5,2.5 0 0 1 32.5,352" fill="none" style="stroke:#000000;stroke-width:1.5;"/><line style="stroke:#000000;stroke-width:1.5;" x1="30" x2="99.4512" y1="374.2969" y2="374.2969"/><text fill="#000000" font-family="sans-serif" font-size="14" font-weight="bold" lengthAdjust="spacing" textLength="56.4512" x="34" y="366.9951">service</text></g><!--cluster shared--><g class="cluster" data-entity="shared" data-source-line="119" data-uid="ent0013" id="cluster_shared"><path d="M177.5,663 L232.668,663 A3.75,3.75 0 0 1 235.168,665.5 L242.168,685.2969 L1154.5,685.2969 A2.5,2.5 0 0 1 1157,687.7969 L1157,1001.5 A2.5,2.5 0 0 1 1154.5,1004 L177.5,1004 A2.5,2.5 0 0 1 175,1001.5 L175,665.5 A2.5,2.5 0 0 1 177.5,663" fill="none" style="stroke:#000000;stroke-width:1.5;"/><line style="stroke:#000000;stroke-width:1.5;" x1="175" x2="242.168" y1="685.2969" y2="685.2969"/><text fill="#000000" font-family="sans-serif" font-size="14" font-weight="bold" lengthAdjust="spacing" textLength="54.168" x="179" y="677.9951">shared</text></g><!--cluster kernel--><g class="cluster" data-entity="kernel" data-source-line="119" data-uid="ent0014" id="cluster_kernel"><path d="M201.5,706 L252.4707,706 A3.75,3.75 0 0 1 254.9707,708.5 L261.9707,728.2969 L1130.5,728.2969 A2.5,2.5 0 0 1 1133,730.7969 L1133,977.5 A2.5,2.5 0 0 1 1130.5,980 L201.5,980 A2.5,2.5 0 0 1 199,977.5 L199,708.5 A2.5,2.5 0 0 1 201.5,706" fill="none" style="stroke:#000000;stroke-width:1.5;"/><line style="stroke:#000000;stroke-width:1.5;" x1="199" x2="261.9707" y1="728.2969" y2="728.2969"/><text fill="#000000" font-family="sans-serif" font-size="14" font-weight="bold" lengthAdjust="spacing" textLength="49.9707" x="203" y="720.9951">kernel</text></g><!--cluster domain--><g class="cluster" data-entity="domain" data-source-line="119" data-uid="ent0015" id="cluster_domain"><path d="M225.5,749 L284.9404,749 A3.75,3.75 0 0 1 287.4404,751.5 L294.4404,771.2969 L1106.5,771.2969 A2.5,2.5 0 0 1 1109,773.7969 L1109,953.5 A2.5,2.5 0 0 1 1106.5,956 L225.5,956 A2.5,2.5 0 0 1 223,953.5 L223,751.5 A2.5,2.5 0 0 1 225.5,749" fill="none" style="stroke:#000000;stroke-width:1.5;"/><line style="stroke:#000000;stroke-width:1.5;" x1="223" x2="294.4404" y1="771.2969" y2="771.2969"/><text fill="#000000" font-family="sans-serif" font-size="14" font-weight="bold" lengthAdjust="spacing" textLength="58.4404" x="227" y="763.9951">domain</text></g><!--cluster events--><g class="cluster" data-entity="events" data-source-line="118" data-uid="ent0011" id="cluster_events"><path d="M249.5,792 L303.6084,792 A3.75,3.75 0 0 1 306.1084,794.5 L313.1084,814.2969 L1082.5,814.2969 A2.5,2.5 0 0 1 1085,816.7969 L1085,929.5 A2.5,2.5 0 0 1 1082.5,932 L249.5,932 A2.5,2.5 0 0 1 247,929.5 L247,794.5 A2.5,2.5 0 0 1 249.5,792" fill="none" style="stroke:#000000;stroke-width:1.5;"/><line style="stroke:#000000;stroke-width:1.5;" x1="247" x2="313.1084" y1="814.2969" y2="814.2969"/><text fill="#000000" font-family="sans-serif" font-size="14" font-weight="bold" lengthAdjust="spacing" textLength="53.1084" x="251" y="806.9951">events</text></g><!--class UserRepository--><g class="entity" data-entity="UserRepository" data-source-line="69" data-uid="ent0004" id="entity_UserRepository"><rect fill="#F1F1F1" height="154.0469" rx="2.5" ry="2.5" style="stroke:#181818;stroke-width:0.5;" width="250.8682" x="956.5" y="108.5"/><ellipse cx="1024.1929" cy="128.6328" fill="#B4A7E5" rx="11" ry="11" style="stroke:#181818;stroke-width:1;"/><path d="M1020.1147,124.3984 L1020.1147,122.2422 L1027.5054,122.2422 L1027.5054,124.3984 L1025.0366,124.3984 L1025.0366,132.4766 L1027.5054,132.4766 L1027.5054,134.6328 L1020.1147,134.6328 L1020.1147,132.4766 L1022.5835,132.4766 L1022.5835,124.3984 L1020.1147,124.3984 Z " fill="#000000"/><text fill="#000000" font-family="sans-serif" font-size="12" font-style="italic" lengthAdjust="spacing" textLength="75.7559" x="1060.3062" y="124.6387">&#171;repository&#187;</text><text fill="#000000" font-family="sans-serif" font-size="14" font-style="italic" lengthAdjust="spacing" textLength="106.9824" x="1044.6929" y="140.4639">UserRepository</text><line style="stroke:#181818;stroke-width:0.5;" x1="957.5" x2="1206.3682" y1="148.7656" y2="148.7656"/><line style="stroke:#181818;stroke-width:0.5;" x1="957.5" x2="1206.3682" y1="156.7656" y2="156.7656"/><ellipse cx="967.5" cy="170.4141" fill="#84BE84" rx="3" ry="3" style="stroke:#038048;stroke-width:1;"/><text fill="#000000" font-family="sans-serif" font-size="14" lengthAdjust="spacing" textLength="154.1025" x="976.5" y="173.7607">save(user: User): void</text><ellipse cx="967.5" cy="186.7109" fill="#84BE84" rx="3" ry="3" style="stroke:#038048;stroke-width:1;"/><text fill="#000000" font-family="sans-serif" font-size="14" lengthAdjust="spacing" textLength="176.3535" x="976.5" y="190.0576">findById(id: UserId): User</text><ellipse cx="967.5" cy="203.0078" fill="#84BE84" rx="3" ry="3" style="stroke:#038048;stroke-width:1;"/><text fill="#000000" font-family="sans-serif" font-size="14" lengthAdjust="spacing" textLength="172.9424" x="976.5" y="206.3545">update(user: User): User</text><ellipse cx="967.5" cy="219.3047" fill="#84BE84" rx="3" ry="3" style="stroke:#038048;stroke-width:1;"/><text fill="#000000" font-family="sans-serif" font-size="14" lengthAdjust="spacing" textLength="218.6611" x="976.5" y="222.6514">deleteById(id: UserId): Boolean</text><ellipse cx="967.5" cy="235.6016" fill="#84BE84" rx="3" ry="3" style="stroke:#038048;stroke-width:1;"/><text fill="#000000" font-family="sans-serif" font-size="14" lengthAdjust="spacing" textLength="143.8691" x="976.5" y="238.9482">findAll(): List&lt;User&gt;</text><ellipse cx="967.5" cy="251.8984" fill="#84BE84" rx="3" ry="3" style="stroke:#038048;stroke-width:1;"/><text fill="#000000" font-family="sans-serif" font-size="14" lengthAdjust="spacing" textLength="224.8682" x="976.5" y="255.2451">findByEmail(email: String): User</text></g><!--class GroupRepository--><g class="entity" data-entity="GroupRepository" data-source-line="77" data-uid="ent0005" id="entity_GroupRepository"><rect fill="#F1F1F1" height="202.9375" rx="2.5" ry="2.5" style="stroke:#181818;stroke-width:0.5;" width="399.6865" x="521" y="84"/><ellipse cx="657.5923" cy="104.1328" fill="#B4A7E5" rx="11" ry="11" style="stroke:#181818;stroke-width:1;"/><path d="M653.5142,99.8984 L653.5142,97.7422 L660.9048,97.7422 L660.9048,99.8984 L658.436,99.8984 L658.436,107.9766 L660.9048,107.9766 L660.9048,110.1328 L653.5142,110.1328 L653.5142,107.9766 L655.9829,107.9766 L655.9829,99.8984 L653.5142,99.8984 Z " fill="#000000"/><text fill="#000000" font-family="sans-serif" font-size="12" font-style="italic" lengthAdjust="spacing" textLength="75.7559" x="699.2153" y="100.1387">&#171;repository&#187;</text><text fill="#000000" font-family="sans-serif" font-size="14" font-style="italic" lengthAdjust="spacing" textLength="118.002" x="678.0923" y="115.9639">GroupRepository</text><line style="stroke:#181818;stroke-width:0.5;" x1="522" x2="919.6865" y1="124.2656" y2="124.2656"/><line style="stroke:#181818;stroke-width:0.5;" x1="522" x2="919.6865" y1="132.2656" y2="132.2656"/><ellipse cx="532" cy="145.9141" fill="#84BE84" rx="3" ry="3" style="stroke:#038048;stroke-width:1;"/><text fill="#000000" font-family="sans-serif" font-size="14" lengthAdjust="spacing" textLength="175.5537" x="541" y="149.2607">save(group: Group): void</text><ellipse cx="532" cy="162.2109" fill="#84BE84" rx="3" ry="3" style="stroke:#038048;stroke-width:1;"/><text fill="#000000" font-family="sans-serif" font-size="14" lengthAdjust="spacing" textLength="198.3926" x="541" y="165.5576">findById(id: GroupId): Group</text><ellipse cx="532" cy="178.5078" fill="#84BE84" rx="3" ry="3" style="stroke:#038048;stroke-width:1;"/><text fill="#000000" font-family="sans-serif" font-size="14" lengthAdjust="spacing" textLength="205.4131" x="541" y="181.8545">update(group: Group): Group</text><ellipse cx="532" cy="194.8047" fill="#84BE84" rx="3" ry="3" style="stroke:#038048;stroke-width:1;"/><text fill="#000000" font-family="sans-serif" font-size="14" lengthAdjust="spacing" textLength="229.6807" x="541" y="198.1514">deleteById(id: GroupId): Boolean</text><ellipse cx="532" cy="211.1016" fill="#84BE84" rx="3" ry="3" style="stroke:#038048;stroke-width:1;"/><text fill="#000000" font-family="sans-serif" font-size="14" lengthAdjust="spacing" textLength="154.8887" x="541" y="214.4482">findAll(): List&lt;Group&gt;</text><ellipse cx="532" cy="227.3984" fill="#84BE84" rx="3" ry="3" style="stroke:#038048;stroke-width:1;"/><text fill="#000000" font-family="sans-serif" font-size="14" lengthAdjust="spacing" textLength="346.5684" x="541" y="230.7451">addMember(groupId: GroupId, user: User): Group</text><ellipse cx="532" cy="243.6953" fill="#84BE84" rx="3" ry="3" style="stroke:#038048;stroke-width:1;"/><text fill="#000000" font-family="sans-serif" font-size="14" lengthAdjust="spacing" textLength="373.6865" x="541" y="247.042">removeMember(groupId: GroupId, user: User): Group</text><ellipse cx="532" cy="259.9922" fill="#84BE84" rx="3" ry="3" style="stroke:#038048;stroke-width:1;"/><text fill="#000000" font-family="sans-serif" font-size="14" lengthAdjust="spacing" textLength="365.9551" x="541" y="263.3389">findGroupsByUserEmail(email: String): List&lt;Group&gt;</text><ellipse cx="532" cy="276.2891" fill="#84BE84" rx="3" ry="3" style="stroke:#038048;stroke-width:1;"/><text fill="#000000" font-family="sans-serif" font-size="14" lengthAdjust="spacing" textLength="317.4404" x="541" y="279.6357">findGroupsByUserId(id: UserId): List&lt;Group&gt;</text></g><!--class AuthRepository--><g class="entity" data-entity="AuthRepository" data-source-line="88" data-uid="ent0006" id="entity_AuthRepository"><rect fill="#F1F1F1" height="72.5625" rx="2.5" ry="2.5" style="stroke:#181818;stroke-width:0.5;" width="439.5469" x="46" y="149"/><ellipse cx="207.5811" cy="169.1328" fill="#B4A7E5" rx="11" ry="11" style="stroke:#181818;stroke-width:1;"/><path d="M203.5029,164.8984 L203.5029,162.7422 L210.8936,162.7422 L210.8936,164.8984 L208.4248,164.8984 L208.4248,172.9766 L210.8936,172.9766 L210.8936,175.1328 L203.5029,175.1328 L203.5029,172.9766 L205.9717,172.9766 L205.9717,164.8984 L203.5029,164.8984 Z " fill="#000000"/><text fill="#000000" font-family="sans-serif" font-size="12" font-style="italic" lengthAdjust="spacing" textLength="75.7559" x="244.1455" y="165.1387">&#171;repository&#187;</text><text fill="#000000" font-family="sans-serif" font-size="14" font-style="italic" lengthAdjust="spacing" textLength="107.8848" x="228.0811" y="180.9639">AuthRepository</text><line style="stroke:#181818;stroke-width:0.5;" x1="47" x2="484.5469" y1="189.2656" y2="189.2656"/><line style="stroke:#181818;stroke-width:0.5;" x1="47" x2="484.5469" y1="197.2656" y2="197.2656"/><ellipse cx="57" cy="210.9141" fill="#84BE84" rx="3" ry="3" style="stroke:#038048;stroke-width:1;"/><text fill="#000000" font-family="sans-serif" font-size="14" lengthAdjust="spacing" textLength="413.5469" x="66" y="214.2607">checkCredentials(email: String, password: String): Boolean</text></g><!--class UserService--><g class="entity" data-entity="UserService" data-source-line="94" data-uid="ent0008" id="entity_UserService"><rect fill="#F1F1F1" height="137.75" rx="2.5" ry="2.5" style="stroke:#181818;stroke-width:0.5;" width="279.1895" x="944.5" y="411.5"/><ellipse cx="1038.019" cy="431.6328" fill="#B4A7E5" rx="11" ry="11" style="stroke:#181818;stroke-width:1;"/><path d="M1033.9409,427.3984 L1033.9409,425.2422 L1041.3315,425.2422 L1041.3315,427.3984 L1038.8628,427.3984 L1038.8628,435.4766 L1041.3315,435.4766 L1041.3315,437.6328 L1033.9409,437.6328 L1033.9409,435.4766 L1036.4097,435.4766 L1036.4097,427.3984 L1033.9409,427.3984 Z " fill="#000000"/><text fill="#000000" font-family="sans-serif" font-size="12" font-style="italic" lengthAdjust="spacing" textLength="57.7969" x="1071.4463" y="427.6387">&#171;service&#187;</text><text fill="#000000" font-family="sans-serif" font-size="14" font-style="italic" lengthAdjust="spacing" textLength="83.6514" x="1058.519" y="443.4639">UserService</text><line style="stroke:#181818;stroke-width:0.5;" x1="945.5" x2="1222.6895" y1="451.7656" y2="451.7656"/><line style="stroke:#181818;stroke-width:0.5;" x1="945.5" x2="1222.6895" y1="459.7656" y2="459.7656"/><ellipse cx="955.5" cy="473.4141" fill="#84BE84" rx="3" ry="3" style="stroke:#038048;stroke-width:1;"/><text fill="#000000" font-family="sans-serif" font-size="14" lengthAdjust="spacing" textLength="200.2725" x="964.5" y="476.7607">createUser(user: User): User</text><ellipse cx="955.5" cy="489.7109" fill="#84BE84" rx="3" ry="3" style="stroke:#038048;stroke-width:1;"/><text fill="#000000" font-family="sans-serif" font-size="14" lengthAdjust="spacing" textLength="173.7695" x="964.5" y="493.0576">getUser(id: UserId): User</text><ellipse cx="955.5" cy="506.0078" fill="#84BE84" rx="3" ry="3" style="stroke:#038048;stroke-width:1;"/><text fill="#000000" font-family="sans-serif" font-size="14" lengthAdjust="spacing" textLength="204.8525" x="964.5" y="509.3545">updateUser(user: User): User</text><ellipse cx="955.5" cy="522.3047" fill="#84BE84" rx="3" ry="3" style="stroke:#038048;stroke-width:1;"/><text fill="#000000" font-family="sans-serif" font-size="14" lengthAdjust="spacing" textLength="219.666" x="964.5" y="525.6514">deleteUser(id: UserId): Boolean</text><ellipse cx="955.5" cy="538.6016" fill="#84BE84" rx="3" ry="3" style="stroke:#038048;stroke-width:1;"/><text fill="#000000" font-family="sans-serif" font-size="14" lengthAdjust="spacing" textLength="253.1895" x="964.5" y="541.9482">getUserByEmail(email: String): User</text></g><!--class GroupService--><g class="entity" data-entity="GroupService" data-source-line="101" data-uid="ent0009" id="entity_GroupService"><rect fill="#F1F1F1" height="186.6406" rx="2.5" ry="2.5" style="stroke:#181818;stroke-width:0.5;" width="402.3389" x="507" y="387"/><ellipse cx="656.584" cy="407.1328" fill="#B4A7E5" rx="11" ry="11" style="stroke:#181818;stroke-width:1;"/><path d="M652.5059,402.8984 L652.5059,400.7422 L659.8965,400.7422 L659.8965,402.8984 L657.4277,402.8984 L657.4277,410.9766 L659.8965,410.9766 L659.8965,413.1328 L652.5059,413.1328 L652.5059,410.9766 L654.9746,410.9766 L654.9746,402.8984 L652.5059,402.8984 Z " fill="#000000"/><text fill="#000000" font-family="sans-serif" font-size="12" font-style="italic" lengthAdjust="spacing" textLength="57.7969" x="695.521" y="403.1387">&#171;service&#187;</text><text fill="#000000" font-family="sans-serif" font-size="14" font-style="italic" lengthAdjust="spacing" textLength="94.6709" x="677.084" y="418.9639">GroupService</text><line style="stroke:#181818;stroke-width:0.5;" x1="508" x2="908.3389" y1="427.2656" y2="427.2656"/><line style="stroke:#181818;stroke-width:0.5;" x1="508" x2="908.3389" y1="435.2656" y2="435.2656"/><ellipse cx="518" cy="448.9141" fill="#84BE84" rx="3" ry="3" style="stroke:#038048;stroke-width:1;"/><text fill="#000000" font-family="sans-serif" font-size="14" lengthAdjust="spacing" textLength="241.3496" x="527" y="452.2607">createGroup(name: String): Group</text><ellipse cx="518" cy="465.2109" fill="#84BE84" rx="3" ry="3" style="stroke:#038048;stroke-width:1;"/><text fill="#000000" font-family="sans-serif" font-size="14" lengthAdjust="spacing" textLength="206.8281" x="527" y="468.5576">getGroup(id: GroupId): Group</text><ellipse cx="518" cy="481.5078" fill="#84BE84" rx="3" ry="3" style="stroke:#038048;stroke-width:1;"/><text fill="#000000" font-family="sans-serif" font-size="14" lengthAdjust="spacing" textLength="376.3389" x="527" y="484.8545">updateGroup(groupId: GroupId, group: Group): Group</text><ellipse cx="518" cy="497.8047" fill="#84BE84" rx="3" ry="3" style="stroke:#038048;stroke-width:1;"/><text fill="#000000" font-family="sans-serif" font-size="14" lengthAdjust="spacing" textLength="241.7051" x="527" y="501.1514">deleteGroup(id: GroupId): Boolean</text><ellipse cx="518" cy="514.1016" fill="#84BE84" rx="3" ry="3" style="stroke:#038048;stroke-width:1;"/><text fill="#000000" font-family="sans-serif" font-size="14" lengthAdjust="spacing" textLength="346.5684" x="527" y="517.4482">addMember(groupId: GroupId, user: User): Group</text><ellipse cx="518" cy="530.3984" fill="#84BE84" rx="3" ry="3" style="stroke:#038048;stroke-width:1;"/><text fill="#000000" font-family="sans-serif" font-size="14" lengthAdjust="spacing" textLength="373.6865" x="527" y="533.7451">removeMember(groupId: GroupId, user: User): Group</text><ellipse cx="518" cy="546.6953" fill="#84BE84" rx="3" ry="3" style="stroke:#038048;stroke-width:1;"/><text fill="#000000" font-family="sans-serif" font-size="14" lengthAdjust="spacing" textLength="342.5283" x="527" y="550.042">findAllGroupsOfUser(email: String): List&lt;Group&gt;</text><ellipse cx="518" cy="562.9922" fill="#84BE84" rx="3" ry="3" style="stroke:#038048;stroke-width:1;"/><text fill="#000000" font-family="sans-serif" font-size="14" lengthAdjust="spacing" textLength="334.7969" x="527" y="566.3389">findAllGroupsByUserId(id: UserId): List&lt;Group&gt;</text></g><!--class AuthService--><g class="entity" data-entity="AuthService" data-source-line="111" data-uid="ent0010" id="entity_AuthService"><rect fill="#F1F1F1" height="88.8594" rx="2.5" ry="2.5" style="stroke:#181818;stroke-width:0.5;" width="424.6787" x="46.5" y="436"/><ellipse cx="212.3125" cy="456.1328" fill="#B4A7E5" rx="11" ry="11" style="stroke:#181818;stroke-width:1;"/><path d="M208.2344,451.8984 L208.2344,449.7422 L215.625,449.7422 L215.625,451.8984 L213.1563,451.8984 L213.1563,459.9766 L215.625,459.9766 L215.625,462.1328 L208.2344,462.1328 L208.2344,459.9766 L210.7031,459.9766 L210.7031,451.8984 L208.2344,451.8984 Z " fill="#000000"/><text fill="#000000" font-family="sans-serif" font-size="12" font-style="italic" lengthAdjust="spacing" textLength="57.7969" x="246.1909" y="452.1387">&#171;service&#187;</text><text fill="#000000" font-family="sans-serif" font-size="14" font-style="italic" lengthAdjust="spacing" textLength="84.5537" x="232.8125" y="467.9639">AuthService</text><line style="stroke:#181818;stroke-width:0.5;" x1="47.5" x2="470.1787" y1="476.2656" y2="476.2656"/><line style="stroke:#181818;stroke-width:0.5;" x1="47.5" x2="470.1787" y1="484.2656" y2="484.2656"/><ellipse cx="57.5" cy="497.9141" fill="#84BE84" rx="3" ry="3" style="stroke:#038048;stroke-width:1;"/><text fill="#000000" font-family="sans-serif" font-size="14" lengthAdjust="spacing" textLength="398.6787" x="66.5" y="501.2607">authenticate(username: String, password: String): String</text><ellipse cx="57.5" cy="514.2109" fill="#84BE84" rx="3" ry="3" style="stroke:#038048;stroke-width:1;"/><text fill="#000000" font-family="sans-serif" font-size="14" lengthAdjust="spacing" textLength="233.3652" x="66.5" y="517.5576">authorize(token: String): Boolean</text></g><!--class AddedMemberToGroup--><g class="entity" data-entity="AddedMemberToGroup" data-source-line="119" data-uid="ent0012" id="entity_AddedMemberToGroup"><rect fill="#F1F1F1" height="88.8594" rx="2.5" ry="2.5" style="stroke:#181818;stroke-width:0.5;" width="194.4834" x="263" y="827"/><ellipse cx="278" cy="847.1328" fill="#B4A7E5" rx="11" ry="11" style="stroke:#181818;stroke-width:1;"/><path d="M273.9219,842.8984 L273.9219,840.7422 L281.3125,840.7422 L281.3125,842.8984 L278.8438,842.8984 L278.8438,850.9766 L281.3125,850.9766 L281.3125,853.1328 L273.9219,853.1328 L273.9219,850.9766 L276.3906,850.9766 L276.3906,842.8984 L273.9219,842.8984 Z " fill="#000000"/><text fill="#000000" font-family="sans-serif" font-size="12" font-style="italic" lengthAdjust="spacing" textLength="97.7461" x="324.3687" y="843.1387">&#171;domain event&#187;</text><text fill="#000000" font-family="sans-serif" font-size="14" font-style="italic" lengthAdjust="spacing" textLength="162.4834" x="292" y="858.9639">AddedMemberToGroup</text><line style="stroke:#181818;stroke-width:0.5;" x1="264" x2="456.4834" y1="867.2656" y2="867.2656"/><ellipse cx="274" cy="880.9141" fill="none" rx="3" ry="3" style="stroke:#038048;stroke-width:1;"/><text fill="#000000" font-family="sans-serif" font-size="14" lengthAdjust="spacing" textLength="119.0957" x="283" y="884.2607">groupId: GroupId</text><ellipse cx="274" cy="897.2109" fill="none" rx="3" ry="3" style="stroke:#038048;stroke-width:1;"/><text fill="#000000" font-family="sans-serif" font-size="14" lengthAdjust="spacing" textLength="142.5156" x="283" y="900.5576">addedMember: User</text><line style="stroke:#181818;stroke-width:0.5;" x1="264" x2="456.4834" y1="907.8594" y2="907.8594"/></g><!--class GroupCreated--><g class="entity" data-entity="GroupCreated" data-source-line="123" data-uid="ent0016" id="entity_GroupCreated"><rect fill="#F1F1F1" height="88.8594" rx="2.5" ry="2.5" style="stroke:#181818;stroke-width:0.5;" width="145.0957" x="743.5" y="827"/><ellipse cx="765.0039" cy="847.1328" fill="#B4A7E5" rx="11" ry="11" style="stroke:#181818;stroke-width:1;"/><path d="M760.9258,842.8984 L760.9258,840.7422 L768.3164,840.7422 L768.3164,842.8984 L765.8477,842.8984 L765.8477,850.9766 L768.3164,850.9766 L768.3164,853.1328 L760.9258,853.1328 L760.9258,850.9766 L763.3945,850.9766 L763.3945,842.8984 L760.9258,842.8984 Z " fill="#000000"/><text fill="#000000" font-family="sans-serif" font-size="12" font-style="italic" lengthAdjust="spacing" textLength="97.7461" x="780.8975" y="843.1387">&#171;domain event&#187;</text><text fill="#000000" font-family="sans-serif" font-size="14" font-style="italic" lengthAdjust="spacing" textLength="98.6426" x="780.4492" y="858.9639">GroupCreated</text><line style="stroke:#181818;stroke-width:0.5;" x1="744.5" x2="887.5957" y1="867.2656" y2="867.2656"/><ellipse cx="754.5" cy="880.9141" fill="none" rx="3" ry="3" style="stroke:#038048;stroke-width:1;"/><text fill="#000000" font-family="sans-serif" font-size="14" lengthAdjust="spacing" textLength="119.0957" x="763.5" y="884.2607">groupId: GroupId</text><ellipse cx="754.5" cy="897.2109" fill="none" rx="3" ry="3" style="stroke:#038048;stroke-width:1;"/><text fill="#000000" font-family="sans-serif" font-size="14" lengthAdjust="spacing" textLength="112.6016" x="763.5" y="900.5576">createdBy: User</text><line style="stroke:#181818;stroke-width:0.5;" x1="744.5" x2="887.5957" y1="907.8594" y2="907.8594"/></g><!--class GroupDeleted--><g class="entity" data-entity="GroupDeleted" data-source-line="127" data-uid="ent0017" id="entity_GroupDeleted"><rect fill="#F1F1F1" height="72.5625" rx="2.5" ry="2.5" style="stroke:#181818;stroke-width:0.5;" width="145.0957" x="923.5" y="835"/><ellipse cx="945.3761" cy="855.1328" fill="#B4A7E5" rx="11" ry="11" style="stroke:#181818;stroke-width:1;"/><path d="M941.298,850.8984 L941.298,848.7422 L948.6886,848.7422 L948.6886,850.8984 L946.2199,850.8984 L946.2199,858.9766 L948.6886,858.9766 L948.6886,861.1328 L941.298,861.1328 L941.298,858.9766 L943.7667,858.9766 L943.7667,850.8984 L941.298,850.8984 Z " fill="#000000"/><text fill="#000000" font-family="sans-serif" font-size="12" font-style="italic" lengthAdjust="spacing" textLength="97.7461" x="960.9388" y="851.1387">&#171;domain event&#187;</text><text fill="#000000" font-family="sans-serif" font-size="14" font-style="italic" lengthAdjust="spacing" textLength="97.8154" x="960.9042" y="866.9639">GroupDeleted</text><line style="stroke:#181818;stroke-width:0.5;" x1="924.5" x2="1067.5957" y1="875.2656" y2="875.2656"/><ellipse cx="934.5" cy="888.9141" fill="none" rx="3" ry="3" style="stroke:#038048;stroke-width:1;"/><text fill="#000000" font-family="sans-serif" font-size="14" lengthAdjust="spacing" textLength="119.0957" x="943.5" y="892.2607">groupId: GroupId</text><line style="stroke:#181818;stroke-width:0.5;" x1="924.5" x2="1067.5957" y1="899.5625" y2="899.5625"/></g><!--class RemovedMemberToGroup--><g class="entity" data-entity="RemovedMemberToGroup" data-source-line="130" data-uid="ent0018" id="entity_RemovedMemberToGroup"><rect fill="#F1F1F1" height="88.8594" rx="2.5" ry="2.5" style="stroke:#181818;stroke-width:0.5;" width="215.9619" x="492" y="827"/><ellipse cx="507" cy="847.1328" fill="#B4A7E5" rx="11" ry="11" style="stroke:#181818;stroke-width:1;"/><path d="M502.9219,842.8984 L502.9219,840.7422 L510.3125,840.7422 L510.3125,842.8984 L507.8438,842.8984 L507.8438,850.9766 L510.3125,850.9766 L510.3125,853.1328 L502.9219,853.1328 L502.9219,850.9766 L505.3906,850.9766 L505.3906,842.8984 L502.9219,842.8984 Z " fill="#000000"/><text fill="#000000" font-family="sans-serif" font-size="12" font-style="italic" lengthAdjust="spacing" textLength="97.7461" x="564.1079" y="843.1387">&#171;domain event&#187;</text><text fill="#000000" font-family="sans-serif" font-size="14" font-style="italic" lengthAdjust="spacing" textLength="183.9619" x="521" y="858.9639">RemovedMemberToGroup</text><line style="stroke:#181818;stroke-width:0.5;" x1="493" x2="706.9619" y1="867.2656" y2="867.2656"/><ellipse cx="503" cy="880.9141" fill="none" rx="3" ry="3" style="stroke:#038048;stroke-width:1;"/><text fill="#000000" font-family="sans-serif" font-size="14" lengthAdjust="spacing" textLength="119.0957" x="512" y="884.2607">groupId: GroupId</text><ellipse cx="503" cy="897.2109" fill="none" rx="3" ry="3" style="stroke:#038048;stroke-width:1;"/><text fill="#000000" font-family="sans-serif" font-size="14" lengthAdjust="spacing" textLength="161.0205" x="512" y="900.5576">removedMember: User</text><line style="stroke:#181818;stroke-width:0.5;" x1="493" x2="706.9619" y1="907.8594" y2="907.8594"/></g><!--reverse link UserRepository to UserService--><g class="link" data-entity-1="UserRepository" data-entity-2="UserService" data-source-line="136" data-uid="lnk20" id="link_UserRepository_UserService"><path codeLine="136" d="M1082.5605,268.7199 C1082.8705,314.6699 1083.23,366.71 1083.53,411.17" fill="none" id="UserRepository-backto-UserService" style="stroke:#181818;stroke-width:1;stroke-dasharray:7,7;"/><polygon fill="#181818" points="1082.52,262.72,1078.5808,271.7468,1082.5537,267.7199,1086.5806,271.6928,1082.52,262.72" style="stroke:#181818;stroke-width:1;"/><text fill="#000000" font-family="sans-serif" font-size="13" lengthAdjust="spacing" textLength="29.7832" x="1084" y="332.0669">uses</text></g><!--reverse link GroupRepository to GroupService--><g class="link" data-entity-1="GroupRepository" data-entity-2="GroupService" data-source-line="137" data-uid="lnk22" id="link_GroupRepository_GroupService"><path codeLine="137" d="M716.2626,293.324 C714.8226,325.604 713.52,355.18 712.11,386.85" fill="none" id="GroupRepository-backto-GroupService" style="stroke:#181818;stroke-width:1;stroke-dasharray:7,7;"/><polygon fill="#181818" points="716.53,287.33,712.1329,296.1428,716.3072,292.325,720.1249,296.4993,716.53,287.33" style="stroke:#181818;stroke-width:1;"/><text fill="#000000" font-family="sans-serif" font-size="13" lengthAdjust="spacing" textLength="29.7832" x="715" y="332.0669">uses</text></g><!--reverse link AuthRepository to AuthService--><g class="link" data-entity-1="AuthRepository" data-entity-2="AuthService" data-source-line="138" data-uid="lnk24" id="link_AuthRepository_AuthService"><path codeLine="138" d="M265.007,228.1283 C263.727,281.8183 261.44,377.33 260.05,435.54" fill="none" id="AuthRepository-backto-AuthService" style="stroke:#181818;stroke-width:1;stroke-dasharray:7,7;"/><polygon fill="#181818" points="265.15,222.13,260.9366,231.0321,265.0308,227.1286,268.9344,231.2228,265.15,222.13" style="stroke:#181818;stroke-width:1;"/><text fill="#000000" font-family="sans-serif" font-size="13" lengthAdjust="spacing" textLength="29.7832" x="264" y="332.0669">uses</text></g><!--reverse link GroupDeleted to GroupService--><g class="link" data-entity-1="GroupDeleted" data-entity-2="GroupService" data-source-line="139" data-uid="lnk26" id="link_GroupDeleted_GroupService"><path codeLine="139" d="M984.8758,829.0383 C971.8258,784.1283 946.83,711.78 906,655 C885.05,625.87 858.34,598.29 831.35,574.05" fill="none" id="GroupDeleted-backto-GroupService" style="stroke:#181818;stroke-width:1;stroke-dasharray:7,7;"/><polygon fill="#181818" points="986.55,834.8,987.8798,825.0413,985.1548,829.9986,980.1975,827.2736,986.55,834.8" style="stroke:#181818;stroke-width:1;"/><text fill="#000000" font-family="sans-serif" font-size="13" lengthAdjust="spacing" textLength="61.75" x="898" y="643.0669">publishes</text></g><!--reverse link GroupCreated to GroupService--><g class="link" data-entity-1="GroupCreated" data-entity-2="GroupService" data-source-line="140" data-uid="lnk28" id="link_GroupCreated_GroupService"><path codeLine="140" d="M802.2542,820.9789 C785.3442,760.0989 755.91,654.07 733.73,574.18" fill="none" id="GroupCreated-backto-GroupService" style="stroke:#181818;stroke-width:1;stroke-dasharray:7,7;"/><polygon fill="#181818" points="803.86,826.76,805.3054,817.0178,802.5219,821.9424,797.5973,819.1588,803.86,826.76" style="stroke:#181818;stroke-width:1;"/><text fill="#000000" font-family="sans-serif" font-size="13" lengthAdjust="spacing" textLength="61.75" x="753" y="643.0669">publishes</text></g><!--link GroupService to AddedMemberToGroup--><g class="link" data-entity-1="GroupService" data-entity-2="AddedMemberToGroup" data-source-line="141" data-uid="lnk29" id="link_GroupService_AddedMemberToGroup"><path codeLine="141" d="M561.99,574.03 C530.65,597.99 499.37,625.46 474,655 C428.91,707.49 397.1612,775.2783 378.4812,821.4283" fill="none" id="GroupService-to-AddedMemberToGroup" style="stroke:#181818;stroke-width:1;stroke-dasharray:7,7;"/><polygon fill="#181818" points="376.23,826.99,383.3146,820.1483,378.106,822.3553,375.899,817.1467,376.23,826.99" style="stroke:#181818;stroke-width:1;"/><text fill="#000000" font-family="sans-serif" font-size="13" lengthAdjust="spacing" textLength="61.75" x="497" y="643.0669">publishes</text></g><!--link GroupService to RemovedMemberToGroup--><g class="link" data-entity-1="GroupService" data-entity-2="RemovedMemberToGroup" data-source-line="142" data-uid="lnk30" id="link_GroupService_RemovedMemberToGroup"><path codeLine="142" d="M682.27,574.18 C660.09,654.07 630.6558,760.0989 613.7458,820.9789" fill="none" id="GroupService-to-RemovedMemberToGroup" style="stroke:#181818;stroke-width:1;stroke-dasharray:7,7;"/><polygon fill="#181818" points="612.14,826.76,618.4027,819.1588,613.4781,821.9424,610.6946,817.0178,612.14,826.76" style="stroke:#181818;stroke-width:1;"/><text fill="#000000" font-family="sans-serif" font-size="13" lengthAdjust="spacing" textLength="61.75" x="664" y="643.0669">publishes</text></g><!--SRC=[nLRRQkCm47tFL-ZHfSKVO4mWwIvBO9T2s_q0rPea8efb9DabBVttrSMD9SMrNHFOXmHZdJapcZb7SeMB0zu1mbN5Q84LvILwNo1KjUy5L5nInSN9laQ8bWh45XU0_aeGZzroddVOvR958tIB96uWgJKuio4t6Meu9UVbBIt9-hGX2IKEi24txk4CgIk2LSGH00WmK739ikQS0Iw3N2l64htqcqgL6-0ogkJd4LEMWFdFq9CIjDpvwJwYBlmIlAucjs5dq9aB6co4HTWzsAUu5H5FY8cwqL6DjSCYktvWGlx0yGM4IxVfkEvGC8imlO0ZRs1EfAd7lf7ham7qZwAlr3Wo5a8S4qznLQlzb24MUoWEzm88b8fY9iFYxhHjf7pbWdZb-aqtQStFCvYkiA6wWZvtFRLhUTwYmbe4Q2aOt80pTg0iOinS8pHEKfTCiQBQTFDSD6Mx5fYK-0WURQWYNOD3ZVl8uIurEi5UVIdYRlmN0sb3EoSyREsyfjhd73VVGSC3n1fXR5DydkN-57kjunu20Yxe6oIA7w0SzDZ7Od5ss1vhmwO7dH1OIhZkHvb2eqkH5wvR4GBjp9wvtQtUZ0j1DiJRaTLQD1rl2NTKOyA_jz8cirCvQ-ZBOopH3olTEObYkaUhqIkrIlXamHxq697_RPAsmahzup6jgtGPeBhJEus-KZ9Z7_a5QN0A3RB6j_uWhM-DGTRe5lfkhGD2JuFnPwYgNnYL-wkoVwhuk-mZt3sMl7A6NYtxEVu1]--></g></svg>