<svg xmlns="http://www.w3.org/2000/svg" xmlns:xlink="http://www.w3.org/1999/xlink" contentStyleType="text/css" data-diagram-type="DESCRIPTION" height="787px" preserveAspectRatio="none" style="width:474px;height:787px;background:#FFFFFF;" version="1.1" viewBox="0 0 474 787" width="474px" zoomAndPan="magnify"><defs/><g><!--cluster Users sub-system--><g class="cluster" data-entity="Users sub-system" data-source-line="21" data-uid="ent0003" id="cluster_Users sub-system"><rect fill="none" height="337" rx="2.5" ry="2.5" style="stroke:#181818;stroke-width:1;" width="276" x="188.5" y="7"/><text fill="#000000" font-family="sans-serif" font-size="14" font-weight="bold" lengthAdjust="spacing" textLength="140.0068" x="256.4966" y="21.9951">Users sub-system</text></g><!--cluster Group sub-system--><g class="cluster" data-entity="Group sub-system" data-source-line="28" data-uid="ent0008" id="cluster_Group sub-system"><rect fill="none" height="413" rx="2.5" ry="2.5" style="stroke:#181818;stroke-width:1;" width="283" x="185" y="368"/><text fill="#000000" font-family="sans-serif" font-size="14" font-weight="bold" lengthAdjust="spacing" textLength="143.5752" x="254.7124" y="382.9951">Group sub-system</text></g><g class="entity" data-entity="UC1" data-source-line="22" data-uid="ent0004" id="entity_UC1"><ellipse cx="326.4503" cy="65.8901" fill="#F1F1F1" rx="104.9503" ry="23.3901" style="stroke:#181818;stroke-width:0.5;"/><text fill="#000000" font-family="sans-serif" font-size="14" lengthAdjust="spacing" textLength="174.9111" x="238.9948" y="68.7367">Register with the system</text></g><g class="entity" data-entity="UC2" data-source-line="23" data-uid="ent0005" id="entity_UC2"><ellipse cx="326.6034" cy="148.8207" fill="#F1F1F1" rx="109.6034" ry="24.3207" style="stroke:#181818;stroke-width:0.5;"/><text fill="#000000" font-family="sans-serif" font-size="14" lengthAdjust="spacing" textLength="185.0215" x="234.0927" y="151.6674">Log in with my credentials</text></g><g class="entity" data-entity="UC3" data-source-line="24" data-uid="ent0006" id="entity_UC3"><ellipse cx="326.4696" cy="235.7939" fill="#F1F1F1" rx="121.9696" ry="26.7939" style="stroke:#181818;stroke-width:0.5;"/><text fill="#000000" font-family="sans-serif" font-size="14" lengthAdjust="spacing" textLength="211.5518" x="220.6938" y="238.6406">Update my profile information</text></g><g class="entity" data-entity="UC4" data-source-line="25" data-uid="ent0007" id="entity_UC4"><ellipse cx="326.3388" cy="313.1847" fill="#F1F1F1" rx="49.3388" ry="14.6847" style="stroke:#181818;stroke-width:0.5;"/><text fill="#000000" font-family="sans-serif" font-size="14" lengthAdjust="spacing" textLength="52.6299" x="297.0239" y="316.9322">Log out</text></g><g class="entity" data-entity="UC5" data-source-line="29" data-uid="ent0009" id="entity_UC5"><ellipse cx="326.642" cy="423.1284" fill="#F1F1F1" rx="88.642" ry="20.1284" style="stroke:#181818;stroke-width:0.5;"/><text fill="#000000" font-family="sans-serif" font-size="14" lengthAdjust="spacing" textLength="138.6602" x="257.3119" y="425.9751">Create a new group</text></g><g class="entity" data-entity="UC6" data-source-line="30" data-uid="ent0010" id="entity_UC6"><ellipse cx="326.6088" cy="500.9218" fill="#F1F1F1" rx="102.6088" ry="22.9218" style="stroke:#181818;stroke-width:0.5;"/><text fill="#000000" font-family="sans-serif" font-size="14" lengthAdjust="spacing" textLength="169.791" x="241.7133" y="503.7684">Add one user to a group</text></g><g class="entity" data-entity="UC7" data-source-line="31" data-uid="ent0011" id="entity_UC7"><ellipse cx="326.3412" cy="586.9682" fill="#F1F1F1" rx="125.3412" ry="27.4682" style="stroke:#181818;stroke-width:0.5;"/><text fill="#000000" font-family="sans-serif" font-size="14" lengthAdjust="spacing" textLength="218.7158" x="216.9833" y="589.8149">Remove one user from a group</text></g><g class="entity" data-entity="UC8" data-source-line="32" data-uid="ent0012" id="entity_UC8"><ellipse cx="326.3154" cy="666.9631" fill="#F1F1F1" rx="72.8154" ry="16.9631" style="stroke:#181818;stroke-width:0.5;"/><text fill="#000000" font-family="sans-serif" font-size="14" lengthAdjust="spacing" textLength="100.3379" x="273.1465" y="670.7106">Leave a group</text></g><g class="entity" data-entity="UC9" data-source-line="33" data-uid="ent0013" id="entity_UC9"><ellipse cx="326.6554" cy="742.2311" fill="#F1F1F1" rx="101.6554" ry="22.7311" style="stroke:#181818;stroke-width:0.5;"/><text fill="#000000" font-family="sans-serif" font-size="14" lengthAdjust="spacing" textLength="167.6992" x="242.8057" y="745.0777">Update the group name</text></g><!--entity AuthUser--><g class="entity" data-entity="AuthUser" data-source-line="19" data-uid="ent0002" id="entity_AuthUser"><ellipse cx="73.6519" cy="471.5" fill="#F1F1F1" rx="8" ry="8" style="stroke:#181818;stroke-width:0.5;"/><path d="M73.6519,479.5 L73.6519,506.5 M60.6519,487.5 L86.6519,487.5 M73.6519,506.5 L60.6519,521.5 M73.6519,506.5 L86.6519,521.5" fill="none" style="stroke:#181818;stroke-width:0.5;"/><text fill="#000000" font-family="sans-serif" font-size="14" lengthAdjust="spacing" textLength="135.3037" x="6" y="535.9951">Authenticated User</text></g><!--entity User--><g class="entity" data-entity="User" data-source-line="36" data-uid="ent0014" id="entity_User"><ellipse cx="73.4551" cy="78.5" fill="#F1F1F1" rx="8" ry="8" style="stroke:#181818;stroke-width:0.5;"/><path d="M73.4551,86.5 L73.4551,113.5 M60.4551,94.5 L86.4551,94.5 M73.4551,113.5 L60.4551,128.5 M73.4551,113.5 L86.4551,128.5" fill="none" style="stroke:#181818;stroke-width:0.5;"/><text fill="#000000" font-family="sans-serif" font-size="14" lengthAdjust="spacing" textLength="31.9102" x="57.5" y="142.9951">User</text></g><!--link User to UC1--><g class="link" data-entity-1="User" data-entity-2="UC1" data-source-line="36" data-uid="lnk15" id="link_User_UC1"><path d="M89.82,105.44 C119.52,100.47 180.9122,90.1899 236.0322,80.9699" fill="none" id="User-to-UC1" style="stroke:#181818;stroke-width:1;"/><polygon fill="#181818" points="241.95,79.98,232.4134,77.5196,237.0185,80.8049,233.7332,85.41,241.95,79.98" style="stroke:#181818;stroke-width:1;"/></g><!--link User to UC2--><g class="link" data-entity-1="User" data-entity-2="UC2" data-source-line="37" data-uid="lnk16" id="link_User_UC2"><path d="M89.82,110.5 C118.72,115.22 177.3185,124.7927 231.5585,133.6527" fill="none" id="User-to-UC2" style="stroke:#181818;stroke-width:1;"/><polygon fill="#181818" points="237.48,134.62,229.2426,129.2214,232.5454,133.8139,227.9529,137.1168,237.48,134.62" style="stroke:#181818;stroke-width:1;"/></g><!--link AuthUser to UC3--><g class="link" data-entity-1="AuthUser" data-entity-2="UC3" data-source-line="38" data-uid="lnk17" id="link_AuthUser_UC3"><path d="M82.16,462.95 C94.01,413.9 121.46,329.18 177,281 C191.86,268.11 204.645,260.8967 223.445,254.3367" fill="none" id="AuthUser-to-UC3" style="stroke:#181818;stroke-width:1;"/><polygon fill="#181818" points="229.11,252.36,219.2946,251.5484,224.3891,254.0073,221.9303,259.1018,229.11,252.36" style="stroke:#181818;stroke-width:1;"/></g><!--link AuthUser to UC4--><g class="link" data-entity-1="AuthUser" data-entity-2="UC4" data-source-line="39" data-uid="lnk18" id="link_AuthUser_UC4"><path d="M102.6,462.99 C121.66,439.04 148.51,408.68 177,387 C214.02,358.83 257.8521,338.9606 289.2921,326.5006" fill="none" id="AuthUser-to-UC4" style="stroke:#181818;stroke-width:1;"/><polygon fill="#181818" points="294.87,324.29,285.0294,323.8873,290.2217,326.1322,287.9768,331.3245,294.87,324.29" style="stroke:#181818;stroke-width:1;"/></g><!--link AuthUser to UC5--><g class="link" data-entity-1="AuthUser" data-entity-2="UC5" data-source-line="42" data-uid="lnk19" id="link_AuthUser_UC5"><path d="M141.01,472.87 C152.89,468.29 165.24,463.8 177,460 C204.56,451.1 229.7313,444.4521 256.2613,438.1721" fill="none" id="AuthUser-to-UC5" style="stroke:#181818;stroke-width:1;"/><polygon fill="#181818" points="262.1,436.79,252.4206,434.9707,257.2345,437.9417,254.2634,442.7556,262.1,436.79" style="stroke:#181818;stroke-width:1;"/></g><!--link AuthUser to UC6--><g class="link" data-entity-1="AuthUser" data-entity-2="UC6" data-source-line="43" data-uid="lnk20" id="link_AuthUser_UC6"><path d="M141.1,501 C166.38,501 189.77,501 217.56,501" fill="none" id="AuthUser-to-UC6" style="stroke:#181818;stroke-width:1;"/><polygon fill="#181818" points="223.56,501,214.56,497,218.56,501,214.56,505,223.56,501" style="stroke:#181818;stroke-width:1;"/></g><!--link AuthUser to UC7--><g class="link" data-entity-1="AuthUser" data-entity-2="UC7" data-source-line="44" data-uid="lnk21" id="link_AuthUser_UC7"><path d="M141.23,527.84 C153.09,532.38 165.37,536.93 177,541 C200.82,549.33 221.3145,555.9482 245.0145,563.2282" fill="none" id="AuthUser-to-UC7" style="stroke:#181818;stroke-width:1;"/><polygon fill="#181818" points="250.75,564.99,243.3213,558.5236,245.9704,563.5218,240.9722,566.171,250.75,564.99" style="stroke:#181818;stroke-width:1;"/></g><!--link AuthUser to UC8--><g class="link" data-entity-1="AuthUser" data-entity-2="UC8" data-source-line="45" data-uid="lnk22" id="link_AuthUser_UC8"><path d="M94.79,539.28 C112.56,569.05 141.12,609.04 177,632 C201.1,647.42 225.3851,654.986 252.2451,659.826" fill="none" id="AuthUser-to-UC8" style="stroke:#181818;stroke-width:1;"/><polygon fill="#181818" points="258.15,660.89,250.002,655.3574,253.2292,660.0033,248.5833,663.2306,258.15,660.89" style="stroke:#181818;stroke-width:1;"/></g><!--link AuthUser to UC9--><g class="link" data-entity-1="AuthUser" data-entity-2="UC9" data-source-line="46" data-uid="lnk23" id="link_AuthUser_UC9"><path d="M83.8,539.21 C96.88,584.75 125.12,659.94 177,702 C194.22,715.95 210.0984,723.4659 231.5084,729.4059" fill="none" id="AuthUser-to-UC9" style="stroke:#181818;stroke-width:1;"/><polygon fill="#181818" points="237.29,731.01,229.687,724.7495,232.472,729.6733,227.5482,732.4583,237.29,731.01" style="stroke:#181818;stroke-width:1;"/></g><!--SRC=[VP4xRiCm341tdOBmxg7vPoaGPCZIgO0Fe5gqBI2I38fE41IzUyLKGMkrg3OzFLBydB5Zu01a-u71MCAMRV1AwPO3GNMOU43FjjMC1fg8L86E85WkIac0zlqPeH8G8KvlTRn5HbV1ku9qfeYjZabunTwc1uAhvG5IOdY8AMLpV9hRBw47wxzSTuEMq4Wb-XoplvZxpMXIaQAE53gRAhA-2-IqD9H3bh-_21FdnvNwcFLpeZ2D__Lp99GVDNYyGYzsphIUUmTZ87WKG39iFPCtvP1SkE2ttr5mHSIsw0Br1Gjbz-TiPEHt2xnscDMzj2sxWxf-lg_XnsMX7glEO5c2bL8bMfTWKu9j2NObsAjF]--></g></svg>