<svg xmlns="http://www.w3.org/2000/svg" xmlns:xlink="http://www.w3.org/1999/xlink" contentStyleType="text/css" data-diagram-type="SEQUENCE" height="1634px" preserveAspectRatio="none" style="width:1155px;height:1634px;background:#1B1B1B;" version="1.1" viewBox="0 0 1155 1634" width="1155px" zoomAndPan="magnify"><defs/><g><rect fill="#1B1B1B" height="1634" style="stroke:none;stroke-width:1;" width="1155" x="0" y="0"/><g><title>Auth Service</title><rect fill="#000000" height="116.5313" style="stroke:#E7E7E7;stroke-width:1;" width="10" x="477.0151" y="155.5625"/></g><g><title>Auth Service</title><rect fill="#000000" height="87.3984" style="stroke:#E7E7E7;stroke-width:1;" width="10" x="477.0151" y="344.3594"/></g><g><title>Auth Service</title><rect fill="#000000" height="116.5313" style="stroke:#E7E7E7;stroke-width:1;" width="10" x="477.0151" y="504.0234"/></g><g><title>Auth Service</title><rect fill="#000000" height="87.3984" style="stroke:#E7E7E7;stroke-width:1;" width="10" x="477.0151" y="1448.0078"/></g><g><title>Group Handler</title><rect fill="#000000" height="116.5313" style="stroke:#E7E7E7;stroke-width:1;" width="10" x="596.7695" y="692.8203"/></g><g><title>Group Handler</title><rect fill="#000000" height="116.5313" style="stroke:#E7E7E7;stroke-width:1;" width="10" x="596.7695" y="881.6172"/></g><g><title>Group Handler</title><rect fill="#000000" height="116.5313" style="stroke:#E7E7E7;stroke-width:1;" width="10" x="596.7695" y="1070.4141"/></g><g><title>Group Handler</title><rect fill="#000000" height="116.5313" style="stroke:#E7E7E7;stroke-width:1;" width="10" x="596.7695" y="1259.2109"/></g><g><title>User-Group Store</title><rect fill="#000000" height="29.1328" style="stroke:#E7E7E7;stroke-width:1;" width="10" x="974.7139" y="184.6953"/></g><g><title>User-Group Store</title><rect fill="#000000" height="29.1328" style="stroke:#E7E7E7;stroke-width:1;" width="10" x="974.7139" y="373.4922"/></g><g><title>User-Group Store</title><rect fill="#000000" height="29.1328" style="stroke:#E7E7E7;stroke-width:1;" width="10" x="974.7139" y="533.1563"/></g><g><title>User-Group Store</title><rect fill="#000000" height="29.1328" style="stroke:#E7E7E7;stroke-width:1;" width="10" x="974.7139" y="721.9531"/></g><g><title>User-Group Store</title><rect fill="#000000" height="29.1328" style="stroke:#E7E7E7;stroke-width:1;" width="10" x="974.7139" y="910.75"/></g><g><title>User-Group Store</title><rect fill="#000000" height="29.1328" style="stroke:#E7E7E7;stroke-width:1;" width="10" x="974.7139" y="1099.5469"/></g><g><title>User-Group Store</title><rect fill="#000000" height="29.1328" style="stroke:#E7E7E7;stroke-width:1;" width="10" x="974.7139" y="1288.3438"/></g><g><title>User-Group Store</title><rect fill="#000000" height="29.1328" style="stroke:#E7E7E7;stroke-width:1;" width="10" x="974.7139" y="1477.1406"/></g><g><title>Event Bus</title><rect fill="#000000" height="1453.1094" style="stroke:#E7E7E7;stroke-width:1;" width="10" x="1093.7041" y="91.2969"/></g><g><title>User</title><rect fill="#000000" fill-opacity="0.00000" height="1472.1094" width="8" x="19.9551" y="81.2969"/><line style="stroke:#E7E7E7;stroke-width:0.5;stroke-dasharray:5,5;" x1="23" x2="23" y1="81.2969" y2="1553.4063"/></g><g><title>Auth Service</title><rect fill="#000000" fill-opacity="0.00000" height="1472.1094" width="8" x="478.0151" y="81.2969"/><line style="stroke:#E7E7E7;stroke-width:0.5;stroke-dasharray:5,5;" x1="481.5132" x2="481.5132" y1="81.2969" y2="1553.4063"/></g><g><title>Group Handler</title><rect fill="#000000" fill-opacity="0.00000" height="1472.1094" width="8" x="597.7695" y="81.2969"/><line style="stroke:#E7E7E7;stroke-width:0.5;stroke-dasharray:5,5;" x1="601.5171" x2="601.5171" y1="81.2969" y2="1553.4063"/></g><g><title>User-Group Store</title><rect fill="#000000" fill-opacity="0.00000" height="1472.1094" width="8" x="975.7139" y="81.2969"/><line style="stroke:#E7E7E7;stroke-width:0.5;stroke-dasharray:5,5;" x1="978.8877" x2="978.8877" y1="81.2969" y2="1553.4063"/></g><g><title>Event Bus</title><rect fill="#000000" fill-opacity="0.00000" height="1472.1094" width="8" x="1094.7041" y="81.2969"/><line style="stroke:#E7E7E7;stroke-width:0.5;stroke-dasharray:5,5;" x1="1098.54" x2="1098.54" y1="81.2969" y2="1553.4063"/></g><g class="participant participant-head" data-participant="U"><text fill="#FFFFFF" font-family="sans-serif" font-size="14" lengthAdjust="spacing" textLength="31.9102" x="5" y="77.9951">User</text><ellipse cx="23.9551" cy="13.5" fill="#222222" rx="8" ry="8" style="stroke:#E7E7E7;stroke-width:0.5;"/><path d="M23.9551,21.5 L23.9551,48.5 M10.9551,29.5 L36.9551,29.5 M23.9551,48.5 L10.9551,63.5 M23.9551,48.5 L36.9551,63.5" fill="none" style="stroke:#E7E7E7;stroke-width:0.5;"/></g><g class="participant participant-tail" data-participant="U"><text fill="#FFFFFF" font-family="sans-serif" font-size="14" lengthAdjust="spacing" textLength="31.9102" x="5" y="1565.4014">User</text><ellipse cx="23.9551" cy="1577.2031" fill="#222222" rx="8" ry="8" style="stroke:#E7E7E7;stroke-width:0.5;"/><path d="M23.9551,1585.2031 L23.9551,1612.2031 M10.9551,1593.2031 L36.9551,1593.2031 M23.9551,1612.2031 L10.9551,1627.2031 M23.9551,1612.2031 L36.9551,1627.2031" fill="none" style="stroke:#E7E7E7;stroke-width:0.5;"/></g><g class="participant participant-head" data-participant="AS"><rect fill="#222222" height="30.2969" rx="2.5" ry="2.5" style="stroke:#E7E7E7;stroke-width:0.5;" width="103.0039" x="430.5132" y="50"/><text fill="#FFFFFF" font-family="sans-serif" font-size="14" lengthAdjust="spacing" textLength="89.0039" x="437.5132" y="69.9951">Auth Service</text></g><g class="participant participant-tail" data-participant="AS"><rect fill="#222222" height="30.2969" rx="2.5" ry="2.5" style="stroke:#E7E7E7;stroke-width:0.5;" width="103.0039" x="430.5132" y="1552.4063"/><text fill="#FFFFFF" font-family="sans-serif" font-size="14" lengthAdjust="spacing" textLength="89.0039" x="437.5132" y="1572.4014">Auth Service</text></g><g class="participant participant-head" data-participant="GH"><rect fill="#222222" height="30.2969" rx="2.5" ry="2.5" style="stroke:#E7E7E7;stroke-width:0.5;" width="116.5049" x="543.5171" y="50"/><text fill="#FFFFFF" font-family="sans-serif" font-size="14" lengthAdjust="spacing" textLength="102.5049" x="550.5171" y="69.9951">Group Handler</text></g><g class="participant participant-tail" data-participant="GH"><rect fill="#222222" height="30.2969" rx="2.5" ry="2.5" style="stroke:#E7E7E7;stroke-width:0.5;" width="116.5049" x="543.5171" y="1552.4063"/><text fill="#FFFFFF" font-family="sans-serif" font-size="14" lengthAdjust="spacing" textLength="102.5049" x="550.5171" y="1572.4014">Group Handler</text></g><g class="participant participant-head" data-participant="UGS"><text fill="#FFFFFF" font-family="sans-serif" font-size="14" lengthAdjust="spacing" textLength="121.6523" x="915.8877" y="77.9951">User-Group Store</text><path d="M961.7139,29 C961.7139,19 979.7139,19 979.7139,19 C979.7139,19 997.7139,19 997.7139,29 L997.7139,55 C997.7139,65 979.7139,65 979.7139,65 C979.7139,65 961.7139,65 961.7139,55 L961.7139,29" fill="#222222" style="stroke:#E7E7E7;stroke-width:0.5;"/><path d="M961.7139,29 C961.7139,39 979.7139,39 979.7139,39 C979.7139,39 997.7139,39 997.7139,29" fill="none" style="stroke:#E7E7E7;stroke-width:0.5;"/></g><g class="participant participant-tail" data-participant="UGS"><text fill="#FFFFFF" font-family="sans-serif" font-size="14" lengthAdjust="spacing" textLength="121.6523" x="915.8877" y="1565.4014">User-Group Store</text><path d="M961.7139,1578.7031 C961.7139,1568.7031 979.7139,1568.7031 979.7139,1568.7031 C979.7139,1568.7031 997.7139,1568.7031 997.7139,1578.7031 L997.7139,1604.7031 C997.7139,1614.7031 979.7139,1614.7031 979.7139,1614.7031 C979.7139,1614.7031 961.7139,1614.7031 961.7139,1604.7031 L961.7139,1578.7031" fill="#222222" style="stroke:#E7E7E7;stroke-width:0.5;"/><path d="M961.7139,1578.7031 C961.7139,1588.7031 979.7139,1588.7031 979.7139,1588.7031 C979.7139,1588.7031 997.7139,1588.7031 997.7139,1578.7031" fill="none" style="stroke:#E7E7E7;stroke-width:0.5;"/></g><g class="participant participant-head" data-participant="EB"><path d="M1058.54,55 L1138.8682,55 C1143.8682,55 1143.8682,68.1484 1143.8682,68.1484 C1143.8682,68.1484 1143.8682,81.2969 1138.8682,81.2969 L1058.54,81.2969 C1053.54,81.2969 1053.54,68.1484 1053.54,68.1484 C1053.54,68.1484 1053.54,55 1058.54,55" fill="#222222" style="stroke:#E7E7E7;stroke-width:0.5;"/><path d="M1138.8682,55 C1133.8682,55 1133.8682,68.1484 1133.8682,68.1484 C1133.8682,81.2969 1138.8682,81.2969 1138.8682,81.2969" fill="none" style="stroke:#E7E7E7;stroke-width:0.5;"/><text fill="#FFFFFF" font-family="sans-serif" font-size="14" lengthAdjust="spacing" textLength="70.3281" x="1058.54" y="72.9951">Event Bus</text></g><g class="participant participant-tail" data-participant="EB"><path d="M1058.54,1552.4063 L1138.8682,1552.4063 C1143.8682,1552.4063 1143.8682,1565.5547 1143.8682,1565.5547 C1143.8682,1565.5547 1143.8682,1578.7031 1138.8682,1578.7031 L1058.54,1578.7031 C1053.54,1578.7031 1053.54,1565.5547 1053.54,1565.5547 C1053.54,1565.5547 1053.54,1552.4063 1058.54,1552.4063" fill="#222222" style="stroke:#E7E7E7;stroke-width:0.5;"/><path d="M1138.8682,1552.4063 C1133.8682,1552.4063 1133.8682,1565.5547 1133.8682,1565.5547 C1133.8682,1578.7031 1138.8682,1578.7031 1138.8682,1578.7031" fill="none" style="stroke:#E7E7E7;stroke-width:0.5;"/><text fill="#FFFFFF" font-family="sans-serif" font-size="14" lengthAdjust="spacing" textLength="70.3281" x="1058.54" y="1570.4014">Event Bus</text></g><g><title>Auth Service</title><rect fill="#000000" height="116.5313" style="stroke:#E7E7E7;stroke-width:1;" width="10" x="477.0151" y="155.5625"/></g><g><title>Auth Service</title><rect fill="#000000" height="87.3984" style="stroke:#E7E7E7;stroke-width:1;" width="10" x="477.0151" y="344.3594"/></g><g><title>Auth Service</title><rect fill="#000000" height="116.5313" style="stroke:#E7E7E7;stroke-width:1;" width="10" x="477.0151" y="504.0234"/></g><g><title>Auth Service</title><rect fill="#000000" height="87.3984" style="stroke:#E7E7E7;stroke-width:1;" width="10" x="477.0151" y="1448.0078"/></g><g><title>Group Handler</title><rect fill="#000000" height="116.5313" style="stroke:#E7E7E7;stroke-width:1;" width="10" x="596.7695" y="692.8203"/></g><g><title>Group Handler</title><rect fill="#000000" height="116.5313" style="stroke:#E7E7E7;stroke-width:1;" width="10" x="596.7695" y="881.6172"/></g><g><title>Group Handler</title><rect fill="#000000" height="116.5313" style="stroke:#E7E7E7;stroke-width:1;" width="10" x="596.7695" y="1070.4141"/></g><g><title>Group Handler</title><rect fill="#000000" height="116.5313" style="stroke:#E7E7E7;stroke-width:1;" width="10" x="596.7695" y="1259.2109"/></g><g><title>User-Group Store</title><rect fill="#000000" height="29.1328" style="stroke:#E7E7E7;stroke-width:1;" width="10" x="974.7139" y="184.6953"/></g><g><title>User-Group Store</title><rect fill="#000000" height="29.1328" style="stroke:#E7E7E7;stroke-width:1;" width="10" x="974.7139" y="373.4922"/></g><g><title>User-Group Store</title><rect fill="#000000" height="29.1328" style="stroke:#E7E7E7;stroke-width:1;" width="10" x="974.7139" y="533.1563"/></g><g><title>User-Group Store</title><rect fill="#000000" height="29.1328" style="stroke:#E7E7E7;stroke-width:1;" width="10" x="974.7139" y="721.9531"/></g><g><title>User-Group Store</title><rect fill="#000000" height="29.1328" style="stroke:#E7E7E7;stroke-width:1;" width="10" x="974.7139" y="910.75"/></g><g><title>User-Group Store</title><rect fill="#000000" height="29.1328" style="stroke:#E7E7E7;stroke-width:1;" width="10" x="974.7139" y="1099.5469"/></g><g><title>User-Group Store</title><rect fill="#000000" height="29.1328" style="stroke:#E7E7E7;stroke-width:1;" width="10" x="974.7139" y="1288.3438"/></g><g><title>User-Group Store</title><rect fill="#000000" height="29.1328" style="stroke:#E7E7E7;stroke-width:1;" width="10" x="974.7139" y="1477.1406"/></g><g><title>Event Bus</title><rect fill="#000000" height="1453.1094" style="stroke:#E7E7E7;stroke-width:1;" width="10" x="1093.7041" y="91.2969"/></g><rect fill="#111111" height="3" style="stroke:#111111;stroke-width:1;" width="1148.8682" x="0" y="111.8633"/><line style="stroke:#FFFFFF;stroke-width:1;" x1="0" x2="1148.8682" y1="111.8633" y2="111.8633"/><line style="stroke:#FFFFFF;stroke-width:1;" x1="0" x2="1148.8682" y1="114.8633" y2="114.8633"/><rect fill="#111111" height="23.1328" style="stroke:#FFFFFF;stroke-width:2;" width="147.1548" x="500.8567" y="101.2969"/><text fill="#FFFFFF" font-family="sans-serif" font-size="13" font-weight="bold" lengthAdjust="spacing" textLength="128.6289" x="506.8567" y="117.3638">User Registration</text><g class="message" data-participant-1="U" data-participant-2="AS"><polygon fill="#E7E7E7" points="465.0151,151.5625,475.0151,155.5625,465.0151,159.5625,469.0151,155.5625" style="stroke:#E7E7E7;stroke-width:1;"/><line style="stroke:#E7E7E7;stroke-width:1;" x1="23.9551" x2="471.0151" y1="155.5625" y2="155.5625"/><text fill="#FFFFFF" font-family="sans-serif" font-size="13" font-weight="bold" lengthAdjust="spacing" textLength="37.0132" x="30.9551" y="150.4966">1.0.0</text><text fill="#FFFFFF" font-family="sans-serif" font-size="13" lengthAdjust="spacing" textLength="196.2568" x="71.9683" y="150.4966">registerUser(email, password)</text></g><g class="message" data-participant-1="AS" data-participant-2="UGS"><polygon fill="#E7E7E7" points="962.7139,180.6953,972.7139,184.6953,962.7139,188.6953,966.7139,184.6953" style="stroke:#E7E7E7;stroke-width:1;"/><line style="stroke:#E7E7E7;stroke-width:1;" x1="487.0151" x2="968.7139" y1="184.6953" y2="184.6953"/><text fill="#FFFFFF" font-family="sans-serif" font-size="13" font-weight="bold" lengthAdjust="spacing" textLength="37.0132" x="494.0151" y="179.6294">1.0.1</text><text fill="#FFFFFF" font-family="sans-serif" font-size="13" lengthAdjust="spacing" textLength="189.687" x="535.0283" y="179.6294">persistUser(email, password)</text></g><g class="message" data-participant-1="UGS" data-participant-2="AS"><polygon fill="#E7E7E7" points="498.0151,209.8281,488.0151,213.8281,498.0151,217.8281,494.0151,213.8281" style="stroke:#E7E7E7;stroke-width:1;"/><line style="stroke:#E7E7E7;stroke-width:1;stroke-dasharray:2,2;" x1="492.0151" x2="978.7139" y1="213.8281" y2="213.8281"/><text fill="#FFFFFF" font-family="sans-serif" font-size="13" font-weight="bold" lengthAdjust="spacing" textLength="37.0132" x="504.0151" y="208.7622">1.0.2</text><text fill="#FFFFFF" font-family="sans-serif" font-size="13" lengthAdjust="spacing" textLength="74.6992" x="545.0283" y="208.7622">UserDetails</text></g><g class="message" data-participant-1="AS" data-participant-2="EB"><polygon fill="#E7E7E7" points="1081.7041,238.9609,1091.7041,242.9609,1081.7041,246.9609,1085.7041,242.9609" style="stroke:#E7E7E7;stroke-width:1;"/><line style="stroke:#E7E7E7;stroke-width:1;" x1="487.0151" x2="1087.7041" y1="242.9609" y2="242.9609"/><text fill="#FFFFFF" font-family="sans-serif" font-size="13" font-weight="bold" lengthAdjust="spacing" textLength="37.0132" x="494.0151" y="237.895">1.0.3</text><text fill="#FFFFFF" font-family="sans-serif" font-size="13" lengthAdjust="spacing" textLength="179.645" x="535.0283" y="237.895">publish(UserCreated event)</text></g><g class="message" data-participant-1="AS" data-participant-2="U"><polygon fill="#E7E7E7" points="34.9551,268.0938,24.9551,272.0938,34.9551,276.0938,30.9551,272.0938" style="stroke:#E7E7E7;stroke-width:1;"/><line style="stroke:#E7E7E7;stroke-width:1;stroke-dasharray:2,2;" x1="28.9551" x2="481.0151" y1="272.0938" y2="272.0938"/><text fill="#FFFFFF" font-family="sans-serif" font-size="13" font-weight="bold" lengthAdjust="spacing" textLength="37.0132" x="40.9551" y="267.0278">1.0.4</text><text fill="#FFFFFF" font-family="sans-serif" font-size="13" lengthAdjust="spacing" textLength="212.4624" x="81.9683" y="267.0278">registrationSuccess(UserDetails)</text></g><rect fill="#111111" height="3" style="stroke:#111111;stroke-width:1;" width="1148.8682" x="0" y="300.6602"/><line style="stroke:#FFFFFF;stroke-width:1;" x1="0" x2="1148.8682" y1="300.6602" y2="300.6602"/><line style="stroke:#FFFFFF;stroke-width:1;" x1="0" x2="1148.8682" y1="303.6602" y2="303.6602"/><rect fill="#111111" height="23.1328" style="stroke:#FFFFFF;stroke-width:2;" width="96.8052" x="526.0315" y="290.0938"/><text fill="#FFFFFF" font-family="sans-serif" font-size="13" font-weight="bold" lengthAdjust="spacing" textLength="78.2793" x="532.0315" y="306.1606">User Login</text><g class="message" data-participant-1="U" data-participant-2="AS"><polygon fill="#E7E7E7" points="465.0151,340.3594,475.0151,344.3594,465.0151,348.3594,469.0151,344.3594" style="stroke:#E7E7E7;stroke-width:1;"/><line style="stroke:#E7E7E7;stroke-width:1;" x1="23.9551" x2="471.0151" y1="344.3594" y2="344.3594"/><text fill="#FFFFFF" font-family="sans-serif" font-size="13" font-weight="bold" lengthAdjust="spacing" textLength="37.0132" x="30.9551" y="339.2935">1.1.1</text><text fill="#FFFFFF" font-family="sans-serif" font-size="13" lengthAdjust="spacing" textLength="147.875" x="71.9683" y="339.2935">login(email, password)</text></g><g class="message" data-participant-1="AS" data-participant-2="UGS"><polygon fill="#E7E7E7" points="962.7139,369.4922,972.7139,373.4922,962.7139,377.4922,966.7139,373.4922" style="stroke:#E7E7E7;stroke-width:1;"/><line style="stroke:#E7E7E7;stroke-width:1;" x1="487.0151" x2="968.7139" y1="373.4922" y2="373.4922"/><text fill="#FFFFFF" font-family="sans-serif" font-size="13" font-weight="bold" lengthAdjust="spacing" textLength="37.0132" x="494.0151" y="368.4263">1.1.2</text><text fill="#FFFFFF" font-family="sans-serif" font-size="13" lengthAdjust="spacing" textLength="242.3726" x="535.0283" y="368.4263">validateCredentials(email, password)</text></g><g class="message" data-participant-1="UGS" data-participant-2="AS"><polygon fill="#E7E7E7" points="498.0151,398.625,488.0151,402.625,498.0151,406.625,494.0151,402.625" style="stroke:#E7E7E7;stroke-width:1;"/><line style="stroke:#E7E7E7;stroke-width:1;stroke-dasharray:2,2;" x1="492.0151" x2="978.7139" y1="402.625" y2="402.625"/><text fill="#FFFFFF" font-family="sans-serif" font-size="13" font-weight="bold" lengthAdjust="spacing" textLength="37.0132" x="504.0151" y="397.5591">1.1.3</text><text fill="#FFFFFF" font-family="sans-serif" font-size="13" lengthAdjust="spacing" textLength="184.9072" x="545.0283" y="397.5591">UserSession (UserID, Token)</text></g><g class="message" data-participant-1="AS" data-participant-2="U"><polygon fill="#E7E7E7" points="34.9551,427.7578,24.9551,431.7578,34.9551,435.7578,30.9551,431.7578" style="stroke:#E7E7E7;stroke-width:1;"/><line style="stroke:#E7E7E7;stroke-width:1;stroke-dasharray:2,2;" x1="28.9551" x2="481.0151" y1="431.7578" y2="431.7578"/><text fill="#FFFFFF" font-family="sans-serif" font-size="13" font-weight="bold" lengthAdjust="spacing" textLength="37.0132" x="40.9551" y="426.6919">1.1.4</text><text fill="#FFFFFF" font-family="sans-serif" font-size="13" lengthAdjust="spacing" textLength="173.3735" x="81.9683" y="426.6919">loginSuccess(UserSession)</text></g><rect fill="#111111" height="3" style="stroke:#111111;stroke-width:1;" width="1148.8682" x="0" y="460.3242"/><line style="stroke:#FFFFFF;stroke-width:1;" x1="0" x2="1148.8682" y1="460.3242" y2="460.3242"/><line style="stroke:#FFFFFF;stroke-width:1;" x1="0" x2="1148.8682" y1="463.3242" y2="463.3242"/><rect fill="#111111" height="23.1328" style="stroke:#FFFFFF;stroke-width:2;" width="147.6499" x="500.6091" y="449.7578"/><text fill="#FFFFFF" font-family="sans-serif" font-size="13" font-weight="bold" lengthAdjust="spacing" textLength="129.124" x="506.6091" y="465.8247">User Modification</text><g class="message" data-participant-1="U" data-participant-2="AS"><polygon fill="#E7E7E7" points="465.0151,500.0234,475.0151,504.0234,465.0151,508.0234,469.0151,504.0234" style="stroke:#E7E7E7;stroke-width:1;"/><line style="stroke:#E7E7E7;stroke-width:1;" x1="23.9551" x2="471.0151" y1="504.0234" y2="504.0234"/><text fill="#FFFFFF" font-family="sans-serif" font-size="13" font-weight="bold" lengthAdjust="spacing" textLength="37.0132" x="30.9551" y="498.9575">1.2.1</text><text fill="#FFFFFF" font-family="sans-serif" font-size="13" lengthAdjust="spacing" textLength="393.0469" x="71.9683" y="498.9575">updateUser(UserID, newName, newSurname, newPassword)</text></g><g class="message" data-participant-1="AS" data-participant-2="UGS"><polygon fill="#E7E7E7" points="962.7139,529.1563,972.7139,533.1563,962.7139,537.1563,966.7139,533.1563" style="stroke:#E7E7E7;stroke-width:1;"/><line style="stroke:#E7E7E7;stroke-width:1;" x1="487.0151" x2="968.7139" y1="533.1563" y2="533.1563"/><text fill="#FFFFFF" font-family="sans-serif" font-size="13" font-weight="bold" lengthAdjust="spacing" textLength="37.0132" x="494.0151" y="528.0903">1.2.2</text><text fill="#FFFFFF" font-family="sans-serif" font-size="13" lengthAdjust="spacing" textLength="393.0469" x="535.0283" y="528.0903">updateUser(UserID, newName, newSurname, newPassword)</text></g><g class="message" data-participant-1="UGS" data-participant-2="AS"><polygon fill="#E7E7E7" points="498.0151,558.2891,488.0151,562.2891,498.0151,566.2891,494.0151,562.2891" style="stroke:#E7E7E7;stroke-width:1;"/><line style="stroke:#E7E7E7;stroke-width:1;stroke-dasharray:2,2;" x1="492.0151" x2="978.7139" y1="562.2891" y2="562.2891"/><text fill="#FFFFFF" font-family="sans-serif" font-size="13" font-weight="bold" lengthAdjust="spacing" textLength="37.0132" x="504.0151" y="557.2231">1.2.3</text><text fill="#FFFFFF" font-family="sans-serif" font-size="13" lengthAdjust="spacing" textLength="130.0317" x="545.0283" y="557.2231">UpdatedUserDetails</text></g><g class="message" data-participant-1="AS" data-participant-2="EB"><polygon fill="#E7E7E7" points="1081.7041,587.4219,1091.7041,591.4219,1081.7041,595.4219,1085.7041,591.4219" style="stroke:#E7E7E7;stroke-width:1;"/><line style="stroke:#E7E7E7;stroke-width:1;" x1="487.0151" x2="1087.7041" y1="591.4219" y2="591.4219"/><text fill="#FFFFFF" font-family="sans-serif" font-size="13" font-weight="bold" lengthAdjust="spacing" textLength="37.0132" x="494.0151" y="586.356">1.2.4</text><text fill="#FFFFFF" font-family="sans-serif" font-size="13" lengthAdjust="spacing" textLength="183.2441" x="535.0283" y="586.356">publish(UserUpdated event)</text></g><g class="message" data-participant-1="AS" data-participant-2="U"><polygon fill="#E7E7E7" points="34.9551,616.5547,24.9551,620.5547,34.9551,624.5547,30.9551,620.5547" style="stroke:#E7E7E7;stroke-width:1;"/><line style="stroke:#E7E7E7;stroke-width:1;stroke-dasharray:2,2;" x1="28.9551" x2="481.0151" y1="620.5547" y2="620.5547"/><text fill="#FFFFFF" font-family="sans-serif" font-size="13" font-weight="bold" lengthAdjust="spacing" textLength="37.0132" x="40.9551" y="615.4888">1.2.5</text><text fill="#FFFFFF" font-family="sans-serif" font-size="13" lengthAdjust="spacing" textLength="223.8628" x="81.9683" y="615.4888">userUpdated(UpdatedUserDetails)</text></g><rect fill="#111111" height="3" style="stroke:#111111;stroke-width:1;" width="1148.8682" x="0" y="649.1211"/><line style="stroke:#FFFFFF;stroke-width:1;" x1="0" x2="1148.8682" y1="649.1211" y2="649.1211"/><line style="stroke:#FFFFFF;stroke-width:1;" x1="0" x2="1148.8682" y1="652.1211" y2="652.1211"/><rect fill="#111111" height="23.1328" style="stroke:#FFFFFF;stroke-width:2;" width="130.0225" x="509.4229" y="638.5547"/><text fill="#FFFFFF" font-family="sans-serif" font-size="13" font-weight="bold" lengthAdjust="spacing" textLength="111.4966" x="515.4229" y="654.6216">Group Creation</text><g class="message" data-participant-1="U" data-participant-2="GH"><polygon fill="#E7E7E7" points="584.7695,688.8203,594.7695,692.8203,584.7695,696.8203,588.7695,692.8203" style="stroke:#E7E7E7;stroke-width:1;"/><line style="stroke:#E7E7E7;stroke-width:1;" x1="23.9551" x2="590.7695" y1="692.8203" y2="692.8203"/><text fill="#FFFFFF" font-family="sans-serif" font-size="13" font-weight="bold" lengthAdjust="spacing" textLength="37.0132" x="30.9551" y="687.7544">2.1.1</text><text fill="#FFFFFF" font-family="sans-serif" font-size="13" lengthAdjust="spacing" textLength="167.9526" x="71.9683" y="687.7544">createGroup(groupName)</text></g><g class="message" data-participant-1="GH" data-participant-2="UGS"><polygon fill="#E7E7E7" points="962.7139,717.9531,972.7139,721.9531,962.7139,725.9531,966.7139,721.9531" style="stroke:#E7E7E7;stroke-width:1;"/><line style="stroke:#E7E7E7;stroke-width:1;" x1="606.7695" x2="968.7139" y1="721.9531" y2="721.9531"/><text fill="#FFFFFF" font-family="sans-serif" font-size="13" font-weight="bold" lengthAdjust="spacing" textLength="37.0132" x="613.7695" y="716.8872">2.1.2</text><text fill="#FFFFFF" font-family="sans-serif" font-size="13" lengthAdjust="spacing" textLength="279.7349" x="654.7827" y="716.8872">persistGroup(groupName, creator=UserID)</text></g><g class="message" data-participant-1="UGS" data-participant-2="GH"><polygon fill="#E7E7E7" points="617.7695,747.0859,607.7695,751.0859,617.7695,755.0859,613.7695,751.0859" style="stroke:#E7E7E7;stroke-width:1;"/><line style="stroke:#E7E7E7;stroke-width:1;stroke-dasharray:2,2;" x1="611.7695" x2="978.7139" y1="751.0859" y2="751.0859"/><text fill="#FFFFFF" font-family="sans-serif" font-size="13" font-weight="bold" lengthAdjust="spacing" textLength="37.0132" x="623.7695" y="746.02">2.1.3</text><text fill="#FFFFFF" font-family="sans-serif" font-size="13" lengthAdjust="spacing" textLength="237.5737" x="664.7827" y="746.02">GroupDetails (GroupID, groupName)</text></g><g class="message" data-participant-1="GH" data-participant-2="EB"><polygon fill="#E7E7E7" points="1081.7041,776.2188,1091.7041,780.2188,1081.7041,784.2188,1085.7041,780.2188" style="stroke:#E7E7E7;stroke-width:1;"/><line style="stroke:#E7E7E7;stroke-width:1;" x1="606.7695" x2="1087.7041" y1="780.2188" y2="780.2188"/><text fill="#FFFFFF" font-family="sans-serif" font-size="13" font-weight="bold" lengthAdjust="spacing" textLength="37.0132" x="613.7695" y="775.1528">2.1.4</text><text fill="#FFFFFF" font-family="sans-serif" font-size="13" lengthAdjust="spacing" textLength="189.8774" x="654.7827" y="775.1528">publish(GroupCreated event)</text></g><g class="message" data-participant-1="GH" data-participant-2="U"><polygon fill="#E7E7E7" points="34.9551,805.3516,24.9551,809.3516,34.9551,813.3516,30.9551,809.3516" style="stroke:#E7E7E7;stroke-width:1;"/><line style="stroke:#E7E7E7;stroke-width:1;stroke-dasharray:2,2;" x1="28.9551" x2="600.7695" y1="809.3516" y2="809.3516"/><text fill="#FFFFFF" font-family="sans-serif" font-size="13" font-weight="bold" lengthAdjust="spacing" textLength="37.0132" x="40.9551" y="804.2856">2.1.5</text><text fill="#FFFFFF" font-family="sans-serif" font-size="13" lengthAdjust="spacing" textLength="184.8501" x="81.9683" y="804.2856">groupCreated(GroupDetails)</text></g><rect fill="#111111" height="3" style="stroke:#111111;stroke-width:1;" width="1148.8682" x="0" y="837.918"/><line style="stroke:#FFFFFF;stroke-width:1;" x1="0" x2="1148.8682" y1="837.918" y2="837.918"/><line style="stroke:#FFFFFF;stroke-width:1;" x1="0" x2="1148.8682" y1="840.918" y2="840.918"/><rect fill="#111111" height="23.1328" style="stroke:#FFFFFF;stroke-width:2;" width="120.5962" x="514.136" y="827.3516"/><text fill="#FFFFFF" font-family="sans-serif" font-size="13" font-weight="bold" lengthAdjust="spacing" textLength="102.0703" x="520.136" y="843.4185">Group Update</text><g class="message" data-participant-1="U" data-participant-2="GH"><polygon fill="#E7E7E7" points="584.7695,877.6172,594.7695,881.6172,584.7695,885.6172,588.7695,881.6172" style="stroke:#E7E7E7;stroke-width:1;"/><line style="stroke:#E7E7E7;stroke-width:1;" x1="23.9551" x2="590.7695" y1="881.6172" y2="881.6172"/><text fill="#FFFFFF" font-family="sans-serif" font-size="13" font-weight="bold" lengthAdjust="spacing" textLength="37.0132" x="30.9551" y="876.5513">2.2.1</text><text fill="#FFFFFF" font-family="sans-serif" font-size="13" lengthAdjust="spacing" textLength="262.8691" x="71.9683" y="876.5513">updateGroup(GroupID, newGroupName)</text></g><g class="message" data-participant-1="GH" data-participant-2="UGS"><polygon fill="#E7E7E7" points="962.7139,906.75,972.7139,910.75,962.7139,914.75,966.7139,910.75" style="stroke:#E7E7E7;stroke-width:1;"/><line style="stroke:#E7E7E7;stroke-width:1;" x1="606.7695" x2="968.7139" y1="910.75" y2="910.75"/><text fill="#FFFFFF" font-family="sans-serif" font-size="13" font-weight="bold" lengthAdjust="spacing" textLength="37.0132" x="613.7695" y="905.6841">2.2.2</text><text fill="#FFFFFF" font-family="sans-serif" font-size="13" lengthAdjust="spacing" textLength="262.8691" x="654.7827" y="905.6841">updateGroup(GroupID, newGroupName)</text></g><g class="message" data-participant-1="UGS" data-participant-2="GH"><polygon fill="#E7E7E7" points="617.7695,935.8828,607.7695,939.8828,617.7695,943.8828,613.7695,939.8828" style="stroke:#E7E7E7;stroke-width:1;"/><line style="stroke:#E7E7E7;stroke-width:1;stroke-dasharray:2,2;" x1="611.7695" x2="978.7139" y1="939.8828" y2="939.8828"/><text fill="#FFFFFF" font-family="sans-serif" font-size="13" font-weight="bold" lengthAdjust="spacing" textLength="37.0132" x="623.7695" y="934.8169">2.2.3</text><text fill="#FFFFFF" font-family="sans-serif" font-size="13" lengthAdjust="spacing" textLength="140.2642" x="664.7827" y="934.8169">UpdatedGroupDetails</text></g><g class="message" data-participant-1="GH" data-participant-2="EB"><polygon fill="#E7E7E7" points="1081.7041,965.0156,1091.7041,969.0156,1081.7041,973.0156,1085.7041,969.0156" style="stroke:#E7E7E7;stroke-width:1;"/><line style="stroke:#E7E7E7;stroke-width:1;" x1="606.7695" x2="1087.7041" y1="969.0156" y2="969.0156"/><text fill="#FFFFFF" font-family="sans-serif" font-size="13" font-weight="bold" lengthAdjust="spacing" textLength="37.0132" x="613.7695" y="963.9497">2.2.4</text><text fill="#FFFFFF" font-family="sans-serif" font-size="13" lengthAdjust="spacing" textLength="193.4766" x="654.7827" y="963.9497">publish(GroupUpdated event)</text></g><g class="message" data-participant-1="GH" data-participant-2="U"><polygon fill="#E7E7E7" points="34.9551,994.1484,24.9551,998.1484,34.9551,1002.1484,30.9551,998.1484" style="stroke:#E7E7E7;stroke-width:1;"/><line style="stroke:#E7E7E7;stroke-width:1;stroke-dasharray:2,2;" x1="28.9551" x2="600.7695" y1="998.1484" y2="998.1484"/><text fill="#FFFFFF" font-family="sans-serif" font-size="13" font-weight="bold" lengthAdjust="spacing" textLength="37.0132" x="40.9551" y="993.0825">2.2.5</text><text fill="#FFFFFF" font-family="sans-serif" font-size="13" lengthAdjust="spacing" textLength="243.7817" x="81.9683" y="993.0825">groupUpdated(UpdatedGroupDetails)</text></g><rect fill="#111111" height="3" style="stroke:#111111;stroke-width:1;" width="1148.8682" x="0" y="1026.7148"/><line style="stroke:#FFFFFF;stroke-width:1;" x1="0" x2="1148.8682" y1="1026.7148" y2="1026.7148"/><line style="stroke:#FFFFFF;stroke-width:1;" x1="0" x2="1148.8682" y1="1029.7148" y2="1029.7148"/><rect fill="#111111" height="23.1328" style="stroke:#FFFFFF;stroke-width:2;" width="133.1519" x="507.8582" y="1016.1484"/><text fill="#FFFFFF" font-family="sans-serif" font-size="13" font-weight="bold" lengthAdjust="spacing" textLength="114.626" x="513.8582" y="1032.2153">User Join Group</text><g class="message" data-participant-1="U" data-participant-2="GH"><polygon fill="#E7E7E7" points="584.7695,1066.4141,594.7695,1070.4141,584.7695,1074.4141,588.7695,1070.4141" style="stroke:#E7E7E7;stroke-width:1;"/><line style="stroke:#E7E7E7;stroke-width:1;" x1="23.9551" x2="590.7695" y1="1070.4141" y2="1070.4141"/><text fill="#FFFFFF" font-family="sans-serif" font-size="13" font-weight="bold" lengthAdjust="spacing" textLength="37.0132" x="30.9551" y="1065.3481">3.1.1</text><text fill="#FFFFFF" font-family="sans-serif" font-size="13" lengthAdjust="spacing" textLength="127.1309" x="71.9683" y="1065.3481">joinGroup(GroupID)</text></g><g class="message" data-participant-1="GH" data-participant-2="UGS"><polygon fill="#E7E7E7" points="962.7139,1095.5469,972.7139,1099.5469,962.7139,1103.5469,966.7139,1099.5469" style="stroke:#E7E7E7;stroke-width:1;"/><line style="stroke:#E7E7E7;stroke-width:1;" x1="606.7695" x2="968.7139" y1="1099.5469" y2="1099.5469"/><text fill="#FFFFFF" font-family="sans-serif" font-size="13" font-weight="bold" lengthAdjust="spacing" textLength="37.0132" x="613.7695" y="1094.481">3.1.2</text><text fill="#FFFFFF" font-family="sans-serif" font-size="13" lengthAdjust="spacing" textLength="225.4497" x="654.7827" y="1094.481">addUserToGroup(UserID, GroupID)</text></g><g class="message" data-participant-1="UGS" data-participant-2="GH"><polygon fill="#E7E7E7" points="617.7695,1124.6797,607.7695,1128.6797,617.7695,1132.6797,613.7695,1128.6797" style="stroke:#E7E7E7;stroke-width:1;"/><line style="stroke:#E7E7E7;stroke-width:1;stroke-dasharray:2,2;" x1="611.7695" x2="978.7139" y1="1128.6797" y2="1128.6797"/><text fill="#FFFFFF" font-family="sans-serif" font-size="13" font-weight="bold" lengthAdjust="spacing" textLength="37.0132" x="623.7695" y="1123.6138">3.1.3</text><text fill="#FFFFFF" font-family="sans-serif" font-size="13" lengthAdjust="spacing" textLength="140.2642" x="664.7827" y="1123.6138">UpdatedGroupDetails</text></g><g class="message" data-participant-1="GH" data-participant-2="EB"><polygon fill="#E7E7E7" points="1081.7041,1153.8125,1091.7041,1157.8125,1081.7041,1161.8125,1085.7041,1157.8125" style="stroke:#E7E7E7;stroke-width:1;"/><line style="stroke:#E7E7E7;stroke-width:1;" x1="606.7695" x2="1087.7041" y1="1157.8125" y2="1157.8125"/><text fill="#FFFFFF" font-family="sans-serif" font-size="13" font-weight="bold" lengthAdjust="spacing" textLength="37.0132" x="613.7695" y="1152.7466">3.1.4</text><text fill="#FFFFFF" font-family="sans-serif" font-size="13" lengthAdjust="spacing" textLength="225.3164" x="654.7827" y="1152.7466">publish(UserAddedToGroup event)</text></g><g class="message" data-participant-1="GH" data-participant-2="U"><polygon fill="#E7E7E7" points="34.9551,1182.9453,24.9551,1186.9453,34.9551,1190.9453,30.9551,1186.9453" style="stroke:#E7E7E7;stroke-width:1;"/><line style="stroke:#E7E7E7;stroke-width:1;stroke-dasharray:2,2;" x1="28.9551" x2="600.7695" y1="1186.9453" y2="1186.9453"/><text fill="#FFFFFF" font-family="sans-serif" font-size="13" font-weight="bold" lengthAdjust="spacing" textLength="37.0132" x="40.9551" y="1181.8794">3.1.5</text><text fill="#FFFFFF" font-family="sans-serif" font-size="13" lengthAdjust="spacing" textLength="229.9375" x="81.9683" y="1181.8794">joinedGroup(UpdatedGroupDetails)</text></g><rect fill="#111111" height="3" style="stroke:#111111;stroke-width:1;" width="1148.8682" x="0" y="1215.5117"/><line style="stroke:#FFFFFF;stroke-width:1;" x1="0" x2="1148.8682" y1="1215.5117" y2="1215.5117"/><line style="stroke:#FFFFFF;stroke-width:1;" x1="0" x2="1148.8682" y1="1218.5117" y2="1218.5117"/><rect fill="#111111" height="23.1328" style="stroke:#FFFFFF;stroke-width:2;" width="229.6489" x="459.6096" y="1204.9453"/><text fill="#FFFFFF" font-family="sans-serif" font-size="13" font-weight="bold" lengthAdjust="spacing" textLength="211.123" x="465.6096" y="1221.0122">Remove Member from Group</text><g class="message" data-participant-1="U" data-participant-2="GH"><polygon fill="#E7E7E7" points="584.7695,1255.2109,594.7695,1259.2109,584.7695,1263.2109,588.7695,1259.2109" style="stroke:#E7E7E7;stroke-width:1;"/><line style="stroke:#E7E7E7;stroke-width:1;" x1="23.9551" x2="590.7695" y1="1259.2109" y2="1259.2109"/><text fill="#FFFFFF" font-family="sans-serif" font-size="13" font-weight="bold" lengthAdjust="spacing" textLength="37.0132" x="30.9551" y="1254.145">3.2.1</text><text fill="#FFFFFF" font-family="sans-serif" font-size="13" lengthAdjust="spacing" textLength="307.9312" x="71.9683" y="1254.145">removeUserFromGroup(targetUserID, GroupID)</text></g><g class="message" data-participant-1="GH" data-participant-2="UGS"><polygon fill="#E7E7E7" points="962.7139,1284.3438,972.7139,1288.3438,962.7139,1292.3438,966.7139,1288.3438" style="stroke:#E7E7E7;stroke-width:1;"/><line style="stroke:#E7E7E7;stroke-width:1;" x1="606.7695" x2="968.7139" y1="1288.3438" y2="1288.3438"/><text fill="#FFFFFF" font-family="sans-serif" font-size="13" font-weight="bold" lengthAdjust="spacing" textLength="37.0132" x="613.7695" y="1283.2778">3.2.2</text><text fill="#FFFFFF" font-family="sans-serif" font-size="13" lengthAdjust="spacing" textLength="307.9312" x="654.7827" y="1283.2778">removeUserFromGroup(targetUserID, GroupID)</text></g><g class="message" data-participant-1="UGS" data-participant-2="GH"><polygon fill="#E7E7E7" points="617.7695,1313.4766,607.7695,1317.4766,617.7695,1321.4766,613.7695,1317.4766" style="stroke:#E7E7E7;stroke-width:1;"/><line style="stroke:#E7E7E7;stroke-width:1;stroke-dasharray:2,2;" x1="611.7695" x2="978.7139" y1="1317.4766" y2="1317.4766"/><text fill="#FFFFFF" font-family="sans-serif" font-size="13" font-weight="bold" lengthAdjust="spacing" textLength="37.0132" x="623.7695" y="1312.4106">3.2.3</text><text fill="#FFFFFF" font-family="sans-serif" font-size="13" lengthAdjust="spacing" textLength="140.2642" x="664.7827" y="1312.4106">UpdatedGroupDetails</text></g><g class="message" data-participant-1="GH" data-participant-2="EB"><polygon fill="#E7E7E7" points="1081.7041,1342.6094,1091.7041,1346.6094,1081.7041,1350.6094,1085.7041,1346.6094" style="stroke:#E7E7E7;stroke-width:1;"/><line style="stroke:#E7E7E7;stroke-width:1;" x1="606.7695" x2="1087.7041" y1="1346.6094" y2="1346.6094"/><text fill="#FFFFFF" font-family="sans-serif" font-size="13" font-weight="bold" lengthAdjust="spacing" textLength="37.0132" x="613.7695" y="1341.5435">3.2.4</text><text fill="#FFFFFF" font-family="sans-serif" font-size="13" lengthAdjust="spacing" textLength="262.8057" x="654.7827" y="1341.5435">publish(UserRemovedFromGroup event)</text></g><g class="message" data-participant-1="GH" data-participant-2="U"><polygon fill="#E7E7E7" points="34.9551,1371.7422,24.9551,1375.7422,34.9551,1379.7422,30.9551,1375.7422" style="stroke:#E7E7E7;stroke-width:1;"/><line style="stroke:#E7E7E7;stroke-width:1;stroke-dasharray:2,2;" x1="28.9551" x2="600.7695" y1="1375.7422" y2="1375.7422"/><text fill="#FFFFFF" font-family="sans-serif" font-size="13" font-weight="bold" lengthAdjust="spacing" textLength="37.0132" x="40.9551" y="1370.6763">3.2.5</text><text fill="#FFFFFF" font-family="sans-serif" font-size="13" lengthAdjust="spacing" textLength="266.9189" x="81.9683" y="1370.6763">memberRemoved(UpdatedGroupDetails)</text></g><rect fill="#111111" height="3" style="stroke:#111111;stroke-width:1;" width="1148.8682" x="0" y="1404.3086"/><line style="stroke:#FFFFFF;stroke-width:1;" x1="0" x2="1148.8682" y1="1404.3086" y2="1404.3086"/><line style="stroke:#FFFFFF;stroke-width:1;" x1="0" x2="1148.8682" y1="1407.3086" y2="1407.3086"/><rect fill="#111111" height="23.1328" style="stroke:#FFFFFF;stroke-width:2;" width="107.4946" x="520.6868" y="1393.7422"/><text fill="#FFFFFF" font-family="sans-serif" font-size="13" font-weight="bold" lengthAdjust="spacing" textLength="88.9688" x="526.6868" y="1409.8091">User Logout</text><g class="message" data-participant-1="U" data-participant-2="AS"><polygon fill="#E7E7E7" points="465.0151,1444.0078,475.0151,1448.0078,465.0151,1452.0078,469.0151,1448.0078" style="stroke:#E7E7E7;stroke-width:1;"/><line style="stroke:#E7E7E7;stroke-width:1;" x1="23.9551" x2="471.0151" y1="1448.0078" y2="1448.0078"/><text fill="#FFFFFF" font-family="sans-serif" font-size="13" font-weight="bold" lengthAdjust="spacing" textLength="37.0132" x="30.9551" y="1442.9419">4.1.1</text><text fill="#FFFFFF" font-family="sans-serif" font-size="13" lengthAdjust="spacing" textLength="130.4824" x="71.9683" y="1442.9419">logout(UserSession)</text></g><g class="message" data-participant-1="AS" data-participant-2="UGS"><polygon fill="#E7E7E7" points="962.7139,1473.1406,972.7139,1477.1406,962.7139,1481.1406,966.7139,1477.1406" style="stroke:#E7E7E7;stroke-width:1;"/><line style="stroke:#E7E7E7;stroke-width:1;" x1="487.0151" x2="968.7139" y1="1477.1406" y2="1477.1406"/><text fill="#FFFFFF" font-family="sans-serif" font-size="13" font-weight="bold" lengthAdjust="spacing" textLength="37.0132" x="494.0151" y="1472.0747">4.1.2</text><text fill="#FFFFFF" font-family="sans-serif" font-size="13" lengthAdjust="spacing" textLength="203.0234" x="535.0283" y="1472.0747">invalidateSession(UserSession)</text></g><g class="message" data-participant-1="UGS" data-participant-2="AS"><polygon fill="#E7E7E7" points="498.0151,1502.2734,488.0151,1506.2734,498.0151,1510.2734,494.0151,1506.2734" style="stroke:#E7E7E7;stroke-width:1;"/><line style="stroke:#E7E7E7;stroke-width:1;stroke-dasharray:2,2;" x1="492.0151" x2="978.7139" y1="1506.2734" y2="1506.2734"/><text fill="#FFFFFF" font-family="sans-serif" font-size="13" font-weight="bold" lengthAdjust="spacing" textLength="37.0132" x="504.0151" y="1501.2075">4.1.3</text><text fill="#FFFFFF" font-family="sans-serif" font-size="13" lengthAdjust="spacing" textLength="64.6763" x="545.0283" y="1501.2075">logoutAck</text></g><g class="message" data-participant-1="AS" data-participant-2="U"><polygon fill="#E7E7E7" points="34.9551,1531.4063,24.9551,1535.4063,34.9551,1539.4063,30.9551,1535.4063" style="stroke:#E7E7E7;stroke-width:1;"/><line style="stroke:#E7E7E7;stroke-width:1;stroke-dasharray:2,2;" x1="28.9551" x2="481.0151" y1="1535.4063" y2="1535.4063"/><text fill="#FFFFFF" font-family="sans-serif" font-size="13" font-weight="bold" lengthAdjust="spacing" textLength="37.0132" x="40.9551" y="1530.3403">4.1.4</text><text fill="#FFFFFF" font-family="sans-serif" font-size="13" lengthAdjust="spacing" textLength="93.4375" x="81.9683" y="1530.3403">logoutSuccess</text></g><!--SRC=[hPNRRjf048Rl_HGhhem4KNgBH2NJ4DEggQeuFC3YdP1jRA-x1_BwdJq0Fk00JIv0jlQVVsQ-dVLIeqLboWr8ykNczkOsYcYkXIIZjG8v8bIHTLHJgNdEQrffCagCVY4Po1tFmQqdMLkGIc5gig8LAu93keeOrNH35NZVgTTacCXxhDCi-cl0uFfo1-YoCCejB1Uk8BwZ6jpBV4wi0tc4BLTQKir5HURpQ4scNx6K6P5k0QHLnL1INan8JPLw4vADZrvOTPBP64mz8pL8XL5dOcoL-2FJaChAxq2ZN4KCMZBllLoWjTaKNBt4LlnD0WeO0TlZs8bi1VkYVJUPoNDGAcwuZvlsMFc1ma-nvQvzUjn6NkLaSUHHMCd587QquBXNW9Koh97JGbq99CFQxPwu-h_VJSYJU8LgV0gGxzqLs6mwE0ms_I0OV-RvOUk7UpUrxSNjwhwQ2jv-qHBSGsPajN_-VOxCnxnwf9mRktg2Gbn_WinnCUwRdsBfpw0RoTCW4myoNSr8xWRNHSHR-s_xRhI79pnTTKzJHpxnBaBEFRy1EZQTYmobazYzMTwDp1rOFdaJbWlgd3UhyhIsZTMucQtbZ5qTGNcem_Dcw_Opuli-L8q3aPv5TarabrROxcOR5_BfJ5E7JsUSpc5oP_E7mE-H1_RkGFr1NQlRGJAKkK5-4bw-Ftlzi4_1OkqJne25V7qqjlBWUYcPHoZ53iW3E1BFKfI3Y1h395sKBUWU8tn2JUKMz323Dhh_SVWqYhvfTiZS9raw7a5trPJXjIUC7fwmSE-XfdsX37pQURM_ze9o8Ahx4VSfalprtSiD9U5swto4_m40]--></g></svg>